<svg xmlns="http://www.w3.org/2000/svg" viewBox="0 0 256 143.0214876033058" clip-path="url(#clip)"><defs><clipPath id="clip" clipPathUnits="objectBoundingBox"><rect x="0" y="0" width="256" height="143.0214876033058"/></clipPath></defs><rect x="0" y="0" width="256" height="143.0214876033058" fill="#f6f6f6"/><path d="M214,136L102,-190L17,91Z" fill="rgb(0, 1, 1)" fill-opacity="0.78"/><path d="M178,26L95,-268L27,6Z" fill="rgb(244, 244, 244)" fill-opacity="0.97"/><path d="M235,9L240,29L216,43Z" fill="rgb(20, 27, 27)" fill-opacity="0.80"/><path d="M41,104L62,121L38,140Z" fill="rgb(8, 8, 8)" fill-opacity="0.80"/><path d="M129,137L204,55L24,45Z" fill="rgb(0, 0, 0)" fill-opacity="0.92"/><path d="M223,74L214,91L183,81Z" fill="rgb(14, 17, 17)" fill-opacity="0.92"/><path d="M50,101L13,30L8,150Z" fill="rgb(243, 243, 243)" fill-opacity="0.94"/><path d="M196,153L150,135L201,84Z" fill="rgb(234, 245, 244)" fill-opacity="0.69"/><path d="M173,40L243,22L206,101Z" fill="rgb(0, 45, 37)" fill-opacity="0.21"/><path d="M175,32L167,38L171,61Z" fill="rgb(248, 248, 248)" fill-opacity="0.63"/><path d="M51,108L73,136L33,120Z" fill="rgb(1, 1, 1)" fill-opacity="0.46"/><path d="M51,96L59,127L121,123Z" fill="rgb(230, 230, 230)" fill-opacity="0.79"/><path d="M29,35L196,88L141,18Z" fill="rgb(0, 0, 0)" fill-opacity="0.98"/><path d="M201,111L207,121L71,85Z" fill="rgb(0, 0, 0)" fill-opacity="0.78"/><path d="M97,152L180,113L204,132Z" fill="rgb(242, 242, 242)" fill-opacity="0.97"/><path d="M170,30L268,5L151,27Z" fill="rgb(238, 238, 238)" fill-opacity="0.88"/><path d="M173,41L181,29L195,69Z" fill="rgb(3, 0, 0)" fill-opacity="0.64"/><path d="M193,112L101,120L45,4Z" fill="rgb(0, 0, 0)" fill-opacity="0.92"/><path d="M217,129L179,89L207,87Z" fill="rgb(210, 239, 237)" fill-opacity="0.76"/><path d="M88,122L127,171L84,127Z" fill="rgb(156, 156, 156)" fill-opacity="0.71"/><path d="M243,154L149,117L129,131Z" fill="rgb(241, 241, 241)" fill-opacity="0.81"/><path d="M200,68L223,42L176,-31Z" fill="rgb(227, 243, 241)" fill-opacity="0.79"/><path d="M193,114L165,122L221,177Z" fill="rgb(243, 243, 243)" fill-opacity="0.96"/><path d="M80,125L122,131L113,118Z" fill="rgb(234, 234, 234)" fill-opacity="1.00"/><path d="M229,14L242,24L229,38Z" fill="rgb(2, 0, 0)" fill-opacity="0.78"/><path d="M34,80L82,109L41,5Z" fill="rgb(0, 0, 0)" fill-opacity="0.90"/><path d="M89,16L124,19L0,-4Z" fill="rgb(230, 230, 230)" fill-opacity="1.00"/><path d="M186,110L182,89L199,110Z" fill="rgb(191, 231, 228)" fill-opacity="0.96"/><path d="M93,134L97,143L99,134Z" fill="rgb(0, 0, 0)" fill-opacity="0.49"/><path d="M211,134L212,124L221,172Z" fill="rgb(244, 244, 244)" fill-opacity="0.82"/><path d="M229,43L210,66L238,42Z" fill="rgb(103, 127, 126)" fill-opacity="0.52"/><path d="M123,135L134,140L104,92Z" fill="rgb(10, 10, 10)" fill-opacity="0.87"/><path d="M186,105L161,29L69,105Z" fill="rgb(0, 0, 0)" fill-opacity="0.97"/><path d="M220,75L219,85L140,90Z" fill="rgb(2, 2, 2)" fill-opacity="0.89"/><path d="M-64,54L31,34L25,139Z" fill="rgb(246, 246, 246)" fill-opacity="0.88"/><path d="M165,4L156,33L177,15Z" fill="rgb(242, 242, 242)" fill-opacity="0.71"/><path d="M53,94L75,108L-29,111Z" fill="rgb(244, 244, 244)" fill-opacity="0.86"/><path d="M35,126L56,108L48,136Z" fill="rgb(16, 16, 16)" fill-opacity="0.81"/><path d="M34,75L32,33L103,16Z" fill="rgb(0, 0, 0)" fill-opacity="0.93"/><path d="M220,69L213,68L216,56Z" fill="rgb(0, 29, 28)" fill-opacity="0.39"/><path d="M225,49L258,63L219,78Z" fill="rgb(245, 245, 245)" fill-opacity="0.77"/><path d="M212,33L203,-23L186,56Z" fill="rgb(246, 245, 245)" fill-opacity="0.89"/><path d="M202,108L210,142L193,111Z" fill="rgb(0, 0, 0)" fill-opacity="0.65"/><path d="M46,6L51,96L109,23Z" fill="rgb(0, 0, 0)" fill-opacity="0.91"/><path d="M224,47L225,30L218,28Z" fill="rgb(0, 4, 4)" fill-opacity="0.59"/><path d="M68,104L40,80L87,108Z" fill="rgb(9, 9, 9)" fill-opacity="0.80"/><path d="M8,120L22,153L43,132Z" fill="rgb(236, 236, 236)" fill-opacity="1.00"/><path d="M178,29L174,55L190,48Z" fill="rgb(1, 0, 0)" fill-opacity="0.57"/><path d="M139,20L104,125L93,18Z" fill="rgb(0, 0, 0)" fill-opacity="0.96"/><path d="M97,131L93,106L50,108Z" fill="rgb(244, 244, 244)" fill-opacity="0.90"/><path d="M131,133L138,163L137,125Z" fill="rgb(239, 239, 239)" fill-opacity="0.77"/><path d="M26,40L37,85L-14,209Z" fill="rgb(244, 244, 244)" fill-opacity="1.00"/><path d="M227,11L229,52L219,5Z" fill="rgb(229, 243, 242)" fill-opacity="0.56"/><path d="M198,49L117,122L165,117Z" fill="rgb(0, 0, 0)" fill-opacity="1.00"/><path d="M214,46L194,51L218,48Z" fill="rgb(140, 180, 176)" fill-opacity="0.71"/><path d="M85,105L88,164L89,105Z" fill="rgb(245, 245, 245)" fill-opacity="0.83"/><path d="M202,104L218,82L202,102Z" fill="rgb(108, 116, 116)" fill-opacity="0.84"/><path d="M253,-26L221,29L181,43Z" fill="rgb(244, 244, 244)" fill-opacity="0.95"/><path d="M221,-13L257,-27L240,24Z" fill="rgb(243, 243, 243)" fill-opacity="0.92"/><path d="M240,27L231,37L260,70Z" fill="rgb(243, 243, 243)" fill-opacity="0.99"/><path d="M47,8L101,-49L-2,16Z" fill="rgb(245, 245, 245)" fill-opacity="0.77"/><path d="M215,66L223,83L216,78Z" fill="rgb(22, 32, 32)" fill-opacity="0.35"/><path d="M82,107L167,27L41,78Z" fill="rgb(0, 0, 0)" fill-opacity="0.96"/><path d="M187,82L209,70L231,34Z" fill="rgb(161, 203, 199)" fill-opacity="0.77"/><path d="M37,119L73,135L40,110Z" fill="rgb(0, 0, 0)" fill-opacity="0.50"/><path d="M166,49L175,34L179,32Z" fill="rgb(210, 211, 211)" fill-opacity="0.53"/><path d="M70,134L98,131L74,156Z" fill="rgb(246, 246, 246)" fill-opacity="0.66"/><path d="M173,32L167,52L173,56Z" fill="rgb(254, 253, 253)" fill-opacity="0.63"/><path d="M211,77L201,37L195,78Z" fill="rgb(184, 221, 217)" fill-opacity="0.97"/><path d="M40,141L40,137L16,139Z" fill="rgb(197, 197, 197)" fill-opacity="1.00"/><path d="M58,132L57,112L82,109Z" fill="rgb(255, 255, 255)" fill-opacity="0.49"/><path d="M139,117L97,89L127,139Z" fill="rgb(0, 0, 0)" fill-opacity="0.73"/><path d="M27,143L-2,59L38,121Z" fill="rgb(244, 244, 244)" fill-opacity="1.00"/><path d="M47,89L40,85L48,103Z" fill="rgb(254, 254, 254)" fill-opacity="0.50"/><path d="M34,128L58,128L55,109Z" fill="rgb(3, 3, 3)" fill-opacity="0.72"/><path d="M50,95L187,89L197,52Z" fill="rgb(0, 0, 0)" fill-opacity="0.91"/><path d="M209,60L205,68L201,61Z" fill="rgb(79, 97, 97)" fill-opacity="0.47"/><path d="M204,133L198,166L166,113Z" fill="rgb(246, 246, 246)" fill-opacity="0.74"/><path d="M210,136L203,143L211,129Z" fill="rgb(5, 5, 5)" fill-opacity="0.36"/><path d="M137,19L153,23L168,125Z" fill="rgb(3, 3, 3)" fill-opacity="0.84"/><path d="M187,112L182,90L200,86Z" fill="rgb(191, 235, 231)" fill-opacity="0.69"/><path d="M70,136L71,132L58,127Z" fill="rgb(12, 12, 12)" fill-opacity="0.53"/><path d="M28,47L48,36L49,84Z" fill="rgb(0, 0, 0)" fill-opacity="0.53"/><path d="M228,17L237,14L228,35Z" fill="rgb(0, 0, 0)" fill-opacity="0.60"/><path d="M162,26L161,64L172,33Z" fill="rgb(0, 0, 0)" fill-opacity="0.58"/><path d="M181,37L217,-15L175,5Z" fill="rgb(247, 244, 244)" fill-opacity="0.57"/><path d="M208,137L253,131L203,150Z" fill="rgb(245, 245, 245)" fill-opacity="0.99"/><path d="M201,108L250,37L210,126Z" fill="rgb(246, 243, 243)" fill-opacity="0.60"/><path d="M154,28L167,24L152,31Z" fill="rgb(213, 213, 213)" fill-opacity="0.98"/><path d="M71,13L139,20L256,-93Z" fill="rgb(252, 252, 252)" fill-opacity="0.53"/><path d="M85,107L28,54L71,105Z" fill="rgb(2, 2, 2)" fill-opacity="1.00"/><path d="M118,115L47,90L32,69Z" fill="rgb(1, 1, 1)" fill-opacity="1.00"/><path d="M128,151L25,83L113,125Z" fill="rgb(245, 245, 245)" fill-opacity="0.81"/><path d="M171,156L111,131L90,144Z" fill="rgb(245, 245, 245)" fill-opacity="1.00"/><path d="M219,32L225,40L225,28Z" fill="rgb(0, 0, 0)" fill-opacity="0.56"/><path d="M40,11L29,47L16,71Z" fill="rgb(242, 242, 242)" fill-opacity="0.93"/><path d="M98,68L186,102L184,108Z" fill="rgb(0, 1, 1)" fill-opacity="0.66"/><path d="M44,134L43,109L55,111Z" fill="rgb(2, 2, 2)" fill-opacity="0.99"/><path d="M174,47L174,54L168,47Z" fill="rgb(248, 248, 248)" fill-opacity="0.80"/><path d="M34,1L47,13L26,-48Z" fill="rgb(235, 235, 235)" fill-opacity="0.63"/></svg>