<svg xmlns="http://www.w3.org/2000/svg" viewBox="0 0 256 143.0214876033058" clip-path="url(#clip)"><defs><clipPath id="clip" clipPathUnits="objectBoundingBox"><rect x="0" y="0" width="256" height="143.0214876033058"/></clipPath></defs><rect x="0" y="0" width="256" height="143.0214876033058" fill="#f6f6f6"/><path d="M144,196L-14,6L209,27Z" fill="rgb(16, 17, 17)" fill-opacity="0.82"/><path d="M-83,-195L17,83L41,14Z" fill="rgb(243, 243, 243)" fill-opacity="1.00"/><path d="M172,218L60,100L116,121Z" fill="rgb(228, 228, 228)" fill-opacity="0.98"/><path d="M211,138L209,115L-72,-83Z" fill="rgb(0, 0, 0)" fill-opacity="0.64"/><path d="M69,132L44,103L34,131Z" fill="rgb(45, 45, 45)" fill-opacity="0.86"/><path d="M40,6L200,117L34,92Z" fill="rgb(0, 0, 0)" fill-opacity="0.84"/><path d="M146,117L111,157L204,132Z" fill="rgb(239, 239, 239)" fill-opacity="0.99"/><path d="M229,37L243,25L228,12Z" fill="rgb(1, 1, 1)" fill-opacity="0.85"/><path d="M228,26L225,80L161,21Z" fill="rgb(202, 216, 215)" fill-opacity="1.00"/><path d="M187,-22L152,33L184,17Z" fill="rgb(241, 241, 241)" fill-opacity="0.76"/><path d="M196,116L219,228L166,115Z" fill="rgb(242, 242, 242)" fill-opacity="0.96"/><path d="M165,79L221,86L223,54Z" fill="rgb(168, 199, 196)" fill-opacity="1.00"/><path d="M35,118L53,98L20,61Z" fill="rgb(240, 240, 240)" fill-opacity="0.88"/><path d="M201,109L213,139L190,111Z" fill="rgb(0, 1, 1)" fill-opacity="0.80"/><path d="M58,9L126,140L186,37Z" fill="rgb(0, 0, 0)" fill-opacity="0.87"/><path d="M54,107L37,140L58,124Z" fill="rgb(5, 5, 5)" fill-opacity="0.71"/><path d="M91,103L47,132L121,147Z" fill="rgb(229, 229, 229)" fill-opacity="0.69"/><path d="M175,25L174,57L165,52Z" fill="rgb(190, 189, 189)" fill-opacity="0.70"/><path d="M143,18L105,123L35,30Z" fill="rgb(0, 0, 0)" fill-opacity="0.90"/><path d="M231,79L181,89L188,113Z" fill="rgb(187, 220, 217)" fill-opacity="0.95"/><path d="M171,74L176,27L199,63Z" fill="rgb(10, 10, 10)" fill-opacity="0.69"/><path d="M188,111L135,122L141,35Z" fill="rgb(0, 0, 0)" fill-opacity="0.85"/><path d="M59,99L28,59L109,110Z" fill="rgb(0, 0, 0)" fill-opacity="0.82"/><path d="M199,-5L186,55L222,42Z" fill="rgb(232, 240, 239)" fill-opacity="0.97"/><path d="M222,32L233,33L238,7Z" fill="rgb(0, 1, 0)" fill-opacity="0.44"/><path d="M173,35L172,59L168,35Z" fill="rgb(255, 255, 255)" fill-opacity="0.66"/><path d="M167,83L205,77L146,108Z" fill="rgb(5, 7, 7)" fill-opacity="0.76"/><path d="M99,138L97,130L92,143Z" fill="rgb(26, 26, 26)" fill-opacity="0.49"/><path d="M32,31L33,75L170,118Z" fill="rgb(0, 0, 0)" fill-opacity="0.75"/><path d="M196,77L184,68L164,83Z" fill="rgb(191, 233, 229)" fill-opacity="0.75"/><path d="M42,109L36,119L73,135Z" fill="rgb(0, 0, 0)" fill-opacity="0.59"/><path d="M24,121L-10,185L43,132Z" fill="rgb(233, 233, 233)" fill-opacity="0.98"/><path d="M13,17L55,5L-26,-43Z" fill="rgb(245, 245, 245)" fill-opacity="0.96"/><path d="M89,105L58,131L57,114Z" fill="rgb(242, 242, 242)" fill-opacity="0.77"/><path d="M75,71L132,140L124,52Z" fill="rgb(0, 0, 0)" fill-opacity="0.99"/><path d="M131,132L137,124L279,148Z" fill="rgb(242, 242, 242)" fill-opacity="0.91"/><path d="M209,123L192,91L228,141Z" fill="rgb(229, 237, 236)" fill-opacity="1.00"/><path d="M50,134L46,135L39,111Z" fill="rgb(26, 26, 26)" fill-opacity="0.83"/><path d="M237,45L224,27L221,54Z" fill="rgb(156, 181, 179)" fill-opacity="0.90"/><path d="M69,105L103,73L84,107Z" fill="rgb(1, 1, 1)" fill-opacity="0.76"/><path d="M231,14L194,-17L183,43Z" fill="rgb(245, 245, 245)" fill-opacity="0.95"/><path d="M65,110L11,62L38,109Z" fill="rgb(244, 244, 244)" fill-opacity="0.91"/><path d="M200,107L212,130L207,139Z" fill="rgb(5, 5, 5)" fill-opacity="0.69"/><path d="M185,110L210,34L199,110Z" fill="rgb(188, 232, 227)" fill-opacity="0.72"/><path d="M60,127L88,104L100,114Z" fill="rgb(251, 251, 251)" fill-opacity="0.67"/><path d="M15,1L38,105L31,58Z" fill="rgb(239, 239, 239)" fill-opacity="0.94"/><path d="M214,56L221,80L216,83Z" fill="rgb(86, 94, 93)" fill-opacity="0.59"/><path d="M241,26L226,30L233,12Z" fill="rgb(1, 2, 2)" fill-opacity="0.67"/><path d="M101,136L88,127L97,140Z" fill="rgb(1, 1, 1)" fill-opacity="0.40"/><path d="M241,8L243,18L174,-15Z" fill="rgb(245, 245, 245)" fill-opacity="1.00"/><path d="M120,50L200,58L141,93Z" fill="rgb(0, 0, 0)" fill-opacity="0.77"/><path d="M38,4L167,22L69,12Z" fill="rgb(237, 237, 237)" fill-opacity="0.96"/><path d="M149,121L197,122L48,223Z" fill="rgb(245, 245, 245)" fill-opacity="1.00"/><path d="M32,36L180,30L48,95Z" fill="rgb(0, 0, 0)" fill-opacity="1.00"/><path d="M185,89L195,81L169,81Z" fill="rgb(2, 4, 4)" fill-opacity="0.75"/><path d="M133,140L102,126L92,182Z" fill="rgb(245, 245, 245)" fill-opacity="0.95"/><path d="M48,7L33,35L77,15Z" fill="rgb(0, 0, 0)" fill-opacity="0.82"/><path d="M144,20L170,52L98,119Z" fill="rgb(0, 0, 0)" fill-opacity="0.83"/><path d="M58,129L55,111L41,109Z" fill="rgb(3, 3, 3)" fill-opacity="0.85"/><path d="M230,44L222,3L196,-2Z" fill="rgb(241, 248, 247)" fill-opacity="0.46"/><path d="M33,140L29,140L49,132Z" fill="rgb(56, 56, 56)" fill-opacity="0.62"/><path d="M61,128L47,128L38,111Z" fill="rgb(8, 8, 8)" fill-opacity="0.95"/><path d="M37,84L56,22L29,47Z" fill="rgb(2, 2, 2)" fill-opacity="0.85"/><path d="M177,36L176,32L170,40Z" fill="rgb(229, 229, 229)" fill-opacity="0.76"/><path d="M199,61L219,58L220,70Z" fill="rgb(86, 106, 105)" fill-opacity="0.39"/><path d="M196,93L211,55L216,88Z" fill="rgb(204, 251, 246)" fill-opacity="0.50"/><path d="M212,19L167,31L140,-55Z" fill="rgb(246, 246, 246)" fill-opacity="0.74"/><path d="M140,124L108,117L125,18Z" fill="rgb(0, 0, 0)" fill-opacity="0.85"/><path d="M235,44L216,28L194,52Z" fill="rgb(103, 191, 183)" fill-opacity="0.24"/><path d="M93,134L114,130L92,111Z" fill="rgb(249, 249, 249)" fill-opacity="0.60"/><path d="M197,123L205,135L212,126Z" fill="rgb(0, 0, 0)" fill-opacity="0.58"/><path d="M227,26L239,23L230,38Z" fill="rgb(11, 12, 12)" fill-opacity="0.91"/><path d="M80,144L110,117L116,120Z" fill="rgb(236, 236, 236)" fill-opacity="0.82"/><path d="M93,189L46,129L62,129Z" fill="rgb(253, 253, 253)" fill-opacity="0.47"/><path d="M16,135L44,120L11,120Z" fill="rgb(243, 243, 243)" fill-opacity="0.53"/><path d="M123,80L160,122L168,116Z" fill="rgb(1, 1, 1)" fill-opacity="0.80"/><path d="M94,130L71,121L93,132Z" fill="rgb(63, 63, 63)" fill-opacity="0.42"/><path d="M43,118L48,134L37,127Z" fill="rgb(3, 3, 3)" fill-opacity="0.88"/><path d="M98,68L78,15L159,24Z" fill="rgb(0, 0, 0)" fill-opacity="1.00"/><path d="M2,97L30,48L29,76Z" fill="rgb(245, 245, 245)" fill-opacity="0.94"/><path d="M-18,-50L10,78L35,30Z" fill="rgb(246, 246, 246)" fill-opacity="0.92"/><path d="M179,81L185,104L151,119Z" fill="rgb(0, 1, 1)" fill-opacity="0.92"/><path d="M197,63L196,48L189,73Z" fill="rgb(15, 20, 19)" fill-opacity="0.65"/><path d="M110,-24L151,23L199,23Z" fill="rgb(245, 245, 245)" fill-opacity="0.90"/><path d="M94,135L104,183L63,120Z" fill="rgb(248, 248, 248)" fill-opacity="0.73"/><path d="M35,80L67,103L174,29Z" fill="rgb(0, 0, 0)" fill-opacity="0.77"/><path d="M202,107L243,54L224,155Z" fill="rgb(246, 245, 245)" fill-opacity="0.88"/><path d="M188,80L204,72L190,77Z" fill="rgb(112, 133, 132)" fill-opacity="0.38"/><path d="M161,30L178,4L152,31Z" fill="rgb(232, 232, 232)" fill-opacity="0.61"/><path d="M173,40L184,34L173,48Z" fill="rgb(8, 8, 8)" fill-opacity="0.91"/><path d="M221,81L214,77L195,80Z" fill="rgb(202, 243, 240)" fill-opacity="0.52"/><path d="M150,29L145,36L187,31Z" fill="rgb(17, 16, 16)" fill-opacity="0.44"/><path d="M100,17L131,-34L120,19Z" fill="rgb(242, 242, 242)" fill-opacity="0.94"/><path d="M194,116L205,140L184,106Z" fill="rgb(210, 212, 212)" fill-opacity="0.44"/><path d="M225,50L244,127L219,73Z" fill="rgb(244, 244, 244)" fill-opacity="1.00"/><path d="M204,100L202,100L198,121Z" fill="rgb(25, 37, 36)" fill-opacity="0.48"/><path d="M153,73L178,75L187,42Z" fill="rgb(0, 0, 0)" fill-opacity="0.78"/><path d="M152,115L177,54L134,127Z" fill="rgb(3, 3, 3)" fill-opacity="0.92"/><path d="M175,51L170,57L167,37Z" fill="rgb(255, 255, 255)" fill-opacity="0.46"/><path d="M176,67L192,70L198,49Z" fill="rgb(1, 2, 2)" fill-opacity="0.66"/></svg>