<svg xmlns="http://www.w3.org/2000/svg" viewBox="0 0 256 143.0214876033058" clip-path="url(#clip)"><defs><clipPath id="clip" clipPathUnits="objectBoundingBox"><rect x="0" y="0" width="256" height="143.0214876033058"/></clipPath></defs><rect x="0" y="0" width="256" height="143.0214876033058" fill="#f6f6f6"/><path d="M47,246L240,40L30,5Z" fill="rgb(40, 30, 38)" fill-opacity="0.88"/><path d="M-4,190L192,148L71,104Z" fill="rgb(238, 240, 239)" fill-opacity="0.85"/><path d="M26,13L154,21L216,138Z" fill="rgb(1, 0, 6)" fill-opacity="0.75"/><path d="M184,34L187,141L247,12Z" fill="rgb(174, 109, 159)" fill-opacity="0.89"/><path d="M171,30L130,137L25,46Z" fill="rgb(0, 0, 0)" fill-opacity="0.94"/><path d="M236,79L171,73L161,92Z" fill="rgb(166, 73, 204)" fill-opacity="0.96"/><path d="M40,16L14,90L40,-68Z" fill="rgb(243, 243, 243)" fill-opacity="0.99"/><path d="M237,10L231,48L200,49Z" fill="rgb(160, 84, 37)" fill-opacity="1.00"/><path d="M76,109L24,111L2,61Z" fill="rgb(242, 242, 242)" fill-opacity="0.94"/><path d="M198,51L193,72L163,61Z" fill="rgb(0, 0, 5)" fill-opacity="0.85"/><path d="M157,117L205,198L133,127Z" fill="rgb(242, 242, 242)" fill-opacity="0.95"/><path d="M172,30L167,53L174,56Z" fill="rgb(238, 241, 238)" fill-opacity="0.73"/><path d="M120,124L146,70L183,113Z" fill="rgb(0, 0, 0)" fill-opacity="0.94"/><path d="M230,12L227,37L242,26Z" fill="rgb(2, 6, 4)" fill-opacity="0.84"/><path d="M59,6L51,98L28,56Z" fill="rgb(0, 0, 0)" fill-opacity="0.88"/><path d="M191,54L176,17L229,22Z" fill="rgb(243, 241, 236)" fill-opacity="0.94"/><path d="M219,68L235,31L280,28Z" fill="rgb(245, 247, 241)" fill-opacity="0.63"/><path d="M132,129L192,114L213,154Z" fill="rgb(243, 243, 243)" fill-opacity="0.98"/><path d="M43,108L73,135L37,125Z" fill="rgb(0, 3, 0)" fill-opacity="0.59"/><path d="M132,154L34,148L114,117Z" fill="rgb(236, 236, 236)" fill-opacity="0.91"/><path d="M102,112L111,124L97,116Z" fill="rgb(1, 2, 2)" fill-opacity="0.61"/><path d="M98,109L59,128L53,103Z" fill="rgb(238, 238, 238)" fill-opacity="0.98"/><path d="M134,139L118,119L123,136Z" fill="rgb(16, 16, 16)" fill-opacity="0.81"/><path d="M212,126L189,106L207,139Z" fill="rgb(3, 0, 6)" fill-opacity="0.71"/><path d="M255,40L224,1L283,-7Z" fill="rgb(245, 245, 245)" fill-opacity="0.99"/><path d="M46,107L35,128L61,128Z" fill="rgb(2, 3, 3)" fill-opacity="0.70"/><path d="M217,44L200,112L173,86Z" fill="rgb(171, 46, 231)" fill-opacity="0.59"/><path d="M201,110L208,120L176,110Z" fill="rgb(0, 3, 2)" fill-opacity="0.78"/><path d="M136,119L48,5L47,93Z" fill="rgb(0, 0, 0)" fill-opacity="0.99"/><path d="M151,20L158,32L166,25Z" fill="rgb(172, 172, 172)" fill-opacity="1.00"/><path d="M211,31L220,63L230,31Z" fill="rgb(201, 78, 0)" fill-opacity="0.80"/><path d="M185,113L221,83L218,63Z" fill="rgb(163, 73, 195)" fill-opacity="0.98"/><path d="M261,96L217,68L230,101Z" fill="rgb(244, 244, 244)" fill-opacity="0.92"/><path d="M-11,60L44,85L37,124Z" fill="rgb(243, 244, 243)" fill-opacity="0.74"/><path d="M36,90L27,37L-118,128Z" fill="rgb(245, 245, 245)" fill-opacity="0.92"/><path d="M144,120L57,252L151,118Z" fill="rgb(238, 238, 238)" fill-opacity="0.98"/><path d="M172,79L189,45L175,36Z" fill="rgb(3, 3, 4)" fill-opacity="0.87"/><path d="M200,42L202,49L240,43Z" fill="rgb(207, 88, 9)" fill-opacity="0.91"/><path d="M34,76L54,7L32,35Z" fill="rgb(4, 4, 4)" fill-opacity="1.00"/><path d="M34,31L139,18L159,26Z" fill="rgb(0, 0, 0)" fill-opacity="0.65"/><path d="M186,112L180,67L219,83Z" fill="rgb(167, 65, 208)" fill-opacity="0.97"/><path d="M83,125L101,134L98,140Z" fill="rgb(27, 27, 27)" fill-opacity="0.42"/><path d="M60,123L69,145L19,162Z" fill="rgb(255, 255, 255)" fill-opacity="0.56"/><path d="M118,141L58,113L91,105Z" fill="rgb(244, 244, 244)" fill-opacity="0.89"/><path d="M166,119L171,109L168,124Z" fill="rgb(125, 126, 125)" fill-opacity="0.71"/><path d="M45,11L17,-9L62,-9Z" fill="rgb(235, 235, 235)" fill-opacity="0.82"/><path d="M44,132L8,162L12,125Z" fill="rgb(234, 234, 234)" fill-opacity="1.00"/><path d="M72,134L51,125L64,128Z" fill="rgb(5, 5, 5)" fill-opacity="0.67"/><path d="M202,61L219,71L219,58Z" fill="rgb(115, 44, 3)" fill-opacity="0.59"/><path d="M173,122L154,120L131,102Z" fill="rgb(2, 4, 3)" fill-opacity="0.49"/><path d="M172,282L191,149L219,128Z" fill="rgb(228, 228, 228)" fill-opacity="1.00"/><path d="M100,17L86,-56L72,13Z" fill="rgb(241, 241, 241)" fill-opacity="1.00"/><path d="M239,143L127,147L142,121Z" fill="rgb(246, 246, 246)" fill-opacity="0.76"/><path d="M31,43L33,72L159,23Z" fill="rgb(0, 0, 0)" fill-opacity="0.96"/><path d="M196,49L221,55L199,62Z" fill="rgb(188, 60, 252)" fill-opacity="0.58"/><path d="M218,75L208,61L190,113Z" fill="rgb(172, 66, 218)" fill-opacity="0.74"/><path d="M196,51L198,61L132,96Z" fill="rgb(1, 0, 2)" fill-opacity="0.89"/><path d="M144,89L182,91L189,118Z" fill="rgb(0, 0, 0)" fill-opacity="0.60"/><path d="M143,70L80,89L105,122Z" fill="rgb(0, 0, 0)" fill-opacity="0.98"/><path d="M175,142L199,120L178,113Z" fill="rgb(242, 242, 242)" fill-opacity="0.86"/><path d="M96,141L99,133L94,138Z" fill="rgb(4, 4, 4)" fill-opacity="0.56"/><path d="M90,134L121,133L110,117Z" fill="rgb(245, 245, 245)" fill-opacity="0.70"/><path d="M44,132L52,132L30,141Z" fill="rgb(42, 46, 43)" fill-opacity="0.42"/><path d="M41,8L37,81L76,108Z" fill="rgb(0, 0, 0)" fill-opacity="0.87"/><path d="M182,43L227,-34L228,26Z" fill="rgb(244, 245, 245)" fill-opacity="0.88"/><path d="M49,134L35,114L42,130Z" fill="rgb(46, 46, 46)" fill-opacity="1.00"/><path d="M95,134L68,120L76,153Z" fill="rgb(246, 246, 246)" fill-opacity="0.90"/><path d="M199,128L212,138L200,106Z" fill="rgb(6, 5, 6)" fill-opacity="0.83"/><path d="M168,45L173,33L177,35Z" fill="rgb(253, 255, 253)" fill-opacity="0.71"/><path d="M48,8L30,52L129,24Z" fill="rgb(0, 0, 0)" fill-opacity="1.00"/><path d="M44,134L36,124L59,125Z" fill="rgb(3, 4, 3)" fill-opacity="0.57"/><path d="M58,99L4,72L25,122Z" fill="rgb(245, 245, 245)" fill-opacity="0.92"/><path d="M17,120L12,137L44,120Z" fill="rgb(241, 241, 241)" fill-opacity="0.61"/><path d="M235,32L236,11L225,28Z" fill="rgb(0, 0, 5)" fill-opacity="0.50"/><path d="M26,95L82,125L56,95Z" fill="rgb(249, 250, 249)" fill-opacity="0.57"/><path d="M238,43L267,80L221,55Z" fill="rgb(244, 244, 243)" fill-opacity="0.82"/><path d="M198,118L167,114L175,140Z" fill="rgb(243, 243, 243)" fill-opacity="0.79"/><path d="M154,23L219,15L140,20Z" fill="rgb(241, 241, 241)" fill-opacity="0.83"/><path d="M228,38L229,14L240,27Z" fill="rgb(0, 0, 0)" fill-opacity="0.47"/><path d="M221,61L221,85L226,53Z" fill="rgb(244, 250, 244)" fill-opacity="0.66"/><path d="M114,109L174,74L167,45Z" fill="rgb(0, 0, 0)" fill-opacity="0.93"/><path d="M57,127L39,112L56,111Z" fill="rgb(0, 0, 0)" fill-opacity="0.62"/><path d="M174,34L221,18L190,36Z" fill="rgb(245, 246, 245)" fill-opacity="0.48"/><path d="M115,120L169,118L83,86Z" fill="rgb(0, 0, 0)" fill-opacity="0.84"/><path d="M46,6L70,13L34,34Z" fill="rgb(3, 4, 3)" fill-opacity="0.48"/><path d="M59,128L28,145L123,178Z" fill="rgb(243, 243, 243)" fill-opacity="0.95"/><path d="M40,115L4,137L-7,65Z" fill="rgb(246, 246, 246)" fill-opacity="0.82"/><path d="M216,87L221,78L214,62Z" fill="rgb(80, 65, 95)" fill-opacity="0.54"/><path d="M308,160L205,99L212,133Z" fill="rgb(245, 245, 245)" fill-opacity="1.00"/><path d="M71,105L84,107L126,17Z" fill="rgb(1, 1, 1)" fill-opacity="0.99"/><path d="M219,13L168,31L149,3Z" fill="rgb(243, 243, 243)" fill-opacity="0.91"/><path d="M169,55L174,54L170,31Z" fill="rgb(255, 255, 255)" fill-opacity="0.51"/><path d="M151,30L199,-1L161,29Z" fill="rgb(233, 233, 233)" fill-opacity="0.85"/><path d="M193,112L201,108L209,139Z" fill="rgb(8, 7, 9)" fill-opacity="0.87"/><path d="M-40,145L5,37L34,68Z" fill="rgb(246, 246, 246)" fill-opacity="0.87"/><path d="M-17,-102L239,13L176,23Z" fill="rgb(245, 245, 245)" fill-opacity="1.00"/><path d="M215,28L237,46L203,48Z" fill="rgb(205, 88, 9)" fill-opacity="0.53"/><path d="M99,119L156,24L108,18Z" fill="rgb(0, 0, 0)" fill-opacity="0.98"/><path d="M233,43L220,58L225,29Z" fill="rgb(163, 71, 3)" fill-opacity="0.53"/><path d="M211,62L219,68L223,54Z" fill="rgb(156, 70, 0)" fill-opacity="0.54"/></svg>