<svg xmlns="http://www.w3.org/2000/svg" viewBox="0 0 256 143.0214876033058" clip-path="url(#clip)"><defs><clipPath id="clip" clipPathUnits="objectBoundingBox"><rect x="0" y="0" width="256" height="143.0214876033058"/></clipPath></defs><rect x="0" y="0" width="256" height="143.0214876033058" fill="#f6f6f6"/><path d="M239,41L-19,-4L118,167Z" fill="rgb(51, 42, 53)" fill-opacity="0.95"/><path d="M165,135L-33,200L52,99Z" fill="rgb(197, 197, 197)" fill-opacity="1.00"/><path d="M-22,191L23,-194L40,17Z" fill="rgb(245, 245, 245)" fill-opacity="0.99"/><path d="M184,36L245,9L176,217Z" fill="rgb(168, 116, 176)" fill-opacity="0.85"/><path d="M210,120L34,91L41,2Z" fill="rgb(0, 0, 0)" fill-opacity="0.85"/><path d="M36,128L44,105L69,132Z" fill="rgb(4, 4, 4)" fill-opacity="0.74"/><path d="M168,123L156,20L46,16Z" fill="rgb(0, 0, 0)" fill-opacity="0.91"/><path d="M241,24L221,49L230,13Z" fill="rgb(72, 39, 20)" fill-opacity="1.00"/><path d="M213,128L209,140L177,93Z" fill="rgb(57, 42, 63)" fill-opacity="1.00"/><path d="M173,46L200,59L186,72Z" fill="rgb(4, 2, 6)" fill-opacity="0.91"/><path d="M261,474L197,118L138,121Z" fill="rgb(244, 245, 243)" fill-opacity="0.91"/><path d="M190,55L229,20L164,-22Z" fill="rgb(243, 243, 244)" fill-opacity="0.93"/><path d="M171,74L161,92L226,81Z" fill="rgb(165, 66, 206)" fill-opacity="0.95"/><path d="M172,27L129,140L100,100Z" fill="rgb(1, 1, 1)" fill-opacity="0.96"/><path d="M157,31L146,17L171,25Z" fill="rgb(194, 194, 193)" fill-opacity="0.82"/><path d="M99,110L51,101L82,206Z" fill="rgb(254, 254, 254)" fill-opacity="0.65"/><path d="M48,91L28,73L16,174Z" fill="rgb(241, 241, 241)" fill-opacity="0.91"/><path d="M47,94L143,124L49,5Z" fill="rgb(0, 0, 0)" fill-opacity="0.78"/><path d="M57,-18L45,12L15,-18Z" fill="rgb(235, 235, 235)" fill-opacity="0.91"/><path d="M57,8L33,80L32,35Z" fill="rgb(1, 1, 0)" fill-opacity="0.82"/><path d="M36,112L59,109L42,139Z" fill="rgb(0, 0, 0)" fill-opacity="0.58"/><path d="M55,127L13,158L89,144Z" fill="rgb(237, 237, 237)" fill-opacity="0.91"/><path d="M150,87L189,66L114,21Z" fill="rgb(0, 0, 0)" fill-opacity="0.97"/><path d="M182,117L221,83L203,38Z" fill="rgb(164, 49, 217)" fill-opacity="0.66"/><path d="M113,22L107,125L73,80Z" fill="rgb(0, 0, 0)" fill-opacity="0.84"/><path d="M224,76L213,133L201,105Z" fill="rgb(251, 255, 249)" fill-opacity="0.66"/><path d="M93,130L110,118L176,202Z" fill="rgb(244, 244, 244)" fill-opacity="0.96"/><path d="M0,47L22,88L31,49Z" fill="rgb(245, 245, 245)" fill-opacity="0.79"/><path d="M187,112L179,69L220,73Z" fill="rgb(169, 66, 211)" fill-opacity="0.92"/><path d="M93,106L84,105L133,201Z" fill="rgb(241, 241, 241)" fill-opacity="0.96"/><path d="M217,124L223,54L255,26Z" fill="rgb(244, 245, 244)" fill-opacity="0.87"/><path d="M189,44L176,74L173,37Z" fill="rgb(3, 5, 3)" fill-opacity="0.88"/><path d="M226,27L234,47L217,34Z" fill="rgb(182, 78, 21)" fill-opacity="0.92"/><path d="M192,71L214,29L223,47Z" fill="rgb(175, 65, 221)" fill-opacity="0.77"/><path d="M169,57L177,30L169,38Z" fill="rgb(252, 255, 251)" fill-opacity="0.70"/><path d="M188,101L172,89L158,124Z" fill="rgb(0, 0, 0)" fill-opacity="0.57"/><path d="M229,16L243,25L229,36Z" fill="rgb(0, 0, 3)" fill-opacity="0.63"/><path d="M232,33L358,27L231,43Z" fill="rgb(244, 246, 243)" fill-opacity="0.77"/><path d="M48,135L57,113L36,127Z" fill="rgb(1, 1, 1)" fill-opacity="0.68"/><path d="M137,125L107,231L152,117Z" fill="rgb(247, 247, 247)" fill-opacity="0.83"/><path d="M36,79L17,28L7,115Z" fill="rgb(245, 245, 245)" fill-opacity="1.00"/><path d="M193,113L211,155L105,147Z" fill="rgb(244, 245, 244)" fill-opacity="0.80"/><path d="M89,127L72,122L105,139Z" fill="rgb(90, 90, 90)" fill-opacity="0.37"/><path d="M231,31L212,64L216,76Z" fill="rgb(135, 63, 18)" fill-opacity="0.60"/><path d="M95,140L100,137L94,132Z" fill="rgb(5, 5, 5)" fill-opacity="0.72"/><path d="M200,100L196,124L211,138Z" fill="rgb(0, 0, 0)" fill-opacity="0.57"/><path d="M179,34L218,2L208,44Z" fill="rgb(245, 244, 245)" fill-opacity="0.76"/><path d="M168,46L172,61L174,31Z" fill="rgb(244, 246, 244)" fill-opacity="0.55"/><path d="M171,97L130,62L122,138Z" fill="rgb(0, 0, 0)" fill-opacity="0.80"/><path d="M198,110L218,78L186,110Z" fill="rgb(172, 70, 214)" fill-opacity="1.00"/><path d="M195,120L179,113L106,170Z" fill="rgb(244, 244, 244)" fill-opacity="1.00"/><path d="M28,56L61,100L83,107Z" fill="rgb(2, 2, 2)" fill-opacity="0.78"/><path d="M182,25L116,-16L143,21Z" fill="rgb(243, 243, 243)" fill-opacity="0.97"/><path d="M163,70L198,50L193,69Z" fill="rgb(4, 0, 6)" fill-opacity="0.78"/><path d="M54,95L105,125L26,103Z" fill="rgb(243, 243, 243)" fill-opacity="0.93"/><path d="M167,30L182,30L163,26Z" fill="rgb(175, 175, 175)" fill-opacity="1.00"/><path d="M218,87L221,77L215,71Z" fill="rgb(50, 34, 68)" fill-opacity="0.49"/><path d="M212,132L190,112L207,118Z" fill="rgb(2, 6, 0)" fill-opacity="0.69"/><path d="M165,121L75,101L181,89Z" fill="rgb(1, 1, 1)" fill-opacity="1.00"/><path d="M64,125L61,129L73,137Z" fill="rgb(10, 10, 10)" fill-opacity="0.53"/><path d="M223,50L234,44L220,29Z" fill="rgb(179, 76, 13)" fill-opacity="0.99"/><path d="M83,15L123,19L37,4Z" fill="rgb(229, 229, 229)" fill-opacity="0.90"/><path d="M181,89L187,114L98,118Z" fill="rgb(0, 1, 0)" fill-opacity="0.74"/><path d="M106,18L158,24L83,108Z" fill="rgb(0, 0, 0)" fill-opacity="0.99"/><path d="M21,131L29,140L46,131Z" fill="rgb(255, 255, 255)" fill-opacity="0.60"/><path d="M265,-10L243,27L232,9Z" fill="rgb(244, 244, 244)" fill-opacity="1.00"/><path d="M36,81L87,105L29,47Z" fill="rgb(2, 2, 2)" fill-opacity="0.95"/><path d="M65,129L89,108L51,104Z" fill="rgb(245, 245, 245)" fill-opacity="0.89"/><path d="M199,61L218,59L219,69Z" fill="rgb(44, 62, 60)" fill-opacity="0.45"/><path d="M44,136L18,140L32,140Z" fill="rgb(93, 93, 93)" fill-opacity="0.45"/><path d="M199,49L185,55L215,-8Z" fill="rgb(242, 242, 242)" fill-opacity="0.93"/><path d="M193,127L88,144L215,140Z" fill="rgb(244, 244, 244)" fill-opacity="0.72"/><path d="M164,27L129,58L171,34Z" fill="rgb(1, 1, 1)" fill-opacity="0.98"/><path d="M58,129L35,118L55,110Z" fill="rgb(5, 5, 5)" fill-opacity="0.78"/><path d="M174,29L181,30L140,46Z" fill="rgb(10, 11, 10)" fill-opacity="0.87"/><path d="M39,114L25,24L33,127Z" fill="rgb(244, 244, 244)" fill-opacity="0.83"/><path d="M29,49L51,8L136,27Z" fill="rgb(1, 1, 1)" fill-opacity="1.00"/><path d="M229,-31L228,25L215,32Z" fill="rgb(243, 243, 244)" fill-opacity="0.93"/><path d="M74,128L50,170L103,144Z" fill="rgb(247, 247, 247)" fill-opacity="0.84"/><path d="M170,31L176,57L168,52Z" fill="rgb(253, 255, 252)" fill-opacity="0.33"/><path d="M192,129L151,119L89,182Z" fill="rgb(245, 245, 245)" fill-opacity="1.00"/><path d="M155,56L187,54L192,70Z" fill="rgb(0, 0, 0)" fill-opacity="0.84"/><path d="M43,-10L39,15L-47,11Z" fill="rgb(246, 246, 246)" fill-opacity="0.97"/><path d="M132,139L118,68L123,135Z" fill="rgb(2, 2, 2)" fill-opacity="0.98"/><path d="M221,39L215,59L198,43Z" fill="rgb(177, 72, 221)" fill-opacity="0.76"/><path d="M184,67L163,90L185,89Z" fill="rgb(176, 68, 220)" fill-opacity="0.74"/><path d="M238,31L235,10L226,28Z" fill="rgb(0, 0, 0)" fill-opacity="0.52"/><path d="M19,123L39,120L43,122Z" fill="rgb(216, 216, 216)" fill-opacity="1.00"/><path d="M295,14L172,14L68,-77Z" fill="rgb(246, 246, 246)" fill-opacity="0.91"/><path d="M215,5L152,31L182,0Z" fill="rgb(244, 244, 244)" fill-opacity="0.87"/><path d="M119,112L162,39L178,71Z" fill="rgb(0, 0, 0)" fill-opacity="0.88"/><path d="M176,129L182,112L166,118Z" fill="rgb(232, 232, 232)" fill-opacity="0.52"/><path d="M207,48L223,44L217,28Z" fill="rgb(181, 71, 225)" fill-opacity="0.73"/><path d="M203,108L186,108L181,84Z" fill="rgb(186, 72, 232)" fill-opacity="0.68"/><path d="M81,154L149,152L111,128Z" fill="rgb(245, 245, 245)" fill-opacity="0.98"/><path d="M349,218L204,116L201,106Z" fill="rgb(242, 242, 242)" fill-opacity="0.79"/><path d="M100,122L83,147L95,134Z" fill="rgb(243, 243, 243)" fill-opacity="0.74"/><path d="M76,112L79,126L116,125Z" fill="rgb(248, 248, 248)" fill-opacity="0.70"/><path d="M187,44L193,53L206,-45Z" fill="rgb(246, 246, 246)" fill-opacity="0.75"/><path d="M219,74L222,59L265,146Z" fill="rgb(244, 244, 244)" fill-opacity="1.00"/></svg>