<svg xmlns="http://www.w3.org/2000/svg" viewBox="0 0 256 143.0214876033058" clip-path="url(#clip)"><defs><clipPath id="clip" clipPathUnits="objectBoundingBox"><rect x="0" y="0" width="256" height="143.0214876033058"/></clipPath></defs><rect x="0" y="0" width="256" height="143.0214876033058" fill="#f6f6f6"/><path d="M159,-285L18,74L189,165Z" fill="rgb(60, 58, 61)" fill-opacity="0.99"/><path d="M4,-235L44,8L209,31Z" fill="rgb(243, 243, 243)" fill-opacity="0.97"/><path d="M187,229L129,128L219,102Z" fill="rgb(206, 206, 207)" fill-opacity="1.00"/><path d="M28,127L53,102L59,131Z" fill="rgb(22, 22, 22)" fill-opacity="0.79"/><path d="M143,13L206,140L214,131Z" fill="rgb(54, 0, 76)" fill-opacity="0.71"/><path d="M245,15L192,128L169,52Z" fill="rgb(123, 22, 160)" fill-opacity="0.67"/><path d="M225,39L231,9L241,26Z" fill="rgb(9, 6, 10)" fill-opacity="0.79"/><path d="M36,5L128,140L192,40Z" fill="rgb(0, 0, 0)" fill-opacity="0.89"/><path d="M197,50L155,21L227,25Z" fill="rgb(238, 241, 237)" fill-opacity="0.59"/><path d="M-36,48L28,43L40,106Z" fill="rgb(244, 244, 244)" fill-opacity="1.00"/><path d="M44,105L36,128L49,136Z" fill="rgb(22, 22, 22)" fill-opacity="0.82"/><path d="M39,6L132,124L45,93Z" fill="rgb(0, 0, 0)" fill-opacity="0.91"/><path d="M173,57L174,24L167,50Z" fill="rgb(183, 183, 183)" fill-opacity="1.00"/><path d="M25,107L63,111L38,81Z" fill="rgb(239, 239, 239)" fill-opacity="0.92"/><path d="M220,86L161,90L218,29Z" fill="rgb(164, 68, 202)" fill-opacity="1.00"/><path d="M171,28L184,46L184,36Z" fill="rgb(56, 56, 56)" fill-opacity="1.00"/><path d="M179,92L191,118L73,77Z" fill="rgb(0, 0, 0)" fill-opacity="0.86"/><path d="M-15,-15L46,11L51,-30Z" fill="rgb(238, 238, 238)" fill-opacity="0.94"/><path d="M149,20L33,73L40,15Z" fill="rgb(0, 0, 0)" fill-opacity="0.89"/><path d="M110,116L120,126L81,150Z" fill="rgb(217, 217, 217)" fill-opacity="1.00"/><path d="M81,188L85,104L99,111Z" fill="rgb(231, 231, 231)" fill-opacity="0.99"/><path d="M188,67L33,73L72,107Z" fill="rgb(0, 0, 0)" fill-opacity="0.86"/><path d="M149,20L35,81L169,123Z" fill="rgb(0, 0, 0)" fill-opacity="0.83"/><path d="M219,84L191,112L177,81Z" fill="rgb(171, 69, 213)" fill-opacity="1.00"/><path d="M193,114L130,128L283,332Z" fill="rgb(254, 255, 254)" fill-opacity="0.77"/><path d="M207,118L187,107L212,141Z" fill="rgb(0, 9, 0)" fill-opacity="0.73"/><path d="M21,144L38,140L35,72Z" fill="rgb(236, 236, 236)" fill-opacity="0.93"/><path d="M35,118L44,107L74,137Z" fill="rgb(0, 0, 0)" fill-opacity="0.55"/><path d="M30,140L39,138L58,126Z" fill="rgb(110, 110, 110)" fill-opacity="1.00"/><path d="M159,169L130,133L152,114Z" fill="rgb(246, 246, 246)" fill-opacity="0.60"/><path d="M176,20L192,54L218,26Z" fill="rgb(243, 243, 243)" fill-opacity="0.92"/><path d="M227,62L213,165L210,110Z" fill="rgb(245, 245, 245)" fill-opacity="0.89"/><path d="M93,136L98,132L100,142Z" fill="rgb(18, 18, 18)" fill-opacity="0.53"/><path d="M225,27L222,49L236,46Z" fill="rgb(152, 79, 148)" fill-opacity="1.00"/><path d="M152,28L262,-21L217,31Z" fill="rgb(244, 244, 244)" fill-opacity="0.81"/><path d="M221,55L221,92L239,42Z" fill="rgb(241, 243, 241)" fill-opacity="0.68"/><path d="M213,132L218,84L202,108Z" fill="rgb(247, 247, 246)" fill-opacity="0.71"/><path d="M179,-2L133,-6L144,24Z" fill="rgb(252, 252, 252)" fill-opacity="0.46"/><path d="M140,122L95,115L185,105Z" fill="rgb(2, 2, 2)" fill-opacity="0.83"/><path d="M83,15L120,19L-54,-18Z" fill="rgb(232, 232, 232)" fill-opacity="1.00"/><path d="M136,122L128,139L120,132Z" fill="rgb(18, 18, 18)" fill-opacity="0.68"/><path d="M201,133L242,149L71,141Z" fill="rgb(244, 244, 244)" fill-opacity="0.82"/><path d="M210,139L181,113L166,115Z" fill="rgb(243, 244, 243)" fill-opacity="0.65"/><path d="M190,109L205,113L187,114Z" fill="rgb(0, 0, 0)" fill-opacity="0.54"/><path d="M100,159L47,130L59,128Z" fill="rgb(237, 237, 237)" fill-opacity="0.98"/><path d="M247,25L208,-7L251,-17Z" fill="rgb(244, 244, 244)" fill-opacity="0.99"/><path d="M170,34L175,53L168,55Z" fill="rgb(255, 255, 255)" fill-opacity="0.55"/><path d="M130,130L158,119L147,119Z" fill="rgb(250, 250, 250)" fill-opacity="0.61"/><path d="M131,140L117,124L136,92Z" fill="rgb(0, 0, 0)" fill-opacity="0.70"/><path d="M183,84L186,111L202,108Z" fill="rgb(189, 70, 237)" fill-opacity="0.55"/><path d="M-13,4L41,-59L40,17Z" fill="rgb(246, 246, 246)" fill-opacity="0.95"/><path d="M104,121L61,63L113,115Z" fill="rgb(2, 2, 2)" fill-opacity="0.98"/><path d="M30,56L48,92L34,29Z" fill="rgb(2, 3, 2)" fill-opacity="0.90"/><path d="M6,125L40,120L42,122Z" fill="rgb(233, 233, 233)" fill-opacity="0.84"/><path d="M243,26L242,61L230,36Z" fill="rgb(236, 238, 235)" fill-opacity="0.80"/><path d="M217,71L204,61L223,57Z" fill="rgb(98, 56, 92)" fill-opacity="0.55"/><path d="M182,52L76,86L179,74Z" fill="rgb(1, 0, 1)" fill-opacity="0.93"/><path d="M266,-45L204,-36L245,31Z" fill="rgb(243, 243, 243)" fill-opacity="1.00"/><path d="M190,88L171,74L161,91Z" fill="rgb(166, 61, 209)" fill-opacity="0.73"/><path d="M83,132L56,95L58,126Z" fill="rgb(241, 241, 241)" fill-opacity="0.98"/><path d="M150,32L150,45L182,29Z" fill="rgb(3, 3, 3)" fill-opacity="0.82"/><path d="M236,43L221,53L223,44Z" fill="rgb(138, 73, 69)" fill-opacity="0.78"/><path d="M58,124L39,139L55,110Z" fill="rgb(0, 0, 0)" fill-opacity="0.57"/><path d="M180,34L166,76L188,48Z" fill="rgb(7, 5, 7)" fill-opacity="0.83"/><path d="M53,8L167,45L173,73Z" fill="rgb(0, 0, 0)" fill-opacity="1.00"/><path d="M190,4L156,33L168,-2Z" fill="rgb(244, 244, 244)" fill-opacity="0.68"/><path d="M233,35L200,43L207,60Z" fill="rgb(169, 70, 209)" fill-opacity="0.99"/><path d="M85,125L83,127L96,132Z" fill="rgb(5, 5, 5)" fill-opacity="0.39"/><path d="M194,114L210,141L201,107Z" fill="rgb(1, 5, 0)" fill-opacity="0.69"/><path d="M158,63L60,100L84,106Z" fill="rgb(1, 1, 1)" fill-opacity="0.74"/><path d="M214,60L217,87L221,79Z" fill="rgb(81, 69, 88)" fill-opacity="0.61"/><path d="M56,94L32,102L62,113Z" fill="rgb(244, 244, 244)" fill-opacity="0.80"/><path d="M117,142L92,106L56,110Z" fill="rgb(244, 244, 244)" fill-opacity="0.95"/><path d="M241,26L229,12L227,31Z" fill="rgb(0, 4, 0)" fill-opacity="0.63"/><path d="M187,80L171,80L189,62Z" fill="rgb(195, 73, 245)" fill-opacity="0.47"/><path d="M232,0L181,43L227,26Z" fill="rgb(243, 243, 243)" fill-opacity="0.90"/><path d="M172,76L107,59L165,27Z" fill="rgb(0, 0, 0)" fill-opacity="0.88"/><path d="M191,115L199,120L160,155Z" fill="rgb(246, 248, 246)" fill-opacity="0.63"/><path d="M115,119L128,145L95,133Z" fill="rgb(243, 243, 243)" fill-opacity="0.82"/><path d="M32,43L30,-25L27,50Z" fill="rgb(243, 243, 243)" fill-opacity="0.92"/><path d="M20,140L16,137L30,140Z" fill="rgb(122, 122, 122)" fill-opacity="0.55"/><path d="M168,47L170,35L178,33Z" fill="rgb(223, 223, 223)" fill-opacity="0.65"/><path d="M32,36L49,7L127,30Z" fill="rgb(1, 1, 1)" fill-opacity="1.00"/><path d="M54,110L40,111L44,135Z" fill="rgb(0, 0, 0)" fill-opacity="0.76"/><path d="M70,134L98,284L94,132Z" fill="rgb(246, 246, 246)" fill-opacity="0.96"/><path d="M213,133L201,110L197,127Z" fill="rgb(0, 0, 0)" fill-opacity="0.58"/><path d="M230,40L233,13L236,16Z" fill="rgb(9, 6, 10)" fill-opacity="0.99"/><path d="M86,96L155,27L140,18Z" fill="rgb(0, 0, 0)" fill-opacity="0.79"/><path d="M181,88L109,118L187,113Z" fill="rgb(1, 0, 1)" fill-opacity="0.82"/><path d="M192,54L186,54L199,14Z" fill="rgb(244, 245, 243)" fill-opacity="0.89"/><path d="M183,70L180,54L211,55Z" fill="rgb(180, 66, 227)" fill-opacity="0.68"/><path d="M103,122L61,11L112,20Z" fill="rgb(0, 0, 0)" fill-opacity="1.00"/><path d="M35,80L22,160L47,90Z" fill="rgb(241, 241, 241)" fill-opacity="0.82"/><path d="M78,122L73,125L79,125Z" fill="rgb(104, 104, 104)" fill-opacity="0.60"/><path d="M228,44L221,46L228,49Z" fill="rgb(215, 90, 0)" fill-opacity="0.68"/><path d="M168,52L173,34L171,56Z" fill="rgb(254, 254, 254)" fill-opacity="0.51"/><path d="M221,62L216,49L225,49Z" fill="rgb(106, 31, 149)" fill-opacity="0.41"/><path d="M254,50L219,98L224,52Z" fill="rgb(245, 245, 245)" fill-opacity="1.00"/><path d="M172,42L186,46L186,55Z" fill="rgb(0, 0, 0)" fill-opacity="0.64"/><path d="M212,32L226,28L191,75Z" fill="rgb(173, 76, 213)" fill-opacity="1.00"/></svg>