<svg xmlns="http://www.w3.org/2000/svg" viewBox="0 0 256 143.0214876033058" clip-path="url(#clip)"><defs><clipPath id="clip" clipPathUnits="objectBoundingBox"><rect x="0" y="0" width="256" height="143.0214876033058"/></clipPath></defs><rect x="0" y="0" width="256" height="143.0214876033058" fill="#f6f6f6"/><path d="M30,96L214,132L54,-165Z" fill="rgb(19, 14, 21)" fill-opacity="0.88"/><path d="M195,108L108,132L37,6Z" fill="rgb(0, 0, 0)" fill-opacity="0.77"/><path d="M231,-52L159,23L10,5Z" fill="rgb(244, 244, 244)" fill-opacity="0.96"/><path d="M174,26L230,87L15,48Z" fill="rgb(0, 0, 7)" fill-opacity="0.54"/><path d="M33,131L62,129L47,101Z" fill="rgb(2, 2, 2)" fill-opacity="0.76"/><path d="M143,120L194,114L219,181Z" fill="rgb(241, 241, 241)" fill-opacity="0.87"/><path d="M-7,136L13,60L60,101Z" fill="rgb(244, 244, 244)" fill-opacity="0.93"/><path d="M166,81L251,-2L197,117Z" fill="rgb(155, 74, 178)" fill-opacity="1.00"/><path d="M52,9L128,142L173,31Z" fill="rgb(0, 0, 0)" fill-opacity="0.93"/><path d="M112,116L42,165L131,145Z" fill="rgb(229, 229, 229)" fill-opacity="1.00"/><path d="M59,105L48,138L35,126Z" fill="rgb(0, 0, 0)" fill-opacity="0.54"/><path d="M96,110L25,57L47,4Z" fill="rgb(0, 0, 0)" fill-opacity="0.76"/><path d="M95,139L89,126L103,140Z" fill="rgb(69, 69, 69)" fill-opacity="0.60"/><path d="M183,68L182,33L154,89Z" fill="rgb(7, 0, 9)" fill-opacity="0.85"/><path d="M230,13L223,44L242,25Z" fill="rgb(58, 34, 19)" fill-opacity="0.99"/><path d="M212,102L222,26L178,58Z" fill="rgb(182, 75, 232)" fill-opacity="0.54"/><path d="M169,61L169,36L176,32Z" fill="rgb(255, 255, 253)" fill-opacity="0.61"/><path d="M196,109L204,115L184,116Z" fill="rgb(0, 7, 0)" fill-opacity="0.68"/><path d="M149,97L171,123L135,115Z" fill="rgb(3, 3, 2)" fill-opacity="0.71"/><path d="M32,32L134,128L35,80Z" fill="rgb(0, 0, 0)" fill-opacity="0.92"/><path d="M39,93L23,26L-29,198Z" fill="rgb(244, 244, 244)" fill-opacity="0.97"/><path d="M62,127L78,135L64,133Z" fill="rgb(3, 3, 3)" fill-opacity="0.56"/><path d="M64,100L91,162L41,90Z" fill="rgb(239, 239, 239)" fill-opacity="0.93"/><path d="M186,105L180,88L102,119Z" fill="rgb(2, 1, 3)" fill-opacity="1.00"/><path d="M99,136L140,138L95,198Z" fill="rgb(242, 242, 242)" fill-opacity="0.89"/><path d="M47,140L20,140L36,126Z" fill="rgb(214, 214, 214)" fill-opacity="1.00"/><path d="M213,135L206,137L193,109Z" fill="rgb(0, 0, 0)" fill-opacity="0.63"/><path d="M235,46L226,30L221,49Z" fill="rgb(179, 82, 25)" fill-opacity="0.91"/><path d="M290,41L222,-30L238,22Z" fill="rgb(244, 244, 244)" fill-opacity="1.00"/><path d="M248,101L217,83L258,50Z" fill="rgb(245, 245, 245)" fill-opacity="0.87"/><path d="M184,71L44,91L79,108Z" fill="rgb(2, 2, 2)" fill-opacity="0.76"/><path d="M223,83L162,91L170,75Z" fill="rgb(167, 67, 208)" fill-opacity="1.00"/><path d="M52,111L16,96L57,95Z" fill="rgb(244, 244, 244)" fill-opacity="0.88"/><path d="M-87,-4L39,23L42,-17Z" fill="rgb(244, 244, 244)" fill-opacity="1.00"/><path d="M43,108L36,120L59,119Z" fill="rgb(2, 2, 2)" fill-opacity="0.74"/><path d="M-14,-12L81,15L129,20Z" fill="rgb(235, 235, 235)" fill-opacity="0.79"/><path d="M131,52L143,18L104,21Z" fill="rgb(0, 0, 0)" fill-opacity="0.72"/><path d="M191,39L181,68L209,32Z" fill="rgb(243, 223, 250)" fill-opacity="0.65"/><path d="M192,114L165,114L220,168Z" fill="rgb(253, 254, 253)" fill-opacity="0.60"/><path d="M218,215L147,122L196,119Z" fill="rgb(246, 246, 246)" fill-opacity="0.81"/><path d="M177,28L151,31L172,11Z" fill="rgb(222, 222, 222)" fill-opacity="0.78"/><path d="M219,84L181,53L186,112Z" fill="rgb(169, 67, 210)" fill-opacity="1.00"/><path d="M56,126L89,103L109,128Z" fill="rgb(237, 237, 237)" fill-opacity="0.64"/><path d="M174,49L172,58L167,46Z" fill="rgb(254, 255, 253)" fill-opacity="0.64"/><path d="M245,102L206,111L216,145Z" fill="rgb(245, 245, 245)" fill-opacity="0.99"/><path d="M161,22L111,34L137,42Z" fill="rgb(3, 3, 3)" fill-opacity="0.86"/><path d="M50,4L31,-22L44,12Z" fill="rgb(242, 242, 242)" fill-opacity="0.59"/><path d="M172,46L179,28L187,55Z" fill="rgb(11, 10, 10)" fill-opacity="0.79"/><path d="M208,60L218,58L221,82Z" fill="rgb(54, 24, 44)" fill-opacity="0.37"/><path d="M34,74L53,4L29,48Z" fill="rgb(8, 8, 8)" fill-opacity="0.85"/><path d="M218,30L228,11L228,27Z" fill="rgb(244, 255, 238)" fill-opacity="0.71"/><path d="M35,139L43,136L58,120Z" fill="rgb(62, 62, 62)" fill-opacity="0.95"/><path d="M203,114L188,109L211,134Z" fill="rgb(6, 3, 6)" fill-opacity="0.83"/><path d="M123,136L95,39L133,139Z" fill="rgb(3, 3, 3)" fill-opacity="0.79"/><path d="M64,132L63,125L71,136Z" fill="rgb(3, 3, 3)" fill-opacity="0.54"/><path d="M86,104L95,108L74,140Z" fill="rgb(247, 247, 247)" fill-opacity="0.56"/><path d="M174,73L141,82L188,41Z" fill="rgb(0, 0, 0)" fill-opacity="0.89"/><path d="M156,108L127,134L39,26Z" fill="rgb(0, 0, 0)" fill-opacity="0.93"/><path d="M85,128L99,132L82,125Z" fill="rgb(36, 36, 36)" fill-opacity="0.42"/><path d="M58,127L35,128L55,110Z" fill="rgb(3, 3, 3)" fill-opacity="0.90"/><path d="M167,25L139,72L163,27Z" fill="rgb(10, 10, 10)" fill-opacity="0.86"/><path d="M145,-18L203,24L168,30Z" fill="rgb(245, 245, 245)" fill-opacity="1.00"/><path d="M220,55L228,50L222,101Z" fill="rgb(238, 241, 239)" fill-opacity="0.51"/><path d="M212,90L202,111L230,160Z" fill="rgb(242, 242, 241)" fill-opacity="0.91"/><path d="M171,0L210,38L191,54Z" fill="rgb(243, 244, 243)" fill-opacity="0.81"/><path d="M182,31L168,34L172,29Z" fill="rgb(5, 5, 5)" fill-opacity="0.67"/><path d="M204,30L217,-1L181,44Z" fill="rgb(243, 243, 243)" fill-opacity="0.92"/><path d="M167,83L49,5L47,95Z" fill="rgb(0, 0, 0)" fill-opacity="0.72"/><path d="M67,103L56,7L120,108Z" fill="rgb(0, 0, 0)" fill-opacity="0.98"/><path d="M173,39L185,35L176,62Z" fill="rgb(2, 2, 2)" fill-opacity="0.76"/><path d="M100,130L83,134L72,150Z" fill="rgb(245, 245, 245)" fill-opacity="0.87"/><path d="M26,139L43,112L21,161Z" fill="rgb(250, 250, 250)" fill-opacity="0.33"/><path d="M23,158L54,128L60,128Z" fill="rgb(243, 243, 243)" fill-opacity="0.87"/><path d="M185,138L194,116L167,115Z" fill="rgb(245, 245, 245)" fill-opacity="0.76"/><path d="M231,35L253,99L254,17Z" fill="rgb(243, 243, 243)" fill-opacity="0.88"/><path d="M07,18L146,-954L480,7Z" fill="rgb(245, 245, 245)" fill-opacity="0.95"/><path d="M195,62L212,64L208,60Z" fill="rgb(88, 28, 114)" fill-opacity="0.56"/><path d="M225,30L234,12L239,29Z" fill="rgb(0, 2, 1)" fill-opacity="0.78"/><path d="M99,133L93,136L100,139Z" fill="rgb(1, 1, 1)" fill-opacity="0.50"/><path d="M8,119L41,120L25,139Z" fill="rgb(242, 242, 242)" fill-opacity="0.73"/><path d="M144,120L128,145L194,125Z" fill="rgb(245, 245, 245)" fill-opacity="0.96"/><path d="M142,94L188,117L181,89Z" fill="rgb(3, 2, 4)" fill-opacity="0.91"/><path d="M32,40L42,10L147,23Z" fill="rgb(0, 1, 0)" fill-opacity="0.69"/><path d="M186,40L189,48L161,75Z" fill="rgb(9, 7, 9)" fill-opacity="0.62"/><path d="M70,105L84,107L108,53Z" fill="rgb(1, 1, 1)" fill-opacity="1.00"/><path d="M-27,116L32,139L44,132Z" fill="rgb(245, 245, 245)" fill-opacity="0.82"/><path d="M42,-22L28,43L39,22Z" fill="rgb(238, 238, 238)" fill-opacity="0.91"/><path d="M158,121L169,93L167,120Z" fill="rgb(6, 6, 6)" fill-opacity="0.90"/><path d="M219,73L197,110L186,110Z" fill="rgb(176, 69, 220)" fill-opacity="0.95"/><path d="M212,32L208,43L217,30Z" fill="rgb(159, 93, 187)" fill-opacity="0.83"/><path d="M175,115L156,110L178,91Z" fill="rgb(1, 1, 1)" fill-opacity="1.00"/><path d="M219,44L198,41L213,66Z" fill="rgb(176, 65, 223)" fill-opacity="0.50"/><path d="M184,42L234,12L182,-44Z" fill="rgb(245, 245, 245)" fill-opacity="1.00"/><path d="M101,119L148,113L88,86Z" fill="rgb(0, 0, 0)" fill-opacity="0.97"/><path d="M195,115L204,135L202,104Z" fill="rgb(2, 5, 3)" fill-opacity="0.38"/><path d="M205,133L209,139L200,189Z" fill="rgb(224, 223, 223)" fill-opacity="1.00"/><path d="M185,95L188,66L171,78Z" fill="rgb(178, 67, 224)" fill-opacity="0.54"/><path d="M91,105L100,115L56,125Z" fill="rgb(244, 244, 244)" fill-opacity="0.56"/><path d="M30,49L-68,-38L29,145Z" fill="rgb(246, 246, 246)" fill-opacity="0.89"/><path d="M67,130L55,126L74,136Z" fill="rgb(4, 4, 4)" fill-opacity="0.53"/></svg>