<svg xmlns="http://www.w3.org/2000/svg" viewBox="0 0 256 143.0214876033058" clip-path="url(#clip)"><defs><clipPath id="clip" clipPathUnits="objectBoundingBox"><rect x="0" y="0" width="256" height="143.0214876033058"/></clipPath></defs><rect x="0" y="0" width="256" height="143.0214876033058" fill="#f6f6f6"/><path d="M241,40L43,221L31,5Z" fill="rgb(44, 33, 44)" fill-opacity="0.89"/><path d="M242,4L204,127L144,106Z" fill="rgb(136, 67, 137)" fill-opacity="0.92"/><path d="M191,263L22,83L117,122Z" fill="rgb(246, 247, 246)" fill-opacity="0.89"/><path d="M229,22L140,-36L193,53Z" fill="rgb(243, 241, 239)" fill-opacity="0.96"/><path d="M243,26L223,40L231,13Z" fill="rgb(40, 25, 11)" fill-opacity="0.89"/><path d="M54,128L110,151L9,160Z" fill="rgb(240, 240, 240)" fill-opacity="0.98"/><path d="M51,-13L18,75L-1,-27Z" fill="rgb(244, 244, 244)" fill-opacity="0.93"/><path d="M171,190L105,162L156,106Z" fill="rgb(240, 224, 247)" fill-opacity="0.76"/><path d="M148,15L190,118L20,54Z" fill="rgb(0, 0, 0)" fill-opacity="0.83"/><path d="M41,6L31,73L173,34Z" fill="rgb(0, 0, 0)" fill-opacity="0.90"/><path d="M215,138L199,104L198,129Z" fill="rgb(6, 6, 7)" fill-opacity="0.83"/><path d="M11,-4L31,56L-25,109Z" fill="rgb(245, 245, 245)" fill-opacity="0.94"/><path d="M167,51L172,31L174,55Z" fill="rgb(229, 232, 229)" fill-opacity="0.81"/><path d="M28,66L52,100L4,150Z" fill="rgb(243, 244, 243)" fill-opacity="0.85"/><path d="M39,112L48,137L58,109Z" fill="rgb(0, 0, 0)" fill-opacity="0.62"/><path d="M162,79L169,94L235,58Z" fill="rgb(195, 80, 251)" fill-opacity="0.60"/><path d="M159,31L127,6L167,25Z" fill="rgb(199, 199, 199)" fill-opacity="0.99"/><path d="M91,162L54,109L95,106Z" fill="rgb(240, 240, 240)" fill-opacity="0.93"/><path d="M73,109L27,46L132,17Z" fill="rgb(0, 0, 0)" fill-opacity="0.88"/><path d="M202,88L203,116L262,106Z" fill="rgb(245, 240, 250)" fill-opacity="0.72"/><path d="M187,119L223,80L186,45Z" fill="rgb(166, 73, 205)" fill-opacity="0.96"/><path d="M194,115L149,114L202,134Z" fill="rgb(220, 206, 225)" fill-opacity="1.00"/><path d="M181,55L179,74L25,60Z" fill="rgb(0, 0, 0)" fill-opacity="0.92"/><path d="M233,50L226,24L197,46Z" fill="rgb(237, 110, 10)" fill-opacity="0.61"/><path d="M238,144L252,4L218,67Z" fill="rgb(244, 245, 243)" fill-opacity="0.71"/><path d="M60,103L81,107L57,133Z" fill="rgb(248, 248, 248)" fill-opacity="0.66"/><path d="M89,16L161,24L34,82Z" fill="rgb(1, 1, 1)" fill-opacity="1.00"/><path d="M99,18L33,74L66,103Z" fill="rgb(0, 0, 0)" fill-opacity="0.92"/><path d="M159,119L37,25L102,120Z" fill="rgb(0, 0, 0)" fill-opacity="0.82"/><path d="M187,49L172,91L220,51Z" fill="rgb(177, 76, 218)" fill-opacity="0.82"/><path d="M162,125L152,111L185,93Z" fill="rgb(0, 0, 24)" fill-opacity="0.41"/><path d="M177,34L173,33L168,46Z" fill="rgb(245, 246, 245)" fill-opacity="0.76"/><path d="M146,101L171,122L149,119Z" fill="rgb(164, 78, 199)" fill-opacity="1.00"/><path d="M208,123L125,84L205,115Z" fill="rgb(0, 2, 0)" fill-opacity="0.73"/><path d="M159,101L146,103L154,119Z" fill="rgb(182, 67, 229)" fill-opacity="0.78"/><path d="M97,111L141,221L84,103Z" fill="rgb(242, 242, 242)" fill-opacity="0.86"/><path d="M214,126L206,150L311,54Z" fill="rgb(245, 245, 245)" fill-opacity="1.00"/><path d="M44,135L25,115L11,136Z" fill="rgb(240, 240, 240)" fill-opacity="0.88"/><path d="M90,76L176,54L126,138Z" fill="rgb(0, 0, 0)" fill-opacity="1.00"/><path d="M30,55L39,87L33,32Z" fill="rgb(14, 14, 14)" fill-opacity="0.93"/><path d="M172,30L149,-3L167,30Z" fill="rgb(238, 238, 238)" fill-opacity="0.90"/><path d="M96,132L100,137L94,140Z" fill="rgb(20, 20, 20)" fill-opacity="0.77"/><path d="M197,109L217,86L214,108Z" fill="rgb(249, 255, 251)" fill-opacity="0.52"/><path d="M228,23L218,27L222,40Z" fill="rgb(175, 142, 253)" fill-opacity="0.63"/><path d="M47,11L17,-1L41,-27Z" fill="rgb(239, 239, 239)" fill-opacity="0.90"/><path d="M264,13L126,19L138,-123Z" fill="rgb(245, 245, 245)" fill-opacity="1.00"/><path d="M88,16L58,9L112,18Z" fill="rgb(226, 227, 226)" fill-opacity="0.72"/><path d="M180,34L160,90L188,47Z" fill="rgb(6, 4, 7)" fill-opacity="0.91"/><path d="M93,133L80,125L95,130Z" fill="rgb(93, 93, 93)" fill-opacity="0.54"/><path d="M193,111L209,140L211,125Z" fill="rgb(0, 0, 0)" fill-opacity="0.60"/><path d="M79,273L197,118L135,125Z" fill="rgb(245, 246, 244)" fill-opacity="0.87"/><path d="M48,6L132,102L74,106Z" fill="rgb(0, 0, 0)" fill-opacity="1.00"/><path d="M127,92L132,139L123,135Z" fill="rgb(4, 4, 4)" fill-opacity="0.96"/><path d="M167,118L182,89L151,92Z" fill="rgb(0, 0, 0)" fill-opacity="0.70"/><path d="M58,128L33,128L55,109Z" fill="rgb(0, 0, 0)" fill-opacity="0.71"/><path d="M207,48L236,46L213,29Z" fill="rgb(201, 76, 0)" fill-opacity="0.64"/><path d="M9,99L35,69L13,42Z" fill="rgb(245, 245, 245)" fill-opacity="0.64"/><path d="M172,115L69,12L187,111Z" fill="rgb(0, 0, 0)" fill-opacity="1.00"/><path d="M181,55L222,22L181,64Z" fill="rgb(241, 227, 255)" fill-opacity="0.51"/><path d="M113,35L149,112L129,133Z" fill="rgb(1, 0, 1)" fill-opacity="0.90"/><path d="M184,99L178,86L186,119Z" fill="rgb(2, 2, 6)" fill-opacity="0.73"/><path d="M201,47L187,56L193,8Z" fill="rgb(243, 244, 242)" fill-opacity="0.83"/><path d="M170,61L165,25L144,51Z" fill="rgb(0, 0, 0)" fill-opacity="0.84"/><path d="M143,21L189,24L136,3Z" fill="rgb(244, 244, 244)" fill-opacity="0.96"/><path d="M213,67L218,85L226,28Z" fill="rgb(136, 67, 60)" fill-opacity="0.59"/><path d="M231,36L274,57L231,40Z" fill="rgb(250, 251, 250)" fill-opacity="0.68"/><path d="M55,95L-31,106L76,110Z" fill="rgb(245, 245, 245)" fill-opacity="0.96"/><path d="M110,115L118,123L72,199Z" fill="rgb(249, 250, 249)" fill-opacity="0.62"/><path d="M172,74L190,88L162,90Z" fill="rgb(170, 66, 213)" fill-opacity="0.95"/><path d="M37,120L46,107L57,119Z" fill="rgb(0, 0, 0)" fill-opacity="0.64"/><path d="M241,94L222,54L235,45Z" fill="rgb(243, 243, 243)" fill-opacity="0.87"/><path d="M34,140L19,140L47,135Z" fill="rgb(127, 128, 127)" fill-opacity="0.57"/><path d="M170,151L10,227L107,131Z" fill="rgb(244, 244, 244)" fill-opacity="0.98"/><path d="M168,90L156,112L188,112Z" fill="rgb(1, 0, 1)" fill-opacity="0.96"/><path d="M228,16L235,14L230,48Z" fill="rgb(0, 1, 0)" fill-opacity="0.58"/><path d="M48,95L33,33L167,94Z" fill="rgb(0, 0, 0)" fill-opacity="0.85"/><path d="M40,116L26,30L-82,156Z" fill="rgb(245, 245, 245)" fill-opacity="0.91"/><path d="M141,81L103,121L106,121Z" fill="rgb(6, 6, 6)" fill-opacity="1.00"/><path d="M181,82L202,107L186,111Z" fill="rgb(180, 67, 228)" fill-opacity="0.75"/><path d="M41,122L41,120L-4,127Z" fill="rgb(236, 236, 236)" fill-opacity="0.98"/><path d="M182,89L202,85L189,89Z" fill="rgb(85, 26, 112)" fill-opacity="0.43"/><path d="M193,114L235,220L131,129Z" fill="rgb(245, 246, 245)" fill-opacity="0.71"/><path d="M205,42L237,43L197,50Z" fill="rgb(215, 85, 0)" fill-opacity="0.63"/><path d="M218,84L202,109L237,178Z" fill="rgb(244, 244, 244)" fill-opacity="1.00"/><path d="M209,44L149,15L213,-2Z" fill="rgb(246, 247, 247)" fill-opacity="0.58"/><path d="M170,32L168,51L172,58Z" fill="rgb(251, 253, 250)" fill-opacity="0.48"/><path d="M193,10L230,16L183,43Z" fill="rgb(244, 244, 244)" fill-opacity="1.00"/><path d="M149,21L108,18L175,77Z" fill="rgb(1, 1, 1)" fill-opacity="0.69"/><path d="M91,128L130,149L113,117Z" fill="rgb(248, 248, 248)" fill-opacity="0.60"/><path d="M68,136L64,128L73,133Z" fill="rgb(3, 7, 3)" fill-opacity="0.49"/><path d="M218,48L201,109L180,55Z" fill="rgb(168, 64, 211)" fill-opacity="0.77"/><path d="M216,71L244,99L236,57Z" fill="rgb(245, 245, 246)" fill-opacity="0.64"/><path d="M158,122L167,111L156,113Z" fill="rgb(175, 62, 218)" fill-opacity="0.55"/><path d="M59,128L46,130L105,163Z" fill="rgb(241, 241, 241)" fill-opacity="0.76"/><path d="M38,119L35,137L26,140Z" fill="rgb(243, 243, 243)" fill-opacity="0.57"/><path d="M219,70L200,61L218,58Z" fill="rgb(48, 22, 73)" fill-opacity="0.28"/><path d="M41,110L41,123L62,129Z" fill="rgb(3, 3, 3)" fill-opacity="0.84"/><path d="M185,118L195,110L185,111Z" fill="rgb(5, 13, 2)" fill-opacity="0.59"/><path d="M216,29L218,66L225,50Z" fill="rgb(207, 88, 0)" fill-opacity="0.63"/><path d="M87,14L146,119L137,125Z" fill="rgb(1, 1, 1)" fill-opacity="0.92"/></svg>