<svg xmlns="http://www.w3.org/2000/svg" viewBox="0 0 256 143.0214876033058" clip-path="url(#clip)"><defs><clipPath id="clip" clipPathUnits="objectBoundingBox"><rect x="0" y="0" width="256" height="143.0214876033058"/></clipPath></defs><rect x="0" y="0" width="256" height="143.0214876033058" fill="#f6f6f6"/><path d="M21,92L72,-119L216,135Z" fill="rgb(41, 35, 44)" fill-opacity="0.96"/><path d="M129,141L197,28L21,41Z" fill="rgb(0, 0, 0)" fill-opacity="0.74"/><path d="M172,25L75,-133L30,7Z" fill="rgb(242, 242, 242)" fill-opacity="0.96"/><path d="M45,141L34,113L61,109Z" fill="rgb(50, 50, 50)" fill-opacity="0.94"/><path d="M233,195L146,115L193,114Z" fill="rgb(243, 234, 246)" fill-opacity="0.86"/><path d="M195,123L167,61L245,13Z" fill="rgb(157, 73, 186)" fill-opacity="0.95"/><path d="M63,116L4,83L22,55Z" fill="rgb(243, 243, 243)" fill-opacity="0.93"/><path d="M191,57L266,-29L177,19Z" fill="rgb(243, 242, 243)" fill-opacity="0.94"/><path d="M37,126L43,105L71,134Z" fill="rgb(1, 1, 1)" fill-opacity="0.62"/><path d="M101,135L94,133L95,141Z" fill="rgb(6, 6, 6)" fill-opacity="0.67"/><path d="M229,38L241,25L228,11Z" fill="rgb(7, 12, 5)" fill-opacity="0.89"/><path d="M42,-3L31,45L6,69Z" fill="rgb(241, 241, 241)" fill-opacity="1.00"/><path d="M209,93L223,81L214,64Z" fill="rgb(151, 84, 179)" fill-opacity="0.99"/><path d="M47,7L172,34L31,40Z" fill="rgb(2, 2, 2)" fill-opacity="1.00"/><path d="M148,100L174,121L147,121Z" fill="rgb(164, 78, 199)" fill-opacity="0.84"/><path d="M99,119L92,16L144,123Z" fill="rgb(0, 0, 0)" fill-opacity="0.84"/><path d="M161,88L211,95L205,39Z" fill="rgb(169, 67, 211)" fill-opacity="0.89"/><path d="M223,39L221,52L237,43Z" fill="rgb(155, 70, 1)" fill-opacity="0.70"/><path d="M34,79L143,17L76,108Z" fill="rgb(0, 0, 0)" fill-opacity="0.95"/><path d="M71,124L60,95L32,95Z" fill="rgb(245, 245, 245)" fill-opacity="0.70"/><path d="M130,17L177,28L104,123Z" fill="rgb(0, 0, 0)" fill-opacity="0.42"/><path d="M176,65L171,31L168,52Z" fill="rgb(235, 205, 247)" fill-opacity="0.71"/><path d="M-210,111L39,117L31,57Z" fill="rgb(245, 245, 245)" fill-opacity="0.99"/><path d="M212,143L202,109L190,111Z" fill="rgb(5, 12, 2)" fill-opacity="0.72"/><path d="M191,115L157,112L160,85Z" fill="rgb(7, 3, 8)" fill-opacity="0.95"/><path d="M178,32L172,57L190,49Z" fill="rgb(2, 0, 3)" fill-opacity="0.70"/><path d="M123,133L111,115L92,152Z" fill="rgb(239, 239, 239)" fill-opacity="0.91"/><path d="M47,138L57,172L28,113Z" fill="rgb(197, 197, 197)" fill-opacity="1.00"/><path d="M181,89L132,95L186,109Z" fill="rgb(1, 0, 2)" fill-opacity="0.93"/><path d="M66,12L255,-34L116,19Z" fill="rgb(242, 242, 242)" fill-opacity="0.99"/><path d="M169,35L168,51L177,33Z" fill="rgb(247, 253, 244)" fill-opacity="0.59"/><path d="M172,61L127,138L39,8Z" fill="rgb(0, 0, 0)" fill-opacity="0.98"/><path d="M195,116L166,117L211,168Z" fill="rgb(247, 249, 246)" fill-opacity="0.83"/><path d="M202,62L220,57L219,70Z" fill="rgb(88, 36, 84)" fill-opacity="0.49"/><path d="M160,106L152,100L149,118Z" fill="rgb(201, 64, 255)" fill-opacity="0.54"/><path d="M59,120L78,104L53,143Z" fill="rgb(238, 238, 238)" fill-opacity="0.69"/><path d="M240,23L217,-8L282,15Z" fill="rgb(242, 242, 242)" fill-opacity="1.00"/><path d="M191,87L162,91L178,58Z" fill="rgb(171, 65, 214)" fill-opacity="0.82"/><path d="M224,34L238,17L233,13Z" fill="rgb(15, 7, 18)" fill-opacity="0.75"/><path d="M149,20L83,109L48,92Z" fill="rgb(0, 0, 0)" fill-opacity="0.75"/><path d="M219,122L205,142L250,187Z" fill="rgb(240, 240, 240)" fill-opacity="0.99"/><path d="M128,19L36,82L29,46Z" fill="rgb(0, 0, 0)" fill-opacity="0.95"/><path d="M69,135L73,133L41,117Z" fill="rgb(8, 8, 8)" fill-opacity="0.57"/><path d="M157,238L131,129L152,116Z" fill="rgb(240, 239, 240)" fill-opacity="0.80"/><path d="M98,132L84,128L83,125Z" fill="rgb(55, 55, 55)" fill-opacity="0.49"/><path d="M152,51L179,27L111,57Z" fill="rgb(0, 0, 0)" fill-opacity="0.76"/><path d="M154,119L159,102L144,102Z" fill="rgb(185, 69, 232)" fill-opacity="0.66"/><path d="M173,65L105,122L73,79Z" fill="rgb(1, 0, 1)" fill-opacity="0.94"/><path d="M123,136L115,118L92,124Z" fill="rgb(250, 250, 250)" fill-opacity="0.51"/><path d="M237,8L188,55L187,-50Z" fill="rgb(246, 246, 246)" fill-opacity="0.91"/><path d="M39,131L36,124L60,127Z" fill="rgb(11, 11, 11)" fill-opacity="0.85"/><path d="M38,139L63,128L75,221Z" fill="rgb(244, 244, 244)" fill-opacity="0.74"/><path d="M87,105L95,107L61,116Z" fill="rgb(233, 234, 233)" fill-opacity="0.79"/><path d="M196,-3L189,29L153,29Z" fill="rgb(244, 244, 244)" fill-opacity="0.68"/><path d="M19,140L36,140L50,132Z" fill="rgb(100, 100, 100)" fill-opacity="0.46"/><path d="M40,110L55,110L58,128Z" fill="rgb(0, 0, 0)" fill-opacity="0.72"/><path d="M255,80L218,63L226,50Z" fill="rgb(243, 243, 240)" fill-opacity="0.64"/><path d="M149,116L127,134L143,91Z" fill="rgb(3, 2, 4)" fill-opacity="0.63"/><path d="M115,149L86,123L135,140Z" fill="rgb(243, 243, 243)" fill-opacity="0.97"/><path d="M59,113L53,123L60,104Z" fill="rgb(232, 232, 232)" fill-opacity="0.36"/><path d="M206,44L225,28L208,81Z" fill="rgb(189, 49, 255)" fill-opacity="0.38"/><path d="M186,112L184,91L211,94Z" fill="rgb(177, 69, 221)" fill-opacity="0.86"/><path d="M166,25L170,68L140,47Z" fill="rgb(1, 1, 1)" fill-opacity="0.79"/><path d="M143,19L67,104L91,19Z" fill="rgb(0, 0, 0)" fill-opacity="0.71"/><path d="M3,150L44,119L9,126Z" fill="rgb(237, 237, 237)" fill-opacity="0.64"/><path d="M9,92L32,41L33,-46Z" fill="rgb(245, 245, 245)" fill-opacity="1.00"/><path d="M21,84L38,111L65,101Z" fill="rgb(245, 245, 245)" fill-opacity="0.86"/><path d="M136,126L142,17L109,117Z" fill="rgb(0, 0, 0)" fill-opacity="1.00"/><path d="M215,72L217,86L222,76Z" fill="rgb(69, 39, 81)" fill-opacity="0.45"/><path d="M93,129L93,133L88,128Z" fill="rgb(0, 0, 0)" fill-opacity="0.50"/><path d="M210,40L185,55L202,14Z" fill="rgb(242, 242, 242)" fill-opacity="0.67"/><path d="M186,42L189,47L177,61Z" fill="rgb(2, 0, 6)" fill-opacity="0.54"/><path d="M136,125L160,119L131,135Z" fill="rgb(241, 243, 240)" fill-opacity="0.63"/><path d="M169,55L176,89L194,55Z" fill="rgb(180, 64, 228)" fill-opacity="0.53"/><path d="M47,94L93,99L40,7Z" fill="rgb(0, 0, 0)" fill-opacity="0.98"/><path d="M179,-100L227,29L180,35Z" fill="rgb(246, 246, 245)" fill-opacity="0.63"/><path d="M128,55L132,25L159,23Z" fill="rgb(1, 1, 1)" fill-opacity="0.99"/><path d="M183,111L191,119L158,99Z" fill="rgb(7, 10, 6)" fill-opacity="0.50"/><path d="M208,120L219,149L270,114Z" fill="rgb(245, 245, 245)" fill-opacity="1.00"/><path d="M196,15L208,10L180,48Z" fill="rgb(238, 238, 238)" fill-opacity="0.74"/><path d="M164,197L198,120L178,113Z" fill="rgb(243, 243, 243)" fill-opacity="0.95"/><path d="M201,111L186,110L212,129Z" fill="rgb(0, 0, 0)" fill-opacity="0.55"/><path d="M178,82L172,81L144,84Z" fill="rgb(42, 16, 54)" fill-opacity="0.64"/><path d="M197,64L201,41L222,49Z" fill="rgb(172, 72, 213)" fill-opacity="0.97"/><path d="M185,89L191,89L211,57Z" fill="rgb(113, 43, 143)" fill-opacity="0.44"/><path d="M175,81L211,77L186,81Z" fill="rgb(111, 44, 140)" fill-opacity="0.83"/><path d="M227,34L233,14L242,26Z" fill="rgb(1, 2, 1)" fill-opacity="0.67"/><path d="M75,97L86,107L67,104Z" fill="rgb(4, 5, 4)" fill-opacity="0.55"/><path d="M57,121L53,95L96,152Z" fill="rgb(243, 243, 243)" fill-opacity="0.85"/><path d="M32,115L41,122L5,115Z" fill="rgb(242, 242, 242)" fill-opacity="0.75"/><path d="M244,27L246,55L229,35Z" fill="rgb(240, 249, 237)" fill-opacity="0.44"/><path d="M54,128L7,182L88,145Z" fill="rgb(245, 245, 245)" fill-opacity="1.00"/><path d="M216,85L192,111L213,67Z" fill="rgb(175, 68, 218)" fill-opacity="0.96"/><path d="M76,124L79,121L78,127Z" fill="rgb(127, 127, 127)" fill-opacity="0.60"/><path d="M40,138L57,122L38,137Z" fill="rgb(44, 44, 44)" fill-opacity="0.96"/><path d="M173,37L189,49L173,46Z" fill="rgb(0, 0, 0)" fill-opacity="0.55"/><path d="M212,137L203,133L207,122Z" fill="rgb(11, 11, 11)" fill-opacity="0.84"/><path d="M43,133L38,129L19,145Z" fill="rgb(243, 243, 243)" fill-opacity="0.76"/><path d="M185,-73L95,17L53,8Z" fill="rgb(250, 250, 250)" fill-opacity="0.55"/><path d="M192,-2L137,20L0,-1Z" fill="rgb(248, 248, 248)" fill-opacity="0.59"/></svg>