<svg xmlns="http://www.w3.org/2000/svg" viewBox="0 0 256 143.0214876033058" clip-path="url(#clip)"><defs><clipPath id="clip" clipPathUnits="objectBoundingBox"><rect x="0" y="0" width="256" height="143.0214876033058"/></clipPath></defs><rect x="0" y="0" width="256" height="143.0214876033058" fill="#f6f6f6"/><path d="M45,204L29,4L239,41Z" fill="rgb(71, 56, 77)" fill-opacity="1.00"/><path d="M237,17L205,135L138,69Z" fill="rgb(163, 87, 194)" fill-opacity="0.98"/><path d="M30,223L160,148L58,97Z" fill="rgb(220, 220, 220)" fill-opacity="1.00"/><path d="M61,104L22,66L-17,131Z" fill="rgb(244, 244, 244)" fill-opacity="0.92"/><path d="M244,9L190,55L169,-7Z" fill="rgb(241, 238, 242)" fill-opacity="0.94"/><path d="M55,111L59,129L33,128Z" fill="rgb(3, 5, 3)" fill-opacity="0.86"/><path d="M28,49L-60,2L64,-52Z" fill="rgb(244, 244, 244)" fill-opacity="0.97"/><path d="M34,12L104,123L174,23Z" fill="rgb(0, 0, 0)" fill-opacity="0.85"/><path d="M211,142L210,120L186,106Z" fill="rgb(0, 12, 0)" fill-opacity="0.73"/><path d="M145,121L204,109L185,52Z" fill="rgb(163, 67, 202)" fill-opacity="1.00"/><path d="M35,80L140,128L40,7Z" fill="rgb(0, 0, 0)" fill-opacity="0.98"/><path d="M29,50L42,14L35,77Z" fill="rgb(8, 9, 8)" fill-opacity="0.95"/><path d="M92,105L39,108L101,117Z" fill="rgb(235, 236, 235)" fill-opacity="0.85"/><path d="M177,30L190,48L173,57Z" fill="rgb(18, 18, 17)" fill-opacity="0.90"/><path d="M170,61L175,35L157,-50Z" fill="rgb(228, 231, 228)" fill-opacity="0.62"/><path d="M215,28L154,29L207,-46Z" fill="rgb(246, 246, 246)" fill-opacity="0.83"/><path d="M-4,10L31,31L53,-4Z" fill="rgb(248, 248, 248)" fill-opacity="0.55"/><path d="M213,133L198,103L199,129Z" fill="rgb(1, 1, 0)" fill-opacity="0.76"/><path d="M99,117L148,119L136,18Z" fill="rgb(1, 0, 1)" fill-opacity="1.00"/><path d="M57,128L103,155L8,158Z" fill="rgb(242, 242, 242)" fill-opacity="0.97"/><path d="M88,125L141,169L114,118Z" fill="rgb(241, 241, 241)" fill-opacity="1.00"/><path d="M131,139L121,133L138,77Z" fill="rgb(4, 4, 4)" fill-opacity="0.96"/><path d="M172,111L187,116L202,109Z" fill="rgb(3, 9, 1)" fill-opacity="0.74"/><path d="M157,102L166,82L45,94Z" fill="rgb(2, 0, 3)" fill-opacity="0.93"/><path d="M201,110L215,85L350,350Z" fill="rgb(243, 243, 243)" fill-opacity="0.96"/><path d="M93,139L97,130L100,139Z" fill="rgb(2, 2, 2)" fill-opacity="0.52"/><path d="M234,14L244,28L198,47Z" fill="rgb(173, 92, 206)" fill-opacity="0.77"/><path d="M143,83L222,84L141,62Z" fill="rgb(166, 62, 208)" fill-opacity="0.85"/><path d="M253,4L243,134L217,68Z" fill="rgb(244, 245, 243)" fill-opacity="0.64"/><path d="M161,38L174,27L182,31Z" fill="rgb(1, 6, 0)" fill-opacity="0.54"/><path d="M143,17L81,109L46,92Z" fill="rgb(0, 1, 0)" fill-opacity="0.81"/><path d="M157,31L176,23L145,12Z" fill="rgb(231, 231, 231)" fill-opacity="0.45"/><path d="M51,107L93,106L85,150Z" fill="rgb(254, 254, 254)" fill-opacity="0.61"/><path d="M172,31L155,63L30,35Z" fill="rgb(0, 0, 0)" fill-opacity="0.97"/><path d="M104,96L122,132L144,121Z" fill="rgb(1, 2, 1)" fill-opacity="0.92"/><path d="M58,95L-42,96L59,110Z" fill="rgb(248, 248, 248)" fill-opacity="0.79"/><path d="M189,94L162,124L144,104Z" fill="rgb(167, 71, 206)" fill-opacity="1.00"/><path d="M198,111L158,51L221,66Z" fill="rgb(166, 67, 207)" fill-opacity="1.00"/><path d="M211,64L220,89L218,56Z" fill="rgb(4, 17, 0)" fill-opacity="0.27"/><path d="M252,162L225,49L219,72Z" fill="rgb(244, 244, 244)" fill-opacity="0.93"/><path d="M73,136L65,127L53,126Z" fill="rgb(26, 26, 26)" fill-opacity="0.62"/><path d="M109,18L-15,-9L78,14Z" fill="rgb(229, 229, 229)" fill-opacity="0.98"/><path d="M43,137L55,110L41,110Z" fill="rgb(1, 2, 0)" fill-opacity="0.86"/><path d="M213,144L168,126L223,141Z" fill="rgb(241, 241, 241)" fill-opacity="1.00"/><path d="M172,38L188,48L180,58Z" fill="rgb(0, 0, 2)" fill-opacity="0.69"/><path d="M169,34L169,57L175,51Z" fill="rgb(247, 255, 243)" fill-opacity="0.61"/><path d="M200,121L169,135L189,114Z" fill="rgb(240, 243, 238)" fill-opacity="0.83"/><path d="M113,118L83,178L108,118Z" fill="rgb(242, 242, 242)" fill-opacity="0.95"/><path d="M230,13L220,47L242,25Z" fill="rgb(158, 71, 194)" fill-opacity="0.87"/><path d="M21,70L40,116L-31,122Z" fill="rgb(245, 245, 245)" fill-opacity="0.98"/><path d="M72,106L35,80L41,5Z" fill="rgb(1, 2, 1)" fill-opacity="0.77"/><path d="M139,63L188,63L152,82Z" fill="rgb(175, 68, 219)" fill-opacity="0.93"/><path d="M209,139L202,110L192,111Z" fill="rgb(5, 6, 5)" fill-opacity="0.84"/><path d="M8,71L42,-7L38,25Z" fill="rgb(243, 243, 243)" fill-opacity="0.99"/><path d="M230,24L153,-52L218,31Z" fill="rgb(244, 244, 244)" fill-opacity="0.83"/><path d="M32,36L48,7L154,33Z" fill="rgb(0, 1, 0)" fill-opacity="0.92"/><path d="M146,46L167,24L147,63Z" fill="rgb(4, 4, 4)" fill-opacity="1.00"/><path d="M41,83L160,24L130,19Z" fill="rgb(1, 1, 1)" fill-opacity="0.96"/><path d="M168,55L169,39L135,17Z" fill="rgb(10, 8, 10)" fill-opacity="0.57"/><path d="M146,109L32,70L143,69Z" fill="rgb(0, 0, 0)" fill-opacity="0.79"/><path d="M148,118L214,139L131,130Z" fill="rgb(242, 242, 242)" fill-opacity="0.91"/><path d="M179,34L205,15L210,43Z" fill="rgb(245, 245, 245)" fill-opacity="0.79"/><path d="M150,120L147,102L158,102Z" fill="rgb(188, 75, 234)" fill-opacity="0.72"/><path d="M121,82L123,136L132,139Z" fill="rgb(4, 4, 4)" fill-opacity="0.76"/><path d="M237,16L233,13L190,100Z" fill="rgb(167, 69, 207)" fill-opacity="0.96"/><path d="M183,61L225,28L206,75Z" fill="rgb(170, 66, 213)" fill-opacity="0.89"/><path d="M118,89L29,56L81,108Z" fill="rgb(0, 0, 0)" fill-opacity="0.61"/><path d="M219,84L223,73L207,96Z" fill="rgb(130, 90, 145)" fill-opacity="0.55"/><path d="M92,132L95,130L81,125Z" fill="rgb(9, 9, 9)" fill-opacity="0.41"/><path d="M187,42L173,46L185,55Z" fill="rgb(5, 3, 5)" fill-opacity="0.83"/><path d="M202,109L224,91L202,100Z" fill="rgb(244, 252, 240)" fill-opacity="0.57"/><path d="M149,112L112,33L90,106Z" fill="rgb(0, 0, 0)" fill-opacity="0.83"/><path d="M188,83L161,82L173,113Z" fill="rgb(177, 66, 222)" fill-opacity="0.51"/><path d="M35,120L44,120L47,106Z" fill="rgb(5, 9, 3)" fill-opacity="0.49"/><path d="M174,32L169,41L181,33Z" fill="rgb(255, 255, 255)" fill-opacity="0.39"/><path d="M157,111L201,108L215,68Z" fill="rgb(174, 68, 217)" fill-opacity="0.89"/><path d="M-41,184L44,133L30,125Z" fill="rgb(230, 230, 230)" fill-opacity="0.97"/><path d="M28,56L30,56L30,45Z" fill="rgb(191, 191, 191)" fill-opacity="0.59"/><path d="M171,115L175,110L202,110Z" fill="rgb(7, 14, 4)" fill-opacity="0.59"/><path d="M80,106L118,130L97,134Z" fill="rgb(244, 244, 244)" fill-opacity="0.92"/><path d="M158,18L145,23L175,22Z" fill="rgb(255, 254, 255)" fill-opacity="0.46"/><path d="M171,125L158,98L157,111Z" fill="rgb(126, 59, 153)" fill-opacity="0.65"/><path d="M37,81L32,69L21,68Z" fill="rgb(234, 234, 234)" fill-opacity="0.78"/><path d="M100,138L96,132L94,137Z" fill="rgb(1, 1, 1)" fill-opacity="0.59"/><path d="M275,37L230,40L286,67Z" fill="rgb(245, 244, 245)" fill-opacity="0.87"/><path d="M114,146L141,133L168,164Z" fill="rgb(255, 255, 255)" fill-opacity="0.55"/><path d="M171,51L161,53L148,83Z" fill="rgb(185, 74, 229)" fill-opacity="0.66"/><path d="M60,127L55,146L48,130Z" fill="rgb(241, 242, 241)" fill-opacity="0.51"/><path d="M145,63L143,83L164,83Z" fill="rgb(190, 75, 237)" fill-opacity="0.58"/><path d="M216,56L221,36L238,45Z" fill="rgb(125, 43, 158)" fill-opacity="0.40"/><path d="M222,-5L188,18L183,44Z" fill="rgb(244, 244, 244)" fill-opacity="0.92"/><path d="M185,89L191,90L210,59Z" fill="rgb(117, 45, 146)" fill-opacity="0.47"/><path d="M61,-12L45,10L19,-2Z" fill="rgb(244, 244, 244)" fill-opacity="0.81"/><path d="M31,159L52,150L45,132Z" fill="rgb(237, 238, 237)" fill-opacity="0.65"/><path d="M31,120L32,131L42,120Z" fill="rgb(208, 209, 207)" fill-opacity="0.60"/><path d="M172,35L167,52L173,41Z" fill="rgb(250, 250, 250)" fill-opacity="0.63"/><path d="M233,28L210,38L212,31Z" fill="rgb(161, 70, 197)" fill-opacity="0.77"/><path d="M81,127L108,150L43,153Z" fill="rgb(246, 246, 246)" fill-opacity="0.87"/><path d="M66,136L63,127L73,133Z" fill="rgb(1, 1, 1)" fill-opacity="0.41"/><path d="M87,142L122,131L125,179Z" fill="rgb(245, 245, 245)" fill-opacity="0.82"/></svg>