<svg xmlns="http://www.w3.org/2000/svg" viewBox="0 0 256 143.0214876033058" clip-path="url(#clip)"><defs><clipPath id="clip" clipPathUnits="objectBoundingBox"><rect x="0" y="0" width="256" height="143.0214876033058"/></clipPath></defs><rect x="0" y="0" width="256" height="143.0214876033058" fill="#f6f6f6"/><path d="M1,5L115,174L197,28Z" fill="rgb(33, 26, 36)" fill-opacity="0.91"/><path d="M41,11L28,53L-56,-55Z" fill="rgb(243, 243, 243)" fill-opacity="0.99"/><path d="M-29,69L195,271L116,120Z" fill="rgb(212, 212, 212)" fill-opacity="1.00"/><path d="M135,69L235,23L205,137Z" fill="rgb(152, 64, 187)" fill-opacity="0.85"/><path d="M26,40L40,94L211,119Z" fill="rgb(0, 0, 0)" fill-opacity="0.73"/><path d="M49,138L31,120L58,107Z" fill="rgb(17, 17, 17)" fill-opacity="0.80"/><path d="M156,22L224,14L200,51Z" fill="rgb(242, 242, 242)" fill-opacity="0.73"/><path d="M215,138L198,102L199,131Z" fill="rgb(9, 16, 7)" fill-opacity="0.79"/><path d="M215,87L120,149L178,70Z" fill="rgb(180, 88, 218)" fill-opacity="0.76"/><path d="M174,31L144,85L173,76Z" fill="rgb(176, 90, 212)" fill-opacity="0.83"/><path d="M56,109L36,110L58,133Z" fill="rgb(0, 0, 0)" fill-opacity="0.57"/><path d="M205,138L194,116L177,114Z" fill="rgb(235, 239, 233)" fill-opacity="0.90"/><path d="M130,141L39,14L152,21Z" fill="rgb(0, 0, 0)" fill-opacity="0.97"/><path d="M97,17L150,119L99,119Z" fill="rgb(0, 0, 0)" fill-opacity="0.82"/><path d="M215,30L236,44L143,113Z" fill="rgb(160, 61, 201)" fill-opacity="0.79"/><path d="M210,125L241,58L200,106Z" fill="rgb(241, 241, 241)" fill-opacity="0.97"/><path d="M242,25L220,47L231,10Z" fill="rgb(145, 46, 185)" fill-opacity="0.69"/><path d="M166,121L92,186L139,122Z" fill="rgb(246, 255, 241)" fill-opacity="0.77"/><path d="M35,131L47,88L-90,4Z" fill="rgb(247, 247, 247)" fill-opacity="0.83"/><path d="M192,-10L153,30L224,25Z" fill="rgb(244, 244, 244)" fill-opacity="0.82"/><path d="M75,137L33,116L68,130Z" fill="rgb(15, 15, 15)" fill-opacity="0.66"/><path d="M92,106L46,107L120,143Z" fill="rgb(246, 246, 246)" fill-opacity="0.87"/><path d="M40,88L158,102L164,83Z" fill="rgb(2, 1, 2)" fill-opacity="0.96"/><path d="M43,108L59,124L38,140Z" fill="rgb(0, 0, 0)" fill-opacity="0.56"/><path d="M152,113L64,102L30,68Z" fill="rgb(0, 0, 0)" fill-opacity="0.92"/><path d="M29,72L-20,-46L31,32Z" fill="rgb(245, 245, 245)" fill-opacity="0.86"/><path d="M155,64L169,34L70,12Z" fill="rgb(1, 1, 1)" fill-opacity="0.98"/><path d="M175,53L169,54L170,32Z" fill="rgb(228, 255, 217)" fill-opacity="0.70"/><path d="M174,55L189,51L178,27Z" fill="rgb(11, 17, 9)" fill-opacity="0.83"/><path d="M45,6L97,19L34,75Z" fill="rgb(0, 0, 0)" fill-opacity="0.90"/><path d="M176,28L140,43L178,32Z" fill="rgb(11, 11, 11)" fill-opacity="0.93"/><path d="M192,57L179,21L221,8Z" fill="rgb(245, 245, 246)" fill-opacity="0.88"/><path d="M367,40L218,75L224,52Z" fill="rgb(243, 243, 243)" fill-opacity="1.00"/><path d="M34,132L93,157L60,128Z" fill="rgb(255, 255, 255)" fill-opacity="0.50"/><path d="M201,110L211,142L191,110Z" fill="rgb(0, 0, 0)" fill-opacity="0.62"/><path d="M68,147L74,120L136,177Z" fill="rgb(245, 245, 245)" fill-opacity="0.91"/><path d="M99,134L86,126L99,141Z" fill="rgb(18, 18, 18)" fill-opacity="0.44"/><path d="M117,20L146,18L94,41Z" fill="rgb(5, 5, 5)" fill-opacity="0.60"/><path d="M142,11L158,28L141,16Z" fill="rgb(232, 233, 232)" fill-opacity="0.48"/><path d="M197,111L142,61L139,66Z" fill="rgb(177, 65, 223)" fill-opacity="0.74"/><path d="M46,106L49,133L42,136Z" fill="rgb(3, 3, 3)" fill-opacity="0.62"/><path d="M50,8L108,124L31,37Z" fill="rgb(0, 0, 0)" fill-opacity="0.89"/><path d="M154,121L209,97L145,103Z" fill="rgb(169, 69, 209)" fill-opacity="1.00"/><path d="M216,124L208,141L231,155Z" fill="rgb(243, 243, 243)" fill-opacity="1.00"/><path d="M153,119L167,123L180,110Z" fill="rgb(1, 17, 0)" fill-opacity="0.23"/><path d="M58,110L36,121L39,112Z" fill="rgb(0, 0, 0)" fill-opacity="0.46"/><path d="M169,50L165,26L106,79Z" fill="rgb(3, 2, 4)" fill-opacity="0.87"/><path d="M197,125L200,109L212,129Z" fill="rgb(1, 4, 0)" fill-opacity="0.78"/><path d="M192,37L185,56L212,38Z" fill="rgb(235, 231, 236)" fill-opacity="0.81"/><path d="M144,84L239,42L143,65Z" fill="rgb(174, 68, 217)" fill-opacity="0.89"/><path d="M218,86L212,64L224,47Z" fill="rgb(2, 8, 4)" fill-opacity="0.23"/><path d="M172,33L168,46L177,35Z" fill="rgb(224, 237, 219)" fill-opacity="0.71"/><path d="M166,91L37,82L29,46Z" fill="rgb(0, 0, 0)" fill-opacity="1.00"/><path d="M134,127L134,22L148,118Z" fill="rgb(3, 2, 3)" fill-opacity="0.97"/><path d="M144,175L114,118L89,126Z" fill="rgb(242, 242, 242)" fill-opacity="0.96"/><path d="M158,99L167,78L160,90Z" fill="rgb(31, 11, 38)" fill-opacity="0.77"/><path d="M56,-15L45,12L38,-10Z" fill="rgb(230, 230, 230)" fill-opacity="0.78"/><path d="M83,149L68,103L38,89Z" fill="rgb(244, 244, 244)" fill-opacity="0.85"/><path d="M201,109L215,68L138,63Z" fill="rgb(168, 66, 210)" fill-opacity="0.98"/><path d="M227,155L81,141L202,131Z" fill="rgb(243, 243, 243)" fill-opacity="0.87"/><path d="M72,133L67,135L62,126Z" fill="rgb(5, 5, 5)" fill-opacity="0.53"/><path d="M34,69L72,105L47,91Z" fill="rgb(7, 7, 7)" fill-opacity="0.83"/><path d="M3,87L58,96L22,127Z" fill="rgb(246, 246, 246)" fill-opacity="0.81"/><path d="M55,110L35,128L58,128Z" fill="rgb(1, 1, 1)" fill-opacity="0.82"/><path d="M171,57L186,53L183,34Z" fill="rgb(1, 1, 1)" fill-opacity="0.48"/><path d="M172,115L175,110L202,110Z" fill="rgb(20, 14, 23)" fill-opacity="0.76"/><path d="M217,-22L203,40L160,22Z" fill="rgb(246, 246, 245)" fill-opacity="0.73"/><path d="M221,39L199,43L221,61Z" fill="rgb(171, 71, 212)" fill-opacity="0.99"/><path d="M40,29L74,54L40,6Z" fill="rgb(0, 0, 0)" fill-opacity="0.82"/><path d="M18,140L20,138L38,140Z" fill="rgb(112, 112, 112)" fill-opacity="0.51"/><path d="M173,45L174,36L176,55Z" fill="rgb(11, 13, 10)" fill-opacity="0.86"/><path d="M163,78L165,83L177,82Z" fill="rgb(109, 43, 136)" fill-opacity="0.66"/><path d="M22,57L46,-63L39,22Z" fill="rgb(241, 241, 241)" fill-opacity="0.83"/><path d="M186,111L139,101L203,108Z" fill="rgb(173, 61, 219)" fill-opacity="0.49"/><path d="M168,53L174,56L168,43Z" fill="rgb(246, 254, 243)" fill-opacity="0.59"/><path d="M181,112L156,112L158,111Z" fill="rgb(72, 27, 91)" fill-opacity="0.76"/><path d="M172,19L105,18L81,14Z" fill="rgb(233, 233, 233)" fill-opacity="0.82"/><path d="M99,117L142,15L106,123Z" fill="rgb(3, 3, 3)" fill-opacity="0.78"/><path d="M136,110L79,56L142,18Z" fill="rgb(0, 0, 0)" fill-opacity="1.00"/><path d="M225,37L239,29L235,12Z" fill="rgb(168, 75, 206)" fill-opacity="1.00"/><path d="M147,118L174,125L129,132Z" fill="rgb(245, 255, 242)" fill-opacity="0.55"/><path d="M210,125L211,129L204,146Z" fill="rgb(2, 0, 2)" fill-opacity="0.46"/><path d="M33,139L94,132L92,187Z" fill="rgb(245, 245, 245)" fill-opacity="0.99"/><path d="M211,126L209,138L197,125Z" fill="rgb(0, 0, 0)" fill-opacity="0.54"/><path d="M193,35L203,-22L183,43Z" fill="rgb(244, 244, 244)" fill-opacity="1.00"/><path d="M204,61L215,69L219,57Z" fill="rgb(87, 22, 114)" fill-opacity="0.46"/><path d="M192,78L213,78L171,82Z" fill="rgb(91, 36, 115)" fill-opacity="0.39"/><path d="M160,24L125,42L141,23Z" fill="rgb(2, 2, 2)" fill-opacity="0.91"/><path d="M186,117L180,110L191,112Z" fill="rgb(0, 2, 0)" fill-opacity="0.71"/><path d="M146,22L233,14L254,-1Z" fill="rgb(244, 244, 244)" fill-opacity="1.00"/><path d="M62,129L48,129L64,195Z" fill="rgb(252, 252, 252)" fill-opacity="0.54"/><path d="M25,113L36,122L42,122Z" fill="rgb(231, 231, 231)" fill-opacity="0.99"/><path d="M92,54L133,138L124,137Z" fill="rgb(4, 4, 4)" fill-opacity="0.91"/><path d="M220,55L214,60L214,67Z" fill="rgb(61, 30, 77)" fill-opacity="0.46"/><path d="M174,54L178,30L186,54Z" fill="rgb(0, 0, 0)" fill-opacity="0.66"/><path d="M53,44L32,67L32,35Z" fill="rgb(0, 0, 0)" fill-opacity="0.93"/><path d="M102,135L96,140L93,136Z" fill="rgb(2, 2, 2)" fill-opacity="0.52"/><path d="M129,142L110,117L95,131Z" fill="rgb(244, 244, 244)" fill-opacity="0.75"/><path d="M228,47L231,38L238,45Z" fill="rgb(31, 61, 17)" fill-opacity="0.26"/><path d="M240,22L242,25L229,38Z" fill="rgb(11, 34, 3)" fill-opacity="0.25"/></svg>