<svg xmlns="http://www.w3.org/2000/svg" viewBox="0 0 256 143.0214876033058" clip-path="url(#clip)"><defs><clipPath id="clip" clipPathUnits="objectBoundingBox"><rect x="0" y="0" width="256" height="143.0214876033058"/></clipPath></defs><rect x="0" y="0" width="256" height="143.0214876033058" fill="#f6f6f6"/><path d="M133,201L-2,4L240,33Z" fill="rgb(8, 8, 62)" fill-opacity="0.81"/><path d="M170,115L-65,182L347,112Z" fill="rgb(215, 215, 217)" fill-opacity="1.00"/><path d="M245,-1L167,-12L190,57Z" fill="rgb(242, 242, 244)" fill-opacity="0.95"/><path d="M68,131L38,137L31,12Z" fill="rgb(5, 5, 0)" fill-opacity="0.50"/><path d="M18,164L80,102L123,128Z" fill="rgb(232, 232, 229)" fill-opacity="0.90"/><path d="M29,49L-47,34L57,-39Z" fill="rgb(243, 243, 243)" fill-opacity="1.00"/><path d="M189,30L194,-13L154,29Z" fill="rgb(243, 243, 241)" fill-opacity="0.85"/><path d="M47,98L46,2L179,102Z" fill="rgb(0, 0, 0)" fill-opacity="0.91"/><path d="M133,67L207,135L224,41Z" fill="rgb(0, 0, 233)" fill-opacity="0.74"/><path d="M212,144L208,115L188,108Z" fill="rgb(36, 36, 2)" fill-opacity="0.76"/><path d="M76,107L21,112L-12,61Z" fill="rgb(243, 243, 243)" fill-opacity="0.95"/><path d="M233,11L219,43L241,27Z" fill="rgb(9, 48, 46)" fill-opacity="0.93"/><path d="M47,137L57,110L39,112Z" fill="rgb(0, 0, 0)" fill-opacity="0.85"/><path d="M63,37L126,138L149,111Z" fill="rgb(1, 1, 1)" fill-opacity="0.97"/><path d="M28,51L170,88L38,84Z" fill="rgb(0, 0, 3)" fill-opacity="0.93"/><path d="M204,126L255,2L223,53Z" fill="rgb(209, 211, 216)" fill-opacity="0.78"/><path d="M156,23L131,115L52,12Z" fill="rgb(0, 0, 0)" fill-opacity="0.97"/><path d="M145,111L163,123L234,15Z" fill="rgb(0, 0, 245)" fill-opacity="0.78"/><path d="M340,-48L238,195L201,104Z" fill="rgb(245, 245, 244)" fill-opacity="0.97"/><path d="M165,26L73,109L168,49Z" fill="rgb(1, 1, 5)" fill-opacity="1.00"/><path d="M46,7L172,34L29,55Z" fill="rgb(1, 1, 1)" fill-opacity="1.00"/><path d="M51,94L58,122L123,133Z" fill="rgb(241, 241, 241)" fill-opacity="1.00"/><path d="M166,117L225,80L159,50Z" fill="rgb(0, 0, 239)" fill-opacity="0.79"/><path d="M36,126L72,134L43,108Z" fill="rgb(0, 0, 0)" fill-opacity="0.52"/><path d="M160,100L57,9L101,121Z" fill="rgb(0, 0, 0)" fill-opacity="0.88"/><path d="M218,80L210,61L222,54Z" fill="rgb(26, 46, 75)" fill-opacity="0.84"/><path d="M202,234L167,114L197,116Z" fill="rgb(249, 249, 245)" fill-opacity="0.80"/><path d="M121,89L133,140L122,134Z" fill="rgb(5, 5, 5)" fill-opacity="0.80"/><path d="M216,34L191,54L183,54Z" fill="rgb(196, 196, 232)" fill-opacity="0.76"/><path d="M167,48L173,31L173,58Z" fill="rgb(252, 252, 249)" fill-opacity="0.75"/><path d="M209,136L183,173L283,161Z" fill="rgb(241, 241, 241)" fill-opacity="0.97"/><path d="M102,136L94,132L95,140Z" fill="rgb(12, 12, 11)" fill-opacity="0.57"/><path d="M232,50L231,32L217,29Z" fill="rgb(6, 50, 25)" fill-opacity="0.69"/><path d="M242,25L229,14L226,39Z" fill="rgb(13, 53, 42)" fill-opacity="0.93"/><path d="M160,94L136,79L165,85Z" fill="rgb(0, 0, 45)" fill-opacity="0.99"/><path d="M131,130L149,117L342,243Z" fill="rgb(248, 248, 249)" fill-opacity="0.81"/><path d="M146,100L149,119L170,121Z" fill="rgb(8, 8, 229)" fill-opacity="0.78"/><path d="M125,107L36,81L72,106Z" fill="rgb(7, 7, 6)" fill-opacity="0.92"/><path d="M145,85L199,63L140,63Z" fill="rgb(0, 0, 240)" fill-opacity="0.87"/><path d="M21,-48L38,12L122,-25Z" fill="rgb(234, 234, 234)" fill-opacity="0.86"/><path d="M217,91L231,46L358,49Z" fill="rgb(246, 246, 245)" fill-opacity="0.84"/><path d="M228,25L226,-62L222,30Z" fill="rgb(242, 242, 241)" fill-opacity="0.94"/><path d="M142,19L87,19L157,65Z" fill="rgb(0, 0, 0)" fill-opacity="0.82"/><path d="M145,107L198,110L221,74Z" fill="rgb(0, 0, 238)" fill-opacity="0.93"/><path d="M202,109L171,111L204,118Z" fill="rgb(3, 3, 3)" fill-opacity="0.72"/><path d="M235,26L226,54L219,30Z" fill="rgb(5, 48, 28)" fill-opacity="0.59"/><path d="M27,121L55,101L24,64Z" fill="rgb(244, 244, 244)" fill-opacity="0.64"/><path d="M223,47L218,30L173,74Z" fill="rgb(3, 3, 243)" fill-opacity="0.86"/><path d="M91,105L140,170L66,107Z" fill="rgb(244, 244, 244)" fill-opacity="0.76"/><path d="M94,130L113,116L148,182Z" fill="rgb(245, 245, 244)" fill-opacity="0.79"/><path d="M205,117L346,70L201,108Z" fill="rgb(243, 243, 243)" fill-opacity="0.97"/><path d="M198,106L214,132L201,131Z" fill="rgb(0, 0, 0)" fill-opacity="0.64"/><path d="M58,119L45,107L40,139Z" fill="rgb(6, 6, 7)" fill-opacity="0.66"/><path d="M178,32L171,34L168,47Z" fill="rgb(243, 243, 225)" fill-opacity="0.60"/><path d="M48,45L53,14L39,8Z" fill="rgb(4, 4, 4)" fill-opacity="0.90"/><path d="M180,59L172,37L190,44Z" fill="rgb(1, 0, 0)" fill-opacity="0.69"/><path d="M40,7L117,79L47,96Z" fill="rgb(0, 0, 0)" fill-opacity="0.70"/><path d="M65,136L72,133L63,127Z" fill="rgb(0, 0, 3)" fill-opacity="0.46"/><path d="M141,20L59,9L96,17Z" fill="rgb(228, 228, 226)" fill-opacity="0.79"/><path d="M168,49L167,29L86,81Z" fill="rgb(0, 0, 0)" fill-opacity="1.00"/><path d="M4,-10L52,8L122,5Z" fill="rgb(245, 245, 245)" fill-opacity="0.99"/><path d="M80,125L93,132L95,130Z" fill="rgb(34, 34, 32)" fill-opacity="0.44"/><path d="M16,138L45,130L29,148Z" fill="rgb(215, 215, 215)" fill-opacity="0.89"/><path d="M175,124L252,155L108,146Z" fill="rgb(246, 246, 246)" fill-opacity="0.90"/><path d="M231,35L277,3L233,43Z" fill="rgb(243, 243, 242)" fill-opacity="0.94"/><path d="M66,119L58,141L26,152Z" fill="rgb(252, 252, 254)" fill-opacity="0.54"/><path d="M218,73L248,101L226,47Z" fill="rgb(246, 245, 248)" fill-opacity="0.54"/><path d="M216,66L224,57L203,61Z" fill="rgb(4, 38, 3)" fill-opacity="0.46"/><path d="M215,66L232,35L228,27Z" fill="rgb(0, 35, 36)" fill-opacity="0.70"/><path d="M212,39L186,57L191,25Z" fill="rgb(252, 252, 251)" fill-opacity="0.39"/><path d="M30,54L-25,197L15,-30Z" fill="rgb(246, 246, 246)" fill-opacity="0.95"/><path d="M111,83L77,107L84,107Z" fill="rgb(2, 2, 2)" fill-opacity="0.80"/><path d="M-10,109L9,69L41,117Z" fill="rgb(246, 246, 246)" fill-opacity="0.75"/><path d="M211,65L161,52L222,79Z" fill="rgb(0, 0, 244)" fill-opacity="0.57"/><path d="M30,79L34,105L72,115Z" fill="rgb(244, 244, 244)" fill-opacity="0.88"/><path d="M58,126L95,134L57,115Z" fill="rgb(241, 241, 241)" fill-opacity="0.93"/><path d="M151,84L158,57L219,52Z" fill="rgb(0, 0, 242)" fill-opacity="0.82"/><path d="M33,76L42,21L32,35Z" fill="rgb(8, 8, 6)" fill-opacity="0.71"/><path d="M159,83L159,107L151,83Z" fill="rgb(0, 0, 0)" fill-opacity="0.78"/><path d="M221,41L237,43L225,49Z" fill="rgb(20, 51, 48)" fill-opacity="0.83"/><path d="M104,65L150,18L142,42Z" fill="rgb(1, 1, 1)" fill-opacity="0.53"/><path d="M32,129L53,118L60,128Z" fill="rgb(1, 1, 1)" fill-opacity="0.63"/><path d="M206,108L216,146L581,-33Z" fill="rgb(245, 245, 245)" fill-opacity="1.00"/><path d="M36,75L45,64L36,86Z" fill="rgb(2, 2, 0)" fill-opacity="0.51"/><path d="M178,30L189,48L173,56Z" fill="rgb(9, 9, 3)" fill-opacity="0.73"/><path d="M45,132L66,133L56,127Z" fill="rgb(254, 254, 255)" fill-opacity="0.41"/><path d="M199,43L221,40L215,59Z" fill="rgb(4, 4, 238)" fill-opacity="0.99"/><path d="M211,33L206,71L216,30Z" fill="rgb(7, 7, 240)" fill-opacity="0.76"/><path d="M221,74L219,86L215,79Z" fill="rgb(34, 33, 15)" fill-opacity="0.41"/><path d="M36,64L139,125L105,116Z" fill="rgb(0, 0, 0)" fill-opacity="0.89"/><path d="M140,17L165,45L154,64Z" fill="rgb(1, 1, 5)" fill-opacity="0.77"/><path d="M204,118L194,118L201,104Z" fill="rgb(0, 0, 10)" fill-opacity="0.46"/><path d="M209,92L212,136L256,72Z" fill="rgb(245, 245, 245)" fill-opacity="0.75"/><path d="M149,111L99,34L147,120Z" fill="rgb(1, 1, 4)" fill-opacity="0.98"/><path d="M192,113L203,136L164,131Z" fill="rgb(243, 243, 242)" fill-opacity="0.85"/><path d="M74,126L71,125L84,121Z" fill="rgb(149, 149, 149)" fill-opacity="0.45"/><path d="M44,133L32,126L23,142Z" fill="rgb(241, 241, 241)" fill-opacity="0.67"/><path d="M75,-13L211,18L285,5Z" fill="rgb(246, 246, 246)" fill-opacity="0.90"/><path d="M175,54L187,54L173,41Z" fill="rgb(0, 0, 0)" fill-opacity="0.84"/><path d="M116,169L93,106L85,105Z" fill="rgb(244, 244, 244)" fill-opacity="0.80"/></svg>