<svg xmlns="http://www.w3.org/2000/svg" viewBox="0 0 256 143.0214876033058" clip-path="url(#clip)"><defs><clipPath id="clip" clipPathUnits="objectBoundingBox"><rect x="0" y="0" width="256" height="143.0214876033058"/></clipPath></defs><rect x="0" y="0" width="256" height="143.0214876033058" fill="#f6f6f6"/><path d="M90,-241L213,135L23,94Z" fill="rgb(14, 15, 52)" fill-opacity="0.85"/><path d="M187,28L171,-63L-12,0Z" fill="rgb(242, 242, 241)" fill-opacity="0.98"/><path d="M214,90L241,15L141,82Z" fill="rgb(4, 9, 206)" fill-opacity="0.87"/><path d="M36,6L165,88L127,139Z" fill="rgb(0, 0, 4)" fill-opacity="0.95"/><path d="M85,267L13,60L65,104Z" fill="rgb(191, 191, 191)" fill-opacity="1.00"/><path d="M46,105L35,130L62,128Z" fill="rgb(9, 9, 9)" fill-opacity="0.86"/><path d="M199,114L192,189L146,119Z" fill="rgb(240, 240, 244)" fill-opacity="0.86"/><path d="M206,105L146,120L173,72Z" fill="rgb(4, 6, 220)" fill-opacity="1.00"/><path d="M95,140L101,137L95,132Z" fill="rgb(4, 4, 4)" fill-opacity="0.73"/><path d="M226,14L240,17L238,33Z" fill="rgb(51, 50, 226)" fill-opacity="0.86"/><path d="M28,34L106,124L151,18Z" fill="rgb(0, 0, 0)" fill-opacity="0.88"/><path d="M207,87L189,87L213,110Z" fill="rgb(220, 204, 222)" fill-opacity="0.92"/><path d="M154,29L215,-34L190,30Z" fill="rgb(243, 243, 242)" fill-opacity="0.83"/><path d="M161,86L141,125L43,2Z" fill="rgb(0, 0, 9)" fill-opacity="0.76"/><path d="M151,119L48,94L27,43Z" fill="rgb(0, 0, 0)" fill-opacity="0.94"/><path d="M70,135L71,131L42,118Z" fill="rgb(35, 35, 35)" fill-opacity="0.77"/><path d="M179,28L189,48L173,58Z" fill="rgb(6, 6, 16)" fill-opacity="0.80"/><path d="M172,63L168,44L174,31Z" fill="rgb(213, 213, 245)" fill-opacity="0.81"/><path d="M145,86L235,44L141,62Z" fill="rgb(3, 3, 226)" fill-opacity="0.97"/><path d="M171,122L145,97L150,119Z" fill="rgb(11, 11, 221)" fill-opacity="0.85"/><path d="M169,47L78,108L149,21Z" fill="rgb(0, 0, 1)" fill-opacity="0.95"/><path d="M211,38L191,55L173,2Z" fill="rgb(240, 240, 242)" fill-opacity="0.81"/><path d="M235,198L193,115L166,114Z" fill="rgb(243, 243, 242)" fill-opacity="0.84"/><path d="M277,126L216,71L227,49Z" fill="rgb(243, 243, 240)" fill-opacity="0.78"/><path d="M158,81L218,54L222,85Z" fill="rgb(0, 6, 140)" fill-opacity="0.60"/><path d="M200,110L180,110L209,124Z" fill="rgb(2, 2, 0)" fill-opacity="0.79"/><path d="M93,106L99,115L83,105Z" fill="rgb(212, 212, 210)" fill-opacity="0.90"/><path d="M40,109L57,112L43,138Z" fill="rgb(0, 0, 0)" fill-opacity="0.76"/><path d="M38,135L32,61L-51,28Z" fill="rgb(244, 244, 244)" fill-opacity="1.00"/><path d="M238,44L224,39L221,51Z" fill="rgb(24, 59, 2)" fill-opacity="0.65"/><path d="M40,10L131,139L148,23Z" fill="rgb(0, 0, 0)" fill-opacity="1.00"/><path d="M39,12L71,-5L-13,1Z" fill="rgb(246, 246, 245)" fill-opacity="0.63"/><path d="M42,87L44,8L28,52Z" fill="rgb(1, 1, 0)" fill-opacity="0.74"/><path d="M250,48L200,107L209,123Z" fill="rgb(242, 242, 242)" fill-opacity="0.88"/><path d="M69,103L-25,62L19,116Z" fill="rgb(245, 245, 245)" fill-opacity="0.91"/><path d="M109,119L96,125L102,142Z" fill="rgb(244, 244, 244)" fill-opacity="0.81"/><path d="M191,80L160,82L190,67Z" fill="rgb(0, 49, 19)" fill-opacity="0.75"/><path d="M162,82L159,50L186,61Z" fill="rgb(0, 0, 245)" fill-opacity="0.81"/><path d="M180,64L217,88L211,63Z" fill="rgb(0, 0, 253)" fill-opacity="0.76"/><path d="M7,167L82,166L60,124Z" fill="rgb(255, 255, 255)" fill-opacity="0.64"/><path d="M49,135L29,140L50,131Z" fill="rgb(116, 116, 116)" fill-opacity="0.90"/><path d="M107,21L109,50L143,18Z" fill="rgb(2, 2, 2)" fill-opacity="0.68"/><path d="M96,17L60,10L233,26Z" fill="rgb(229, 229, 230)" fill-opacity="0.95"/><path d="M-60,35L41,13L27,53Z" fill="rgb(244, 244, 244)" fill-opacity="0.84"/><path d="M185,54L192,55L226,-8Z" fill="rgb(241, 241, 241)" fill-opacity="0.85"/><path d="M102,151L57,123L54,93Z" fill="rgb(242, 242, 242)" fill-opacity="0.84"/><path d="M216,57L222,68L211,67Z" fill="rgb(27, 53, 0)" fill-opacity="0.63"/><path d="M164,81L159,110L204,110Z" fill="rgb(0, 0, 250)" fill-opacity="0.70"/><path d="M117,103L72,106L39,10Z" fill="rgb(0, 0, 0)" fill-opacity="0.98"/><path d="M96,131L91,132L82,125Z" fill="rgb(83, 83, 83)" fill-opacity="0.63"/><path d="M135,63L166,24L157,63Z" fill="rgb(1, 1, 4)" fill-opacity="0.87"/><path d="M223,41L231,11L242,25Z" fill="rgb(8, 7, 217)" fill-opacity="0.71"/><path d="M112,120L102,110L109,88Z" fill="rgb(2, 2, 2)" fill-opacity="0.84"/><path d="M234,2L222,39L212,5Z" fill="rgb(243, 239, 240)" fill-opacity="0.60"/><path d="M211,126L192,112L210,140Z" fill="rgb(4, 4, 0)" fill-opacity="0.77"/><path d="M157,101L153,119L145,104Z" fill="rgb(0, 0, 252)" fill-opacity="0.74"/><path d="M144,31L136,65L175,31Z" fill="rgb(0, 0, 0)" fill-opacity="0.96"/><path d="M167,39L176,31L178,35Z" fill="rgb(250, 249, 217)" fill-opacity="0.49"/><path d="M195,62L203,40L223,57Z" fill="rgb(0, 0, 250)" fill-opacity="0.66"/><path d="M223,53L356,4L219,75Z" fill="rgb(244, 244, 244)" fill-opacity="0.94"/><path d="M214,68L189,79L214,92Z" fill="rgb(0, 0, 246)" fill-opacity="0.69"/><path d="M223,51L218,28L208,37Z" fill="rgb(0, 0, 249)" fill-opacity="0.65"/><path d="M154,84L190,62L139,63Z" fill="rgb(0, 0, 244)" fill-opacity="0.80"/><path d="M35,118L55,111L59,129Z" fill="rgb(11, 11, 11)" fill-opacity="0.86"/><path d="M230,183L192,114L129,129Z" fill="rgb(244, 244, 243)" fill-opacity="0.69"/><path d="M41,106L23,22L-209,-82Z" fill="rgb(245, 245, 245)" fill-opacity="0.90"/><path d="M183,108L190,112L186,119Z" fill="rgb(0, 0, 11)" fill-opacity="0.46"/><path d="M43,135L27,176L84,135Z" fill="rgb(247, 247, 247)" fill-opacity="0.85"/><path d="M174,55L171,32L167,53Z" fill="rgb(255, 255, 243)" fill-opacity="0.53"/><path d="M68,126L87,104L100,114Z" fill="rgb(242, 242, 242)" fill-opacity="0.66"/><path d="M35,139L33,140L16,139Z" fill="rgb(72, 72, 72)" fill-opacity="0.52"/><path d="M235,-32L237,22L296,10Z" fill="rgb(245, 245, 244)" fill-opacity="0.90"/><path d="M32,36L70,107L54,7Z" fill="rgb(1, 1, 0)" fill-opacity="0.93"/><path d="M39,119L39,113L58,109Z" fill="rgb(7, 7, 7)" fill-opacity="0.53"/><path d="M169,83L162,83L195,74Z" fill="rgb(0, 39, 46)" fill-opacity="0.91"/><path d="M218,126L238,206L196,152Z" fill="rgb(239, 239, 239)" fill-opacity="0.89"/><path d="M59,-74L256,12L145,22Z" fill="rgb(247, 247, 247)" fill-opacity="0.72"/><path d="M118,124L113,117L108,179Z" fill="rgb(237, 237, 237)" fill-opacity="0.83"/><path d="M199,62L218,58L218,65Z" fill="rgb(0, 13, 0)" fill-opacity="0.39"/><path d="M162,103L37,82L30,56Z" fill="rgb(1, 1, 2)" fill-opacity="0.98"/><path d="M215,71L193,88L166,88Z" fill="rgb(0, 0, 243)" fill-opacity="0.71"/><path d="M152,81L98,112L105,121Z" fill="rgb(0, 0, 3)" fill-opacity="0.83"/><path d="M211,126L200,151L211,132Z" fill="rgb(0, 0, 0)" fill-opacity="0.27"/><path d="M229,39L237,30L271,34Z" fill="rgb(241, 241, 240)" fill-opacity="0.83"/><path d="M32,38L44,10L32,61Z" fill="rgb(5, 5, 4)" fill-opacity="0.84"/><path d="M22,122L44,120L-3,143Z" fill="rgb(238, 238, 238)" fill-opacity="0.68"/><path d="M56,48L162,24L130,19Z" fill="rgb(2, 2, 2)" fill-opacity="0.72"/><path d="M143,18L114,58L108,25Z" fill="rgb(1, 1, 1)" fill-opacity="0.78"/><path d="M31,28L11,-11L29,62Z" fill="rgb(247, 247, 247)" fill-opacity="0.53"/><path d="M188,42L172,43L185,56Z" fill="rgb(0, 0, 0)" fill-opacity="0.66"/><path d="M40,13L38,-31L15,83Z" fill="rgb(245, 245, 245)" fill-opacity="1.00"/><path d="M195,80L169,81L169,73Z" fill="rgb(1, 43, 31)" fill-opacity="0.53"/><path d="M92,18L29,56L48,7Z" fill="rgb(1, 1, 1)" fill-opacity="0.93"/><path d="M83,107L168,39L59,98Z" fill="rgb(0, 0, 0)" fill-opacity="1.00"/><path d="M-19,-9L84,15L253,14Z" fill="rgb(246, 246, 246)" fill-opacity="0.81"/><path d="M194,75L181,66L176,81Z" fill="rgb(0, 47, 39)" fill-opacity="0.72"/><path d="M125,137L121,133L149,111Z" fill="rgb(3, 3, 2)" fill-opacity="0.64"/><path d="M182,113L161,161L176,114Z" fill="rgb(243, 243, 242)" fill-opacity="0.75"/><path d="M215,39L223,58L175,64Z" fill="rgb(1, 1, 237)" fill-opacity="0.95"/><path d="M202,10L154,28L152,31Z" fill="rgb(234, 234, 234)" fill-opacity="0.95"/></svg>