<svg xmlns="http://www.w3.org/2000/svg" viewBox="0 0 256 143.0214876033058" clip-path="url(#clip)"><defs><clipPath id="clip" clipPathUnits="objectBoundingBox"><rect x="0" y="0" width="256" height="143.0214876033058"/></clipPath></defs><rect x="0" y="0" width="256" height="143.0214876033058" fill="#f6f6f6"/><path d="M-83,1L161,159L242,29Z" fill="rgb(41, 50, 78)" fill-opacity="0.92"/><path d="M58,106L30,121L51,138Z" fill="rgb(34, 34, 34)" fill-opacity="0.84"/><path d="M147,117L285,107L85,182Z" fill="rgb(216, 216, 221)" fill-opacity="1.00"/><path d="M10,120L-21,-34L42,8Z" fill="rgb(243, 243, 242)" fill-opacity="1.00"/><path d="M238,15L193,53L156,21Z" fill="rgb(218, 218, 250)" fill-opacity="0.87"/><path d="M192,124L221,78L201,38Z" fill="rgb(18, 53, 160)" fill-opacity="0.88"/><path d="M187,78L242,26L233,13Z" fill="rgb(16, 29, 211)" fill-opacity="0.91"/><path d="M187,39L39,5L48,103Z" fill="rgb(0, 0, 0)" fill-opacity="0.89"/><path d="M148,121L188,108L141,54Z" fill="rgb(0, 1, 231)" fill-opacity="0.89"/><path d="M44,106L72,135L36,119Z" fill="rgb(3, 3, 3)" fill-opacity="0.68"/><path d="M214,145L184,44L182,103Z" fill="rgb(42, 116, 38)" fill-opacity="1.00"/><path d="M143,90L189,46L175,26Z" fill="rgb(39, 47, 219)" fill-opacity="0.88"/><path d="M142,125L56,99L144,34Z" fill="rgb(0, 0, 0)" fill-opacity="0.91"/><path d="M29,52L37,86L-65,-9Z" fill="rgb(243, 243, 243)" fill-opacity="0.98"/><path d="M199,106L214,133L200,131Z" fill="rgb(11, 0, 11)" fill-opacity="0.81"/><path d="M59,95L44,95L67,130Z" fill="rgb(242, 242, 242)" fill-opacity="0.90"/><path d="M76,108L32,30L35,81Z" fill="rgb(2, 2, 0)" fill-opacity="0.87"/><path d="M214,91L184,118L197,85Z" fill="rgb(51, 174, 0)" fill-opacity="0.75"/><path d="M49,-12L46,11L21,-2Z" fill="rgb(237, 237, 237)" fill-opacity="0.97"/><path d="M169,54L200,55L175,93Z" fill="rgb(41, 170, 2)" fill-opacity="0.89"/><path d="M89,105L126,133L57,114Z" fill="rgb(238, 237, 235)" fill-opacity="0.78"/><path d="M220,85L215,26L188,87Z" fill="rgb(0, 0, 230)" fill-opacity="0.71"/><path d="M160,124L186,100L139,61Z" fill="rgb(3, 10, 222)" fill-opacity="0.85"/><path d="M265,97L230,37L247,20Z" fill="rgb(242, 242, 242)" fill-opacity="0.97"/><path d="M123,135L74,13L151,115Z" fill="rgb(0, 0, 0)" fill-opacity="0.90"/><path d="M107,122L96,16L99,118Z" fill="rgb(1, 1, 1)" fill-opacity="0.94"/><path d="M116,120L128,148L106,117Z" fill="rgb(235, 235, 233)" fill-opacity="0.87"/><path d="M188,55L176,6L240,7Z" fill="rgb(253, 253, 247)" fill-opacity="0.65"/><path d="M76,19L142,19L170,53Z" fill="rgb(0, 0, 0)" fill-opacity="0.90"/><path d="M196,82L159,93L178,63Z" fill="rgb(39, 159, 5)" fill-opacity="0.88"/><path d="M38,112L35,153L11,142Z" fill="rgb(233, 233, 233)" fill-opacity="0.91"/><path d="M96,141L90,127L100,137Z" fill="rgb(66, 66, 66)" fill-opacity="0.77"/><path d="M166,36L175,33L172,63Z" fill="rgb(247, 254, 187)" fill-opacity="0.58"/><path d="M220,41L221,25L229,45Z" fill="rgb(53, 164, 1)" fill-opacity="0.63"/><path d="M43,133L27,142L51,133Z" fill="rgb(63, 63, 63)" fill-opacity="0.50"/><path d="M172,-25L189,6L155,34Z" fill="rgb(242, 241, 241)" fill-opacity="0.69"/><path d="M157,63L151,22L28,56Z" fill="rgb(0, 0, 0)" fill-opacity="1.00"/><path d="M194,113L107,147L207,147Z" fill="rgb(255, 255, 253)" fill-opacity="0.67"/><path d="M93,105L56,125L90,135Z" fill="rgb(236, 236, 236)" fill-opacity="0.99"/><path d="M196,59L201,42L235,45Z" fill="rgb(3, 3, 238)" fill-opacity="0.77"/><path d="M190,50L180,29L157,30Z" fill="rgb(29, 23, 225)" fill-opacity="0.50"/><path d="M199,106L280,239L254,45Z" fill="rgb(247, 247, 246)" fill-opacity="0.74"/><path d="M213,32L221,29L191,73Z" fill="rgb(11, 12, 232)" fill-opacity="0.91"/><path d="M47,108L60,127L38,132Z" fill="rgb(0, 0, 0)" fill-opacity="0.70"/><path d="M219,72L222,56L207,62Z" fill="rgb(51, 119, 32)" fill-opacity="0.79"/><path d="M143,63L149,120L172,64Z" fill="rgb(0, 0, 246)" fill-opacity="0.86"/><path d="M40,18L28,51L162,32Z" fill="rgb(0, 0, 0)" fill-opacity="0.86"/><path d="M224,32L199,-8L229,21Z" fill="rgb(239, 243, 232)" fill-opacity="0.76"/><path d="M185,112L174,87L183,94Z" fill="rgb(0, 0, 255)" fill-opacity="0.55"/><path d="M192,113L208,137L201,104Z" fill="rgb(5, 7, 0)" fill-opacity="0.69"/><path d="M140,54L131,140L96,95Z" fill="rgb(0, 0, 0)" fill-opacity="0.92"/><path d="M101,137L90,128L72,121Z" fill="rgb(140, 140, 140)" fill-opacity="0.73"/><path d="M169,28L218,31L90,-66Z" fill="rgb(246, 246, 245)" fill-opacity="0.94"/><path d="M130,132L139,123L201,118Z" fill="rgb(250, 249, 246)" fill-opacity="0.69"/><path d="M234,134L146,180L190,139Z" fill="rgb(242, 242, 242)" fill-opacity="1.00"/><path d="M200,110L174,110L186,116Z" fill="rgb(9, 10, 9)" fill-opacity="0.90"/><path d="M53,129L19,162L101,173Z" fill="rgb(244, 244, 244)" fill-opacity="1.00"/><path d="M178,87L199,114L208,87Z" fill="rgb(39, 178, 0)" fill-opacity="0.59"/><path d="M302,12L221,72L222,53Z" fill="rgb(243, 244, 243)" fill-opacity="0.80"/><path d="M149,118L132,129L309,191Z" fill="rgb(245, 245, 245)" fill-opacity="0.91"/><path d="M73,132L68,136L59,127Z" fill="rgb(10, 10, 10)" fill-opacity="0.44"/><path d="M171,55L159,52L169,80Z" fill="rgb(0, 0, 255)" fill-opacity="0.58"/><path d="M108,33L171,36L165,53Z" fill="rgb(2, 1, 2)" fill-opacity="0.72"/><path d="M54,102L32,73L41,111Z" fill="rgb(236, 236, 236)" fill-opacity="0.61"/><path d="M177,32L167,55L172,33Z" fill="rgb(250, 247, 222)" fill-opacity="0.57"/><path d="M174,55L188,52L173,37Z" fill="rgb(9, 6, 249)" fill-opacity="0.78"/><path d="M169,55L175,52L169,33Z" fill="rgb(255, 253, 248)" fill-opacity="0.60"/><path d="M42,121L38,120L-35,158Z" fill="rgb(235, 235, 235)" fill-opacity="0.98"/><path d="M50,5L38,86L30,52Z" fill="rgb(1, 1, 0)" fill-opacity="0.77"/><path d="M237,43L232,46L222,40Z" fill="rgb(51, 127, 31)" fill-opacity="0.79"/><path d="M185,51L189,48L194,56Z" fill="rgb(226, 255, 213)" fill-opacity="0.50"/><path d="M181,90L186,109L148,92Z" fill="rgb(0, 0, 239)" fill-opacity="0.86"/><path d="M167,118L142,118L170,122Z" fill="rgb(10, 8, 88)" fill-opacity="0.42"/><path d="M214,92L190,71L212,63Z" fill="rgb(0, 0, 241)" fill-opacity="0.79"/><path d="M97,113L52,99L125,153Z" fill="rgb(246, 246, 246)" fill-opacity="0.77"/><path d="M143,85L98,117L148,119Z" fill="rgb(0, 0, 2)" fill-opacity="0.96"/><path d="M168,80L156,58L170,55Z" fill="rgb(0, 0, 250)" fill-opacity="0.81"/><path d="M237,15L229,14L229,41Z" fill="rgb(0, 0, 246)" fill-opacity="0.67"/><path d="M177,168L198,120L168,114Z" fill="rgb(244, 244, 244)" fill-opacity="1.00"/><path d="M168,35L175,31L158,30Z" fill="rgb(0, 0, 250)" fill-opacity="0.60"/><path d="M197,126L212,137L199,107Z" fill="rgb(1, 0, 2)" fill-opacity="0.64"/><path d="M58,118L41,109L42,136Z" fill="rgb(0, 0, 0)" fill-opacity="0.61"/><path d="M181,89L187,111L211,90Z" fill="rgb(43, 170, 1)" fill-opacity="0.89"/><path d="M151,25L142,0L169,18Z" fill="rgb(244, 243, 242)" fill-opacity="0.55"/><path d="M222,66L171,96L205,82Z" fill="rgb(5, 0, 240)" fill-opacity="0.39"/><path d="M27,141L19,137L19,139Z" fill="rgb(65, 65, 65)" fill-opacity="0.34"/><path d="M124,136L91,133L112,117Z" fill="rgb(241, 241, 241)" fill-opacity="0.83"/><path d="M161,56L130,66L139,28Z" fill="rgb(0, 0, 1)" fill-opacity="0.92"/><path d="M187,41L188,49L172,55Z" fill="rgb(9, 8, 239)" fill-opacity="0.88"/><path d="M52,-34L-465,347L23,70Z" fill="rgb(245, 245, 245)" fill-opacity="0.95"/><path d="M134,139L124,137L119,123Z" fill="rgb(19, 18, 15)" fill-opacity="0.56"/><path d="M229,25L217,33L223,36Z" fill="rgb(17, 131, 0)" fill-opacity="0.42"/><path d="M209,68L191,80L189,79Z" fill="rgb(2, 5, 199)" fill-opacity="1.00"/><path d="M75,107L145,71L31,36Z" fill="rgb(0, 0, 0)" fill-opacity="0.78"/><path d="M211,90L391,171L202,112Z" fill="rgb(245, 245, 245)" fill-opacity="0.90"/><path d="M33,138L41,138L43,135Z" fill="rgb(0, 0, 0)" fill-opacity="0.43"/><path d="M203,46L185,55L192,40Z" fill="rgb(245, 245, 241)" fill-opacity="0.65"/><path d="M62,99L85,123L-3,87Z" fill="rgb(244, 244, 244)" fill-opacity="0.93"/><path d="M98,118L59,127L54,106Z" fill="rgb(245, 245, 245)" fill-opacity="0.89"/><path d="M37,82L41,83L21,90Z" fill="rgb(225, 225, 225)" fill-opacity="0.76"/></svg>