<svg xmlns="http://www.w3.org/2000/svg" viewBox="0 0 256 143.0214876033058" clip-path="url(#clip)"><defs><clipPath id="clip" clipPathUnits="objectBoundingBox"><rect x="0" y="0" width="256" height="143.0214876033058"/></clipPath></defs><rect x="0" y="0" width="256" height="143.0214876033058" fill="#f6f6f6"/><path d="M113,-183L229,187L19,75Z" fill="rgb(31, 44, 49)" fill-opacity="0.85"/><path d="M38,149L39,108L62,112Z" fill="rgb(3, 3, 3)" fill-opacity="0.73"/><path d="M113,121L211,97L241,11Z" fill="rgb(22, 97, 69)" fill-opacity="0.90"/><path d="M37,7L161,-288L183,27Z" fill="rgb(241, 241, 241)" fill-opacity="0.99"/><path d="M193,113L313,353L129,127Z" fill="rgb(242, 242, 241)" fill-opacity="0.96"/><path d="M37,99L5,83L28,39Z" fill="rgb(243, 243, 243)" fill-opacity="1.00"/><path d="M158,24L36,9L130,142Z" fill="rgb(0, 0, 2)" fill-opacity="0.97"/><path d="M46,93L39,16L143,123Z" fill="rgb(0, 0, 0)" fill-opacity="0.97"/><path d="M140,64L149,108L184,53Z" fill="rgb(0, 4, 224)" fill-opacity="0.98"/><path d="M190,80L222,74L197,60Z" fill="rgb(3, 0, 236)" fill-opacity="0.87"/><path d="M106,118L152,214L115,118Z" fill="rgb(240, 240, 240)" fill-opacity="0.91"/><path d="M169,94L181,117L183,88Z" fill="rgb(7, 9, 230)" fill-opacity="0.90"/><path d="M211,89L203,102L191,87Z" fill="rgb(5, 8, 228)" fill-opacity="1.00"/><path d="M239,160L202,144L221,124Z" fill="rgb(242, 242, 242)" fill-opacity="0.97"/><path d="M47,110L73,136L35,119Z" fill="rgb(1, 1, 1)" fill-opacity="0.67"/><path d="M205,104L174,73L189,112Z" fill="rgb(46, 177, 0)" fill-opacity="0.87"/><path d="M64,107L165,28L167,50Z" fill="rgb(0, 2, 2)" fill-opacity="0.91"/><path d="M185,31L194,79L154,21Z" fill="rgb(106, 214, 63)" fill-opacity="0.61"/><path d="M148,100L179,116L148,123Z" fill="rgb(95, 252, 14)" fill-opacity="0.51"/><path d="M182,57L156,51L178,75Z" fill="rgb(2, 3, 237)" fill-opacity="0.87"/><path d="M198,127L198,101L212,138Z" fill="rgb(0, 8, 0)" fill-opacity="0.81"/><path d="M157,31L140,-58L192,27Z" fill="rgb(245, 244, 245)" fill-opacity="0.70"/><path d="M228,11L229,51L241,24Z" fill="rgb(59, 159, 23)" fill-opacity="0.68"/><path d="M219,85L158,88L220,75Z" fill="rgb(43, 159, 8)" fill-opacity="1.00"/><path d="M106,126L54,113L92,105Z" fill="rgb(239, 239, 239)" fill-opacity="0.96"/><path d="M160,109L55,95L70,105Z" fill="rgb(7, 11, 6)" fill-opacity="0.88"/><path d="M174,53L168,55L171,23Z" fill="rgb(252, 249, 254)" fill-opacity="0.70"/><path d="M221,65L224,23L184,60Z" fill="rgb(58, 186, 0)" fill-opacity="0.64"/><path d="M29,55L49,96L39,21Z" fill="rgb(0, 0, 0)" fill-opacity="0.88"/><path d="M41,13L27,-17L-14,45Z" fill="rgb(245, 245, 245)" fill-opacity="0.94"/><path d="M100,133L99,142L83,125Z" fill="rgb(86, 86, 86)" fill-opacity="0.55"/><path d="M27,122L-20,183L54,140Z" fill="rgb(232, 232, 232)" fill-opacity="0.77"/><path d="M152,117L202,154L138,124Z" fill="rgb(243, 244, 242)" fill-opacity="0.85"/><path d="M162,27L151,69L174,32Z" fill="rgb(0, 16, 0)" fill-opacity="0.45"/><path d="M218,74L224,51L301,98Z" fill="rgb(242, 242, 242)" fill-opacity="0.92"/><path d="M196,51L158,97L189,83Z" fill="rgb(41, 167, 1)" fill-opacity="0.92"/><path d="M81,15L-21,-14L122,19Z" fill="rgb(238, 238, 238)" fill-opacity="0.87"/><path d="M60,125L45,90L97,148Z" fill="rgb(240, 240, 240)" fill-opacity="0.81"/><path d="M35,129L59,128L45,107Z" fill="rgb(0, 0, 0)" fill-opacity="0.71"/><path d="M125,26L150,116L122,136Z" fill="rgb(0, 1, 0)" fill-opacity="0.86"/><path d="M156,65L142,18L50,28Z" fill="rgb(0, 0, 0)" fill-opacity="0.75"/><path d="M205,117L275,125L200,102Z" fill="rgb(243, 244, 242)" fill-opacity="0.86"/><path d="M231,39L245,62L236,30Z" fill="rgb(236, 234, 236)" fill-opacity="0.89"/><path d="M115,144L218,145L179,112Z" fill="rgb(243, 243, 243)" fill-opacity="0.80"/><path d="M132,129L126,271L197,118Z" fill="rgb(245, 245, 245)" fill-opacity="0.95"/><path d="M171,89L171,114L186,103Z" fill="rgb(0, 0, 245)" fill-opacity="0.96"/><path d="M48,90L22,157L30,76Z" fill="rgb(241, 241, 240)" fill-opacity="0.74"/><path d="M208,43L156,20L210,38Z" fill="rgb(239, 238, 239)" fill-opacity="0.81"/><path d="M227,28L231,3L195,35Z" fill="rgb(241, 240, 242)" fill-opacity="0.91"/><path d="M235,8L338,-41L237,21Z" fill="rgb(243, 244, 243)" fill-opacity="1.00"/><path d="M209,60L217,76L189,71Z" fill="rgb(0, 0, 228)" fill-opacity="0.83"/><path d="M210,92L202,109L223,85Z" fill="rgb(236, 236, 238)" fill-opacity="0.99"/><path d="M36,146L56,115L54,108Z" fill="rgb(0, 0, 0)" fill-opacity="0.49"/><path d="M68,12L45,6L127,86Z" fill="rgb(3, 3, 3)" fill-opacity="0.98"/><path d="M182,68L176,27L188,45Z" fill="rgb(25, 160, 0)" fill-opacity="0.55"/><path d="M87,94L103,121L144,100Z" fill="rgb(1, 1, 1)" fill-opacity="1.00"/><path d="M207,-31L151,32L171,20Z" fill="rgb(234, 234, 234)" fill-opacity="0.93"/><path d="M142,98L158,102L163,49Z" fill="rgb(0, 0, 245)" fill-opacity="0.76"/><path d="M168,121L172,75L147,119Z" fill="rgb(47, 163, 8)" fill-opacity="0.93"/><path d="M206,117L170,113L187,108Z" fill="rgb(0, 6, 8)" fill-opacity="0.67"/><path d="M43,136L26,142L43,134Z" fill="rgb(53, 53, 53)" fill-opacity="0.46"/><path d="M185,117L185,112L202,109Z" fill="rgb(9, 14, 4)" fill-opacity="0.76"/><path d="M142,72L168,51L178,74Z" fill="rgb(1, 1, 237)" fill-opacity="0.98"/><path d="M-15,127L14,46L37,78Z" fill="rgb(245, 245, 245)" fill-opacity="0.79"/><path d="M235,45L213,30L203,57Z" fill="rgb(43, 160, 4)" fill-opacity="0.85"/><path d="M183,111L186,106L170,91Z" fill="rgb(0, 1, 244)" fill-opacity="0.72"/><path d="M64,157L35,143L62,123Z" fill="rgb(248, 248, 248)" fill-opacity="0.46"/><path d="M196,121L166,113L168,120Z" fill="rgb(251, 238, 255)" fill-opacity="0.47"/><path d="M35,77L51,94L32,29Z" fill="rgb(4, 3, 3)" fill-opacity="0.84"/><path d="M172,33L177,33L168,48Z" fill="rgb(252, 237, 255)" fill-opacity="0.68"/><path d="M58,126L107,125L55,96Z" fill="rgb(241, 241, 241)" fill-opacity="1.00"/><path d="M133,139L122,115L123,136Z" fill="rgb(12, 12, 12)" fill-opacity="0.83"/><path d="M242,27L233,12L225,29Z" fill="rgb(45, 165, 3)" fill-opacity="0.69"/><path d="M-26,93L24,55L37,24Z" fill="rgb(245, 245, 245)" fill-opacity="1.00"/><path d="M223,77L213,90L186,80Z" fill="rgb(47, 160, 7)" fill-opacity="0.80"/><path d="M182,70L181,63L136,63Z" fill="rgb(0, 0, 239)" fill-opacity="0.89"/><path d="M232,43L225,39L226,25Z" fill="rgb(3, 2, 211)" fill-opacity="0.65"/><path d="M9,124L42,122L40,120Z" fill="rgb(228, 228, 228)" fill-opacity="0.94"/><path d="M189,48L174,38L174,55Z" fill="rgb(45, 173, 3)" fill-opacity="0.95"/><path d="M179,77L204,106L187,111Z" fill="rgb(47, 176, 1)" fill-opacity="0.81"/><path d="M185,43L170,-19L199,0Z" fill="rgb(243, 244, 243)" fill-opacity="1.00"/><path d="M143,104L169,99L164,122Z" fill="rgb(41, 162, 0)" fill-opacity="0.79"/><path d="M81,27L163,25L147,21Z" fill="rgb(9, 9, 9)" fill-opacity="0.81"/><path d="M34,139L17,243L97,131Z" fill="rgb(243, 243, 243)" fill-opacity="1.00"/><path d="M178,72L164,81L162,118Z" fill="rgb(40, 162, 0)" fill-opacity="0.59"/><path d="M154,33L163,29L186,32Z" fill="rgb(41, 177, 0)" fill-opacity="0.46"/><path d="M280,85L219,61L222,85Z" fill="rgb(245, 245, 245)" fill-opacity="0.58"/><path d="M124,97L52,95L43,93Z" fill="rgb(9, 9, 9)" fill-opacity="0.84"/><path d="M40,137L56,111L55,127Z" fill="rgb(8, 8, 8)" fill-opacity="0.56"/><path d="M118,144L198,121L191,114Z" fill="rgb(243, 243, 243)" fill-opacity="1.00"/><path d="M54,109L36,128L59,128Z" fill="rgb(0, 0, 0)" fill-opacity="0.71"/><path d="M123,135L104,207L118,125Z" fill="rgb(240, 240, 240)" fill-opacity="0.99"/><path d="M197,62L185,52L177,90Z" fill="rgb(43, 165, 3)" fill-opacity="0.82"/><path d="M185,54L197,51L238,-14Z" fill="rgb(240, 241, 240)" fill-opacity="0.85"/><path d="M199,43L232,39L214,67Z" fill="rgb(41, 154, 2)" fill-opacity="0.74"/><path d="M219,73L216,65L216,73Z" fill="rgb(194, 167, 177)" fill-opacity="0.54"/><path d="M194,18L186,-10L149,24Z" fill="rgb(250, 249, 250)" fill-opacity="0.46"/><path d="M21,62L-8,58L33,40Z" fill="rgb(244, 244, 244)" fill-opacity="0.79"/><path d="M157,63L125,63L159,30Z" fill="rgb(0, 0, 1)" fill-opacity="0.76"/><path d="M241,25L230,36L229,15Z" fill="rgb(44, 163, 3)" fill-opacity="1.00"/></svg>