<svg xmlns="http://www.w3.org/2000/svg" viewBox="0 0 256 143.0214876033058" clip-path="url(#clip)"><defs><clipPath id="clip" clipPathUnits="objectBoundingBox"><rect x="0" y="0" width="256" height="143.0214876033058"/></clipPath></defs><rect x="0" y="0" width="256" height="143.0214876033058" fill="#f6f6f6"/><path d="M219,135L73,-129L21,93Z" fill="rgb(17, 20, 53)" fill-opacity="0.88"/><path d="M242,18L122,77L192,132Z" fill="rgb(29, 55, 167)" fill-opacity="0.93"/><path d="M33,137L13,36L72,135Z" fill="rgb(189, 189, 189)" fill-opacity="1.00"/><path d="M62,116L40,139L41,107Z" fill="rgb(23, 23, 23)" fill-opacity="0.91"/><path d="M132,141L24,47L155,19Z" fill="rgb(0, 0, 0)" fill-opacity="0.90"/><path d="M224,74L157,86L214,89Z" fill="rgb(42, 149, 24)" fill-opacity="0.94"/><path d="M171,25L137,-18L9,4Z" fill="rgb(238, 238, 238)" fill-opacity="1.00"/><path d="M190,41L131,138L164,23Z" fill="rgb(0, 0, 194)" fill-opacity="0.64"/><path d="M178,112L83,166L202,128Z" fill="rgb(242, 242, 241)" fill-opacity="0.95"/><path d="M55,115L115,118L185,262Z" fill="rgb(230, 230, 230)" fill-opacity="0.95"/><path d="M160,92L188,87L202,37Z" fill="rgb(65, 193, 0)" fill-opacity="0.70"/><path d="M-75,-24L39,145L30,47Z" fill="rgb(245, 245, 245)" fill-opacity="0.91"/><path d="M212,34L190,56L172,-16Z" fill="rgb(243, 243, 244)" fill-opacity="0.93"/><path d="M8,78L23,119L64,100Z" fill="rgb(243, 243, 243)" fill-opacity="0.98"/><path d="M70,108L167,29L168,50Z" fill="rgb(0, 0, 7)" fill-opacity="0.92"/><path d="M147,122L137,17L98,119Z" fill="rgb(0, 0, 0)" fill-opacity="0.79"/><path d="M244,138L224,149L196,102Z" fill="rgb(236, 235, 242)" fill-opacity="0.82"/><path d="M238,13L228,43L228,16Z" fill="rgb(9, 11, 229)" fill-opacity="0.88"/><path d="M150,122L143,82L206,105Z" fill="rgb(3, 1, 244)" fill-opacity="0.83"/><path d="M28,50L45,6L156,33Z" fill="rgb(0, 0, 0)" fill-opacity="0.90"/><path d="M223,30L206,81L195,51Z" fill="rgb(0, 0, 231)" fill-opacity="0.79"/><path d="M179,55L188,82L198,53Z" fill="rgb(40, 163, 0)" fill-opacity="0.83"/><path d="M88,126L100,137L96,140Z" fill="rgb(4, 4, 4)" fill-opacity="0.52"/><path d="M192,113L121,156L204,137Z" fill="rgb(243, 243, 243)" fill-opacity="1.00"/><path d="M147,95L184,66L141,62Z" fill="rgb(0, 0, 239)" fill-opacity="0.90"/><path d="M41,10L35,80L83,109Z" fill="rgb(0, 0, 0)" fill-opacity="0.96"/><path d="M174,137L100,154L153,114Z" fill="rgb(248, 248, 246)" fill-opacity="0.39"/><path d="M34,128L59,129L54,108Z" fill="rgb(2, 2, 2)" fill-opacity="0.78"/><path d="M175,30L171,60L168,43Z" fill="rgb(220, 220, 229)" fill-opacity="0.83"/><path d="M185,35L173,26L176,77Z" fill="rgb(1, 0, 239)" fill-opacity="0.58"/><path d="M219,69L209,65L244,19Z" fill="rgb(101, 159, 59)" fill-opacity="0.60"/><path d="M207,120L201,109L170,111Z" fill="rgb(10, 5, 0)" fill-opacity="0.69"/><path d="M207,86L143,95L201,110Z" fill="rgb(0, 0, 239)" fill-opacity="0.93"/><path d="M206,138L212,135L192,107Z" fill="rgb(1, 0, 0)" fill-opacity="0.72"/><path d="M55,9L178,22L96,17Z" fill="rgb(221, 221, 221)" fill-opacity="1.00"/><path d="M122,136L129,94L132,138Z" fill="rgb(0, 0, 0)" fill-opacity="0.78"/><path d="M47,26L72,107L144,18Z" fill="rgb(0, 0, 0)" fill-opacity="0.80"/><path d="M220,31L224,53L226,27Z" fill="rgb(37, 148, 0)" fill-opacity="0.65"/><path d="M224,39L232,14L242,25Z" fill="rgb(9, 8, 229)" fill-opacity="0.93"/><path d="M283,29L231,39L233,32Z" fill="rgb(244, 243, 246)" fill-opacity="0.89"/><path d="M247,25L222,65L218,62Z" fill="rgb(207, 216, 205)" fill-opacity="0.86"/><path d="M144,82L141,123L129,129Z" fill="rgb(2, 2, 2)" fill-opacity="0.98"/><path d="M72,110L91,104L129,162Z" fill="rgb(244, 244, 244)" fill-opacity="0.76"/><path d="M36,73L29,54L49,21Z" fill="rgb(2, 2, 1)" fill-opacity="0.83"/><path d="M166,18L152,30L176,29Z" fill="rgb(216, 216, 222)" fill-opacity="0.85"/><path d="M10,-3L47,11L44,-6Z" fill="rgb(241, 241, 241)" fill-opacity="0.81"/><path d="M94,16L156,64L163,33Z" fill="rgb(0, 0, 1)" fill-opacity="0.91"/><path d="M201,50L191,79L219,75Z" fill="rgb(2, 5, 219)" fill-opacity="1.00"/><path d="M220,71L246,62L225,110Z" fill="rgb(245, 245, 245)" fill-opacity="1.00"/><path d="M31,37L86,110L50,8Z" fill="rgb(1, 1, 0)" fill-opacity="0.77"/><path d="M194,64L163,80L182,91Z" fill="rgb(34, 155, 0)" fill-opacity="0.69"/><path d="M198,120L184,172L167,113Z" fill="rgb(244, 244, 244)" fill-opacity="0.79"/><path d="M202,109L204,96L236,182Z" fill="rgb(243, 242, 243)" fill-opacity="0.71"/><path d="M51,129L76,327L60,128Z" fill="rgb(242, 242, 242)" fill-opacity="1.00"/><path d="M81,17L150,112L99,118Z" fill="rgb(0, 0, 0)" fill-opacity="0.76"/><path d="M225,74L192,110L211,94Z" fill="rgb(2, 19, 137)" fill-opacity="0.34"/><path d="M221,46L237,46L228,39Z" fill="rgb(39, 128, 16)" fill-opacity="0.85"/><path d="M222,82L218,86L208,49Z" fill="rgb(10, 37, 19)" fill-opacity="0.33"/><path d="M64,154L116,120L111,117Z" fill="rgb(237, 237, 237)" fill-opacity="0.86"/><path d="M127,178L53,92L57,121Z" fill="rgb(243, 243, 243)" fill-opacity="0.79"/><path d="M101,119L107,123L99,67Z" fill="rgb(4, 4, 4)" fill-opacity="0.75"/><path d="M264,32L238,22L230,-2Z" fill="rgb(241, 241, 243)" fill-opacity="1.00"/><path d="M73,106L137,104L43,88Z" fill="rgb(5, 5, 4)" fill-opacity="0.83"/><path d="M71,136L71,131L54,125Z" fill="rgb(4, 4, 4)" fill-opacity="0.60"/><path d="M181,60L160,51L153,96Z" fill="rgb(0, 0, 240)" fill-opacity="0.94"/><path d="M25,146L43,134L42,130Z" fill="rgb(182, 182, 182)" fill-opacity="1.00"/><path d="M149,118L146,93L170,122Z" fill="rgb(3, 3, 235)" fill-opacity="0.72"/><path d="M167,49L174,57L172,34Z" fill="rgb(255, 255, 233)" fill-opacity="0.57"/><path d="M39,110L38,129L50,135Z" fill="rgb(7, 7, 7)" fill-opacity="0.55"/><path d="M210,39L198,11L186,55Z" fill="rgb(239, 239, 243)" fill-opacity="0.94"/><path d="M194,123L211,137L211,126Z" fill="rgb(0, 0, 0)" fill-opacity="0.61"/><path d="M149,144L222,174L192,113Z" fill="rgb(244, 244, 244)" fill-opacity="0.86"/><path d="M147,118L130,131L176,125Z" fill="rgb(242, 242, 237)" fill-opacity="0.67"/><path d="M93,109L47,101L77,140Z" fill="rgb(243, 243, 243)" fill-opacity="0.82"/><path d="M219,58L217,28L196,62Z" fill="rgb(0, 0, 250)" fill-opacity="0.64"/><path d="M206,62L222,55L220,67Z" fill="rgb(25, 110, 1)" fill-opacity="0.64"/><path d="M213,164L294,96L211,123Z" fill="rgb(246, 246, 245)" fill-opacity="0.91"/><path d="M113,119L134,153L91,126Z" fill="rgb(249, 249, 249)" fill-opacity="0.73"/><path d="M164,26L172,35L159,33Z" fill="rgb(0, 0, 214)" fill-opacity="0.69"/><path d="M36,120L48,89L-27,44Z" fill="rgb(247, 247, 247)" fill-opacity="0.62"/><path d="M153,65L132,24L149,20Z" fill="rgb(0, 0, 0)" fill-opacity="0.55"/><path d="M201,198L205,132L213,151Z" fill="rgb(213, 213, 213)" fill-opacity="1.00"/><path d="M35,118L51,110L58,128Z" fill="rgb(0, 0, 0)" fill-opacity="0.73"/><path d="M220,36L229,19L229,8Z" fill="rgb(231, 254, 190)" fill-opacity="0.49"/><path d="M129,147L159,181L134,125Z" fill="rgb(244, 244, 238)" fill-opacity="0.56"/><path d="M197,118L168,115L195,272Z" fill="rgb(246, 246, 245)" fill-opacity="0.92"/><path d="M189,34L165,38L176,32Z" fill="rgb(255, 255, 111)" fill-opacity="0.32"/><path d="M173,42L180,28L178,76Z" fill="rgb(5, 6, 229)" fill-opacity="0.91"/><path d="M220,75L216,65L217,74Z" fill="rgb(124, 124, 159)" fill-opacity="0.80"/><path d="M195,82L208,77L215,92Z" fill="rgb(47, 183, 0)" fill-opacity="0.68"/><path d="M159,44L167,53L171,32Z" fill="rgb(11, 11, 0)" fill-opacity="0.43"/><path d="M215,67L211,67L229,39Z" fill="rgb(15, 96, 3)" fill-opacity="0.57"/><path d="M191,72L193,66L219,75Z" fill="rgb(0, 1, 241)" fill-opacity="0.91"/><path d="M223,48L218,30L198,58Z" fill="rgb(0, 1, 241)" fill-opacity="0.97"/><path d="M227,51L203,42L198,44Z" fill="rgb(19, 19, 218)" fill-opacity="0.94"/><path d="M217,-5L184,43L183,-10Z" fill="rgb(245, 245, 245)" fill-opacity="1.00"/><path d="M59,98L-12,104L82,112Z" fill="rgb(245, 245, 245)" fill-opacity="0.79"/><path d="M95,134L95,140L101,136Z" fill="rgb(1, 1, 1)" fill-opacity="0.69"/><path d="M29,43L40,18L39,-59Z" fill="rgb(243, 243, 242)" fill-opacity="0.80"/><path d="M-100,10L211,-109L104,18Z" fill="rgb(249, 249, 249)" fill-opacity="0.63"/></svg>