<svg xmlns="http://www.w3.org/2000/svg" viewBox="0 0 256 143.0214876033058" clip-path="url(#clip)"><defs><clipPath id="clip" clipPathUnits="objectBoundingBox"><rect x="0" y="0" width="256" height="143.0214876033058"/></clipPath></defs><rect x="0" y="0" width="256" height="143.0214876033058" fill="#f6f6f6"/><path d="M252,86L37,137L31,-45Z" fill="rgb(39, 46, 93)" fill-opacity="0.94"/><path d="M179,21L207,119L79,123Z" fill="rgb(18, 45, 174)" fill-opacity="0.80"/><path d="M220,68L191,54L241,12Z" fill="rgb(31, 120, 51)" fill-opacity="0.89"/><path d="M16,80L139,131L90,152Z" fill="rgb(216, 216, 230)" fill-opacity="1.00"/><path d="M33,8L-32,-85L153,22Z" fill="rgb(234, 234, 234)" fill-opacity="1.00"/><path d="M159,23L72,110L35,11Z" fill="rgb(0, 0, 0)" fill-opacity="0.96"/><path d="M224,51L213,97L279,112Z" fill="rgb(244, 245, 242)" fill-opacity="0.93"/><path d="M165,78L220,156L189,68Z" fill="rgb(48, 169, 6)" fill-opacity="0.76"/><path d="M124,141L150,112L107,81Z" fill="rgb(2, 0, 246)" fill-opacity="0.89"/><path d="M114,111L30,71L33,27Z" fill="rgb(0, 0, 0)" fill-opacity="0.86"/><path d="M230,11L242,25L224,43Z" fill="rgb(15, 9, 227)" fill-opacity="0.87"/><path d="M134,122L192,48L156,22Z" fill="rgb(11, 2, 255)" fill-opacity="0.66"/><path d="M42,88L129,18L147,98Z" fill="rgb(0, 0, 0)" fill-opacity="0.77"/><path d="M39,118L47,86L-63,69Z" fill="rgb(244, 244, 243)" fill-opacity="0.88"/><path d="M44,-33L39,22L-27,156Z" fill="rgb(243, 243, 243)" fill-opacity="1.00"/><path d="M130,112L91,102L103,121Z" fill="rgb(4, 2, 233)" fill-opacity="0.87"/><path d="M198,79L220,74L167,40Z" fill="rgb(12, 13, 229)" fill-opacity="1.00"/><path d="M210,238L196,115L167,114Z" fill="rgb(243, 244, 239)" fill-opacity="0.89"/><path d="M133,143L118,80L106,90Z" fill="rgb(2, 1, 248)" fill-opacity="0.86"/><path d="M50,4L28,50L50,98Z" fill="rgb(0, 0, 0)" fill-opacity="0.80"/><path d="M180,87L155,112L186,109Z" fill="rgb(0, 2, 232)" fill-opacity="0.97"/><path d="M35,128L54,108L59,128Z" fill="rgb(9, 8, 4)" fill-opacity="0.90"/><path d="M149,118L146,98L171,123Z" fill="rgb(51, 170, 0)" fill-opacity="0.83"/><path d="M184,54L192,54L221,4Z" fill="rgb(240, 240, 242)" fill-opacity="0.96"/><path d="M15,142L31,130L114,128Z" fill="rgb(207, 206, 200)" fill-opacity="0.72"/><path d="M127,156L93,106L60,105Z" fill="rgb(244, 244, 242)" fill-opacity="0.81"/><path d="M212,30L197,63L238,45Z" fill="rgb(48, 168, 0)" fill-opacity="0.74"/><path d="M153,34L44,9L49,7Z" fill="rgb(13, 13, 14)" fill-opacity="1.00"/><path d="M220,87L156,88L221,74Z" fill="rgb(40, 170, 0)" fill-opacity="0.71"/><path d="M141,18L155,48L28,48Z" fill="rgb(0, 0, 0)" fill-opacity="0.85"/><path d="M205,102L208,88L189,87Z" fill="rgb(0, 0, 252)" fill-opacity="0.84"/><path d="M-20,-79L42,107L32,64Z" fill="rgb(240, 240, 240)" fill-opacity="0.96"/><path d="M187,-11L167,47L172,58Z" fill="rgb(216, 214, 228)" fill-opacity="0.73"/><path d="M120,48L45,93L104,107Z" fill="rgb(0, 0, 2)" fill-opacity="0.96"/><path d="M62,101L144,174L121,129Z" fill="rgb(247, 247, 246)" fill-opacity="0.76"/><path d="M167,116L134,50L158,46Z" fill="rgb(0, 0, 245)" fill-opacity="0.78"/><path d="M72,135L64,132L63,126Z" fill="rgb(29, 28, 27)" fill-opacity="0.84"/><path d="M227,144L191,128L238,175Z" fill="rgb(236, 237, 236)" fill-opacity="0.94"/><path d="M62,101L100,146L56,124Z" fill="rgb(255, 255, 248)" fill-opacity="0.65"/><path d="M157,101L143,104L169,120Z" fill="rgb(36, 153, 0)" fill-opacity="0.54"/><path d="M247,46L200,107L250,195Z" fill="rgb(245, 245, 244)" fill-opacity="0.84"/><path d="M133,20L-71,-21L89,16Z" fill="rgb(236, 236, 235)" fill-opacity="0.87"/><path d="M145,100L142,65L82,62Z" fill="rgb(0, 0, 1)" fill-opacity="0.86"/><path d="M189,44L177,76L172,27Z" fill="rgb(3, 0, 236)" fill-opacity="0.59"/><path d="M214,2L238,19L244,13Z" fill="rgb(229, 228, 242)" fill-opacity="0.94"/><path d="M166,79L161,91L194,88Z" fill="rgb(37, 147, 4)" fill-opacity="0.90"/><path d="M152,31L181,30L149,43Z" fill="rgb(4, 4, 230)" fill-opacity="0.90"/><path d="M202,104L173,112L201,118Z" fill="rgb(46, 163, 1)" fill-opacity="0.78"/><path d="M55,109L39,112L44,136Z" fill="rgb(13, 13, 12)" fill-opacity="0.93"/><path d="M198,28L185,4L152,30Z" fill="rgb(238, 238, 239)" fill-opacity="0.88"/><path d="M48,133L94,159L57,126Z" fill="rgb(254, 254, 252)" fill-opacity="0.57"/><path d="M30,109L74,111L16,71Z" fill="rgb(248, 247, 246)" fill-opacity="0.71"/><path d="M229,42L214,68L199,42Z" fill="rgb(41, 156, 0)" fill-opacity="0.84"/><path d="M176,90L141,96L183,110Z" fill="rgb(0, 0, 239)" fill-opacity="0.96"/><path d="M124,137L106,100L150,98Z" fill="rgb(1, 1, 251)" fill-opacity="0.84"/><path d="M170,73L199,98L210,141Z" fill="rgb(44, 173, 0)" fill-opacity="0.80"/><path d="M44,132L28,140L-32,96Z" fill="rgb(243, 243, 243)" fill-opacity="0.82"/><path d="M170,67L152,41L165,25Z" fill="rgb(4, 4, 240)" fill-opacity="0.99"/><path d="M85,108L66,103L28,45Z" fill="rgb(4, 4, 3)" fill-opacity="0.86"/><path d="M72,124L40,83L3,70Z" fill="rgb(243, 243, 242)" fill-opacity="0.71"/><path d="M147,118L130,131L195,130Z" fill="rgb(238, 238, 239)" fill-opacity="0.89"/><path d="M102,137L96,140L89,127Z" fill="rgb(56, 56, 47)" fill-opacity="0.55"/><path d="M206,99L185,104L185,118Z" fill="rgb(45, 162, 6)" fill-opacity="0.75"/><path d="M202,103L213,88L200,95Z" fill="rgb(0, 9, 216)" fill-opacity="0.57"/><path d="M196,51L198,67L159,73Z" fill="rgb(2, 3, 236)" fill-opacity="0.93"/><path d="M135,119L113,116L130,140Z" fill="rgb(2, 2, 237)" fill-opacity="0.64"/><path d="M108,118L75,196L115,118Z" fill="rgb(243, 243, 242)" fill-opacity="0.91"/><path d="M102,124L97,111L92,138Z" fill="rgb(236, 236, 237)" fill-opacity="0.94"/><path d="M211,125L209,138L196,124Z" fill="rgb(44, 153, 8)" fill-opacity="0.68"/><path d="M-2,33L26,44L32,54Z" fill="rgb(241, 241, 241)" fill-opacity="0.72"/><path d="M35,140L49,133L46,130Z" fill="rgb(8, 6, 3)" fill-opacity="0.44"/><path d="M41,120L30,120L31,129Z" fill="rgb(226, 226, 226)" fill-opacity="1.00"/><path d="M196,58L232,45L217,29Z" fill="rgb(41, 162, 4)" fill-opacity="0.70"/><path d="M173,61L212,78L213,63Z" fill="rgb(0, 0, 239)" fill-opacity="0.61"/><path d="M145,99L130,21L124,96Z" fill="rgb(0, 0, 1)" fill-opacity="0.82"/><path d="M34,95L59,95L36,115Z" fill="rgb(248, 248, 246)" fill-opacity="0.59"/><path d="M212,90L258,127L208,95Z" fill="rgb(244, 244, 245)" fill-opacity="0.78"/><path d="M157,111L175,115L166,92Z" fill="rgb(0, 0, 230)" fill-opacity="0.88"/><path d="M243,40L284,42L226,49Z" fill="rgb(240, 235, 241)" fill-opacity="0.70"/><path d="M43,134L28,141L42,136Z" fill="rgb(0, 0, 1)" fill-opacity="0.39"/><path d="M226,147L137,135L172,117Z" fill="rgb(247, 246, 248)" fill-opacity="0.60"/><path d="M177,31L169,36L169,56Z" fill="rgb(255, 255, 203)" fill-opacity="0.56"/><path d="M53,7L71,106L36,80Z" fill="rgb(0, 0, 0)" fill-opacity="0.76"/><path d="M223,43L237,27L235,10Z" fill="rgb(1, 0, 241)" fill-opacity="0.71"/><path d="M109,83L122,85L107,119Z" fill="rgb(0, 0, 248)" fill-opacity="0.88"/><path d="M206,42L212,39L163,23Z" fill="rgb(244, 240, 240)" fill-opacity="0.55"/><path d="M215,-117L179,36L228,28Z" fill="rgb(246, 245, 246)" fill-opacity="0.56"/><path d="M194,74L182,68L167,90Z" fill="rgb(42, 168, 1)" fill-opacity="0.95"/><path d="M183,98L211,136L211,125Z" fill="rgb(39, 172, 0)" fill-opacity="0.59"/><path d="M103,135L78,123L74,123Z" fill="rgb(77, 77, 73)" fill-opacity="0.38"/><path d="M135,6L155,26L141,-10Z" fill="rgb(241, 241, 241)" fill-opacity="0.71"/><path d="M30,59L81,13L30,50Z" fill="rgb(0, 0, 0)" fill-opacity="0.81"/><path d="M250,110L217,72L289,56Z" fill="rgb(245, 245, 246)" fill-opacity="0.86"/><path d="M198,120L190,113L172,179Z" fill="rgb(241, 241, 241)" fill-opacity="0.91"/><path d="M144,98L144,82L186,103Z" fill="rgb(0, 0, 242)" fill-opacity="0.96"/><path d="M108,71L76,73L108,105Z" fill="rgb(0, 0, 0)" fill-opacity="0.80"/><path d="M182,44L212,20L201,3Z" fill="rgb(244, 244, 244)" fill-opacity="1.00"/><path d="M150,22L42,20L132,19Z" fill="rgb(5, 5, 4)" fill-opacity="0.88"/><path d="M61,99L58,127L94,119Z" fill="rgb(244, 244, 244)" fill-opacity="0.91"/><path d="M100,133L97,140L93,135Z" fill="rgb(21, 21, 18)" fill-opacity="0.51"/></svg>