<svg xmlns="http://www.w3.org/2000/svg" viewBox="0 0 256 143.0214876033058" clip-path="url(#clip)"><defs><clipPath id="clip" clipPathUnits="objectBoundingBox"><rect x="0" y="0" width="256" height="143.0214876033058"/></clipPath></defs><rect x="0" y="0" width="256" height="143.0214876033058" fill="#f6f6f6"/><path d="M255,93L31,-54L38,137Z" fill="rgb(32, 35, 112)" fill-opacity="0.91"/><path d="M107,129L200,114L245,6Z" fill="rgb(10, 25, 210)" fill-opacity="0.88"/><path d="M259,20L281,140L203,105Z" fill="rgb(245, 245, 245)" fill-opacity="0.98"/><path d="M133,130L22,82L122,189Z" fill="rgb(218, 218, 231)" fill-opacity="1.00"/><path d="M134,21L18,5L13,-82Z" fill="rgb(242, 242, 240)" fill-opacity="0.96"/><path d="M191,90L157,89L190,64Z" fill="rgb(38, 153, 14)" fill-opacity="0.90"/><path d="M175,87L210,142L211,122Z" fill="rgb(4, 4, 231)" fill-opacity="0.83"/><path d="M173,31L70,110L38,6Z" fill="rgb(0, 0, 1)" fill-opacity="0.90"/><path d="M119,78L98,115L135,141Z" fill="rgb(3, 2, 255)" fill-opacity="0.71"/><path d="M139,31L209,89L180,29Z" fill="rgb(25, 26, 233)" fill-opacity="0.80"/><path d="M33,36L50,-14L-10,26Z" fill="rgb(244, 244, 243)" fill-opacity="0.91"/><path d="M38,152L123,158L53,126Z" fill="rgb(235, 235, 233)" fill-opacity="0.89"/><path d="M-1,97L93,107L107,126Z" fill="rgb(239, 239, 238)" fill-opacity="0.90"/><path d="M242,22L209,33L229,51Z" fill="rgb(23, 54, 138)" fill-opacity="0.59"/><path d="M47,42L40,94L27,44Z" fill="rgb(28, 28, 234)" fill-opacity="1.00"/><path d="M183,55L151,105L134,46Z" fill="rgb(2, 2, 229)" fill-opacity="1.00"/><path d="M72,104L49,4L31,38Z" fill="rgb(0, 0, 0)" fill-opacity="0.62"/><path d="M78,107L92,18L111,104Z" fill="rgb(0, 0, 0)" fill-opacity="0.86"/><path d="M131,18L146,101L31,35Z" fill="rgb(0, 0, 0)" fill-opacity="0.92"/><path d="M154,222L106,118L116,119Z" fill="rgb(239, 239, 241)" fill-opacity="0.91"/><path d="M176,49L169,59L169,32Z" fill="rgb(237, 237, 228)" fill-opacity="0.69"/><path d="M39,117L47,88L-39,35Z" fill="rgb(244, 244, 244)" fill-opacity="0.88"/><path d="M124,136L167,101L106,95Z" fill="rgb(1, 1, 242)" fill-opacity="0.98"/><path d="M228,5L245,30L303,-116Z" fill="rgb(243, 243, 244)" fill-opacity="0.99"/><path d="M192,177L167,115L184,114Z" fill="rgb(242, 242, 242)" fill-opacity="1.00"/><path d="M40,121L70,130L70,135Z" fill="rgb(32, 31, 0)" fill-opacity="0.57"/><path d="M62,100L37,38L36,81Z" fill="rgb(0, 0, 246)" fill-opacity="0.88"/><path d="M34,128L59,128L54,108Z" fill="rgb(0, 0, 0)" fill-opacity="0.60"/><path d="M211,-21L185,56L198,50Z" fill="rgb(240, 240, 242)" fill-opacity="0.85"/><path d="M92,106L159,23L54,13Z" fill="rgb(0, 0, 0)" fill-opacity="0.91"/><path d="M287,134L214,64L220,76Z" fill="rgb(238, 238, 237)" fill-opacity="0.81"/><path d="M123,96L108,35L139,98Z" fill="rgb(0, 0, 5)" fill-opacity="1.00"/><path d="M202,40L181,113L222,82Z" fill="rgb(0, 0, 232)" fill-opacity="0.76"/><path d="M167,81L151,35L167,25Z" fill="rgb(0, 0, 253)" fill-opacity="0.71"/><path d="M191,68L194,84L162,80Z" fill="rgb(39, 157, 0)" fill-opacity="0.74"/><path d="M25,-9L60,-26L45,12Z" fill="rgb(235, 235, 235)" fill-opacity="0.79"/><path d="M60,99L77,107L65,22Z" fill="rgb(1, 1, 1)" fill-opacity="0.92"/><path d="M57,112L42,137L43,108Z" fill="rgb(7, 7, 1)" fill-opacity="0.87"/><path d="M177,33L171,34L167,53Z" fill="rgb(234, 234, 205)" fill-opacity="0.68"/><path d="M60,151L55,90L64,120Z" fill="rgb(252, 252, 251)" fill-opacity="0.62"/><path d="M145,119L158,120L61,234Z" fill="rgb(241, 241, 241)" fill-opacity="1.00"/><path d="M29,64L33,17L-19,3Z" fill="rgb(245, 245, 245)" fill-opacity="0.80"/><path d="M226,29L150,29L232,10Z" fill="rgb(237, 237, 240)" fill-opacity="0.89"/><path d="M47,44L38,82L32,40Z" fill="rgb(0, 0, 246)" fill-opacity="1.00"/><path d="M175,46L171,69L208,68Z" fill="rgb(0, 0, 242)" fill-opacity="0.70"/><path d="M45,131L-6,174L-4,130Z" fill="rgb(235, 235, 235)" fill-opacity="0.93"/><path d="M227,21L241,29L233,9Z" fill="rgb(10, 3, 237)" fill-opacity="0.58"/><path d="M64,95L40,26L40,5Z" fill="rgb(0, 0, 2)" fill-opacity="0.92"/><path d="M197,127L201,106L214,139Z" fill="rgb(0, 0, 226)" fill-opacity="0.60"/><path d="M30,38L135,50L146,80Z" fill="rgb(0, 0, 1)" fill-opacity="0.66"/><path d="M62,88L48,95L34,44Z" fill="rgb(1, 1, 245)" fill-opacity="1.00"/><path d="M123,84L104,125L110,83Z" fill="rgb(0, 0, 249)" fill-opacity="0.77"/><path d="M42,109L58,118L36,121Z" fill="rgb(11, 10, 0)" fill-opacity="0.53"/><path d="M222,46L218,29L238,46Z" fill="rgb(27, 102, 47)" fill-opacity="0.64"/><path d="M100,136L88,126L96,140Z" fill="rgb(22, 22, 10)" fill-opacity="0.51"/><path d="M296,-15L230,36L241,54Z" fill="rgb(243, 242, 243)" fill-opacity="0.86"/><path d="M213,90L222,160L202,103Z" fill="rgb(239, 239, 241)" fill-opacity="0.97"/><path d="M196,82L203,116L146,109Z" fill="rgb(0, 0, 237)" fill-opacity="0.91"/><path d="M151,25L122,37L168,22Z" fill="rgb(18, 18, 17)" fill-opacity="0.45"/><path d="M184,108L144,74L144,98Z" fill="rgb(0, 0, 244)" fill-opacity="0.82"/><path d="M29,140L39,136L43,137Z" fill="rgb(45, 45, 41)" fill-opacity="0.53"/><path d="M151,22L69,20L134,19Z" fill="rgb(11, 11, 10)" fill-opacity="0.91"/><path d="M104,123L115,109L92,104Z" fill="rgb(6, 6, 250)" fill-opacity="0.71"/><path d="M220,93L283,50L222,52Z" fill="rgb(245, 245, 244)" fill-opacity="0.63"/><path d="M226,116L192,157L234,163Z" fill="rgb(244, 244, 243)" fill-opacity="0.85"/><path d="M196,-79L71,13L108,18Z" fill="rgb(241, 241, 241)" fill-opacity="0.99"/><path d="M223,39L210,92L200,43Z" fill="rgb(1, 0, 227)" fill-opacity="0.88"/><path d="M93,106L84,105L51,213Z" fill="rgb(244, 244, 242)" fill-opacity="0.79"/><path d="M163,122L182,89L120,104Z" fill="rgb(0, 0, 237)" fill-opacity="0.76"/><path d="M151,29L156,31L168,28Z" fill="rgb(134, 135, 179)" fill-opacity="1.00"/><path d="M173,75L175,28L189,46Z" fill="rgb(0, 0, 236)" fill-opacity="0.54"/><path d="M33,71L29,43L37,79Z" fill="rgb(34, 33, 181)" fill-opacity="0.68"/><path d="M184,67L186,89L161,91Z" fill="rgb(41, 162, 4)" fill-opacity="0.91"/><path d="M79,149L113,117L76,144Z" fill="rgb(244, 244, 243)" fill-opacity="0.90"/><path d="M86,103L134,152L108,156Z" fill="rgb(253, 253, 248)" fill-opacity="0.61"/><path d="M221,68L209,70L225,42Z" fill="rgb(23, 15, 127)" fill-opacity="0.44"/><path d="M167,114L163,121L169,121Z" fill="rgb(55, 54, 115)" fill-opacity="0.76"/><path d="M174,57L172,35L167,49Z" fill="rgb(255, 255, 241)" fill-opacity="0.55"/><path d="M57,95L43,110L-77,93Z" fill="rgb(245, 245, 245)" fill-opacity="0.99"/><path d="M151,81L134,48L199,60Z" fill="rgb(0, 0, 244)" fill-opacity="0.79"/><path d="M-64,-25L263,1L193,31Z" fill="rgb(247, 247, 246)" fill-opacity="0.65"/><path d="M36,88L34,80L42,83Z" fill="rgb(187, 186, 185)" fill-opacity="0.53"/><path d="M-40,-38L137,20L89,16Z" fill="rgb(244, 244, 243)" fill-opacity="0.63"/><path d="M225,42L225,27L243,23Z" fill="rgb(7, 2, 217)" fill-opacity="0.78"/><path d="M222,45L217,52L239,42Z" fill="rgb(3, 0, 170)" fill-opacity="0.53"/><path d="M193,79L183,89L200,78Z" fill="rgb(30, 114, 2)" fill-opacity="0.48"/><path d="M213,30L221,34L196,76Z" fill="rgb(5, 4, 239)" fill-opacity="0.84"/><path d="M108,107L110,20L56,96Z" fill="rgb(0, 0, 0)" fill-opacity="0.74"/><path d="M170,75L200,74L163,84Z" fill="rgb(38, 149, 1)" fill-opacity="0.58"/><path d="M69,154L112,142L39,133Z" fill="rgb(255, 255, 255)" fill-opacity="0.37"/><path d="M16,11L72,4L63,-46Z" fill="rgb(246, 246, 246)" fill-opacity="0.92"/><path d="M43,60L61,9L85,108Z" fill="rgb(0, 0, 1)" fill-opacity="0.88"/><path d="M40,19L56,5L29,49Z" fill="rgb(0, 0, 0)" fill-opacity="0.43"/><path d="M170,40L163,21L164,34Z" fill="rgb(21, 21, 162)" fill-opacity="0.50"/><path d="M148,47L152,27L132,19Z" fill="rgb(0, 0, 3)" fill-opacity="0.85"/><path d="M169,49L137,61L148,47Z" fill="rgb(0, 0, 245)" fill-opacity="0.75"/><path d="M73,242L198,121L191,113Z" fill="rgb(242, 242, 243)" fill-opacity="1.00"/><path d="M121,96L144,24L121,21Z" fill="rgb(0, 0, 0)" fill-opacity="1.00"/><path d="M231,39L234,46L221,41Z" fill="rgb(41, 136, 3)" fill-opacity="0.61"/><path d="M218,58L238,89L228,95Z" fill="rgb(244, 244, 246)" fill-opacity="0.50"/></svg>