<svg xmlns="http://www.w3.org/2000/svg" viewBox="0 0 256 143.0214876033058" clip-path="url(#clip)"><defs><clipPath id="clip" clipPathUnits="objectBoundingBox"><rect x="0" y="0" width="256" height="143.0214876033058"/></clipPath></defs><rect x="0" y="0" width="256" height="143.0214876033058" fill="#f6f6f6"/><path d="M135,207L238,34L4,4Z" fill="rgb(40, 19, 96)" fill-opacity="0.86"/><path d="M226,201L-18,109L210,116Z" fill="rgb(185, 185, 222)" fill-opacity="1.00"/><path d="M144,33L251,20L186,66Z" fill="rgb(241, 108, 104)" fill-opacity="0.84"/><path d="M177,31L40,6L39,139Z" fill="rgb(0, 0, 0)" fill-opacity="0.61"/><path d="M99,84L238,74L124,137Z" fill="rgb(0, 0, 226)" fill-opacity="0.79"/><path d="M70,-77L28,51L-95,56Z" fill="rgb(244, 244, 244)" fill-opacity="0.99"/><path d="M190,55L245,1L163,-22Z" fill="rgb(244, 243, 243)" fill-opacity="0.97"/><path d="M119,125L98,361L53,96Z" fill="rgb(230, 230, 232)" fill-opacity="1.00"/><path d="M240,19L221,60L229,14Z" fill="rgb(219, 29, 20)" fill-opacity="0.89"/><path d="M142,18L144,102L29,33Z" fill="rgb(2, 0, 0)" fill-opacity="0.91"/><path d="M37,85L27,38L66,91Z" fill="rgb(8, 8, 238)" fill-opacity="0.93"/><path d="M200,122L220,67L133,62Z" fill="rgb(0, 0, 238)" fill-opacity="0.81"/><path d="M60,100L29,75L-51,167Z" fill="rgb(244, 244, 246)" fill-opacity="0.89"/><path d="M97,120L119,80L131,118Z" fill="rgb(0, 0, 248)" fill-opacity="0.80"/><path d="M168,51L131,69L162,19Z" fill="rgb(255, 22, 3)" fill-opacity="0.71"/><path d="M214,134L256,34L201,105Z" fill="rgb(242, 242, 242)" fill-opacity="0.93"/><path d="M221,53L241,21L209,35Z" fill="rgb(224, 11, 0)" fill-opacity="0.84"/><path d="M104,530L134,123L198,118Z" fill="rgb(255, 255, 248)" fill-opacity="0.81"/><path d="M55,119L38,119L76,138Z" fill="rgb(0, 0, 0)" fill-opacity="0.55"/><path d="M212,140L195,123L206,115Z" fill="rgb(3, 3, 229)" fill-opacity="0.83"/><path d="M161,52L124,143L182,56Z" fill="rgb(5, 4, 237)" fill-opacity="0.97"/><path d="M198,63L184,71L174,35Z" fill="rgb(235, 16, 8)" fill-opacity="0.86"/><path d="M104,110L126,18L42,59Z" fill="rgb(0, 0, 1)" fill-opacity="0.95"/><path d="M196,48L224,50L198,71Z" fill="rgb(2, 0, 225)" fill-opacity="0.84"/><path d="M206,-161L157,30L228,27Z" fill="rgb(245, 245, 245)" fill-opacity="0.83"/><path d="M257,42L239,61L229,31Z" fill="rgb(243, 236, 234)" fill-opacity="0.74"/><path d="M118,139L87,101L77,122Z" fill="rgb(245, 246, 242)" fill-opacity="0.76"/><path d="M200,42L240,43L201,50Z" fill="rgb(221, 1, 0)" fill-opacity="0.69"/><path d="M52,99L43,39L29,56Z" fill="rgb(0, 0, 246)" fill-opacity="0.82"/><path d="M133,53L154,63L176,28Z" fill="rgb(218, 15, 5)" fill-opacity="0.90"/><path d="M32,41L153,48L149,20Z" fill="rgb(1, 0, 0)" fill-opacity="0.82"/><path d="M148,118L247,147L112,151Z" fill="rgb(244, 244, 244)" fill-opacity="0.85"/><path d="M35,23L29,54L-14,-37Z" fill="rgb(244, 244, 244)" fill-opacity="0.89"/><path d="M206,116L147,110L142,64Z" fill="rgb(0, 0, 238)" fill-opacity="0.86"/><path d="M201,130L175,55L213,133Z" fill="rgb(4, 4, 238)" fill-opacity="0.92"/><path d="M101,137L96,140L87,125Z" fill="rgb(73, 73, 72)" fill-opacity="0.63"/><path d="M191,69L165,122L118,110Z" fill="rgb(1, 1, 235)" fill-opacity="0.88"/><path d="M47,130L121,188L60,128Z" fill="rgb(252, 252, 246)" fill-opacity="0.72"/><path d="M167,49L172,32L174,59Z" fill="rgb(217, 248, 255)" fill-opacity="0.67"/><path d="M117,107L105,122L92,105Z" fill="rgb(8, 8, 238)" fill-opacity="1.00"/><path d="M36,129L59,128L44,106Z" fill="rgb(3, 3, 0)" fill-opacity="0.77"/><path d="M74,12L95,107L58,97Z" fill="rgb(0, 0, 0)" fill-opacity="0.92"/><path d="M39,133L28,95L-34,105Z" fill="rgb(247, 247, 245)" fill-opacity="0.78"/><path d="M99,112L16,90L41,109Z" fill="rgb(240, 240, 240)" fill-opacity="1.00"/><path d="M152,29L149,43L180,30Z" fill="rgb(237, 26, 13)" fill-opacity="0.74"/><path d="M59,95L46,95L55,76Z" fill="rgb(0, 0, 247)" fill-opacity="0.89"/><path d="M56,91L85,107L69,105Z" fill="rgb(0, 1, 0)" fill-opacity="0.66"/><path d="M242,27L224,-3L332,13Z" fill="rgb(243, 242, 242)" fill-opacity="0.92"/><path d="M154,26L39,8L57,81Z" fill="rgb(0, 0, 0)" fill-opacity="0.95"/><path d="M124,136L109,85L134,139Z" fill="rgb(0, 0, 249)" fill-opacity="0.78"/><path d="M154,26L152,31L177,25Z" fill="rgb(205, 203, 199)" fill-opacity="0.72"/><path d="M158,61L135,46L140,63Z" fill="rgb(249, 12, 0)" fill-opacity="0.81"/><path d="M218,48L211,92L220,83Z" fill="rgb(6, 10, 128)" fill-opacity="0.50"/><path d="M185,55L200,48L210,-10Z" fill="rgb(243, 243, 243)" fill-opacity="0.78"/><path d="M120,128L128,147L80,148Z" fill="rgb(244, 244, 243)" fill-opacity="0.95"/><path d="M120,95L133,32L145,99Z" fill="rgb(0, 0, 2)" fill-opacity="0.87"/><path d="M221,80L223,53L300,11Z" fill="rgb(244, 244, 244)" fill-opacity="1.00"/><path d="M1,5L47,10L22,-29Z" fill="rgb(243, 243, 243)" fill-opacity="0.82"/><path d="M222,67L212,57L212,68Z" fill="rgb(79, 103, 0)" fill-opacity="0.61"/><path d="M90,16L61,10L125,19Z" fill="rgb(216, 216, 216)" fill-opacity="1.00"/><path d="M190,47L173,56L176,30Z" fill="rgb(234, 14, 0)" fill-opacity="0.65"/><path d="M197,109L221,78L198,48Z" fill="rgb(0, 0, 228)" fill-opacity="0.85"/><path d="M32,40L47,44L38,83Z" fill="rgb(0, 0, 251)" fill-opacity="0.87"/><path d="M48,134L51,129L29,141Z" fill="rgb(66, 66, 63)" fill-opacity="0.61"/><path d="M41,18L82,55L31,39Z" fill="rgb(2, 2, 2)" fill-opacity="0.87"/><path d="M193,118L178,113L121,145Z" fill="rgb(240, 240, 240)" fill-opacity="0.90"/><path d="M195,51L223,60L215,47Z" fill="rgb(0, 0, 246)" fill-opacity="0.69"/><path d="M70,131L71,134L53,125Z" fill="rgb(16, 16, 16)" fill-opacity="0.73"/><path d="M235,46L199,49L224,29Z" fill="rgb(228, 11, 0)" fill-opacity="0.69"/><path d="M214,25L157,20L208,43Z" fill="rgb(244, 245, 245)" fill-opacity="0.70"/><path d="M72,121L70,144L116,157Z" fill="rgb(245, 245, 245)" fill-opacity="0.98"/><path d="M18,123L12,107L43,122Z" fill="rgb(240, 240, 239)" fill-opacity="0.77"/><path d="M187,31L170,34L166,41Z" fill="rgb(140, 226, 224)" fill-opacity="0.43"/><path d="M179,31L172,44L194,75Z" fill="rgb(233, 11, 1)" fill-opacity="0.62"/><path d="M32,39L106,27L48,6Z" fill="rgb(0, 0, 0)" fill-opacity="0.73"/><path d="M206,118L200,107L258,134Z" fill="rgb(241, 241, 241)" fill-opacity="0.79"/><path d="M95,132L100,137L95,140Z" fill="rgb(0, 0, 0)" fill-opacity="0.76"/><path d="M57,115L44,107L42,136Z" fill="rgb(0, 0, 0)" fill-opacity="0.68"/><path d="M230,42L237,13L229,15Z" fill="rgb(238, 16, 3)" fill-opacity="0.70"/><path d="M131,130L137,169L146,119Z" fill="rgb(238, 238, 233)" fill-opacity="0.75"/><path d="M60,29L43,57L65,92Z" fill="rgb(0, 0, 3)" fill-opacity="0.81"/><path d="M40,135L48,130L20,134Z" fill="rgb(225, 225, 224)" fill-opacity="0.54"/><path d="M201,63L219,63L206,59Z" fill="rgb(70, 91, 2)" fill-opacity="0.48"/><path d="M248,-43L225,29L192,34Z" fill="rgb(244, 245, 245)" fill-opacity="0.78"/><path d="M195,50L180,69L198,60Z" fill="rgb(239, 13, 0)" fill-opacity="0.75"/><path d="M51,129L57,117L35,117Z" fill="rgb(6, 6, 6)" fill-opacity="0.86"/><path d="M137,57L161,57L139,47Z" fill="rgb(255, 14, 0)" fill-opacity="0.58"/><path d="M56,97L61,87L56,77Z" fill="rgb(3, 3, 251)" fill-opacity="0.67"/><path d="M41,-26L39,21L18,70Z" fill="rgb(242, 242, 241)" fill-opacity="0.92"/><path d="M149,41L165,26L169,52Z" fill="rgb(239, 15, 2)" fill-opacity="0.78"/><path d="M202,130L182,84L202,101Z" fill="rgb(0, 0, 241)" fill-opacity="0.76"/><path d="M155,103L161,91L159,108Z" fill="rgb(1, 1, 129)" fill-opacity="0.56"/><path d="M118,127L167,113L109,89Z" fill="rgb(0, 0, 250)" fill-opacity="0.82"/><path d="M140,124L151,113L129,129Z" fill="rgb(7, 7, 153)" fill-opacity="0.53"/><path d="M56,126L105,129L93,105Z" fill="rgb(243, 243, 244)" fill-opacity="0.65"/><path d="M99,114L104,121L99,118Z" fill="rgb(1, 1, 120)" fill-opacity="0.38"/><path d="M72,132L100,132L65,145Z" fill="rgb(245, 245, 245)" fill-opacity="0.89"/><path d="M53,20L129,19L164,25Z" fill="rgb(5, 5, 5)" fill-opacity="0.97"/><path d="M117,83L105,83L123,98Z" fill="rgb(0, 0, 255)" fill-opacity="0.55"/><path d="M221,50L222,59L198,59Z" fill="rgb(0, 0, 244)" fill-opacity="0.77"/></svg>