<svg xmlns="http://www.w3.org/2000/svg" viewBox="0 0 256 143.0214876033058" clip-path="url(#clip)"><defs><clipPath id="clip" clipPathUnits="objectBoundingBox"><rect x="0" y="0" width="256" height="143.0214876033058"/></clipPath></defs><rect x="0" y="0" width="256" height="143.0214876033058" fill="#f6f6f6"/><path d="M43,135L247,88L92,0Z" fill="rgb(58, 0, 1)" fill-opacity="0.70"/><path d="M198,94L213,135L9,40Z" fill="rgb(17, 0, 5)" fill-opacity="0.61"/><path d="M218,71L191,54L242,10Z" fill="rgb(203, 12, 2)" fill-opacity="0.87"/><path d="M36,87L97,198L123,128Z" fill="rgb(242, 247, 248)" fill-opacity="0.85"/><path d="M175,92L238,59L140,80Z" fill="rgb(77, 251, 193)" fill-opacity="0.63"/><path d="M32,25L33,78L62,98Z" fill="rgb(246, 14, 0)" fill-opacity="0.89"/><path d="M122,20L-4,0L321,0Z" fill="rgb(243, 243, 243)" fill-opacity="0.99"/><path d="M240,55L295,145L202,104Z" fill="rgb(244, 244, 244)" fill-opacity="0.98"/><path d="M122,58L177,22L197,70Z" fill="rgb(254, 17, 2)" fill-opacity="0.70"/><path d="M129,15L28,56L151,121Z" fill="rgb(1, 0, 0)" fill-opacity="0.83"/><path d="M110,62L134,139L122,136Z" fill="rgb(80, 13, 48)" fill-opacity="0.86"/><path d="M175,32L139,64L134,19Z" fill="rgb(244, 19, 6)" fill-opacity="0.91"/><path d="M115,165L56,127L24,149Z" fill="rgb(240, 241, 241)" fill-opacity="0.96"/><path d="M32,73L-45,131L58,106Z" fill="rgb(244, 243, 243)" fill-opacity="0.95"/><path d="M36,24L67,26L31,72Z" fill="rgb(243, 15, 1)" fill-opacity="0.89"/><path d="M181,112L113,148L200,125Z" fill="rgb(241, 240, 240)" fill-opacity="0.91"/><path d="M138,63L167,92L155,63Z" fill="rgb(185, 216, 146)" fill-opacity="0.98"/><path d="M118,112L65,8L58,99Z" fill="rgb(3, 0, 1)" fill-opacity="0.92"/><path d="M138,39L166,81L189,63Z" fill="rgb(242, 12, 0)" fill-opacity="0.81"/><path d="M94,111L169,122L162,82Z" fill="rgb(83, 13, 49)" fill-opacity="0.88"/><path d="M226,56L242,22L229,11Z" fill="rgb(213, 24, 14)" fill-opacity="0.58"/><path d="M38,119L49,107L74,138Z" fill="rgb(0, 1, 1)" fill-opacity="0.56"/><path d="M165,79L144,85L143,64Z" fill="rgb(236, 255, 170)" fill-opacity="0.59"/><path d="M56,126L90,103L116,138Z" fill="rgb(238, 239, 239)" fill-opacity="0.81"/><path d="M148,118L248,144L132,129Z" fill="rgb(238, 237, 237)" fill-opacity="0.98"/><path d="M134,23L141,101L38,8Z" fill="rgb(0, 0, 0)" fill-opacity="0.95"/><path d="M26,58L-34,79L49,-14Z" fill="rgb(244, 244, 244)" fill-opacity="0.92"/><path d="M212,127L208,141L181,88Z" fill="rgb(86, 1, 45)" fill-opacity="0.70"/><path d="M179,24L170,63L164,-25Z" fill="rgb(225, 234, 235)" fill-opacity="0.61"/><path d="M-128,-32L233,28L89,16Z" fill="rgb(242, 240, 240)" fill-opacity="0.86"/><path d="M221,75L161,82L208,60Z" fill="rgb(46, 218, 174)" fill-opacity="0.80"/><path d="M45,54L68,105L103,106Z" fill="rgb(3, 0, 0)" fill-opacity="0.81"/><path d="M231,10L244,28L279,-42Z" fill="rgb(243, 242, 242)" fill-opacity="0.99"/><path d="M129,31L42,24L47,6Z" fill="rgb(3, 1, 1)" fill-opacity="0.85"/><path d="M202,113L201,76L150,115Z" fill="rgb(80, 15, 48)" fill-opacity="1.00"/><path d="M172,10L190,26L151,31Z" fill="rgb(234, 231, 231)" fill-opacity="0.86"/><path d="M59,128L34,128L54,109Z" fill="rgb(0, 3, 3)" fill-opacity="0.87"/><path d="M184,59L195,27L195,51Z" fill="rgb(240, 227, 227)" fill-opacity="0.55"/><path d="M238,46L217,29L199,45Z" fill="rgb(225, 4, 0)" fill-opacity="0.54"/><path d="M179,30L194,55L151,21Z" fill="rgb(155, 1, 0)" fill-opacity="0.29"/><path d="M138,163L113,116L92,129Z" fill="rgb(242, 242, 242)" fill-opacity="0.83"/><path d="M112,120L122,83L107,85Z" fill="rgb(82, 14, 48)" fill-opacity="1.00"/><path d="M203,236L197,117L168,114Z" fill="rgb(244, 244, 244)" fill-opacity="0.87"/><path d="M99,133L93,134L97,141Z" fill="rgb(1, 2, 1)" fill-opacity="0.57"/><path d="M112,161L59,97L56,121Z" fill="rgb(247, 248, 248)" fill-opacity="0.74"/><path d="M131,132L94,104L142,115Z" fill="rgb(85, 14, 50)" fill-opacity="0.95"/><path d="M46,133L53,132L5,150Z" fill="rgb(81, 92, 92)" fill-opacity="0.49"/><path d="M29,58L64,94L33,32Z" fill="rgb(239, 12, 0)" fill-opacity="0.71"/><path d="M40,20L40,8L88,33Z" fill="rgb(4, 2, 2)" fill-opacity="1.00"/><path d="M186,68L237,43L159,61Z" fill="rgb(238, 15, 2)" fill-opacity="0.90"/><path d="M84,113L59,126L53,94Z" fill="rgb(253, 252, 251)" fill-opacity="0.53"/><path d="M150,100L221,74L195,115Z" fill="rgb(81, 14, 48)" fill-opacity="0.95"/><path d="M273,79L230,37L254,14Z" fill="rgb(243, 243, 243)" fill-opacity="0.96"/><path d="M3,117L48,134L13,136Z" fill="rgb(239, 240, 240)" fill-opacity="0.67"/><path d="M49,96L63,87L28,44Z" fill="rgb(255, 15, 1)" fill-opacity="0.74"/><path d="M204,114L200,103L215,129Z" fill="rgb(234, 230, 232)" fill-opacity="0.77"/><path d="M202,61L220,70L219,58Z" fill="rgb(33, 12, 36)" fill-opacity="0.62"/><path d="M34,78L25,71L34,65Z" fill="rgb(230, 245, 246)" fill-opacity="0.58"/><path d="M222,53L294,23L220,91Z" fill="rgb(245, 243, 244)" fill-opacity="0.78"/><path d="M57,118L51,129L34,116Z" fill="rgb(4, 6, 6)" fill-opacity="0.64"/><path d="M57,49L62,32L38,20Z" fill="rgb(252, 9, 0)" fill-opacity="0.75"/><path d="M-1,-23L-26,-7L49,11Z" fill="rgb(239, 240, 240)" fill-opacity="0.75"/><path d="M44,62L47,44L141,65Z" fill="rgb(2, 0, 0)" fill-opacity="1.00"/><path d="M121,83L42,57L55,76Z" fill="rgb(3, 0, 0)" fill-opacity="0.80"/><path d="M49,131L48,136L31,119Z" fill="rgb(0, 6, 6)" fill-opacity="0.46"/><path d="M175,54L168,53L170,34Z" fill="rgb(222, 253, 255)" fill-opacity="0.65"/><path d="M58,154L74,128L115,151Z" fill="rgb(245, 245, 245)" fill-opacity="0.91"/><path d="M171,74L187,89L162,90Z" fill="rgb(41, 227, 181)" fill-opacity="0.72"/><path d="M179,35L229,28L207,-63Z" fill="rgb(244, 245, 245)" fill-opacity="0.63"/><path d="M175,49L170,56L167,42Z" fill="rgb(241, 255, 255)" fill-opacity="0.41"/><path d="M37,143L69,136L58,127Z" fill="rgb(247, 247, 247)" fill-opacity="0.65"/><path d="M157,22L136,32L136,55Z" fill="rgb(250, 13, 0)" fill-opacity="0.80"/><path d="M212,131L194,121L210,138Z" fill="rgb(77, 19, 49)" fill-opacity="0.66"/><path d="M51,25L31,41L71,27Z" fill="rgb(255, 13, 0)" fill-opacity="0.49"/><path d="M215,48L234,13L241,26Z" fill="rgb(219, 22, 11)" fill-opacity="1.00"/><path d="M74,122L92,129L100,137Z" fill="rgb(46, 46, 45)" fill-opacity="0.42"/><path d="M66,22L55,56L114,18Z" fill="rgb(1, 0, 0)" fill-opacity="0.98"/><path d="M177,75L173,39L189,43Z" fill="rgb(244, 9, 0)" fill-opacity="0.65"/><path d="M225,78L215,86L218,85Z" fill="rgb(76, 56, 69)" fill-opacity="0.50"/><path d="M191,84L167,90L183,67Z" fill="rgb(54, 227, 181)" fill-opacity="0.86"/><path d="M38,113L46,108L58,122Z" fill="rgb(0, 4, 4)" fill-opacity="0.74"/><path d="M76,106L98,111L80,129Z" fill="rgb(248, 249, 249)" fill-opacity="0.73"/><path d="M189,128L256,187L215,139Z" fill="rgb(239, 240, 240)" fill-opacity="0.79"/><path d="M143,18L141,21L129,20Z" fill="rgb(135, 5, 0)" fill-opacity="0.53"/><path d="M189,-29L211,43L131,11Z" fill="rgb(246, 246, 246)" fill-opacity="0.74"/><path d="M98,115L106,124L112,96Z" fill="rgb(87, 18, 55)" fill-opacity="0.70"/><path d="M152,23L137,20L142,64Z" fill="rgb(248, 16, 2)" fill-opacity="0.99"/><path d="M172,30L195,-38L166,29Z" fill="rgb(244, 243, 243)" fill-opacity="1.00"/><path d="M168,71L165,84L159,97Z" fill="rgb(88, 34, 24)" fill-opacity="0.60"/><path d="M34,71L40,116L-60,147Z" fill="rgb(246, 247, 247)" fill-opacity="0.62"/><path d="M251,12L336,-409L197,18Z" fill="rgb(245, 245, 245)" fill-opacity="1.00"/><path d="M46,88L-18,72L51,111Z" fill="rgb(243, 243, 243)" fill-opacity="0.90"/><path d="M42,88L41,112L-46,113Z" fill="rgb(246, 246, 246)" fill-opacity="0.95"/><path d="M68,19L134,19L136,42Z" fill="rgb(1, 0, 0)" fill-opacity="0.81"/><path d="M195,55L150,56L192,71Z" fill="rgb(243, 13, 0)" fill-opacity="0.61"/><path d="M221,51L237,41L222,55Z" fill="rgb(13, 62, 71)" fill-opacity="0.34"/><path d="M228,46L202,64L213,30Z" fill="rgb(234, 12, 0)" fill-opacity="0.81"/><path d="M27,139L16,142L15,136Z" fill="rgb(179, 179, 179)" fill-opacity="0.50"/><path d="M68,52L142,66L145,100Z" fill="rgb(1, 1, 1)" fill-opacity="0.94"/><path d="M198,125L205,135L199,87Z" fill="rgb(77, 9, 43)" fill-opacity="0.64"/></svg>