<svg xmlns="http://www.w3.org/2000/svg" viewBox="0 0 256 143.0214876033058" clip-path="url(#clip)"><defs><clipPath id="clip" clipPathUnits="objectBoundingBox"><rect x="0" y="0" width="256" height="143.0214876033058"/></clipPath></defs><rect x="0" y="0" width="256" height="143.0214876033058" fill="#f6f6f6"/><path d="M33,5L44,190L252,44Z" fill="rgb(100, 34, 33)" fill-opacity="0.87"/><path d="M12,255L189,127L58,103Z" fill="rgb(228, 247, 247)" fill-opacity="0.75"/><path d="M195,74L39,92L211,132Z" fill="rgb(0, 0, 7)" fill-opacity="0.71"/><path d="M180,77L41,2L126,138Z" fill="rgb(36, 0, 0)" fill-opacity="0.90"/><path d="M97,83L239,14L235,67Z" fill="rgb(250, 63, 60)" fill-opacity="0.74"/><path d="M80,114L23,71L30,107Z" fill="rgb(248, 244, 244)" fill-opacity="0.90"/><path d="M196,115L166,114L224,279Z" fill="rgb(243, 243, 243)" fill-opacity="0.92"/><path d="M224,119L219,55L274,18Z" fill="rgb(240, 241, 244)" fill-opacity="0.96"/><path d="M59,128L54,109L33,129Z" fill="rgb(0, 6, 6)" fill-opacity="0.88"/><path d="M173,99L61,60L103,121Z" fill="rgb(0, 0, 0)" fill-opacity="0.93"/><path d="M222,56L141,87L133,15Z" fill="rgb(237, 31, 21)" fill-opacity="0.90"/><path d="M63,20L56,105L24,48Z" fill="rgb(255, 14, 0)" fill-opacity="0.80"/><path d="M213,95L226,43L155,121Z" fill="rgb(0, 0, 1)" fill-opacity="0.67"/><path d="M140,20L73,108L60,14Z" fill="rgb(0, 0, 0)" fill-opacity="0.91"/><path d="M228,22L188,57L152,-115Z" fill="rgb(243, 241, 241)" fill-opacity="0.90"/><path d="M-28,-95L45,-3L24,70Z" fill="rgb(243, 241, 241)" fill-opacity="0.95"/><path d="M212,127L169,75L209,140Z" fill="rgb(4, 5, 11)" fill-opacity="0.86"/><path d="M159,82L191,66L191,80Z" fill="rgb(25, 0, 209)" fill-opacity="0.90"/><path d="M9,116L53,94L70,105Z" fill="rgb(241, 243, 243)" fill-opacity="0.88"/><path d="M57,96L70,51L29,31Z" fill="rgb(247, 14, 0)" fill-opacity="0.86"/><path d="M39,9L45,26L97,17Z" fill="rgb(3, 2, 2)" fill-opacity="0.90"/><path d="M120,128L133,160L14,139Z" fill="rgb(233, 233, 233)" fill-opacity="1.00"/><path d="M212,32L193,78L244,22Z" fill="rgb(224, 16, 5)" fill-opacity="0.91"/><path d="M5,-56L42,9L73,0Z" fill="rgb(242, 242, 242)" fill-opacity="0.99"/><path d="M137,59L134,19L57,92Z" fill="rgb(4, 0, 0)" fill-opacity="1.00"/><path d="M34,80L30,44L60,93Z" fill="rgb(252, 15, 1)" fill-opacity="0.72"/><path d="M58,82L115,19L84,108Z" fill="rgb(0, 0, 0)" fill-opacity="0.86"/><path d="M178,22L167,45L171,58Z" fill="rgb(220, 173, 171)" fill-opacity="1.00"/><path d="M29,50L38,22L66,29Z" fill="rgb(243, 19, 5)" fill-opacity="0.95"/><path d="M114,61L114,80L174,84Z" fill="rgb(252, 7, 0)" fill-opacity="0.74"/><path d="M234,32L285,8L224,112Z" fill="rgb(245, 246, 246)" fill-opacity="0.79"/><path d="M81,205L144,121L196,120Z" fill="rgb(246, 246, 246)" fill-opacity="0.93"/><path d="M146,7L137,24L120,1Z" fill="rgb(251, 238, 237)" fill-opacity="0.58"/><path d="M56,114L93,104L96,164Z" fill="rgb(250, 251, 251)" fill-opacity="0.70"/><path d="M-1,107L42,-59L39,21Z" fill="rgb(245, 245, 245)" fill-opacity="0.99"/><path d="M101,136L97,142L85,124Z" fill="rgb(11, 10, 10)" fill-opacity="0.34"/><path d="M74,136L60,124L66,134Z" fill="rgb(6, 6, 6)" fill-opacity="0.52"/><path d="M30,142L44,132L15,117Z" fill="rgb(232, 233, 233)" fill-opacity="0.91"/><path d="M178,32L209,32L166,37Z" fill="rgb(244, 255, 254)" fill-opacity="0.39"/><path d="M190,40L182,67L175,48Z" fill="rgb(228, 15, 2)" fill-opacity="0.59"/><path d="M130,143L85,105L111,160Z" fill="rgb(246, 246, 246)" fill-opacity="0.89"/><path d="M153,31L170,28L155,21Z" fill="rgb(205, 163, 162)" fill-opacity="1.00"/><path d="M167,46L176,47L171,58Z" fill="rgb(213, 251, 252)" fill-opacity="0.45"/><path d="M201,104L224,161L215,88Z" fill="rgb(241, 241, 241)" fill-opacity="0.77"/><path d="M223,52L217,49L219,68Z" fill="rgb(43, 10, 244)" fill-opacity="0.55"/><path d="M162,119L218,65L109,118Z" fill="rgb(0, 0, 0)" fill-opacity="0.98"/><path d="M193,115L222,78L115,86Z" fill="rgb(1, 1, 1)" fill-opacity="0.88"/><path d="M204,39L187,68L199,76Z" fill="rgb(232, 13, 0)" fill-opacity="0.74"/><path d="M123,136L133,139L107,57Z" fill="rgb(4, 4, 4)" fill-opacity="0.87"/><path d="M106,118L63,82L146,81Z" fill="rgb(0, 0, 0)" fill-opacity="0.86"/><path d="M133,19L157,23L145,85Z" fill="rgb(245, 7, 0)" fill-opacity="0.64"/><path d="M58,48L138,19L62,31Z" fill="rgb(4, 0, 0)" fill-opacity="0.94"/><path d="M208,46L132,81L220,57Z" fill="rgb(240, 14, 1)" fill-opacity="0.97"/><path d="M235,12L227,17L239,32Z" fill="rgb(218, 5, 0)" fill-opacity="0.65"/><path d="M189,47L163,85L144,68Z" fill="rgb(238, 13, 0)" fill-opacity="0.82"/><path d="M133,38L179,28L181,32Z" fill="rgb(221, 21, 9)" fill-opacity="0.70"/><path d="M211,90L253,195L202,111Z" fill="rgb(243, 243, 243)" fill-opacity="1.00"/><path d="M38,117L51,131L47,106Z" fill="rgb(0, 3, 3)" fill-opacity="0.65"/><path d="M76,31L62,10L37,19Z" fill="rgb(0, 0, 0)" fill-opacity="0.61"/><path d="M283,35L222,-5L250,37Z" fill="rgb(244, 244, 244)" fill-opacity="1.00"/><path d="M145,84L140,17L169,46Z" fill="rgb(244, 13, 0)" fill-opacity="0.80"/><path d="M210,48L236,14L228,51Z" fill="rgb(220, 15, 4)" fill-opacity="0.83"/><path d="M129,131L149,117L114,118Z" fill="rgb(4, 6, 6)" fill-opacity="0.89"/><path d="M220,87L200,69L210,62Z" fill="rgb(4, 0, 0)" fill-opacity="0.75"/><path d="M234,42L228,36L240,29Z" fill="rgb(187, 255, 255)" fill-opacity="0.37"/><path d="M30,64L46,103L24,137Z" fill="rgb(241, 243, 243)" fill-opacity="0.76"/><path d="M79,162L63,103L93,110Z" fill="rgb(243, 243, 243)" fill-opacity="0.78"/><path d="M95,140L101,137L95,132Z" fill="rgb(1, 1, 1)" fill-opacity="0.59"/><path d="M72,105L72,47L58,97Z" fill="rgb(0, 0, 0)" fill-opacity="0.66"/><path d="M55,94L70,115L44,108Z" fill="rgb(248, 249, 249)" fill-opacity="0.62"/><path d="M71,105L85,107L60,83Z" fill="rgb(2, 2, 2)" fill-opacity="0.99"/><path d="M110,117L122,132L92,133Z" fill="rgb(245, 245, 245)" fill-opacity="0.82"/><path d="M223,20L173,12L192,54Z" fill="rgb(245, 249, 249)" fill-opacity="0.66"/><path d="M45,108L57,118L43,135Z" fill="rgb(0, 0, 0)" fill-opacity="0.72"/><path d="M156,179L146,119L158,119Z" fill="rgb(247, 249, 249)" fill-opacity="0.71"/><path d="M65,76L46,97L57,34Z" fill="rgb(251, 14, 0)" fill-opacity="0.66"/><path d="M242,126L218,71L254,35Z" fill="rgb(245, 245, 245)" fill-opacity="0.89"/><path d="M105,64L126,66L137,31Z" fill="rgb(0, 0, 0)" fill-opacity="0.78"/><path d="M226,35L242,25L230,14Z" fill="rgb(229, 9, 0)" fill-opacity="0.66"/><path d="M220,66L218,74L197,38Z" fill="rgb(228, 44, 42)" fill-opacity="0.45"/><path d="M226,28L187,38L237,-18Z" fill="rgb(244, 244, 244)" fill-opacity="0.95"/><path d="M229,41L224,48L237,44Z" fill="rgb(163, 17, 8)" fill-opacity="0.60"/><path d="M211,126L200,130L211,137Z" fill="rgb(10, 10, 9)" fill-opacity="0.81"/><path d="M232,46L223,49L229,52Z" fill="rgb(168, 168, 172)" fill-opacity="0.56"/><path d="M221,72L218,74L215,65Z" fill="rgb(122, 186, 187)" fill-opacity="0.52"/><path d="M147,121L133,127L129,164Z" fill="rgb(244, 244, 244)" fill-opacity="0.71"/><path d="M199,128L203,115L194,75Z" fill="rgb(1, 1, 1)" fill-opacity="0.89"/><path d="M239,186L204,147L209,135Z" fill="rgb(234, 234, 234)" fill-opacity="0.75"/><path d="M190,79L184,67L166,82Z" fill="rgb(0, 0, 240)" fill-opacity="0.78"/><path d="M178,113L183,114L141,165Z" fill="rgb(243, 244, 244)" fill-opacity="0.78"/><path d="M173,39L177,77L183,35Z" fill="rgb(238, 12, 2)" fill-opacity="0.85"/><path d="M50,131L42,137L27,141Z" fill="rgb(117, 117, 117)" fill-opacity="0.97"/><path d="M125,19L140,66L112,65Z" fill="rgb(3, 0, 0)" fill-opacity="1.00"/><path d="M39,123L26,120L43,120Z" fill="rgb(193, 199, 199)" fill-opacity="0.72"/><path d="M157,25L172,23L152,31Z" fill="rgb(210, 249, 250)" fill-opacity="0.49"/><path d="M46,46L70,49L63,80Z" fill="rgb(253, 12, 0)" fill-opacity="0.60"/><path d="M96,17L65,11L202,23Z" fill="rgb(232, 233, 233)" fill-opacity="0.76"/><path d="M50,11L43,10L42,7Z" fill="rgb(219, 250, 250)" fill-opacity="0.43"/><path d="M139,16L96,13L117,20Z" fill="rgb(250, 255, 255)" fill-opacity="0.31"/><path d="M49,130L47,199L62,129Z" fill="rgb(249, 249, 249)" fill-opacity="0.84"/></svg>