<svg xmlns="http://www.w3.org/2000/svg" viewBox="0 0 256 143.0214876033058" clip-path="url(#clip)"><defs><clipPath id="clip" clipPathUnits="objectBoundingBox"><rect x="0" y="0" width="256" height="143.0214876033058"/></clipPath></defs><rect x="0" y="0" width="256" height="143.0214876033058" fill="#f6f6f6"/><path d="M248,42L13,2L105,177Z" fill="rgb(96, 15, 32)" fill-opacity="0.86"/><path d="M175,140L44,95L28,154Z" fill="rgb(197, 197, 197)" fill-opacity="1.00"/><path d="M100,55L236,26L202,129Z" fill="rgb(192, 29, 55)" fill-opacity="0.85"/><path d="M152,114L218,178L112,148Z" fill="rgb(234, 236, 243)" fill-opacity="0.90"/><path d="M34,80L69,105L30,31Z" fill="rgb(224, 29, 20)" fill-opacity="0.99"/><path d="M16,-57L45,29L-42,61Z" fill="rgb(235, 239, 252)" fill-opacity="0.88"/><path d="M179,21L189,56L216,34Z" fill="rgb(230, 233, 245)" fill-opacity="0.91"/><path d="M153,49L48,6L29,43Z" fill="rgb(0, 0, 52)" fill-opacity="0.91"/><path d="M297,-3L208,165L222,53Z" fill="rgb(243, 243, 244)" fill-opacity="0.94"/><path d="M148,96L128,140L38,7Z" fill="rgb(10, 2, 8)" fill-opacity="0.99"/><path d="M44,105L66,130L35,129Z" fill="rgb(3, 3, 3)" fill-opacity="0.78"/><path d="M212,86L200,45L241,8Z" fill="rgb(86, 3, 99)" fill-opacity="0.59"/><path d="M224,51L201,46L218,29Z" fill="rgb(4, 12, 252)" fill-opacity="0.80"/><path d="M204,99L257,47L203,118Z" fill="rgb(242, 240, 239)" fill-opacity="0.95"/><path d="M170,118L146,100L149,120Z" fill="rgb(2, 7, 232)" fill-opacity="0.86"/><path d="M191,44L132,14L147,105Z" fill="rgb(254, 25, 6)" fill-opacity="0.79"/><path d="M223,44L230,12L242,25Z" fill="rgb(217, 31, 19)" fill-opacity="0.96"/><path d="M182,85L207,104L186,112Z" fill="rgb(3, 6, 247)" fill-opacity="0.86"/><path d="M215,135L204,137L197,102Z" fill="rgb(216, 3, 6)" fill-opacity="0.72"/><path d="M71,34L39,20L30,44Z" fill="rgb(15, 7, 255)" fill-opacity="0.76"/><path d="M136,55L135,19L41,15Z" fill="rgb(0, 0, 0)" fill-opacity="0.85"/><path d="M27,147L90,102L137,168Z" fill="rgb(254, 255, 255)" fill-opacity="0.58"/><path d="M167,40L178,26L170,59Z" fill="rgb(211, 195, 194)" fill-opacity="0.79"/><path d="M163,81L190,67L191,81Z" fill="rgb(9, 0, 219)" fill-opacity="0.94"/><path d="M113,83L115,50L223,56Z" fill="rgb(240, 14, 0)" fill-opacity="0.95"/><path d="M178,114L163,84L155,112Z" fill="rgb(18, 0, 0)" fill-opacity="0.76"/><path d="M145,118L57,98L80,15Z" fill="rgb(0, 0, 0)" fill-opacity="0.91"/><path d="M222,80L211,59L192,78Z" fill="rgb(25, 2, 1)" fill-opacity="0.76"/><path d="M36,126L47,137L57,106Z" fill="rgb(0, 0, 0)" fill-opacity="0.57"/><path d="M151,113L99,120L98,65Z" fill="rgb(0, 0, 0)" fill-opacity="0.85"/><path d="M50,99L71,51L30,39Z" fill="rgb(254, 14, 0)" fill-opacity="0.89"/><path d="M228,26L227,-24L182,43Z" fill="rgb(244, 244, 244)" fill-opacity="0.97"/><path d="M94,117L33,107L51,94Z" fill="rgb(242, 242, 242)" fill-opacity="0.92"/><path d="M168,83L187,80L173,118Z" fill="rgb(234, 13, 1)" fill-opacity="0.84"/><path d="M157,31L150,22L171,25Z" fill="rgb(206, 161, 159)" fill-opacity="1.00"/><path d="M116,53L113,81L166,81Z" fill="rgb(246, 13, 0)" fill-opacity="0.95"/><path d="M38,82L30,42L30,57Z" fill="rgb(218, 36, 26)" fill-opacity="1.00"/><path d="M185,108L203,111L190,87Z" fill="rgb(0, 0, 248)" fill-opacity="0.78"/><path d="M204,101L223,77L182,80Z" fill="rgb(229, 15, 0)" fill-opacity="0.83"/><path d="M98,111L58,127L56,102Z" fill="rgb(242, 242, 242)" fill-opacity="1.00"/><path d="M58,47L64,24L30,37Z" fill="rgb(3, 2, 248)" fill-opacity="0.89"/><path d="M53,106L36,94L31,69Z" fill="rgb(233, 234, 234)" fill-opacity="0.66"/><path d="M223,53L210,62L219,73Z" fill="rgb(0, 56, 208)" fill-opacity="0.57"/><path d="M190,113L198,121L101,236Z" fill="rgb(244, 243, 243)" fill-opacity="0.99"/><path d="M58,129L56,110L36,112Z" fill="rgb(0, 0, 0)" fill-opacity="0.65"/><path d="M43,-1L22,76L-82,-110Z" fill="rgb(245, 245, 245)" fill-opacity="0.96"/><path d="M145,103L159,101L154,121Z" fill="rgb(0, 1, 243)" fill-opacity="0.87"/><path d="M97,97L132,140L132,130Z" fill="rgb(0, 2, 1)" fill-opacity="0.71"/><path d="M135,160L82,163L114,117Z" fill="rgb(249, 249, 249)" fill-opacity="0.76"/><path d="M219,46L169,60L198,74Z" fill="rgb(239, 13, 0)" fill-opacity="0.83"/><path d="M55,126L77,140L44,107Z" fill="rgb(12, 11, 11)" fill-opacity="0.41"/><path d="M311,-20L216,115L203,168Z" fill="rgb(245, 245, 245)" fill-opacity="1.00"/><path d="M-1,-1L92,-25L45,9Z" fill="rgb(242, 242, 242)" fill-opacity="1.00"/><path d="M168,53L169,-22L174,57Z" fill="rgb(232, 236, 235)" fill-opacity="0.52"/><path d="M132,81L114,49L106,51Z" fill="rgb(237, 13, 0)" fill-opacity="1.00"/><path d="M212,129L200,131L199,106Z" fill="rgb(239, 7, 0)" fill-opacity="0.64"/><path d="M206,118L212,90L201,106Z" fill="rgb(232, 230, 231)" fill-opacity="0.96"/><path d="M60,48L64,10L136,50Z" fill="rgb(0, 0, 0)" fill-opacity="0.90"/><path d="M142,123L60,80L144,81Z" fill="rgb(1, 0, 0)" fill-opacity="0.91"/><path d="M231,44L273,29L232,33Z" fill="rgb(242, 240, 239)" fill-opacity="0.76"/><path d="M96,17L39,20L41,9Z" fill="rgb(5, 6, 5)" fill-opacity="0.92"/><path d="M190,14L187,54L211,39Z" fill="rgb(241, 246, 247)" fill-opacity="0.67"/><path d="M190,68L163,83L194,79Z" fill="rgb(0, 0, 216)" fill-opacity="0.73"/><path d="M222,40L213,32L221,64Z" fill="rgb(0, 2, 240)" fill-opacity="0.82"/><path d="M97,142L89,127L99,135Z" fill="rgb(43, 42, 42)" fill-opacity="0.58"/><path d="M91,105L57,126L102,120Z" fill="rgb(244, 245, 244)" fill-opacity="0.76"/><path d="M27,116L-15,158L43,134Z" fill="rgb(237, 237, 237)" fill-opacity="0.78"/><path d="M209,41L208,18L178,34Z" fill="rgb(246, 245, 244)" fill-opacity="0.82"/><path d="M43,121L-25,108L-7,140Z" fill="rgb(242, 242, 242)" fill-opacity="0.87"/><path d="M334,68L223,-4L251,38Z" fill="rgb(245, 245, 245)" fill-opacity="1.00"/><path d="M157,23L140,20L131,79Z" fill="rgb(242, 14, 1)" fill-opacity="0.72"/><path d="M148,22L96,-6L127,17Z" fill="rgb(238, 236, 236)" fill-opacity="0.83"/><path d="M211,77L185,81L218,63Z" fill="rgb(10, 0, 7)" fill-opacity="0.74"/><path d="M171,112L172,84L190,115Z" fill="rgb(250, 8, 0)" fill-opacity="0.74"/><path d="M110,109L115,56L62,101Z" fill="rgb(0, 0, 0)" fill-opacity="0.76"/><path d="M202,49L222,46L200,41Z" fill="rgb(2, 7, 241)" fill-opacity="0.77"/><path d="M68,64L54,97L29,47Z" fill="rgb(250, 12, 0)" fill-opacity="0.71"/><path d="M148,92L141,78L193,88Z" fill="rgb(230, 9, 0)" fill-opacity="0.75"/><path d="M149,109L147,119L171,121Z" fill="rgb(14, 20, 223)" fill-opacity="0.67"/><path d="M155,32L181,29L129,58Z" fill="rgb(232, 11, 0)" fill-opacity="0.78"/><path d="M194,75L183,67L172,81Z" fill="rgb(4, 0, 238)" fill-opacity="0.80"/><path d="M200,108L189,111L179,86Z" fill="rgb(0, 0, 246)" fill-opacity="0.54"/><path d="M208,-8L194,17L150,31Z" fill="rgb(242, 241, 241)" fill-opacity="0.90"/><path d="M157,102L139,97L160,90Z" fill="rgb(254, 2, 0)" fill-opacity="0.62"/><path d="M96,111L66,47L152,120Z" fill="rgb(0, 0, 0)" fill-opacity="0.70"/><path d="M45,135L45,132L31,140Z" fill="rgb(21, 21, 21)" fill-opacity="0.53"/><path d="M168,88L172,95L157,113Z" fill="rgb(0, 0, 0)" fill-opacity="0.77"/><path d="M28,46L70,48L48,94Z" fill="rgb(250, 14, 0)" fill-opacity="0.68"/><path d="M209,138L207,118L190,109Z" fill="rgb(242, 13, 0)" fill-opacity="0.72"/><path d="M69,49L29,55L64,79Z" fill="rgb(246, 14, 0)" fill-opacity="0.77"/><path d="M167,118L172,89L157,97Z" fill="rgb(0, 0, 2)" fill-opacity="0.76"/><path d="M199,93L225,82L190,89Z" fill="rgb(239, 17, 1)" fill-opacity="0.47"/><path d="M36,25L59,25L47,45Z" fill="rgb(0, 0, 255)" fill-opacity="0.71"/><path d="M134,126L163,257L167,120Z" fill="rgb(250, 250, 248)" fill-opacity="0.71"/><path d="M103,101L72,106L110,25Z" fill="rgb(0, 0, 0)" fill-opacity="1.00"/><path d="M212,32L219,31L208,49Z" fill="rgb(0, 0, 243)" fill-opacity="0.74"/><path d="M22,140L17,138L34,140Z" fill="rgb(96, 96, 96)" fill-opacity="0.57"/><path d="M226,53L220,33L236,15Z" fill="rgb(227, 19, 2)" fill-opacity="0.76"/><path d="M148,113L98,112L135,127Z" fill="rgb(1, 2, 1)" fill-opacity="0.96"/><path d="M187,88L198,95L203,111Z" fill="rgb(0, 4, 231)" fill-opacity="0.64"/></svg>