<svg xmlns="http://www.w3.org/2000/svg" viewBox="0 0 256 143.0214876033058" clip-path="url(#clip)"><defs><clipPath id="clip" clipPathUnits="objectBoundingBox"><rect x="0" y="0" width="256" height="143.0214876033058"/></clipPath></defs><rect x="0" y="0" width="256" height="143.0214876033058" fill="#f6f6f6"/><path d="M-84,-6L191,152L229,32Z" fill="rgb(139, 54, 81)" fill-opacity="0.96"/><path d="M44,-4L-5,1L6,144Z" fill="rgb(245, 245, 244)" fill-opacity="0.99"/><path d="M144,118L333,117L111,160Z" fill="rgb(240, 225, 225)" fill-opacity="1.00"/><path d="M44,103L35,132L64,128Z" fill="rgb(24, 24, 24)" fill-opacity="0.86"/><path d="M60,106L65,5L152,103Z" fill="rgb(0, 0, 13)" fill-opacity="0.82"/><path d="M149,96L131,140L90,105Z" fill="rgb(10, 17, 255)" fill-opacity="0.87"/><path d="M241,13L230,50L161,78Z" fill="rgb(237, 20, 6)" fill-opacity="0.85"/><path d="M143,79L211,106L145,59Z" fill="rgb(17, 0, 225)" fill-opacity="0.83"/><path d="M101,120L151,119L112,80Z" fill="rgb(0, 1, 246)" fill-opacity="0.87"/><path d="M52,103L72,48L26,44Z" fill="rgb(255, 15, 0)" fill-opacity="0.87"/><path d="M190,68L168,77L196,114Z" fill="rgb(23, 1, 211)" fill-opacity="1.00"/><path d="M37,8L142,23L97,87Z" fill="rgb(13, 0, 0)" fill-opacity="0.90"/><path d="M172,12L191,55L218,27Z" fill="rgb(244, 242, 241)" fill-opacity="0.95"/><path d="M43,93L128,262L120,122Z" fill="rgb(225, 227, 231)" fill-opacity="0.82"/><path d="M30,35L60,23L61,104Z" fill="rgb(241, 14, 0)" fill-opacity="0.90"/><path d="M210,141L188,108L211,122Z" fill="rgb(228, 26, 20)" fill-opacity="0.86"/><path d="M179,27L122,88L106,53Z" fill="rgb(219, 11, 0)" fill-opacity="0.91"/><path d="M150,121L190,104L142,81Z" fill="rgb(237, 9, 0)" fill-opacity="0.90"/><path d="M134,14L229,82L138,60Z" fill="rgb(255, 18, 1)" fill-opacity="0.71"/><path d="M187,85L203,101L224,75Z" fill="rgb(225, 21, 12)" fill-opacity="1.00"/><path d="M133,18L52,46L138,51Z" fill="rgb(1, 0, 0)" fill-opacity="0.86"/><path d="M144,81L111,81L144,99Z" fill="rgb(0, 0, 9)" fill-opacity="0.92"/><path d="M170,61L181,18L165,16Z" fill="rgb(238, 240, 232)" fill-opacity="0.56"/><path d="M36,81L60,98L31,42Z" fill="rgb(245, 19, 5)" fill-opacity="0.96"/><path d="M-3,213L176,113L196,117Z" fill="rgb(240, 239, 239)" fill-opacity="0.89"/><path d="M148,118L169,122L159,78Z" fill="rgb(221, 15, 6)" fill-opacity="0.79"/><path d="M171,105L141,98L189,87Z" fill="rgb(236, 8, 0)" fill-opacity="0.63"/><path d="M64,126L74,138L61,129Z" fill="rgb(3, 1, 0)" fill-opacity="0.59"/><path d="M155,64L190,43L166,81Z" fill="rgb(236, 17, 5)" fill-opacity="0.91"/><path d="M205,108L179,80L187,112Z" fill="rgb(2, 4, 245)" fill-opacity="0.83"/><path d="M224,36L243,28L231,9Z" fill="rgb(204, 6, 0)" fill-opacity="0.59"/><path d="M58,126L54,106L39,139Z" fill="rgb(5, 5, 5)" fill-opacity="0.66"/><path d="M288,254L212,90L200,108Z" fill="rgb(243, 242, 243)" fill-opacity="0.95"/><path d="M157,32L165,-57L210,-7Z" fill="rgb(243, 242, 242)" fill-opacity="0.89"/><path d="M176,28L173,47L189,46Z" fill="rgb(250, 29, 6)" fill-opacity="0.67"/><path d="M131,127L136,160L220,138Z" fill="rgb(245, 248, 247)" fill-opacity="0.79"/><path d="M106,29L53,7L44,8Z" fill="rgb(8, 10, 10)" fill-opacity="0.87"/><path d="M183,67L164,91L196,75Z" fill="rgb(0, 0, 246)" fill-opacity="0.63"/><path d="M11,108L58,97L77,110Z" fill="rgb(243, 243, 243)" fill-opacity="1.00"/><path d="M98,112L30,208L87,104Z" fill="rgb(238, 238, 238)" fill-opacity="1.00"/><path d="M96,131L94,139L100,138Z" fill="rgb(0, 0, 0)" fill-opacity="0.64"/><path d="M28,43L38,97L-90,-88Z" fill="rgb(245, 244, 244)" fill-opacity="1.00"/><path d="M123,80L98,116L106,122Z" fill="rgb(7, 7, 233)" fill-opacity="0.97"/><path d="M62,19L80,105L110,106Z" fill="rgb(0, 0, 0)" fill-opacity="0.89"/><path d="M202,115L159,113L203,109Z" fill="rgb(228, 10, 0)" fill-opacity="0.72"/><path d="M168,91L137,63L155,62Z" fill="rgb(0, 0, 236)" fill-opacity="0.70"/><path d="M234,30L291,283L220,76Z" fill="rgb(242, 244, 244)" fill-opacity="0.69"/><path d="M144,81L135,50L111,80Z" fill="rgb(242, 13, 0)" fill-opacity="0.95"/><path d="M57,128L35,118L54,109Z" fill="rgb(0, 0, 0)" fill-opacity="0.71"/><path d="M149,108L142,124L107,104Z" fill="rgb(0, 0, 255)" fill-opacity="0.64"/><path d="M108,101L89,16L57,97Z" fill="rgb(0, 0, 0)" fill-opacity="1.00"/><path d="M214,30L192,76L209,97Z" fill="rgb(241, 5, 0)" fill-opacity="0.66"/><path d="M38,23L29,57L69,27Z" fill="rgb(247, 12, 0)" fill-opacity="0.74"/><path d="M207,117L204,134L197,124Z" fill="rgb(217, 16, 4)" fill-opacity="0.78"/><path d="M31,140L36,124L43,139Z" fill="rgb(200, 200, 200)" fill-opacity="0.96"/><path d="M48,6L38,20L84,33Z" fill="rgb(0, 3, 1)" fill-opacity="0.74"/><path d="M69,49L64,79L32,48Z" fill="rgb(247, 14, 0)" fill-opacity="0.94"/><path d="M142,63L163,80L144,85Z" fill="rgb(0, 0, 254)" fill-opacity="0.72"/><path d="M230,14L242,25L225,40Z" fill="rgb(221, 20, 9)" fill-opacity="0.95"/><path d="M133,129L117,126L117,80Z" fill="rgb(0, 0, 248)" fill-opacity="0.85"/><path d="M225,37L236,44L211,61Z" fill="rgb(185, 21, 16)" fill-opacity="0.77"/><path d="M116,66L111,56L78,109Z" fill="rgb(0, 0, 0)" fill-opacity="0.61"/><path d="M53,128L48,132L60,129Z" fill="rgb(252, 252, 252)" fill-opacity="0.66"/><path d="M221,67L212,67L209,58Z" fill="rgb(2, 0, 160)" fill-opacity="0.71"/><path d="M221,86L211,64L192,84Z" fill="rgb(240, 12, 0)" fill-opacity="0.66"/><path d="M69,12L124,9L22,0Z" fill="rgb(242, 242, 242)" fill-opacity="1.00"/><path d="M242,14L237,24L237,-8Z" fill="rgb(242, 253, 253)" fill-opacity="0.68"/><path d="M-269,-199L41,6L22,72Z" fill="rgb(245, 245, 245)" fill-opacity="1.00"/><path d="M55,110L33,129L57,123Z" fill="rgb(0, 0, 0)" fill-opacity="0.64"/><path d="M174,-16L80,15L109,18Z" fill="rgb(239, 241, 240)" fill-opacity="0.71"/><path d="M58,127L96,105L58,111Z" fill="rgb(248, 248, 250)" fill-opacity="0.71"/><path d="M138,31L178,30L135,56Z" fill="rgb(234, 15, 3)" fill-opacity="1.00"/><path d="M92,129L97,134L74,122Z" fill="rgb(68, 67, 65)" fill-opacity="0.46"/><path d="M135,126L120,188L154,118Z" fill="rgb(243, 242, 242)" fill-opacity="0.91"/><path d="M144,96L120,89L123,96Z" fill="rgb(0, 0, 4)" fill-opacity="0.90"/><path d="M195,24L211,39L185,56Z" fill="rgb(242, 237, 236)" fill-opacity="0.73"/><path d="M133,20L158,70L152,22Z" fill="rgb(241, 12, 0)" fill-opacity="0.78"/><path d="M126,134L144,101L149,115Z" fill="rgb(0, 0, 235)" fill-opacity="0.64"/><path d="M207,-5L90,5L135,20Z" fill="rgb(245, 245, 245)" fill-opacity="0.94"/><path d="M123,134L112,116L72,189Z" fill="rgb(247, 247, 247)" fill-opacity="0.83"/><path d="M309,-113L162,25L208,38Z" fill="rgb(245, 246, 246)" fill-opacity="0.88"/><path d="M212,32L218,67L231,27Z" fill="rgb(220, 10, 0)" fill-opacity="0.70"/><path d="M186,111L180,88L145,119Z" fill="rgb(239, 12, 0)" fill-opacity="0.79"/><path d="M48,109L36,113L49,119Z" fill="rgb(2, 2, 2)" fill-opacity="0.64"/><path d="M178,34L173,41L195,75Z" fill="rgb(241, 16, 3)" fill-opacity="1.00"/><path d="M199,63L201,42L233,42Z" fill="rgb(238, 14, 1)" fill-opacity="0.91"/><path d="M85,107L70,105L57,91Z" fill="rgb(12, 8, 8)" fill-opacity="0.96"/><path d="M201,108L197,124L213,134Z" fill="rgb(242, 14, 0)" fill-opacity="0.66"/><path d="M53,94L100,124L29,103Z" fill="rgb(244, 244, 243)" fill-opacity="0.73"/><path d="M42,24L129,24L53,9Z" fill="rgb(2, 2, 2)" fill-opacity="0.98"/><path d="M118,50L135,19L80,19Z" fill="rgb(0, 0, 0)" fill-opacity="0.88"/><path d="M130,125L118,90L101,113Z" fill="rgb(0, 0, 253)" fill-opacity="0.89"/><path d="M49,133L37,124L47,135Z" fill="rgb(18, 18, 18)" fill-opacity="1.00"/><path d="M160,91L187,88L191,68Z" fill="rgb(0, 0, 250)" fill-opacity="0.59"/><path d="M225,-55L229,14L244,14Z" fill="rgb(245, 246, 246)" fill-opacity="0.94"/><path d="M199,13L150,-9L169,31Z" fill="rgb(245, 245, 245)" fill-opacity="0.90"/><path d="M144,84L162,83L149,119Z" fill="rgb(240, 13, 0)" fill-opacity="0.83"/><path d="M181,90L187,117L163,91Z" fill="rgb(240, 13, 0)" fill-opacity="0.90"/><path d="M199,148L165,114L197,118Z" fill="rgb(243, 249, 249)" fill-opacity="0.71"/><path d="M67,18L59,45L108,67Z" fill="rgb(1, 0, 0)" fill-opacity="1.00"/></svg>