<svg xmlns="http://www.w3.org/2000/svg" viewBox="0 0 256 143.0214876033058" clip-path="url(#clip)"><defs><clipPath id="clip" clipPathUnits="objectBoundingBox"><rect x="0" y="0" width="256" height="143.0214876033058"/></clipPath></defs><rect x="0" y="0" width="256" height="143.0214876033058" fill="#f6f6f6"/><path d="M281,47L35,5L39,165Z" fill="rgb(112, 42, 93)" fill-opacity="0.91"/><path d="M118,122L173,256L30,87Z" fill="rgb(233, 237, 239)" fill-opacity="0.94"/><path d="M23,133L-2,215L97,125Z" fill="rgb(225, 227, 225)" fill-opacity="0.92"/><path d="M267,17L237,189L218,58Z" fill="rgb(244, 245, 246)" fill-opacity="0.96"/><path d="M35,4L31,91L228,57Z" fill="rgb(144, 5, 0)" fill-opacity="0.77"/><path d="M206,113L178,53L90,118Z" fill="rgb(26, 0, 198)" fill-opacity="0.90"/><path d="M205,63L241,26L233,11Z" fill="rgb(185, 23, 53)" fill-opacity="0.96"/><path d="M144,99L143,72L41,94Z" fill="rgb(29, 0, 25)" fill-opacity="0.84"/><path d="M223,63L208,34L221,29Z" fill="rgb(12, 5, 221)" fill-opacity="0.81"/><path d="M213,33L182,30L189,57Z" fill="rgb(251, 249, 246)" fill-opacity="0.87"/><path d="M177,110L214,140L204,110Z" fill="rgb(233, 48, 31)" fill-opacity="0.80"/><path d="M53,102L26,62L3,140Z" fill="rgb(245, 244, 244)" fill-opacity="0.91"/><path d="M180,32L127,16L167,81Z" fill="rgb(227, 41, 34)" fill-opacity="0.98"/><path d="M130,130L151,117L387,374Z" fill="rgb(243, 242, 242)" fill-opacity="0.96"/><path d="M68,91L140,19L62,17Z" fill="rgb(2, 0, 0)" fill-opacity="0.89"/><path d="M221,56L215,89L162,80Z" fill="rgb(0, 0, 228)" fill-opacity="0.89"/><path d="M100,120L145,125L113,78Z" fill="rgb(0, 6, 255)" fill-opacity="0.80"/><path d="M58,101L61,21L26,50Z" fill="rgb(255, 17, 0)" fill-opacity="0.86"/><path d="M-4,-73L22,60L46,4Z" fill="rgb(241, 244, 244)" fill-opacity="0.85"/><path d="M153,82L85,78L89,55Z" fill="rgb(255, 13, 3)" fill-opacity="0.86"/><path d="M142,104L158,101L165,126Z" fill="rgb(239, 21, 3)" fill-opacity="0.76"/><path d="M58,108L47,138L36,117Z" fill="rgb(0, 14, 1)" fill-opacity="0.73"/><path d="M157,82L116,122L128,140Z" fill="rgb(0, 4, 248)" fill-opacity="0.87"/><path d="M169,121L155,63L139,63Z" fill="rgb(5, 2, 234)" fill-opacity="1.00"/><path d="M180,53L182,68L220,55Z" fill="rgb(251, 16, 3)" fill-opacity="0.84"/><path d="M135,23L43,25L39,8Z" fill="rgb(7, 5, 5)" fill-opacity="0.99"/><path d="M67,106L66,52L110,104Z" fill="rgb(1, 0, 0)" fill-opacity="0.91"/><path d="M149,101L148,118L170,121Z" fill="rgb(221, 22, 18)" fill-opacity="1.00"/><path d="M64,78L33,82L70,45Z" fill="rgb(245, 15, 1)" fill-opacity="0.90"/><path d="M215,89L203,86L193,113Z" fill="rgb(140, 0, 66)" fill-opacity="0.64"/><path d="M142,45L143,84L95,61Z" fill="rgb(255, 12, 0)" fill-opacity="0.70"/><path d="M135,25L59,41L136,52Z" fill="rgb(3, 0, 0)" fill-opacity="1.00"/><path d="M134,40L188,41L187,57Z" fill="rgb(241, 52, 41)" fill-opacity="0.90"/><path d="M101,137L97,142L90,128Z" fill="rgb(44, 44, 41)" fill-opacity="0.56"/><path d="M197,49L212,38L229,47Z" fill="rgb(0, 3, 251)" fill-opacity="0.78"/><path d="M172,62L175,28L167,47Z" fill="rgb(185, 216, 252)" fill-opacity="0.71"/><path d="M67,129L37,118L72,135Z" fill="rgb(43, 43, 43)" fill-opacity="1.00"/><path d="M164,81L140,84L153,61Z" fill="rgb(0, 0, 245)" fill-opacity="0.72"/><path d="M159,21L174,29L153,30Z" fill="rgb(213, 188, 187)" fill-opacity="1.00"/><path d="M171,246L188,113L198,119Z" fill="rgb(240, 240, 240)" fill-opacity="0.93"/><path d="M30,58L62,87L49,96Z" fill="rgb(249, 20, 5)" fill-opacity="0.88"/><path d="M190,88L205,103L210,88Z" fill="rgb(249, 21, 0)" fill-opacity="0.83"/><path d="M109,127L163,158L84,154Z" fill="rgb(243, 244, 244)" fill-opacity="0.93"/><path d="M116,144L93,105L64,111Z" fill="rgb(242, 243, 245)" fill-opacity="0.90"/><path d="M135,18L137,65L169,47Z" fill="rgb(241, 14, 2)" fill-opacity="1.00"/><path d="M290,90L233,32L230,89Z" fill="rgb(247, 247, 246)" fill-opacity="0.68"/><path d="M213,128L193,109L207,141Z" fill="rgb(232, 0, 0)" fill-opacity="0.61"/><path d="M67,67L68,105L58,94Z" fill="rgb(0, 2, 0)" fill-opacity="0.78"/><path d="M116,117L103,205L107,119Z" fill="rgb(243, 243, 243)" fill-opacity="0.81"/><path d="M31,55L-7,47L27,40Z" fill="rgb(244, 243, 243)" fill-opacity="0.89"/><path d="M174,62L157,112L203,108Z" fill="rgb(0, 0, 240)" fill-opacity="0.89"/><path d="M91,108L147,120L146,96Z" fill="rgb(0, 1, 246)" fill-opacity="0.88"/><path d="M29,49L40,19L60,34Z" fill="rgb(242, 16, 2)" fill-opacity="0.95"/><path d="M57,130L40,109L56,111Z" fill="rgb(0, 6, 2)" fill-opacity="0.79"/><path d="M181,56L187,70L219,46Z" fill="rgb(237, 15, 7)" fill-opacity="0.89"/><path d="M165,121L165,110L153,116Z" fill="rgb(236, 11, 0)" fill-opacity="0.81"/><path d="M53,8L89,16L142,19Z" fill="rgb(238, 244, 241)" fill-opacity="0.80"/><path d="M218,27L223,44L236,46Z" fill="rgb(201, 14, 0)" fill-opacity="0.72"/><path d="M169,62L173,52L194,87Z" fill="rgb(0, 3, 243)" fill-opacity="0.74"/><path d="M131,130L138,163L148,118Z" fill="rgb(237, 237, 237)" fill-opacity="0.94"/><path d="M57,130L107,152L28,144Z" fill="rgb(247, 247, 247)" fill-opacity="0.91"/><path d="M74,107L53,94L59,132Z" fill="rgb(238, 239, 238)" fill-opacity="0.87"/><path d="M63,75L108,108L108,80Z" fill="rgb(0, 0, 0)" fill-opacity="0.86"/><path d="M236,14L220,32L230,44Z" fill="rgb(234, 27, 7)" fill-opacity="0.77"/><path d="M194,63L217,85L222,58Z" fill="rgb(11, 13, 198)" fill-opacity="0.73"/><path d="M204,99L201,115L256,92Z" fill="rgb(245, 242, 241)" fill-opacity="0.78"/><path d="M211,136L191,112L202,109Z" fill="rgb(241, 15, 1)" fill-opacity="0.80"/><path d="M173,33L207,30L211,43Z" fill="rgb(241, 250, 251)" fill-opacity="0.54"/><path d="M159,23L139,43L133,20Z" fill="rgb(241, 17, 2)" fill-opacity="0.77"/><path d="M247,110L206,139L265,173Z" fill="rgb(245, 245, 245)" fill-opacity="0.95"/><path d="M119,86L144,80L144,99Z" fill="rgb(0, 0, 2)" fill-opacity="0.91"/><path d="M46,88L60,118L20,70Z" fill="rgb(236, 239, 238)" fill-opacity="0.59"/><path d="M37,138L44,136L52,120Z" fill="rgb(6, 9, 8)" fill-opacity="0.52"/><path d="M155,119L186,131L115,154Z" fill="rgb(245, 245, 245)" fill-opacity="0.93"/><path d="M173,43L193,73L179,30Z" fill="rgb(236, 19, 9)" fill-opacity="0.86"/><path d="M115,123L121,84L108,83Z" fill="rgb(2, 3, 252)" fill-opacity="0.85"/><path d="M170,42L184,28L167,37Z" fill="rgb(167, 245, 233)" fill-opacity="0.43"/><path d="M142,81L128,50L106,51Z" fill="rgb(255, 14, 0)" fill-opacity="0.73"/><path d="M144,102L158,100L143,62Z" fill="rgb(0, 0, 242)" fill-opacity="0.69"/><path d="M215,84L211,61L189,87Z" fill="rgb(0, 0, 247)" fill-opacity="0.75"/><path d="M37,83L32,35L54,25Z" fill="rgb(246, 15, 1)" fill-opacity="1.00"/><path d="M180,109L187,112L164,117Z" fill="rgb(206, 52, 0)" fill-opacity="0.48"/><path d="M19,2L19,-118L47,11Z" fill="rgb(240, 242, 242)" fill-opacity="0.79"/><path d="M172,71L137,27L165,82Z" fill="rgb(241, 6, 0)" fill-opacity="0.67"/><path d="M-100,-5L36,30L42,-1Z" fill="rgb(246, 246, 246)" fill-opacity="0.84"/><path d="M116,19L64,11L225,20Z" fill="rgb(239, 238, 237)" fill-opacity="0.87"/><path d="M10,126L44,119L-3,154Z" fill="rgb(236, 237, 236)" fill-opacity="0.57"/><path d="M243,107L265,61L215,69Z" fill="rgb(246, 246, 244)" fill-opacity="0.57"/><path d="M42,118L35,128L65,129Z" fill="rgb(0, 9, 3)" fill-opacity="0.64"/><path d="M225,29L229,22L193,30Z" fill="rgb(238, 239, 239)" fill-opacity="0.90"/><path d="M54,110L59,129L38,112Z" fill="rgb(2, 4, 3)" fill-opacity="0.79"/><path d="M57,46L111,61L70,15Z" fill="rgb(0, 0, 0)" fill-opacity="0.77"/><path d="M211,52L218,76L217,46Z" fill="rgb(241, 29, 0)" fill-opacity="0.31"/><path d="M193,111L137,62L151,64Z" fill="rgb(0, 0, 241)" fill-opacity="0.73"/><path d="M134,133L196,124L209,139Z" fill="rgb(244, 244, 244)" fill-opacity="0.93"/><path d="M170,56L107,71L108,49Z" fill="rgb(248, 13, 0)" fill-opacity="0.66"/><path d="M224,55L398,76L220,64Z" fill="rgb(244, 244, 244)" fill-opacity="1.00"/><path d="M196,63L185,81L208,62Z" fill="rgb(0, 0, 237)" fill-opacity="0.73"/><path d="M223,54L219,49L232,41Z" fill="rgb(0, 10, 201)" fill-opacity="0.44"/><path d="M197,75L211,92L221,79Z" fill="rgb(1, 6, 229)" fill-opacity="0.66"/></svg>