<svg xmlns="http://www.w3.org/2000/svg" viewBox="0 0 256 143.0214876033058" clip-path="url(#clip)"><defs><clipPath id="clip" clipPathUnits="objectBoundingBox"><rect x="0" y="0" width="256" height="143.0214876033058"/></clipPath></defs><rect x="0" y="0" width="256" height="143.0214876033058" fill="#f6f6f6"/><path d="M43,150L262,44L32,5Z" fill="rgb(75, 13, 90)" fill-opacity="0.81"/><path d="M218,58L208,134L134,90Z" fill="rgb(0, 0, 249)" fill-opacity="0.74"/><path d="M20,152L160,163L89,103Z" fill="rgb(237, 244, 245)" fill-opacity="0.88"/><path d="M129,16L59,97L239,52Z" fill="rgb(183, 24, 14)" fill-opacity="0.85"/><path d="M201,113L275,186L252,-6Z" fill="rgb(241, 241, 243)" fill-opacity="0.94"/><path d="M213,63L244,19L209,34Z" fill="rgb(215, 24, 22)" fill-opacity="0.96"/><path d="M156,-28L211,38L191,54Z" fill="rgb(244, 242, 242)" fill-opacity="0.95"/><path d="M105,133L-4,89L-14,43Z" fill="rgb(241, 242, 244)" fill-opacity="0.95"/><path d="M231,11L223,41L242,26Z" fill="rgb(216, 29, 18)" fill-opacity="0.92"/><path d="M94,120L150,62L205,114Z" fill="rgb(0, 0, 217)" fill-opacity="0.85"/><path d="M99,149L186,149L154,116Z" fill="rgb(233, 236, 247)" fill-opacity="0.89"/><path d="M24,45L52,101L73,47Z" fill="rgb(0, 1, 252)" fill-opacity="0.87"/><path d="M165,84L78,108L54,76Z" fill="rgb(0, 0, 40)" fill-opacity="0.92"/><path d="M142,43L80,77L143,82Z" fill="rgb(232, 13, 2)" fill-opacity="1.00"/><path d="M65,26L55,49L31,24Z" fill="rgb(255, 18, 1)" fill-opacity="0.86"/><path d="M56,-34L25,61L-39,31Z" fill="rgb(244, 244, 243)" fill-opacity="0.95"/><path d="M72,80L144,27L54,9Z" fill="rgb(6, 0, 0)" fill-opacity="0.92"/><path d="M65,165L192,113L203,135Z" fill="rgb(244, 244, 244)" fill-opacity="0.94"/><path d="M128,141L111,114L164,74Z" fill="rgb(0, 0, 254)" fill-opacity="0.69"/><path d="M52,100L97,111L59,126Z" fill="rgb(241, 242, 242)" fill-opacity="0.98"/><path d="M250,192L227,46L220,63Z" fill="rgb(245, 244, 244)" fill-opacity="0.79"/><path d="M219,69L187,110L220,84Z" fill="rgb(3, 4, 222)" fill-opacity="0.86"/><path d="M63,129L45,107L35,128Z" fill="rgb(0, 11, 0)" fill-opacity="0.79"/><path d="M136,53L134,19L35,17Z" fill="rgb(2, 2, 1)" fill-opacity="0.96"/><path d="M172,62L166,40L176,31Z" fill="rgb(248, 249, 243)" fill-opacity="0.58"/><path d="M135,63L85,57L89,76Z" fill="rgb(243, 13, 0)" fill-opacity="0.90"/><path d="M164,80L204,60L130,18Z" fill="rgb(255, 19, 3)" fill-opacity="0.64"/><path d="M48,6L38,23L119,34Z" fill="rgb(7, 2, 0)" fill-opacity="0.88"/><path d="M131,104L103,122L111,80Z" fill="rgb(1, 1, 243)" fill-opacity="0.95"/><path d="M175,56L171,31L167,54Z" fill="rgb(209, 253, 255)" fill-opacity="0.56"/><path d="M92,138L101,139L97,133Z" fill="rgb(14, 14, 10)" fill-opacity="0.62"/><path d="M116,119L133,165L76,114Z" fill="rgb(253, 255, 252)" fill-opacity="0.60"/><path d="M83,108L90,16L56,96Z" fill="rgb(0, 0, 3)" fill-opacity="0.97"/><path d="M121,94L145,101L142,79Z" fill="rgb(4, 0, 0)" fill-opacity="0.82"/><path d="M171,119L88,103L104,118Z" fill="rgb(3, 5, 241)" fill-opacity="0.88"/><path d="M30,40L57,97L70,49Z" fill="rgb(0, 0, 243)" fill-opacity="0.91"/><path d="M238,42L203,61L200,42Z" fill="rgb(228, 16, 9)" fill-opacity="0.87"/><path d="M212,128L210,141L170,72Z" fill="rgb(4, 3, 239)" fill-opacity="0.82"/><path d="M274,175L206,97L201,108Z" fill="rgb(244, 244, 244)" fill-opacity="0.96"/><path d="M31,39L62,47L41,19Z" fill="rgb(238, 16, 2)" fill-opacity="0.96"/><path d="M219,74L179,69L195,116Z" fill="rgb(0, 0, 235)" fill-opacity="0.86"/><path d="M151,119L140,60L199,103Z" fill="rgb(0, 0, 243)" fill-opacity="0.77"/><path d="M118,81L153,54L107,49Z" fill="rgb(242, 13, 1)" fill-opacity="0.98"/><path d="M59,25L49,44L65,29Z" fill="rgb(239, 13, 0)" fill-opacity="0.97"/><path d="M8,134L13,82L59,98Z" fill="rgb(245, 245, 245)" fill-opacity="1.00"/><path d="M182,54L219,25L193,54Z" fill="rgb(235, 243, 242)" fill-opacity="0.58"/><path d="M44,116L70,136L71,132Z" fill="rgb(47, 47, 46)" fill-opacity="0.84"/><path d="M66,103L110,106L67,57Z" fill="rgb(0, 0, 1)" fill-opacity="0.92"/><path d="M51,94L34,75L30,53Z" fill="rgb(17, 17, 233)" fill-opacity="0.99"/><path d="M154,21L153,30L174,30Z" fill="rgb(206, 160, 158)" fill-opacity="1.00"/><path d="M200,120L177,113L102,151Z" fill="rgb(238, 238, 239)" fill-opacity="0.80"/><path d="M223,52L218,49L218,72Z" fill="rgb(29, 21, 187)" fill-opacity="0.95"/><path d="M172,43L194,74L179,34Z" fill="rgb(250, 13, 4)" fill-opacity="0.72"/><path d="M195,63L223,58L181,96Z" fill="rgb(3, 1, 212)" fill-opacity="0.95"/><path d="M144,63L144,122L156,62Z" fill="rgb(0, 1, 242)" fill-opacity="0.87"/><path d="M54,110L59,128L41,110Z" fill="rgb(3, 5, 3)" fill-opacity="0.89"/><path d="M135,51L134,19L54,46Z" fill="rgb(2, 0, 0)" fill-opacity="0.89"/><path d="M166,14L128,20L86,-26Z" fill="rgb(244, 245, 245)" fill-opacity="0.81"/><path d="M137,47L134,20L159,23Z" fill="rgb(253, 18, 3)" fill-opacity="0.77"/><path d="M171,75L165,26L136,49Z" fill="rgb(242, 13, 0)" fill-opacity="0.88"/><path d="M8,-114L-2,91L40,21Z" fill="rgb(247, 247, 247)" fill-opacity="0.68"/><path d="M274,54L237,20L236,-51Z" fill="rgb(245, 245, 245)" fill-opacity="1.00"/><path d="M163,78L137,60L157,94Z" fill="rgb(1, 0, 242)" fill-opacity="0.65"/><path d="M40,9L40,19L129,38Z" fill="rgb(0, 0, 0)" fill-opacity="1.00"/><path d="M110,94L169,103L123,134Z" fill="rgb(0, 0, 246)" fill-opacity="0.87"/><path d="M39,124L41,121L35,115Z" fill="rgb(131, 131, 131)" fill-opacity="1.00"/><path d="M56,121L40,112L45,138Z" fill="rgb(0, 3, 0)" fill-opacity="0.55"/><path d="M153,119L159,92L168,121Z" fill="rgb(5, 6, 209)" fill-opacity="0.87"/><path d="M56,130L61,99L88,117Z" fill="rgb(252, 252, 249)" fill-opacity="0.46"/><path d="M56,9L90,16L132,19Z" fill="rgb(224, 224, 224)" fill-opacity="0.99"/><path d="M113,140L94,108L49,104Z" fill="rgb(244, 244, 244)" fill-opacity="1.00"/><path d="M86,129L120,164L38,145Z" fill="rgb(253, 253, 250)" fill-opacity="0.71"/><path d="M237,13L229,47L228,16Z" fill="rgb(237, 12, 0)" fill-opacity="0.59"/><path d="M208,136L209,208L271,150Z" fill="rgb(244, 245, 242)" fill-opacity="0.85"/><path d="M172,33L168,38L194,32Z" fill="rgb(204, 247, 240)" fill-opacity="0.41"/><path d="M132,127L199,118L132,137Z" fill="rgb(255, 255, 247)" fill-opacity="0.57"/><path d="M62,88L30,41L48,95Z" fill="rgb(1, 2, 252)" fill-opacity="0.79"/><path d="M108,48L141,82L144,71Z" fill="rgb(245, 14, 1)" fill-opacity="0.72"/><path d="M112,61L57,46L70,20Z" fill="rgb(2, 0, 0)" fill-opacity="0.78"/><path d="M91,132L83,126L95,130Z" fill="rgb(37, 37, 29)" fill-opacity="0.49"/><path d="M96,109L104,123L126,99Z" fill="rgb(5, 5, 246)" fill-opacity="0.79"/><path d="M213,58L217,84L222,79Z" fill="rgb(53, 55, 108)" fill-opacity="0.63"/><path d="M209,-3L157,31L166,2Z" fill="rgb(244, 244, 244)" fill-opacity="1.00"/><path d="M116,82L123,86L103,117Z" fill="rgb(0, 0, 247)" fill-opacity="0.77"/><path d="M26,70L5,55L31,49Z" fill="rgb(243, 243, 244)" fill-opacity="0.85"/><path d="M46,11L44,-21L30,2Z" fill="rgb(241, 241, 241)" fill-opacity="0.93"/><path d="M43,134L41,137L27,141Z" fill="rgb(76, 84, 74)" fill-opacity="0.66"/><path d="M252,88L230,35L298,51Z" fill="rgb(250, 253, 250)" fill-opacity="0.52"/><path d="M109,170L193,126L145,119Z" fill="rgb(245, 245, 245)" fill-opacity="0.95"/><path d="M166,116L170,113L200,131Z" fill="rgb(235, 236, 234)" fill-opacity="0.65"/><path d="M123,136L119,84L132,138Z" fill="rgb(5, 5, 244)" fill-opacity="1.00"/><path d="M202,55L164,81L163,55Z" fill="rgb(241, 10, 0)" fill-opacity="0.73"/><path d="M56,155L56,142L33,126Z" fill="rgb(247, 255, 241)" fill-opacity="0.50"/><path d="M137,80L120,86L145,99Z" fill="rgb(3, 0, 0)" fill-opacity="0.87"/><path d="M67,78L126,81L59,91Z" fill="rgb(3, 0, 1)" fill-opacity="0.92"/><path d="M129,50L108,50L104,80Z" fill="rgb(252, 14, 0)" fill-opacity="0.68"/><path d="M132,126L128,137L136,124Z" fill="rgb(0, 3, 82)" fill-opacity="0.43"/><path d="M20,140L16,137L28,140Z" fill="rgb(96, 96, 96)" fill-opacity="0.46"/><path d="M69,104L108,80L108,106Z" fill="rgb(0, 0, 0)" fill-opacity="0.81"/><path d="M113,118L143,169L94,125Z" fill="rgb(243, 243, 244)" fill-opacity="1.00"/></svg>