<svg xmlns="http://www.w3.org/2000/svg" viewBox="0 0 256 143.0214876033058" clip-path="url(#clip)"><defs><clipPath id="clip" clipPathUnits="objectBoundingBox"><rect x="0" y="0" width="256" height="143.0214876033058"/></clipPath></defs><rect x="0" y="0" width="256" height="143.0214876033058" fill="#f6f6f6"/><path d="M38,134L253,103L32,-15Z" fill="rgb(93, 23, 83)" fill-opacity="0.85"/><path d="M76,143L33,89L153,134Z" fill="rgb(212, 212, 231)" fill-opacity="1.00"/><path d="M87,119L203,120L236,20Z" fill="rgb(27, 2, 206)" fill-opacity="0.81"/><path d="M86,16L291,29L-216,-57Z" fill="rgb(242, 235, 235)" fill-opacity="1.00"/><path d="M61,9L24,53L60,102Z" fill="rgb(237, 15, 0)" fill-opacity="0.88"/><path d="M259,141L180,134L242,51Z" fill="rgb(228, 229, 244)" fill-opacity="0.94"/><path d="M183,77L96,85L126,139Z" fill="rgb(0, 0, 195)" fill-opacity="0.85"/><path d="M167,48L206,142L212,129Z" fill="rgb(10, 11, 237)" fill-opacity="0.90"/><path d="M162,78L227,53L125,13Z" fill="rgb(255, 26, 3)" fill-opacity="0.60"/><path d="M235,48L238,3L218,41Z" fill="rgb(222, 29, 5)" fill-opacity="0.69"/><path d="M49,8L139,25L79,111Z" fill="rgb(40, 1, 0)" fill-opacity="0.95"/><path d="M40,19L30,44L68,30Z" fill="rgb(225, 16, 1)" fill-opacity="0.90"/><path d="M35,31L-13,-1L47,-10Z" fill="rgb(244, 244, 244)" fill-opacity="0.96"/><path d="M168,172L85,103L45,135Z" fill="rgb(235, 237, 231)" fill-opacity="0.72"/><path d="M86,14L110,107L56,99Z" fill="rgb(32, 3, 3)" fill-opacity="1.00"/><path d="M77,71L141,37L144,92Z" fill="rgb(203, 8, 0)" fill-opacity="0.89"/><path d="M33,115L29,76L61,100Z" fill="rgb(247, 241, 237)" fill-opacity="0.87"/><path d="M144,100L76,78L144,82Z" fill="rgb(0, 0, 28)" fill-opacity="0.84"/><path d="M205,47L187,55L188,33Z" fill="rgb(208, 255, 255)" fill-opacity="0.66"/><path d="M31,32L71,53L49,100Z" fill="rgb(251, 16, 0)" fill-opacity="0.83"/><path d="M40,22L40,8L149,51Z" fill="rgb(6, 0, 0)" fill-opacity="0.87"/><path d="M185,128L177,24L167,45Z" fill="rgb(38, 61, 255)" fill-opacity="0.47"/><path d="M243,26L221,40L231,13Z" fill="rgb(219, 16, 2)" fill-opacity="0.77"/><path d="M219,156L192,114L164,115Z" fill="rgb(236, 237, 234)" fill-opacity="0.85"/><path d="M156,63L154,122L141,63Z" fill="rgb(1, 0, 246)" fill-opacity="0.97"/><path d="M48,136L56,108L35,126Z" fill="rgb(2, 14, 4)" fill-opacity="0.81"/><path d="M193,72L172,48L178,26Z" fill="rgb(237, 27, 10)" fill-opacity="0.81"/><path d="M170,53L135,66L138,18Z" fill="rgb(242, 13, 0)" fill-opacity="0.94"/><path d="M167,47L173,33L173,56Z" fill="rgb(249, 250, 237)" fill-opacity="0.85"/><path d="M72,131L68,135L51,123Z" fill="rgb(3, 11, 5)" fill-opacity="0.59"/><path d="M134,18L54,46L136,51Z" fill="rgb(1, 0, 0)" fill-opacity="0.94"/><path d="M109,82L106,122L123,85Z" fill="rgb(0, 0, 251)" fill-opacity="0.81"/><path d="M218,28L223,45L196,51Z" fill="rgb(23, 19, 225)" fill-opacity="0.90"/><path d="M161,43L179,28L134,37Z" fill="rgb(234, 20, 7)" fill-opacity="0.90"/><path d="M65,104L95,106L71,14Z" fill="rgb(0, 1, 1)" fill-opacity="0.82"/><path d="M42,137L57,126L28,141Z" fill="rgb(112, 113, 112)" fill-opacity="0.94"/><path d="M100,135L96,143L94,132Z" fill="rgb(41, 40, 40)" fill-opacity="0.64"/><path d="M54,97L62,23L31,72Z" fill="rgb(248, 16, 1)" fill-opacity="0.80"/><path d="M218,61L216,46L179,59Z" fill="rgb(243, 6, 0)" fill-opacity="0.75"/><path d="M61,129L46,108L36,120Z" fill="rgb(0, 8, 0)" fill-opacity="0.76"/><path d="M40,118L29,47L-18,43Z" fill="rgb(244, 244, 244)" fill-opacity="0.96"/><path d="M145,76L84,79L89,56Z" fill="rgb(255, 15, 0)" fill-opacity="0.85"/><path d="M153,21L168,27L156,31Z" fill="rgb(200, 165, 163)" fill-opacity="1.00"/><path d="M109,86L122,132L155,115Z" fill="rgb(1, 1, 250)" fill-opacity="0.95"/><path d="M302,-36L210,308L232,35Z" fill="rgb(248, 248, 246)" fill-opacity="0.76"/><path d="M101,116L89,102L148,119Z" fill="rgb(0, 0, 250)" fill-opacity="0.71"/><path d="M174,55L206,98L157,122Z" fill="rgb(0, 0, 246)" fill-opacity="0.74"/><path d="M102,80L157,55L109,49Z" fill="rgb(244, 14, 0)" fill-opacity="0.96"/><path d="M-41,127L42,131L43,134Z" fill="rgb(242, 242, 242)" fill-opacity="1.00"/><path d="M169,58L179,54L203,135Z" fill="rgb(4, 3, 232)" fill-opacity="0.81"/><path d="M197,117L128,104L222,55Z" fill="rgb(0, 0, 237)" fill-opacity="0.74"/><path d="M220,84L157,118L219,73Z" fill="rgb(0, 1, 237)" fill-opacity="0.76"/><path d="M108,99L109,80L71,107Z" fill="rgb(0, 2, 4)" fill-opacity="0.90"/><path d="M164,78L161,124L153,62Z" fill="rgb(6, 2, 219)" fill-opacity="1.00"/><path d="M219,57L238,42L217,46Z" fill="rgb(19, 18, 164)" fill-opacity="0.63"/><path d="M59,127L51,97L101,116Z" fill="rgb(243, 243, 243)" fill-opacity="0.91"/><path d="M228,15L232,-55L272,8Z" fill="rgb(245, 244, 244)" fill-opacity="1.00"/><path d="M217,27L233,34L224,46Z" fill="rgb(211, 20, 0)" fill-opacity="0.62"/><path d="M144,-159L156,21L98,17Z" fill="rgb(243, 244, 244)" fill-opacity="0.88"/><path d="M134,18L172,85L136,41Z" fill="rgb(246, 11, 0)" fill-opacity="0.67"/><path d="M46,109L57,128L56,112Z" fill="rgb(8, 10, 8)" fill-opacity="0.89"/><path d="M93,132L75,123L95,130Z" fill="rgb(63, 61, 61)" fill-opacity="0.49"/><path d="M105,60L118,19L44,12Z" fill="rgb(0, 1, 0)" fill-opacity="0.92"/><path d="M180,65L208,48L189,70Z" fill="rgb(237, 13, 1)" fill-opacity="0.90"/><path d="M183,42L209,42L232,-99Z" fill="rgb(245, 245, 245)" fill-opacity="0.88"/><path d="M101,18L133,20L137,55Z" fill="rgb(3, 0, 0)" fill-opacity="0.94"/><path d="M59,97L113,184L39,92Z" fill="rgb(244, 245, 245)" fill-opacity="0.80"/><path d="M165,138L129,140L135,124Z" fill="rgb(237, 237, 239)" fill-opacity="0.78"/><path d="M50,-50L32,6L46,10Z" fill="rgb(241, 242, 241)" fill-opacity="0.95"/><path d="M58,48L64,29L97,20Z" fill="rgb(3, 0, 0)" fill-opacity="1.00"/><path d="M161,121L176,121L144,117Z" fill="rgb(25, 33, 97)" fill-opacity="0.47"/><path d="M194,63L220,69L216,59Z" fill="rgb(11, 6, 152)" fill-opacity="0.78"/><path d="M212,31L220,33L207,50Z" fill="rgb(0, 1, 234)" fill-opacity="0.72"/><path d="M154,58L166,82L171,54Z" fill="rgb(245, 13, 0)" fill-opacity="0.83"/><path d="M71,108L93,106L130,165Z" fill="rgb(243, 243, 244)" fill-opacity="0.90"/><path d="M213,36L222,39L221,59Z" fill="rgb(0, 0, 240)" fill-opacity="0.85"/><path d="M22,109L39,82L58,109Z" fill="rgb(244, 246, 245)" fill-opacity="0.77"/><path d="M124,65L152,66L115,66Z" fill="rgb(0, 0, 75)" fill-opacity="0.51"/><path d="M69,61L106,94L59,85Z" fill="rgb(1, 0, 0)" fill-opacity="0.60"/><path d="M179,111L213,141L136,154Z" fill="rgb(249, 249, 247)" fill-opacity="0.50"/><path d="M69,48L34,81L64,78Z" fill="rgb(244, 15, 1)" fill-opacity="1.00"/><path d="M130,126L134,123L126,164Z" fill="rgb(13, 13, 163)" fill-opacity="0.38"/><path d="M61,84L69,104L87,108Z" fill="rgb(0, 4, 3)" fill-opacity="0.65"/><path d="M98,106L100,124L131,105Z" fill="rgb(0, 5, 255)" fill-opacity="0.45"/><path d="M158,26L206,-35L197,33Z" fill="rgb(244, 245, 245)" fill-opacity="0.69"/><path d="M33,139L31,141L16,139Z" fill="rgb(143, 143, 143)" fill-opacity="0.58"/><path d="M141,47L166,25L170,79Z" fill="rgb(240, 14, 0)" fill-opacity="0.76"/><path d="M188,45L173,39L184,66Z" fill="rgb(236, 17, 5)" fill-opacity="0.80"/><path d="M217,49L214,64L219,57Z" fill="rgb(125, 1, 0)" fill-opacity="0.49"/><path d="M140,65L94,79L142,81Z" fill="rgb(251, 14, 0)" fill-opacity="0.89"/><path d="M152,28L140,17L135,58Z" fill="rgb(250, 18, 3)" fill-opacity="0.73"/><path d="M9,121L41,122L41,120Z" fill="rgb(234, 234, 234)" fill-opacity="0.95"/><path d="M60,23L37,82L30,55Z" fill="rgb(241, 15, 1)" fill-opacity="0.87"/><path d="M156,23L137,31L159,25Z" fill="rgb(233, 22, 9)" fill-opacity="1.00"/><path d="M179,29L184,33L170,33Z" fill="rgb(170, 35, 15)" fill-opacity="0.49"/><path d="M221,62L223,231L225,50Z" fill="rgb(243, 243, 243)" fill-opacity="0.93"/><path d="M116,79L128,98L148,98Z" fill="rgb(2, 0, 0)" fill-opacity="0.67"/><path d="M229,22L226,27L187,41Z" fill="rgb(235, 234, 235)" fill-opacity="0.98"/><path d="M142,62L138,64L182,97Z" fill="rgb(0, 0, 247)" fill-opacity="0.67"/><path d="M72,205L109,116L122,131Z" fill="rgb(248, 248, 246)" fill-opacity="0.71"/></svg>