<svg xmlns="http://www.w3.org/2000/svg" viewBox="0 0 256 143.0214876033058" clip-path="url(#clip)"><defs><clipPath id="clip" clipPathUnits="objectBoundingBox"><rect x="0" y="0" width="256" height="143.0214876033058"/></clipPath></defs><rect x="0" y="0" width="256" height="143.0214876033058" fill="#f6f6f6"/><path d="M9,6L138,228L239,32Z" fill="rgb(97, 19, 81)" fill-opacity="0.83"/><path d="M14,105L253,343L209,117Z" fill="rgb(182, 182, 221)" fill-opacity="1.00"/><path d="M227,56L39,4L34,99Z" fill="rgb(141, 4, 0)" fill-opacity="0.79"/><path d="M4,110L41,15L16,-138Z" fill="rgb(244, 244, 244)" fill-opacity="0.99"/><path d="M45,105L35,131L62,128Z" fill="rgb(7, 7, 0)" fill-opacity="0.83"/><path d="M227,50L200,120L81,118Z" fill="rgb(0, 0, 255)" fill-opacity="0.74"/><path d="M206,51L274,-171L162,55Z" fill="rgb(255, 237, 222)" fill-opacity="0.62"/><path d="M110,107L81,11L57,99Z" fill="rgb(20, 1, 0)" fill-opacity="0.92"/><path d="M154,120L140,61L161,69Z" fill="rgb(1, 0, 242)" fill-opacity="0.93"/><path d="M167,84L127,14L191,41Z" fill="rgb(255, 27, 5)" fill-opacity="0.67"/><path d="M181,75L233,12L243,26Z" fill="rgb(239, 17, 3)" fill-opacity="0.77"/><path d="M71,49L25,44L46,99Z" fill="rgb(255, 27, 12)" fill-opacity="0.88"/><path d="M209,141L211,125L171,74Z" fill="rgb(6, 7, 240)" fill-opacity="0.91"/><path d="M131,85L103,82L133,161Z" fill="rgb(0, 0, 214)" fill-opacity="0.77"/><path d="M198,116L131,386L168,114Z" fill="rgb(250, 250, 244)" fill-opacity="0.88"/><path d="M40,81L57,109L-58,110Z" fill="rgb(244, 244, 244)" fill-opacity="0.94"/><path d="M165,31L73,74L132,84Z" fill="rgb(253, 11, 0)" fill-opacity="0.74"/><path d="M149,118L231,142L102,160Z" fill="rgb(255, 255, 248)" fill-opacity="0.76"/><path d="M77,80L53,11L140,22Z" fill="rgb(9, 1, 0)" fill-opacity="0.93"/><path d="M191,54L238,7L163,-17Z" fill="rgb(245, 245, 245)" fill-opacity="0.97"/><path d="M68,103L123,128L20,208Z" fill="rgb(239, 239, 234)" fill-opacity="0.86"/><path d="M146,81L88,56L85,78Z" fill="rgb(247, 14, 0)" fill-opacity="0.94"/><path d="M200,64L101,108L129,134Z" fill="rgb(0, 0, 230)" fill-opacity="0.80"/><path d="M297,-33L181,30L152,28Z" fill="rgb(244, 243, 242)" fill-opacity="0.87"/><path d="M133,18L137,53L61,37Z" fill="rgb(1, 0, 0)" fill-opacity="0.93"/><path d="M119,95L150,99L128,76Z" fill="rgb(7, 0, 0)" fill-opacity="0.85"/><path d="M223,79L206,60L191,113Z" fill="rgb(2, 4, 229)" fill-opacity="0.86"/><path d="M38,19L49,7L142,49Z" fill="rgb(2, 1, 1)" fill-opacity="0.99"/><path d="M24,13L-7,-4L58,5Z" fill="rgb(243, 245, 245)" fill-opacity="0.85"/><path d="M43,138L37,116L58,108Z" fill="rgb(0, 0, 0)" fill-opacity="0.61"/><path d="M67,25L32,32L33,77Z" fill="rgb(253, 16, 0)" fill-opacity="0.82"/><path d="M237,75L229,50L210,57Z" fill="rgb(255, 226, 190)" fill-opacity="0.43"/><path d="M71,131L71,136L51,123Z" fill="rgb(66, 66, 66)" fill-opacity="0.98"/><path d="M43,137L53,128L28,141Z" fill="rgb(99, 99, 95)" fill-opacity="0.73"/><path d="M91,106L51,109L126,146Z" fill="rgb(241, 241, 242)" fill-opacity="0.95"/><path d="M96,140L89,128L103,137Z" fill="rgb(6, 6, 4)" fill-opacity="0.43"/><path d="M273,16L254,102L230,34Z" fill="rgb(244, 243, 243)" fill-opacity="0.87"/><path d="M110,81L144,94L144,81Z" fill="rgb(0, 0, 7)" fill-opacity="0.97"/><path d="M-13,47L18,147L41,133Z" fill="rgb(243, 243, 243)" fill-opacity="0.94"/><path d="M199,40L228,50L206,63Z" fill="rgb(232, 7, 1)" fill-opacity="0.65"/><path d="M173,57L167,50L173,29Z" fill="rgb(222, 246, 248)" fill-opacity="0.76"/><path d="M148,56L166,77L217,53Z" fill="rgb(240, 13, 2)" fill-opacity="0.95"/><path d="M227,27L234,-15L191,39Z" fill="rgb(243, 243, 243)" fill-opacity="0.97"/><path d="M229,41L213,74L217,53Z" fill="rgb(38, 7, 143)" fill-opacity="0.79"/><path d="M29,58L37,3L-71,-16Z" fill="rgb(245, 245, 245)" fill-opacity="0.89"/><path d="M188,-5L136,19L102,18Z" fill="rgb(240, 241, 241)" fill-opacity="0.98"/><path d="M38,24L29,50L62,26Z" fill="rgb(243, 17, 4)" fill-opacity="0.99"/><path d="M35,80L58,97L70,47Z" fill="rgb(245, 14, 0)" fill-opacity="0.86"/><path d="M74,107L121,80L59,79Z" fill="rgb(0, 0, 0)" fill-opacity="0.77"/><path d="M237,13L230,43L206,51Z" fill="rgb(229, 13, 0)" fill-opacity="0.79"/><path d="M122,80L98,117L106,122Z" fill="rgb(0, 0, 243)" fill-opacity="0.78"/><path d="M198,111L212,89L211,109Z" fill="rgb(234, 234, 220)" fill-opacity="0.66"/><path d="M189,105L160,74L119,129Z" fill="rgb(0, 0, 238)" fill-opacity="0.92"/><path d="M45,93L79,108L63,126Z" fill="rgb(242, 242, 241)" fill-opacity="0.93"/><path d="M144,81L119,81L133,50Z" fill="rgb(247, 14, 1)" fill-opacity="0.96"/><path d="M178,28L171,74L188,48Z" fill="rgb(235, 9, 0)" fill-opacity="0.70"/><path d="M276,29L213,160L223,52Z" fill="rgb(245, 245, 245)" fill-opacity="0.87"/><path d="M118,129L221,238L91,142Z" fill="rgb(246, 246, 244)" fill-opacity="0.86"/><path d="M182,32L134,38L176,29Z" fill="rgb(217, 20, 9)" fill-opacity="0.90"/><path d="M138,45L158,24L133,20Z" fill="rgb(255, 9, 0)" fill-opacity="0.70"/><path d="M38,112L58,129L56,111Z" fill="rgb(0, 0, 0)" fill-opacity="0.53"/><path d="M169,121L157,93L158,121Z" fill="rgb(0, 0, 187)" fill-opacity="0.73"/><path d="M200,131L179,65L204,81Z" fill="rgb(0, 0, 229)" fill-opacity="0.70"/><path d="M156,62L142,63L145,101Z" fill="rgb(0, 0, 240)" fill-opacity="0.76"/><path d="M158,104L167,76L158,97Z" fill="rgb(23, 2, 62)" fill-opacity="0.53"/><path d="M36,121L47,90L-138,26Z" fill="rgb(245, 245, 245)" fill-opacity="0.97"/><path d="M95,133L94,143L100,136Z" fill="rgb(4, 4, 4)" fill-opacity="0.44"/><path d="M111,81L105,117L144,118Z" fill="rgb(0, 0, 255)" fill-opacity="0.60"/><path d="M171,114L96,111L93,105Z" fill="rgb(1, 1, 248)" fill-opacity="1.00"/><path d="M102,18L65,11L142,-26Z" fill="rgb(241, 242, 241)" fill-opacity="0.72"/><path d="M39,8L96,33L42,23Z" fill="rgb(6, 3, 3)" fill-opacity="0.78"/><path d="M205,42L222,41L171,76Z" fill="rgb(237, 14, 3)" fill-opacity="0.90"/><path d="M108,49L106,74L169,54Z" fill="rgb(241, 13, 0)" fill-opacity="0.91"/><path d="M60,47L117,62L60,37Z" fill="rgb(2, 0, 0)" fill-opacity="0.73"/><path d="M108,104L108,80L72,106Z" fill="rgb(0, 0, 0)" fill-opacity="0.88"/><path d="M221,77L219,89L212,55Z" fill="rgb(86, 75, 30)" fill-opacity="0.40"/><path d="M165,91L196,91L208,128Z" fill="rgb(1, 1, 242)" fill-opacity="0.87"/><path d="M153,28L173,25L157,31Z" fill="rgb(201, 175, 174)" fill-opacity="1.00"/><path d="M55,127L85,145L7,179Z" fill="rgb(250, 250, 247)" fill-opacity="0.72"/><path d="M217,48L221,62L223,56Z" fill="rgb(3, 9, 204)" fill-opacity="0.65"/><path d="M237,221L148,118L131,130Z" fill="rgb(243, 243, 243)" fill-opacity="0.92"/><path d="M68,33L79,14L46,7Z" fill="rgb(4, 6, 6)" fill-opacity="0.81"/><path d="M187,54L197,-3L192,54Z" fill="rgb(245, 245, 245)" fill-opacity="1.00"/><path d="M116,123L129,110L132,140Z" fill="rgb(4, 4, 245)" fill-opacity="0.86"/><path d="M228,45L235,46L236,42Z" fill="rgb(99, 16, 2)" fill-opacity="0.57"/><path d="M178,36L173,33L168,42Z" fill="rgb(164, 246, 252)" fill-opacity="0.47"/><path d="M144,69L143,73L133,47Z" fill="rgb(54, 2, 82)" fill-opacity="0.55"/><path d="M100,114L89,104L57,123Z" fill="rgb(244, 247, 243)" fill-opacity="0.56"/><path d="M213,135L207,137L204,113Z" fill="rgb(2, 1, 224)" fill-opacity="0.47"/><path d="M39,23L63,27L53,67Z" fill="rgb(249, 13, 0)" fill-opacity="0.79"/><path d="M143,16L136,53L136,22Z" fill="rgb(255, 22, 4)" fill-opacity="0.58"/><path d="M70,126L74,190L95,133Z" fill="rgb(253, 253, 253)" fill-opacity="0.62"/><path d="M60,95L47,108L59,106Z" fill="rgb(245, 247, 247)" fill-opacity="0.46"/><path d="M210,38L214,29L225,54Z" fill="rgb(251, 22, 1)" fill-opacity="0.72"/><path d="M57,119L36,120L51,109Z" fill="rgb(5, 5, 4)" fill-opacity="0.79"/><path d="M86,75L129,62L91,58Z" fill="rgb(249, 14, 0)" fill-opacity="1.00"/><path d="M55,110L100,117L59,127Z" fill="rgb(244, 244, 244)" fill-opacity="0.91"/><path d="M204,51L190,72L187,57Z" fill="rgb(225, 12, 7)" fill-opacity="0.68"/><path d="M309,32L240,23L225,-3Z" fill="rgb(245, 245, 245)" fill-opacity="1.00"/><path d="M21,139L27,139L21,140Z" fill="rgb(0, 0, 0)" fill-opacity="0.54"/></svg>