<svg xmlns="http://www.w3.org/2000/svg" viewBox="0 0 256 143.0214876033058" clip-path="url(#clip)"><defs><clipPath id="clip" clipPathUnits="objectBoundingBox"><rect x="0" y="0" width="256" height="143.0214876033058"/></clipPath></defs><rect x="0" y="0" width="256" height="143.0214876033058" fill="#f6f6f6"/><path d="M25,-93L250,101L38,139Z" fill="rgb(91, 37, 123)" fill-opacity="0.82"/><path d="M84,118L240,16L201,116Z" fill="rgb(25, 0, 200)" fill-opacity="0.83"/><path d="M28,69L131,138L161,63Z" fill="rgb(0, 19, 131)" fill-opacity="0.71"/><path d="M116,121L139,204L25,85Z" fill="rgb(232, 233, 235)" fill-opacity="0.97"/><path d="M159,67L31,40L52,-283Z" fill="rgb(255, 99, 70)" fill-opacity="0.74"/><path d="M250,126L246,35L184,140Z" fill="rgb(228, 228, 243)" fill-opacity="1.00"/><path d="M218,33L231,52L238,9Z" fill="rgb(236, 44, 12)" fill-opacity="0.77"/><path d="M137,-27L188,27L9,4Z" fill="rgb(243, 242, 242)" fill-opacity="0.97"/><path d="M162,33L122,138L191,83Z" fill="rgb(0, 0, 244)" fill-opacity="0.74"/><path d="M212,128L207,140L148,25Z" fill="rgb(9, 7, 237)" fill-opacity="0.95"/><path d="M112,107L72,35L60,101Z" fill="rgb(1, 8, 1)" fill-opacity="0.84"/><path d="M34,128L51,105L60,128Z" fill="rgb(0, 11, 0)" fill-opacity="0.77"/><path d="M164,28L186,70L222,54Z" fill="rgb(255, 56, 25)" fill-opacity="0.73"/><path d="M20,112L23,54L53,109Z" fill="rgb(244, 245, 245)" fill-opacity="0.88"/><path d="M39,21L16,71L48,-82Z" fill="rgb(243, 243, 243)" fill-opacity="1.00"/><path d="M27,46L86,36L40,93Z" fill="rgb(10, 58, 218)" fill-opacity="0.60"/><path d="M134,75L153,28L33,5Z" fill="rgb(222, 13, 0)" fill-opacity="0.71"/><path d="M80,57L161,62L87,15Z" fill="rgb(242, 13, 0)" fill-opacity="0.94"/><path d="M80,50L67,10L58,51Z" fill="rgb(74, 108, 138)" fill-opacity="0.98"/><path d="M117,93L144,78L144,99Z" fill="rgb(2, 3, 19)" fill-opacity="1.00"/><path d="M89,57L158,74L84,79Z" fill="rgb(71, 120, 161)" fill-opacity="0.88"/><path d="M188,46L181,30L130,17Z" fill="rgb(212, 86, 78)" fill-opacity="0.85"/><path d="M140,35L107,34L115,11Z" fill="rgb(15, 239, 251)" fill-opacity="0.38"/><path d="M59,75L34,77L58,99Z" fill="rgb(3, 7, 255)" fill-opacity="0.84"/><path d="M239,30L219,35L240,20Z" fill="rgb(217, 23, 12)" fill-opacity="0.91"/><path d="M93,106L119,144L55,109Z" fill="rgb(240, 240, 242)" fill-opacity="0.99"/><path d="M142,59L146,119L169,121Z" fill="rgb(3, 3, 227)" fill-opacity="0.89"/><path d="M201,103L319,-15L228,170Z" fill="rgb(245, 245, 245)" fill-opacity="0.96"/><path d="M64,121L37,141L59,167Z" fill="rgb(245, 253, 241)" fill-opacity="0.73"/><path d="M50,6L30,39L62,48Z" fill="rgb(236, 13, 0)" fill-opacity="0.89"/><path d="M230,11L242,25L222,45Z" fill="rgb(217, 27, 11)" fill-opacity="0.71"/><path d="M112,67L161,57L141,26Z" fill="rgb(241, 11, 0)" fill-opacity="0.86"/><path d="M96,141L100,137L90,127Z" fill="rgb(19, 18, 17)" fill-opacity="0.58"/><path d="M143,121L115,82L99,119Z" fill="rgb(2, 2, 255)" fill-opacity="0.88"/><path d="M37,87L47,43L29,40Z" fill="rgb(0, 0, 255)" fill-opacity="0.69"/><path d="M192,26L186,55L202,48Z" fill="rgb(232, 237, 243)" fill-opacity="0.91"/><path d="M168,52L172,25L174,57Z" fill="rgb(219, 195, 199)" fill-opacity="0.98"/><path d="M181,113L166,116L199,127Z" fill="rgb(232, 233, 232)" fill-opacity="0.92"/><path d="M133,19L156,24L139,48Z" fill="rgb(243, 16, 2)" fill-opacity="0.97"/><path d="M107,105L110,80L69,76Z" fill="rgb(0, 0, 0)" fill-opacity="0.78"/><path d="M62,86L72,31L44,59Z" fill="rgb(72, 121, 147)" fill-opacity="0.87"/><path d="M216,46L177,66L219,58Z" fill="rgb(232, 8, 1)" fill-opacity="0.88"/><path d="M171,16L212,39L190,47Z" fill="rgb(240, 240, 241)" fill-opacity="0.92"/><path d="M120,81L142,81L122,96Z" fill="rgb(0, 0, 3)" fill-opacity="0.92"/><path d="M59,128L43,107L39,131Z" fill="rgb(6, 9, 4)" fill-opacity="0.81"/><path d="M187,117L139,62L223,77Z" fill="rgb(0, 0, 238)" fill-opacity="0.83"/><path d="M152,29L171,39L148,43Z" fill="rgb(0, 0, 245)" fill-opacity="0.73"/><path d="M13,136L42,121L-75,93Z" fill="rgb(242, 242, 242)" fill-opacity="0.94"/><path d="M49,94L-32,77L15,53Z" fill="rgb(244, 244, 243)" fill-opacity="0.73"/><path d="M133,140L122,135L107,77Z" fill="rgb(4, 4, 252)" fill-opacity="0.74"/><path d="M136,30L132,17L109,34Z" fill="rgb(120, 130, 130)" fill-opacity="0.78"/><path d="M89,58L58,99L70,48Z" fill="rgb(2, 1, 0)" fill-opacity="0.78"/><path d="M162,4L157,31L165,26Z" fill="rgb(234, 233, 233)" fill-opacity="0.96"/><path d="M58,128L37,119L55,108Z" fill="rgb(4, 5, 3)" fill-opacity="0.68"/><path d="M42,43L66,29L40,8Z" fill="rgb(239, 12, 0)" fill-opacity="0.91"/><path d="M229,26L216,-13L212,33Z" fill="rgb(237, 236, 239)" fill-opacity="0.80"/><path d="M222,45L241,41L216,57Z" fill="rgb(0, 9, 138)" fill-opacity="0.43"/><path d="M227,139L196,132L168,139Z" fill="rgb(241, 241, 239)" fill-opacity="0.67"/><path d="M145,11L11,-4L62,-233Z" fill="rgb(241, 243, 243)" fill-opacity="0.80"/><path d="M217,65L196,61L199,113Z" fill="rgb(0, 1, 231)" fill-opacity="0.86"/><path d="M29,46L36,82L57,78Z" fill="rgb(4, 3, 243)" fill-opacity="0.91"/><path d="M79,146L117,117L106,119Z" fill="rgb(225, 225, 239)" fill-opacity="0.83"/><path d="M74,111L-22,105L57,95Z" fill="rgb(245, 245, 243)" fill-opacity="0.80"/><path d="M219,29L210,33L222,60Z" fill="rgb(0, 1, 239)" fill-opacity="0.76"/><path d="M60,79L70,106L109,104Z" fill="rgb(1, 1, 0)" fill-opacity="0.90"/><path d="M140,64L89,78L144,82Z" fill="rgb(74, 121, 151)" fill-opacity="0.86"/><path d="M69,135L57,126L72,132Z" fill="rgb(20, 32, 12)" fill-opacity="0.66"/><path d="M108,93L150,102L125,137Z" fill="rgb(0, 0, 251)" fill-opacity="1.00"/><path d="M186,52L172,56L178,30Z" fill="rgb(243, 6, 0)" fill-opacity="0.68"/><path d="M198,51L221,45L203,42Z" fill="rgb(9, 0, 222)" fill-opacity="0.87"/><path d="M182,68L193,70L179,36Z" fill="rgb(237, 14, 2)" fill-opacity="0.90"/><path d="M33,37L-16,-4L25,61Z" fill="rgb(245, 244, 244)" fill-opacity="0.87"/><path d="M214,64L219,88L218,47Z" fill="rgb(38, 19, 61)" fill-opacity="0.48"/><path d="M166,34L171,71L148,35Z" fill="rgb(0, 0, 244)" fill-opacity="0.89"/><path d="M238,-12L235,20L264,35Z" fill="rgb(245, 244, 242)" fill-opacity="0.64"/><path d="M60,78L68,104L119,80Z" fill="rgb(1, 2, 3)" fill-opacity="0.83"/><path d="M98,116L106,122L122,83Z" fill="rgb(6, 5, 240)" fill-opacity="0.85"/><path d="M177,114L141,65L181,53Z" fill="rgb(0, 0, 235)" fill-opacity="0.77"/><path d="M199,129L185,70L214,139Z" fill="rgb(2, 4, 232)" fill-opacity="0.57"/><path d="M220,65L322,27L225,48Z" fill="rgb(241, 243, 241)" fill-opacity="0.65"/><path d="M47,138L34,133L37,128Z" fill="rgb(236, 251, 227)" fill-opacity="0.62"/><path d="M122,127L127,183L89,116Z" fill="rgb(255, 255, 252)" fill-opacity="0.43"/><path d="M73,13L72,31L122,40Z" fill="rgb(254, 13, 0)" fill-opacity="0.82"/><path d="M230,37L239,29L285,94Z" fill="rgb(244, 243, 243)" fill-opacity="0.97"/><path d="M159,28L152,30L189,-1Z" fill="rgb(234, 231, 231)" fill-opacity="1.00"/><path d="M213,132L207,138L207,129Z" fill="rgb(4, 5, 218)" fill-opacity="0.56"/><path d="M228,45L238,42L217,58Z" fill="rgb(51, 27, 87)" fill-opacity="0.39"/><path d="M56,113L38,125L47,137Z" fill="rgb(0, 6, 0)" fill-opacity="0.49"/><path d="M56,114L59,129L91,105Z" fill="rgb(241, 242, 240)" fill-opacity="0.81"/><path d="M53,127L19,174L95,147Z" fill="rgb(244, 245, 244)" fill-opacity="0.68"/><path d="M114,63L147,29L156,63Z" fill="rgb(243, 12, 0)" fill-opacity="0.65"/><path d="M60,34L81,51L83,38Z" fill="rgb(73, 111, 143)" fill-opacity="0.94"/><path d="M176,30L170,57L168,44Z" fill="rgb(238, 255, 245)" fill-opacity="0.52"/><path d="M182,143L189,111L219,160Z" fill="rgb(244, 245, 243)" fill-opacity="0.58"/><path d="M160,30L181,30L167,36Z" fill="rgb(206, 0, 0)" fill-opacity="0.66"/><path d="M-5,138L24,33L43,110Z" fill="rgb(245, 245, 245)" fill-opacity="0.84"/><path d="M216,86L219,85L214,55Z" fill="rgb(22, 16, 119)" fill-opacity="0.63"/><path d="M183,35L172,43L182,58Z" fill="rgb(247, 15, 0)" fill-opacity="0.77"/><path d="M212,47L181,57L190,69Z" fill="rgb(240, 13, 0)" fill-opacity="0.80"/><path d="M132,131L135,126L131,203Z" fill="rgb(234, 234, 234)" fill-opacity="1.00"/></svg>