<svg xmlns="http://www.w3.org/2000/svg" viewBox="0 0 256 143.0214876033058" clip-path="url(#clip)"><defs><clipPath id="clip" clipPathUnits="objectBoundingBox"><rect x="0" y="0" width="256" height="143.0214876033058"/></clipPath></defs><rect x="0" y="0" width="256" height="143.0214876033058" fill="#f6f6f6"/><path d="M30,4L273,48L44,201Z" fill="rgb(102, 48, 155)" fill-opacity="0.94"/><path d="M200,153L57,99L40,223Z" fill="rgb(238, 248, 245)" fill-opacity="0.82"/><path d="M242,75L136,14L105,31Z" fill="rgb(254, 45, 18)" fill-opacity="0.76"/><path d="M138,16L208,77L136,61Z" fill="rgb(231, 22, 17)" fill-opacity="0.99"/><path d="M216,68L92,110L202,117Z" fill="rgb(0, 1, 235)" fill-opacity="0.92"/><path d="M159,64L130,139L38,41Z" fill="rgb(0, 0, 190)" fill-opacity="0.92"/><path d="M174,35L263,4L252,89Z" fill="rgb(248, 187, 173)" fill-opacity="0.82"/><path d="M243,13L155,83L219,63Z" fill="rgb(217, 12, 8)" fill-opacity="0.91"/><path d="M67,27L29,72L34,23Z" fill="rgb(254, 22, 0)" fill-opacity="0.84"/><path d="M157,86L30,70L75,108Z" fill="rgb(31, 0, 0)" fill-opacity="0.76"/><path d="M99,119L167,119L111,83Z" fill="rgb(0, 0, 244)" fill-opacity="0.85"/><path d="M38,138L43,106L61,123Z" fill="rgb(13, 24, 2)" fill-opacity="0.80"/><path d="M72,108L26,111L37,82Z" fill="rgb(250, 246, 238)" fill-opacity="0.89"/><path d="M265,149L149,118L129,131Z" fill="rgb(237, 237, 241)" fill-opacity="1.00"/><path d="M35,80L32,33L66,102Z" fill="rgb(235, 17, 4)" fill-opacity="0.95"/><path d="M214,130L206,140L177,77Z" fill="rgb(13, 10, 232)" fill-opacity="0.87"/><path d="M168,83L194,78L120,15Z" fill="rgb(233, 14, 4)" fill-opacity="0.94"/><path d="M86,11L42,61L181,94Z" fill="rgb(0, 0, 244)" fill-opacity="0.90"/><path d="M62,33L130,66L138,35Z" fill="rgb(0, 0, 240)" fill-opacity="0.88"/><path d="M50,-12L-61,33L28,49Z" fill="rgb(244, 244, 245)" fill-opacity="0.96"/><path d="M111,80L136,102L147,82Z" fill="rgb(0, 0, 28)" fill-opacity="0.88"/><path d="M259,159L258,-9L218,72Z" fill="rgb(244, 245, 245)" fill-opacity="0.98"/><path d="M36,8L104,58L111,19Z" fill="rgb(0, 0, 242)" fill-opacity="0.90"/><path d="M32,39L28,59L69,38Z" fill="rgb(223, 0, 10)" fill-opacity="0.48"/><path d="M189,56L185,29L243,2Z" fill="rgb(243, 243, 244)" fill-opacity="0.95"/><path d="M33,43L62,87L49,98Z" fill="rgb(255, 14, 0)" fill-opacity="0.64"/><path d="M115,16L186,53L108,28Z" fill="rgb(250, 23, 8)" fill-opacity="0.78"/><path d="M115,142L36,130L53,178Z" fill="rgb(255, 255, 244)" fill-opacity="0.66"/><path d="M65,22L53,76L162,72Z" fill="rgb(1, 0, 242)" fill-opacity="0.92"/><path d="M131,171L56,122L92,104Z" fill="rgb(237, 238, 235)" fill-opacity="0.84"/><path d="M81,15L146,20L172,-67Z" fill="rgb(243, 243, 243)" fill-opacity="0.96"/><path d="M276,63L264,-28L235,17Z" fill="rgb(244, 243, 243)" fill-opacity="1.00"/><path d="M214,92L202,114L202,102Z" fill="rgb(232, 232, 232)" fill-opacity="0.95"/><path d="M238,33L226,19L236,10Z" fill="rgb(219, 14, 4)" fill-opacity="0.60"/><path d="M237,46L213,28L207,50Z" fill="rgb(222, 12, 0)" fill-opacity="0.69"/><path d="M36,129L66,129L39,112Z" fill="rgb(6, 11, 1)" fill-opacity="0.63"/><path d="M44,24L112,28L39,11Z" fill="rgb(3, 1, 238)" fill-opacity="1.00"/><path d="M100,135L97,140L86,125Z" fill="rgb(7, 7, 6)" fill-opacity="0.46"/><path d="M174,57L167,51L172,26Z" fill="rgb(217, 255, 254)" fill-opacity="0.61"/><path d="M221,78L192,117L207,59Z" fill="rgb(1, 2, 226)" fill-opacity="0.84"/><path d="M179,25L151,63L133,62Z" fill="rgb(238, 16, 0)" fill-opacity="0.60"/><path d="M143,89L182,112L153,60Z" fill="rgb(1, 0, 234)" fill-opacity="0.83"/><path d="M109,34L110,18L164,24Z" fill="rgb(238, 17, 5)" fill-opacity="0.88"/><path d="M31,60L5,8L42,106Z" fill="rgb(241, 239, 239)" fill-opacity="1.00"/><path d="M43,108L43,136L57,113Z" fill="rgb(8, 8, 7)" fill-opacity="0.93"/><path d="M120,81L108,85L126,143Z" fill="rgb(3, 4, 255)" fill-opacity="0.72"/><path d="M108,108L52,96L107,81Z" fill="rgb(0, 0, 0)" fill-opacity="0.66"/><path d="M188,39L164,36L163,24Z" fill="rgb(215, 75, 44)" fill-opacity="0.56"/><path d="M156,112L88,104L128,130Z" fill="rgb(5, 6, 246)" fill-opacity="0.85"/><path d="M145,99L118,95L142,78Z" fill="rgb(0, 0, 1)" fill-opacity="0.68"/><path d="M120,204L118,121L107,116Z" fill="rgb(254, 255, 246)" fill-opacity="0.66"/><path d="M45,152L58,143L68,104Z" fill="rgb(255, 255, 254)" fill-opacity="0.46"/><path d="M139,61L46,44L51,71Z" fill="rgb(1, 0, 241)" fill-opacity="0.99"/><path d="M29,47L35,78L55,25Z" fill="rgb(243, 18, 5)" fill-opacity="0.93"/><path d="M203,106L223,162L206,98Z" fill="rgb(242, 242, 241)" fill-opacity="0.84"/><path d="M1,113L43,121L22,129Z" fill="rgb(239, 239, 239)" fill-opacity="0.78"/><path d="M36,30L-3,-154L40,11Z" fill="rgb(243, 241, 241)" fill-opacity="1.00"/><path d="M173,45L179,28L193,80Z" fill="rgb(234, 15, 3)" fill-opacity="0.81"/><path d="M242,25L231,35L239,22Z" fill="rgb(171, 42, 36)" fill-opacity="1.00"/><path d="M71,74L56,96L109,106Z" fill="rgb(0, 0, 0)" fill-opacity="0.93"/><path d="M181,34L199,49L213,-24Z" fill="rgb(245, 245, 245)" fill-opacity="0.93"/><path d="M68,135L73,133L58,126Z" fill="rgb(25, 25, 20)" fill-opacity="0.70"/><path d="M45,60L110,26L59,82Z" fill="rgb(0, 0, 241)" fill-opacity="0.90"/><path d="M58,126L96,110L55,102Z" fill="rgb(242, 242, 242)" fill-opacity="1.00"/><path d="M197,126L198,96L212,139Z" fill="rgb(0, 2, 226)" fill-opacity="0.63"/><path d="M58,97L70,104L108,106Z" fill="rgb(1, 4, 13)" fill-opacity="0.92"/><path d="M62,26L59,47L30,36Z" fill="rgb(250, 15, 1)" fill-opacity="0.87"/><path d="M210,138L77,165L181,112Z" fill="rgb(244, 244, 243)" fill-opacity="0.71"/><path d="M10,195L48,129L60,128Z" fill="rgb(240, 250, 232)" fill-opacity="0.55"/><path d="M45,78L43,21L39,19Z" fill="rgb(239, 13, 3)" fill-opacity="0.97"/><path d="M45,47L117,81L53,73Z" fill="rgb(0, 0, 248)" fill-opacity="0.82"/><path d="M58,-5L36,-41L43,11Z" fill="rgb(236, 236, 238)" fill-opacity="1.00"/><path d="M161,136L185,156L194,111Z" fill="rgb(244, 244, 246)" fill-opacity="0.64"/><path d="M173,66L161,89L169,81Z" fill="rgb(132, 3, 7)" fill-opacity="0.50"/><path d="M100,137L95,132L95,140Z" fill="rgb(5, 5, 5)" fill-opacity="0.80"/><path d="M169,122L158,93L154,118Z" fill="rgb(0, 4, 203)" fill-opacity="0.67"/><path d="M220,68L223,42L199,42Z" fill="rgb(223, 13, 1)" fill-opacity="0.78"/><path d="M93,18L46,7L159,95Z" fill="rgb(0, 0, 242)" fill-opacity="1.00"/><path d="M199,76L169,75L179,28Z" fill="rgb(244, 18, 0)" fill-opacity="0.39"/><path d="M212,65L218,54L220,90Z" fill="rgb(2, 29, 12)" fill-opacity="0.27"/><path d="M55,94L73,111L3,106Z" fill="rgb(245, 245, 244)" fill-opacity="0.80"/><path d="M186,55L207,37L186,50Z" fill="rgb(239, 255, 255)" fill-opacity="0.50"/><path d="M53,109L58,122L45,137Z" fill="rgb(10, 10, 10)" fill-opacity="0.60"/><path d="M144,111L144,64L165,78Z" fill="rgb(0, 0, 247)" fill-opacity="0.74"/><path d="M176,32L170,58L168,36Z" fill="rgb(204, 255, 255)" fill-opacity="0.49"/><path d="M136,32L136,52L180,30Z" fill="rgb(238, 14, 1)" fill-opacity="0.92"/><path d="M155,62L141,17L138,63Z" fill="rgb(247, 14, 0)" fill-opacity="0.73"/><path d="M194,79L214,91L211,62Z" fill="rgb(0, 0, 245)" fill-opacity="0.69"/><path d="M108,41L136,34L136,67Z" fill="rgb(0, 0, 250)" fill-opacity="0.61"/><path d="M34,140L35,138L25,140Z" fill="rgb(85, 85, 85)" fill-opacity="0.49"/><path d="M162,58L229,49L182,82Z" fill="rgb(236, 12, 0)" fill-opacity="0.63"/><path d="M38,116L8,68L48,96Z" fill="rgb(245, 246, 246)" fill-opacity="0.81"/><path d="M226,61L230,50L221,53Z" fill="rgb(219, 254, 252)" fill-opacity="0.49"/><path d="M59,96L54,73L47,93Z" fill="rgb(249, 8, 0)" fill-opacity="0.59"/><path d="M31,66L34,59L34,65Z" fill="rgb(0, 32, 43)" fill-opacity="0.40"/><path d="M141,97L167,118L93,109Z" fill="rgb(0, 0, 250)" fill-opacity="0.82"/><path d="M227,31L230,13L241,26Z" fill="rgb(236, 19, 7)" fill-opacity="0.90"/><path d="M162,29L163,14L156,31Z" fill="rgb(222, 223, 223)" fill-opacity="0.92"/><path d="M148,104L127,138L113,116Z" fill="rgb(1, 1, 245)" fill-opacity="0.97"/><path d="M247,22L197,-10L349,16Z" fill="rgb(245, 245, 245)" fill-opacity="1.00"/></svg>