<svg xmlns="http://www.w3.org/2000/svg" viewBox="0 0 256 143.0214876033058" clip-path="url(#clip)"><defs><clipPath id="clip" clipPathUnits="objectBoundingBox"><rect x="0" y="0" width="256" height="143.0214876033058"/></clipPath></defs><rect x="0" y="0" width="256" height="143.0214876033058" fill="#f6f6f6"/><path d="M10,2L248,41L108,184Z" fill="rgb(110, 11, 105)" fill-opacity="0.83"/><path d="M198,118L38,93L223,69Z" fill="rgb(0, 0, 176)" fill-opacity="0.90"/><path d="M68,132L43,103L36,131Z" fill="rgb(13, 13, 13)" fill-opacity="0.78"/><path d="M30,73L61,102L33,17Z" fill="rgb(235, 43, 38)" fill-opacity="1.00"/><path d="M57,-35L-27,18L29,48Z" fill="rgb(245, 244, 243)" fill-opacity="0.98"/><path d="M190,55L165,-18L211,38Z" fill="rgb(245, 242, 239)" fill-opacity="0.93"/><path d="M202,134L215,135L179,68Z" fill="rgb(14, 13, 235)" fill-opacity="0.93"/><path d="M206,302L117,121L35,91Z" fill="rgb(231, 233, 236)" fill-opacity="0.96"/><path d="M230,141L117,144L149,118Z" fill="rgb(240, 241, 244)" fill-opacity="0.97"/><path d="M111,62L46,94L107,111Z" fill="rgb(0, 0, 30)" fill-opacity="0.75"/><path d="M113,20L49,70L70,13Z" fill="rgb(10, 0, 232)" fill-opacity="0.97"/><path d="M160,18L79,40L139,89Z" fill="rgb(238, 9, 0)" fill-opacity="0.84"/><path d="M225,58L159,78L240,12Z" fill="rgb(236, 24, 4)" fill-opacity="0.83"/><path d="M59,47L30,36L64,8Z" fill="rgb(251, 17, 1)" fill-opacity="0.95"/><path d="M272,63L250,3L215,75Z" fill="rgb(242, 241, 240)" fill-opacity="0.87"/><path d="M110,18L152,21L116,85Z" fill="rgb(242, 17, 4)" fill-opacity="0.99"/><path d="M122,75L149,95L120,96Z" fill="rgb(23, 0, 0)" fill-opacity="0.86"/><path d="M113,56L114,81L80,76Z" fill="rgb(13, 0, 231)" fill-opacity="0.96"/><path d="M160,69L137,60L165,125Z" fill="rgb(0, 0, 241)" fill-opacity="0.82"/><path d="M53,71L45,93L62,96Z" fill="rgb(245, 15, 0)" fill-opacity="0.77"/><path d="M166,81L125,19L190,44Z" fill="rgb(246, 26, 5)" fill-opacity="0.86"/><path d="M72,36L62,86L42,56Z" fill="rgb(0, 0, 241)" fill-opacity="0.83"/><path d="M109,41L62,26L109,18Z" fill="rgb(0, 0, 248)" fill-opacity="0.88"/><path d="M106,97L206,100L120,130Z" fill="rgb(0, 2, 247)" fill-opacity="0.94"/><path d="M126,108L93,105L103,122Z" fill="rgb(7, 9, 245)" fill-opacity="0.95"/><path d="M110,39L84,36L52,97Z" fill="rgb(219, 6, 0)" fill-opacity="0.80"/><path d="M46,141L57,111L35,112Z" fill="rgb(0, 0, 0)" fill-opacity="0.47"/><path d="M168,55L171,12L174,54Z" fill="rgb(222, 193, 192)" fill-opacity="0.99"/><path d="M230,13L242,25L223,44Z" fill="rgb(215, 29, 19)" fill-opacity="1.00"/><path d="M40,8L63,9L35,77Z" fill="rgb(246, 16, 0)" fill-opacity="0.82"/><path d="M78,155L42,142L58,121Z" fill="rgb(242, 242, 242)" fill-opacity="0.53"/><path d="M95,133L101,136L95,140Z" fill="rgb(16, 16, 15)" fill-opacity="0.83"/><path d="M187,67L142,94L206,121Z" fill="rgb(0, 0, 240)" fill-opacity="0.83"/><path d="M207,60L185,116L223,80Z" fill="rgb(4, 3, 234)" fill-opacity="0.84"/><path d="M88,56L85,79L116,62Z" fill="rgb(1, 0, 239)" fill-opacity="0.90"/><path d="M196,77L209,61L174,50Z" fill="rgb(221, 12, 5)" fill-opacity="0.94"/><path d="M110,106L57,99L65,70Z" fill="rgb(2, 1, 0)" fill-opacity="0.87"/><path d="M221,-8L141,4L156,32Z" fill="rgb(241, 243, 242)" fill-opacity="0.64"/><path d="M161,125L197,116L171,113Z" fill="rgb(226, 237, 234)" fill-opacity="0.66"/><path d="M66,53L85,82L87,45Z" fill="rgb(235, 10, 2)" fill-opacity="0.79"/><path d="M-18,94L22,40L48,110Z" fill="rgb(244, 243, 243)" fill-opacity="0.94"/><path d="M58,124L39,139L53,106Z" fill="rgb(2, 2, 2)" fill-opacity="0.63"/><path d="M236,44L213,30L204,58Z" fill="rgb(225, 14, 1)" fill-opacity="0.79"/><path d="M201,109L205,98L305,54Z" fill="rgb(242, 242, 243)" fill-opacity="0.97"/><path d="M28,89L68,106L55,94Z" fill="rgb(255, 240, 231)" fill-opacity="0.61"/><path d="M144,99L107,79L144,82Z" fill="rgb(0, 0, 3)" fill-opacity="0.79"/><path d="M168,23L112,78L128,83Z" fill="rgb(242, 14, 0)" fill-opacity="0.78"/><path d="M81,56L139,63L84,36Z" fill="rgb(245, 14, 1)" fill-opacity="1.00"/><path d="M133,138L123,136L118,80Z" fill="rgb(4, 5, 243)" fill-opacity="0.92"/><path d="M43,59L34,79L55,96Z" fill="rgb(251, 13, 0)" fill-opacity="0.71"/><path d="M65,74L70,46L84,77Z" fill="rgb(250, 11, 0)" fill-opacity="0.74"/><path d="M162,29L121,52L181,31Z" fill="rgb(235, 19, 5)" fill-opacity="0.91"/><path d="M130,-61L187,43L230,25Z" fill="rgb(244, 245, 245)" fill-opacity="0.78"/><path d="M192,126L146,119L130,131Z" fill="rgb(238, 238, 240)" fill-opacity="1.00"/><path d="M85,105L95,107L79,220Z" fill="rgb(233, 233, 235)" fill-opacity="1.00"/><path d="M35,38L26,52L58,88Z" fill="rgb(252, 1, 0)" fill-opacity="0.47"/><path d="M73,107L64,74L113,82Z" fill="rgb(2, 0, 0)" fill-opacity="0.92"/><path d="M86,15L59,46L81,51Z" fill="rgb(2, 0, 239)" fill-opacity="1.00"/><path d="M239,13L239,20L231,14Z" fill="rgb(225, 166, 164)" fill-opacity="1.00"/><path d="M103,18L59,10L27,-16Z" fill="rgb(236, 237, 238)" fill-opacity="0.83"/><path d="M156,63L144,118L144,63Z" fill="rgb(0, 0, 246)" fill-opacity="0.92"/><path d="M132,34L117,56L203,72Z" fill="rgb(239, 13, 1)" fill-opacity="0.93"/><path d="M4,69L40,115L-41,174Z" fill="rgb(245, 245, 245)" fill-opacity="1.00"/><path d="M191,54L211,39L174,4Z" fill="rgb(242, 242, 242)" fill-opacity="0.71"/><path d="M188,56L201,47L186,50Z" fill="rgb(229, 252, 240)" fill-opacity="0.53"/><path d="M47,7L45,17L51,7Z" fill="rgb(114, 21, 17)" fill-opacity="0.92"/><path d="M104,113L133,130L116,81Z" fill="rgb(0, 0, 254)" fill-opacity="0.81"/><path d="M149,96L179,108L159,123Z" fill="rgb(0, 6, 224)" fill-opacity="0.62"/><path d="M45,62L47,43L70,54Z" fill="rgb(1, 0, 245)" fill-opacity="0.86"/><path d="M73,133L69,135L51,122Z" fill="rgb(7, 7, 6)" fill-opacity="0.58"/><path d="M201,42L231,42L199,64Z" fill="rgb(239, 13, 0)" fill-opacity="0.88"/><path d="M44,136L17,138L26,142Z" fill="rgb(144, 144, 144)" fill-opacity="0.48"/><path d="M177,34L184,36L175,76Z" fill="rgb(241, 16, 4)" fill-opacity="0.97"/><path d="M209,94L202,110L231,67Z" fill="rgb(216, 216, 218)" fill-opacity="0.68"/><path d="M44,59L63,80L71,44Z" fill="rgb(0, 0, 244)" fill-opacity="0.93"/><path d="M59,128L47,130L95,156Z" fill="rgb(241, 241, 241)" fill-opacity="0.87"/><path d="M69,10L64,21L65,70Z" fill="rgb(1, 2, 245)" fill-opacity="0.92"/><path d="M293,22L222,53L228,103Z" fill="rgb(246, 246, 246)" fill-opacity="0.83"/><path d="M113,81L144,74L119,19Z" fill="rgb(244, 13, 0)" fill-opacity="0.90"/><path d="M86,46L152,22L169,52Z" fill="rgb(245, 13, 0)" fill-opacity="0.61"/><path d="M172,33L168,48L177,33Z" fill="rgb(226, 250, 242)" fill-opacity="0.72"/><path d="M226,56L214,215L211,126Z" fill="rgb(245, 245, 244)" fill-opacity="0.92"/><path d="M66,104L85,107L82,78Z" fill="rgb(0, 4, 0)" fill-opacity="0.74"/><path d="M153,153L191,113L205,136Z" fill="rgb(242, 242, 242)" fill-opacity="0.95"/><path d="M46,10L44,11L-43,-83Z" fill="rgb(235, 229, 229)" fill-opacity="1.00"/><path d="M137,62L157,62L154,63Z" fill="rgb(31, 0, 29)" fill-opacity="0.71"/><path d="M142,21L142,19L118,19Z" fill="rgb(157, 6, 1)" fill-opacity="0.69"/><path d="M56,114L93,104L59,129Z" fill="rgb(248, 249, 245)" fill-opacity="0.61"/><path d="M205,60L221,59L219,72Z" fill="rgb(129, 23, 22)" fill-opacity="0.67"/><path d="M39,132L55,111L44,108Z" fill="rgb(1, 1, 1)" fill-opacity="0.74"/><path d="M161,29L227,-24L152,30Z" fill="rgb(237, 236, 236)" fill-opacity="1.00"/><path d="M25,36L-50,110L39,93Z" fill="rgb(245, 245, 245)" fill-opacity="0.88"/><path d="M98,111L20,94L104,135Z" fill="rgb(246, 246, 246)" fill-opacity="0.78"/><path d="M58,79L59,95L46,95Z" fill="rgb(252, 12, 0)" fill-opacity="0.64"/><path d="M206,140L211,135L208,121Z" fill="rgb(3, 4, 222)" fill-opacity="0.61"/><path d="M193,118L166,114L215,181Z" fill="rgb(246, 246, 246)" fill-opacity="0.76"/><path d="M109,82L58,81L107,106Z" fill="rgb(0, 0, 2)" fill-opacity="1.00"/><path d="M207,25L165,30L204,-108Z" fill="rgb(246, 246, 246)" fill-opacity="0.77"/><path d="M-14,114L44,134L21,114Z" fill="rgb(242, 242, 242)" fill-opacity="0.92"/><path d="M164,76L147,48L180,73Z" fill="rgb(242, 11, 0)" fill-opacity="0.81"/></svg>