<svg xmlns="http://www.w3.org/2000/svg" viewBox="0 0 256 143.0214876033058" clip-path="url(#clip)"><defs><clipPath id="clip" clipPathUnits="objectBoundingBox"><rect x="0" y="0" width="256" height="143.0214876033058"/></clipPath></defs><rect x="0" y="0" width="256" height="143.0214876033058" fill="#f6f6f6"/><path d="M218,133L23,94L88,-229Z" fill="rgb(153, 1, 49)" fill-opacity="0.77"/><path d="M63,113L41,143L37,108Z" fill="rgb(11, 11, 11)" fill-opacity="0.76"/><path d="M31,6L107,-109L202,30Z" fill="rgb(244, 242, 241)" fill-opacity="0.99"/><path d="M238,20L93,121L202,120Z" fill="rgb(78, 23, 169)" fill-opacity="1.00"/><path d="M241,14L232,51L129,93Z" fill="rgb(243, 34, 0)" fill-opacity="0.78"/><path d="M101,115L154,84L48,74Z" fill="rgb(1, 0, 61)" fill-opacity="0.92"/><path d="M125,140L153,108L103,83Z" fill="rgb(0, 2, 239)" fill-opacity="0.94"/><path d="M24,122L56,101L5,41Z" fill="rgb(244, 244, 243)" fill-opacity="0.92"/><path d="M279,49L215,138L200,102Z" fill="rgb(243, 244, 245)" fill-opacity="0.94"/><path d="M178,261L198,116L168,114Z" fill="rgb(240, 241, 243)" fill-opacity="0.98"/><path d="M229,58L35,85L40,4Z" fill="rgb(248, 14, 0)" fill-opacity="0.87"/><path d="M74,110L120,82L51,73Z" fill="rgb(1, 0, 0)" fill-opacity="0.69"/><path d="M207,139L213,129L170,69Z" fill="rgb(2, 7, 246)" fill-opacity="0.86"/><path d="M64,152L121,129L52,95Z" fill="rgb(231, 231, 232)" fill-opacity="1.00"/><path d="M141,19L39,19L172,40Z" fill="rgb(246, 16, 0)" fill-opacity="0.93"/><path d="M197,30L192,8L151,29Z" fill="rgb(241, 242, 240)" fill-opacity="0.78"/><path d="M164,53L174,55L173,32Z" fill="rgb(219, 250, 244)" fill-opacity="0.60"/><path d="M226,72L89,110L194,114Z" fill="rgb(0, 3, 239)" fill-opacity="0.89"/><path d="M149,20L93,79L166,83Z" fill="rgb(239, 14, 0)" fill-opacity="1.00"/><path d="M44,107L71,134L35,128Z" fill="rgb(0, 0, 0)" fill-opacity="0.54"/><path d="M225,19L182,54L194,54Z" fill="rgb(231, 220, 220)" fill-opacity="0.83"/><path d="M101,16L27,46L50,98Z" fill="rgb(247, 14, 0)" fill-opacity="0.82"/><path d="M207,64L174,47L196,77Z" fill="rgb(225, 14, 7)" fill-opacity="0.95"/><path d="M45,10L29,43L178,74Z" fill="rgb(240, 14, 0)" fill-opacity="0.80"/><path d="M59,128L142,191L29,143Z" fill="rgb(241, 241, 241)" fill-opacity="0.96"/><path d="M237,27L219,65L227,134Z" fill="rgb(236, 238, 236)" fill-opacity="0.70"/><path d="M133,144L120,84L108,83Z" fill="rgb(4, 4, 245)" fill-opacity="0.96"/><path d="M58,-16L50,6L14,23Z" fill="rgb(242, 243, 243)" fill-opacity="0.83"/><path d="M9,170L38,94L27,40Z" fill="rgb(244, 243, 243)" fill-opacity="1.00"/><path d="M69,105L54,89L86,107Z" fill="rgb(11, 6, 0)" fill-opacity="0.80"/><path d="M203,57L213,30L236,44Z" fill="rgb(226, 17, 5)" fill-opacity="0.92"/><path d="M214,90L185,67L146,95Z" fill="rgb(0, 0, 229)" fill-opacity="0.81"/><path d="M175,32L211,38L208,42Z" fill="rgb(228, 230, 230)" fill-opacity="0.86"/><path d="M132,129L130,181L152,116Z" fill="rgb(235, 236, 238)" fill-opacity="0.81"/><path d="M102,118L171,118L91,104Z" fill="rgb(2, 3, 247)" fill-opacity="0.94"/><path d="M213,58L220,84L158,120Z" fill="rgb(0, 0, 231)" fill-opacity="0.81"/><path d="M242,25L224,43L230,11Z" fill="rgb(217, 31, 21)" fill-opacity="0.89"/><path d="M161,83L153,120L143,85Z" fill="rgb(1, 1, 243)" fill-opacity="1.00"/><path d="M115,144L93,106L62,109Z" fill="rgb(246, 246, 246)" fill-opacity="0.82"/><path d="M96,140L89,127L101,137Z" fill="rgb(39, 39, 38)" fill-opacity="0.61"/><path d="M115,119L108,117L87,196Z" fill="rgb(240, 241, 242)" fill-opacity="0.91"/><path d="M58,98L111,108L65,72Z" fill="rgb(0, 0, 0)" fill-opacity="0.63"/><path d="M144,79L117,94L144,99Z" fill="rgb(0, 0, 0)" fill-opacity="0.75"/><path d="M55,129L78,164L47,129Z" fill="rgb(251, 251, 251)" fill-opacity="0.60"/><path d="M164,28L120,51L171,65Z" fill="rgb(238, 14, 1)" fill-opacity="1.00"/><path d="M77,134L70,103L57,124Z" fill="rgb(245, 245, 245)" fill-opacity="0.76"/><path d="M39,82L41,85L13,77Z" fill="rgb(226, 224, 224)" fill-opacity="0.94"/><path d="M107,91L109,110L145,123Z" fill="rgb(0, 0, 255)" fill-opacity="0.63"/><path d="M44,132L-20,194L40,131Z" fill="rgb(199, 199, 199)" fill-opacity="1.00"/><path d="M254,22L231,34L233,44Z" fill="rgb(236, 241, 242)" fill-opacity="0.72"/><path d="M199,92L122,132L107,106Z" fill="rgb(0, 1, 244)" fill-opacity="0.81"/><path d="M201,113L331,34L210,92Z" fill="rgb(244, 244, 245)" fill-opacity="0.91"/><path d="M118,81L143,81L135,99Z" fill="rgb(0, 0, 2)" fill-opacity="1.00"/><path d="M214,63L226,33L217,85Z" fill="rgb(110, 34, 0)" fill-opacity="0.37"/><path d="M169,54L173,57L170,33Z" fill="rgb(225, 253, 253)" fill-opacity="0.67"/><path d="M38,26L42,0L17,-10Z" fill="rgb(241, 237, 237)" fill-opacity="0.84"/><path d="M70,136L55,124L71,132Z" fill="rgb(0, 0, 0)" fill-opacity="0.41"/><path d="M36,118L59,129L54,109Z" fill="rgb(3, 3, 3)" fill-opacity="0.81"/><path d="M189,45L178,32L167,80Z" fill="rgb(236, 20, 4)" fill-opacity="0.75"/><path d="M80,15L-63,-31L132,20Z" fill="rgb(240, 240, 238)" fill-opacity="0.77"/><path d="M199,130L198,100L212,137Z" fill="rgb(0, 0, 247)" fill-opacity="0.48"/><path d="M142,119L159,119L144,140Z" fill="rgb(250, 255, 236)" fill-opacity="0.50"/><path d="M240,7L278,-14L236,23Z" fill="rgb(243, 241, 241)" fill-opacity="0.88"/><path d="M107,104L73,106L109,80Z" fill="rgb(1, 1, 2)" fill-opacity="1.00"/><path d="M55,96L62,86L29,54Z" fill="rgb(253, 15, 0)" fill-opacity="0.85"/><path d="M192,119L212,142L101,144Z" fill="rgb(243, 243, 244)" fill-opacity="0.80"/><path d="M218,142L302,-18L201,108Z" fill="rgb(246, 246, 246)" fill-opacity="0.74"/><path d="M76,124L94,131L92,129Z" fill="rgb(21, 21, 20)" fill-opacity="0.44"/><path d="M38,91L99,163L60,98Z" fill="rgb(245, 246, 245)" fill-opacity="0.82"/><path d="M52,111L33,123L47,109Z" fill="rgb(20, 20, 20)" fill-opacity="0.65"/><path d="M50,9L93,79L143,25Z" fill="rgb(244, 14, 0)" fill-opacity="0.88"/><path d="M200,48L186,55L199,2Z" fill="rgb(244, 245, 245)" fill-opacity="0.81"/><path d="M33,41L3,87L16,5Z" fill="rgb(245, 245, 245)" fill-opacity="0.87"/><path d="M48,9L47,16L39,8Z" fill="rgb(132, 67, 64)" fill-opacity="0.78"/><path d="M96,130L61,147L81,171Z" fill="rgb(244, 244, 244)" fill-opacity="0.98"/><path d="M240,25L203,67L214,31Z" fill="rgb(229, 12, 1)" fill-opacity="0.74"/><path d="M121,119L121,83L99,116Z" fill="rgb(0, 0, 252)" fill-opacity="0.75"/><path d="M199,62L209,60L222,67Z" fill="rgb(23, 4, 129)" fill-opacity="0.60"/><path d="M236,14L227,51L229,15Z" fill="rgb(227, 13, 2)" fill-opacity="0.78"/><path d="M236,0L141,2L224,30Z" fill="rgb(245, 245, 245)" fill-opacity="0.84"/><path d="M168,47L174,31L172,56Z" fill="rgb(240, 252, 249)" fill-opacity="0.59"/><path d="M57,129L66,102L92,118Z" fill="rgb(248, 248, 248)" fill-opacity="0.53"/><path d="M112,61L165,80L200,53Z" fill="rgb(237, 14, 2)" fill-opacity="1.00"/><path d="M158,97L166,76L157,115Z" fill="rgb(27, 0, 71)" fill-opacity="0.43"/><path d="M-5,164L14,129L43,119Z" fill="rgb(234, 234, 234)" fill-opacity="0.62"/><path d="M46,136L35,124L57,120Z" fill="rgb(0, 0, 0)" fill-opacity="0.53"/><path d="M247,45L226,80L216,72Z" fill="rgb(247, 249, 249)" fill-opacity="0.51"/><path d="M115,68L159,23L124,19Z" fill="rgb(246, 15, 1)" fill-opacity="0.73"/><path d="M184,70L185,58L227,30Z" fill="rgb(240, 17, 4)" fill-opacity="0.92"/><path d="M35,75L7,150L39,115Z" fill="rgb(244, 244, 244)" fill-opacity="0.94"/><path d="M166,121L163,111L135,116Z" fill="rgb(0, 6, 229)" fill-opacity="0.75"/><path d="M158,98L207,122L183,67Z" fill="rgb(0, 0, 239)" fill-opacity="0.82"/><path d="M151,62L135,63L159,63Z" fill="rgb(39, 0, 0)" fill-opacity="0.58"/><path d="M152,27L150,31L165,35Z" fill="rgb(121, 69, 66)" fill-opacity="0.36"/><path d="M74,-56L45,10L9,-6Z" fill="rgb(242, 241, 241)" fill-opacity="1.00"/><path d="M226,47L251,89L219,63Z" fill="rgb(248, 249, 243)" fill-opacity="0.38"/><path d="M55,-31L153,24L243,13Z" fill="rgb(246, 248, 249)" fill-opacity="0.50"/><path d="M218,65L223,58L213,32Z" fill="rgb(226, 18, 3)" fill-opacity="0.66"/><path d="M121,75L153,63L166,87Z" fill="rgb(255, 13, 0)" fill-opacity="0.32"/><path d="M216,57L201,108L202,68Z" fill="rgb(0, 0, 236)" fill-opacity="0.55"/></svg>