<svg xmlns="http://www.w3.org/2000/svg" viewBox="0 0 256 143.0214876033058" clip-path="url(#clip)"><defs><clipPath id="clip" clipPathUnits="objectBoundingBox"><rect x="0" y="0" width="256" height="143.0214876033058"/></clipPath></defs><rect x="0" y="0" width="256" height="143.0214876033058" fill="#f6f6f6"/><path d="M218,133L18,92L100,-198Z" fill="rgb(159, 17, 61)" fill-opacity="0.82"/><path d="M239,20L200,121L90,120Z" fill="rgb(78, 23, 167)" fill-opacity="1.00"/><path d="M55,75L174,85L72,109Z" fill="rgb(0, 0, 42)" fill-opacity="0.91"/><path d="M66,-191L37,7L189,28Z" fill="rgb(244, 242, 241)" fill-opacity="0.98"/><path d="M39,142L64,117L38,105Z" fill="rgb(8, 8, 8)" fill-opacity="0.74"/><path d="M137,91L238,14L230,51Z" fill="rgb(253, 31, 0)" fill-opacity="0.76"/><path d="M225,74L190,119L137,86Z" fill="rgb(0, 5, 235)" fill-opacity="0.89"/><path d="M54,101L13,44L-2,144Z" fill="rgb(245, 244, 243)" fill-opacity="0.94"/><path d="M210,168L164,115L195,114Z" fill="rgb(237, 240, 242)" fill-opacity="0.93"/><path d="M170,95L103,96L125,138Z" fill="rgb(1, 3, 233)" fill-opacity="0.96"/><path d="M93,107L105,123L125,78Z" fill="rgb(0, 3, 197)" fill-opacity="0.87"/><path d="M36,126L43,116L77,135Z" fill="rgb(1, 1, 1)" fill-opacity="0.59"/><path d="M167,87L20,58L143,16Z" fill="rgb(248, 12, 0)" fill-opacity="0.90"/><path d="M232,171L201,129L203,91Z" fill="rgb(154, 165, 251)" fill-opacity="0.86"/><path d="M126,21L39,9L47,96Z" fill="rgb(244, 13, 0)" fill-opacity="0.94"/><path d="M-79,12L31,56L39,115Z" fill="rgb(245, 245, 245)" fill-opacity="0.93"/><path d="M200,130L213,137L183,66Z" fill="rgb(8, 7, 235)" fill-opacity="0.97"/><path d="M156,30L217,-159L228,28Z" fill="rgb(244, 245, 245)" fill-opacity="0.76"/><path d="M146,20L162,85L190,45Z" fill="rgb(255, 29, 0)" fill-opacity="0.68"/><path d="M233,12L187,84L242,25Z" fill="rgb(222, 19, 6)" fill-opacity="0.72"/><path d="M210,40L187,57L194,-28Z" fill="rgb(242, 241, 241)" fill-opacity="0.73"/><path d="M184,67L202,108L119,125Z" fill="rgb(0, 0, 236)" fill-opacity="0.94"/><path d="M94,132L95,141L101,136Z" fill="rgb(69, 69, 69)" fill-opacity="0.83"/><path d="M45,9L44,92L27,50Z" fill="rgb(255, 17, 0)" fill-opacity="0.71"/><path d="M43,136L56,111L43,108Z" fill="rgb(0, 0, 0)" fill-opacity="0.81"/><path d="M54,96L107,107L109,79Z" fill="rgb(1, 1, 1)" fill-opacity="0.95"/><path d="M124,137L107,77L133,138Z" fill="rgb(9, 6, 240)" fill-opacity="0.97"/><path d="M175,59L167,50L172,31Z" fill="rgb(223, 255, 254)" fill-opacity="0.62"/><path d="M61,101L60,79L73,73Z" fill="rgb(14, 1, 0)" fill-opacity="0.83"/><path d="M160,55L199,76L208,54Z" fill="rgb(232, 12, 0)" fill-opacity="0.86"/><path d="M189,86L212,59L220,85Z" fill="rgb(2, 1, 226)" fill-opacity="0.96"/><path d="M60,129L50,94L80,109Z" fill="rgb(238, 238, 238)" fill-opacity="0.99"/><path d="M227,165L278,16L201,105Z" fill="rgb(245, 245, 245)" fill-opacity="0.97"/><path d="M103,132L66,137L99,113Z" fill="rgb(232, 232, 233)" fill-opacity="1.00"/><path d="M102,80L29,66L170,79Z" fill="rgb(246, 14, 0)" fill-opacity="0.97"/><path d="M145,101L118,93L143,78Z" fill="rgb(2, 0, 0)" fill-opacity="0.73"/><path d="M219,59L237,39L222,88Z" fill="rgb(233, 224, 218)" fill-opacity="0.79"/><path d="M135,55L29,46L37,85Z" fill="rgb(245, 14, 0)" fill-opacity="0.74"/><path d="M208,54L212,30L237,44Z" fill="rgb(224, 14, 0)" fill-opacity="0.72"/><path d="M215,131L244,132L185,163Z" fill="rgb(244, 244, 244)" fill-opacity="1.00"/><path d="M195,53L222,29L222,62Z" fill="rgb(236, 13, 0)" fill-opacity="0.83"/><path d="M232,237L200,128L145,118Z" fill="rgb(243, 243, 244)" fill-opacity="0.97"/><path d="M104,78L57,92L68,104Z" fill="rgb(4, 1, 0)" fill-opacity="0.93"/><path d="M211,-44L89,3L146,22Z" fill="rgb(245, 247, 248)" fill-opacity="0.70"/><path d="M60,140L1,146L36,129Z" fill="rgb(226, 226, 226)" fill-opacity="0.63"/><path d="M-41,57L33,79L29,45Z" fill="rgb(245, 245, 245)" fill-opacity="0.84"/><path d="M161,37L231,22L221,30Z" fill="rgb(235, 234, 232)" fill-opacity="0.63"/><path d="M56,115L35,121L42,111Z" fill="rgb(5, 5, 5)" fill-opacity="0.62"/><path d="M153,83L117,127L177,84Z" fill="rgb(0, 0, 244)" fill-opacity="0.69"/><path d="M194,118L179,70L215,81Z" fill="rgb(1, 1, 235)" fill-opacity="0.91"/><path d="M98,165L60,128L47,130Z" fill="rgb(239, 239, 239)" fill-opacity="0.95"/><path d="M32,36L116,29L48,6Z" fill="rgb(241, 16, 2)" fill-opacity="0.86"/><path d="M107,92L137,126L115,79Z" fill="rgb(0, 0, 254)" fill-opacity="0.76"/><path d="M48,92L38,81L-6,144Z" fill="rgb(241, 244, 244)" fill-opacity="0.72"/><path d="M114,119L129,144L106,117Z" fill="rgb(244, 251, 237)" fill-opacity="0.57"/><path d="M73,15L49,95L58,95Z" fill="rgb(246, 14, 0)" fill-opacity="0.97"/><path d="M194,20L61,11L108,18Z" fill="rgb(239, 237, 236)" fill-opacity="0.91"/><path d="M231,41L232,33L287,12Z" fill="rgb(240, 240, 240)" fill-opacity="0.87"/><path d="M163,84L170,31L31,36Z" fill="rgb(240, 14, 0)" fill-opacity="0.96"/><path d="M149,96L94,108L131,127Z" fill="rgb(0, 0, 255)" fill-opacity="0.80"/><path d="M175,122L129,131L145,120Z" fill="rgb(232, 233, 235)" fill-opacity="0.87"/><path d="M170,58L176,32L168,37Z" fill="rgb(203, 254, 255)" fill-opacity="0.50"/><path d="M160,121L169,117L141,101Z" fill="rgb(5, 5, 231)" fill-opacity="1.00"/><path d="M230,20L243,24L216,49Z" fill="rgb(209, 11, 0)" fill-opacity="0.57"/><path d="M42,9L48,12L34,-6Z" fill="rgb(212, 221, 220)" fill-opacity="0.84"/><path d="M225,85L214,65L242,87Z" fill="rgb(236, 245, 233)" fill-opacity="0.45"/><path d="M222,40L199,43L214,58Z" fill="rgb(242, 15, 2)" fill-opacity="0.81"/><path d="M35,126L48,137L56,113Z" fill="rgb(0, 0, 0)" fill-opacity="0.47"/><path d="M64,74L63,100L113,82Z" fill="rgb(4, 0, 0)" fill-opacity="0.96"/><path d="M184,80L208,138L212,129Z" fill="rgb(9, 9, 240)" fill-opacity="0.94"/><path d="M200,93L167,77L190,69Z" fill="rgb(3, 0, 227)" fill-opacity="0.89"/><path d="M96,19L71,76L143,19Z" fill="rgb(246, 14, 0)" fill-opacity="0.80"/><path d="M156,24L154,32L162,29Z" fill="rgb(176, 255, 255)" fill-opacity="0.42"/><path d="M146,84L162,83L139,124Z" fill="rgb(1, 0, 236)" fill-opacity="1.00"/><path d="M94,137L95,133L101,138Z" fill="rgb(0, 0, 0)" fill-opacity="0.59"/><path d="M186,54L214,-31L199,49Z" fill="rgb(244, 244, 244)" fill-opacity="0.96"/><path d="M212,63L202,60L202,64Z" fill="rgb(77, 2, 72)" fill-opacity="0.77"/><path d="M169,77L188,48L178,30Z" fill="rgb(234, 17, 4)" fill-opacity="0.83"/><path d="M158,132L178,112L198,124Z" fill="rgb(252, 255, 251)" fill-opacity="0.51"/><path d="M123,19L12,-82L83,15Z" fill="rgb(244, 245, 245)" fill-opacity="0.83"/><path d="M72,133L68,135L58,126Z" fill="rgb(32, 32, 32)" fill-opacity="0.74"/><path d="M163,27L155,41L174,33Z" fill="rgb(223, 23, 11)" fill-opacity="0.85"/><path d="M125,45L192,61L173,75Z" fill="rgb(243, 13, 0)" fill-opacity="0.88"/><path d="M79,119L61,127L54,93Z" fill="rgb(249, 249, 248)" fill-opacity="0.60"/><path d="M153,84L202,105L186,117Z" fill="rgb(2, 2, 237)" fill-opacity="0.94"/><path d="M-31,145L54,104L43,87Z" fill="rgb(245, 245, 245)" fill-opacity="0.79"/><path d="M225,41L230,13L239,24Z" fill="rgb(237, 18, 6)" fill-opacity="0.92"/><path d="M30,140L46,132L40,138Z" fill="rgb(0, 0, 0)" fill-opacity="0.42"/><path d="M219,69L213,91L220,81Z" fill="rgb(35, 37, 120)" fill-opacity="0.53"/><path d="M166,78L157,113L158,97Z" fill="rgb(10, 0, 96)" fill-opacity="0.52"/><path d="M146,97L130,98L118,80Z" fill="rgb(0, 0, 0)" fill-opacity="0.78"/><path d="M270,52L234,17L244,9Z" fill="rgb(241, 243, 244)" fill-opacity="0.49"/><path d="M122,111L104,120L91,104Z" fill="rgb(2, 4, 245)" fill-opacity="0.82"/><path d="M82,126L91,132L97,130Z" fill="rgb(84, 84, 83)" fill-opacity="0.52"/><path d="M24,114L43,122L-7,124Z" fill="rgb(240, 240, 240)" fill-opacity="0.86"/><path d="M203,114L268,152L210,90Z" fill="rgb(245, 245, 245)" fill-opacity="0.69"/><path d="M196,36L231,8L226,28Z" fill="rgb(239, 244, 244)" fill-opacity="0.64"/><path d="M91,79L146,82L114,83Z" fill="rgb(26, 1, 0)" fill-opacity="1.00"/><path d="M40,17L40,-16L35,30Z" fill="rgb(236, 239, 238)" fill-opacity="0.90"/><path d="M14,74L33,40L-61,61Z" fill="rgb(245, 245, 245)" fill-opacity="0.91"/></svg>