<svg xmlns="http://www.w3.org/2000/svg" viewBox="0 0 256 143.0214876033058" clip-path="url(#clip)"><defs><clipPath id="clip" clipPathUnits="objectBoundingBox"><rect x="0" y="0" width="256" height="143.0214876033058"/></clipPath></defs><rect x="0" y="0" width="256" height="143.0214876033058" fill="#f6f6f6"/><path d="M41,136L38,-1L263,101Z" fill="rgb(70, 59, 204)" fill-opacity="0.95"/><path d="M198,118L241,21L50,98Z" fill="rgb(0, 0, 225)" fill-opacity="0.70"/><path d="M134,128L117,187L29,86Z" fill="rgb(214, 214, 234)" fill-opacity="1.00"/><path d="M150,18L151,48L103,49Z" fill="rgb(225, 182, 20)" fill-opacity="0.95"/><path d="M190,62L231,57L128,12Z" fill="rgb(184, 161, 108)" fill-opacity="0.89"/><path d="M58,108L31,119L47,138Z" fill="rgb(24, 27, 0)" fill-opacity="0.71"/><path d="M216,137L171,52L202,134Z" fill="rgb(12, 12, 235)" fill-opacity="0.89"/><path d="M27,29L38,96L62,89Z" fill="rgb(239, 201, 44)" fill-opacity="0.97"/><path d="M255,34L267,256L201,106Z" fill="rgb(244, 244, 244)" fill-opacity="1.00"/><path d="M136,20L196,-32L7,7Z" fill="rgb(245, 244, 235)" fill-opacity="0.95"/><path d="M67,9L63,27L25,13Z" fill="rgb(253, 211, 17)" fill-opacity="0.82"/><path d="M80,44L61,70L86,79Z" fill="rgb(232, 1, 4)" fill-opacity="0.84"/><path d="M38,23L151,33L30,42Z" fill="rgb(0, 0, 235)" fill-opacity="0.73"/><path d="M222,40L232,10L242,27Z" fill="rgb(5, 0, 194)" fill-opacity="0.73"/><path d="M158,46L110,33L107,49Z" fill="rgb(247, 199, 1)" fill-opacity="0.89"/><path d="M197,50L221,48L199,63Z" fill="rgb(239, 190, 1)" fill-opacity="0.89"/><path d="M171,37L152,29L87,147Z" fill="rgb(0, 0, 244)" fill-opacity="0.69"/><path d="M47,44L39,77L31,40Z" fill="rgb(246, 198, 6)" fill-opacity="1.00"/><path d="M216,35L172,58L166,44Z" fill="rgb(255, 239, 138)" fill-opacity="0.66"/><path d="M99,118L77,11L170,120Z" fill="rgb(0, 0, 244)" fill-opacity="0.94"/><path d="M90,59L203,118L197,53Z" fill="rgb(0, 0, 236)" fill-opacity="0.95"/><path d="M43,140L63,118L62,189Z" fill="rgb(242, 244, 226)" fill-opacity="0.75"/><path d="M132,142L83,101L110,157Z" fill="rgb(255, 255, 247)" fill-opacity="0.66"/><path d="M141,45L132,19L158,23Z" fill="rgb(235, 191, 16)" fill-opacity="0.95"/><path d="M156,114L121,134L106,90Z" fill="rgb(2, 2, 247)" fill-opacity="0.88"/><path d="M44,58L72,10L64,91Z" fill="rgb(1, 0, 237)" fill-opacity="0.95"/><path d="M90,61L69,77L68,47Z" fill="rgb(245, 9, 0)" fill-opacity="0.78"/><path d="M45,106L36,128L62,129Z" fill="rgb(11, 12, 0)" fill-opacity="0.77"/><path d="M62,20L133,19L136,36Z" fill="rgb(1, 0, 244)" fill-opacity="0.97"/><path d="M-15,67L59,92L31,125Z" fill="rgb(245, 243, 234)" fill-opacity="0.76"/><path d="M225,28L224,43L218,31Z" fill="rgb(182, 14, 19)" fill-opacity="0.91"/><path d="M71,107L164,95L56,72Z" fill="rgb(0, 0, 245)" fill-opacity="0.92"/><path d="M107,48L133,51L158,43Z" fill="rgb(218, 175, 4)" fill-opacity="0.72"/><path d="M33,-141L22,71L40,13Z" fill="rgb(243, 243, 244)" fill-opacity="1.00"/><path d="M162,27L181,59L184,31Z" fill="rgb(221, 178, 0)" fill-opacity="0.51"/><path d="M58,99L60,80L33,77Z" fill="rgb(242, 195, 0)" fill-opacity="0.74"/><path d="M213,34L239,45L197,50Z" fill="rgb(7, 0, 209)" fill-opacity="0.75"/><path d="M214,-90L186,57L210,39Z" fill="rgb(242, 243, 248)" fill-opacity="0.82"/><path d="M53,4L37,17L51,27Z" fill="rgb(212, 174, 20)" fill-opacity="0.78"/><path d="M172,54L188,54L178,27Z" fill="rgb(239, 195, 11)" fill-opacity="0.70"/><path d="M88,53L30,39L128,19Z" fill="rgb(1, 1, 242)" fill-opacity="0.99"/><path d="M214,46L219,57L202,62Z" fill="rgb(235, 188, 0)" fill-opacity="0.89"/><path d="M57,95L32,96L87,132Z" fill="rgb(248, 248, 246)" fill-opacity="0.76"/><path d="M102,137L90,128L96,139Z" fill="rgb(0, 0, 0)" fill-opacity="0.46"/><path d="M275,15L230,34L242,66Z" fill="rgb(243, 243, 242)" fill-opacity="0.67"/><path d="M65,10L61,26L42,23Z" fill="rgb(247, 198, 0)" fill-opacity="0.83"/><path d="M41,137L56,126L27,142Z" fill="rgb(102, 102, 95)" fill-opacity="0.80"/><path d="M4,246L88,104L100,114Z" fill="rgb(240, 240, 239)" fill-opacity="0.87"/><path d="M203,79L214,76L237,23Z" fill="rgb(0, 0, 187)" fill-opacity="0.69"/><path d="M85,85L88,51L133,140Z" fill="rgb(1, 0, 246)" fill-opacity="0.98"/><path d="M72,134L66,135L60,124Z" fill="rgb(48, 51, 16)" fill-opacity="0.62"/><path d="M207,142L231,97L342,144Z" fill="rgb(245, 245, 245)" fill-opacity="1.00"/><path d="M85,76L63,75L88,55Z" fill="rgb(238, 11, 0)" fill-opacity="0.79"/><path d="M103,123L84,48L169,53Z" fill="rgb(0, 0, 243)" fill-opacity="0.90"/><path d="M197,114L168,114L161,138Z" fill="rgb(238, 238, 229)" fill-opacity="0.53"/><path d="M186,53L158,122L220,84Z" fill="rgb(0, 0, 234)" fill-opacity="0.85"/><path d="M41,120L-39,117L32,129Z" fill="rgb(243, 243, 243)" fill-opacity="0.85"/><path d="M171,34L178,32L167,53Z" fill="rgb(192, 203, 247)" fill-opacity="0.65"/><path d="M107,20L109,66L62,10Z" fill="rgb(0, 0, 247)" fill-opacity="0.71"/><path d="M71,52L50,24L31,36Z" fill="rgb(0, 0, 244)" fill-opacity="0.78"/><path d="M223,52L288,48L220,78Z" fill="rgb(245, 245, 244)" fill-opacity="0.90"/><path d="M150,23L164,23L159,25Z" fill="rgb(111, 101, 52)" fill-opacity="0.55"/><path d="M220,84L214,85L219,70Z" fill="rgb(1, 6, 108)" fill-opacity="0.51"/><path d="M104,84L165,52L139,46Z" fill="rgb(0, 0, 234)" fill-opacity="0.68"/><path d="M159,121L152,117L172,121Z" fill="rgb(43, 43, 148)" fill-opacity="0.77"/><path d="M143,35L158,49L107,35Z" fill="rgb(246, 198, 1)" fill-opacity="0.76"/><path d="M190,62L220,69L218,60Z" fill="rgb(2, 1, 159)" fill-opacity="0.71"/><path d="M39,132L57,110L39,110Z" fill="rgb(0, 0, 0)" fill-opacity="0.56"/><path d="M150,31L170,87L167,35Z" fill="rgb(2, 1, 241)" fill-opacity="1.00"/><path d="M62,27L67,11L43,6Z" fill="rgb(230, 188, 11)" fill-opacity="0.69"/><path d="M53,96L58,127L108,123Z" fill="rgb(244, 244, 242)" fill-opacity="0.85"/><path d="M170,37L169,56L175,54Z" fill="rgb(252, 255, 244)" fill-opacity="0.66"/><path d="M32,46L28,46L37,86Z" fill="rgb(199, 169, 45)" fill-opacity="0.78"/><path d="M48,11L45,18L47,5Z" fill="rgb(8, 14, 46)" fill-opacity="0.59"/><path d="M143,22L123,49L152,47Z" fill="rgb(255, 205, 0)" fill-opacity="0.47"/><path d="M82,87L102,120L182,54Z" fill="rgb(0, 0, 244)" fill-opacity="0.89"/><path d="M74,122L90,131L97,131Z" fill="rgb(25, 25, 13)" fill-opacity="0.32"/><path d="M29,43L49,98L59,81Z" fill="rgb(250, 201, 0)" fill-opacity="0.70"/><path d="M211,26L320,-34L87,16Z" fill="rgb(244, 244, 244)" fill-opacity="0.75"/><path d="M57,93L68,104L97,70Z" fill="rgb(0, 0, 249)" fill-opacity="0.64"/><path d="M70,147L95,130L92,148Z" fill="rgb(254, 254, 246)" fill-opacity="0.68"/><path d="M200,43L206,49L223,39Z" fill="rgb(4, 2, 241)" fill-opacity="0.86"/><path d="M219,29L223,60L209,36Z" fill="rgb(0, 0, 233)" fill-opacity="0.69"/><path d="M182,35L179,28L167,31Z" fill="rgb(150, 131, 48)" fill-opacity="0.47"/><path d="M202,114L77,51L184,115Z" fill="rgb(1, 0, 239)" fill-opacity="0.87"/><path d="M29,54L33,67L35,63Z" fill="rgb(102, 78, 0)" fill-opacity="0.35"/><path d="M158,97L166,80L158,103Z" fill="rgb(0, 0, 97)" fill-opacity="0.71"/><path d="M49,110L43,85L-116,13Z" fill="rgb(243, 244, 245)" fill-opacity="0.87"/><path d="M176,161L175,133L207,131Z" fill="rgb(244, 244, 244)" fill-opacity="0.49"/><path d="M129,98L150,99L121,94Z" fill="rgb(2, 1, 148)" fill-opacity="0.58"/><path d="M115,20L66,12L82,57Z" fill="rgb(0, 0, 241)" fill-opacity="0.82"/><path d="M38,112L55,112L59,129Z" fill="rgb(7, 7, 6)" fill-opacity="0.91"/><path d="M182,96L210,140L197,94Z" fill="rgb(4, 4, 243)" fill-opacity="0.93"/><path d="M212,34L191,50L181,30Z" fill="rgb(243, 243, 244)" fill-opacity="0.94"/><path d="M61,125L45,133L34,214Z" fill="rgb(255, 255, 255)" fill-opacity="0.39"/><path d="M49,95L59,95L29,51Z" fill="rgb(246, 199, 6)" fill-opacity="0.94"/><path d="M59,10L98,17L190,-128Z" fill="rgb(243, 243, 242)" fill-opacity="0.95"/><path d="M81,77L71,49L65,73Z" fill="rgb(248, 14, 0)" fill-opacity="0.90"/><path d="M158,31L199,2L155,27Z" fill="rgb(236, 236, 235)" fill-opacity="0.90"/><path d="M169,57L189,48L185,42Z" fill="rgb(230, 183, 0)" fill-opacity="0.64"/></svg>