<svg xmlns="http://www.w3.org/2000/svg" viewBox="0 0 256 143.0214876033058" clip-path="url(#clip)"><defs><clipPath id="clip" clipPathUnits="objectBoundingBox"><rect x="0" y="0" width="256" height="143.0214876033058"/></clipPath></defs><rect x="0" y="0" width="256" height="143.0214876033058" fill="#f6f6f6"/><path d="M45,102L32,141L61,126Z" fill="rgb(22, 22, 22)" fill-opacity="0.78"/><path d="M250,113L37,122L27,-100Z" fill="rgb(44, 1, 191)" fill-opacity="0.1"/><path d="M185,28L101,37L178,79Z" fill="rgb(243, 21, 0)" fill-opacity="0.85"/><path d="M242,10L190,55L215,81Z" fill="rgb(161, 0, 48)" fill-opacity="0.86"/><path d="M258,0L-22,0L155,23Z" fill="rgb(244, 243, 243)" fill-opacity="0.97"/><path d="M127,140L43,2L178,85Z" fill="rgb(0, 0, 240)" fill-opacity="0.91"/><path d="M69,30L29,49L39,20Z" fill="rgb(203, 15, 43)" fill-opacity="0.97"/><path d="M211,89L376,35L184,153Z" fill="rgb(224, 224, 243)" fill-opacity="1.00"/><path d="M87,134L-53,48L101,117Z" fill="rgb(235, 235, 238)" fill-opacity="1.00"/><path d="M58,47L30,38L64,25Z" fill="rgb(242, 15, 2)" fill-opacity="0.94"/><path d="M149,128L222,84L215,56Z" fill="rgb(0, 6, 229)" fill-opacity="0.83"/><path d="M138,43L133,18L159,24Z" fill="rgb(247, 25, 2)" fill-opacity="0.90"/><path d="M118,18L25,56L75,110Z" fill="rgb(0, 0, 247)" fill-opacity="0.85"/><path d="M216,138L179,66L201,132Z" fill="rgb(3, 2, 232)" fill-opacity="0.85"/><path d="M33,75L69,105L31,33Z" fill="rgb(0, 3, 246)" fill-opacity="0.82"/><path d="M106,42L174,26L113,53Z" fill="rgb(249, 18, 0)" fill-opacity="0.69"/><path d="M160,58L177,27L190,49Z" fill="rgb(229, 81, 73)" fill-opacity="1.00"/><path d="M163,83L183,68L149,31Z" fill="rgb(235, 5, 0)" fill-opacity="0.67"/><path d="M-11,-44L47,4L12,79Z" fill="rgb(244, 245, 245)" fill-opacity="0.81"/><path d="M188,80L234,43L213,30Z" fill="rgb(221, 11, 3)" fill-opacity="0.82"/><path d="M222,74L131,129L49,80Z" fill="rgb(0, 0, 240)" fill-opacity="0.90"/><path d="M39,190L99,109L64,105Z" fill="rgb(231, 231, 233)" fill-opacity="1.00"/><path d="M135,51L157,124L102,49Z" fill="rgb(2, 1, 240)" fill-opacity="0.96"/><path d="M93,131L95,141L100,136Z" fill="rgb(0, 0, 0)" fill-opacity="0.52"/><path d="M233,3L353,52L241,35Z" fill="rgb(243, 238, 238)" fill-opacity="1.00"/><path d="M49,107L71,135L36,119Z" fill="rgb(22, 32, 0)" fill-opacity="0.64"/><path d="M208,291L157,116L130,129Z" fill="rgb(238, 238, 239)" fill-opacity="0.82"/><path d="M56,168L58,97L66,107Z" fill="rgb(248, 248, 246)" fill-opacity="0.69"/><path d="M197,50L214,30L175,27Z" fill="rgb(238, 238, 238)" fill-opacity="0.84"/><path d="M226,17L241,35L235,13Z" fill="rgb(230, 34, 16)" fill-opacity="0.73"/><path d="M45,108L-80,198L22,31Z" fill="rgb(245, 245, 245)" fill-opacity="0.89"/><path d="M198,54L185,93L180,54Z" fill="rgb(2, 0, 227)" fill-opacity="0.90"/><path d="M48,88L13,70L19,170Z" fill="rgb(242, 243, 242)" fill-opacity="0.74"/><path d="M136,37L133,21L33,11Z" fill="rgb(0, 0, 244)" fill-opacity="0.93"/><path d="M104,30L39,8L43,24Z" fill="rgb(2, 0, 234)" fill-opacity="0.86"/><path d="M232,42L224,40L226,26Z" fill="rgb(1, 2, 178)" fill-opacity="0.73"/><path d="M173,58L173,31L167,47Z" fill="rgb(226, 254, 255)" fill-opacity="0.72"/><path d="M28,46L50,99L42,41Z" fill="rgb(3, 4, 249)" fill-opacity="0.83"/><path d="M55,109L59,129L34,128Z" fill="rgb(3, 4, 0)" fill-opacity="0.69"/><path d="M59,49L61,23L31,33Z" fill="rgb(255, 16, 0)" fill-opacity="0.56"/><path d="M259,-49L211,134L251,365Z" fill="rgb(245, 245, 245)" fill-opacity="1.00"/><path d="M114,87L171,121L149,119Z" fill="rgb(6, 6, 231)" fill-opacity="0.87"/><path d="M88,164L99,113L86,104Z" fill="rgb(234, 234, 235)" fill-opacity="1.00"/><path d="M154,62L165,84L47,72Z" fill="rgb(0, 0, 243)" fill-opacity="0.98"/><path d="M135,27L178,61L138,63Z" fill="rgb(237, 13, 0)" fill-opacity="0.89"/><path d="M22,109L34,139L42,133Z" fill="rgb(240, 240, 240)" fill-opacity="0.85"/><path d="M102,120L55,44L109,122Z" fill="rgb(5, 6, 240)" fill-opacity="0.84"/><path d="M243,25L229,36L229,13Z" fill="rgb(230, 13, 0)" fill-opacity="0.70"/><path d="M201,125L203,85L179,97Z" fill="rgb(0, 0, 239)" fill-opacity="0.87"/><path d="M134,27L57,52L69,12Z" fill="rgb(0, 0, 244)" fill-opacity="0.89"/><path d="M185,19L103,18L13,0Z" fill="rgb(242, 242, 242)" fill-opacity="0.94"/><path d="M224,36L194,82L199,43Z" fill="rgb(242, 17, 0)" fill-opacity="0.55"/><path d="M136,35L150,62L106,34Z" fill="rgb(239, 10, 0)" fill-opacity="0.72"/><path d="M233,64L202,105L222,154Z" fill="rgb(245, 245, 244)" fill-opacity="0.91"/><path d="M201,49L224,52L239,42Z" fill="rgb(181, 29, 19)" fill-opacity="0.62"/><path d="M238,89L220,65L225,50Z" fill="rgb(240, 239, 239)" fill-opacity="0.93"/><path d="M152,30L158,25L183,27Z" fill="rgb(221, 211, 211)" fill-opacity="1.00"/><path d="M39,112L47,137L55,110Z" fill="rgb(8, 9, 6)" fill-opacity="0.85"/><path d="M164,82L182,64L159,46Z" fill="rgb(240, 15, 1)" fill-opacity="0.81"/><path d="M179,72L158,84L223,79Z" fill="rgb(3, 1, 217)" fill-opacity="0.85"/><path d="M241,-21L179,35L225,29Z" fill="rgb(244, 244, 244)" fill-opacity="0.94"/><path d="M179,27L187,54L173,54Z" fill="rgb(242, 15, 0)" fill-opacity="0.69"/><path d="M144,119L206,132L110,163Z" fill="rgb(244, 244, 244)" fill-opacity="0.77"/><path d="M257,207L183,114L166,114Z" fill="rgb(247, 247, 243)" fill-opacity="0.75"/><path d="M45,130L69,126L49,132Z" fill="rgb(182, 182, 183)" fill-opacity="0.66"/><path d="M46,93L87,105L128,50Z" fill="rgb(0, 0, 246)" fill-opacity="0.90"/><path d="M138,59L166,24L169,63Z" fill="rgb(242, 16, 1)" fill-opacity="0.80"/><path d="M171,117L210,95L211,57Z" fill="rgb(0, 0, 238)" fill-opacity="0.60"/><path d="M196,76L189,70L224,43Z" fill="rgb(221, 9, 1)" fill-opacity="0.65"/><path d="M242,25L209,38L214,31Z" fill="rgb(219, 7, 0)" fill-opacity="0.55"/><path d="M126,137L81,142L147,143Z" fill="rgb(244, 244, 244)" fill-opacity="0.97"/><path d="M31,39L49,44L42,18Z" fill="rgb(244, 19, 1)" fill-opacity="0.75"/><path d="M169,55L175,53L170,36Z" fill="rgb(227, 246, 247)" fill-opacity="0.63"/><path d="M93,129L95,133L77,124Z" fill="rgb(98, 98, 97)" fill-opacity="0.56"/><path d="M72,12L61,26L44,7Z" fill="rgb(4, 8, 230)" fill-opacity="0.68"/><path d="M156,105L162,86L173,67Z" fill="rgb(42, 3, 40)" fill-opacity="0.39"/><path d="M198,57L218,29L222,60Z" fill="rgb(249, 13, 0)" fill-opacity="0.72"/><path d="M199,86L154,92L189,89Z" fill="rgb(0, 0, 148)" fill-opacity="0.55"/><path d="M170,42L104,50L120,35Z" fill="rgb(255, 14, 0)" fill-opacity="0.65"/><path d="M211,38L208,42L182,42Z" fill="rgb(231, 235, 235)" fill-opacity="0.80"/><path d="M203,132L192,84L212,139Z" fill="rgb(0, 0, 240)" fill-opacity="0.66"/><path d="M213,64L216,59L222,83Z" fill="rgb(67, 65, 138)" fill-opacity="1.00"/><path d="M155,-13L202,46L194,52Z" fill="rgb(242, 243, 243)" fill-opacity="0.78"/><path d="M188,116L152,104L213,89Z" fill="rgb(0, 1, 238)" fill-opacity="0.90"/><path d="M40,11L37,-75L23,69Z" fill="rgb(244, 243, 243)" fill-opacity="1.00"/><path d="M91,19L88,46L137,19Z" fill="rgb(0, 0, 247)" fill-opacity="0.69"/><path d="M221,52L228,47L242,43Z" fill="rgb(168, 148, 149)" fill-opacity="0.76"/><path d="M205,50L191,72L200,74Z" fill="rgb(243, 13, 0)" fill-opacity="0.74"/><path d="M29,55L85,54L36,41Z" fill="rgb(2, 1, 241)" fill-opacity="1.00"/><path d="M133,126L130,126L130,147Z" fill="rgb(23, 24, 123)" fill-opacity="0.55"/><path d="M196,125L206,116L212,130Z" fill="rgb(0, 0, 228)" fill-opacity="0.46"/><path d="M193,63L214,59L221,67Z" fill="rgb(0, 0, 129)" fill-opacity="0.42"/><path d="M120,128L134,141L109,88Z" fill="rgb(0, 0, 255)" fill-opacity="0.64"/><path d="M167,38L175,32L188,33Z" fill="rgb(152, 224, 228)" fill-opacity="0.48"/><path d="M33,139L-6,208L92,132Z" fill="rgb(245, 245, 245)" fill-opacity="0.81"/><path d="M34,139L31,129L44,132Z" fill="rgb(244, 244, 244)" fill-opacity="0.58"/><path d="M179,173L193,113L176,121Z" fill="rgb(244, 244, 245)" fill-opacity="0.67"/><path d="M100,116L47,95L61,128Z" fill="rgb(255, 255, 250)" fill-opacity="0.48"/><path d="M34,74L30,49L52,96Z" fill="rgb(8, 8, 235)" fill-opacity="0.96"/><path d="M243,24L231,36L235,29Z" fill="rgb(31, 45, 40)" fill-opacity="0.43"/></svg>