<svg xmlns="http://www.w3.org/2000/svg" viewBox="0 0 256 143.0214876033058" clip-path="url(#clip)"><defs><clipPath id="clip" clipPathUnits="objectBoundingBox"><rect x="0" y="0" width="256" height="143.0214876033058"/></clipPath></defs><rect x="0" y="0" width="256" height="143.0214876033058" fill="#f6f6f6"/><path d="M324,57L29,3L40,137Z" fill="rgb(198, 32, 57)" fill-opacity="0.88"/><path d="M247,74L90,105L129,138Z" fill="rgb(22, 23, 237)" fill-opacity="0.88"/><path d="M219,63L281,-22L221,221Z" fill="rgb(244, 245, 245)" fill-opacity="0.97"/><path d="M212,58L209,137L172,106Z" fill="rgb(0, 5, 238)" fill-opacity="0.71"/><path d="M169,76L240,8L230,49Z" fill="rgb(229, 16, 1)" fill-opacity="0.78"/><path d="M98,163L23,83L119,123Z" fill="rgb(229, 227, 230)" fill-opacity="1.00"/><path d="M105,86L128,143L120,82Z" fill="rgb(2, 0, 245)" fill-opacity="0.87"/><path d="M158,18L29,23L142,102Z" fill="rgb(248, 8, 0)" fill-opacity="0.82"/><path d="M55,-31L-8,-55L33,37Z" fill="rgb(243, 240, 239)" fill-opacity="0.96"/><path d="M203,120L142,119L122,148Z" fill="rgb(237, 237, 239)" fill-opacity="0.89"/><path d="M200,105L248,50L209,124Z" fill="rgb(238, 238, 240)" fill-opacity="0.96"/><path d="M42,107L60,115L39,140Z" fill="rgb(0, 27, 22)" fill-opacity="0.82"/><path d="M120,141L195,67L145,86Z" fill="rgb(0, 0, 219)" fill-opacity="0.63"/><path d="M229,13L226,41L242,25Z" fill="rgb(218, 29, 19)" fill-opacity="0.97"/><path d="M196,-133L210,46L142,19Z" fill="rgb(242, 242, 241)" fill-opacity="0.78"/><path d="M202,46L191,54L170,1Z" fill="rgb(242, 242, 242)" fill-opacity="0.94"/><path d="M167,91L113,50L191,88Z" fill="rgb(231, 5, 0)" fill-opacity="0.74"/><path d="M40,6L111,108L36,85Z" fill="rgb(245, 14, 0)" fill-opacity="0.95"/><path d="M220,67L219,82L162,80Z" fill="rgb(0, 0, 221)" fill-opacity="0.77"/><path d="M29,45L68,9L33,72Z" fill="rgb(243, 18, 4)" fill-opacity="0.92"/><path d="M-9,108L39,81L61,110Z" fill="rgb(242, 242, 242)" fill-opacity="0.92"/><path d="M227,35L199,44L218,74Z" fill="rgb(212, 13, 0)" fill-opacity="0.70"/><path d="M73,134L62,125L36,133Z" fill="rgb(151, 153, 153)" fill-opacity="0.97"/><path d="M61,128L35,128L46,109Z" fill="rgb(0, 4, 3)" fill-opacity="0.82"/><path d="M194,113L83,155L200,131Z" fill="rgb(243, 243, 243)" fill-opacity="0.82"/><path d="M107,94L206,104L161,122Z" fill="rgb(0, 0, 232)" fill-opacity="0.65"/><path d="M173,57L173,30L167,51Z" fill="rgb(235, 249, 241)" fill-opacity="0.78"/><path d="M178,72L159,30L120,94Z" fill="rgb(240, 13, 0)" fill-opacity="0.97"/><path d="M46,8L81,108L173,33Z" fill="rgb(242, 14, 1)" fill-opacity="1.00"/><path d="M174,99L108,97L98,123Z" fill="rgb(0, 0, 251)" fill-opacity="0.65"/><path d="M207,140L185,85L213,131Z" fill="rgb(1, 0, 236)" fill-opacity="0.77"/><path d="M169,27L159,21L151,32Z" fill="rgb(202, 170, 169)" fill-opacity="0.94"/><path d="M89,16L20,1L128,19Z" fill="rgb(232, 228, 228)" fill-opacity="0.98"/><path d="M225,29L138,20L232,8Z" fill="rgb(244, 243, 243)" fill-opacity="1.00"/><path d="M168,114L165,146L185,115Z" fill="rgb(240, 240, 238)" fill-opacity="0.91"/><path d="M202,75L175,25L173,64Z" fill="rgb(241, 21, 1)" fill-opacity="0.71"/><path d="M151,119L143,84L162,83Z" fill="rgb(1, 0, 238)" fill-opacity="0.96"/><path d="M100,136L97,140L90,128Z" fill="rgb(9, 10, 8)" fill-opacity="0.60"/><path d="M75,107L160,22L46,90Z" fill="rgb(244, 15, 2)" fill-opacity="0.98"/><path d="M333,56L219,73L225,47Z" fill="rgb(245, 250, 249)" fill-opacity="0.51"/><path d="M59,134L70,159L53,90Z" fill="rgb(237, 233, 232)" fill-opacity="0.78"/><path d="M76,136L41,115L35,118Z" fill="rgb(19, 24, 23)" fill-opacity="0.73"/><path d="M167,97L219,72L195,117Z" fill="rgb(0, 0, 237)" fill-opacity="0.92"/><path d="M43,109L56,111L43,137Z" fill="rgb(4, 4, 4)" fill-opacity="0.88"/><path d="M222,82L197,76L216,60Z" fill="rgb(0, 11, 206)" fill-opacity="0.40"/><path d="M93,106L107,102L114,39Z" fill="rgb(249, 11, 0)" fill-opacity="0.68"/><path d="M274,-21L263,45L227,6Z" fill="rgb(245, 245, 245)" fill-opacity="0.99"/><path d="M191,84L233,29L213,31Z" fill="rgb(226, 9, 1)" fill-opacity="0.79"/><path d="M160,255L97,110L84,104Z" fill="rgb(239, 239, 242)" fill-opacity="0.95"/><path d="M11,48L6,145L51,101Z" fill="rgb(245, 245, 245)" fill-opacity="0.90"/><path d="M165,82L185,67L198,79Z" fill="rgb(0, 0, 229)" fill-opacity="0.77"/><path d="M15,136L32,164L42,131Z" fill="rgb(224, 224, 224)" fill-opacity="0.94"/><path d="M93,109L136,127L180,90Z" fill="rgb(0, 0, 245)" fill-opacity="0.84"/><path d="M132,37L177,29L183,32Z" fill="rgb(217, 28, 18)" fill-opacity="0.97"/><path d="M131,132L248,144L137,124Z" fill="rgb(243, 243, 242)" fill-opacity="0.89"/><path d="M108,84L122,82L117,107Z" fill="rgb(0, 0, 245)" fill-opacity="0.73"/><path d="M26,-7L72,-27L44,11Z" fill="rgb(239, 238, 238)" fill-opacity="0.96"/><path d="M92,132L72,121L95,130Z" fill="rgb(137, 138, 137)" fill-opacity="0.63"/><path d="M39,87L29,54L38,24Z" fill="rgb(240, 17, 1)" fill-opacity="0.63"/><path d="M181,31L167,36L170,42Z" fill="rgb(146, 255, 250)" fill-opacity="0.46"/><path d="M120,177L59,128L47,131Z" fill="rgb(240, 240, 240)" fill-opacity="1.00"/><path d="M199,78L160,85L182,89Z" fill="rgb(231, 10, 0)" fill-opacity="0.81"/><path d="M115,119L108,118L145,178Z" fill="rgb(233, 232, 237)" fill-opacity="1.00"/><path d="M117,124L123,92L133,141Z" fill="rgb(2, 0, 245)" fill-opacity="0.71"/><path d="M51,98L100,115L61,128Z" fill="rgb(251, 252, 252)" fill-opacity="0.67"/><path d="M146,99L121,17L125,96Z" fill="rgb(248, 13, 0)" fill-opacity="0.66"/><path d="M144,91L144,120L204,107Z" fill="rgb(0, 0, 232)" fill-opacity="0.77"/><path d="M140,19L165,61L169,41Z" fill="rgb(248, 15, 0)" fill-opacity="0.67"/><path d="M95,105L84,115L58,111Z" fill="rgb(238, 240, 243)" fill-opacity="0.77"/><path d="M226,15L188,56L186,51Z" fill="rgb(242, 240, 240)" fill-opacity="0.99"/><path d="M230,38L235,31L248,66Z" fill="rgb(229, 230, 230)" fill-opacity="0.78"/><path d="M160,23L34,74L33,32Z" fill="rgb(245, 13, 0)" fill-opacity="0.62"/><path d="M216,75L189,80L213,67Z" fill="rgb(0, 0, 247)" fill-opacity="0.72"/><path d="M298,73L216,68L226,89Z" fill="rgb(246, 248, 246)" fill-opacity="0.51"/><path d="M130,132L131,128L141,121Z" fill="rgb(25, 24, 25)" fill-opacity="0.37"/><path d="M178,81L159,91L186,89Z" fill="rgb(235, 13, 0)" fill-opacity="0.65"/><path d="M56,126L40,137L31,140Z" fill="rgb(69, 71, 71)" fill-opacity="0.82"/><path d="M206,66L181,50L141,74Z" fill="rgb(237, 14, 1)" fill-opacity="0.95"/><path d="M59,127L49,129L53,109Z" fill="rgb(2, 7, 6)" fill-opacity="0.70"/><path d="M142,97L103,121L96,110Z" fill="rgb(3, 4, 247)" fill-opacity="0.93"/><path d="M140,47L132,48L158,48Z" fill="rgb(70, 1, 1)" fill-opacity="0.78"/><path d="M38,128L41,109L49,135Z" fill="rgb(2, 15, 13)" fill-opacity="0.55"/><path d="M56,147L72,161L99,129Z" fill="rgb(243, 243, 243)" fill-opacity="0.98"/><path d="M88,118L104,120L69,131Z" fill="rgb(245, 245, 243)" fill-opacity="0.76"/><path d="M212,145L231,83L209,92Z" fill="rgb(247, 247, 244)" fill-opacity="0.66"/><path d="M211,40L182,43L196,18Z" fill="rgb(244, 247, 246)" fill-opacity="0.66"/><path d="M55,95L60,99L59,131Z" fill="rgb(239, 240, 240)" fill-opacity="0.87"/><path d="M47,140L51,134L41,134Z" fill="rgb(205, 252, 245)" fill-opacity="0.35"/><path d="M198,182L197,118L176,114Z" fill="rgb(245, 245, 245)" fill-opacity="0.89"/><path d="M93,133L98,170L63,122Z" fill="rgb(248, 248, 248)" fill-opacity="0.73"/><path d="M146,84L148,109L164,86Z" fill="rgb(0, 0, 247)" fill-opacity="0.82"/><path d="M172,27L208,42L239,-188Z" fill="rgb(245, 246, 246)" fill-opacity="0.85"/><path d="M239,22L232,13L223,53Z" fill="rgb(232, 11, 0)" fill-opacity="0.55"/><path d="M43,124L38,117L39,123Z" fill="rgb(86, 91, 90)" fill-opacity="0.64"/><path d="M34,-137L40,16L18,77Z" fill="rgb(244, 245, 245)" fill-opacity="0.83"/><path d="M167,45L175,32L176,36Z" fill="rgb(240, 255, 252)" fill-opacity="0.49"/><path d="M165,110L170,123L164,120Z" fill="rgb(47, 47, 94)" fill-opacity="0.47"/><path d="M216,74L213,57L223,85Z" fill="rgb(72, 82, 61)" fill-opacity="0.43"/><path d="M225,44L238,47L223,33Z" fill="rgb(156, 22, 13)" fill-opacity="0.48"/><path d="M202,140L206,133L208,141Z" fill="rgb(207, 206, 222)" fill-opacity="1.00"/></svg>