<svg xmlns="http://www.w3.org/2000/svg" viewBox="0 0 256 143.0214876033058" clip-path="url(#clip)"><defs><clipPath id="clip" clipPathUnits="objectBoundingBox"><rect x="0" y="0" width="256" height="143.0214876033058"/></clipPath></defs><rect x="0" y="0" width="256" height="143.0214876033058" fill="#f6f6f6"/><path d="M27,7L52,246L248,35Z" fill="rgb(189, 54, 88)" fill-opacity="0.94"/><path d="M223,65L62,117L198,118Z" fill="rgb(22, 21, 235)" fill-opacity="0.95"/><path d="M157,90L242,27L234,14Z" fill="rgb(228, 15, 1)" fill-opacity="0.83"/><path d="M116,121L208,280L25,85Z" fill="rgb(231, 232, 235)" fill-opacity="0.97"/><path d="M93,208L197,113L137,122Z" fill="rgb(231, 239, 248)" fill-opacity="0.90"/><path d="M122,136L106,80L193,86Z" fill="rgb(0, 0, 239)" fill-opacity="0.95"/><path d="M63,122L145,167L34,143Z" fill="rgb(232, 246, 242)" fill-opacity="0.85"/><path d="M198,127L190,76L215,142Z" fill="rgb(18, 17, 228)" fill-opacity="0.91"/><path d="M147,44L158,21L178,57Z" fill="rgb(252, 221, 29)" fill-opacity="0.66"/><path d="M62,129L52,108L34,128Z" fill="rgb(0, 18, 14)" fill-opacity="0.84"/><path d="M0,-56L41,12L26,56Z" fill="rgb(244, 243, 243)" fill-opacity="0.99"/><path d="M140,-18L195,52L291,-56Z" fill="rgb(244, 244, 244)" fill-opacity="0.96"/><path d="M65,133L79,136L61,127Z" fill="rgb(33, 32, 32)" fill-opacity="0.59"/><path d="M36,12L161,22L73,113Z" fill="rgb(248, 13, 0)" fill-opacity="0.91"/><path d="M210,3L193,53L185,54Z" fill="rgb(242, 242, 242)" fill-opacity="0.97"/><path d="M98,116L119,80L106,123Z" fill="rgb(17, 7, 231)" fill-opacity="0.89"/><path d="M292,-19L216,76L235,32Z" fill="rgb(236, 241, 239)" fill-opacity="0.83"/><path d="M226,60L31,33L47,95Z" fill="rgb(242, 13, 0)" fill-opacity="0.93"/><path d="M156,29L149,19L195,29Z" fill="rgb(229, 248, 250)" fill-opacity="0.64"/><path d="M91,106L-22,102L100,115Z" fill="rgb(241, 238, 237)" fill-opacity="0.94"/><path d="M43,137L41,108L57,112Z" fill="rgb(2, 10, 8)" fill-opacity="0.83"/><path d="M29,48L38,89L50,5Z" fill="rgb(239, 22, 9)" fill-opacity="0.99"/><path d="M156,124L222,84L209,61Z" fill="rgb(0, 0, 228)" fill-opacity="0.79"/><path d="M126,138L108,107L134,137Z" fill="rgb(8, 15, 241)" fill-opacity="0.85"/><path d="M58,114L96,105L57,131Z" fill="rgb(246, 250, 253)" fill-opacity="0.60"/><path d="M224,30L229,22L92,-32Z" fill="rgb(244, 243, 243)" fill-opacity="0.94"/><path d="M172,83L175,36L202,74Z" fill="rgb(233, 11, 1)" fill-opacity="0.89"/><path d="M-67,79L42,82L55,109Z" fill="rgb(244, 246, 245)" fill-opacity="0.80"/><path d="M46,5L159,45L40,86Z" fill="rgb(243, 14, 0)" fill-opacity="0.83"/><path d="M233,45L227,25L184,82Z" fill="rgb(218, 12, 1)" fill-opacity="0.85"/><path d="M164,24L225,-7L208,43Z" fill="rgb(245, 245, 244)" fill-opacity="0.77"/><path d="M111,56L107,107L50,94Z" fill="rgb(244, 13, 1)" fill-opacity="0.97"/><path d="M92,76L220,48L163,84Z" fill="rgb(241, 13, 0)" fill-opacity="0.94"/><path d="M173,33L174,61L166,45Z" fill="rgb(228, 252, 247)" fill-opacity="0.56"/><path d="M166,114L199,159L183,114Z" fill="rgb(246, 245, 240)" fill-opacity="0.81"/><path d="M45,108L33,122L55,115Z" fill="rgb(0, 14, 9)" fill-opacity="0.56"/><path d="M58,128L128,176L24,146Z" fill="rgb(248, 252, 251)" fill-opacity="0.67"/><path d="M109,79L203,113L107,118Z" fill="rgb(0, 0, 240)" fill-opacity="0.82"/><path d="M205,99L199,112L240,62Z" fill="rgb(245, 245, 222)" fill-opacity="0.58"/><path d="M315,48L223,52L219,87Z" fill="rgb(243, 243, 244)" fill-opacity="0.90"/><path d="M96,139L85,124L102,137Z" fill="rgb(14, 17, 11)" fill-opacity="0.40"/><path d="M158,54L150,30L170,42Z" fill="rgb(244, 197, 0)" fill-opacity="0.88"/><path d="M66,214L231,142L148,118Z" fill="rgb(244, 244, 244)" fill-opacity="0.93"/><path d="M34,8L129,-23L68,7Z" fill="rgb(242, 243, 243)" fill-opacity="0.78"/><path d="M352,44L235,31L229,39Z" fill="rgb(245, 251, 249)" fill-opacity="0.60"/><path d="M67,88L53,90L70,107Z" fill="rgb(247, 19, 0)" fill-opacity="0.53"/><path d="M222,83L217,57L211,65Z" fill="rgb(73, 26, 43)" fill-opacity="0.56"/><path d="M237,13L228,15L229,46Z" fill="rgb(228, 2, 0)" fill-opacity="0.58"/><path d="M211,65L219,69L226,46Z" fill="rgb(157, 34, 16)" fill-opacity="0.56"/><path d="M157,102L162,84L173,69Z" fill="rgb(61, 0, 57)" fill-opacity="0.48"/><path d="M31,140L45,132L51,133Z" fill="rgb(90, 97, 95)" fill-opacity="0.84"/><path d="M146,84L163,84L126,80Z" fill="rgb(94, 5, 87)" fill-opacity="1.00"/><path d="M59,127L52,94L110,128Z" fill="rgb(241, 241, 241)" fill-opacity="0.97"/><path d="M168,54L173,55L173,32Z" fill="rgb(236, 246, 255)" fill-opacity="0.69"/><path d="M170,122L140,80L99,111Z" fill="rgb(0, 1, 243)" fill-opacity="0.71"/><path d="M41,14L15,-9L31,40Z" fill="rgb(242, 242, 242)" fill-opacity="0.93"/><path d="M183,116L203,114L194,72Z" fill="rgb(0, 0, 230)" fill-opacity="0.63"/><path d="M20,58L39,118L47,92Z" fill="rgb(237, 245, 242)" fill-opacity="0.55"/><path d="M211,126L176,79L209,140Z" fill="rgb(1, 0, 247)" fill-opacity="0.74"/><path d="M172,43L183,34L190,81Z" fill="rgb(240, 19, 4)" fill-opacity="0.83"/><path d="M218,85L221,77L209,61Z" fill="rgb(8, 7, 145)" fill-opacity="0.68"/><path d="M156,31L181,30L167,36Z" fill="rgb(214, 9, 0)" fill-opacity="0.64"/><path d="M237,31L233,30L238,28Z" fill="rgb(30, 0, 1)" fill-opacity="0.54"/><path d="M150,175L91,128L113,118Z" fill="rgb(246, 247, 246)" fill-opacity="0.75"/><path d="M35,119L42,121L-10,146Z" fill="rgb(234, 234, 234)" fill-opacity="0.89"/><path d="M61,100L84,108L113,77Z" fill="rgb(247, 17, 3)" fill-opacity="0.79"/><path d="M235,109L208,138L208,180Z" fill="rgb(245, 245, 244)" fill-opacity="0.89"/><path d="M108,121L74,153L64,152Z" fill="rgb(247, 246, 246)" fill-opacity="0.83"/><path d="M156,24L135,18L129,81Z" fill="rgb(238, 17, 0)" fill-opacity="0.72"/><path d="M235,42L236,46L228,46Z" fill="rgb(28, 5, 0)" fill-opacity="0.43"/><path d="M159,46L150,53L105,49Z" fill="rgb(213, 14, 0)" fill-opacity="0.72"/><path d="M88,80L188,81L175,54Z" fill="rgb(240, 13, 0)" fill-opacity="0.71"/><path d="M73,131L18,206L89,127Z" fill="rgb(244, 244, 244)" fill-opacity="1.00"/><path d="M44,19L47,7L50,7Z" fill="rgb(89, 16, 14)" fill-opacity="0.78"/><path d="M40,110L37,129L50,137Z" fill="rgb(0, 13, 4)" fill-opacity="0.36"/><path d="M45,107L33,118L13,34Z" fill="rgb(245, 245, 245)" fill-opacity="1.00"/><path d="M168,48L191,10L169,40Z" fill="rgb(224, 236, 232)" fill-opacity="0.45"/><path d="M221,38L198,44L222,49Z" fill="rgb(246, 21, 8)" fill-opacity="0.89"/><path d="M72,137L69,130L50,122Z" fill="rgb(0, 0, 0)" fill-opacity="0.45"/><path d="M219,63L290,104L254,23Z" fill="rgb(246, 246, 246)" fill-opacity="0.75"/><path d="M44,131L41,135L17,131Z" fill="rgb(236, 239, 239)" fill-opacity="0.80"/><path d="M211,140L197,126L197,122Z" fill="rgb(20, 24, 5)" fill-opacity="0.29"/><path d="M41,84L42,9L29,55Z" fill="rgb(243, 16, 2)" fill-opacity="0.77"/><path d="M210,62L214,91L192,82Z" fill="rgb(0, 0, 239)" fill-opacity="0.80"/><path d="M222,79L158,121L172,81Z" fill="rgb(0, 0, 235)" fill-opacity="0.73"/><path d="M205,62L216,80L212,64Z" fill="rgb(0, 0, 239)" fill-opacity="0.56"/><path d="M157,111L159,93L159,109Z" fill="rgb(0, 2, 11)" fill-opacity="0.45"/><path d="M213,-8L217,14L181,45Z" fill="rgb(244, 243, 243)" fill-opacity="1.00"/><path d="M179,-40L174,20L157,31Z" fill="rgb(242, 242, 242)" fill-opacity="1.00"/><path d="M151,24L170,20L132,3Z" fill="rgb(240, 244, 244)" fill-opacity="0.48"/><path d="M206,118L213,133L199,127Z" fill="rgb(0, 0, 236)" fill-opacity="0.57"/><path d="M75,47L157,23L159,25Z" fill="rgb(231, 15, 3)" fill-opacity="1.00"/><path d="M169,36L177,33L175,38Z" fill="rgb(208, 246, 237)" fill-opacity="0.68"/><path d="M194,116L168,115L215,167Z" fill="rgb(243, 243, 244)" fill-opacity="1.00"/><path d="M226,37L242,24L230,16Z" fill="rgb(237, 14, 1)" fill-opacity="0.77"/><path d="M226,84L215,69L261,66Z" fill="rgb(243, 245, 245)" fill-opacity="0.49"/><path d="M31,40L70,50L87,52Z" fill="rgb(157, 7, 1)" fill-opacity="0.61"/><path d="M158,25L151,31L161,26Z" fill="rgb(190, 234, 250)" fill-opacity="0.58"/><path d="M56,117L50,130L37,111Z" fill="rgb(0, 0, 0)" fill-opacity="0.56"/><path d="M188,45L187,50L173,43Z" fill="rgb(242, 17, 4)" fill-opacity="0.96"/></svg>