<svg xmlns="http://www.w3.org/2000/svg" viewBox="0 0 256 143.0214876033058" clip-path="url(#clip)"><defs><clipPath id="clip" clipPathUnits="objectBoundingBox"><rect x="0" y="0" width="256" height="143.0214876033058"/></clipPath></defs><rect x="0" y="0" width="256" height="143.0214876033058" fill="#f6f6f6"/><path d="M31,5L333,56L39,138Z" fill="rgb(217, 9, 10)" fill-opacity="0.79"/><path d="M202,115L107,123L208,75Z" fill="rgb(87, 15, 158)" fill-opacity="0.98"/><path d="M239,95L346,-23L179,33Z" fill="rgb(233, 187, 186)" fill-opacity="0.92"/><path d="M151,122L213,94L142,83Z" fill="rgb(0, 1, 238)" fill-opacity="0.88"/><path d="M210,87L243,11L157,83Z" fill="rgb(222, 13, 4)" fill-opacity="0.90"/><path d="M150,111L45,3L126,139Z" fill="rgb(243, 15, 0)" fill-opacity="0.96"/><path d="M23,85L99,113L109,173Z" fill="rgb(231, 227, 226)" fill-opacity="1.00"/><path d="M124,127L43,6L28,59Z" fill="rgb(244, 14, 1)" fill-opacity="0.96"/><path d="M39,80L57,109L19,110Z" fill="rgb(240, 242, 241)" fill-opacity="0.89"/><path d="M155,20L35,18L175,93Z" fill="rgb(242, 10, 0)" fill-opacity="0.88"/><path d="M32,121L58,106L50,136Z" fill="rgb(0, 36, 36)" fill-opacity="0.77"/><path d="M314,-104L220,63L217,207Z" fill="rgb(244, 246, 246)" fill-opacity="0.93"/><path d="M16,-94L41,14L25,57Z" fill="rgb(243, 241, 241)" fill-opacity="0.98"/><path d="M219,40L231,48L237,41Z" fill="rgb(63, 39, 162)" fill-opacity="0.82"/><path d="M187,109L208,115L212,143Z" fill="rgb(227, 47, 38)" fill-opacity="0.90"/><path d="M237,19L208,-88L268,51Z" fill="rgb(245, 245, 245)" fill-opacity="1.00"/><path d="M169,121L159,79L157,121Z" fill="rgb(6, 5, 207)" fill-opacity="0.82"/><path d="M226,16L190,58L182,29Z" fill="rgb(246, 255, 255)" fill-opacity="0.70"/><path d="M74,112L37,141L56,138Z" fill="rgb(217, 238, 238)" fill-opacity="0.76"/><path d="M171,62L167,37L176,33Z" fill="rgb(201, 249, 245)" fill-opacity="0.56"/><path d="M35,80L29,43L79,110Z" fill="rgb(246, 15, 0)" fill-opacity="0.82"/><path d="M75,136L42,109L37,120Z" fill="rgb(0, 28, 28)" fill-opacity="0.65"/><path d="M225,41L230,13L242,25Z" fill="rgb(218, 12, 1)" fill-opacity="0.78"/><path d="M47,107L103,134L94,106Z" fill="rgb(244, 244, 244)" fill-opacity="0.90"/><path d="M42,109L60,125L52,109Z" fill="rgb(0, 7, 7)" fill-opacity="0.60"/><path d="M181,29L157,30L141,14Z" fill="rgb(215, 205, 204)" fill-opacity="0.72"/><path d="M193,86L190,113L212,90Z" fill="rgb(3, 0, 236)" fill-opacity="0.95"/><path d="M181,111L200,120L142,131Z" fill="rgb(247, 233, 214)" fill-opacity="0.62"/><path d="M104,122L48,6L176,57Z" fill="rgb(243, 13, 0)" fill-opacity="0.93"/><path d="M42,122L-1,136L-20,87Z" fill="rgb(244, 244, 244)" fill-opacity="0.79"/><path d="M35,126L47,136L57,112Z" fill="rgb(6, 12, 12)" fill-opacity="0.72"/><path d="M216,87L149,83L226,30Z" fill="rgb(226, 12, 1)" fill-opacity="0.81"/><path d="M132,128L132,139L122,135Z" fill="rgb(197, 34, 26)" fill-opacity="0.86"/><path d="M198,128L215,135L199,106Z" fill="rgb(231, 11, 0)" fill-opacity="0.66"/><path d="M19,-10L31,-35L47,13Z" fill="rgb(228, 234, 234)" fill-opacity="0.77"/><path d="M201,57L166,93L142,53Z" fill="rgb(235, 12, 0)" fill-opacity="0.76"/><path d="M-3,10L33,61L-34,87Z" fill="rgb(245, 245, 245)" fill-opacity="0.74"/><path d="M60,128L45,108L39,128Z" fill="rgb(3, 3, 3)" fill-opacity="0.94"/><path d="M89,126L97,142L99,136Z" fill="rgb(73, 74, 75)" fill-opacity="0.72"/><path d="M32,69L16,141L46,105Z" fill="rgb(243, 244, 244)" fill-opacity="0.82"/><path d="M178,110L170,88L204,109Z" fill="rgb(0, 2, 248)" fill-opacity="0.76"/><path d="M173,39L190,44L173,79Z" fill="rgb(245, 0, 0)" fill-opacity="0.48"/><path d="M213,30L187,90L225,33Z" fill="rgb(233, 18, 6)" fill-opacity="0.87"/><path d="M33,33L106,60L30,52Z" fill="rgb(237, 15, 2)" fill-opacity="1.00"/><path d="M185,115L172,110L205,111Z" fill="rgb(215, 16, 6)" fill-opacity="0.85"/><path d="M141,21L234,-44L227,29Z" fill="rgb(245, 245, 245)" fill-opacity="0.80"/><path d="M182,108L156,81L142,98Z" fill="rgb(0, 0, 252)" fill-opacity="0.48"/><path d="M216,85L200,110L332,80Z" fill="rgb(245, 244, 244)" fill-opacity="0.86"/><path d="M122,132L90,134L113,117Z" fill="rgb(240, 240, 239)" fill-opacity="0.88"/><path d="M159,90L224,77L186,89Z" fill="rgb(223, 15, 10)" fill-opacity="1.00"/><path d="M33,144L53,128L37,133Z" fill="rgb(123, 176, 176)" fill-opacity="0.48"/><path d="M318,-13L201,104L219,149Z" fill="rgb(245, 245, 245)" fill-opacity="0.90"/><path d="M144,75L120,128L143,122Z" fill="rgb(247, 15, 1)" fill-opacity="0.97"/><path d="M219,90L221,59L212,59Z" fill="rgb(15, 73, 75)" fill-opacity="0.31"/><path d="M57,135L60,101L65,156Z" fill="rgb(244, 247, 247)" fill-opacity="0.65"/><path d="M72,106L31,69L139,102Z" fill="rgb(248, 14, 0)" fill-opacity="0.93"/><path d="M211,124L200,130L211,137Z" fill="rgb(224, 11, 0)" fill-opacity="0.64"/><path d="M199,41L210,44L216,77Z" fill="rgb(228, 15, 3)" fill-opacity="0.72"/><path d="M107,76L159,23L39,11Z" fill="rgb(243, 15, 1)" fill-opacity="0.90"/><path d="M188,46L179,34L161,94Z" fill="rgb(227, 16, 3)" fill-opacity="0.78"/><path d="M49,7L44,14L46,17Z" fill="rgb(71, 2, 1)" fill-opacity="0.74"/><path d="M29,141L44,136L16,139Z" fill="rgb(23, 27, 27)" fill-opacity="0.22"/><path d="M130,130L269,156L149,118Z" fill="rgb(241, 242, 242)" fill-opacity="0.87"/><path d="M189,111L208,97L145,88Z" fill="rgb(0, 0, 240)" fill-opacity="0.87"/><path d="M229,25L181,45L194,20Z" fill="rgb(243, 247, 247)" fill-opacity="0.57"/><path d="M265,145L219,74L224,50Z" fill="rgb(244, 244, 244)" fill-opacity="0.81"/><path d="M57,123L107,155L54,93Z" fill="rgb(246, 247, 247)" fill-opacity="0.66"/><path d="M187,235L197,118L168,114Z" fill="rgb(244, 244, 244)" fill-opacity="1.00"/><path d="M202,107L143,94L201,87Z" fill="rgb(0, 0, 238)" fill-opacity="0.88"/><path d="M139,48L158,47L134,47Z" fill="rgb(14, 0, 1)" fill-opacity="0.62"/><path d="M95,104L87,102L107,120Z" fill="rgb(223, 19, 6)" fill-opacity="0.69"/><path d="M221,42L234,38L223,46Z" fill="rgb(24, 16, 195)" fill-opacity="0.73"/><path d="M163,58L171,36L132,18Z" fill="rgb(235, 18, 3)" fill-opacity="0.68"/><path d="M188,55L207,37L184,51Z" fill="rgb(230, 254, 254)" fill-opacity="0.54"/><path d="M54,111L46,132L40,138Z" fill="rgb(0, 0, 0)" fill-opacity="0.73"/><path d="M127,132L146,119L148,114Z" fill="rgb(182, 34, 27)" fill-opacity="1.00"/><path d="M33,134L55,137L23,124Z" fill="rgb(235, 255, 255)" fill-opacity="0.37"/><path d="M69,136L51,121L70,133Z" fill="rgb(12, 14, 14)" fill-opacity="0.53"/><path d="M142,84L161,82L166,113Z" fill="rgb(0, 0, 226)" fill-opacity="0.56"/><path d="M199,122L189,112L191,120Z" fill="rgb(238, 233, 229)" fill-opacity="0.76"/><path d="M183,35L173,39L178,91Z" fill="rgb(236, 15, 3)" fill-opacity="1.00"/><path d="M233,43L295,29L232,33Z" fill="rgb(245, 246, 245)" fill-opacity="0.88"/><path d="M61,83L40,54L60,84Z" fill="rgb(127, 4, 1)" fill-opacity="0.46"/><path d="M217,52L231,15L237,13Z" fill="rgb(216, 21, 11)" fill-opacity="0.83"/><path d="M58,119L47,109L36,113Z" fill="rgb(0, 4, 4)" fill-opacity="0.56"/><path d="M173,37L166,49L173,56Z" fill="rgb(248, 255, 254)" fill-opacity="0.57"/><path d="M154,38L169,21L147,66Z" fill="rgb(234, 17, 4)" fill-opacity="0.49"/><path d="M146,105L162,81L150,120Z" fill="rgb(0, 2, 246)" fill-opacity="0.63"/><path d="M168,122L169,119L153,119Z" fill="rgb(25, 32, 54)" fill-opacity="0.43"/><path d="M160,25L149,35L162,18Z" fill="rgb(201, 172, 172)" fill-opacity="0.59"/><path d="M73,101L94,102L80,108Z" fill="rgb(229, 23, 11)" fill-opacity="0.70"/><path d="M100,137L93,142L97,133Z" fill="rgb(0, 2, 2)" fill-opacity="0.44"/><path d="M133,98L118,94L145,98Z" fill="rgb(101, 3, 7)" fill-opacity="0.54"/><path d="M71,146L71,119L109,151Z" fill="rgb(244, 244, 244)" fill-opacity="0.88"/><path d="M157,31L208,0L152,29Z" fill="rgb(231, 241, 242)" fill-opacity="0.59"/><path d="M137,24L144,12L138,33Z" fill="rgb(242, 39, 27)" fill-opacity="0.44"/><path d="M-19,121L40,116L25,82Z" fill="rgb(245, 245, 245)" fill-opacity="1.00"/><path d="M68,135L62,126L71,133Z" fill="rgb(0, 2, 2)" fill-opacity="0.55"/><path d="M197,86L209,88L167,116Z" fill="rgb(4, 3, 237)" fill-opacity="0.73"/><path d="M247,-13L171,9L192,53Z" fill="rgb(245, 246, 246)" fill-opacity="0.85"/></svg>