<svg xmlns="http://www.w3.org/2000/svg" viewBox="0 0 256 143.0214876033058" clip-path="url(#clip)"><defs><clipPath id="clip" clipPathUnits="objectBoundingBox"><rect x="0" y="0" width="256" height="143.0214876033058"/></clipPath></defs><rect x="0" y="0" width="256" height="143.0214876033058" fill="#f6f6f6"/><path d="M30,6L54,338L244,38Z" fill="rgb(45, 41, 228)" fill-opacity="0.91"/><path d="M158,-32L191,56L228,16Z" fill="rgb(243, 243, 244)" fill-opacity="0.95"/><path d="M74,204L216,133L9,90Z" fill="rgb(227, 228, 220)" fill-opacity="0.76"/><path d="M43,104L61,124L36,139Z" fill="rgb(14, 14, 6)" fill-opacity="0.80"/><path d="M221,66L44,5L123,135Z" fill="rgb(0, 0, 239)" fill-opacity="0.96"/><path d="M233,12L197,71L242,25Z" fill="rgb(173, 0, 39)" fill-opacity="0.81"/><path d="M198,64L196,48L226,54Z" fill="rgb(233, 16, 2)" fill-opacity="0.81"/><path d="M230,114L167,115L90,265Z" fill="rgb(209, 209, 240)" fill-opacity="1.00"/><path d="M216,138L200,130L171,48Z" fill="rgb(12, 12, 234)" fill-opacity="0.91"/><path d="M27,62L42,7L134,136Z" fill="rgb(0, 0, 244)" fill-opacity="0.89"/><path d="M217,28L225,47L203,48Z" fill="rgb(21, 12, 227)" fill-opacity="0.98"/><path d="M37,29L-86,167L53,-64Z" fill="rgb(244, 244, 245)" fill-opacity="0.99"/><path d="M217,73L330,109L235,31Z" fill="rgb(244, 244, 241)" fill-opacity="0.86"/><path d="M-1,106L20,70L77,111Z" fill="rgb(246, 246, 245)" fill-opacity="0.86"/><path d="M156,21L210,131L83,16Z" fill="rgb(1, 1, 239)" fill-opacity="0.81"/><path d="M224,83L200,60L157,122Z" fill="rgb(0, 0, 230)" fill-opacity="0.73"/><path d="M27,75L18,37L33,62Z" fill="rgb(241, 241, 240)" fill-opacity="0.88"/><path d="M31,67L48,94L135,117Z" fill="rgb(0, 0, 245)" fill-opacity="0.88"/><path d="M40,110L59,111L36,130Z" fill="rgb(3, 3, 0)" fill-opacity="0.66"/><path d="M93,172L226,139L149,118Z" fill="rgb(242, 242, 243)" fill-opacity="0.95"/><path d="M199,29L152,19L154,30Z" fill="rgb(228, 228, 220)" fill-opacity="0.67"/><path d="M59,146L35,126L14,140Z" fill="rgb(229, 229, 226)" fill-opacity="0.74"/><path d="M171,59L175,31L167,44Z" fill="rgb(216, 216, 221)" fill-opacity="0.83"/><path d="M37,143L146,152L82,105Z" fill="rgb(254, 254, 238)" fill-opacity="0.66"/><path d="M47,107L132,151L115,119Z" fill="rgb(236, 236, 241)" fill-opacity="0.84"/><path d="M69,135L73,133L40,116Z" fill="rgb(43, 43, 43)" fill-opacity="0.89"/><path d="M106,122L98,117L142,16Z" fill="rgb(3, 3, 240)" fill-opacity="0.95"/><path d="M110,101L47,89L76,108Z" fill="rgb(3, 3, 241)" fill-opacity="0.74"/><path d="M210,140L197,124L211,126Z" fill="rgb(4, 5, 213)" fill-opacity="0.61"/><path d="M234,44L229,37L210,67Z" fill="rgb(85, 34, 135)" fill-opacity="1.00"/><path d="M58,128L55,109L34,128Z" fill="rgb(0, 0, 0)" fill-opacity="0.76"/><path d="M97,130L101,142L85,127Z" fill="rgb(15, 15, 11)" fill-opacity="0.37"/><path d="M221,45L225,50L230,44Z" fill="rgb(216, 23, 1)" fill-opacity="0.69"/><path d="M168,51L171,32L175,58Z" fill="rgb(254, 255, 223)" fill-opacity="0.51"/><path d="M217,53L219,25L222,59Z" fill="rgb(10, 8, 221)" fill-opacity="0.76"/><path d="M220,38L236,11L230,40Z" fill="rgb(226, 15, 0)" fill-opacity="0.84"/><path d="M329,100L213,91L248,40Z" fill="rgb(245, 245, 245)" fill-opacity="0.76"/><path d="M157,25L135,19L137,47Z" fill="rgb(0, 0, 249)" fill-opacity="0.78"/><path d="M128,139L76,105L55,117Z" fill="rgb(246, 246, 245)" fill-opacity="0.79"/><path d="M169,77L178,30L193,76Z" fill="rgb(2, 2, 234)" fill-opacity="0.99"/><path d="M219,76L258,27L223,54Z" fill="rgb(247, 247, 241)" fill-opacity="0.75"/><path d="M208,144L244,18L248,180Z" fill="rgb(246, 246, 245)" fill-opacity="0.89"/><path d="M217,46L222,83L213,72Z" fill="rgb(89, 19, 3)" fill-opacity="0.38"/><path d="M238,-13L200,35L226,28Z" fill="rgb(241, 240, 240)" fill-opacity="0.95"/><path d="M189,55L242,-2L185,52Z" fill="rgb(243, 243, 243)" fill-opacity="0.93"/><path d="M121,129L127,139L135,136Z" fill="rgb(0, 1, 220)" fill-opacity="0.62"/><path d="M26,115L46,123L-9,116Z" fill="rgb(233, 232, 234)" fill-opacity="0.58"/><path d="M34,75L63,9L30,45Z" fill="rgb(0, 0, 244)" fill-opacity="0.78"/><path d="M194,52L203,108L126,123Z" fill="rgb(0, 0, 233)" fill-opacity="0.89"/><path d="M124,19L145,19L130,22Z" fill="rgb(3, 4, 169)" fill-opacity="0.55"/><path d="M165,122L163,119L172,109Z" fill="rgb(51, 51, 172)" fill-opacity="0.85"/><path d="M239,28L216,34L237,17Z" fill="rgb(229, 16, 0)" fill-opacity="0.56"/><path d="M201,50L201,42L234,41Z" fill="rgb(6, 6, 237)" fill-opacity="0.89"/><path d="M192,25L198,33L166,37Z" fill="rgb(252, 253, 205)" fill-opacity="0.37"/><path d="M49,7L84,-15L21,16Z" fill="rgb(237, 237, 237)" fill-opacity="0.75"/><path d="M210,40L187,-47L205,42Z" fill="rgb(243, 243, 243)" fill-opacity="1.00"/><path d="M227,37L241,25L229,13Z" fill="rgb(232, 16, 0)" fill-opacity="0.76"/><path d="M218,60L195,51L216,47Z" fill="rgb(234, 13, 2)" fill-opacity="0.91"/><path d="M200,128L179,112L108,184Z" fill="rgb(248, 248, 246)" fill-opacity="0.79"/><path d="M213,58L184,119L216,88Z" fill="rgb(0, 0, 238)" fill-opacity="0.60"/><path d="M61,112L43,85L-28,89Z" fill="rgb(247, 247, 244)" fill-opacity="0.60"/><path d="M95,133L95,141L100,136Z" fill="rgb(0, 0, 0)" fill-opacity="0.79"/><path d="M56,116L49,127L35,117Z" fill="rgb(7, 7, 7)" fill-opacity="0.75"/><path d="M60,98L50,95L63,140Z" fill="rgb(249, 250, 243)" fill-opacity="0.56"/><path d="M87,104L62,149L94,107Z" fill="rgb(237, 237, 238)" fill-opacity="0.79"/><path d="M220,-48L212,15L240,14Z" fill="rgb(245, 244, 244)" fill-opacity="0.85"/><path d="M132,140L122,135L132,128Z" fill="rgb(2, 3, 188)" fill-opacity="0.54"/><path d="M105,48L168,46L166,28Z" fill="rgb(1, 1, 245)" fill-opacity="0.96"/><path d="M94,131L71,122L91,128Z" fill="rgb(2, 2, 0)" fill-opacity="0.25"/><path d="M228,28L214,31L210,34Z" fill="rgb(86, 37, 117)" fill-opacity="0.58"/><path d="M67,156L48,149L102,128Z" fill="rgb(244, 244, 244)" fill-opacity="0.94"/><path d="M159,32L166,25L169,45Z" fill="rgb(11, 11, 196)" fill-opacity="0.62"/><path d="M48,7L34,32L48,13Z" fill="rgb(5, 6, 119)" fill-opacity="0.52"/><path d="M65,11L96,17L126,19Z" fill="rgb(224, 225, 209)" fill-opacity="0.72"/><path d="M164,144L86,146L106,134Z" fill="rgb(244, 244, 244)" fill-opacity="0.94"/><path d="M174,53L172,34L169,55Z" fill="rgb(249, 249, 237)" fill-opacity="0.60"/><path d="M64,77L64,74L68,74Z" fill="rgb(0, 0, 70)" fill-opacity="0.52"/><path d="M158,58L202,74L195,53Z" fill="rgb(0, 1, 242)" fill-opacity="0.61"/><path d="M225,57L199,62L202,69Z" fill="rgb(3, 0, 166)" fill-opacity="0.64"/><path d="M55,95L-7,97L88,117Z" fill="rgb(245, 245, 245)" fill-opacity="0.75"/><path d="M136,125L128,150L199,118Z" fill="rgb(247, 247, 245)" fill-opacity="0.71"/><path d="M158,32L172,17L155,27Z" fill="rgb(218, 218, 222)" fill-opacity="0.91"/><path d="M172,70L156,104L162,86Z" fill="rgb(2, 1, 107)" fill-opacity="0.52"/><path d="M41,138L51,131L28,140Z" fill="rgb(7, 7, 0)" fill-opacity="0.37"/><path d="M216,86L220,84L214,63Z" fill="rgb(0, 2, 130)" fill-opacity="0.60"/><path d="M201,50L217,48L197,65Z" fill="rgb(255, 11, 0)" fill-opacity="0.54"/><path d="M98,113L87,105L128,204Z" fill="rgb(244, 244, 244)" fill-opacity="0.97"/><path d="M164,28L267,-2L170,30Z" fill="rgb(242, 242, 243)" fill-opacity="1.00"/><path d="M46,107L-14,-27L-6,147Z" fill="rgb(245, 245, 245)" fill-opacity="1.00"/><path d="M201,110L169,109L185,115Z" fill="rgb(4, 4, 216)" fill-opacity="0.98"/><path d="M47,6L102,117L94,108Z" fill="rgb(2, 2, 240)" fill-opacity="0.98"/><path d="M188,68L164,54L217,66Z" fill="rgb(1, 1, 234)" fill-opacity="0.86"/><path d="M111,19L73,14L99,89Z" fill="rgb(0, 0, 247)" fill-opacity="0.99"/><path d="M188,47L186,40L152,121Z" fill="rgb(4, 4, 230)" fill-opacity="0.92"/><path d="M172,33L177,35L174,38Z" fill="rgb(221, 222, 202)" fill-opacity="0.80"/><path d="M140,101L74,106L32,66Z" fill="rgb(0, 0, 247)" fill-opacity="1.00"/><path d="M224,55L219,66L276,7Z" fill="rgb(240, 240, 239)" fill-opacity="0.72"/><path d="M55,125L71,135L69,131Z" fill="rgb(1, 1, 2)" fill-opacity="0.55"/><path d="M155,84L188,79L200,79Z" fill="rgb(1, 0, 85)" fill-opacity="0.42"/><path d="M204,114L211,90L257,202Z" fill="rgb(244, 244, 244)" fill-opacity="1.00"/></svg>