<svg xmlns="http://www.w3.org/2000/svg" viewBox="0 0 256 143.0214876033058" clip-path="url(#clip)"><defs><clipPath id="clip" clipPathUnits="objectBoundingBox"><rect x="0" y="0" width="256" height="143.0214876033058"/></clipPath></defs><rect x="0" y="0" width="256" height="143.0214876033058" fill="#f6f6f6"/><path d="M44,201L276,46L30,5Z" fill="rgb(21, 21, 231)" fill-opacity="0.84"/><path d="M223,49L218,94L303,16Z" fill="rgb(242, 242, 240)" fill-opacity="0.97"/><path d="M30,16L216,138L156,20Z" fill="rgb(0, 0, 240)" fill-opacity="0.86"/><path d="M74,103L244,191L-66,251Z" fill="rgb(238, 238, 229)" fill-opacity="0.90"/><path d="M9,61L37,107L90,121Z" fill="rgb(241, 241, 239)" fill-opacity="0.93"/><path d="M39,108L45,139L60,115Z" fill="rgb(32, 32, 3)" fill-opacity="0.84"/><path d="M169,-8L227,22L190,55Z" fill="rgb(240, 240, 243)" fill-opacity="0.96"/><path d="M219,43L232,11L242,27Z" fill="rgb(176, 1, 28)" fill-opacity="0.83"/><path d="M272,239L130,130L152,116Z" fill="rgb(239, 239, 242)" fill-opacity="0.97"/><path d="M192,131L211,31L233,32Z" fill="rgb(8, 0, 210)" fill-opacity="0.79"/><path d="M-16,13L34,35L44,1Z" fill="rgb(242, 242, 244)" fill-opacity="0.98"/><path d="M35,128L40,110L72,133Z" fill="rgb(20, 20, 0)" fill-opacity="0.58"/><path d="M157,30L142,15L181,29Z" fill="rgb(206, 206, 213)" fill-opacity="0.74"/><path d="M167,48L172,58L174,30Z" fill="rgb(247, 248, 223)" fill-opacity="0.74"/><path d="M37,23L209,119L47,94Z" fill="rgb(0, 0, 242)" fill-opacity="0.98"/><path d="M191,113L235,183L157,123Z" fill="rgb(239, 239, 240)" fill-opacity="0.90"/><path d="M168,118L49,39L103,121Z" fill="rgb(1, 1, 244)" fill-opacity="0.92"/><path d="M95,133L95,141L101,136Z" fill="rgb(6, 6, 2)" fill-opacity="0.70"/><path d="M64,10L37,85L28,46Z" fill="rgb(3, 3, 242)" fill-opacity="0.88"/><path d="M-3,86L40,117L45,92Z" fill="rgb(245, 245, 243)" fill-opacity="0.75"/><path d="M50,133L101,115L87,102Z" fill="rgb(250, 250, 243)" fill-opacity="0.61"/><path d="M117,124L144,68L130,143Z" fill="rgb(3, 3, 243)" fill-opacity="0.82"/><path d="M198,127L210,124L211,140Z" fill="rgb(13, 13, 219)" fill-opacity="0.81"/><path d="M116,119L106,117L147,233Z" fill="rgb(238, 238, 241)" fill-opacity="0.88"/><path d="M220,83L173,39L186,118Z" fill="rgb(0, 0, 233)" fill-opacity="0.90"/><path d="M65,100L137,195L55,116Z" fill="rgb(240, 240, 240)" fill-opacity="0.98"/><path d="M220,40L221,23L226,41Z" fill="rgb(220, 33, 3)" fill-opacity="0.64"/><path d="M169,36L184,29L168,44Z" fill="rgb(255, 255, 118)" fill-opacity="0.39"/><path d="M52,143L86,144L30,129Z" fill="rgb(255, 255, 238)" fill-opacity="0.57"/><path d="M31,39L47,6L88,18Z" fill="rgb(1, 1, 235)" fill-opacity="0.80"/><path d="M226,26L220,58L233,45Z" fill="rgb(3, 6, 163)" fill-opacity="0.52"/><path d="M228,14L229,37L242,24Z" fill="rgb(249, 6, 0)" fill-opacity="0.58"/><path d="M131,98L75,107L31,70Z" fill="rgb(0, 0, 247)" fill-opacity="0.89"/><path d="M217,124L205,144L247,139Z" fill="rgb(244, 244, 244)" fill-opacity="0.92"/><path d="M168,114L172,238L198,118Z" fill="rgb(245, 245, 243)" fill-opacity="0.85"/><path d="M280,29L229,40L262,57Z" fill="rgb(242, 242, 243)" fill-opacity="0.91"/><path d="M49,13L42,21L39,7Z" fill="rgb(13, 13, 186)" fill-opacity="0.71"/><path d="M166,117L197,109L158,111Z" fill="rgb(3, 3, 95)" fill-opacity="0.26"/><path d="M222,58L221,36L121,96Z" fill="rgb(0, 0, 232)" fill-opacity="0.97"/><path d="M35,128L59,128L54,109Z" fill="rgb(2, 2, 1)" fill-opacity="0.85"/><path d="M81,127L85,126L95,131Z" fill="rgb(46, 46, 39)" fill-opacity="0.50"/><path d="M184,54L191,54L245,0Z" fill="rgb(238, 238, 238)" fill-opacity="0.90"/><path d="M39,111L42,138L56,110Z" fill="rgb(5, 5, 0)" fill-opacity="0.61"/><path d="M46,9L75,-22L20,11Z" fill="rgb(244, 244, 239)" fill-opacity="0.64"/><path d="M207,99L221,27L191,59Z" fill="rgb(1, 1, 235)" fill-opacity="0.68"/><path d="M217,72L260,11L266,125Z" fill="rgb(247, 247, 246)" fill-opacity="0.74"/><path d="M204,65L200,40L216,50Z" fill="rgb(4, 4, 237)" fill-opacity="0.64"/><path d="M-1,115L44,123L21,111Z" fill="rgb(237, 237, 236)" fill-opacity="0.85"/><path d="M117,69L170,102L167,24Z" fill="rgb(0, 0, 237)" fill-opacity="0.61"/><path d="M225,35L224,27L217,33Z" fill="rgb(223, 0, 0)" fill-opacity="0.47"/><path d="M157,115L167,76L155,104Z" fill="rgb(0, 0, 142)" fill-opacity="0.50"/><path d="M35,76L40,86L35,84Z" fill="rgb(168, 168, 172)" fill-opacity="0.68"/><path d="M149,144L152,189L90,126Z" fill="rgb(245, 245, 244)" fill-opacity="0.93"/><path d="M38,27L6,-45L40,14Z" fill="rgb(240, 240, 238)" fill-opacity="0.63"/><path d="M197,134L197,122L176,111Z" fill="rgb(237, 237, 242)" fill-opacity="0.70"/><path d="M189,45L168,98L177,31Z" fill="rgb(3, 3, 233)" fill-opacity="0.66"/><path d="M70,103L58,115L57,146Z" fill="rgb(244, 244, 242)" fill-opacity="0.57"/><path d="M169,55L174,53L171,34Z" fill="rgb(233, 233, 231)" fill-opacity="0.95"/><path d="M235,85L222,53L301,27Z" fill="rgb(245, 245, 245)" fill-opacity="0.97"/><path d="M29,140L48,132L36,139Z" fill="rgb(72, 72, 63)" fill-opacity="0.65"/><path d="M45,120L73,137L46,115Z" fill="rgb(19, 19, 20)" fill-opacity="0.61"/><path d="M72,106L131,169L94,108Z" fill="rgb(243, 243, 243)" fill-opacity="0.96"/><path d="M227,21L236,12L237,26Z" fill="rgb(255, 24, 0)" fill-opacity="0.48"/><path d="M206,60L217,58L222,83Z" fill="rgb(24, 27, 81)" fill-opacity="0.40"/><path d="M33,9L41,8L54,11Z" fill="rgb(157, 157, 193)" fill-opacity="0.57"/><path d="M224,29L180,35L232,-49Z" fill="rgb(245, 245, 245)" fill-opacity="1.00"/><path d="M222,177L157,119L131,134Z" fill="rgb(246, 246, 245)" fill-opacity="0.89"/><path d="M47,128L95,143L84,209Z" fill="rgb(255, 255, 254)" fill-opacity="0.54"/><path d="M56,96L19,110L75,108Z" fill="rgb(250, 250, 244)" fill-opacity="0.64"/><path d="M150,113L123,137L116,92Z" fill="rgb(0, 0, 249)" fill-opacity="0.85"/><path d="M98,117L24,84L70,124Z" fill="rgb(248, 248, 247)" fill-opacity="0.67"/><path d="M192,72L200,78L185,90Z" fill="rgb(0, 0, 173)" fill-opacity="0.47"/><path d="M106,-30L175,23L143,21Z" fill="rgb(243, 243, 244)" fill-opacity="1.00"/><path d="M98,81L99,118L146,118Z" fill="rgb(0, 0, 250)" fill-opacity="0.74"/><path d="M152,30L159,31L178,11Z" fill="rgb(229, 229, 225)" fill-opacity="0.77"/><path d="M41,85L72,14L160,24Z" fill="rgb(0, 0, 244)" fill-opacity="0.95"/><path d="M181,43L210,42L209,10Z" fill="rgb(246, 246, 242)" fill-opacity="0.55"/><path d="M106,80L62,74L97,80Z" fill="rgb(1, 0, 126)" fill-opacity="0.59"/><path d="M213,63L229,80L219,74Z" fill="rgb(209, 209, 208)" fill-opacity="0.49"/><path d="M32,37L36,80L68,103Z" fill="rgb(0, 0, 247)" fill-opacity="0.90"/><path d="M48,108L39,112L47,136Z" fill="rgb(4, 4, 3)" fill-opacity="0.60"/><path d="M138,63L144,73L137,55Z" fill="rgb(0, 0, 154)" fill-opacity="0.66"/><path d="M201,87L183,91L202,129Z" fill="rgb(0, 0, 241)" fill-opacity="0.88"/><path d="M39,145L54,127L94,148Z" fill="rgb(246, 246, 246)" fill-opacity="0.60"/><path d="M19,143L5,124L45,132Z" fill="rgb(236, 236, 236)" fill-opacity="0.88"/><path d="M96,16L77,14L27,1Z" fill="rgb(225, 225, 223)" fill-opacity="0.82"/><path d="M55,128L52,110L35,118Z" fill="rgb(7, 7, 6)" fill-opacity="0.74"/><path d="M27,46L28,68L31,41Z" fill="rgb(233, 233, 229)" fill-opacity="0.65"/><path d="M201,105L217,85L255,112Z" fill="rgb(243, 243, 243)" fill-opacity="0.90"/><path d="M256,170L205,104L211,90Z" fill="rgb(244, 244, 244)" fill-opacity="0.99"/><path d="M221,78L216,87L215,71Z" fill="rgb(8, 8, 135)" fill-opacity="0.76"/><path d="M139,60L137,46L133,51Z" fill="rgb(0, 0, 156)" fill-opacity="0.48"/><path d="M142,-41L214,23L167,30Z" fill="rgb(245, 245, 245)" fill-opacity="0.89"/><path d="M236,46L230,39L228,46Z" fill="rgb(8, 8, 105)" fill-opacity="0.48"/><path d="M142,65L124,66L114,65Z" fill="rgb(0, 0, 49)" fill-opacity="0.58"/><path d="M168,114L174,115L163,128Z" fill="rgb(196, 197, 179)" fill-opacity="0.52"/><path d="M104,105L87,106L108,106Z" fill="rgb(2, 2, 91)" fill-opacity="0.58"/><path d="M233,15L182,12L247,-86Z" fill="rgb(246, 246, 246)" fill-opacity="0.65"/><path d="M113,35L118,34L127,35Z" fill="rgb(1, 1, 16)" fill-opacity="0.60"/><path d="M61,129L-11,160L92,159Z" fill="rgb(244, 244, 244)" fill-opacity="1.00"/></svg>