<svg xmlns="http://www.w3.org/2000/svg" viewBox="0 0 256 143.0214876033058" clip-path="url(#clip)"><defs><clipPath id="clip" clipPathUnits="objectBoundingBox"><rect x="0" y="0" width="256" height="143.0214876033058"/></clipPath></defs><rect x="0" y="0" width="256" height="143.0214876033058" fill="#f6f6f6"/><path d="M13,93L228,135L99,-147Z" fill="rgb(54, 7, 189)" fill-opacity="0.79"/><path d="M206,110L107,127L239,13Z" fill="rgb(18, 8, 219)" fill-opacity="0.94"/><path d="M125,133L37,78L204,83Z" fill="rgb(0, 0, 245)" fill-opacity="0.84"/><path d="M34,111L62,110L45,140Z" fill="rgb(13, 13, 13)" fill-opacity="0.79"/><path d="M130,8L145,83L84,77Z" fill="rgb(243, 15, 1)" fill-opacity="0.89"/><path d="M-174,-129L63,13L245,31Z" fill="rgb(240, 238, 240)" fill-opacity="0.98"/><path d="M222,22L236,40L239,10Z" fill="rgb(234, 90, 76)" fill-opacity="0.88"/><path d="M230,177L369,8L200,101Z" fill="rgb(244, 244, 245)" fill-opacity="0.97"/><path d="M48,97L6,17L11,167Z" fill="rgb(242, 243, 244)" fill-opacity="0.96"/><path d="M145,46L101,81L163,55Z" fill="rgb(229, 13, 10)" fill-opacity="1.00"/><path d="M110,18L106,81L135,20Z" fill="rgb(239, 15, 2)" fill-opacity="0.95"/><path d="M205,133L183,111L148,128Z" fill="rgb(237, 239, 240)" fill-opacity="0.90"/><path d="M174,25L170,84L189,46Z" fill="rgb(245, 36, 6)" fill-opacity="0.78"/><path d="M226,27L152,30L249,-51Z" fill="rgb(245, 244, 242)" fill-opacity="0.86"/><path d="M106,117L142,253L117,120Z" fill="rgb(236, 236, 240)" fill-opacity="0.92"/><path d="M56,96L115,135L-20,82Z" fill="rgb(244, 244, 244)" fill-opacity="0.98"/><path d="M35,85L40,8L116,50Z" fill="rgb(0, 0, 240)" fill-opacity="0.92"/><path d="M35,128L44,106L70,133Z" fill="rgb(0, 0, 0)" fill-opacity="0.58"/><path d="M122,135L132,139L130,81Z" fill="rgb(4, 4, 241)" fill-opacity="0.96"/><path d="M111,21L47,7L67,103Z" fill="rgb(3, 1, 240)" fill-opacity="1.00"/><path d="M178,112L167,44L124,107Z" fill="rgb(1, 0, 234)" fill-opacity="0.96"/><path d="M229,13L241,24L228,52Z" fill="rgb(173, 0, 19)" fill-opacity="0.56"/><path d="M194,113L224,76L142,73Z" fill="rgb(1, 1, 231)" fill-opacity="0.87"/><path d="M88,55L85,77L144,81Z" fill="rgb(251, 12, 0)" fill-opacity="0.84"/><path d="M184,68L169,52L172,76Z" fill="rgb(237, 14, 0)" fill-opacity="0.71"/><path d="M166,26L189,44L158,31Z" fill="rgb(213, 76, 62)" fill-opacity="0.90"/><path d="M237,43L214,30L174,90Z" fill="rgb(6, 4, 220)" fill-opacity="0.74"/><path d="M60,106L65,152L54,107Z" fill="rgb(235, 235, 235)" fill-opacity="0.83"/><path d="M111,81L107,46L157,48Z" fill="rgb(237, 13, 0)" fill-opacity="0.92"/><path d="M94,126L100,113L83,102Z" fill="rgb(229, 229, 239)" fill-opacity="0.89"/><path d="M244,23L219,30L222,41Z" fill="rgb(200, 6, 0)" fill-opacity="0.64"/><path d="M100,136L88,126L96,140Z" fill="rgb(55, 55, 55)" fill-opacity="0.68"/><path d="M33,135L86,132L15,142Z" fill="rgb(209, 209, 209)" fill-opacity="1.00"/><path d="M146,63L115,35L159,61Z" fill="rgb(237, 13, 3)" fill-opacity="0.94"/><path d="M167,50L172,32L174,54Z" fill="rgb(242, 247, 229)" fill-opacity="0.78"/><path d="M336,-11L232,33L232,42Z" fill="rgb(243, 242, 242)" fill-opacity="0.97"/><path d="M213,131L207,141L178,73Z" fill="rgb(0, 4, 244)" fill-opacity="0.76"/><path d="M136,48L138,16L171,46Z" fill="rgb(0, 1, 246)" fill-opacity="0.90"/><path d="M169,36L176,31L152,29Z" fill="rgb(197, 13, 0)" fill-opacity="0.59"/><path d="M140,63L154,106L169,62Z" fill="rgb(1, 0, 239)" fill-opacity="0.96"/><path d="M217,86L214,56L222,82Z" fill="rgb(54, 56, 109)" fill-opacity="0.69"/><path d="M32,29L77,109L35,80Z" fill="rgb(0, 2, 245)" fill-opacity="0.83"/><path d="M35,48L110,17L107,60Z" fill="rgb(1, 0, 240)" fill-opacity="0.88"/><path d="M-31,198L38,92L23,22Z" fill="rgb(245, 245, 245)" fill-opacity="0.95"/><path d="M220,63L223,111L226,47Z" fill="rgb(236, 236, 234)" fill-opacity="0.78"/><path d="M166,114L197,116L197,157Z" fill="rgb(244, 245, 242)" fill-opacity="0.82"/><path d="M165,82L103,122L81,80Z" fill="rgb(0, 0, 242)" fill-opacity="0.91"/><path d="M242,25L230,14L228,32Z" fill="rgb(238, 18, 5)" fill-opacity="0.97"/><path d="M207,135L256,226L144,117Z" fill="rgb(244, 244, 244)" fill-opacity="0.76"/><path d="M72,7L32,8L161,-49Z" fill="rgb(244, 245, 244)" fill-opacity="0.90"/><path d="M79,123L76,119L63,142Z" fill="rgb(127, 127, 127)" fill-opacity="0.32"/><path d="M48,121L70,131L70,136Z" fill="rgb(5, 5, 5)" fill-opacity="0.52"/><path d="M180,55L196,119L218,50Z" fill="rgb(1, 1, 233)" fill-opacity="0.99"/><path d="M108,134L70,108L93,106Z" fill="rgb(244, 244, 244)" fill-opacity="0.90"/><path d="M262,50L227,-29L236,17Z" fill="rgb(244, 243, 243)" fill-opacity="1.00"/><path d="M159,91L185,117L203,105Z" fill="rgb(3, 3, 238)" fill-opacity="0.91"/><path d="M58,127L38,131L55,109Z" fill="rgb(1, 1, 1)" fill-opacity="0.76"/><path d="M188,48L172,63L179,28Z" fill="rgb(242, 21, 0)" fill-opacity="0.69"/><path d="M186,1L106,-7L134,21Z" fill="rgb(244, 245, 245)" fill-opacity="0.81"/><path d="M48,95L35,29L104,94Z" fill="rgb(0, 0, 245)" fill-opacity="0.87"/><path d="M96,132L85,126L74,123Z" fill="rgb(78, 78, 78)" fill-opacity="0.49"/><path d="M-24,-19L33,35L40,14Z" fill="rgb(245, 245, 245)" fill-opacity="1.00"/><path d="M208,88L213,156L234,110Z" fill="rgb(247, 248, 244)" fill-opacity="0.50"/><path d="M174,31L178,35L169,42Z" fill="rgb(219, 255, 244)" fill-opacity="0.54"/><path d="M97,130L79,162L85,135Z" fill="rgb(241, 241, 241)" fill-opacity="1.00"/><path d="M53,123L54,109L37,143Z" fill="rgb(17, 17, 17)" fill-opacity="0.53"/><path d="M215,66L218,73L247,87Z" fill="rgb(239, 240, 227)" fill-opacity="0.48"/><path d="M219,79L201,39L199,108Z" fill="rgb(1, 2, 228)" fill-opacity="0.74"/><path d="M205,141L192,113L151,143Z" fill="rgb(245, 245, 245)" fill-opacity="0.85"/><path d="M232,43L223,51L226,26Z" fill="rgb(13, 8, 194)" fill-opacity="0.99"/><path d="M145,20L165,69L169,40Z" fill="rgb(0, 0, 242)" fill-opacity="0.68"/><path d="M29,50L40,20L35,78Z" fill="rgb(1, 7, 237)" fill-opacity="0.71"/><path d="M31,69L97,104L75,106Z" fill="rgb(1, 1, 246)" fill-opacity="1.00"/><path d="M83,147L58,127L8,161Z" fill="rgb(242, 242, 242)" fill-opacity="0.87"/><path d="M35,113L55,114L48,109Z" fill="rgb(0, 0, 0)" fill-opacity="0.52"/><path d="M136,125L130,133L133,124Z" fill="rgb(8, 8, 38)" fill-opacity="0.46"/><path d="M126,1L224,5L169,31Z" fill="rgb(246, 247, 246)" fill-opacity="0.63"/><path d="M31,77L48,90L44,110Z" fill="rgb(230, 232, 230)" fill-opacity="0.73"/><path d="M178,29L170,76L181,69Z" fill="rgb(235, 15, 6)" fill-opacity="1.00"/><path d="M223,43L219,30L225,29Z" fill="rgb(218, 19, 2)" fill-opacity="0.81"/><path d="M198,128L201,108L212,138Z" fill="rgb(0, 0, 230)" fill-opacity="0.55"/><path d="M60,130L66,154L46,128Z" fill="rgb(246, 246, 246)" fill-opacity="0.44"/><path d="M112,81L133,17L140,80Z" fill="rgb(246, 14, 0)" fill-opacity="0.72"/><path d="M223,60L199,65L211,58Z" fill="rgb(1, 4, 93)" fill-opacity="0.32"/><path d="M272,50L205,117L201,108Z" fill="rgb(243, 243, 244)" fill-opacity="0.97"/><path d="M124,134L158,104L99,93Z" fill="rgb(0, 0, 250)" fill-opacity="0.95"/><path d="M6,140L44,120L19,120Z" fill="rgb(240, 239, 239)" fill-opacity="0.65"/><path d="M56,111L39,132L43,109Z" fill="rgb(2, 2, 2)" fill-opacity="0.76"/><path d="M100,137L93,129L96,141Z" fill="rgb(0, 0, 0)" fill-opacity="0.41"/><path d="M120,128L84,112L132,156Z" fill="rgb(244, 244, 243)" fill-opacity="0.86"/><path d="M58,-105L121,19L98,17Z" fill="rgb(243, 244, 243)" fill-opacity="0.85"/><path d="M204,43L211,39L129,0Z" fill="rgb(241, 241, 244)" fill-opacity="1.00"/><path d="M158,120L169,122L167,113Z" fill="rgb(0, 16, 151)" fill-opacity="0.56"/><path d="M135,25L136,81L89,79Z" fill="rgb(243, 13, 0)" fill-opacity="0.67"/><path d="M167,77L158,95L157,112Z" fill="rgb(1, 2, 86)" fill-opacity="0.39"/><path d="M147,105L151,117L141,122Z" fill="rgb(12, 12, 212)" fill-opacity="0.99"/><path d="M136,21L142,19L123,19Z" fill="rgb(52, 0, 83)" fill-opacity="0.62"/><path d="M85,63L85,107L78,107Z" fill="rgb(0, 0, 222)" fill-opacity="0.80"/><path d="M33,140L28,140L45,134Z" fill="rgb(11, 11, 11)" fill-opacity="0.46"/><path d="M211,34L219,29L208,96Z" fill="rgb(0, 0, 241)" fill-opacity="0.77"/></svg>