<svg xmlns="http://www.w3.org/2000/svg" viewBox="0 0 256 143.0214876033058" clip-path="url(#clip)"><defs><clipPath id="clip" clipPathUnits="objectBoundingBox"><rect x="0" y="0" width="256" height="143.0214876033058"/></clipPath></defs><rect x="0" y="0" width="256" height="143.0214876033058" fill="#f6f6f6"/><path d="M223,137L20,92L92,-197Z" fill="rgb(65, 7, 176)" fill-opacity="0.80"/><path d="M202,116L85,122L239,18Z" fill="rgb(28, 9, 212)" fill-opacity="0.92"/><path d="M217,33L41,7L54,-101Z" fill="rgb(241, 241, 243)" fill-opacity="0.98"/><path d="M53,77L180,84L128,136Z" fill="rgb(0, 1, 245)" fill-opacity="0.88"/><path d="M40,105L38,139L63,121Z" fill="rgb(25, 25, 25)" fill-opacity="0.87"/><path d="M198,67L195,45L164,72Z" fill="rgb(255, 44, 16)" fill-opacity="0.78"/><path d="M115,14L159,62L80,83Z" fill="rgb(237, 9, 1)" fill-opacity="0.89"/><path d="M137,14L154,47L136,48Z" fill="rgb(0, 2, 244)" fill-opacity="0.90"/><path d="M177,33L83,78L135,82Z" fill="rgb(229, 16, 14)" fill-opacity="0.90"/><path d="M243,27L233,12L219,39Z" fill="rgb(204, 35, 39)" fill-opacity="0.90"/><path d="M22,53L59,114L-34,84Z" fill="rgb(241, 241, 242)" fill-opacity="0.96"/><path d="M201,121L26,292L173,111Z" fill="rgb(240, 242, 242)" fill-opacity="0.90"/><path d="M84,35L80,57L162,56Z" fill="rgb(242, 13, 2)" fill-opacity="1.00"/><path d="M110,17L30,28L108,39Z" fill="rgb(0, 1, 244)" fill-opacity="0.95"/><path d="M145,34L163,32L184,72Z" fill="rgb(254, 31, 5)" fill-opacity="0.65"/><path d="M237,63L200,105L226,159Z" fill="rgb(242, 242, 243)" fill-opacity="0.96"/><path d="M134,19L110,19L139,83Z" fill="rgb(240, 13, 2)" fill-opacity="0.98"/><path d="M191,118L222,78L198,48Z" fill="rgb(7, 7, 227)" fill-opacity="0.96"/><path d="M34,81L49,2L110,116Z" fill="rgb(0, 0, 246)" fill-opacity="0.92"/><path d="M227,29L236,49L206,33Z" fill="rgb(32, 0, 148)" fill-opacity="0.55"/><path d="M142,62L146,118L173,63Z" fill="rgb(3, 0, 234)" fill-opacity="0.99"/><path d="M153,122L247,189L190,116Z" fill="rgb(242, 242, 242)" fill-opacity="0.98"/><path d="M55,120L91,104L200,262Z" fill="rgb(230, 231, 232)" fill-opacity="0.99"/><path d="M141,170L107,118L115,119Z" fill="rgb(235, 235, 237)" fill-opacity="0.99"/><path d="M134,18L136,47L158,24Z" fill="rgb(1, 1, 237)" fill-opacity="0.77"/><path d="M34,75L101,23L32,33Z" fill="rgb(0, 0, 244)" fill-opacity="0.96"/><path d="M39,111L36,126L73,134Z" fill="rgb(3, 3, 3)" fill-opacity="0.58"/><path d="M32,36L111,22L48,7Z" fill="rgb(1, 2, 240)" fill-opacity="0.93"/><path d="M202,-13L186,56L201,47Z" fill="rgb(243, 242, 242)" fill-opacity="0.94"/><path d="M85,78L90,37L145,81Z" fill="rgb(250, 13, 0)" fill-opacity="0.81"/><path d="M169,76L179,73L173,53Z" fill="rgb(220, 13, 8)" fill-opacity="0.86"/><path d="M31,59L42,114L-72,-101Z" fill="rgb(243, 243, 243)" fill-opacity="0.99"/><path d="M201,132L213,138L181,64Z" fill="rgb(0, 5, 240)" fill-opacity="0.82"/><path d="M198,55L173,76L170,54Z" fill="rgb(235, 14, 2)" fill-opacity="0.91"/><path d="M101,18L212,21L3,-2Z" fill="rgb(240, 240, 242)" fill-opacity="0.92"/><path d="M198,28L171,14L152,30Z" fill="rgb(238, 242, 238)" fill-opacity="0.77"/><path d="M120,134L132,140L132,123Z" fill="rgb(9, 9, 214)" fill-opacity="0.72"/><path d="M219,30L223,43L225,28Z" fill="rgb(204, 28, 27)" fill-opacity="0.97"/><path d="M226,27L221,55L234,45Z" fill="rgb(13, 17, 173)" fill-opacity="0.63"/><path d="M92,102L78,109L43,87Z" fill="rgb(0, 6, 244)" fill-opacity="0.77"/><path d="M12,150L44,133L20,120Z" fill="rgb(235, 235, 235)" fill-opacity="1.00"/><path d="M-21,105L32,83L82,111Z" fill="rgb(243, 244, 244)" fill-opacity="0.80"/><path d="M155,70L159,54L192,42Z" fill="rgb(2, 23, 255)" fill-opacity="0.62"/><path d="M96,139L101,137L88,126Z" fill="rgb(0, 0, 0)" fill-opacity="0.47"/><path d="M55,54L25,49L63,20Z" fill="rgb(1, 2, 247)" fill-opacity="0.53"/><path d="M56,110L43,109L57,129Z" fill="rgb(9, 9, 9)" fill-opacity="0.81"/><path d="M190,45L161,26L180,55Z" fill="rgb(6, 40, 255)" fill-opacity="0.57"/><path d="M226,46L166,124L214,29Z" fill="rgb(0, 2, 232)" fill-opacity="0.76"/><path d="M155,63L151,29L168,36Z" fill="rgb(234, 9, 0)" fill-opacity="0.81"/><path d="M167,52L175,57L171,34Z" fill="rgb(232, 228, 216)" fill-opacity="0.80"/><path d="M189,48L211,40L139,-52Z" fill="rgb(243, 243, 243)" fill-opacity="0.71"/><path d="M87,66L47,96L61,9Z" fill="rgb(0, 0, 242)" fill-opacity="0.86"/><path d="M180,78L136,61L214,132Z" fill="rgb(0, 0, 239)" fill-opacity="0.79"/><path d="M229,38L229,13L241,24Z" fill="rgb(233, 16, 0)" fill-opacity="0.82"/><path d="M191,113L197,120L145,154Z" fill="rgb(242, 242, 242)" fill-opacity="0.92"/><path d="M176,177L168,113L201,129Z" fill="rgb(245, 245, 245)" fill-opacity="0.92"/><path d="M47,135L51,133L34,124Z" fill="rgb(15, 15, 15)" fill-opacity="0.60"/><path d="M218,74L283,22L224,52Z" fill="rgb(241, 241, 241)" fill-opacity="0.86"/><path d="M63,131L74,138L63,126Z" fill="rgb(2, 1, 1)" fill-opacity="0.50"/><path d="M50,96L83,43L72,13Z" fill="rgb(1, 0, 241)" fill-opacity="0.95"/><path d="M159,119L132,126L132,156Z" fill="rgb(242, 243, 235)" fill-opacity="0.64"/><path d="M150,117L218,188L132,129Z" fill="rgb(244, 244, 244)" fill-opacity="0.70"/><path d="M87,78L151,86L129,138Z" fill="rgb(0, 0, 245)" fill-opacity="1.00"/><path d="M69,136L103,129L70,149Z" fill="rgb(247, 247, 247)" fill-opacity="0.75"/><path d="M128,35L112,35L119,34Z" fill="rgb(56, 1, 0)" fill-opacity="0.70"/><path d="M165,26L157,33L169,34Z" fill="rgb(5, 0, 188)" fill-opacity="0.64"/><path d="M210,119L247,6L215,173Z" fill="rgb(245, 245, 244)" fill-opacity="0.83"/><path d="M97,133L100,138L93,137Z" fill="rgb(0, 0, 0)" fill-opacity="0.52"/><path d="M63,142L52,132L62,122Z" fill="rgb(252, 252, 252)" fill-opacity="0.43"/><path d="M137,120L196,64L195,111Z" fill="rgb(0, 0, 233)" fill-opacity="0.89"/><path d="M77,105L55,118L125,136Z" fill="rgb(245, 245, 245)" fill-opacity="0.78"/><path d="M91,104L87,106L111,106Z" fill="rgb(7, 7, 148)" fill-opacity="0.68"/><path d="M84,77L144,79L130,36Z" fill="rgb(247, 14, 0)" fill-opacity="0.84"/><path d="M177,35L173,33L168,45Z" fill="rgb(234, 244, 224)" fill-opacity="0.80"/><path d="M187,73L98,88L164,122Z" fill="rgb(0, 0, 235)" fill-opacity="0.77"/><path d="M169,51L171,73L156,61Z" fill="rgb(0, 0, 245)" fill-opacity="0.82"/><path d="M-235,209L29,0L29,132Z" fill="rgb(246, 246, 246)" fill-opacity="0.95"/><path d="M41,83L70,105L86,107Z" fill="rgb(0, 0, 237)" fill-opacity="0.65"/><path d="M141,47L156,47L139,30Z" fill="rgb(2, 0, 245)" fill-opacity="0.99"/><path d="M42,130L61,127L34,127Z" fill="rgb(19, 19, 19)" fill-opacity="0.91"/><path d="M77,37L105,38L162,55Z" fill="rgb(236, 12, 0)" fill-opacity="0.77"/><path d="M141,63L154,62L166,33Z" fill="rgb(241, 13, 0)" fill-opacity="0.79"/><path d="M156,29L148,41L169,52Z" fill="rgb(244, 11, 0)" fill-opacity="0.66"/><path d="M185,37L173,57L177,34Z" fill="rgb(2, 0, 238)" fill-opacity="0.80"/><path d="M86,126L96,132L69,121Z" fill="rgb(7, 5, 3)" fill-opacity="0.24"/><path d="M19,13L46,8L63,-6Z" fill="rgb(241, 241, 242)" fill-opacity="1.00"/><path d="M190,72L199,57L170,55Z" fill="rgb(255, 2, 0)" fill-opacity="0.44"/><path d="M212,53L218,87L221,77Z" fill="rgb(46, 50, 101)" fill-opacity="0.57"/><path d="M48,16L44,16L48,5Z" fill="rgb(26, 31, 8)" fill-opacity="0.57"/><path d="M148,117L125,134L133,126Z" fill="rgb(13, 13, 138)" fill-opacity="0.64"/><path d="M40,8L45,13L40,26Z" fill="rgb(1, 1, 216)" fill-opacity="1.00"/><path d="M169,31L223,5L129,-52Z" fill="rgb(246, 246, 245)" fill-opacity="0.88"/><path d="M202,61L223,57L200,40Z" fill="rgb(0, 0, 247)" fill-opacity="0.56"/><path d="M36,117L47,131L55,111Z" fill="rgb(9, 9, 9)" fill-opacity="0.83"/><path d="M205,-12L182,44L229,25Z" fill="rgb(244, 244, 244)" fill-opacity="0.74"/><path d="M228,17L228,27L238,32Z" fill="rgb(222, 22, 9)" fill-opacity="0.70"/><path d="M156,111L203,107L191,88Z" fill="rgb(0, 0, 246)" fill-opacity="0.80"/><path d="M171,92L161,82L160,90Z" fill="rgb(1, 1, 160)" fill-opacity="0.51"/><path d="M216,15L248,13L171,-13Z" fill="rgb(245, 246, 246)" fill-opacity="0.87"/><path d="M107,119L114,118L95,244Z" fill="rgb(245, 245, 244)" fill-opacity="0.96"/></svg>