<svg xmlns="http://www.w3.org/2000/svg" viewBox="0 0 256 143.0214876033058" clip-path="url(#clip)"><defs><clipPath id="clip" clipPathUnits="objectBoundingBox"><rect x="0" y="0" width="256" height="143.0214876033058"/></clipPath></defs><rect x="0" y="0" width="256" height="143.0214876033058" fill="#f6f6f6"/><path d="M-99,-2L190,175L232,29Z" fill="rgb(90, 41, 186)" fill-opacity="0.89"/><path d="M188,65L235,49L238,7Z" fill="rgb(229, 20, 1)" fill-opacity="0.70"/><path d="M-23,-11L41,7L14,124Z" fill="rgb(244, 244, 244)" fill-opacity="0.98"/><path d="M195,114L295,464L129,127Z" fill="rgb(239, 240, 242)" fill-opacity="0.99"/><path d="M35,131L65,129L44,104Z" fill="rgb(26, 26, 26)" fill-opacity="0.89"/><path d="M63,22L59,47L24,37Z" fill="rgb(249, 18, 0)" fill-opacity="0.85"/><path d="M139,19L121,97L106,19Z" fill="rgb(219, 11, 22)" fill-opacity="0.98"/><path d="M90,12L140,133L27,75Z" fill="rgb(0, 0, 246)" fill-opacity="0.93"/><path d="M144,79L111,81L127,22Z" fill="rgb(242, 12, 0)" fill-opacity="0.95"/><path d="M185,73L131,33L225,159Z" fill="rgb(7, 0, 219)" fill-opacity="0.74"/><path d="M84,14L35,7L97,54Z" fill="rgb(0, 2, 237)" fill-opacity="0.86"/><path d="M229,23L190,55L152,21Z" fill="rgb(255, 218, 192)" fill-opacity="0.80"/><path d="M176,27L189,46L169,82Z" fill="rgb(218, 27, 27)" fill-opacity="0.92"/><path d="M140,124L190,106L170,85Z" fill="rgb(236, 23, 3)" fill-opacity="0.55"/><path d="M217,132L223,192L179,153Z" fill="rgb(236, 236, 237)" fill-opacity="1.00"/><path d="M34,78L120,116L57,100Z" fill="rgb(20, 23, 241)" fill-opacity="0.83"/><path d="M224,78L205,118L201,104Z" fill="rgb(231, 232, 233)" fill-opacity="0.96"/><path d="M28,39L36,83L83,53Z" fill="rgb(0, 1, 245)" fill-opacity="0.80"/><path d="M58,109L46,140L35,113Z" fill="rgb(0, 0, 0)" fill-opacity="0.60"/><path d="M68,107L226,82L196,57Z" fill="rgb(0, 0, 228)" fill-opacity="0.78"/><path d="M170,39L150,106L132,16Z" fill="rgb(0, 0, 241)" fill-opacity="0.92"/><path d="M216,69L244,18L196,50Z" fill="rgb(212, 25, 19)" fill-opacity="0.84"/><path d="M190,87L211,88L203,102Z" fill="rgb(211, 19, 24)" fill-opacity="0.69"/><path d="M84,104L124,265L97,109Z" fill="rgb(218, 218, 224)" fill-opacity="1.00"/><path d="M103,79L166,86L125,139Z" fill="rgb(0, 0, 241)" fill-opacity="0.89"/><path d="M184,67L172,76L170,56Z" fill="rgb(240, 11, 0)" fill-opacity="0.85"/><path d="M3,-38L35,75L39,165Z" fill="rgb(241, 241, 242)" fill-opacity="0.98"/><path d="M108,48L110,18L37,16Z" fill="rgb(3, 1, 240)" fill-opacity="0.99"/><path d="M173,58L167,46L173,32Z" fill="rgb(252, 254, 227)" fill-opacity="0.74"/><path d="M65,30L31,41L39,21Z" fill="rgb(239, 19, 12)" fill-opacity="0.94"/><path d="M156,117L134,125L119,224Z" fill="rgb(243, 243, 240)" fill-opacity="0.79"/><path d="M114,118L84,126L127,141Z" fill="rgb(236, 236, 239)" fill-opacity="1.00"/><path d="M209,35L239,20L213,54Z" fill="rgb(231, 21, 8)" fill-opacity="0.88"/><path d="M235,53L218,68L237,24Z" fill="rgb(186, 213, 233)" fill-opacity="0.59"/><path d="M190,49L228,22L148,-37Z" fill="rgb(245, 244, 244)" fill-opacity="1.00"/><path d="M219,40L233,41L231,48Z" fill="rgb(31, 8, 171)" fill-opacity="0.76"/><path d="M153,120L145,102L185,100Z" fill="rgb(189, 34, 68)" fill-opacity="0.99"/><path d="M107,61L111,17L138,43Z" fill="rgb(243, 14, 1)" fill-opacity="0.95"/><path d="M65,134L53,117L72,134Z" fill="rgb(112, 112, 112)" fill-opacity="1.00"/><path d="M244,218L182,113L167,116Z" fill="rgb(242, 242, 242)" fill-opacity="0.97"/><path d="M107,127L54,95L58,127Z" fill="rgb(241, 241, 241)" fill-opacity="0.99"/><path d="M211,134L196,93L184,105Z" fill="rgb(0, 2, 244)" fill-opacity="0.86"/><path d="M41,137L48,130L31,140Z" fill="rgb(36, 36, 36)" fill-opacity="0.69"/><path d="M234,46L339,132L205,117Z" fill="rgb(245, 245, 245)" fill-opacity="0.88"/><path d="M152,29L183,31L168,35Z" fill="rgb(196, 38, 30)" fill-opacity="0.91"/><path d="M32,44L-57,106L33,-27Z" fill="rgb(245, 246, 246)" fill-opacity="0.96"/><path d="M238,-20L259,54L233,11Z" fill="rgb(244, 244, 244)" fill-opacity="1.00"/><path d="M89,18L81,-7L113,-13Z" fill="rgb(241, 241, 245)" fill-opacity="0.81"/><path d="M147,82L43,92L83,106Z" fill="rgb(0, 0, 249)" fill-opacity="0.75"/><path d="M190,-8L204,26L153,30Z" fill="rgb(243, 244, 243)" fill-opacity="0.76"/><path d="M202,41L223,57L197,63Z" fill="rgb(236, 13, 0)" fill-opacity="0.85"/><path d="M213,93L196,55L178,54Z" fill="rgb(0, 0, 236)" fill-opacity="0.83"/><path d="M101,138L96,132L93,139Z" fill="rgb(7, 7, 3)" fill-opacity="0.60"/><path d="M203,106L197,94L180,115Z" fill="rgb(0, 2, 240)" fill-opacity="0.77"/><path d="M112,25L43,24L46,6Z" fill="rgb(3, 3, 238)" fill-opacity="0.89"/><path d="M83,92L103,120L152,100Z" fill="rgb(1, 1, 246)" fill-opacity="1.00"/><path d="M64,30L125,135L150,115Z" fill="rgb(0, 0, 244)" fill-opacity="0.79"/><path d="M330,-24L232,34L232,42Z" fill="rgb(244, 244, 245)" fill-opacity="1.00"/><path d="M39,108L45,87L53,110Z" fill="rgb(240, 240, 241)" fill-opacity="0.98"/><path d="M174,229L198,118L168,114Z" fill="rgb(246, 246, 244)" fill-opacity="0.70"/><path d="M173,39L177,77L184,34Z" fill="rgb(238, 14, 0)" fill-opacity="0.79"/><path d="M219,70L184,92L180,53Z" fill="rgb(0, 0, 228)" fill-opacity="0.80"/><path d="M225,29L229,19L172,35Z" fill="rgb(237, 238, 238)" fill-opacity="0.76"/><path d="M153,120L161,89L169,121Z" fill="rgb(172, 39, 65)" fill-opacity="0.87"/><path d="M70,135L48,121L71,132Z" fill="rgb(3, 3, 3)" fill-opacity="0.59"/><path d="M59,44L69,15L100,17Z" fill="rgb(3, 1, 241)" fill-opacity="1.00"/><path d="M207,134L116,159L147,117Z" fill="rgb(247, 248, 247)" fill-opacity="0.55"/><path d="M172,59L139,66L135,36Z" fill="rgb(2, 0, 232)" fill-opacity="0.88"/><path d="M144,82L138,18L154,25Z" fill="rgb(0, 1, 244)" fill-opacity="0.75"/><path d="M39,21L44,-37L-10,125Z" fill="rgb(244, 244, 244)" fill-opacity="1.00"/><path d="M50,217L60,126L34,143Z" fill="rgb(242, 242, 242)" fill-opacity="0.71"/><path d="M164,35L168,25L161,28Z" fill="rgb(174, 3, 6)" fill-opacity="0.48"/><path d="M176,88L184,93L172,117Z" fill="rgb(193, 35, 68)" fill-opacity="0.79"/><path d="M79,125L79,121L73,125Z" fill="rgb(108, 108, 108)" fill-opacity="0.53"/><path d="M144,80L129,82L109,54Z" fill="rgb(241, 13, 3)" fill-opacity="0.90"/><path d="M248,156L210,134L246,109Z" fill="rgb(245, 245, 245)" fill-opacity="0.93"/><path d="M116,19L133,1L143,19Z" fill="rgb(243, 243, 244)" fill-opacity="0.97"/><path d="M92,132L77,123L96,131Z" fill="rgb(47, 47, 45)" fill-opacity="0.41"/><path d="M141,24L162,23L142,32Z" fill="rgb(5, 8, 241)" fill-opacity="0.77"/><path d="M218,89L221,75L207,59Z" fill="rgb(2, 10, 144)" fill-opacity="0.50"/><path d="M33,129L58,119L53,110Z" fill="rgb(0, 0, 0)" fill-opacity="0.57"/><path d="M167,34L139,94L171,89Z" fill="rgb(0, 0, 236)" fill-opacity="0.94"/><path d="M72,108L121,157L94,106Z" fill="rgb(245, 246, 246)" fill-opacity="0.74"/><path d="M61,25L49,44L65,29Z" fill="rgb(238, 12, 0)" fill-opacity="0.88"/><path d="M29,46L73,46L34,75Z" fill="rgb(1, 2, 243)" fill-opacity="0.81"/><path d="M233,44L232,92L216,70Z" fill="rgb(250, 246, 234)" fill-opacity="0.47"/><path d="M225,41L242,25L230,13Z" fill="rgb(216, 0, 0)" fill-opacity="0.60"/><path d="M212,125L206,142L199,116Z" fill="rgb(0, 1, 242)" fill-opacity="0.48"/><path d="M198,63L227,37L196,51Z" fill="rgb(233, 11, 1)" fill-opacity="0.78"/><path d="M55,-21L46,11L34,5Z" fill="rgb(239, 239, 229)" fill-opacity="0.71"/><path d="M135,2L140,18L103,18Z" fill="rgb(245, 245, 245)" fill-opacity="0.97"/><path d="M42,121L-33,157L3,110Z" fill="rgb(243, 243, 243)" fill-opacity="0.94"/><path d="M207,60L209,90L220,84Z" fill="rgb(0, 2, 233)" fill-opacity="0.84"/><path d="M219,47L220,69L213,67Z" fill="rgb(154, 20, 10)" fill-opacity="0.78"/><path d="M127,82L113,66L137,36Z" fill="rgb(246, 13, 1)" fill-opacity="0.73"/><path d="M134,20L111,20L136,51Z" fill="rgb(249, 14, 0)" fill-opacity="0.83"/><path d="M9,90L60,96L-31,114Z" fill="rgb(243, 243, 243)" fill-opacity="0.89"/><path d="M143,82L143,71L115,22Z" fill="rgb(241, 13, 0)" fill-opacity="0.86"/><path d="M234,46L251,115L222,54Z" fill="rgb(245, 245, 245)" fill-opacity="0.83"/><path d="M58,123L38,140L55,115Z" fill="rgb(17, 17, 17)" fill-opacity="0.64"/></svg>