<svg xmlns="http://www.w3.org/2000/svg" viewBox="0 0 256 143.0214876033058" clip-path="url(#clip)"><defs><clipPath id="clip" clipPathUnits="objectBoundingBox"><rect x="0" y="0" width="256" height="143.0214876033058"/></clipPath></defs><rect x="0" y="0" width="256" height="143.0214876033058" fill="#f6f6f6"/><path d="M145,149L246,31L-81,-1Z" fill="rgb(212, 10, 23)" fill-opacity="0.79"/><path d="M63,123L42,103L35,140Z" fill="rgb(21, 21, 21)" fill-opacity="0.80"/><path d="M152,135L235,74L143,84Z" fill="rgb(48, 29, 209)" fill-opacity="0.92"/><path d="M-84,12L26,70L42,2Z" fill="rgb(244, 243, 243)" fill-opacity="0.99"/><path d="M128,258L132,126L236,97Z" fill="rgb(234, 209, 212)" fill-opacity="1.00"/><path d="M242,25L218,49L231,12Z" fill="rgb(216, 28, 18)" fill-opacity="0.96"/><path d="M268,-42L199,51L159,21Z" fill="rgb(243, 243, 242)" fill-opacity="0.87"/><path d="M48,-3L35,91L156,123Z" fill="rgb(250, 4, 0)" fill-opacity="0.74"/><path d="M-31,191L124,129L86,104Z" fill="rgb(227, 224, 223)" fill-opacity="0.79"/><path d="M215,140L200,101L179,112Z" fill="rgb(169, 5, 54)" fill-opacity="0.69"/><path d="M197,115L161,78L225,55Z" fill="rgb(61, 0, 153)" fill-opacity="0.78"/><path d="M-142,48L44,86L55,112Z" fill="rgb(241, 242, 242)" fill-opacity="0.96"/><path d="M176,91L220,69L156,87Z" fill="rgb(212, 12, 20)" fill-opacity="0.89"/><path d="M190,55L218,77L229,25Z" fill="rgb(215, 11, 0)" fill-opacity="0.78"/><path d="M236,30L229,42L349,33Z" fill="rgb(241, 240, 240)" fill-opacity="0.95"/><path d="M34,72L14,-6L42,181Z" fill="rgb(239, 238, 238)" fill-opacity="0.97"/><path d="M221,72L202,106L140,121Z" fill="rgb(0, 0, 248)" fill-opacity="0.71"/><path d="M39,7L104,123L182,31Z" fill="rgb(242, 15, 0)" fill-opacity="0.91"/><path d="M32,77L231,49L76,109Z" fill="rgb(243, 13, 0)" fill-opacity="0.86"/><path d="M177,25L150,18L173,58Z" fill="rgb(194, 255, 251)" fill-opacity="0.34"/><path d="M54,107L59,128L34,128Z" fill="rgb(0, 0, 0)" fill-opacity="0.77"/><path d="M93,106L53,106L82,206Z" fill="rgb(233, 234, 234)" fill-opacity="0.87"/><path d="M191,1L229,16L187,58Z" fill="rgb(244, 244, 244)" fill-opacity="0.91"/><path d="M257,77L222,71L208,154Z" fill="rgb(245, 245, 245)" fill-opacity="1.00"/><path d="M102,138L95,138L90,128Z" fill="rgb(20, 22, 22)" fill-opacity="0.59"/><path d="M164,80L212,59L187,81Z" fill="rgb(1, 0, 227)" fill-opacity="0.86"/><path d="M51,9L36,84L31,36Z" fill="rgb(247, 17, 0)" fill-opacity="0.85"/><path d="M124,135L148,117L81,60Z" fill="rgb(246, 16, 2)" fill-opacity="1.00"/><path d="M195,114L132,130L225,230Z" fill="rgb(247, 252, 251)" fill-opacity="0.83"/><path d="M69,135L72,133L39,114Z" fill="rgb(46, 46, 46)" fill-opacity="0.99"/><path d="M148,118L133,129L208,138Z" fill="rgb(243, 243, 244)" fill-opacity="0.98"/><path d="M141,17L171,87L25,48Z" fill="rgb(242, 12, 0)" fill-opacity="0.71"/><path d="M10,130L24,156L43,131Z" fill="rgb(232, 232, 232)" fill-opacity="1.00"/><path d="M111,115L81,176L122,132Z" fill="rgb(244, 243, 243)" fill-opacity="0.87"/><path d="M173,39L177,76L184,34Z" fill="rgb(234, 14, 3)" fill-opacity="0.92"/><path d="M143,89L161,124L190,91Z" fill="rgb(0, 1, 234)" fill-opacity="0.90"/><path d="M149,32L169,29L164,93Z" fill="rgb(232, 13, 2)" fill-opacity="0.91"/><path d="M202,67L201,79L221,74Z" fill="rgb(230, 18, 3)" fill-opacity="0.81"/><path d="M44,11L4,-26L67,3Z" fill="rgb(232, 242, 242)" fill-opacity="0.75"/><path d="M189,112L201,109L213,133Z" fill="rgb(239, 21, 4)" fill-opacity="0.87"/><path d="M187,116L171,110L196,110Z" fill="rgb(202, 18, 11)" fill-opacity="0.80"/><path d="M182,68L174,80L202,73Z" fill="rgb(0, 0, 241)" fill-opacity="0.74"/><path d="M163,86L149,121L143,85Z" fill="rgb(9, 3, 230)" fill-opacity="0.95"/><path d="M210,139L199,127L202,112Z" fill="rgb(237, 16, 0)" fill-opacity="0.81"/><path d="M210,66L232,39L200,42Z" fill="rgb(230, 14, 2)" fill-opacity="0.86"/><path d="M158,89L168,78L187,70Z" fill="rgb(0, 0, 211)" fill-opacity="0.51"/><path d="M211,41L198,43L162,-62Z" fill="rgb(244, 244, 244)" fill-opacity="0.75"/><path d="M182,4L150,32L202,12Z" fill="rgb(240, 239, 239)" fill-opacity="0.87"/><path d="M169,50L168,36L182,29Z" fill="rgb(159, 255, 255)" fill-opacity="0.40"/><path d="M44,137L29,140L53,130Z" fill="rgb(19, 21, 21)" fill-opacity="0.37"/><path d="M261,91L200,107L225,150Z" fill="rgb(245, 245, 246)" fill-opacity="0.84"/><path d="M57,114L33,122L46,108Z" fill="rgb(0, 0, 0)" fill-opacity="0.58"/><path d="M48,107L17,35L36,113Z" fill="rgb(243, 243, 243)" fill-opacity="0.88"/><path d="M181,90L160,91L215,68Z" fill="rgb(233, 12, 0)" fill-opacity="0.61"/><path d="M45,18L46,6L51,8Z" fill="rgb(120, 34, 32)" fill-opacity="0.74"/><path d="M222,81L217,87L214,57Z" fill="rgb(72, 84, 73)" fill-opacity="0.48"/><path d="M143,45L144,110L124,99Z" fill="rgb(240, 13, 0)" fill-opacity="1.00"/><path d="M253,39L219,66L226,48Z" fill="rgb(233, 236, 233)" fill-opacity="0.69"/><path d="M181,30L173,29L150,43Z" fill="rgb(219, 25, 15)" fill-opacity="0.90"/><path d="M179,35L220,30L229,23Z" fill="rgb(241, 239, 239)" fill-opacity="0.97"/><path d="M196,78L221,79L188,113Z" fill="rgb(0, 0, 242)" fill-opacity="0.80"/><path d="M38,200L96,128L87,162Z" fill="rgb(240, 240, 240)" fill-opacity="1.00"/><path d="M202,84L202,111L141,98Z" fill="rgb(0, 0, 244)" fill-opacity="0.51"/><path d="M200,74L193,65L202,61Z" fill="rgb(0, 0, 240)" fill-opacity="0.73"/><path d="M33,102L94,108L107,131Z" fill="rgb(246, 246, 246)" fill-opacity="0.83"/><path d="M172,33L168,51L174,55Z" fill="rgb(239, 254, 252)" fill-opacity="0.71"/><path d="M172,124L149,118L98,175Z" fill="rgb(243, 245, 244)" fill-opacity="0.73"/><path d="M110,119L134,106L110,84Z" fill="rgb(255, 15, 0)" fill-opacity="0.81"/><path d="M175,33L186,70L195,66Z" fill="rgb(241, 16, 2)" fill-opacity="0.75"/><path d="M90,131L83,126L95,130Z" fill="rgb(7, 8, 8)" fill-opacity="0.44"/><path d="M235,13L225,37L238,26Z" fill="rgb(243, 19, 6)" fill-opacity="1.00"/><path d="M131,128L135,125L130,136Z" fill="rgb(2, 23, 19)" fill-opacity="0.41"/><path d="M231,28L211,32L231,48Z" fill="rgb(210, 13, 2)" fill-opacity="0.83"/><path d="M108,19L143,19L126,21Z" fill="rgb(194, 16, 4)" fill-opacity="0.77"/><path d="M42,0L-69,-39L20,82Z" fill="rgb(245, 245, 245)" fill-opacity="1.00"/><path d="M83,108L56,97L107,81Z" fill="rgb(248, 18, 3)" fill-opacity="0.78"/><path d="M213,31L207,46L228,48Z" fill="rgb(242, 16, 3)" fill-opacity="0.84"/><path d="M131,20L61,17L27,48Z" fill="rgb(247, 13, 0)" fill-opacity="0.74"/><path d="M234,31L231,37L244,68Z" fill="rgb(228, 236, 236)" fill-opacity="0.67"/><path d="M47,136L36,124L57,118Z" fill="rgb(0, 0, 0)" fill-opacity="0.54"/><path d="M167,31L257,8L196,-111Z" fill="rgb(245, 245, 245)" fill-opacity="0.84"/><path d="M40,42L40,8L61,41Z" fill="rgb(246, 13, 0)" fill-opacity="0.92"/><path d="M103,139L72,107L118,127Z" fill="rgb(246, 248, 248)" fill-opacity="0.69"/><path d="M30,145L55,130L98,146Z" fill="rgb(254, 255, 255)" fill-opacity="0.58"/><path d="M217,38L139,86L173,75Z" fill="rgb(237, 13, 0)" fill-opacity="0.81"/><path d="M161,117L145,118L175,122Z" fill="rgb(15, 31, 156)" fill-opacity="0.48"/><path d="M220,50L222,55L237,42Z" fill="rgb(54, 66, 61)" fill-opacity="0.35"/><path d="M194,81L209,96L158,118Z" fill="rgb(0, 0, 238)" fill-opacity="0.93"/><path d="M121,32L123,137L148,111Z" fill="rgb(248, 14, 0)" fill-opacity="0.86"/><path d="M46,6L44,-49L79,14Z" fill="rgb(242, 242, 242)" fill-opacity="1.00"/><path d="M104,0L165,7L137,20Z" fill="rgb(244, 245, 245)" fill-opacity="0.74"/><path d="M62,125L71,133L65,133Z" fill="rgb(3, 3, 3)" fill-opacity="0.43"/><path d="M58,129L55,110L37,112Z" fill="rgb(0, 0, 0)" fill-opacity="0.65"/><path d="M189,88L159,81L168,90Z" fill="rgb(236, 13, 0)" fill-opacity="0.79"/><path d="M25,139L8,119L41,120Z" fill="rgb(243, 243, 243)" fill-opacity="0.71"/><path d="M152,85L134,19L152,23Z" fill="rgb(243, 15, 1)" fill-opacity="0.93"/><path d="M250,66L231,98L213,88Z" fill="rgb(244, 244, 244)" fill-opacity="0.85"/><path d="M-16,118L41,11L37,26Z" fill="rgb(242, 239, 239)" fill-opacity="1.00"/><path d="M248,103L215,70L269,103Z" fill="rgb(244, 243, 243)" fill-opacity="0.93"/><path d="M58,127L78,128L56,95Z" fill="rgb(244, 244, 244)" fill-opacity="0.77"/></svg>