<svg xmlns="http://www.w3.org/2000/svg" viewBox="0 0 256 143.0214876033058" clip-path="url(#clip)"><defs><clipPath id="clip" clipPathUnits="objectBoundingBox"><rect x="0" y="0" width="256" height="143.0214876033058"/></clipPath></defs><rect x="0" y="0" width="256" height="143.0214876033058" fill="#f6f6f6"/><path d="M39,137L28,0L298,94Z" fill="rgb(209, 50, 65)" fill-opacity="0.91"/><path d="M237,8L79,174L236,44Z" fill="rgb(198, 6, 22)" fill-opacity="0.77"/><path d="M223,74L195,116L139,98Z" fill="rgb(4, 0, 227)" fill-opacity="0.87"/><path d="M240,21L185,152L266,98Z" fill="rgb(237, 225, 227)" fill-opacity="1.00"/><path d="M119,192L123,126L27,84Z" fill="rgb(233, 226, 226)" fill-opacity="1.00"/><path d="M382,-40L124,20L8,3Z" fill="rgb(244, 243, 242)" fill-opacity="0.98"/><path d="M143,99L186,106L144,55Z" fill="rgb(2, 0, 229)" fill-opacity="0.84"/><path d="M155,19L22,47L130,136Z" fill="rgb(246, 10, 0)" fill-opacity="0.89"/><path d="M52,-31L29,52L-29,77Z" fill="rgb(244, 243, 243)" fill-opacity="0.97"/><path d="M50,106L62,128L34,130Z" fill="rgb(2, 27, 24)" fill-opacity="0.84"/><path d="M182,30L35,8L192,84Z" fill="rgb(243, 14, 0)" fill-opacity="0.74"/><path d="M48,90L-24,36L39,117Z" fill="rgb(242, 243, 242)" fill-opacity="0.91"/><path d="M187,89L162,91L180,31Z" fill="rgb(227, 14, 6)" fill-opacity="1.00"/><path d="M204,110L186,111L215,145Z" fill="rgb(230, 46, 32)" fill-opacity="0.85"/><path d="M178,111L157,103L159,123Z" fill="rgb(97, 23, 134)" fill-opacity="0.99"/><path d="M169,38L45,6L29,68Z" fill="rgb(244, 13, 0)" fill-opacity="0.87"/><path d="M41,142L67,113L61,136Z" fill="rgb(227, 254, 251)" fill-opacity="0.66"/><path d="M58,126L101,118L90,102Z" fill="rgb(246, 244, 242)" fill-opacity="0.74"/><path d="M167,49L174,60L173,29Z" fill="rgb(214, 251, 251)" fill-opacity="0.65"/><path d="M168,119L156,62L139,63Z" fill="rgb(1, 0, 233)" fill-opacity="0.89"/><path d="M134,88L99,110L170,122Z" fill="rgb(243, 15, 1)" fill-opacity="0.89"/><path d="M222,82L185,112L219,73Z" fill="rgb(10, 10, 218)" fill-opacity="0.85"/><path d="M187,57L211,38L189,37Z" fill="rgb(238, 225, 224)" fill-opacity="0.95"/><path d="M42,109L59,112L36,121Z" fill="rgb(1, 19, 18)" fill-opacity="0.76"/><path d="M-4,54L32,107L72,113Z" fill="rgb(244, 244, 244)" fill-opacity="1.00"/><path d="M237,-5L195,37L225,28Z" fill="rgb(242, 242, 242)" fill-opacity="0.99"/><path d="M159,31L142,14L168,24Z" fill="rgb(224, 202, 201)" fill-opacity="1.00"/><path d="M47,135L37,127L57,112Z" fill="rgb(0, 6, 5)" fill-opacity="0.82"/><path d="M30,70L74,108L161,21Z" fill="rgb(246, 14, 0)" fill-opacity="0.89"/><path d="M109,116L118,122L72,220Z" fill="rgb(243, 243, 243)" fill-opacity="0.84"/><path d="M201,110L175,110L213,130Z" fill="rgb(234, 41, 26)" fill-opacity="0.70"/><path d="M142,114L145,83L62,101Z" fill="rgb(245, 14, 0)" fill-opacity="0.85"/><path d="M242,26L236,17L160,92Z" fill="rgb(231, 15, 1)" fill-opacity="0.90"/><path d="M95,131L100,138L94,140Z" fill="rgb(1, 5, 5)" fill-opacity="0.63"/><path d="M232,-3L205,9L246,16Z" fill="rgb(245, 245, 245)" fill-opacity="1.00"/><path d="M218,74L228,35L162,89Z" fill="rgb(220, 13, 0)" fill-opacity="0.85"/><path d="M41,114L76,136L42,122Z" fill="rgb(9, 16, 15)" fill-opacity="0.67"/><path d="M110,21L107,122L99,118Z" fill="rgb(235, 15, 2)" fill-opacity="0.95"/><path d="M202,60L221,51L200,40Z" fill="rgb(246, 15, 0)" fill-opacity="0.68"/><path d="M154,112L202,76L201,108Z" fill="rgb(0, 0, 240)" fill-opacity="0.82"/><path d="M-46,152L45,134L22,117Z" fill="rgb(239, 241, 241)" fill-opacity="0.78"/><path d="M210,139L201,108L198,127Z" fill="rgb(226, 10, 0)" fill-opacity="0.69"/><path d="M201,114L527,46L204,99Z" fill="rgb(246, 248, 248)" fill-opacity="0.81"/><path d="M31,32L67,103L37,81Z" fill="rgb(247, 17, 2)" fill-opacity="0.87"/><path d="M122,135L126,15L132,139Z" fill="rgb(245, 17, 3)" fill-opacity="0.95"/><path d="M235,45L158,75L224,34Z" fill="rgb(231, 14, 2)" fill-opacity="0.89"/><path d="M189,32L172,33L166,40Z" fill="rgb(142, 218, 222)" fill-opacity="0.49"/><path d="M195,113L207,163L177,119Z" fill="rgb(242, 242, 242)" fill-opacity="0.75"/><path d="M56,115L69,177L58,99Z" fill="rgb(244, 248, 248)" fill-opacity="0.58"/><path d="M-56,16L28,43L36,85Z" fill="rgb(244, 243, 243)" fill-opacity="1.00"/><path d="M252,169L266,37L218,61Z" fill="rgb(249, 254, 253)" fill-opacity="0.59"/><path d="M184,37L169,72L178,33Z" fill="rgb(233, 19, 7)" fill-opacity="0.99"/><path d="M219,87L213,59L218,58Z" fill="rgb(85, 40, 53)" fill-opacity="0.63"/><path d="M63,127L72,133L67,135Z" fill="rgb(3, 17, 15)" fill-opacity="0.65"/><path d="M214,89L208,175L302,-29Z" fill="rgb(245, 246, 246)" fill-opacity="0.82"/><path d="M158,27L172,30L156,-40Z" fill="rgb(240, 240, 240)" fill-opacity="0.83"/><path d="M42,13L37,76L28,51Z" fill="rgb(234, 15, 0)" fill-opacity="0.64"/><path d="M92,127L88,129L94,133Z" fill="rgb(37, 44, 44)" fill-opacity="0.50"/><path d="M54,-2L22,-29L44,12Z" fill="rgb(232, 240, 240)" fill-opacity="0.68"/><path d="M212,65L210,32L222,30Z" fill="rgb(242, 12, 0)" fill-opacity="0.66"/><path d="M89,112L76,142L50,96Z" fill="rgb(244, 245, 245)" fill-opacity="0.83"/><path d="M101,158L46,130L58,128Z" fill="rgb(238, 243, 242)" fill-opacity="0.75"/><path d="M185,88L173,44L211,70Z" fill="rgb(230, 13, 3)" fill-opacity="0.92"/><path d="M279,9L231,34L241,68Z" fill="rgb(244, 245, 245)" fill-opacity="0.80"/><path d="M29,140L47,132L35,140Z" fill="rgb(12, 47, 44)" fill-opacity="0.48"/><path d="M98,19L142,19L135,127Z" fill="rgb(243, 14, 0)" fill-opacity="0.90"/><path d="M168,53L171,32L172,57Z" fill="rgb(228, 253, 254)" fill-opacity="0.59"/><path d="M167,24L142,46L157,68Z" fill="rgb(231, 11, 0)" fill-opacity="0.64"/><path d="M166,28L155,64L172,90Z" fill="rgb(234, 11, 0)" fill-opacity="0.84"/><path d="M129,20L178,16L178,-48Z" fill="rgb(244, 245, 245)" fill-opacity="0.72"/><path d="M196,79L218,76L164,118Z" fill="rgb(2, 0, 233)" fill-opacity="0.90"/><path d="M202,111L214,135L188,111Z" fill="rgb(243, 15, 2)" fill-opacity="0.64"/><path d="M54,109L39,141L56,117Z" fill="rgb(11, 13, 13)" fill-opacity="0.71"/><path d="M142,64L161,71L146,104Z" fill="rgb(0, 0, 241)" fill-opacity="0.85"/><path d="M31,51L15,34L26,62Z" fill="rgb(243, 249, 250)" fill-opacity="0.54"/><path d="M105,46L77,107L109,99Z" fill="rgb(250, 14, 0)" fill-opacity="0.69"/><path d="M169,118L163,111L127,119Z" fill="rgb(231, 17, 0)" fill-opacity="0.75"/><path d="M171,35L142,29L176,31Z" fill="rgb(204, 29, 20)" fill-opacity="0.95"/><path d="M38,24L4,89L47,-38Z" fill="rgb(244, 243, 243)" fill-opacity="1.00"/><path d="M147,103L166,80L149,63Z" fill="rgb(0, 0, 246)" fill-opacity="0.79"/><path d="M-2,-4L203,22L96,17Z" fill="rgb(244, 245, 245)" fill-opacity="0.76"/><path d="M211,122L201,112L254,130Z" fill="rgb(244, 244, 244)" fill-opacity="0.73"/><path d="M182,43L183,44L205,14Z" fill="rgb(236, 236, 235)" fill-opacity="0.91"/><path d="M215,126L240,148L207,142Z" fill="rgb(243, 245, 245)" fill-opacity="0.71"/><path d="M270,33L222,53L256,153Z" fill="rgb(245, 245, 245)" fill-opacity="0.92"/><path d="M225,42L203,62L201,42Z" fill="rgb(242, 14, 1)" fill-opacity="0.97"/><path d="M65,131L6,170L44,135Z" fill="rgb(242, 243, 243)" fill-opacity="0.79"/><path d="M226,29L183,30L234,-3Z" fill="rgb(244, 245, 245)" fill-opacity="0.62"/><path d="M61,129L38,113L46,108Z" fill="rgb(1, 3, 2)" fill-opacity="0.68"/><path d="M49,10L47,6L44,20Z" fill="rgb(1, 18, 20)" fill-opacity="0.45"/><path d="M218,143L140,159L170,113Z" fill="rgb(241, 245, 245)" fill-opacity="0.50"/><path d="M229,14L236,16L229,46Z" fill="rgb(237, 14, 1)" fill-opacity="0.83"/><path d="M168,9L217,28L192,51Z" fill="rgb(244, 245, 245)" fill-opacity="0.84"/><path d="M93,157L106,121L158,164Z" fill="rgb(245, 246, 246)" fill-opacity="0.91"/><path d="M168,119L141,118L169,121Z" fill="rgb(123, 50, 45)" fill-opacity="0.58"/><path d="M73,95L47,95L44,55Z" fill="rgb(239, 13, 0)" fill-opacity="0.76"/><path d="M224,52L220,28L222,59Z" fill="rgb(22, 1, 4)" fill-opacity="0.21"/><path d="M191,114L183,109L181,115Z" fill="rgb(222, 0, 0)" fill-opacity="0.57"/><path d="M51,46L80,51L33,40Z" fill="rgb(161, 7, 1)" fill-opacity="0.72"/><path d="M212,137L201,107L197,125Z" fill="rgb(233, 11, 2)" fill-opacity="0.53"/></svg>