<svg xmlns="http://www.w3.org/2000/svg" viewBox="0 0 256 143.0214876033058" clip-path="url(#clip)"><defs><clipPath id="clip" clipPathUnits="objectBoundingBox"><rect x="0" y="0" width="256" height="143.0214876033058"/></clipPath></defs><rect x="0" y="0" width="256" height="143.0214876033058" fill="#f6f6f6"/><path d="M258,100L38,138L28,-37Z" fill="rgb(144, 2, 76)" fill-opacity="0.74"/><path d="M310,185L200,107L234,63Z" fill="rgb(244, 245, 245)" fill-opacity="0.99"/><path d="M76,75L125,137L162,105Z" fill="rgb(7, 4, 238)" fill-opacity="0.93"/><path d="M192,52L244,11L195,125Z" fill="rgb(67, 7, 160)" fill-opacity="0.88"/><path d="M-145,-105L187,26L33,8Z" fill="rgb(243, 242, 241)" fill-opacity="0.96"/><path d="M25,84L175,247L117,122Z" fill="rgb(235, 232, 236)" fill-opacity="0.96"/><path d="M216,142L203,110L180,111Z" fill="rgb(229, 56, 46)" fill-opacity="0.87"/><path d="M60,86L71,48L42,47Z" fill="rgb(13, 0, 228)" fill-opacity="0.96"/><path d="M142,74L150,122L186,29Z" fill="rgb(9, 8, 233)" fill-opacity="0.87"/><path d="M105,124L80,89L123,82Z" fill="rgb(4, 3, 243)" fill-opacity="0.90"/><path d="M45,7L144,28L26,56Z" fill="rgb(241, 10, 0)" fill-opacity="0.89"/><path d="M145,98L63,60L132,17Z" fill="rgb(244, 11, 0)" fill-opacity="0.94"/><path d="M159,124L153,93L221,83Z" fill="rgb(0, 44, 110)" fill-opacity="0.75"/><path d="M127,17L191,51L180,29Z" fill="rgb(36, 34, 202)" fill-opacity="0.66"/><path d="M180,91L197,79L158,29Z" fill="rgb(245, 21, 0)" fill-opacity="0.73"/><path d="M139,13L154,47L135,48Z" fill="rgb(0, 2, 244)" fill-opacity="0.87"/><path d="M114,16L140,99L122,95Z" fill="rgb(241, 14, 2)" fill-opacity="0.96"/><path d="M231,12L222,43L242,25Z" fill="rgb(213, 31, 24)" fill-opacity="1.00"/><path d="M58,106L39,82L-8,122Z" fill="rgb(244, 244, 243)" fill-opacity="0.95"/><path d="M28,43L86,113L35,80Z" fill="rgb(250, 20, 1)" fill-opacity="0.86"/><path d="M220,74L194,80L209,62Z" fill="rgb(213, 18, 16)" fill-opacity="1.00"/><path d="M174,31L167,47L172,58Z" fill="rgb(233, 244, 234)" fill-opacity="0.77"/><path d="M54,107L34,129L58,127Z" fill="rgb(239, 22, 3)" fill-opacity="0.89"/><path d="M94,15L80,109L54,95Z" fill="rgb(240, 16, 4)" fill-opacity="0.99"/><path d="M49,-17L-16,-57L26,61Z" fill="rgb(244, 242, 242)" fill-opacity="0.96"/><path d="M181,89L190,116L225,74Z" fill="rgb(0, 0, 254)" fill-opacity="0.78"/><path d="M38,139L90,103L114,134Z" fill="rgb(230, 239, 238)" fill-opacity="0.68"/><path d="M193,114L221,176L146,125Z" fill="rgb(243, 242, 242)" fill-opacity="0.97"/><path d="M145,89L169,121L141,118Z" fill="rgb(2, 5, 225)" fill-opacity="0.87"/><path d="M202,42L236,43L193,75Z" fill="rgb(2, 3, 224)" fill-opacity="0.93"/><path d="M187,115L172,67L156,112Z" fill="rgb(107, 67, 0)" fill-opacity="0.71"/><path d="M187,53L178,30L173,55Z" fill="rgb(10, 11, 235)" fill-opacity="0.94"/><path d="M61,84L43,58L51,40Z" fill="rgb(4, 0, 230)" fill-opacity="0.82"/><path d="M133,142L85,77L120,84Z" fill="rgb(2, 0, 245)" fill-opacity="0.90"/><path d="M112,47L115,77L171,48Z" fill="rgb(237, 13, 1)" fill-opacity="0.93"/><path d="M157,24L133,19L139,48Z" fill="rgb(7, 5, 237)" fill-opacity="1.00"/><path d="M227,45L213,29L199,68Z" fill="rgb(4, 4, 235)" fill-opacity="0.89"/><path d="M71,131L57,126L71,137Z" fill="rgb(31, 6, 0)" fill-opacity="0.59"/><path d="M139,62L171,65L156,102Z" fill="rgb(0, 0, 238)" fill-opacity="0.95"/><path d="M169,57L198,54L184,90Z" fill="rgb(235, 13, 5)" fill-opacity="1.00"/><path d="M78,77L53,7L139,83Z" fill="rgb(242, 13, 0)" fill-opacity="0.92"/><path d="M187,88L183,54L161,90Z" fill="rgb(235, 10, 0)" fill-opacity="0.91"/><path d="M64,79L46,44L69,49Z" fill="rgb(2, 0, 239)" fill-opacity="0.94"/><path d="M214,106L210,148L335,14Z" fill="rgb(245, 245, 245)" fill-opacity="1.00"/><path d="M217,-15L240,24L250,-7Z" fill="rgb(241, 239, 239)" fill-opacity="1.00"/><path d="M88,79L79,108L114,97Z" fill="rgb(0, 1, 249)" fill-opacity="0.83"/><path d="M102,139L93,138L96,132Z" fill="rgb(0, 0, 198)" fill-opacity="0.54"/><path d="M149,41L155,26L168,52Z" fill="rgb(244, 18, 0)" fill-opacity="0.88"/><path d="M61,103L57,124L97,110Z" fill="rgb(242, 242, 242)" fill-opacity="0.93"/><path d="M198,78L182,91L215,78Z" fill="rgb(0, 0, 255)" fill-opacity="0.47"/><path d="M30,54L0,105L30,48Z" fill="rgb(243, 243, 243)" fill-opacity="0.97"/><path d="M179,33L228,13L192,41Z" fill="rgb(243, 243, 243)" fill-opacity="1.00"/><path d="M161,88L189,109L157,112Z" fill="rgb(26, 90, 0)" fill-opacity="0.71"/><path d="M208,140L212,125L188,107Z" fill="rgb(226, 0, 0)" fill-opacity="0.54"/><path d="M140,123L236,143L131,130Z" fill="rgb(242, 242, 242)" fill-opacity="0.92"/><path d="M287,168L224,50L219,75Z" fill="rgb(243, 243, 243)" fill-opacity="0.97"/><path d="M221,26L233,40L220,39Z" fill="rgb(229, 33, 0)" fill-opacity="0.72"/><path d="M201,48L188,55L188,-12Z" fill="rgb(243, 243, 243)" fill-opacity="0.83"/><path d="M214,23L97,17L-24,-8Z" fill="rgb(243, 242, 243)" fill-opacity="1.00"/><path d="M175,29L182,6L152,30Z" fill="rgb(233, 235, 234)" fill-opacity="0.75"/><path d="M54,110L40,111L44,136Z" fill="rgb(241, 16, 0)" fill-opacity="0.89"/><path d="M138,63L168,33L156,63Z" fill="rgb(230, 7, 0)" fill-opacity="0.77"/><path d="M223,60L197,57L201,41Z" fill="rgb(0, 4, 247)" fill-opacity="0.64"/><path d="M160,51L136,127L172,54Z" fill="rgb(0, 1, 246)" fill-opacity="0.70"/><path d="M171,35L165,26L158,32Z" fill="rgb(0, 1, 200)" fill-opacity="0.74"/><path d="M42,109L33,67L32,127Z" fill="rgb(238, 237, 236)" fill-opacity="0.81"/><path d="M183,89L186,111L202,108Z" fill="rgb(0, 0, 243)" fill-opacity="0.93"/><path d="M158,32L152,63L169,36Z" fill="rgb(239, 13, 1)" fill-opacity="0.83"/><path d="M203,112L176,110L184,115Z" fill="rgb(234, 14, 3)" fill-opacity="0.90"/><path d="M218,29L209,38L224,48Z" fill="rgb(5, 5, 235)" fill-opacity="0.86"/><path d="M261,78L202,111L203,100Z" fill="rgb(243, 244, 244)" fill-opacity="0.90"/><path d="M51,24L32,35L39,83Z" fill="rgb(247, 15, 1)" fill-opacity="1.00"/><path d="M39,7L104,46L49,45Z" fill="rgb(241, 15, 0)" fill-opacity="0.83"/><path d="M45,134L-1,144L12,112Z" fill="rgb(241, 241, 241)" fill-opacity="0.85"/><path d="M64,212L117,121L110,117Z" fill="rgb(243, 243, 243)" fill-opacity="0.91"/><path d="M61,112L43,86L48,109Z" fill="rgb(239, 237, 236)" fill-opacity="0.84"/><path d="M228,15L230,39L237,14Z" fill="rgb(242, 13, 0)" fill-opacity="0.62"/><path d="M218,30L226,41L241,26Z" fill="rgb(202, 19, 5)" fill-opacity="0.70"/><path d="M66,66L144,90L142,66Z" fill="rgb(247, 14, 0)" fill-opacity="0.83"/><path d="M51,129L63,130L12,219Z" fill="rgb(245, 246, 245)" fill-opacity="0.96"/><path d="M169,148L199,120L190,114Z" fill="rgb(243, 243, 243)" fill-opacity="0.78"/><path d="M186,110L181,89L161,92Z" fill="rgb(43, 86, 2)" fill-opacity="0.94"/><path d="M215,86L220,84L218,40Z" fill="rgb(0, 27, 118)" fill-opacity="0.39"/><path d="M183,39L233,0L226,28Z" fill="rgb(243, 244, 243)" fill-opacity="0.79"/><path d="M47,94L69,98L41,55Z" fill="rgb(241, 16, 3)" fill-opacity="0.89"/><path d="M238,31L230,34L244,74Z" fill="rgb(234, 234, 229)" fill-opacity="0.56"/><path d="M65,66L141,55L120,18Z" fill="rgb(244, 14, 0)" fill-opacity="0.77"/><path d="M143,83L170,78L169,50Z" fill="rgb(0, 0, 248)" fill-opacity="0.69"/><path d="M30,141L56,130L35,137Z" fill="rgb(88, 91, 78)" fill-opacity="0.54"/><path d="M150,117L99,118L105,79Z" fill="rgb(0, 0, 248)" fill-opacity="0.84"/><path d="M12,137L22,140L34,140Z" fill="rgb(141, 141, 142)" fill-opacity="0.62"/><path d="M186,31L183,30L163,39Z" fill="rgb(188, 169, 140)" fill-opacity="0.55"/><path d="M187,50L174,53L187,41Z" fill="rgb(0, 1, 248)" fill-opacity="0.92"/><path d="M133,102L126,140L132,134Z" fill="rgb(0, 2, 227)" fill-opacity="0.66"/><path d="M175,51L169,58L170,37Z" fill="rgb(232, 255, 252)" fill-opacity="0.59"/><path d="M197,52L197,65L170,56Z" fill="rgb(245, 23, 0)" fill-opacity="0.54"/><path d="M133,21L68,14L141,98Z" fill="rgb(245, 14, 0)" fill-opacity="1.00"/><path d="M215,76L189,79L216,67Z" fill="rgb(240, 10, 0)" fill-opacity="0.71"/><path d="M195,154L166,114L172,114Z" fill="rgb(244, 244, 239)" fill-opacity="0.65"/><path d="M55,-13L12,-44L45,12Z" fill="rgb(233, 236, 235)" fill-opacity="0.75"/></svg>