<svg xmlns="http://www.w3.org/2000/svg" viewBox="0 0 256 143.0214876033058" clip-path="url(#clip)"><defs><clipPath id="clip" clipPathUnits="objectBoundingBox"><rect x="0" y="0" width="256" height="143.0214876033058"/></clipPath></defs><rect x="0" y="0" width="256" height="143.0214876033058" fill="#f6f6f6"/><path d="M18,92L86,-148L234,137Z" fill="rgb(59, 34, 212)" fill-opacity="0.90"/><path d="M154,87L240,10L214,90Z" fill="rgb(7, 2, 220)" fill-opacity="0.91"/><path d="M144,94L153,126L228,84Z" fill="rgb(246, 20, 0)" fill-opacity="0.75"/><path d="M263,38L238,178L199,105Z" fill="rgb(245, 244, 243)" fill-opacity="0.96"/><path d="M29,123L55,139L57,103Z" fill="rgb(13, 13, 214)" fill-opacity="0.69"/><path d="M207,30L41,8L-121,-208Z" fill="rgb(244, 244, 244)" fill-opacity="0.96"/><path d="M35,4L128,141L191,42Z" fill="rgb(0, 0, 243)" fill-opacity="0.90"/><path d="M54,98L77,69L84,109Z" fill="rgb(228, 26, 29)" fill-opacity="0.96"/><path d="M51,99L9,35L23,140Z" fill="rgb(241, 241, 243)" fill-opacity="0.95"/><path d="M176,58L171,34L167,52Z" fill="rgb(248, 250, 213)" fill-opacity="0.67"/><path d="M110,122L96,116L101,22Z" fill="rgb(0, 1, 246)" fill-opacity="0.85"/><path d="M133,129L182,113L216,141Z" fill="rgb(237, 236, 238)" fill-opacity="0.95"/><path d="M140,106L202,111L202,84Z" fill="rgb(233, 10, 0)" fill-opacity="0.87"/><path d="M88,79L59,100L63,74Z" fill="rgb(238, 11, 3)" fill-opacity="0.86"/><path d="M81,166L46,94L60,97Z" fill="rgb(223, 221, 225)" fill-opacity="1.00"/><path d="M227,54L229,12L241,24Z" fill="rgb(2, 3, 207)" fill-opacity="0.61"/><path d="M36,118L44,107L73,136Z" fill="rgb(0, 0, 203)" fill-opacity="0.69"/><path d="M40,-7L6,14L47,9Z" fill="rgb(244, 244, 243)" fill-opacity="0.90"/><path d="M33,68L5,259L25,35Z" fill="rgb(243, 243, 243)" fill-opacity="0.99"/><path d="M32,31L36,84L170,54Z" fill="rgb(0, 0, 244)" fill-opacity="0.91"/><path d="M204,-23L230,28L153,30Z" fill="rgb(244, 244, 243)" fill-opacity="0.76"/><path d="M51,127L108,154L43,152Z" fill="rgb(243, 243, 241)" fill-opacity="0.89"/><path d="M58,98L85,77L82,98Z" fill="rgb(243, 13, 1)" fill-opacity="0.95"/><path d="M306,133L225,50L218,73Z" fill="rgb(243, 243, 244)" fill-opacity="0.95"/><path d="M252,-7L191,52L172,9Z" fill="rgb(245, 245, 245)" fill-opacity="1.00"/><path d="M199,129L213,139L200,106Z" fill="rgb(1, 3, 234)" fill-opacity="0.80"/><path d="M163,123L188,88L145,107Z" fill="rgb(233, 15, 0)" fill-opacity="0.82"/><path d="M101,137L96,140L89,127Z" fill="rgb(21, 20, 165)" fill-opacity="0.58"/><path d="M236,18L233,-36L292,4Z" fill="rgb(245, 245, 245)" fill-opacity="0.98"/><path d="M157,101L133,103L181,44Z" fill="rgb(1, 1, 233)" fill-opacity="1.00"/><path d="M223,82L208,92L200,39Z" fill="rgb(3, 4, 215)" fill-opacity="0.72"/><path d="M150,141L167,233L124,137Z" fill="rgb(240, 240, 241)" fill-opacity="1.00"/><path d="M197,111L160,91L212,90Z" fill="rgb(243, 16, 0)" fill-opacity="0.78"/><path d="M57,122L31,140L47,136Z" fill="rgb(24, 23, 84)" fill-opacity="0.47"/><path d="M79,100L150,115L133,130Z" fill="rgb(2, 1, 238)" fill-opacity="0.68"/><path d="M77,77L81,104L62,73Z" fill="rgb(247, 14, 0)" fill-opacity="0.67"/><path d="M140,175L190,113L199,121Z" fill="rgb(241, 241, 242)" fill-opacity="0.93"/><path d="M185,40L181,29L135,29Z" fill="rgb(10, 28, 201)" fill-opacity="0.48"/><path d="M197,56L214,30L237,45Z" fill="rgb(4, 6, 227)" fill-opacity="0.73"/><path d="M92,18L171,92L150,20Z" fill="rgb(0, 0, 240)" fill-opacity="0.82"/><path d="M98,17L64,11L131,19Z" fill="rgb(225, 226, 225)" fill-opacity="0.93"/><path d="M82,105L148,107L86,63Z" fill="rgb(0, 0, 242)" fill-opacity="0.97"/><path d="M190,34L242,-42L226,29Z" fill="rgb(244, 244, 244)" fill-opacity="0.76"/><path d="M210,25L143,21L76,-92Z" fill="rgb(245, 245, 245)" fill-opacity="1.00"/><path d="M59,127L105,128L53,94Z" fill="rgb(241, 241, 242)" fill-opacity="1.00"/><path d="M232,35L232,42L249,20Z" fill="rgb(255, 255, 240)" fill-opacity="0.64"/><path d="M102,17L40,16L28,53Z" fill="rgb(1, 2, 242)" fill-opacity="0.87"/><path d="M40,6L47,94L59,95Z" fill="rgb(2, 2, 240)" fill-opacity="0.99"/><path d="M132,129L139,124L127,171Z" fill="rgb(220, 220, 224)" fill-opacity="1.00"/><path d="M38,131L46,107L59,127Z" fill="rgb(0, 0, 233)" fill-opacity="0.81"/><path d="M191,126L150,119L171,362Z" fill="rgb(245, 245, 245)" fill-opacity="0.95"/><path d="M170,34L179,32L168,48Z" fill="rgb(251, 252, 172)" fill-opacity="0.56"/><path d="M187,106L151,104L146,120Z" fill="rgb(235, 15, 1)" fill-opacity="0.83"/><path d="M147,110L170,122L146,100Z" fill="rgb(227, 16, 6)" fill-opacity="0.78"/><path d="M219,43L232,13L242,26Z" fill="rgb(6, 6, 216)" fill-opacity="0.77"/><path d="M210,40L207,12L185,54Z" fill="rgb(241, 241, 240)" fill-opacity="0.62"/><path d="M84,77L54,73L46,7Z" fill="rgb(0, 0, 242)" fill-opacity="1.00"/><path d="M214,88L157,81L215,36Z" fill="rgb(1, 1, 231)" fill-opacity="0.99"/><path d="M195,70L143,104L182,46Z" fill="rgb(0, 0, 233)" fill-opacity="0.74"/><path d="M-118,33L38,82L37,137Z" fill="rgb(244, 244, 244)" fill-opacity="0.83"/><path d="M90,104L63,113L114,135Z" fill="rgb(240, 240, 243)" fill-opacity="0.82"/><path d="M33,35L50,-29L1,13Z" fill="rgb(245, 245, 245)" fill-opacity="1.00"/><path d="M58,97L70,27L36,80Z" fill="rgb(0, 0, 247)" fill-opacity="0.74"/><path d="M168,113L199,125L171,145Z" fill="rgb(245, 244, 243)" fill-opacity="0.83"/><path d="M45,87L27,111L53,108Z" fill="rgb(246, 246, 243)" fill-opacity="0.73"/><path d="M121,19L232,-102L77,14Z" fill="rgb(246, 246, 245)" fill-opacity="0.80"/><path d="M189,55L201,47L182,-11Z" fill="rgb(241, 241, 243)" fill-opacity="1.00"/><path d="M76,125L76,122L100,133Z" fill="rgb(54, 54, 109)" fill-opacity="0.31"/><path d="M203,103L265,23L255,267Z" fill="rgb(246, 247, 246)" fill-opacity="0.66"/><path d="M113,115L92,132L130,148Z" fill="rgb(237, 237, 236)" fill-opacity="0.56"/><path d="M120,56L109,23L143,18Z" fill="rgb(0, 0, 247)" fill-opacity="0.68"/><path d="M172,111L203,110L186,115Z" fill="rgb(8, 0, 205)" fill-opacity="0.86"/><path d="M167,32L196,18L185,-21Z" fill="rgb(246, 246, 245)" fill-opacity="0.68"/><path d="M189,112L209,88L160,91Z" fill="rgb(239, 12, 0)" fill-opacity="0.78"/><path d="M169,57L169,35L175,52Z" fill="rgb(255, 255, 227)" fill-opacity="0.51"/><path d="M64,79L29,56L58,8Z" fill="rgb(0, 0, 246)" fill-opacity="0.93"/><path d="M166,82L166,78L155,106Z" fill="rgb(38, 1, 89)" fill-opacity="0.78"/><path d="M92,133L92,127L88,129Z" fill="rgb(16, 18, 0)" fill-opacity="0.34"/><path d="M179,29L165,91L192,87Z" fill="rgb(0, 0, 234)" fill-opacity="0.80"/><path d="M219,86L211,65L219,55Z" fill="rgb(21, 22, 125)" fill-opacity="0.64"/><path d="M142,102L84,89L103,122Z" fill="rgb(1, 2, 249)" fill-opacity="0.73"/><path d="M65,133L62,126L73,134Z" fill="rgb(28, 29, 1)" fill-opacity="0.61"/><path d="M211,144L261,119L212,117Z" fill="rgb(245, 245, 245)" fill-opacity="1.00"/><path d="M165,25L141,55L169,55Z" fill="rgb(2, 2, 237)" fill-opacity="0.81"/><path d="M201,112L174,110L206,118Z" fill="rgb(5, 5, 238)" fill-opacity="0.90"/><path d="M218,83L215,78L208,96Z" fill="rgb(13, 29, 216)" fill-opacity="0.54"/><path d="M211,126L192,110L208,138Z" fill="rgb(7, 8, 243)" fill-opacity="0.90"/><path d="M8,77L50,111L69,104Z" fill="rgb(246, 246, 245)" fill-opacity="0.71"/><path d="M199,44L205,40L205,47Z" fill="rgb(27, 28, 212)" fill-opacity="0.51"/><path d="M93,113L104,149L98,110Z" fill="rgb(242, 242, 239)" fill-opacity="0.60"/><path d="M189,29L242,-20L181,46Z" fill="rgb(241, 241, 243)" fill-opacity="0.91"/><path d="M84,77L73,107L60,80Z" fill="rgb(254, 16, 0)" fill-opacity="0.85"/><path d="M128,81L110,81L75,77Z" fill="rgb(19, 0, 126)" fill-opacity="0.62"/><path d="M219,85L215,85L220,73Z" fill="rgb(24, 23, 110)" fill-opacity="0.66"/><path d="M158,97L193,111L169,90Z" fill="rgb(240, 13, 0)" fill-opacity="0.84"/><path d="M226,48L233,45L216,72Z" fill="rgb(209, 210, 158)" fill-opacity="0.39"/><path d="M34,83L47,91L40,82Z" fill="rgb(197, 201, 187)" fill-opacity="0.56"/><path d="M103,69L177,31L160,30Z" fill="rgb(0, 0, 233)" fill-opacity="0.85"/><path d="M58,124L30,141L42,136Z" fill="rgb(61, 61, 97)" fill-opacity="0.52"/><path d="M44,135L39,112L56,110Z" fill="rgb(3, 3, 239)" fill-opacity="0.80"/></svg>