<svg xmlns="http://www.w3.org/2000/svg" viewBox="0 0 256 143.0214876033058" clip-path="url(#clip)"><defs><clipPath id="clip" clipPathUnits="objectBoundingBox"><rect x="0" y="0" width="256" height="143.0214876033058"/></clipPath></defs><rect x="0" y="0" width="256" height="143.0214876033058" fill="#f6f6f6"/><path d="M29,0L39,133L298,64Z" fill="rgb(196, 9, 41)" fill-opacity="0.80"/><path d="M158,108L123,138L102,84Z" fill="rgb(13, 2, 235)" fill-opacity="0.91"/><path d="M234,13L169,44L278,101Z" fill="rgb(166, 154, 221)" fill-opacity="1.00"/><path d="M130,2L210,123L213,152Z" fill="rgb(207, 14, 42)" fill-opacity="0.64"/><path d="M30,107L161,155L35,84Z" fill="rgb(239, 231, 232)" fill-opacity="0.95"/><path d="M140,52L157,23L131,18Z" fill="rgb(8, 1, 228)" fill-opacity="0.89"/><path d="M140,109L103,121L90,104Z" fill="rgb(13, 12, 239)" fill-opacity="0.95"/><path d="M77,11L32,30L28,0Z" fill="rgb(127, 149, 255)" fill-opacity="0.77"/><path d="M50,110L149,262L94,105Z" fill="rgb(230, 225, 229)" fill-opacity="1.00"/><path d="M22,47L139,15L101,109Z" fill="rgb(248, 9, 0)" fill-opacity="0.84"/><path d="M187,80L235,44L213,31Z" fill="rgb(20, 0, 201)" fill-opacity="0.93"/><path d="M221,67L172,78L206,103Z" fill="rgb(225, 14, 5)" fill-opacity="0.84"/><path d="M143,83L150,126L216,102Z" fill="rgb(211, 142, 197)" fill-opacity="1.00"/><path d="M186,59L157,28L182,30Z" fill="rgb(52, 41, 206)" fill-opacity="0.86"/><path d="M40,109L57,111L47,137Z" fill="rgb(228, 20, 4)" fill-opacity="0.87"/><path d="M109,83L123,85L105,124Z" fill="rgb(3, 1, 238)" fill-opacity="0.88"/><path d="M70,23L48,5L37,26Z" fill="rgb(37, 3, 197)" fill-opacity="0.94"/><path d="M187,108L170,113L208,118Z" fill="rgb(214, 15, 2)" fill-opacity="0.68"/><path d="M221,58L339,-81L218,164Z" fill="rgb(245, 245, 244)" fill-opacity="0.98"/><path d="M68,135L72,132L58,126Z" fill="rgb(11, 0, 0)" fill-opacity="0.64"/><path d="M236,16L187,60L242,28Z" fill="rgb(52, 0, 171)" fill-opacity="0.79"/><path d="M221,66L190,78L223,50Z" fill="rgb(113, 0, 66)" fill-opacity="0.74"/><path d="M192,53L180,29L230,15Z" fill="rgb(253, 255, 246)" fill-opacity="0.82"/><path d="M40,15L85,110L29,68Z" fill="rgb(248, 13, 0)" fill-opacity="0.81"/><path d="M30,44L133,20L74,15Z" fill="rgb(241, 14, 2)" fill-opacity="0.94"/><path d="M174,38L190,47L174,56Z" fill="rgb(0, 1, 242)" fill-opacity="0.88"/><path d="M26,21L-6,47L33,74Z" fill="rgb(244, 243, 243)" fill-opacity="1.00"/><path d="M175,29L167,44L171,58Z" fill="rgb(229, 242, 227)" fill-opacity="0.68"/><path d="M190,87L173,92L205,107Z" fill="rgb(216, 161, 244)" fill-opacity="0.55"/><path d="M198,63L111,39L123,97Z" fill="rgb(241, 12, 0)" fill-opacity="0.94"/><path d="M136,21L196,-42L118,16Z" fill="rgb(240, 243, 246)" fill-opacity="0.81"/><path d="M29,46L48,-9L-43,32Z" fill="rgb(245, 245, 245)" fill-opacity="0.95"/><path d="M66,27L40,7L40,21Z" fill="rgb(0, 0, 224)" fill-opacity="0.80"/><path d="M232,36L223,44L218,25Z" fill="rgb(222, 29, 2)" fill-opacity="0.70"/><path d="M153,47L141,16L136,48Z" fill="rgb(2, 3, 240)" fill-opacity="0.92"/><path d="M193,77L232,40L202,42Z" fill="rgb(4, 0, 229)" fill-opacity="0.86"/><path d="M47,90L39,117L-12,37Z" fill="rgb(243, 245, 244)" fill-opacity="0.78"/><path d="M44,136L57,124L31,140Z" fill="rgb(129, 82, 80)" fill-opacity="0.85"/><path d="M108,93L147,99L128,141Z" fill="rgb(1, 1, 247)" fill-opacity="0.85"/><path d="M35,125L44,134L58,117Z" fill="rgb(227, 20, 6)" fill-opacity="0.84"/><path d="M137,33L65,11L83,109Z" fill="rgb(243, 14, 0)" fill-opacity="0.92"/><path d="M166,93L200,54L146,55Z" fill="rgb(232, 12, 0)" fill-opacity="0.86"/><path d="M247,17L266,130L232,38Z" fill="rgb(244, 244, 244)" fill-opacity="0.99"/><path d="M151,119L260,152L130,130Z" fill="rgb(243, 244, 244)" fill-opacity="0.93"/><path d="M125,96L143,98L134,30Z" fill="rgb(241, 13, 0)" fill-opacity="0.93"/><path d="M151,30L162,72L170,37Z" fill="rgb(243, 16, 0)" fill-opacity="0.90"/><path d="M229,12L242,25L229,36Z" fill="rgb(0, 6, 233)" fill-opacity="0.83"/><path d="M108,106L28,52L49,95Z" fill="rgb(246, 15, 0)" fill-opacity="0.89"/><path d="M46,8L63,27L66,11Z" fill="rgb(0, 0, 242)" fill-opacity="0.88"/><path d="M160,59L203,101L217,85Z" fill="rgb(231, 16, 4)" fill-opacity="0.97"/><path d="M89,127L96,139L102,138Z" fill="rgb(14, 17, 177)" fill-opacity="0.53"/><path d="M212,127L207,137L192,109Z" fill="rgb(245, 15, 0)" fill-opacity="0.89"/><path d="M202,103L258,43L216,141Z" fill="rgb(244, 245, 245)" fill-opacity="0.90"/><path d="M101,105L134,131L90,105Z" fill="rgb(1, 4, 242)" fill-opacity="0.82"/><path d="M197,7L237,-5L223,33Z" fill="rgb(249, 246, 242)" fill-opacity="0.65"/><path d="M133,126L131,141L128,130Z" fill="rgb(33, 34, 168)" fill-opacity="0.66"/><path d="M142,84L157,101L161,84Z" fill="rgb(223, 147, 219)" fill-opacity="0.94"/><path d="M168,35L149,29L181,30Z" fill="rgb(0, 5, 189)" fill-opacity="0.53"/><path d="M89,106L108,55L108,102Z" fill="rgb(249, 14, 0)" fill-opacity="0.79"/><path d="M136,18L161,56L132,22Z" fill="rgb(7, 0, 211)" fill-opacity="0.56"/><path d="M219,74L304,175L221,60Z" fill="rgb(243, 243, 243)" fill-opacity="1.00"/><path d="M175,27L189,46L180,57Z" fill="rgb(3, 6, 229)" fill-opacity="0.54"/><path d="M148,145L126,137L35,143Z" fill="rgb(244, 244, 244)" fill-opacity="0.95"/><path d="M207,61L216,71L194,91Z" fill="rgb(240, 12, 0)" fill-opacity="0.79"/><path d="M194,52L218,70L215,37Z" fill="rgb(0, 1, 232)" fill-opacity="0.58"/><path d="M175,52L169,34L170,57Z" fill="rgb(217, 248, 252)" fill-opacity="0.66"/><path d="M220,65L217,48L223,53Z" fill="rgb(241, 33, 0)" fill-opacity="0.49"/><path d="M159,96L164,90L166,77Z" fill="rgb(132, 29, 39)" fill-opacity="0.73"/><path d="M197,119L199,131L205,87Z" fill="rgb(197, 13, 0)" fill-opacity="0.47"/><path d="M202,111L212,133L192,110Z" fill="rgb(242, 14, 0)" fill-opacity="0.86"/><path d="M171,41L47,90L73,106Z" fill="rgb(244, 15, 1)" fill-opacity="1.00"/><path d="M170,43L179,32L170,35Z" fill="rgb(245, 253, 195)" fill-opacity="0.53"/><path d="M76,105L100,113L66,163Z" fill="rgb(243, 244, 245)" fill-opacity="0.74"/><path d="M49,108L37,118L37,121Z" fill="rgb(197, 42, 34)" fill-opacity="1.00"/><path d="M79,7L28,8L21,-35Z" fill="rgb(244, 244, 244)" fill-opacity="0.93"/><path d="M-17,-102L97,17L56,9Z" fill="rgb(241, 241, 241)" fill-opacity="1.00"/><path d="M166,114L164,120L170,123Z" fill="rgb(98, 97, 101)" fill-opacity="0.62"/><path d="M161,90L186,89L198,47Z" fill="rgb(238, 15, 0)" fill-opacity="0.76"/><path d="M220,27L200,74L192,76Z" fill="rgb(5, 3, 232)" fill-opacity="0.83"/><path d="M161,30L165,32L167,23Z" fill="rgb(32, 33, 183)" fill-opacity="0.56"/><path d="M55,110L58,127L35,128Z" fill="rgb(235, 17, 3)" fill-opacity="0.88"/><path d="M134,20L158,24L137,48Z" fill="rgb(7, 5, 240)" fill-opacity="0.97"/><path d="M86,152L98,127L86,138Z" fill="rgb(246, 246, 247)" fill-opacity="0.73"/><path d="M107,30L38,24L29,50Z" fill="rgb(243, 15, 1)" fill-opacity="0.98"/><path d="M197,17L183,42L212,42Z" fill="rgb(249, 250, 246)" fill-opacity="0.51"/><path d="M73,125L25,89L80,108Z" fill="rgb(248, 251, 250)" fill-opacity="0.71"/><path d="M157,120L91,104L96,111Z" fill="rgb(5, 5, 241)" fill-opacity="0.65"/><path d="M236,15L233,13L228,50Z" fill="rgb(17, 9, 216)" fill-opacity="0.84"/><path d="M180,8L153,24L99,-16Z" fill="rgb(245, 245, 245)" fill-opacity="0.87"/><path d="M171,112L197,94L173,89Z" fill="rgb(224, 146, 222)" fill-opacity="0.62"/><path d="M170,56L187,40L187,52Z" fill="rgb(0, 4, 240)" fill-opacity="0.54"/><path d="M58,126L72,133L68,135Z" fill="rgb(24, 5, 1)" fill-opacity="0.48"/><path d="M196,51L220,33L200,71Z" fill="rgb(2, 1, 234)" fill-opacity="0.99"/><path d="M145,101L158,101L160,103Z" fill="rgb(63, 36, 71)" fill-opacity="0.51"/><path d="M171,118L169,75L171,54Z" fill="rgb(128, 17, 19)" fill-opacity="0.52"/><path d="M223,83L216,77L214,59Z" fill="rgb(95, 78, 67)" fill-opacity="0.59"/><path d="M84,74L130,19L144,90Z" fill="rgb(244, 13, 0)" fill-opacity="0.85"/><path d="M57,120L45,107L40,130Z" fill="rgb(255, 15, 0)" fill-opacity="0.71"/><path d="M93,132L95,130L72,121Z" fill="rgb(76, 77, 119)" fill-opacity="0.40"/><path d="M221,37L235,42L221,24Z" fill="rgb(255, 20, 0)" fill-opacity="0.36"/></svg>