<svg xmlns="http://www.w3.org/2000/svg" viewBox="0 0 256 143.0214876033058" clip-path="url(#clip)"><defs><clipPath id="clip" clipPathUnits="objectBoundingBox"><rect x="0" y="0" width="256" height="143.0214876033058"/></clipPath></defs><rect x="0" y="0" width="256" height="143.0214876033058" fill="#f6f6f6"/><path d="M177,172L235,30L-69,0Z" fill="rgb(238, 47, 37)" fill-opacity="0.91"/><path d="M79,146L265,147L183,112Z" fill="rgb(241, 221, 220)" fill-opacity="1.00"/><path d="M44,104L70,133L34,130Z" fill="rgb(210, 50, 41)" fill-opacity="0.85"/><path d="M47,1L46,93L141,128Z" fill="rgb(244, 15, 1)" fill-opacity="0.95"/><path d="M228,16L167,-20L189,58Z" fill="rgb(243, 242, 242)" fill-opacity="0.93"/><path d="M-62,47L54,-58L22,91Z" fill="rgb(245, 245, 245)" fill-opacity="0.98"/><path d="M242,24L233,13L158,128Z" fill="rgb(215, 14, 9)" fill-opacity="0.86"/><path d="M120,125L122,193L106,115Z" fill="rgb(242, 243, 243)" fill-opacity="0.83"/><path d="M213,135L201,133L172,36Z" fill="rgb(231, 17, 5)" fill-opacity="0.91"/><path d="M28,48L44,95L61,3Z" fill="rgb(246, 11, 0)" fill-opacity="0.76"/><path d="M193,-72L156,29L221,30Z" fill="rgb(244, 245, 245)" fill-opacity="0.89"/><path d="M220,54L236,44L224,37Z" fill="rgb(99, 19, 90)" fill-opacity="0.82"/><path d="M123,135L57,6L228,79Z" fill="rgb(239, 10, 0)" fill-opacity="0.86"/><path d="M97,142L88,126L101,136Z" fill="rgb(164, 40, 33)" fill-opacity="0.48"/><path d="M37,19L142,19L170,52Z" fill="rgb(245, 12, 0)" fill-opacity="0.92"/><path d="M342,177L132,129L148,118Z" fill="rgb(242, 242, 242)" fill-opacity="1.00"/><path d="M263,74L223,51L219,98Z" fill="rgb(244, 244, 244)" fill-opacity="0.91"/><path d="M106,130L33,104L94,106Z" fill="rgb(240, 236, 236)" fill-opacity="0.90"/><path d="M58,110L46,139L38,111Z" fill="rgb(228, 11, 0)" fill-opacity="0.72"/><path d="M172,55L198,54L222,77Z" fill="rgb(225, 13, 1)" fill-opacity="0.94"/><path d="M225,45L214,93L143,65Z" fill="rgb(224, 12, 0)" fill-opacity="0.64"/><path d="M119,100L190,39L164,123Z" fill="rgb(234, 13, 0)" fill-opacity="0.73"/><path d="M29,33L69,106L206,116Z" fill="rgb(243, 13, 0)" fill-opacity="0.67"/><path d="M30,55L-40,-14L37,90Z" fill="rgb(244, 243, 243)" fill-opacity="1.00"/><path d="M63,123L28,141L63,132Z" fill="rgb(193, 174, 174)" fill-opacity="1.00"/><path d="M75,92L51,46L30,80Z" fill="rgb(247, 12, 0)" fill-opacity="0.51"/><path d="M170,61L176,32L168,37Z" fill="rgb(198, 245, 248)" fill-opacity="0.64"/><path d="M48,7L70,12L-39,-108Z" fill="rgb(238, 235, 235)" fill-opacity="0.99"/><path d="M132,140L132,127L121,134Z" fill="rgb(205, 28, 19)" fill-opacity="0.83"/><path d="M218,58L221,83L208,60Z" fill="rgb(4, 41, 46)" fill-opacity="0.31"/><path d="M19,138L35,140L20,140Z" fill="rgb(117, 118, 118)" fill-opacity="0.66"/><path d="M165,26L169,43L89,90Z" fill="rgb(237, 14, 1)" fill-opacity="0.96"/><path d="M58,9L36,87L40,8Z" fill="rgb(236, 13, 0)" fill-opacity="0.71"/><path d="M167,52L171,35L175,55Z" fill="rgb(225, 254, 255)" fill-opacity="0.54"/><path d="M204,115L213,130L206,141Z" fill="rgb(221, 14, 3)" fill-opacity="0.47"/><path d="M48,90L32,131L-21,35Z" fill="rgb(243, 243, 243)" fill-opacity="0.80"/><path d="M187,10L149,33L168,16Z" fill="rgb(229, 225, 225)" fill-opacity="0.80"/><path d="M59,135L75,107L54,95Z" fill="rgb(236, 238, 238)" fill-opacity="0.68"/><path d="M30,58L62,10L33,33Z" fill="rgb(245, 14, 1)" fill-opacity="0.83"/><path d="M58,129L56,114L35,117Z" fill="rgb(236, 19, 6)" fill-opacity="0.85"/><path d="M218,85L200,105L205,118Z" fill="rgb(222, 230, 231)" fill-opacity="0.67"/><path d="M209,41L186,44L222,-32Z" fill="rgb(245, 245, 245)" fill-opacity="0.95"/><path d="M163,94L216,86L186,117Z" fill="rgb(240, 13, 0)" fill-opacity="0.91"/><path d="M220,63L227,51L244,113Z" fill="rgb(244, 244, 244)" fill-opacity="1.00"/><path d="M235,-29L151,23L227,29Z" fill="rgb(244, 245, 245)" fill-opacity="0.71"/><path d="M71,130L71,136L55,126Z" fill="rgb(3, 2, 5)" fill-opacity="0.46"/><path d="M90,104L100,115L56,117Z" fill="rgb(240, 242, 243)" fill-opacity="0.68"/><path d="M212,36L238,20L173,104Z" fill="rgb(234, 13, 0)" fill-opacity="0.90"/><path d="M34,122L2,143L40,132Z" fill="rgb(238, 241, 241)" fill-opacity="0.75"/><path d="M172,114L227,147L121,153Z" fill="rgb(243, 247, 247)" fill-opacity="0.72"/><path d="M50,132L42,130L40,138Z" fill="rgb(73, 3, 1)" fill-opacity="0.47"/><path d="M63,130L104,206L47,129Z" fill="rgb(242, 244, 244)" fill-opacity="0.82"/><path d="M97,17L172,126L50,9Z" fill="rgb(242, 15, 1)" fill-opacity="0.83"/><path d="M36,29L-98,-42L41,12Z" fill="rgb(244, 243, 243)" fill-opacity="0.97"/><path d="M228,15L236,14L231,35Z" fill="rgb(241, 15, 1)" fill-opacity="0.75"/><path d="M70,136L58,126L69,131Z" fill="rgb(1, 0, 2)" fill-opacity="0.51"/><path d="M31,70L62,100L81,107Z" fill="rgb(241, 19, 6)" fill-opacity="0.98"/><path d="M269,150L211,150L212,101Z" fill="rgb(245, 246, 246)" fill-opacity="0.94"/><path d="M255,85L253,45L218,83Z" fill="rgb(245, 245, 245)" fill-opacity="0.98"/><path d="M89,125L115,119L145,178Z" fill="rgb(242, 242, 242)" fill-opacity="0.98"/><path d="M239,59L230,34L236,31Z" fill="rgb(208, 219, 221)" fill-opacity="0.51"/><path d="M133,125L136,125L129,134Z" fill="rgb(52, 30, 32)" fill-opacity="0.50"/><path d="M157,101L157,113L168,71Z" fill="rgb(136, 6, 2)" fill-opacity="0.59"/><path d="M109,118L138,65L99,118Z" fill="rgb(250, 15, 0)" fill-opacity="0.94"/><path d="M76,124L76,121L97,133Z" fill="rgb(148, 110, 109)" fill-opacity="0.47"/><path d="M33,38L-15,17L17,-9Z" fill="rgb(245, 246, 246)" fill-opacity="0.87"/><path d="M220,-37L238,22L294,51Z" fill="rgb(244, 244, 244)" fill-opacity="0.94"/><path d="M51,130L58,124L35,132Z" fill="rgb(88, 7, 5)" fill-opacity="0.38"/><path d="M143,84L143,83L168,83Z" fill="rgb(37, 0, 1)" fill-opacity="0.60"/><path d="M57,121L88,105L70,132Z" fill="rgb(242, 242, 242)" fill-opacity="0.89"/><path d="M173,115L154,111L201,109Z" fill="rgb(144, 14, 10)" fill-opacity="0.40"/><path d="M168,45L169,87L145,21Z" fill="rgb(245, 14, 0)" fill-opacity="0.79"/><path d="M181,27L201,40L179,34Z" fill="rgb(232, 244, 244)" fill-opacity="0.63"/><path d="M22,129L58,95L-3,96Z" fill="rgb(245, 245, 245)" fill-opacity="0.82"/><path d="M44,20L49,9L46,6Z" fill="rgb(1, 33, 39)" fill-opacity="0.44"/><path d="M85,68L164,45L172,59Z" fill="rgb(245, 14, 0)" fill-opacity="1.00"/><path d="M169,86L176,36L184,36Z" fill="rgb(238, 4, 0)" fill-opacity="0.64"/><path d="M54,-7L29,-5L45,12Z" fill="rgb(232, 238, 238)" fill-opacity="0.54"/><path d="M190,118L234,166L166,114Z" fill="rgb(241, 242, 242)" fill-opacity="0.90"/><path d="M175,58L189,48L173,37Z" fill="rgb(236, 0, 0)" fill-opacity="0.46"/><path d="M37,82L75,107L29,45Z" fill="rgb(246, 15, 1)" fill-opacity="0.71"/><path d="M110,117L109,83L149,119Z" fill="rgb(254, 15, 0)" fill-opacity="0.89"/><path d="M191,54L202,45L183,54Z" fill="rgb(213, 254, 254)" fill-opacity="0.49"/><path d="M84,205L144,120L159,119Z" fill="rgb(242, 253, 254)" fill-opacity="0.54"/><path d="M42,120L36,125L31,120Z" fill="rgb(195, 211, 212)" fill-opacity="0.67"/><path d="M-94,35L42,110L31,61Z" fill="rgb(245, 245, 245)" fill-opacity="1.00"/><path d="M76,189L109,118L114,118Z" fill="rgb(245, 245, 245)" fill-opacity="0.94"/><path d="M59,96L45,94L59,93Z" fill="rgb(131, 25, 22)" fill-opacity="0.38"/><path d="M67,9L58,47L59,48Z" fill="rgb(123, 8, 7)" fill-opacity="0.57"/><path d="M200,59L232,46L200,41Z" fill="rgb(240, 14, 0)" fill-opacity="0.52"/><path d="M227,20L140,21L237,-1Z" fill="rgb(246, 245, 245)" fill-opacity="0.86"/><path d="M201,100L198,113L205,98Z" fill="rgb(192, 28, 20)" fill-opacity="0.98"/><path d="M186,38L188,47L171,90Z" fill="rgb(222, 22, 10)" fill-opacity="0.63"/><path d="M104,121L89,101L128,106Z" fill="rgb(240, 16, 3)" fill-opacity="0.70"/><path d="M44,116L37,117L37,120Z" fill="rgb(163, 31, 24)" fill-opacity="1.00"/><path d="M132,20L146,19L117,19Z" fill="rgb(15, 107, 117)" fill-opacity="0.33"/><path d="M211,126L196,121L209,139Z" fill="rgb(227, 13, 3)" fill-opacity="0.57"/><path d="M163,105L141,97L117,94Z" fill="rgb(164, 8, 2)" fill-opacity="0.55"/><path d="M240,46L221,43L228,40Z" fill="rgb(3, 27, 229)" fill-opacity="0.59"/><path d="M112,81L114,68L114,81Z" fill="rgb(65, 0, 0)" fill-opacity="0.48"/></svg>