<svg xmlns="http://www.w3.org/2000/svg" viewBox="0 0 256 143.0214876033058" clip-path="url(#clip)"><defs><clipPath id="clip" clipPathUnits="objectBoundingBox"><rect x="0" y="0" width="256" height="143.0214876033058"/></clipPath></defs><rect x="0" y="0" width="256" height="143.0214876033058" fill="#f6f6f6"/><path d="M6,6L239,32L139,230Z" fill="rgb(157, 32, 105)" fill-opacity="0.87"/><path d="M207,116L5,107L255,276Z" fill="rgb(196, 183, 222)" fill-opacity="1.00"/><path d="M104,93L240,73L124,138Z" fill="rgb(4, 4, 238)" fill-opacity="0.83"/><path d="M54,-89L29,88L113,110Z" fill="rgb(255, 12, 0)" fill-opacity="0.68"/><path d="M183,55L232,38L171,101Z" fill="rgb(3, 0, 229)" fill-opacity="0.93"/><path d="M31,44L-77,98L63,-59Z" fill="rgb(245, 244, 243)" fill-opacity="0.98"/><path d="M132,16L25,54L145,100Z" fill="rgb(242, 12, 0)" fill-opacity="0.93"/><path d="M196,84L133,61L213,141Z" fill="rgb(0, 0, 234)" fill-opacity="0.79"/><path d="M137,48L134,15L176,45Z" fill="rgb(2, 10, 249)" fill-opacity="0.90"/><path d="M243,26L231,11L222,41Z" fill="rgb(214, 10, 0)" fill-opacity="0.81"/><path d="M167,80L134,46L182,57Z" fill="rgb(236, 5, 0)" fill-opacity="0.82"/><path d="M32,6L146,21L126,-80Z" fill="rgb(243, 242, 243)" fill-opacity="0.99"/><path d="M33,113L47,140L59,109Z" fill="rgb(235, 28, 4)" fill-opacity="0.75"/><path d="M223,52L361,2L219,92Z" fill="rgb(244, 244, 244)" fill-opacity="0.96"/><path d="M147,117L103,159L232,143Z" fill="rgb(246, 247, 245)" fill-opacity="0.87"/><path d="M99,16L26,37L138,27Z" fill="rgb(252, 15, 0)" fill-opacity="0.84"/><path d="M98,118L141,121L115,79Z" fill="rgb(0, 0, 244)" fill-opacity="0.83"/><path d="M54,98L-9,165L18,60Z" fill="rgb(244, 243, 243)" fill-opacity="0.91"/><path d="M142,64L157,61L147,122Z" fill="rgb(0, 0, 233)" fill-opacity="0.88"/><path d="M259,-14L190,56L170,-3Z" fill="rgb(243, 243, 244)" fill-opacity="0.96"/><path d="M184,65L223,42L217,29Z" fill="rgb(4, 10, 243)" fill-opacity="0.89"/><path d="M76,152L203,134L192,114Z" fill="rgb(240, 240, 243)" fill-opacity="1.00"/><path d="M169,-32L175,55L168,54Z" fill="rgb(246, 230, 203)" fill-opacity="0.66"/><path d="M163,121L218,88L86,107Z" fill="rgb(0, 3, 242)" fill-opacity="0.80"/><path d="M189,47L178,30L171,65Z" fill="rgb(238, 24, 7)" fill-opacity="0.90"/><path d="M61,128L36,129L46,107Z" fill="rgb(229, 18, 4)" fill-opacity="0.85"/><path d="M36,84L28,43L112,108Z" fill="rgb(244, 13, 0)" fill-opacity="0.78"/><path d="M31,234L123,130L64,101Z" fill="rgb(238, 239, 238)" fill-opacity="0.89"/><path d="M179,7L152,30L195,28Z" fill="rgb(240, 242, 240)" fill-opacity="0.81"/><path d="M220,75L187,80L211,64Z" fill="rgb(205, 3, 1)" fill-opacity="0.80"/><path d="M70,135L71,131L51,123Z" fill="rgb(87, 17, 13)" fill-opacity="0.72"/><path d="M143,44L120,94L138,99Z" fill="rgb(239, 12, 0)" fill-opacity="0.83"/><path d="M299,50L241,25L229,41Z" fill="rgb(238, 241, 242)" fill-opacity="0.82"/><path d="M189,116L191,53L155,107Z" fill="rgb(0, 0, 236)" fill-opacity="0.82"/><path d="M49,108L92,106L115,140Z" fill="rgb(244, 244, 243)" fill-opacity="0.94"/><path d="M167,54L136,39L170,34Z" fill="rgb(0, 0, 234)" fill-opacity="0.74"/><path d="M139,98L130,141L105,106Z" fill="rgb(2, 2, 248)" fill-opacity="0.86"/><path d="M214,30L220,67L198,59Z" fill="rgb(0, 3, 225)" fill-opacity="0.79"/><path d="M109,83L106,122L122,84Z" fill="rgb(4, 1, 237)" fill-opacity="0.96"/><path d="M85,108L40,6L47,93Z" fill="rgb(244, 15, 1)" fill-opacity="0.96"/><path d="M137,125L153,62L166,81Z" fill="rgb(0, 0, 238)" fill-opacity="0.91"/><path d="M197,42L236,42L236,46Z" fill="rgb(0, 3, 192)" fill-opacity="0.59"/><path d="M210,124L212,134L153,71Z" fill="rgb(3, 3, 242)" fill-opacity="0.91"/><path d="M157,25L139,18L135,52Z" fill="rgb(0, 2, 243)" fill-opacity="0.69"/><path d="M34,141L57,118L57,126Z" fill="rgb(145, 31, 24)" fill-opacity="0.57"/><path d="M131,25L84,107L46,7Z" fill="rgb(243, 14, 0)" fill-opacity="0.96"/><path d="M163,80L183,69L176,48Z" fill="rgb(228, 10, 0)" fill-opacity="0.84"/><path d="M196,111L168,74L216,85Z" fill="rgb(1, 1, 233)" fill-opacity="0.88"/><path d="M104,121L92,105L125,108Z" fill="rgb(5, 5, 243)" fill-opacity="0.92"/><path d="M30,59L65,11L33,33Z" fill="rgb(245, 16, 2)" fill-opacity="0.96"/><path d="M110,64L69,105L107,105Z" fill="rgb(246, 14, 1)" fill-opacity="1.00"/><path d="M225,-54L209,41L188,45Z" fill="rgb(244, 244, 244)" fill-opacity="1.00"/><path d="M129,177L40,139L58,128Z" fill="rgb(243, 243, 243)" fill-opacity="0.98"/><path d="M232,151L166,116L171,114Z" fill="rgb(241, 241, 238)" fill-opacity="0.85"/><path d="M204,100L201,110L217,134Z" fill="rgb(234, 234, 235)" fill-opacity="0.81"/><path d="M144,176L115,119L106,116Z" fill="rgb(250, 254, 236)" fill-opacity="0.54"/><path d="M46,57L153,47L167,63Z" fill="rgb(239, 13, 1)" fill-opacity="0.99"/><path d="M168,36L178,31L160,29Z" fill="rgb(211, 24, 13)" fill-opacity="0.92"/><path d="M34,180L39,87L24,40Z" fill="rgb(238, 240, 239)" fill-opacity="0.73"/><path d="M95,140L94,132L103,137Z" fill="rgb(16, 16, 196)" fill-opacity="0.54"/><path d="M186,52L190,58L190,43Z" fill="rgb(208, 228, 236)" fill-opacity="0.58"/><path d="M199,121L190,113L168,145Z" fill="rgb(241, 241, 240)" fill-opacity="0.78"/><path d="M186,54L174,37L172,46Z" fill="rgb(237, 23, 5)" fill-opacity="0.81"/><path d="M94,-48L85,16L58,9Z" fill="rgb(240, 243, 243)" fill-opacity="0.72"/><path d="M58,119L39,132L41,109Z" fill="rgb(243, 21, 8)" fill-opacity="0.82"/><path d="M48,8L53,7L41,19Z" fill="rgb(88, 6, 0)" fill-opacity="0.48"/><path d="M29,17L-93,-107L30,68Z" fill="rgb(245, 245, 245)" fill-opacity="1.00"/><path d="M49,135L27,141L48,132Z" fill="rgb(98, 97, 99)" fill-opacity="0.65"/><path d="M128,82L148,48L57,86Z" fill="rgb(243, 13, 0)" fill-opacity="1.00"/><path d="M187,32L172,33L193,37Z" fill="rgb(209, 244, 228)" fill-opacity="0.49"/><path d="M96,130L72,122L93,132Z" fill="rgb(64, 64, 120)" fill-opacity="0.37"/><path d="M128,137L122,181L143,144Z" fill="rgb(240, 240, 236)" fill-opacity="0.83"/><path d="M229,25L232,43L218,32Z" fill="rgb(190, 5, 8)" fill-opacity="0.71"/><path d="M51,-58L183,32L221,30Z" fill="rgb(245, 245, 245)" fill-opacity="0.99"/><path d="M203,78L221,80L220,75Z" fill="rgb(20, 7, 157)" fill-opacity="0.87"/><path d="M209,137L196,125L202,109Z" fill="rgb(0, 1, 221)" fill-opacity="0.57"/><path d="M230,39L229,15L236,14Z" fill="rgb(239, 11, 0)" fill-opacity="0.85"/><path d="M218,49L230,42L218,63Z" fill="rgb(156, 0, 4)" fill-opacity="0.52"/><path d="M182,61L221,33L198,76Z" fill="rgb(0, 0, 238)" fill-opacity="0.80"/><path d="M238,26L239,29L232,34Z" fill="rgb(23, 49, 31)" fill-opacity="0.37"/><path d="M182,64L165,51L154,67Z" fill="rgb(247, 15, 0)" fill-opacity="0.75"/><path d="M239,22L227,41L219,35Z" fill="rgb(222, 9, 0)" fill-opacity="0.84"/><path d="M45,10L58,-8L8,-7Z" fill="rgb(241, 242, 242)" fill-opacity="0.95"/><path d="M164,34L133,22L160,55Z" fill="rgb(0, 0, 236)" fill-opacity="0.61"/><path d="M66,180L107,128L133,141Z" fill="rgb(249, 249, 248)" fill-opacity="0.77"/><path d="M207,61L200,42L225,42Z" fill="rgb(0, 1, 242)" fill-opacity="0.84"/><path d="M145,48L179,73L164,78Z" fill="rgb(234, 13, 0)" fill-opacity="0.63"/><path d="M107,19L134,19L135,95Z" fill="rgb(247, 14, 0)" fill-opacity="0.85"/><path d="M218,61L252,104L268,64Z" fill="rgb(245, 245, 245)" fill-opacity="0.86"/><path d="M133,127L124,183L157,118Z" fill="rgb(242, 242, 237)" fill-opacity="0.75"/><path d="M79,106L54,106L59,126Z" fill="rgb(245, 246, 245)" fill-opacity="0.87"/><path d="M53,94L68,131L85,115Z" fill="rgb(244, 244, 244)" fill-opacity="0.75"/><path d="M229,44L221,45L228,49Z" fill="rgb(218, 33, 1)" fill-opacity="0.61"/><path d="M106,38L112,40L84,36Z" fill="rgb(87, 1, 3)" fill-opacity="0.43"/><path d="M185,81L218,76L185,118Z" fill="rgb(0, 0, 238)" fill-opacity="0.79"/><path d="M175,59L223,49L220,45Z" fill="rgb(8, 2, 223)" fill-opacity="0.72"/><path d="M29,44L33,70L38,85Z" fill="rgb(154, 49, 46)" fill-opacity="0.57"/><path d="M218,58L201,61L216,69Z" fill="rgb(0, 0, 13)" fill-opacity="0.31"/><path d="M167,37L178,32L170,45Z" fill="rgb(207, 255, 207)" fill-opacity="0.44"/><path d="M168,47L172,58L173,32Z" fill="rgb(248, 255, 250)" fill-opacity="0.70"/></svg>