<svg xmlns="http://www.w3.org/2000/svg" viewBox="0 0 256 143.0214876033058" clip-path="url(#clip)"><defs><clipPath id="clip" clipPathUnits="objectBoundingBox"><rect x="0" y="0" width="256" height="143.0214876033058"/></clipPath></defs><rect x="0" y="0" width="256" height="143.0214876033058" fill="#f6f6f6"/><path d="M38,133L252,105L26,-96Z" fill="rgb(228, 63, 64)" fill-opacity="0.99"/><path d="M207,106L241,8L111,132Z" fill="rgb(202, 22, 39)" fill-opacity="0.95"/><path d="M-22,88L27,81L224,182Z" fill="rgb(240, 230, 230)" fill-opacity="0.96"/><path d="M182,31L119,16L215,148Z" fill="rgb(178, 26, 73)" fill-opacity="0.90"/><path d="M196,110L272,118L223,78Z" fill="rgb(239, 243, 246)" fill-opacity="0.95"/><path d="M24,-120L188,27L13,5Z" fill="rgb(240, 239, 241)" fill-opacity="0.98"/><path d="M188,116L205,102L180,84Z" fill="rgb(14, 3, 225)" fill-opacity="0.86"/><path d="M138,56L157,23L133,19Z" fill="rgb(0, 1, 247)" fill-opacity="0.79"/><path d="M35,32L44,-2L-63,73Z" fill="rgb(244, 244, 244)" fill-opacity="0.98"/><path d="M214,62L237,42L208,28Z" fill="rgb(211, 16, 0)" fill-opacity="0.60"/><path d="M223,86L46,96L45,4Z" fill="rgb(242, 11, 0)" fill-opacity="0.93"/><path d="M80,61L169,44L128,142Z" fill="rgb(243, 14, 0)" fill-opacity="0.93"/><path d="M132,142L37,140L87,103Z" fill="rgb(229, 229, 233)" fill-opacity="0.81"/><path d="M47,106L36,118L73,136Z" fill="rgb(209, 46, 35)" fill-opacity="0.77"/><path d="M48,4L39,88L28,50Z" fill="rgb(237, 21, 7)" fill-opacity="0.90"/><path d="M174,53L169,57L170,8Z" fill="rgb(238, 252, 237)" fill-opacity="0.70"/><path d="M44,138L56,126L26,140Z" fill="rgb(124, 103, 101)" fill-opacity="0.59"/><path d="M197,126L214,135L200,105Z" fill="rgb(235, 22, 2)" fill-opacity="0.70"/><path d="M216,59L190,79L195,63Z" fill="rgb(0, 0, 213)" fill-opacity="0.73"/><path d="M148,118L131,130L259,152Z" fill="rgb(242, 242, 242)" fill-opacity="0.97"/><path d="M61,128L82,121L31,76Z" fill="rgb(240, 241, 240)" fill-opacity="0.69"/><path d="M240,-20L179,34L226,29Z" fill="rgb(243, 242, 242)" fill-opacity="0.92"/><path d="M188,42L168,122L92,109Z" fill="rgb(240, 14, 0)" fill-opacity="0.82"/><path d="M135,22L104,123L39,9Z" fill="rgb(242, 14, 1)" fill-opacity="0.99"/><path d="M114,120L241,27L237,19Z" fill="rgb(231, 15, 3)" fill-opacity="1.00"/><path d="M216,59L221,71L206,61Z" fill="rgb(2, 22, 150)" fill-opacity="0.70"/><path d="M138,46L156,48L133,17Z" fill="rgb(0, 1, 242)" fill-opacity="0.85"/><path d="M102,136L95,133L95,141Z" fill="rgb(13, 13, 203)" fill-opacity="0.63"/><path d="M172,30L162,72L150,31Z" fill="rgb(239, 19, 1)" fill-opacity="0.80"/><path d="M73,106L213,84L58,97Z" fill="rgb(241, 15, 2)" fill-opacity="1.00"/><path d="M58,111L43,136L41,109Z" fill="rgb(237, 13, 0)" fill-opacity="0.81"/><path d="M151,30L186,4L161,30Z" fill="rgb(223, 230, 234)" fill-opacity="0.84"/><path d="M189,112L197,119L200,151Z" fill="rgb(235, 232, 231)" fill-opacity="0.91"/><path d="M243,27L227,21L231,12Z" fill="rgb(227, 36, 21)" fill-opacity="0.69"/><path d="M56,128L32,127L57,114Z" fill="rgb(236, 0, 0)" fill-opacity="0.54"/><path d="M202,109L178,112L186,116Z" fill="rgb(199, 16, 18)" fill-opacity="0.86"/><path d="M66,-6L44,11L29,-12Z" fill="rgb(232, 242, 242)" fill-opacity="0.75"/><path d="M113,116L92,128L155,193Z" fill="rgb(242, 241, 240)" fill-opacity="0.84"/><path d="M170,53L167,46L178,24Z" fill="rgb(233, 248, 233)" fill-opacity="0.55"/><path d="M273,13L117,19L77,14Z" fill="rgb(241, 239, 239)" fill-opacity="1.00"/><path d="M197,113L204,103L188,87Z" fill="rgb(0, 2, 242)" fill-opacity="0.69"/><path d="M174,55L169,55L169,37Z" fill="rgb(228, 253, 255)" fill-opacity="0.65"/><path d="M189,55L186,50L214,36Z" fill="rgb(231, 197, 195)" fill-opacity="1.00"/><path d="M172,44L203,104L179,33Z" fill="rgb(232, 16, 3)" fill-opacity="0.89"/><path d="M41,84L31,34L138,127Z" fill="rgb(246, 14, 0)" fill-opacity="0.93"/><path d="M214,-53L268,-25L238,22Z" fill="rgb(243, 242, 242)" fill-opacity="1.00"/><path d="M235,45L225,29L221,49Z" fill="rgb(182, 12, 10)" fill-opacity="0.67"/><path d="M261,91L224,51L219,71Z" fill="rgb(243, 242, 242)" fill-opacity="0.94"/><path d="M233,1L169,31L132,-2Z" fill="rgb(245, 245, 245)" fill-opacity="0.85"/><path d="M207,62L220,75L202,103Z" fill="rgb(233, 14, 0)" fill-opacity="0.90"/><path d="M194,61L203,41L222,58Z" fill="rgb(240, 15, 3)" fill-opacity="0.95"/><path d="M169,77L158,99L165,79Z" fill="rgb(86, 2, 1)" fill-opacity="0.53"/><path d="M55,126L105,129L92,104Z" fill="rgb(245, 252, 253)" fill-opacity="0.55"/><path d="M24,138L-60,-5L50,97Z" fill="rgb(245, 246, 246)" fill-opacity="0.84"/><path d="M183,29L151,32L149,43Z" fill="rgb(227, 14, 0)" fill-opacity="0.65"/><path d="M69,130L74,138L53,124Z" fill="rgb(3, 35, 37)" fill-opacity="0.39"/><path d="M158,109L176,73L187,114Z" fill="rgb(238, 13, 1)" fill-opacity="1.00"/><path d="M202,108L186,111L183,90Z" fill="rgb(0, 0, 255)" fill-opacity="0.65"/><path d="M182,42L220,-1L209,42Z" fill="rgb(243, 244, 244)" fill-opacity="0.73"/><path d="M29,124L49,143L17,100Z" fill="rgb(232, 232, 232)" fill-opacity="0.84"/><path d="M161,133L168,113L175,116Z" fill="rgb(207, 229, 230)" fill-opacity="0.60"/><path d="M199,76L203,61L190,71Z" fill="rgb(0, 0, 255)" fill-opacity="0.69"/><path d="M159,107L159,90L157,114Z" fill="rgb(1, 0, 0)" fill-opacity="0.35"/><path d="M127,137L85,141L197,169Z" fill="rgb(244, 245, 245)" fill-opacity="0.90"/><path d="M82,126L91,128L95,133Z" fill="rgb(31, 33, 91)" fill-opacity="0.49"/><path d="M60,128L48,131L139,211Z" fill="rgb(244, 244, 244)" fill-opacity="0.89"/><path d="M248,165L214,127L207,147Z" fill="rgb(245, 245, 245)" fill-opacity="1.00"/><path d="M352,94L202,116L231,60Z" fill="rgb(246, 246, 246)" fill-opacity="0.82"/><path d="M54,106L94,107L58,124Z" fill="rgb(242, 244, 244)" fill-opacity="0.77"/><path d="M179,34L234,1L206,41Z" fill="rgb(245, 245, 245)" fill-opacity="0.87"/><path d="M135,24L113,74L136,96Z" fill="rgb(245, 13, 0)" fill-opacity="0.84"/><path d="M212,31L238,29L204,62Z" fill="rgb(232, 14, 0)" fill-opacity="0.61"/><path d="M75,124L81,124L77,123Z" fill="rgb(31, 33, 135)" fill-opacity="0.48"/><path d="M25,46L0,81L32,51Z" fill="rgb(244, 242, 242)" fill-opacity="0.70"/><path d="M191,110L209,139L203,111Z" fill="rgb(245, 21, 2)" fill-opacity="0.77"/><path d="M-27,61L49,110L75,107Z" fill="rgb(245, 245, 245)" fill-opacity="1.00"/><path d="M134,20L142,18L152,50Z" fill="rgb(0, 3, 249)" fill-opacity="0.66"/><path d="M221,78L218,88L213,63Z" fill="rgb(2, 41, 64)" fill-opacity="0.37"/><path d="M75,126L68,139L111,151Z" fill="rgb(248, 248, 247)" fill-opacity="0.82"/><path d="M169,122L167,113L164,120Z" fill="rgb(31, 40, 45)" fill-opacity="0.42"/><path d="M165,25L154,41L175,109Z" fill="rgb(240, 14, 1)" fill-opacity="0.85"/><path d="M239,27L228,18L234,13Z" fill="rgb(241, 21, 8)" fill-opacity="0.85"/><path d="M28,140L54,131L32,140Z" fill="rgb(84, 63, 66)" fill-opacity="0.50"/><path d="M34,76L63,10L46,8Z" fill="rgb(242, 15, 1)" fill-opacity="0.78"/><path d="M78,103L105,105L80,107Z" fill="rgb(165, 10, 1)" fill-opacity="0.44"/><path d="M37,138L48,133L56,124Z" fill="rgb(88, 36, 34)" fill-opacity="0.62"/><path d="M191,89L202,100L220,78Z" fill="rgb(249, 9, 0)" fill-opacity="0.59"/><path d="M74,40L46,95L60,95Z" fill="rgb(229, 13, 1)" fill-opacity="0.71"/><path d="M202,103L236,70L203,114Z" fill="rgb(243, 243, 243)" fill-opacity="1.00"/><path d="M291,140L218,61L261,75Z" fill="rgb(245, 245, 245)" fill-opacity="1.00"/><path d="M45,17L46,5L49,10Z" fill="rgb(13, 67, 75)" fill-opacity="0.49"/><path d="M140,48L158,22L135,48Z" fill="rgb(0, 2, 235)" fill-opacity="0.60"/><path d="M178,31L168,81L189,46Z" fill="rgb(234, 19, 2)" fill-opacity="0.60"/><path d="M165,38L172,40L182,30Z" fill="rgb(143, 255, 231)" fill-opacity="0.35"/><path d="M196,50L171,70L193,67Z" fill="rgb(248, 17, 1)" fill-opacity="0.76"/><path d="M69,131L69,136L60,126Z" fill="rgb(3, 18, 22)" fill-opacity="0.55"/><path d="M211,62L204,66L197,94Z" fill="rgb(239, 12, 0)" fill-opacity="0.71"/><path d="M130,128L135,125L130,142Z" fill="rgb(17, 28, 36)" fill-opacity="0.31"/><path d="M54,73L28,71L91,60Z" fill="rgb(251, 21, 6)" fill-opacity="0.54"/><path d="M70,29L84,37L82,48Z" fill="rgb(184, 9, 3)" fill-opacity="0.50"/></svg>