<svg xmlns="http://www.w3.org/2000/svg" viewBox="0 0 256 143.0214876033058" clip-path="url(#clip)"><defs><clipPath id="clip" clipPathUnits="objectBoundingBox"><rect x="0" y="0" width="256" height="143.0214876033058"/></clipPath></defs><rect x="0" y="0" width="256" height="143.0214876033058" fill="#f6f6f6"/><path d="M227,134L78,-196L24,96Z" fill="rgb(230, 7, 2)" fill-opacity="0.77"/><path d="M241,9L101,137L212,95Z" fill="rgb(230, 13, 1)" fill-opacity="0.88"/><path d="M38,7L195,31L97,-302Z" fill="rgb(237, 240, 245)" fill-opacity="0.96"/><path d="M41,145L37,108L62,112Z" fill="rgb(218, 55, 46)" fill-opacity="0.89"/><path d="M226,80L43,4L103,124Z" fill="rgb(240, 9, 0)" fill-opacity="0.87"/><path d="M202,102L226,174L254,42Z" fill="rgb(244, 243, 243)" fill-opacity="0.98"/><path d="M21,60L51,95L13,156Z" fill="rgb(241, 241, 241)" fill-opacity="0.94"/><path d="M52,117L72,134L33,125Z" fill="rgb(187, 3, 0)" fill-opacity="0.58"/><path d="M237,44L212,30L201,66Z" fill="rgb(215, 12, 1)" fill-opacity="0.71"/><path d="M157,24L132,17L139,53Z" fill="rgb(12, 8, 231)" fill-opacity="0.91"/><path d="M137,131L41,8L35,81Z" fill="rgb(245, 14, 0)" fill-opacity="0.93"/><path d="M120,132L159,56L130,140Z" fill="rgb(238, 19, 6)" fill-opacity="0.91"/><path d="M123,134L66,146L112,116Z" fill="rgb(238, 227, 227)" fill-opacity="1.00"/><path d="M231,13L242,25L216,50Z" fill="rgb(216, 30, 21)" fill-opacity="0.97"/><path d="M213,139L192,86L201,131Z" fill="rgb(237, 17, 4)" fill-opacity="0.87"/><path d="M131,129L192,113L215,158Z" fill="rgb(242, 242, 242)" fill-opacity="0.95"/><path d="M24,89L60,97L113,156Z" fill="rgb(240, 236, 236)" fill-opacity="0.96"/><path d="M31,39L48,5L30,60Z" fill="rgb(227, 35, 24)" fill-opacity="0.99"/><path d="M137,47L157,48L134,19Z" fill="rgb(0, 0, 248)" fill-opacity="0.69"/><path d="M44,11L33,0L64,-12Z" fill="rgb(236, 240, 239)" fill-opacity="0.86"/><path d="M167,54L173,1L174,54Z" fill="rgb(217, 235, 233)" fill-opacity="0.63"/><path d="M24,146L146,212L60,128Z" fill="rgb(242, 243, 243)" fill-opacity="0.94"/><path d="M218,73L225,48L256,111Z" fill="rgb(241, 242, 242)" fill-opacity="0.82"/><path d="M190,183L193,115L167,114Z" fill="rgb(242, 241, 241)" fill-opacity="0.93"/><path d="M222,77L177,47L126,131Z" fill="rgb(232, 14, 2)" fill-opacity="0.95"/><path d="M211,127L211,134L204,141Z" fill="rgb(207, 10, 0)" fill-opacity="0.54"/><path d="M220,30L229,25L196,-45Z" fill="rgb(242, 241, 241)" fill-opacity="0.97"/><path d="M63,168L95,108L86,104Z" fill="rgb(240, 238, 238)" fill-opacity="0.94"/><path d="M222,54L197,118L200,40Z" fill="rgb(226, 12, 0)" fill-opacity="0.67"/><path d="M101,137L89,127L96,140Z" fill="rgb(162, 19, 11)" fill-opacity="0.53"/><path d="M34,75L35,29L141,17Z" fill="rgb(246, 13, 0)" fill-opacity="0.78"/><path d="M42,93L220,83L189,116Z" fill="rgb(240, 14, 0)" fill-opacity="0.75"/><path d="M33,66L38,155L1,-21Z" fill="rgb(243, 243, 243)" fill-opacity="0.98"/><path d="M137,69L168,29L169,82Z" fill="rgb(238, 13, 0)" fill-opacity="0.85"/><path d="M257,50L211,127L200,107Z" fill="rgb(244, 244, 244)" fill-opacity="0.81"/><path d="M156,30L163,-14L204,27Z" fill="rgb(243, 244, 244)" fill-opacity="0.74"/><path d="M67,102L120,181L55,116Z" fill="rgb(243, 242, 242)" fill-opacity="0.96"/><path d="M53,124L72,132L69,135Z" fill="rgb(32, 5, 2)" fill-opacity="0.56"/><path d="M134,20L140,124L40,13Z" fill="rgb(243, 14, 0)" fill-opacity="0.98"/><path d="M151,31L177,30L156,46Z" fill="rgb(234, 5, 0)" fill-opacity="0.74"/><path d="M37,112L56,129L57,110Z" fill="rgb(255, 0, 0)" fill-opacity="0.54"/><path d="M135,48L141,16L151,47Z" fill="rgb(0, 0, 253)" fill-opacity="0.61"/><path d="M219,88L211,59L220,59Z" fill="rgb(9, 45, 52)" fill-opacity="0.33"/><path d="M259,0L238,22L217,-39Z" fill="rgb(243, 243, 243)" fill-opacity="1.00"/><path d="M48,135L46,107L37,128Z" fill="rgb(218, 10, 0)" fill-opacity="0.66"/><path d="M146,47L126,49L136,128Z" fill="rgb(241, 14, 0)" fill-opacity="0.75"/><path d="M157,93L169,120L159,122Z" fill="rgb(173, 9, 0)" fill-opacity="0.54"/><path d="M46,91L75,106L147,99Z" fill="rgb(244, 16, 3)" fill-opacity="1.00"/><path d="M90,128L71,121L97,134Z" fill="rgb(175, 149, 148)" fill-opacity="0.78"/><path d="M29,46L156,74L35,77Z" fill="rgb(247, 14, 0)" fill-opacity="0.93"/><path d="M169,35L186,29L169,42Z" fill="rgb(170, 191, 191)" fill-opacity="0.63"/><path d="M138,20L254,-109L82,15Z" fill="rgb(245, 246, 245)" fill-opacity="0.84"/><path d="M163,49L149,41L166,24Z" fill="rgb(240, 16, 0)" fill-opacity="0.69"/><path d="M191,54L206,-6L186,54Z" fill="rgb(244, 243, 244)" fill-opacity="1.00"/><path d="M37,26L39,-36L40,17Z" fill="rgb(230, 234, 234)" fill-opacity="0.87"/><path d="M59,129L34,118L53,111Z" fill="rgb(243, 19, 2)" fill-opacity="0.62"/><path d="M45,135L55,127L14,148Z" fill="rgb(115, 128, 130)" fill-opacity="0.60"/><path d="M200,48L188,55L205,30Z" fill="rgb(231, 236, 236)" fill-opacity="0.67"/><path d="M163,22L141,35L135,26Z" fill="rgb(1, 9, 250)" fill-opacity="0.60"/><path d="M142,121L150,118L278,157Z" fill="rgb(237, 240, 241)" fill-opacity="0.69"/><path d="M166,121L188,44L177,31Z" fill="rgb(230, 16, 4)" fill-opacity="0.82"/><path d="M175,108L178,113L171,116Z" fill="rgb(105, 18, 14)" fill-opacity="0.48"/><path d="M111,134L15,175L134,139Z" fill="rgb(244, 244, 244)" fill-opacity="0.98"/><path d="M173,33L172,58L167,48Z" fill="rgb(238, 255, 255)" fill-opacity="0.61"/><path d="M135,156L178,113L200,120Z" fill="rgb(245, 245, 245)" fill-opacity="0.72"/><path d="M119,162L118,125L84,114Z" fill="rgb(245, 246, 246)" fill-opacity="0.82"/><path d="M174,37L196,29L169,36Z" fill="rgb(205, 252, 253)" fill-opacity="0.28"/><path d="M114,118L113,116L104,118Z" fill="rgb(197, 20, 12)" fill-opacity="0.95"/><path d="M36,139L55,123L53,128Z" fill="rgb(114, 35, 32)" fill-opacity="0.72"/><path d="M125,282L132,129L197,118Z" fill="rgb(244, 244, 244)" fill-opacity="1.00"/><path d="M161,95L159,90L173,68Z" fill="rgb(120, 6, 4)" fill-opacity="0.41"/><path d="M13,-15L-4,47L33,43Z" fill="rgb(245, 245, 245)" fill-opacity="0.85"/><path d="M-20,100L53,109L45,88Z" fill="rgb(245, 246, 246)" fill-opacity="0.80"/><path d="M51,96L97,116L59,127Z" fill="rgb(243, 244, 244)" fill-opacity="0.85"/><path d="M221,56L221,51L238,41Z" fill="rgb(119, 99, 102)" fill-opacity="0.64"/><path d="M167,114L169,123L166,120Z" fill="rgb(90, 88, 92)" fill-opacity="0.71"/><path d="M186,-11L211,41L184,42Z" fill="rgb(245, 246, 246)" fill-opacity="0.72"/><path d="M159,24L109,-4L288,7Z" fill="rgb(246, 246, 246)" fill-opacity="0.77"/><path d="M213,32L240,24L194,77Z" fill="rgb(231, 15, 3)" fill-opacity="0.99"/><path d="M47,5L49,9L44,21Z" fill="rgb(3, 26, 28)" fill-opacity="0.40"/><path d="M153,28L158,31L194,6Z" fill="rgb(224, 229, 231)" fill-opacity="0.77"/><path d="M52,107L58,94L11,107Z" fill="rgb(246, 246, 246)" fill-opacity="0.58"/><path d="M223,90L214,60L222,79Z" fill="rgb(151, 161, 162)" fill-opacity="0.58"/><path d="M40,125L36,129L35,127Z" fill="rgb(151, 36, 32)" fill-opacity="0.56"/><path d="M165,70L217,38L216,57Z" fill="rgb(245, 14, 0)" fill-opacity="0.81"/><path d="M57,141L27,123L41,135Z" fill="rgb(219, 231, 233)" fill-opacity="0.51"/><path d="M170,87L171,110L170,112Z" fill="rgb(46, 0, 0)" fill-opacity="0.62"/><path d="M203,107L176,104L196,117Z" fill="rgb(227, 12, 0)" fill-opacity="0.73"/><path d="M134,12L230,28L188,34Z" fill="rgb(243, 244, 243)" fill-opacity="0.50"/><path d="M211,61L196,57L184,93Z" fill="rgb(191, 8, 1)" fill-opacity="0.46"/><path d="M48,131L57,127L96,158Z" fill="rgb(241, 243, 243)" fill-opacity="0.67"/><path d="M217,36L234,47L228,26Z" fill="rgb(178, 9, 2)" fill-opacity="0.46"/><path d="M212,128L204,134L187,96Z" fill="rgb(243, 14, 0)" fill-opacity="0.72"/><path d="M198,75L190,71L204,57Z" fill="rgb(255, 15, 0)" fill-opacity="0.64"/><path d="M164,120L146,118L170,98Z" fill="rgb(234, 15, 2)" fill-opacity="0.85"/><path d="M122,131L87,70L134,140Z" fill="rgb(244, 17, 3)" fill-opacity="0.75"/><path d="M210,161L213,93L379,-115Z" fill="rgb(246, 246, 246)" fill-opacity="0.89"/><path d="M42,104L36,121L-3,185Z" fill="rgb(228, 230, 230)" fill-opacity="0.64"/><path d="M115,141L93,106L59,110Z" fill="rgb(245, 245, 245)" fill-opacity="0.69"/><path d="M125,34L112,34L120,35Z" fill="rgb(25, 0, 0)" fill-opacity="0.68"/></svg>