<svg xmlns="http://www.w3.org/2000/svg" viewBox="0 0 256 143.0214876033058" clip-path="url(#clip)"><defs><clipPath id="clip" clipPathUnits="objectBoundingBox"><rect x="0" y="0" width="256" height="143.0214876033058"/></clipPath></defs><rect x="0" y="0" width="256" height="143.0214876033058" fill="#f6f6f6"/><path d="M153,202L240,31L-21,4Z" fill="rgb(210, 59, 78)" fill-opacity="0.96"/><path d="M74,-22L-90,45L59,43Z" fill="rgb(154, 173, 255)" fill-opacity="0.83"/><path d="M164,46L203,135L215,134Z" fill="rgb(235, 15, 3)" fill-opacity="0.88"/><path d="M194,121L302,253L3,114Z" fill="rgb(235, 204, 204)" fill-opacity="1.00"/><path d="M135,14L137,68L176,44Z" fill="rgb(0, 7, 247)" fill-opacity="0.87"/><path d="M226,83L109,138L162,50Z" fill="rgb(235, 5, 0)" fill-opacity="0.79"/><path d="M29,66L37,-12L-46,17Z" fill="rgb(248, 248, 245)" fill-opacity="0.95"/><path d="M194,53L172,21L223,23Z" fill="rgb(236, 239, 243)" fill-opacity="0.95"/><path d="M35,131L45,103L63,129Z" fill="rgb(219, 16, 4)" fill-opacity="0.78"/><path d="M56,106L140,16L24,57Z" fill="rgb(250, 8, 0)" fill-opacity="0.78"/><path d="M68,11L36,9L55,53Z" fill="rgb(8, 0, 225)" fill-opacity="0.90"/><path d="M60,47L43,10L32,40Z" fill="rgb(8, 2, 232)" fill-opacity="1.00"/><path d="M216,28L227,51L201,47Z" fill="rgb(3, 12, 237)" fill-opacity="0.80"/><path d="M221,41L232,11L242,26Z" fill="rgb(212, 21, 11)" fill-opacity="0.92"/><path d="M112,120L22,84L159,174Z" fill="rgb(241, 235, 235)" fill-opacity="0.96"/><path d="M28,49L132,139L136,32Z" fill="rgb(246, 12, 0)" fill-opacity="0.89"/><path d="M211,60L194,78L191,65Z" fill="rgb(44, 2, 171)" fill-opacity="0.98"/><path d="M233,33L217,74L250,23Z" fill="rgb(209, 221, 234)" fill-opacity="0.80"/><path d="M221,80L190,117L213,45Z" fill="rgb(219, 17, 5)" fill-opacity="0.86"/><path d="M102,123L79,59L184,65Z" fill="rgb(244, 13, 0)" fill-opacity="0.89"/><path d="M229,69L252,111L214,89Z" fill="rgb(242, 244, 244)" fill-opacity="0.82"/><path d="M159,23L137,47L133,19Z" fill="rgb(0, 10, 246)" fill-opacity="0.69"/><path d="M58,124L54,108L34,143Z" fill="rgb(200, 10, 0)" fill-opacity="0.58"/><path d="M223,-21L173,31L119,12Z" fill="rgb(240, 244, 244)" fill-opacity="0.72"/><path d="M36,84L115,68L32,39Z" fill="rgb(246, 14, 0)" fill-opacity="0.89"/><path d="M31,54L-21,77L36,99Z" fill="rgb(244, 244, 244)" fill-opacity="0.88"/><path d="M51,129L116,117L159,287Z" fill="rgb(226, 237, 243)" fill-opacity="0.65"/><path d="M167,45L174,31L172,61Z" fill="rgb(233, 224, 211)" fill-opacity="0.76"/><path d="M133,21L171,37L153,66Z" fill="rgb(0, 0, 236)" fill-opacity="0.74"/><path d="M72,106L152,101L35,80Z" fill="rgb(245, 16, 2)" fill-opacity="0.99"/><path d="M54,95L66,11L136,26Z" fill="rgb(242, 14, 1)" fill-opacity="0.97"/><path d="M161,123L194,65L177,31Z" fill="rgb(235, 16, 2)" fill-opacity="0.93"/><path d="M273,458L194,115L167,114Z" fill="rgb(244, 247, 247)" fill-opacity="0.90"/><path d="M71,132L69,136L56,124Z" fill="rgb(103, 77, 76)" fill-opacity="1.00"/><path d="M-61,77L28,47L71,-71Z" fill="rgb(246, 246, 245)" fill-opacity="0.89"/><path d="M55,127L90,104L100,115Z" fill="rgb(242, 239, 238)" fill-opacity="0.91"/><path d="M147,118L235,143L90,194Z" fill="rgb(244, 244, 244)" fill-opacity="0.98"/><path d="M196,43L230,40L236,46Z" fill="rgb(18, 8, 204)" fill-opacity="0.84"/><path d="M-54,124L44,135L22,110Z" fill="rgb(243, 245, 245)" fill-opacity="0.85"/><path d="M234,45L194,51L173,75Z" fill="rgb(225, 1, 0)" fill-opacity="0.65"/><path d="M218,28L209,42L225,54Z" fill="rgb(0, 8, 240)" fill-opacity="0.73"/><path d="M211,128L217,185L226,65Z" fill="rgb(244, 245, 245)" fill-opacity="0.95"/><path d="M193,53L206,-1L185,55Z" fill="rgb(240, 238, 237)" fill-opacity="0.96"/><path d="M23,3L36,-31L87,13Z" fill="rgb(245, 245, 244)" fill-opacity="0.98"/><path d="M164,20L151,31L213,19Z" fill="rgb(233, 235, 235)" fill-opacity="0.82"/><path d="M186,117L133,79L210,94Z" fill="rgb(235, 14, 0)" fill-opacity="0.92"/><path d="M47,109L59,112L31,122Z" fill="rgb(219, 13, 1)" fill-opacity="0.50"/><path d="M38,112L47,136L57,113Z" fill="rgb(230, 15, 2)" fill-opacity="0.75"/><path d="M194,87L207,137L212,137Z" fill="rgb(234, 14, 1)" fill-opacity="0.71"/><path d="M65,12L44,9L50,7Z" fill="rgb(11, 8, 185)" fill-opacity="0.75"/><path d="M97,141L87,126L102,136Z" fill="rgb(120, 120, 197)" fill-opacity="0.78"/><path d="M215,19L208,43L123,3Z" fill="rgb(246, 246, 246)" fill-opacity="0.83"/><path d="M169,41L167,52L133,52Z" fill="rgb(0, 0, 242)" fill-opacity="0.65"/><path d="M17,138L25,141L46,137Z" fill="rgb(182, 184, 185)" fill-opacity="0.78"/><path d="M36,81L34,85L45,86Z" fill="rgb(168, 184, 185)" fill-opacity="0.60"/><path d="M231,41L235,31L342,25Z" fill="rgb(243, 244, 244)" fill-opacity="0.94"/><path d="M71,112L56,95L-11,103Z" fill="rgb(243, 244, 244)" fill-opacity="0.93"/><path d="M162,83L139,124L98,115Z" fill="rgb(248, 15, 1)" fill-opacity="0.99"/><path d="M197,61L205,65L190,74Z" fill="rgb(0, 0, 234)" fill-opacity="0.77"/><path d="M234,14L132,-146L168,30Z" fill="rgb(245, 245, 245)" fill-opacity="0.99"/><path d="M47,127L58,125L39,138Z" fill="rgb(135, 50, 46)" fill-opacity="0.84"/><path d="M187,18L217,32L228,20Z" fill="rgb(244, 245, 245)" fill-opacity="0.72"/><path d="M131,139L115,131L130,133Z" fill="rgb(213, 19, 8)" fill-opacity="0.50"/><path d="M65,27L39,7L57,48Z" fill="rgb(0, 0, 233)" fill-opacity="0.72"/><path d="M167,40L176,30L173,56Z" fill="rgb(238, 252, 202)" fill-opacity="0.39"/><path d="M175,52L169,39L169,55Z" fill="rgb(245, 254, 255)" fill-opacity="0.67"/><path d="M140,63L158,61L135,47Z" fill="rgb(0, 0, 239)" fill-opacity="0.89"/><path d="M90,169L65,142L88,111Z" fill="rgb(250, 254, 253)" fill-opacity="0.55"/><path d="M134,38L159,24L146,21Z" fill="rgb(7, 7, 234)" fill-opacity="0.84"/><path d="M119,127L135,160L50,166Z" fill="rgb(243, 243, 243)" fill-opacity="1.00"/><path d="M218,51L220,90L213,64Z" fill="rgb(111, 40, 33)" fill-opacity="0.59"/><path d="M124,115L139,84L170,122Z" fill="rgb(237, 15, 0)" fill-opacity="0.63"/><path d="M133,81L153,61L163,80Z" fill="rgb(247, 14, 0)" fill-opacity="0.83"/><path d="M239,29L227,38L229,12Z" fill="rgb(224, 13, 0)" fill-opacity="0.58"/><path d="M156,-13L98,1L138,21Z" fill="rgb(245, 246, 246)" fill-opacity="0.59"/><path d="M38,121L-19,19L27,144Z" fill="rgb(245, 245, 245)" fill-opacity="0.85"/><path d="M232,42L196,51L204,42Z" fill="rgb(0, 3, 240)" fill-opacity="0.77"/><path d="M57,129L15,151L83,143Z" fill="rgb(244, 246, 245)" fill-opacity="0.78"/><path d="M100,135L95,140L94,133Z" fill="rgb(3, 3, 216)" fill-opacity="0.57"/><path d="M99,131L70,153L34,139Z" fill="rgb(245, 245, 245)" fill-opacity="0.81"/><path d="M180,28L178,88L173,41Z" fill="rgb(233, 22, 10)" fill-opacity="0.89"/><path d="M86,44L117,109L104,123Z" fill="rgb(248, 16, 2)" fill-opacity="0.73"/><path d="M34,31L33,69L29,52Z" fill="rgb(152, 2, 7)" fill-opacity="0.37"/><path d="M223,54L219,75L235,45Z" fill="rgb(235, 236, 236)" fill-opacity="0.94"/><path d="M221,29L238,27L220,37Z" fill="rgb(223, 2, 0)" fill-opacity="0.62"/><path d="M117,92L193,110L167,115Z" fill="rgb(214, 8, 0)" fill-opacity="0.63"/><path d="M117,81L113,39L154,72Z" fill="rgb(249, 12, 0)" fill-opacity="0.47"/><path d="M125,138L137,124L114,117Z" fill="rgb(227, 21, 8)" fill-opacity="0.69"/><path d="M173,29L182,31L165,35Z" fill="rgb(196, 28, 20)" fill-opacity="0.83"/><path d="M53,109L35,128L59,128Z" fill="rgb(244, 10, 0)" fill-opacity="0.64"/><path d="M215,66L219,75L254,97Z" fill="rgb(233, 237, 238)" fill-opacity="0.53"/><path d="M134,20L135,41L89,72Z" fill="rgb(243, 13, 0)" fill-opacity="0.87"/><path d="M198,50L162,72L223,55Z" fill="rgb(249, 12, 0)" fill-opacity="0.72"/><path d="M31,37L52,8L67,15Z" fill="rgb(1, 1, 248)" fill-opacity="0.82"/><path d="M220,83L158,101L169,114Z" fill="rgb(241, 14, 0)" fill-opacity="0.98"/><path d="M225,49L237,43L219,45Z" fill="rgb(125, 6, 3)" fill-opacity="0.41"/><path d="M28,63L-4,92L32,31Z" fill="rgb(244, 244, 244)" fill-opacity="0.96"/><path d="M164,26L158,34L168,26Z" fill="rgb(161, 23, 5)" fill-opacity="0.53"/><path d="M66,128L72,138L62,128Z" fill="rgb(8, 0, 1)" fill-opacity="0.51"/><path d="M160,90L157,104L168,76Z" fill="rgb(105, 3, 0)" fill-opacity="0.54"/></svg>