<svg xmlns="http://www.w3.org/2000/svg" viewBox="0 0 256 143.0214876033058" clip-path="url(#clip)"><defs><clipPath id="clip" clipPathUnits="objectBoundingBox"><rect x="0" y="0" width="256" height="143.0214876033058"/></clipPath></defs><rect x="0" y="0" width="256" height="143.0214876033058" fill="#f6f6f6"/><path d="M243,105L19,-144L39,136Z" fill="rgb(118, 18, 132)" fill-opacity="0.80"/><path d="M220,66L137,104L244,6Z" fill="rgb(21, 2, 204)" fill-opacity="0.89"/><path d="M111,-75L149,117L114,143Z" fill="rgb(255, 38, 9)" fill-opacity="0.83"/><path d="M342,0L174,25L-51,-3Z" fill="rgb(242, 243, 245)" fill-opacity="0.97"/><path d="M57,97L184,160L53,211Z" fill="rgb(234, 226, 228)" fill-opacity="1.00"/><path d="M90,25L55,96L81,108Z" fill="rgb(231, 14, 13)" fill-opacity="0.99"/><path d="M183,35L133,18L150,122Z" fill="rgb(6, 9, 238)" fill-opacity="0.89"/><path d="M206,114L153,89L215,141Z" fill="rgb(219, 2, 0)" fill-opacity="0.67"/><path d="M84,65L99,112L117,58Z" fill="rgb(0, 0, 240)" fill-opacity="0.90"/><path d="M201,104L267,32L228,170Z" fill="rgb(244, 244, 244)" fill-opacity="1.00"/><path d="M62,-59L61,103L27,62Z" fill="rgb(0, 2, 255)" fill-opacity="0.73"/><path d="M190,77L203,104L223,63Z" fill="rgb(228, 14, 0)" fill-opacity="0.85"/><path d="M19,73L75,108L11,112Z" fill="rgb(242, 243, 244)" fill-opacity="0.94"/><path d="M143,72L52,42L128,35Z" fill="rgb(241, 9, 0)" fill-opacity="0.90"/><path d="M173,78L175,32L167,37Z" fill="rgb(254, 167, 118)" fill-opacity="0.66"/><path d="M111,19L35,8L107,41Z" fill="rgb(6, 0, 233)" fill-opacity="0.87"/><path d="M131,104L104,123L93,105Z" fill="rgb(249, 20, 0)" fill-opacity="0.82"/><path d="M185,89L158,92L165,122Z" fill="rgb(220, 12, 11)" fill-opacity="0.88"/><path d="M40,139L59,117L41,108Z" fill="rgb(244, 30, 0)" fill-opacity="0.84"/><path d="M187,73L201,114L165,77Z" fill="rgb(0, 0, 230)" fill-opacity="0.80"/><path d="M60,10L236,25L-17,-11Z" fill="rgb(243, 243, 244)" fill-opacity="0.98"/><path d="M52,-16L29,45L-11,-26Z" fill="rgb(243, 244, 245)" fill-opacity="0.93"/><path d="M59,44L80,63L68,9Z" fill="rgb(230, 11, 6)" fill-opacity="0.87"/><path d="M54,116L115,136L90,104Z" fill="rgb(242, 242, 243)" fill-opacity="0.91"/><path d="M123,136L134,139L107,76Z" fill="rgb(240, 18, 10)" fill-opacity="0.91"/><path d="M230,13L224,43L242,25Z" fill="rgb(15, 15, 218)" fill-opacity="0.96"/><path d="M28,44L50,99L71,49Z" fill="rgb(0, 1, 249)" fill-opacity="0.89"/><path d="M172,51L170,78L183,67Z" fill="rgb(233, 14, 4)" fill-opacity="0.84"/><path d="M187,115L156,110L181,88Z" fill="rgb(233, 13, 1)" fill-opacity="0.91"/><path d="M107,117L122,241L117,121Z" fill="rgb(242, 242, 241)" fill-opacity="0.96"/><path d="M186,112L181,79L204,105Z" fill="rgb(0, 0, 242)" fill-opacity="0.85"/><path d="M201,74L184,77L175,23Z" fill="rgb(0, 14, 248)" fill-opacity="0.73"/><path d="M65,23L49,78L39,7Z" fill="rgb(0, 1, 238)" fill-opacity="0.89"/><path d="M82,105L88,55L108,105Z" fill="rgb(2, 0, 244)" fill-opacity="1.00"/><path d="M187,91L224,81L208,61Z" fill="rgb(225, 13, 0)" fill-opacity="0.70"/><path d="M246,-30L150,30L225,29Z" fill="rgb(243, 244, 243)" fill-opacity="0.77"/><path d="M49,171L192,114L199,122Z" fill="rgb(243, 243, 243)" fill-opacity="0.95"/><path d="M237,44L191,74L213,30Z" fill="rgb(0, 4, 226)" fill-opacity="0.76"/><path d="M102,117L132,15L145,119Z" fill="rgb(251, 5, 0)" fill-opacity="0.68"/><path d="M37,80L32,68L56,97Z" fill="rgb(13, 17, 240)" fill-opacity="0.91"/><path d="M71,132L40,115L69,135Z" fill="rgb(160, 49, 43)" fill-opacity="1.00"/><path d="M86,15L96,38L70,31Z" fill="rgb(5, 0, 241)" fill-opacity="0.97"/><path d="M171,126L165,111L142,114Z" fill="rgb(0, 10, 213)" fill-opacity="0.59"/><path d="M34,132L59,111L43,109Z" fill="rgb(246, 32, 0)" fill-opacity="0.56"/><path d="M61,129L28,132L74,142Z" fill="rgb(237, 255, 241)" fill-opacity="0.50"/><path d="M35,-65L34,1L47,13Z" fill="rgb(236, 236, 222)" fill-opacity="0.73"/><path d="M174,121L142,122L104,226Z" fill="rgb(245, 245, 245)" fill-opacity="0.99"/><path d="M137,34L109,44L110,17Z" fill="rgb(241, 12, 0)" fill-opacity="0.87"/><path d="M126,41L66,70L72,35Z" fill="rgb(242, 12, 0)" fill-opacity="0.83"/><path d="M113,17L73,33L79,39Z" fill="rgb(0, 0, 242)" fill-opacity="0.75"/><path d="M139,14L184,93L135,54Z" fill="rgb(0, 0, 242)" fill-opacity="0.60"/><path d="M149,119L143,91L169,121Z" fill="rgb(0, 0, 220)" fill-opacity="0.61"/><path d="M86,73L56,99L88,35Z" fill="rgb(245, 15, 0)" fill-opacity="0.80"/><path d="M39,158L-63,-63L31,58Z" fill="rgb(244, 244, 244)" fill-opacity="1.00"/><path d="M241,40L223,51L220,69Z" fill="rgb(226, 233, 211)" fill-opacity="0.54"/><path d="M135,19L138,68L156,23Z" fill="rgb(0, 0, 241)" fill-opacity="0.58"/><path d="M35,128L50,110L61,128Z" fill="rgb(238, 15, 0)" fill-opacity="0.77"/><path d="M86,57L114,60L106,102Z" fill="rgb(1, 0, 240)" fill-opacity="0.92"/><path d="M201,40L218,55L198,63Z" fill="rgb(0, 0, 251)" fill-opacity="0.70"/><path d="M198,78L183,89L146,92Z" fill="rgb(4, 0, 229)" fill-opacity="0.93"/><path d="M205,100L221,78L186,86Z" fill="rgb(232, 17, 3)" fill-opacity="0.87"/><path d="M219,58L208,60L221,81Z" fill="rgb(0, 35, 104)" fill-opacity="0.41"/><path d="M8,89L58,96L34,117Z" fill="rgb(246, 247, 245)" fill-opacity="0.80"/><path d="M107,40L144,71L135,128Z" fill="rgb(244, 14, 0)" fill-opacity="0.87"/><path d="M172,43L184,35L184,62Z" fill="rgb(0, 0, 246)" fill-opacity="0.72"/><path d="M58,125L40,138L29,141Z" fill="rgb(106, 85, 74)" fill-opacity="0.61"/><path d="M67,59L64,80L32,33Z" fill="rgb(2, 1, 242)" fill-opacity="0.99"/><path d="M181,53L169,57L178,76Z" fill="rgb(231, 6, 0)" fill-opacity="0.77"/><path d="M173,32L173,56L167,50Z" fill="rgb(238, 251, 251)" fill-opacity="0.78"/><path d="M143,80L146,105L185,73Z" fill="rgb(0, 0, 228)" fill-opacity="0.84"/><path d="M95,17L58,9L130,19Z" fill="rgb(230, 244, 240)" fill-opacity="0.73"/><path d="M217,105L736,-736L202,181Z" fill="rgb(245, 245, 245)" fill-opacity="1.00"/><path d="M171,29L181,29L193,61Z" fill="rgb(72, 81, 212)" fill-opacity="0.59"/><path d="M200,48L193,26L186,55Z" fill="rgb(239, 239, 242)" fill-opacity="0.96"/><path d="M133,133L106,113L110,79Z" fill="rgb(246, 15, 0)" fill-opacity="0.86"/><path d="M85,125L99,134L99,142Z" fill="rgb(47, 54, 184)" fill-opacity="0.50"/><path d="M159,104L134,21L152,121Z" fill="rgb(0, 0, 249)" fill-opacity="0.68"/><path d="M212,126L191,109L208,139Z" fill="rgb(238, 13, 1)" fill-opacity="0.75"/><path d="M239,-3L236,23L263,-12Z" fill="rgb(242, 242, 243)" fill-opacity="0.82"/><path d="M204,102L192,112L175,75Z" fill="rgb(0, 0, 241)" fill-opacity="0.66"/><path d="M111,80L125,135L148,115Z" fill="rgb(247, 15, 1)" fill-opacity="1.00"/><path d="M222,8L207,45L183,-47Z" fill="rgb(244, 244, 245)" fill-opacity="0.61"/><path d="M210,91L210,126L361,96Z" fill="rgb(246, 246, 246)" fill-opacity="0.90"/><path d="M6,117L26,124L45,121Z" fill="rgb(238, 229, 229)" fill-opacity="0.88"/><path d="M223,94L219,62L286,13Z" fill="rgb(244, 245, 246)" fill-opacity="0.62"/><path d="M115,73L110,60L111,82Z" fill="rgb(0, 0, 223)" fill-opacity="0.65"/><path d="M133,126L146,97L146,115Z" fill="rgb(251, 12, 0)" fill-opacity="0.77"/><path d="M144,100L164,25L169,41Z" fill="rgb(2, 2, 235)" fill-opacity="0.92"/><path d="M36,120L46,107L55,120Z" fill="rgb(235, 16, 0)" fill-opacity="0.56"/><path d="M108,107L108,59L81,101Z" fill="rgb(0, 0, 254)" fill-opacity="0.54"/><path d="M93,107L59,128L54,106Z" fill="rgb(240, 241, 242)" fill-opacity="0.87"/><path d="M269,62L218,81L232,99Z" fill="rgb(245, 245, 245)" fill-opacity="0.60"/><path d="M74,29L79,64L60,34Z" fill="rgb(252, 14, 0)" fill-opacity="0.60"/><path d="M210,62L195,79L216,74Z" fill="rgb(248, 12, 0)" fill-opacity="0.74"/><path d="M176,51L204,59L172,54Z" fill="rgb(0, 5, 221)" fill-opacity="0.65"/><path d="M174,19L86,-122L-20,18Z" fill="rgb(245, 245, 245)" fill-opacity="1.00"/><path d="M59,96L75,108L73,43Z" fill="rgb(250, 16, 0)" fill-opacity="0.75"/><path d="M205,39L182,-16L189,56Z" fill="rgb(245, 245, 245)" fill-opacity="0.79"/><path d="M-49,37L43,85L55,111Z" fill="rgb(244, 245, 244)" fill-opacity="0.72"/><path d="M183,114L186,139L167,115Z" fill="rgb(242, 242, 242)" fill-opacity="1.00"/></svg>