<svg xmlns="http://www.w3.org/2000/svg" viewBox="0 0 256 143.0214876033058" clip-path="url(#clip)"><defs><clipPath id="clip" clipPathUnits="objectBoundingBox"><rect x="0" y="0" width="256" height="143.0214876033058"/></clipPath></defs><rect x="0" y="0" width="256" height="143.0214876033058" fill="#f6f6f6"/><path d="M76,-185L230,135L24,95Z" fill="rgb(141, 46, 139)" fill-opacity="0.94"/><path d="M242,10L139,98L216,80Z" fill="rgb(46, 7, 184)" fill-opacity="0.93"/><path d="M71,133L36,131L43,104Z" fill="rgb(205, 27, 17)" fill-opacity="0.77"/><path d="M270,65L225,176L202,100Z" fill="rgb(245, 245, 245)" fill-opacity="0.98"/><path d="M18,5L74,-152L201,29Z" fill="rgb(240, 240, 243)" fill-opacity="0.99"/><path d="M137,161L136,21L58,12Z" fill="rgb(238, 13, 5)" fill-opacity="0.90"/><path d="M167,25L131,48L171,97Z" fill="rgb(0, 0, 234)" fill-opacity="0.92"/><path d="M108,80L107,118L23,70Z" fill="rgb(25, 9, 226)" fill-opacity="0.96"/><path d="M152,119L91,103L101,120Z" fill="rgb(246, 20, 1)" fill-opacity="0.84"/><path d="M201,110L225,58L154,110Z" fill="rgb(232, 20, 8)" fill-opacity="0.93"/><path d="M128,138L148,112L129,15Z" fill="rgb(243, 16, 2)" fill-opacity="0.91"/><path d="M199,117L168,113L170,220Z" fill="rgb(240, 241, 242)" fill-opacity="0.95"/><path d="M26,52L55,-12L72,110Z" fill="rgb(0, 2, 255)" fill-opacity="0.79"/><path d="M132,17L171,32L152,127Z" fill="rgb(1, 5, 243)" fill-opacity="0.87"/><path d="M59,43L90,81L72,10Z" fill="rgb(231, 14, 9)" fill-opacity="0.98"/><path d="M173,59L177,20L155,25Z" fill="rgb(191, 255, 255)" fill-opacity="0.36"/><path d="M31,1L135,-140L59,10Z" fill="rgb(243, 243, 244)" fill-opacity="1.00"/><path d="M119,156L136,123L147,163Z" fill="rgb(230, 234, 234)" fill-opacity="0.86"/><path d="M181,112L223,81L208,60Z" fill="rgb(227, 16, 6)" fill-opacity="0.94"/><path d="M216,150L203,109L190,111Z" fill="rgb(0, 24, 252)" fill-opacity="0.71"/><path d="M71,47L28,54L52,100Z" fill="rgb(0, 4, 249)" fill-opacity="0.85"/><path d="M15,52L61,107L-5,115Z" fill="rgb(242, 243, 245)" fill-opacity="0.95"/><path d="M236,45L152,99L240,6Z" fill="rgb(0, 10, 255)" fill-opacity="0.48"/><path d="M107,123L61,128L41,89Z" fill="rgb(238, 235, 237)" fill-opacity="0.93"/><path d="M177,79L168,58L182,53Z" fill="rgb(224, 1, 0)" fill-opacity="0.75"/><path d="M40,9L36,86L68,11Z" fill="rgb(2, 4, 241)" fill-opacity="0.92"/><path d="M166,116L217,83L158,93Z" fill="rgb(235, 13, 2)" fill-opacity="0.95"/><path d="M144,85L66,75L74,13Z" fill="rgb(241, 13, 1)" fill-opacity="1.00"/><path d="M81,126L92,128L108,146Z" fill="rgb(99, 99, 180)" fill-opacity="0.53"/><path d="M35,141L54,104L58,128Z" fill="rgb(205, 10, 0)" fill-opacity="0.51"/><path d="M188,38L186,67L163,28Z" fill="rgb(0, 28, 255)" fill-opacity="0.64"/><path d="M174,30L168,44L172,56Z" fill="rgb(238, 243, 233)" fill-opacity="0.77"/><path d="M227,29L192,31L229,13Z" fill="rgb(240, 240, 240)" fill-opacity="0.84"/><path d="M205,28L211,-64L156,29Z" fill="rgb(245, 246, 245)" fill-opacity="0.78"/><path d="M108,104L72,106L33,78Z" fill="rgb(3, 5, 244)" fill-opacity="0.94"/><path d="M218,19L182,44L190,23Z" fill="rgb(242, 242, 243)" fill-opacity="0.95"/><path d="M182,70L180,53L168,77Z" fill="rgb(219, 11, 2)" fill-opacity="0.82"/><path d="M204,99L235,162L201,110Z" fill="rgb(237, 237, 239)" fill-opacity="0.94"/><path d="M224,38L243,26L230,13Z" fill="rgb(1, 5, 213)" fill-opacity="0.73"/><path d="M223,67L214,71L227,47Z" fill="rgb(150, 164, 210)" fill-opacity="0.78"/><path d="M-37,197L36,82L25,33Z" fill="rgb(244, 244, 245)" fill-opacity="1.00"/><path d="M72,132L59,127L69,136Z" fill="rgb(10, 41, 44)" fill-opacity="0.59"/><path d="M48,131L106,158L56,127Z" fill="rgb(236, 236, 236)" fill-opacity="0.94"/><path d="M164,111L147,116L167,121Z" fill="rgb(8, 7, 221)" fill-opacity="0.98"/><path d="M232,33L313,28L231,42Z" fill="rgb(242, 242, 241)" fill-opacity="0.93"/><path d="M170,91L234,43L214,30Z" fill="rgb(0, 3, 232)" fill-opacity="0.79"/><path d="M130,127L142,124L150,112Z" fill="rgb(178, 9, 6)" fill-opacity="0.49"/><path d="M240,23L289,4L223,-4Z" fill="rgb(244, 244, 244)" fill-opacity="0.98"/><path d="M36,117L47,136L56,110Z" fill="rgb(229, 20, 8)" fill-opacity="0.79"/><path d="M143,82L149,119L160,105Z" fill="rgb(0, 0, 230)" fill-opacity="0.89"/><path d="M178,110L165,116L207,111Z" fill="rgb(2, 15, 196)" fill-opacity="0.56"/><path d="M193,141L212,136L280,162Z" fill="rgb(240, 240, 240)" fill-opacity="1.00"/><path d="M195,168L168,122L145,118Z" fill="rgb(241, 241, 241)" fill-opacity="0.87"/><path d="M84,107L90,103L99,115Z" fill="rgb(232, 243, 229)" fill-opacity="0.66"/><path d="M25,0L51,-30L46,11Z" fill="rgb(236, 236, 237)" fill-opacity="0.96"/><path d="M144,68L99,113L137,126Z" fill="rgb(249, 13, 0)" fill-opacity="0.89"/><path d="M143,146L115,131L156,200Z" fill="rgb(241, 241, 241)" fill-opacity="1.00"/><path d="M178,31L134,53L161,29Z" fill="rgb(6, 5, 227)" fill-opacity="0.96"/><path d="M91,106L45,76L112,80Z" fill="rgb(0, 0, 246)" fill-opacity="0.76"/><path d="M58,8L65,31L30,36Z" fill="rgb(0, 0, 247)" fill-opacity="0.62"/><path d="M105,18L58,10L193,21Z" fill="rgb(231, 229, 233)" fill-opacity="0.98"/><path d="M38,115L55,111L42,109Z" fill="rgb(210, 16, 5)" fill-opacity="0.73"/><path d="M157,110L177,116L162,88Z" fill="rgb(225, 14, 0)" fill-opacity="0.63"/><path d="M222,67L214,69L213,54Z" fill="rgb(0, 21, 158)" fill-opacity="0.63"/><path d="M211,41L194,44L191,-2Z" fill="rgb(241, 241, 243)" fill-opacity="0.86"/><path d="M215,92L212,71L189,77Z" fill="rgb(235, 16, 6)" fill-opacity="0.76"/><path d="M101,122L115,116L97,179Z" fill="rgb(241, 238, 237)" fill-opacity="0.69"/><path d="M219,103L222,53L261,40Z" fill="rgb(243, 244, 244)" fill-opacity="0.75"/><path d="M192,53L190,88L166,91Z" fill="rgb(0, 0, 242)" fill-opacity="0.65"/><path d="M171,57L159,97L137,59Z" fill="rgb(0, 0, 237)" fill-opacity="0.91"/><path d="M173,41L184,34L175,56Z" fill="rgb(0, 0, 255)" fill-opacity="0.60"/><path d="M32,35L70,51L34,74Z" fill="rgb(1, 0, 242)" fill-opacity="0.98"/><path d="M79,108L107,99L88,77Z" fill="rgb(0, 1, 251)" fill-opacity="0.67"/><path d="M49,9L46,6L45,18Z" fill="rgb(42, 41, 54)" fill-opacity="0.64"/><path d="M48,31L47,95L75,95Z" fill="rgb(0, 0, 243)" fill-opacity="0.80"/><path d="M200,42L237,43L205,59Z" fill="rgb(4, 4, 227)" fill-opacity="0.86"/><path d="M109,81L36,84L108,97Z" fill="rgb(0, 1, 247)" fill-opacity="0.79"/><path d="M95,150L95,128L107,165Z" fill="rgb(0, 0, 224)" fill-opacity="0.33"/><path d="M188,81L180,57L215,48Z" fill="rgb(0, 0, 237)" fill-opacity="0.87"/><path d="M39,130L30,120L27,194Z" fill="rgb(232, 232, 232)" fill-opacity="1.00"/><path d="M162,123L142,61L146,107Z" fill="rgb(0, 0, 237)" fill-opacity="0.68"/><path d="M154,54L158,101L143,99Z" fill="rgb(0, 0, 247)" fill-opacity="0.73"/><path d="M189,45L203,46L185,57Z" fill="rgb(220, 231, 239)" fill-opacity="0.65"/><path d="M166,19L161,30L150,31Z" fill="rgb(196, 198, 196)" fill-opacity="0.70"/><path d="M203,116L174,113L184,109Z" fill="rgb(0, 3, 229)" fill-opacity="0.66"/><path d="M102,53L123,136L132,138Z" fill="rgb(248, 17, 3)" fill-opacity="0.92"/><path d="M100,137L94,140L97,131Z" fill="rgb(4, 3, 202)" fill-opacity="0.50"/><path d="M199,106L214,134L200,131Z" fill="rgb(0, 0, 241)" fill-opacity="0.64"/><path d="M178,31L174,47L192,69Z" fill="rgb(0, 0, 245)" fill-opacity="0.82"/><path d="M132,129L144,121L134,228Z" fill="rgb(240, 242, 242)" fill-opacity="0.89"/><path d="M162,85L169,38L134,22Z" fill="rgb(0, 0, 241)" fill-opacity="0.90"/><path d="M58,128L55,110L34,128Z" fill="rgb(236, 14, 1)" fill-opacity="0.78"/><path d="M19,138L21,140L33,140Z" fill="rgb(95, 95, 95)" fill-opacity="0.60"/><path d="M36,85L35,80L42,85Z" fill="rgb(165, 165, 168)" fill-opacity="0.81"/><path d="M159,24L138,19L136,42Z" fill="rgb(0, 5, 246)" fill-opacity="0.67"/><path d="M233,89L217,72L233,45Z" fill="rgb(247, 246, 243)" fill-opacity="0.53"/><path d="M150,36L141,17L135,28Z" fill="rgb(5, 5, 247)" fill-opacity="0.83"/><path d="M76,123L78,123L78,126Z" fill="rgb(0, 0, 98)" fill-opacity="0.52"/><path d="M214,66L221,77L218,87Z" fill="rgb(97, 43, 40)" fill-opacity="0.63"/><path d="M47,104L89,143L55,94Z" fill="rgb(244, 245, 245)" fill-opacity="0.82"/></svg>