<svg xmlns="http://www.w3.org/2000/svg" viewBox="0 0 256 143.0214876033058" clip-path="url(#clip)"><defs><clipPath id="clip" clipPathUnits="objectBoundingBox"><rect x="0" y="0" width="256" height="143.0214876033058"/></clipPath></defs><rect x="0" y="0" width="256" height="143.0214876033058" fill="#f6f6f6"/><path d="M35,-66L39,137L255,102Z" fill="rgb(181, 22, 69)" fill-opacity="0.83"/><path d="M243,22L217,69L120,35Z" fill="rgb(44, 32, 209)" fill-opacity="0.72"/><path d="M23,46L198,55L211,134Z" fill="rgb(224, 0, 0)" fill-opacity="0.67"/><path d="M26,46L45,109L80,-55Z" fill="rgb(47, 40, 232)" fill-opacity="0.84"/><path d="M167,25L131,50L171,79Z" fill="rgb(0, 2, 236)" fill-opacity="0.90"/><path d="M-77,-121L17,18L319,22Z" fill="rgb(239, 237, 241)" fill-opacity="1.00"/><path d="M106,174L138,130L28,86Z" fill="rgb(236, 217, 218)" fill-opacity="1.00"/><path d="M236,9L167,-16L190,56Z" fill="rgb(244, 243, 244)" fill-opacity="0.96"/><path d="M180,88L73,10L124,138Z" fill="rgb(238, 13, 4)" fill-opacity="0.94"/><path d="M95,13L79,109L42,56Z" fill="rgb(244, 14, 0)" fill-opacity="0.95"/><path d="M200,107L292,269L245,48Z" fill="rgb(244, 244, 244)" fill-opacity="0.99"/><path d="M198,67L233,12L241,25Z" fill="rgb(27, 5, 204)" fill-opacity="0.87"/><path d="M158,23L139,67L134,20Z" fill="rgb(4, 5, 238)" fill-opacity="0.94"/><path d="M111,79L104,111L78,82Z" fill="rgb(0, 0, 238)" fill-opacity="0.86"/><path d="M86,76L108,104L81,106Z" fill="rgb(4, 2, 243)" fill-opacity="0.99"/><path d="M48,2L36,26L35,5Z" fill="rgb(204, 227, 255)" fill-opacity="0.78"/><path d="M65,28L31,69L41,8Z" fill="rgb(0, 0, 239)" fill-opacity="0.85"/><path d="M31,70L59,101L57,75Z" fill="rgb(0, 5, 254)" fill-opacity="0.83"/><path d="M124,112L95,103L102,122Z" fill="rgb(243, 14, 0)" fill-opacity="0.81"/><path d="M209,158L167,115L194,114Z" fill="rgb(241, 241, 240)" fill-opacity="0.93"/><path d="M170,63L214,131L206,139Z" fill="rgb(243, 14, 0)" fill-opacity="0.71"/><path d="M109,88L222,66L161,123Z" fill="rgb(233, 13, 0)" fill-opacity="0.87"/><path d="M228,-42L228,28L180,35Z" fill="rgb(246, 246, 244)" fill-opacity="0.85"/><path d="M139,125L134,21L64,13Z" fill="rgb(243, 14, 1)" fill-opacity="1.00"/><path d="M92,106L121,142L23,99Z" fill="rgb(243, 246, 245)" fill-opacity="0.72"/><path d="M181,53L195,119L221,68Z" fill="rgb(231, 13, 0)" fill-opacity="0.79"/><path d="M34,128L54,107L58,128Z" fill="rgb(239, 18, 0)" fill-opacity="0.86"/><path d="M24,121L4,53L59,100Z" fill="rgb(242, 244, 245)" fill-opacity="0.80"/><path d="M154,63L139,59L173,84Z" fill="rgb(137, 7, 86)" fill-opacity="1.00"/><path d="M29,28L-34,119L31,80Z" fill="rgb(245, 245, 245)" fill-opacity="0.95"/><path d="M237,42L210,64L199,42Z" fill="rgb(0, 1, 219)" fill-opacity="0.85"/><path d="M31,196L114,152L51,126Z" fill="rgb(234, 238, 237)" fill-opacity="0.84"/><path d="M59,87L69,106L86,107Z" fill="rgb(231, 6, 1)" fill-opacity="0.66"/><path d="M189,47L178,29L173,57Z" fill="rgb(1, 3, 234)" fill-opacity="0.75"/><path d="M114,80L67,12L54,76Z" fill="rgb(242, 13, 0)" fill-opacity="0.94"/><path d="M230,23L219,69L194,53Z" fill="rgb(7, 0, 204)" fill-opacity="0.68"/><path d="M198,51L171,113L172,61Z" fill="rgb(243, 14, 0)" fill-opacity="0.84"/><path d="M49,97L63,87L28,45Z" fill="rgb(0, 1, 248)" fill-opacity="0.82"/><path d="M40,11L65,31L61,10Z" fill="rgb(0, 0, 230)" fill-opacity="0.92"/><path d="M226,26L231,38L225,41Z" fill="rgb(197, 11, 9)" fill-opacity="0.90"/><path d="M135,85L48,43L44,58Z" fill="rgb(246, 14, 1)" fill-opacity="0.93"/><path d="M90,78L81,103L112,82Z" fill="rgb(3, 0, 242)" fill-opacity="0.90"/><path d="M171,32L174,53L167,55Z" fill="rgb(234, 248, 233)" fill-opacity="0.75"/><path d="M46,108L35,128L54,129Z" fill="rgb(225, 25, 12)" fill-opacity="0.90"/><path d="M175,31L136,30L142,65Z" fill="rgb(0, 0, 243)" fill-opacity="0.72"/><path d="M168,51L169,35L177,33Z" fill="rgb(239, 247, 196)" fill-opacity="0.57"/><path d="M62,102L56,134L81,108Z" fill="rgb(243, 249, 247)" fill-opacity="0.71"/><path d="M235,41L220,53L240,43Z" fill="rgb(131, 131, 116)" fill-opacity="0.51"/><path d="M88,72L55,95L76,107Z" fill="rgb(252, 11, 0)" fill-opacity="0.62"/><path d="M156,61L106,106L129,140Z" fill="rgb(245, 15, 1)" fill-opacity="0.95"/><path d="M49,122L70,135L71,132Z" fill="rgb(124, 48, 45)" fill-opacity="0.99"/><path d="M88,126L98,141L99,135Z" fill="rgb(31, 45, 192)" fill-opacity="0.55"/><path d="M215,61L218,28L194,62Z" fill="rgb(0, 0, 249)" fill-opacity="0.63"/><path d="M178,4L151,31L174,28Z" fill="rgb(227, 231, 227)" fill-opacity="0.58"/><path d="M66,11L59,48L31,36Z" fill="rgb(0, 0, 243)" fill-opacity="0.75"/><path d="M164,95L186,117L220,82Z" fill="rgb(240, 15, 2)" fill-opacity="0.93"/><path d="M222,65L203,59L216,70Z" fill="rgb(51, 18, 90)" fill-opacity="0.64"/><path d="M206,43L162,22L211,39Z" fill="rgb(237, 238, 236)" fill-opacity="0.73"/><path d="M60,98L12,83L67,119Z" fill="rgb(245, 245, 244)" fill-opacity="0.88"/><path d="M7,139L36,141L43,131Z" fill="rgb(222, 221, 222)" fill-opacity="1.00"/><path d="M279,115L260,12L230,36Z" fill="rgb(244, 244, 243)" fill-opacity="0.83"/><path d="M53,54L85,84L65,102Z" fill="rgb(246, 14, 0)" fill-opacity="0.89"/><path d="M178,121L229,146L153,121Z" fill="rgb(241, 242, 242)" fill-opacity="0.80"/><path d="M35,83L45,77L44,31Z" fill="rgb(1, 1, 248)" fill-opacity="0.82"/><path d="M230,46L235,14L229,15Z" fill="rgb(3, 1, 229)" fill-opacity="0.77"/><path d="M6,-2L96,17L281,13Z" fill="rgb(245, 245, 245)" fill-opacity="0.97"/><path d="M221,58L211,32L221,30Z" fill="rgb(2, 3, 241)" fill-opacity="0.80"/><path d="M133,138L108,109L126,137Z" fill="rgb(224, 22, 11)" fill-opacity="0.66"/><path d="M167,115L136,116L169,122Z" fill="rgb(197, 26, 15)" fill-opacity="0.69"/><path d="M187,-8L91,-9L146,22Z" fill="rgb(244, 245, 245)" fill-opacity="0.85"/><path d="M164,85L163,24L172,70Z" fill="rgb(0, 0, 236)" fill-opacity="0.66"/><path d="M94,129L82,126L93,132Z" fill="rgb(12, 31, 74)" fill-opacity="0.39"/><path d="M219,74L224,51L310,224Z" fill="rgb(244, 244, 244)" fill-opacity="1.00"/><path d="M35,119L52,108L46,122Z" fill="rgb(234, 19, 0)" fill-opacity="0.51"/><path d="M204,97L191,55L221,79Z" fill="rgb(234, 12, 0)" fill-opacity="0.78"/><path d="M-26,113L31,44L43,-12Z" fill="rgb(245, 245, 245)" fill-opacity="0.94"/><path d="M221,243L281,-101L211,124Z" fill="rgb(245, 245, 245)" fill-opacity="1.00"/><path d="M133,126L161,118L131,134Z" fill="rgb(202, 228, 230)" fill-opacity="0.51"/><path d="M174,92L152,63L131,63Z" fill="rgb(242, 13, 0)" fill-opacity="0.89"/><path d="M208,61L221,77L167,76Z" fill="rgb(220, 12, 0)" fill-opacity="0.71"/><path d="M39,136L45,136L21,143Z" fill="rgb(111, 114, 112)" fill-opacity="0.47"/><path d="M58,95L33,32L30,57Z" fill="rgb(1, 1, 248)" fill-opacity="0.87"/><path d="M164,157L121,134L62,146Z" fill="rgb(242, 245, 245)" fill-opacity="0.85"/><path d="M45,60L131,37L67,94Z" fill="rgb(243, 14, 0)" fill-opacity="1.00"/><path d="M100,118L94,104L108,122Z" fill="rgb(223, 26, 13)" fill-opacity="0.75"/><path d="M188,48L172,38L181,55Z" fill="rgb(0, 1, 246)" fill-opacity="0.83"/><path d="M130,132L132,140L132,127Z" fill="rgb(86, 23, 25)" fill-opacity="0.55"/><path d="M42,110L30,56L-140,129Z" fill="rgb(245, 245, 245)" fill-opacity="0.97"/><path d="M147,115L125,136L107,78Z" fill="rgb(252, 15, 1)" fill-opacity="0.64"/><path d="M134,22L142,65L142,17Z" fill="rgb(0, 2, 247)" fill-opacity="0.73"/><path d="M96,131L94,139L100,140Z" fill="rgb(8, 14, 219)" fill-opacity="0.46"/><path d="M15,177L64,130L53,128Z" fill="rgb(241, 245, 244)" fill-opacity="0.72"/><path d="M27,140L4,130L43,119Z" fill="rgb(234, 238, 239)" fill-opacity="0.39"/><path d="M224,37L229,42L227,27Z" fill="rgb(221, 6, 0)" fill-opacity="0.64"/><path d="M165,81L134,26L171,69Z" fill="rgb(0, 0, 248)" fill-opacity="0.62"/><path d="M187,49L186,56L226,20Z" fill="rgb(239, 237, 234)" fill-opacity="0.82"/><path d="M48,10L46,17L46,6Z" fill="rgb(31, 38, 5)" fill-opacity="0.71"/><path d="M110,81L81,109L84,77Z" fill="rgb(0, 0, 240)" fill-opacity="0.49"/><path d="M60,149L79,123L126,170Z" fill="rgb(246, 248, 248)" fill-opacity="0.80"/><path d="M53,110L57,95L-22,94Z" fill="rgb(245, 245, 245)" fill-opacity="0.94"/></svg>