<svg xmlns="http://www.w3.org/2000/svg" viewBox="0 0 256 143.0214876033058" clip-path="url(#clip)"><defs><clipPath id="clip" clipPathUnits="objectBoundingBox"><rect x="0" y="0" width="256" height="143.0214876033058"/></clipPath></defs><rect x="0" y="0" width="256" height="143.0214876033058" fill="#f6f6f6"/><path d="M24,95L228,136L80,-43Z" fill="rgb(197, 50, 84)" fill-opacity="0.95"/><path d="M211,98L191,54L241,10Z" fill="rgb(83, 13, 147)" fill-opacity="0.91"/><path d="M218,-157L34,6L189,30Z" fill="rgb(239, 242, 246)" fill-opacity="0.96"/><path d="M71,134L45,104L34,130Z" fill="rgb(205, 30, 21)" fill-opacity="0.76"/><path d="M131,140L161,47L36,54Z" fill="rgb(243, 12, 0)" fill-opacity="0.93"/><path d="M70,4L37,101L29,26Z" fill="rgb(0, 19, 255)" fill-opacity="0.72"/><path d="M62,88L31,37L49,99Z" fill="rgb(9, 9, 244)" fill-opacity="0.95"/><path d="M193,113L251,254L131,129Z" fill="rgb(243, 242, 242)" fill-opacity="0.97"/><path d="M186,33L166,82L127,16Z" fill="rgb(0, 18, 249)" fill-opacity="0.70"/><path d="M293,0L227,169L201,104Z" fill="rgb(244, 244, 244)" fill-opacity="1.00"/><path d="M174,49L228,78L159,123Z" fill="rgb(235, 13, 0)" fill-opacity="0.85"/><path d="M24,59L-27,62L69,123Z" fill="rgb(240, 240, 242)" fill-opacity="0.94"/><path d="M160,57L187,41L188,53Z" fill="rgb(52, 48, 224)" fill-opacity="1.00"/><path d="M41,49L138,15L74,109Z" fill="rgb(244, 12, 0)" fill-opacity="0.87"/><path d="M152,42L167,111L129,128Z" fill="rgb(237, 12, 0)" fill-opacity="0.91"/><path d="M67,10L58,49L38,9Z" fill="rgb(1, 4, 238)" fill-opacity="0.87"/><path d="M64,132L63,124L21,143Z" fill="rgb(197, 183, 183)" fill-opacity="0.97"/><path d="M242,25L233,9L204,66Z" fill="rgb(0, 17, 238)" fill-opacity="0.70"/><path d="M96,17L175,21L131,-149Z" fill="rgb(244, 244, 244)" fill-opacity="1.00"/><path d="M102,124L136,23L64,12Z" fill="rgb(243, 14, 0)" fill-opacity="0.93"/><path d="M232,138L226,45L219,70Z" fill="rgb(236, 239, 242)" fill-opacity="0.87"/><path d="M167,47L173,31L173,59Z" fill="rgb(253, 246, 219)" fill-opacity="0.78"/><path d="M212,61L125,96L199,118Z" fill="rgb(235, 12, 0)" fill-opacity="0.88"/><path d="M54,95L-94,94L85,113Z" fill="rgb(244, 243, 243)" fill-opacity="1.00"/><path d="M75,73L160,57L154,46Z" fill="rgb(245, 14, 2)" fill-opacity="0.93"/><path d="M96,140L101,137L86,124Z" fill="rgb(104, 104, 189)" fill-opacity="0.78"/><path d="M97,17L60,10L120,-172Z" fill="rgb(242, 242, 242)" fill-opacity="0.98"/><path d="M35,119L59,129L54,109Z" fill="rgb(238, 13, 0)" fill-opacity="0.80"/><path d="M205,115L198,127L213,142Z" fill="rgb(237, 23, 0)" fill-opacity="0.71"/><path d="M169,49L135,46L140,17Z" fill="rgb(1, 1, 245)" fill-opacity="0.93"/><path d="M38,87L29,48L55,7Z" fill="rgb(4, 4, 242)" fill-opacity="0.96"/><path d="M213,30L195,64L237,44Z" fill="rgb(1, 7, 232)" fill-opacity="0.81"/><path d="M171,71L205,99L196,50Z" fill="rgb(230, 14, 2)" fill-opacity="0.94"/><path d="M20,63L51,-71L38,24Z" fill="rgb(240, 240, 242)" fill-opacity="1.00"/><path d="M155,55L65,16L60,97Z" fill="rgb(243, 13, 0)" fill-opacity="0.92"/><path d="M115,118L125,140L72,122Z" fill="rgb(239, 234, 235)" fill-opacity="0.97"/><path d="M151,30L228,29L228,-24Z" fill="rgb(243, 245, 243)" fill-opacity="0.69"/><path d="M165,147L168,114L193,115Z" fill="rgb(239, 237, 237)" fill-opacity="0.94"/><path d="M57,7L38,8L47,13Z" fill="rgb(65, 87, 191)" fill-opacity="0.64"/><path d="M70,83L106,121L157,59Z" fill="rgb(243, 15, 1)" fill-opacity="1.00"/><path d="M226,50L213,68L199,41Z" fill="rgb(0, 4, 218)" fill-opacity="0.80"/><path d="M211,43L185,-53L180,35Z" fill="rgb(244, 244, 244)" fill-opacity="0.70"/><path d="M166,34L154,67L172,76Z" fill="rgb(0, 0, 240)" fill-opacity="0.70"/><path d="M-108,-45L32,62L37,135Z" fill="rgb(245, 245, 245)" fill-opacity="0.99"/><path d="M223,-1L246,31L274,-51Z" fill="rgb(243, 243, 244)" fill-opacity="0.92"/><path d="M56,112L65,113L60,137Z" fill="rgb(235, 234, 234)" fill-opacity="0.92"/><path d="M37,129L41,107L50,136Z" fill="rgb(203, 29, 20)" fill-opacity="0.67"/><path d="M197,62L241,15L197,50Z" fill="rgb(0, 0, 255)" fill-opacity="0.50"/><path d="M153,40L166,24L170,80Z" fill="rgb(0, 0, 243)" fill-opacity="0.71"/><path d="M184,118L219,84L212,63Z" fill="rgb(237, 17, 1)" fill-opacity="0.78"/><path d="M42,135L48,126L57,126Z" fill="rgb(102, 11, 7)" fill-opacity="0.61"/><path d="M60,95L28,52L48,95Z" fill="rgb(3, 7, 244)" fill-opacity="0.73"/><path d="M199,127L195,101L214,132Z" fill="rgb(245, 17, 0)" fill-opacity="0.69"/><path d="M48,66L42,54L101,115Z" fill="rgb(233, 20, 12)" fill-opacity="0.88"/><path d="M176,159L160,120L142,119Z" fill="rgb(240, 245, 244)" fill-opacity="0.76"/><path d="M213,136L203,138L217,177Z" fill="rgb(232, 231, 232)" fill-opacity="1.00"/><path d="M242,39L214,92L306,374Z" fill="rgb(246, 246, 246)" fill-opacity="0.66"/><path d="M41,14L32,42L67,12Z" fill="rgb(0, 0, 243)" fill-opacity="0.73"/><path d="M144,21L163,24L145,28Z" fill="rgb(0, 0, 205)" fill-opacity="0.54"/><path d="M76,107L140,94L134,24Z" fill="rgb(244, 14, 0)" fill-opacity="1.00"/><path d="M49,7L47,16L68,15Z" fill="rgb(0, 0, 251)" fill-opacity="0.67"/><path d="M174,55L176,27L189,47Z" fill="rgb(0, 12, 247)" fill-opacity="0.61"/><path d="M209,61L199,62L200,75Z" fill="rgb(190, 7, 0)" fill-opacity="0.72"/><path d="M125,140L78,16L131,20Z" fill="rgb(246, 14, 0)" fill-opacity="0.83"/><path d="M169,36L176,38L177,32Z" fill="rgb(204, 208, 191)" fill-opacity="0.83"/><path d="M71,132L69,136L55,124Z" fill="rgb(3, 5, 7)" fill-opacity="0.50"/><path d="M93,106L106,148L85,105Z" fill="rgb(242, 240, 240)" fill-opacity="1.00"/><path d="M225,-17L185,54L198,50Z" fill="rgb(241, 242, 242)" fill-opacity="0.91"/><path d="M33,34L55,46L65,27Z" fill="rgb(0, 0, 251)" fill-opacity="0.78"/><path d="M201,109L273,43L216,135Z" fill="rgb(245, 245, 245)" fill-opacity="0.85"/><path d="M44,91L24,62L34,130Z" fill="rgb(241, 242, 240)" fill-opacity="0.63"/><path d="M56,111L41,110L43,136Z" fill="rgb(242, 13, 0)" fill-opacity="0.83"/><path d="M222,60L198,62L217,28Z" fill="rgb(0, 0, 241)" fill-opacity="0.63"/><path d="M213,67L219,87L216,58Z" fill="rgb(89, 38, 34)" fill-opacity="0.58"/><path d="M138,49L157,24L133,20Z" fill="rgb(0, 0, 240)" fill-opacity="0.78"/><path d="M165,51L169,81L155,65Z" fill="rgb(0, 0, 253)" fill-opacity="0.59"/><path d="M91,128L71,121L100,136Z" fill="rgb(107, 109, 149)" fill-opacity="0.39"/><path d="M41,137L56,125L34,139Z" fill="rgb(123, 72, 71)" fill-opacity="0.98"/><path d="M195,55L169,55L181,104Z" fill="rgb(241, 13, 0)" fill-opacity="0.82"/><path d="M217,56L220,68L211,67Z" fill="rgb(4, 10, 131)" fill-opacity="0.69"/><path d="M45,62L47,43L152,82Z" fill="rgb(250, 14, 0)" fill-opacity="0.69"/><path d="M57,128L23,152L66,133Z" fill="rgb(244, 247, 247)" fill-opacity="0.82"/><path d="M203,57L236,14L238,29Z" fill="rgb(4, 4, 226)" fill-opacity="0.90"/><path d="M93,137L97,132L98,139Z" fill="rgb(6, 3, 229)" fill-opacity="0.55"/><path d="M83,131L86,108L69,105Z" fill="rgb(241, 242, 242)" fill-opacity="0.90"/><path d="M114,49L127,50L106,50Z" fill="rgb(83, 2, 1)" fill-opacity="0.58"/><path d="M51,7L43,21L47,7Z" fill="rgb(2, 2, 122)" fill-opacity="0.69"/><path d="M124,137L35,149L206,154Z" fill="rgb(244, 244, 244)" fill-opacity="1.00"/><path d="M131,129L132,138L152,117Z" fill="rgb(214, 228, 229)" fill-opacity="0.63"/><path d="M30,3L47,11L19,-32Z" fill="rgb(239, 239, 239)" fill-opacity="0.99"/><path d="M174,115L181,112L148,110Z" fill="rgb(175, 10, 0)" fill-opacity="0.55"/><path d="M62,32L114,38L59,47Z" fill="rgb(235, 13, 1)" fill-opacity="1.00"/><path d="M117,123L82,140L112,117Z" fill="rgb(242, 244, 243)" fill-opacity="0.67"/><path d="M143,119L150,117L131,129Z" fill="rgb(75, 32, 31)" fill-opacity="0.48"/><path d="M147,53L166,82L125,140Z" fill="rgb(240, 14, 0)" fill-opacity="0.81"/><path d="M157,99L166,78L157,112Z" fill="rgb(115, 5, 4)" fill-opacity="0.58"/><path d="M21,140L27,140L15,136Z" fill="rgb(114, 114, 114)" fill-opacity="0.53"/><path d="M174,29L180,31L156,38Z" fill="rgb(10, 10, 215)" fill-opacity="0.99"/><path d="M37,123L12,116L44,121Z" fill="rgb(227, 220, 220)" fill-opacity="0.75"/><path d="M143,33L166,30L169,63Z" fill="rgb(0, 0, 242)" fill-opacity="0.82"/></svg>