<svg xmlns="http://www.w3.org/2000/svg" viewBox="0 0 256 143.0214876033058" clip-path="url(#clip)"><defs><clipPath id="clip" clipPathUnits="objectBoundingBox"><rect x="0" y="0" width="256" height="143.0214876033058"/></clipPath></defs><rect x="0" y="0" width="256" height="143.0214876033058" fill="#f6f6f6"/><path d="M174,171L240,28L-63,4Z" fill="rgb(155, 53, 130)" fill-opacity="0.96"/><path d="M225,56L156,77L241,13Z" fill="rgb(2, 16, 242)" fill-opacity="0.82"/><path d="M-20,-11L61,-44L-14,173Z" fill="rgb(243, 243, 244)" fill-opacity="1.00"/><path d="M97,49L110,103L78,107Z" fill="rgb(18, 1, 228)" fill-opacity="0.99"/><path d="M-21,323L143,120L243,110Z" fill="rgb(220, 217, 237)" fill-opacity="1.00"/><path d="M39,174L34,-29L68,59Z" fill="rgb(0, 0, 235)" fill-opacity="0.55"/><path d="M45,100L35,130L63,129Z" fill="rgb(239, 55, 28)" fill-opacity="0.85"/><path d="M155,-34L239,11L190,55Z" fill="rgb(238, 240, 245)" fill-opacity="0.95"/><path d="M168,131L129,21L56,11Z" fill="rgb(238, 9, 0)" fill-opacity="0.87"/><path d="M86,59L115,59L104,107Z" fill="rgb(0, 0, 245)" fill-opacity="0.96"/><path d="M81,128L101,113L-44,58Z" fill="rgb(240, 229, 230)" fill-opacity="0.98"/><path d="M76,15L117,20L58,110Z" fill="rgb(248, 13, 0)" fill-opacity="0.88"/><path d="M216,139L199,105L197,128Z" fill="rgb(13, 6, 219)" fill-opacity="0.83"/><path d="M133,15L215,62L138,63Z" fill="rgb(0, 14, 249)" fill-opacity="0.83"/><path d="M213,59L92,108L132,130Z" fill="rgb(236, 13, 1)" fill-opacity="0.94"/><path d="M56,97L90,39L80,109Z" fill="rgb(244, 18, 4)" fill-opacity="0.96"/><path d="M191,85L217,90L224,40Z" fill="rgb(4, 7, 215)" fill-opacity="0.89"/><path d="M210,99L118,130L113,50Z" fill="rgb(241, 15, 1)" fill-opacity="0.94"/><path d="M31,30L35,84L71,52Z" fill="rgb(0, 1, 253)" fill-opacity="0.83"/><path d="M96,7L18,8L-7,-22Z" fill="rgb(244, 244, 244)" fill-opacity="1.00"/><path d="M3,146L114,118L126,140Z" fill="rgb(231, 230, 234)" fill-opacity="1.00"/><path d="M-34,214L12,1L34,69Z" fill="rgb(245, 245, 245)" fill-opacity="0.96"/><path d="M42,8L29,60L70,12Z" fill="rgb(2, 3, 240)" fill-opacity="0.89"/><path d="M82,109L111,60L87,58Z" fill="rgb(0, 0, 248)" fill-opacity="0.81"/><path d="M185,65L135,32L166,81Z" fill="rgb(0, 0, 233)" fill-opacity="0.92"/><path d="M153,29L273,-73L225,29Z" fill="rgb(243, 243, 244)" fill-opacity="0.89"/><path d="M70,47L38,81L57,97Z" fill="rgb(0, 0, 245)" fill-opacity="0.94"/><path d="M168,19L169,57L175,52Z" fill="rgb(175, 175, 215)" fill-opacity="1.00"/><path d="M231,9L242,25L224,41Z" fill="rgb(0, 0, 213)" fill-opacity="0.67"/><path d="M-51,39L29,47L55,-34Z" fill="rgb(245, 245, 245)" fill-opacity="0.90"/><path d="M135,58L105,124L109,83Z" fill="rgb(237, 14, 4)" fill-opacity="0.95"/><path d="M220,62L248,11L218,92Z" fill="rgb(209, 213, 226)" fill-opacity="0.86"/><path d="M93,156L62,129L62,125Z" fill="rgb(49, 31, 29)" fill-opacity="0.47"/><path d="M59,46L100,59L67,10Z" fill="rgb(233, 14, 4)" fill-opacity="0.99"/><path d="M212,89L116,85L197,112Z" fill="rgb(237, 14, 3)" fill-opacity="0.96"/><path d="M137,60L176,30L135,28Z" fill="rgb(4, 3, 234)" fill-opacity="0.88"/><path d="M59,129L55,109L35,118Z" fill="rgb(234, 23, 11)" fill-opacity="0.81"/><path d="M121,153L171,114L253,164Z" fill="rgb(243, 243, 242)" fill-opacity="0.96"/><path d="M156,23L211,24L98,11Z" fill="rgb(240, 240, 242)" fill-opacity="1.00"/><path d="M84,104L94,107L136,187Z" fill="rgb(241, 241, 241)" fill-opacity="0.87"/><path d="M234,32L321,20L230,39Z" fill="rgb(240, 240, 242)" fill-opacity="0.96"/><path d="M192,54L286,-83L184,54Z" fill="rgb(242, 242, 243)" fill-opacity="0.96"/><path d="M188,41L185,70L173,26Z" fill="rgb(0, 7, 255)" fill-opacity="0.48"/><path d="M215,85L331,137L211,139Z" fill="rgb(245, 245, 245)" fill-opacity="0.99"/><path d="M209,121L173,111L198,110Z" fill="rgb(3, 11, 232)" fill-opacity="0.82"/><path d="M108,104L102,107L85,75Z" fill="rgb(1, 0, 245)" fill-opacity="0.86"/><path d="M163,72L122,139L145,61Z" fill="rgb(244, 13, 0)" fill-opacity="0.75"/><path d="M58,123L37,141L44,109Z" fill="rgb(230, 15, 0)" fill-opacity="0.51"/><path d="M100,137L96,140L89,126Z" fill="rgb(25, 26, 179)" fill-opacity="0.60"/><path d="M103,120L141,103L94,107Z" fill="rgb(250, 16, 2)" fill-opacity="0.97"/><path d="M66,13L51,78L29,48Z" fill="rgb(0, 0, 243)" fill-opacity="1.00"/><path d="M22,65L10,149L53,97Z" fill="rgb(242, 243, 242)" fill-opacity="0.79"/><path d="M203,59L213,29L236,44Z" fill="rgb(1, 3, 226)" fill-opacity="0.76"/><path d="M166,121L173,103L151,119Z" fill="rgb(207, 20, 6)" fill-opacity="0.79"/><path d="M50,94L63,100L61,132Z" fill="rgb(234, 245, 247)" fill-opacity="0.76"/><path d="M66,19L134,19L138,81Z" fill="rgb(245, 14, 0)" fill-opacity="0.90"/><path d="M201,109L204,99L272,73Z" fill="rgb(242, 241, 241)" fill-opacity="0.93"/><path d="M110,59L115,69L111,83Z" fill="rgb(1, 0, 223)" fill-opacity="0.73"/><path d="M171,25L151,30L156,32Z" fill="rgb(136, 137, 185)" fill-opacity="0.88"/><path d="M223,53L293,16L220,77Z" fill="rgb(244, 244, 244)" fill-opacity="1.00"/><path d="M235,8L237,21L278,43Z" fill="rgb(242, 242, 242)" fill-opacity="0.91"/><path d="M53,128L8,193L117,155Z" fill="rgb(245, 245, 245)" fill-opacity="0.93"/><path d="M121,133L123,114L134,140Z" fill="rgb(255, 20, 0)" fill-opacity="0.64"/><path d="M207,20L104,-9L262,7Z" fill="rgb(246, 246, 245)" fill-opacity="0.95"/><path d="M197,62L205,61L187,73Z" fill="rgb(157, 9, 50)" fill-opacity="1.00"/><path d="M58,83L84,57L82,108Z" fill="rgb(249, 8, 0)" fill-opacity="0.49"/><path d="M47,11L28,4L24,-26Z" fill="rgb(236, 236, 237)" fill-opacity="1.00"/><path d="M166,101L196,80L169,75Z" fill="rgb(227, 12, 1)" fill-opacity="0.94"/><path d="M236,161L181,112L111,149Z" fill="rgb(242, 243, 244)" fill-opacity="0.82"/><path d="M212,40L172,15L190,47Z" fill="rgb(240, 240, 243)" fill-opacity="0.79"/><path d="M31,69L66,11L35,30Z" fill="rgb(0, 1, 251)" fill-opacity="0.61"/><path d="M212,92L222,78L191,76Z" fill="rgb(0, 0, 230)" fill-opacity="0.61"/><path d="M169,62L165,25L138,62Z" fill="rgb(0, 0, 243)" fill-opacity="0.87"/><path d="M211,126L208,138L190,109Z" fill="rgb(2, 1, 235)" fill-opacity="0.76"/><path d="M184,166L210,147L190,111Z" fill="rgb(242, 242, 242)" fill-opacity="0.76"/><path d="M37,128L44,135L-37,137Z" fill="rgb(242, 243, 242)" fill-opacity="0.85"/><path d="M166,83L155,23L132,20Z" fill="rgb(0, 0, 239)" fill-opacity="0.60"/><path d="M110,105L206,108L183,110Z" fill="rgb(242, 17, 2)" fill-opacity="0.86"/><path d="M178,31L193,70L171,66Z" fill="rgb(2, 1, 237)" fill-opacity="0.86"/><path d="M203,40L194,61L220,58Z" fill="rgb(2, 0, 243)" fill-opacity="0.72"/><path d="M179,34L244,-14L205,43Z" fill="rgb(246, 247, 246)" fill-opacity="0.61"/><path d="M197,86L208,88L113,120Z" fill="rgb(237, 13, 2)" fill-opacity="1.00"/><path d="M85,168L58,101L83,108Z" fill="rgb(242, 241, 242)" fill-opacity="0.99"/><path d="M66,27L52,46L35,31Z" fill="rgb(1, 0, 248)" fill-opacity="0.72"/><path d="M72,132L68,135L60,127Z" fill="rgb(21, 0, 0)" fill-opacity="0.68"/><path d="M140,123L197,118L130,131Z" fill="rgb(238, 237, 235)" fill-opacity="0.91"/><path d="M136,54L182,73L135,47Z" fill="rgb(0, 0, 241)" fill-opacity="0.65"/><path d="M193,75L189,80L223,76Z" fill="rgb(7, 1, 191)" fill-opacity="0.83"/><path d="M218,22L168,30L156,-13Z" fill="rgb(245, 245, 245)" fill-opacity="1.00"/><path d="M32,36L59,95L48,95Z" fill="rgb(1, 1, 248)" fill-opacity="0.95"/><path d="M100,124L85,152L84,142Z" fill="rgb(245, 245, 245)" fill-opacity="0.93"/><path d="M109,42L110,17L106,64Z" fill="rgb(144, 6, 14)" fill-opacity="0.70"/><path d="M237,43L215,60L231,41Z" fill="rgb(56, 61, 10)" fill-opacity="0.24"/><path d="M221,76L213,58L218,88Z" fill="rgb(60, 62, 104)" fill-opacity="0.60"/><path d="M176,30L170,55L167,45Z" fill="rgb(243, 255, 236)" fill-opacity="0.54"/><path d="M52,130L31,139L30,142Z" fill="rgb(98, 94, 67)" fill-opacity="0.49"/><path d="M11,135L24,141L27,140Z" fill="rgb(166, 166, 166)" fill-opacity="0.62"/><path d="M234,91L216,71L250,50Z" fill="rgb(246, 246, 245)" fill-opacity="0.50"/><path d="M173,110L205,112L177,114Z" fill="rgb(0, 0, 225)" fill-opacity="0.74"/><path d="M200,62L201,73L180,80Z" fill="rgb(241, 12, 0)" fill-opacity="0.87"/></svg>