<svg xmlns="http://www.w3.org/2000/svg" viewBox="0 0 256 143.0214876033058" clip-path="url(#clip)"><defs><clipPath id="clip" clipPathUnits="objectBoundingBox"><rect x="0" y="0" width="256" height="143.0214876033058"/></clipPath></defs><rect x="0" y="0" width="256" height="143.0214876033058" fill="#f6f6f6"/><path d="M5,7L242,31L142,217Z" fill="rgb(152, 28, 106)" fill-opacity="0.85"/><path d="M215,143L180,110L204,110Z" fill="rgb(73, 72, 226)" fill-opacity="1.00"/><path d="M148,187L197,122L-3,109Z" fill="rgb(235, 199, 198)" fill-opacity="1.00"/><path d="M70,49L22,44L55,108Z" fill="rgb(0, 7, 252)" fill-opacity="0.86"/><path d="M87,57L120,65L81,117Z" fill="rgb(0, 5, 251)" fill-opacity="0.87"/><path d="M33,131L61,128L47,103Z" fill="rgb(222, 12, 0)" fill-opacity="0.76"/><path d="M35,90L70,12L40,6Z" fill="rgb(0, 3, 242)" fill-opacity="0.88"/><path d="M138,63L233,60L134,16Z" fill="rgb(5, 27, 255)" fill-opacity="0.76"/><path d="M112,50L217,90L119,134Z" fill="rgb(239, 12, 0)" fill-opacity="0.92"/><path d="M194,53L164,11L228,16Z" fill="rgb(240, 241, 244)" fill-opacity="0.96"/><path d="M26,62L42,6L-87,-2Z" fill="rgb(243, 244, 245)" fill-opacity="0.98"/><path d="M236,12L240,42L175,73Z" fill="rgb(3, 18, 241)" fill-opacity="0.76"/><path d="M232,32L212,94L275,21Z" fill="rgb(232, 229, 229)" fill-opacity="0.77"/><path d="M220,76L188,80L218,56Z" fill="rgb(3, 0, 190)" fill-opacity="0.79"/><path d="M132,18L166,83L172,67Z" fill="rgb(3, 0, 232)" fill-opacity="0.95"/><path d="M90,104L125,146L57,112Z" fill="rgb(241, 243, 244)" fill-opacity="0.91"/><path d="M55,97L80,107L96,4Z" fill="rgb(247, 15, 0)" fill-opacity="0.89"/><path d="M141,76L130,17L57,34Z" fill="rgb(243, 13, 0)" fill-opacity="0.96"/><path d="M44,437L169,114L198,116Z" fill="rgb(242, 246, 247)" fill-opacity="0.91"/><path d="M223,79L189,117L168,52Z" fill="rgb(219, 0, 0)" fill-opacity="0.54"/><path d="M118,20L70,81L65,12Z" fill="rgb(245, 12, 0)" fill-opacity="0.88"/><path d="M40,141L40,110L59,110Z" fill="rgb(230, 3, 0)" fill-opacity="0.62"/><path d="M181,1L192,28L153,30Z" fill="rgb(240, 245, 244)" fill-opacity="0.81"/><path d="M134,15L105,108L131,141Z" fill="rgb(246, 15, 1)" fill-opacity="0.94"/><path d="M107,106L81,104L112,57Z" fill="rgb(3, 0, 239)" fill-opacity="0.96"/><path d="M31,35L66,12L48,95Z" fill="rgb(1, 1, 244)" fill-opacity="0.98"/><path d="M82,125L57,96L-2,85Z" fill="rgb(244, 242, 242)" fill-opacity="0.97"/><path d="M207,64L195,79L219,75Z" fill="rgb(0, 0, 254)" fill-opacity="0.75"/><path d="M135,109L102,121L94,105Z" fill="rgb(245, 20, 6)" fill-opacity="0.98"/><path d="M174,5L168,49L173,60Z" fill="rgb(212, 205, 216)" fill-opacity="0.88"/><path d="M170,68L194,112L178,51Z" fill="rgb(239, 12, 0)" fill-opacity="0.84"/><path d="M193,70L176,26L182,68Z" fill="rgb(12, 7, 226)" fill-opacity="0.97"/><path d="M181,54L173,119L171,55Z" fill="rgb(237, 15, 2)" fill-opacity="0.89"/><path d="M236,44L215,30L184,70Z" fill="rgb(1, 2, 229)" fill-opacity="0.78"/><path d="M96,140L101,136L94,133Z" fill="rgb(12, 23, 214)" fill-opacity="0.76"/><path d="M252,249L131,131L149,116Z" fill="rgb(244, 255, 255)" fill-opacity="0.73"/><path d="M228,12L230,36L242,25Z" fill="rgb(3, 1, 217)" fill-opacity="0.79"/><path d="M92,145L134,156L116,121Z" fill="rgb(243, 244, 244)" fill-opacity="0.94"/><path d="M-112,255L42,134L11,89Z" fill="rgb(241, 242, 242)" fill-opacity="0.95"/><path d="M203,142L217,130L289,161Z" fill="rgb(243, 243, 243)" fill-opacity="0.97"/><path d="M76,14L124,-16L140,20Z" fill="rgb(243, 243, 243)" fill-opacity="0.93"/><path d="M38,12L53,7L41,6Z" fill="rgb(165, 165, 197)" fill-opacity="0.75"/><path d="M247,-31L149,22L224,30Z" fill="rgb(245, 245, 245)" fill-opacity="0.92"/><path d="M182,81L222,76L196,112Z" fill="rgb(231, 16, 3)" fill-opacity="0.90"/><path d="M186,54L192,55L198,10Z" fill="rgb(245, 246, 240)" fill-opacity="0.80"/><path d="M81,109L116,60L88,58Z" fill="rgb(1, 0, 243)" fill-opacity="0.95"/><path d="M62,126L65,134L72,134Z" fill="rgb(16, 5, 6)" fill-opacity="0.75"/><path d="M31,140L56,125L46,135Z" fill="rgb(22, 14, 15)" fill-opacity="0.45"/><path d="M187,111L213,132L202,109Z" fill="rgb(9, 8, 229)" fill-opacity="0.71"/><path d="M130,65L66,15L59,46Z" fill="rgb(239, 13, 0)" fill-opacity="0.88"/><path d="M178,77L183,68L203,74Z" fill="rgb(237, 9, 0)" fill-opacity="0.70"/><path d="M32,70L71,48L42,86Z" fill="rgb(5, 4, 245)" fill-opacity="1.00"/><path d="M198,60L205,67L186,79Z" fill="rgb(244, 1, 0)" fill-opacity="0.61"/><path d="M158,30L186,39L180,29Z" fill="rgb(37, 55, 207)" fill-opacity="0.66"/><path d="M133,52L171,70L165,26Z" fill="rgb(0, 0, 238)" fill-opacity="0.87"/><path d="M39,82L36,136L-148,72Z" fill="rgb(245, 246, 245)" fill-opacity="0.82"/><path d="M168,82L173,68L159,91Z" fill="rgb(131, 5, 29)" fill-opacity="0.68"/><path d="M54,109L59,128L35,118Z" fill="rgb(239, 12, 0)" fill-opacity="0.62"/><path d="M134,18L138,64L169,43Z" fill="rgb(0, 0, 243)" fill-opacity="0.76"/><path d="M108,83L109,118L156,61Z" fill="rgb(245, 12, 0)" fill-opacity="0.73"/><path d="M194,104L187,69L155,121Z" fill="rgb(236, 14, 0)" fill-opacity="0.81"/><path d="M55,128L-29,210L84,141Z" fill="rgb(244, 249, 249)" fill-opacity="0.85"/><path d="M56,111L96,135L58,127Z" fill="rgb(237, 255, 255)" fill-opacity="0.62"/><path d="M220,68L199,43L224,38Z" fill="rgb(3, 6, 226)" fill-opacity="0.79"/><path d="M182,42L211,42L205,24Z" fill="rgb(244, 246, 244)" fill-opacity="0.70"/><path d="M120,137L65,144L177,142Z" fill="rgb(244, 244, 244)" fill-opacity="1.00"/><path d="M69,160L96,134L72,124Z" fill="rgb(246, 252, 254)" fill-opacity="0.76"/><path d="M121,133L133,143L131,125Z" fill="rgb(184, 6, 0)" fill-opacity="0.35"/><path d="M32,34L32,68L55,7Z" fill="rgb(3, 4, 243)" fill-opacity="0.88"/><path d="M34,75L59,98L61,84Z" fill="rgb(0, 0, 239)" fill-opacity="0.73"/><path d="M197,112L186,116L168,109Z" fill="rgb(2, 7, 226)" fill-opacity="0.57"/><path d="M-131,18L25,29L36,85Z" fill="rgb(245, 245, 245)" fill-opacity="0.85"/><path d="M87,36L105,38L72,38Z" fill="rgb(112, 5, 3)" fill-opacity="0.46"/><path d="M223,55L371,-72L219,74Z" fill="rgb(243, 243, 243)" fill-opacity="1.00"/><path d="M92,58L73,11L111,59Z" fill="rgb(248, 15, 1)" fill-opacity="0.85"/><path d="M210,153L193,114L134,128Z" fill="rgb(244, 244, 244)" fill-opacity="0.86"/><path d="M189,80L212,76L193,75Z" fill="rgb(0, 0, 206)" fill-opacity="0.85"/><path d="M69,105L96,110L68,128Z" fill="rgb(244, 243, 243)" fill-opacity="1.00"/><path d="M94,105L114,58L114,76Z" fill="rgb(0, 0, 239)" fill-opacity="0.77"/><path d="M70,50L44,42L63,81Z" fill="rgb(0, 0, 236)" fill-opacity="0.73"/><path d="M65,128L70,132L46,126Z" fill="rgb(21, 1, 1)" fill-opacity="0.42"/><path d="M144,118L170,122L135,79Z" fill="rgb(232, 16, 1)" fill-opacity="0.70"/><path d="M39,7L53,46L65,28Z" fill="rgb(2, 1, 237)" fill-opacity="0.87"/><path d="M192,110L208,138L211,127Z" fill="rgb(6, 6, 243)" fill-opacity="0.94"/><path d="M156,60L122,137L131,133Z" fill="rgb(245, 12, 0)" fill-opacity="0.66"/><path d="M207,21L139,-71L168,30Z" fill="rgb(245, 245, 245)" fill-opacity="1.00"/><path d="M-4,-40L45,-8L46,12Z" fill="rgb(241, 241, 242)" fill-opacity="0.88"/><path d="M135,27L136,64L66,11Z" fill="rgb(245, 15, 0)" fill-opacity="0.81"/><path d="M217,73L216,67L256,104Z" fill="rgb(240, 244, 236)" fill-opacity="0.52"/><path d="M62,77L58,98L77,107Z" fill="rgb(234, 18, 5)" fill-opacity="0.67"/><path d="M199,57L214,70L214,32Z" fill="rgb(0, 0, 244)" fill-opacity="0.47"/><path d="M190,54L229,50L183,68Z" fill="rgb(0, 0, 240)" fill-opacity="0.74"/><path d="M166,79L210,96L157,118Z" fill="rgb(240, 14, 0)" fill-opacity="0.75"/><path d="M208,60L209,62L154,102Z" fill="rgb(226, 11, 0)" fill-opacity="0.83"/><path d="M137,41L159,24L134,19Z" fill="rgb(0, 5, 245)" fill-opacity="0.72"/><path d="M212,89L202,112L236,159Z" fill="rgb(243, 242, 243)" fill-opacity="0.95"/><path d="M184,110L204,108L101,78Z" fill="rgb(240, 14, 2)" fill-opacity="0.76"/><path d="M37,53L32,71L63,89Z" fill="rgb(0, 0, 254)" fill-opacity="0.57"/><path d="M100,138L95,130L83,126Z" fill="rgb(0, 36, 147)" fill-opacity="0.37"/><path d="M51,7L32,37L47,7Z" fill="rgb(11, 15, 175)" fill-opacity="0.76"/></svg>