<svg xmlns="http://www.w3.org/2000/svg" viewBox="0 0 256 143.0214876033058" clip-path="url(#clip)"><defs><clipPath id="clip" clipPathUnits="objectBoundingBox"><rect x="0" y="0" width="256" height="143.0214876033058"/></clipPath></defs><rect x="0" y="0" width="256" height="143.0214876033058" fill="#f6f6f6"/><path d="M32,-1L274,98L38,138Z" fill="rgb(175, 39, 89)" fill-opacity="0.85"/><path d="M24,52L59,107L68,-9Z" fill="rgb(7, 20, 255)" fill-opacity="0.83"/><path d="M180,136L276,134L241,51Z" fill="rgb(243, 229, 228)" fill-opacity="1.00"/><path d="M213,82L197,47L244,11Z" fill="rgb(61, 15, 168)" fill-opacity="0.89"/><path d="M8,73L19,106L173,153Z" fill="rgb(241, 227, 226)" fill-opacity="0.98"/><path d="M97,119L83,57L117,60Z" fill="rgb(20, 4, 226)" fill-opacity="0.96"/><path d="M125,148L188,33L90,15Z" fill="rgb(224, 0, 0)" fill-opacity="0.61"/><path d="M510,-28L123,20L6,2Z" fill="rgb(244, 245, 245)" fill-opacity="0.96"/><path d="M216,46L116,76L218,59Z" fill="rgb(203, 20, 41)" fill-opacity="1.00"/><path d="M207,140L162,58L213,126Z" fill="rgb(224, 21, 14)" fill-opacity="0.83"/><path d="M160,47L159,78L174,70Z" fill="rgb(38, 4, 204)" fill-opacity="1.00"/><path d="M57,111L47,137L39,109Z" fill="rgb(229, 32, 8)" fill-opacity="0.89"/><path d="M202,115L201,56L88,112Z" fill="rgb(233, 20, 1)" fill-opacity="0.88"/><path d="M140,51L132,20L158,23Z" fill="rgb(10, 6, 234)" fill-opacity="0.92"/><path d="M-16,2L28,41L33,71Z" fill="rgb(241, 241, 243)" fill-opacity="0.98"/><path d="M172,73L168,44L163,82Z" fill="rgb(11, 13, 228)" fill-opacity="0.76"/><path d="M105,110L86,58L114,60Z" fill="rgb(3, 0, 242)" fill-opacity="0.94"/><path d="M108,98L91,57L78,109Z" fill="rgb(1, 1, 245)" fill-opacity="0.83"/><path d="M154,63L172,46L167,81Z" fill="rgb(9, 21, 254)" fill-opacity="0.73"/><path d="M56,97L81,108L93,8Z" fill="rgb(242, 24, 1)" fill-opacity="0.92"/><path d="M164,73L71,11L57,46Z" fill="rgb(241, 21, 0)" fill-opacity="0.92"/><path d="M92,103L36,140L113,141Z" fill="rgb(229, 233, 236)" fill-opacity="0.85"/><path d="M161,123L108,84L226,76Z" fill="rgb(232, 23, 2)" fill-opacity="0.82"/><path d="M52,97L32,72L42,4Z" fill="rgb(0, 3, 245)" fill-opacity="0.87"/><path d="M220,75L188,80L209,65Z" fill="rgb(0, 0, 222)" fill-opacity="0.85"/><path d="M54,105L95,108L59,127Z" fill="rgb(243, 243, 243)" fill-opacity="0.99"/><path d="M155,46L135,49L138,29Z" fill="rgb(7, 0, 232)" fill-opacity="0.92"/><path d="M234,4L217,51L236,45Z" fill="rgb(0, 16, 227)" fill-opacity="0.57"/><path d="M218,-1L179,-96L268,51Z" fill="rgb(241, 241, 244)" fill-opacity="0.94"/><path d="M175,55L170,28L168,54Z" fill="rgb(213, 186, 190)" fill-opacity="1.00"/><path d="M128,133L168,101L92,106Z" fill="rgb(247, 30, 3)" fill-opacity="0.82"/><path d="M57,99L39,6L69,57Z" fill="rgb(0, 0, 241)" fill-opacity="0.83"/><path d="M39,21L44,-37L7,103Z" fill="rgb(240, 241, 243)" fill-opacity="0.96"/><path d="M218,76L224,51L360,201Z" fill="rgb(243, 246, 246)" fill-opacity="0.86"/><path d="M199,50L214,-1L184,56Z" fill="rgb(240, 236, 235)" fill-opacity="0.84"/><path d="M161,20L-93,-22L96,17Z" fill="rgb(241, 242, 242)" fill-opacity="0.86"/><path d="M150,31L181,29L156,43Z" fill="rgb(230, 34, 16)" fill-opacity="0.86"/><path d="M109,113L130,143L100,161Z" fill="rgb(243, 244, 243)" fill-opacity="0.76"/><path d="M244,22L218,51L210,33Z" fill="rgb(12, 13, 220)" fill-opacity="0.90"/><path d="M198,106L99,119L219,83Z" fill="rgb(241, 25, 3)" fill-opacity="0.96"/><path d="M35,128L47,108L61,128Z" fill="rgb(234, 26, 0)" fill-opacity="0.74"/><path d="M271,2L230,36L258,94Z" fill="rgb(244, 244, 243)" fill-opacity="0.80"/><path d="M135,23L69,72L66,12Z" fill="rgb(243, 24, 2)" fill-opacity="0.95"/><path d="M149,36L167,25L162,53Z" fill="rgb(243, 31, 9)" fill-opacity="0.80"/><path d="M101,137L96,139L88,126Z" fill="rgb(34, 34, 176)" fill-opacity="0.58"/><path d="M169,83L176,35L200,74Z" fill="rgb(234, 25, 6)" fill-opacity="0.96"/><path d="M58,46L102,59L74,15Z" fill="rgb(239, 23, 3)" fill-opacity="0.98"/><path d="M212,131L196,124L210,138Z" fill="rgb(215, 27, 11)" fill-opacity="0.76"/><path d="M-96,121L41,84L60,108Z" fill="rgb(243, 243, 244)" fill-opacity="0.97"/><path d="M218,50L198,74L197,49Z" fill="rgb(237, 20, 0)" fill-opacity="0.74"/><path d="M82,91L114,59L114,79Z" fill="rgb(0, 0, 248)" fill-opacity="0.74"/><path d="M237,32L228,17L236,13Z" fill="rgb(6, 8, 230)" fill-opacity="0.80"/><path d="M324,-28L200,105L236,179Z" fill="rgb(245, 248, 248)" fill-opacity="0.77"/><path d="M109,81L107,118L167,119Z" fill="rgb(244, 24, 2)" fill-opacity="1.00"/><path d="M56,125L69,135L71,132Z" fill="rgb(62, 30, 28)" fill-opacity="0.86"/><path d="M207,135L214,245L167,113Z" fill="rgb(243, 244, 244)" fill-opacity="0.87"/><path d="M164,78L107,117L121,25Z" fill="rgb(247, 23, 0)" fill-opacity="0.79"/><path d="M158,5L140,22L161,17Z" fill="rgb(238, 241, 248)" fill-opacity="0.67"/><path d="M189,106L206,103L183,118Z" fill="rgb(229, 30, 11)" fill-opacity="0.52"/><path d="M138,64L68,19L133,19Z" fill="rgb(244, 23, 1)" fill-opacity="1.00"/><path d="M-59,203L18,11L43,109Z" fill="rgb(245, 245, 245)" fill-opacity="0.96"/><path d="M45,6L58,52L64,11Z" fill="rgb(1, 2, 239)" fill-opacity="0.85"/><path d="M202,100L202,111L199,97Z" fill="rgb(172, 22, 9)" fill-opacity="0.87"/><path d="M211,40L169,12L190,46Z" fill="rgb(241, 241, 243)" fill-opacity="1.00"/><path d="M217,86L214,57L222,82Z" fill="rgb(52, 52, 58)" fill-opacity="0.49"/><path d="M189,45L177,32L176,68Z" fill="rgb(240, 23, 0)" fill-opacity="0.69"/><path d="M48,134L27,142L54,126Z" fill="rgb(127, 114, 107)" fill-opacity="0.77"/><path d="M138,124L160,214L131,130Z" fill="rgb(230, 239, 239)" fill-opacity="0.77"/><path d="M211,77L189,80L215,65Z" fill="rgb(0, 0, 233)" fill-opacity="0.60"/><path d="M197,125L212,133L199,104Z" fill="rgb(239, 21, 0)" fill-opacity="0.72"/><path d="M234,44L222,29L198,50Z" fill="rgb(2, 1, 225)" fill-opacity="0.87"/><path d="M36,83L32,32L71,51Z" fill="rgb(0, 0, 245)" fill-opacity="0.69"/><path d="M47,92L48,96L67,70Z" fill="rgb(0, 0, 236)" fill-opacity="0.66"/><path d="M125,137L111,110L133,138Z" fill="rgb(233, 31, 12)" fill-opacity="1.00"/><path d="M67,61L97,43L63,102Z" fill="rgb(254, 22, 0)" fill-opacity="0.54"/><path d="M135,48L141,16L152,47Z" fill="rgb(0, 3, 246)" fill-opacity="0.73"/><path d="M127,137L157,151L-72,156Z" fill="rgb(244, 245, 245)" fill-opacity="0.95"/><path d="M59,118L94,133L94,158Z" fill="rgb(245, 245, 245)" fill-opacity="0.96"/><path d="M152,119L170,119L168,122Z" fill="rgb(81, 53, 53)" fill-opacity="0.53"/><path d="M185,30L226,29L236,-13Z" fill="rgb(245, 245, 245)" fill-opacity="0.77"/><path d="M219,60L220,70L199,61Z" fill="rgb(4, 15, 150)" fill-opacity="0.55"/><path d="M87,63L109,106L81,105Z" fill="rgb(0, 0, 242)" fill-opacity="0.55"/><path d="M2,155L16,114L43,133Z" fill="rgb(240, 240, 240)" fill-opacity="1.00"/><path d="M116,45L150,101L157,50Z" fill="rgb(240, 23, 2)" fill-opacity="1.00"/><path d="M70,105L61,98L79,106Z" fill="rgb(212, 43, 26)" fill-opacity="0.79"/><path d="M153,27L158,31L163,28Z" fill="rgb(196, 208, 215)" fill-opacity="0.85"/><path d="M231,49L228,22L230,13Z" fill="rgb(16, 17, 215)" fill-opacity="1.00"/><path d="M68,128L46,126L49,129Z" fill="rgb(15, 0, 0)" fill-opacity="0.33"/><path d="M43,11L62,-7L36,-1Z" fill="rgb(239, 241, 242)" fill-opacity="0.80"/><path d="M169,50L163,78L156,58Z" fill="rgb(0, 0, 238)" fill-opacity="0.69"/><path d="M167,55L170,35L178,31Z" fill="rgb(194, 227, 226)" fill-opacity="0.55"/><path d="M49,14L40,7L40,22Z" fill="rgb(4, 10, 192)" fill-opacity="0.77"/><path d="M209,36L215,30L223,59Z" fill="rgb(7, 6, 231)" fill-opacity="0.67"/><path d="M236,7L419,85L244,32Z" fill="rgb(245, 245, 245)" fill-opacity="1.00"/><path d="M33,31L31,45L-13,88Z" fill="rgb(243, 243, 243)" fill-opacity="1.00"/><path d="M154,121L165,82L163,75Z" fill="rgb(172, 18, 10)" fill-opacity="0.80"/><path d="M117,91L119,95L163,104Z" fill="rgb(175, 15, 5)" fill-opacity="0.56"/><path d="M188,23L192,54L188,55Z" fill="rgb(243, 242, 241)" fill-opacity="0.83"/><path d="M91,16L65,11L261,-44Z" fill="rgb(243, 243, 243)" fill-opacity="0.97"/><path d="M230,21L231,48L218,39Z" fill="rgb(4, 5, 204)" fill-opacity="0.72"/></svg>