<svg xmlns="http://www.w3.org/2000/svg" viewBox="0 0 256 158.336" clip-path="url(#clip)"><defs><clipPath id="clip" clipPathUnits="objectBoundingBox"><rect x="0" y="0" width="256" height="158.336"/></clipPath></defs><rect x="0" y="0" width="256" height="158.336" fill="#f6f6f6"/><path d="M-157,-17L240,32L171,186Z" fill="rgb(212, 212, 212)" fill-opacity="0.85"/><path d="M122,134L110,292L230,120Z" fill="rgb(241, 241, 241)" fill-opacity="1.00"/><path d="M165,77L212,136L211,156Z" fill="rgb(207, 207, 207)" fill-opacity="0.74"/><path d="M224,45L250,20L234,10Z" fill="rgb(206, 206, 206)" fill-opacity="0.71"/><path d="M117,151L76,116L42,116Z" fill="rgb(246, 246, 246)" fill-opacity="0.79"/><path d="M15,-530L-4,154L-85,38Z" fill="rgb(244, 244, 244)" fill-opacity="0.90"/><path d="M156,-30L189,60L218,27Z" fill="rgb(246, 246, 246)" fill-opacity="0.89"/><path d="M16,-5L231,86L115,144Z" fill="rgb(206, 206, 206)" fill-opacity="0.54"/><path d="M115,141L2,58L19,1Z" fill="rgb(206, 206, 206)" fill-opacity="0.52"/><path d="M229,47L154,63L217,98Z" fill="rgb(210, 210, 210)" fill-opacity="0.66"/><path d="M18,12L-10,74L2,-30Z" fill="rgb(248, 248, 248)" fill-opacity="0.67"/><path d="M192,28L147,28L159,12Z" fill="rgb(246, 246, 246)" fill-opacity="0.82"/><path d="M102,120L66,99L90,134Z" fill="rgb(210, 210, 210)" fill-opacity="0.69"/><path d="M210,104L226,78L145,133Z" fill="rgb(209, 209, 209)" fill-opacity="0.56"/><path d="M218,77L267,136L229,48Z" fill="rgb(245, 245, 245)" fill-opacity="0.57"/><path d="M24,101L49,111L17,47Z" fill="rgb(208, 208, 208)" fill-opacity="0.64"/><path d="M222,18L221,50L239,46Z" fill="rgb(208, 208, 208)" fill-opacity="0.46"/><path d="M169,30L163,42L170,65Z" fill="rgb(255, 255, 255)" fill-opacity="0.54"/><path d="M-20,50L16,99L7,67Z" fill="rgb(251, 251, 251)" fill-opacity="0.56"/><path d="M92,128L117,163L105,132Z" fill="rgb(253, 253, 253)" fill-opacity="0.53"/><path d="M170,65L136,15L70,18Z" fill="rgb(206, 206, 206)" fill-opacity="0.50"/><path d="M34,81L48,114L79,115Z" fill="rgb(206, 206, 206)" fill-opacity="0.53"/><path d="M62,196L211,151L169,121Z" fill="rgb(250, 250, 250)" fill-opacity="0.49"/><path d="M212,40L184,56L196,-18Z" fill="rgb(246, 246, 246)" fill-opacity="0.52"/><path d="M163,130L154,136L152,127Z" fill="rgb(198, 198, 198)" fill-opacity="0.39"/><path d="M13,87L6,61L39,83Z" fill="rgb(207, 207, 207)" fill-opacity="0.48"/><path d="M319,242L209,135L232,57Z" fill="rgb(246, 246, 246)" fill-opacity="0.85"/><path d="M199,149L194,106L204,118Z" fill="rgb(209, 209, 209)" fill-opacity="0.41"/><path d="M234,2L250,28L276,-56Z" fill="rgb(245, 245, 245)" fill-opacity="0.94"/><path d="M174,51L193,61L160,65Z" fill="rgb(210, 210, 210)" fill-opacity="0.81"/><path d="M176,34L188,46L161,83Z" fill="rgb(210, 210, 210)" fill-opacity="0.59"/><path d="M160,129L180,123L190,140Z" fill="rgb(246, 246, 246)" fill-opacity="0.69"/><path d="M245,26L230,35L238,7Z" fill="rgb(207, 207, 207)" fill-opacity="0.57"/><path d="M237,40L247,37L235,30Z" fill="rgb(247, 247, 247)" fill-opacity="0.57"/><path d="M178,31L205,-9L159,45Z" fill="rgb(246, 246, 246)" fill-opacity="0.44"/><path d="M36,2L1,5L49,-53Z" fill="rgb(246, 246, 246)" fill-opacity="0.81"/><path d="M152,29L166,41L117,88Z" fill="rgb(210, 210, 210)" fill-opacity="0.62"/><path d="M15,101L-32,42L4,55Z" fill="rgb(246, 246, 246)" fill-opacity="0.69"/><path d="M127,158L68,136L84,129Z" fill="rgb(246, 246, 246)" fill-opacity="0.68"/><path d="M199,62L242,44L214,34Z" fill="rgb(209, 209, 209)" fill-opacity="0.54"/><path d="M202,144L216,152L197,134Z" fill="rgb(202, 202, 202)" fill-opacity="0.40"/><path d="M235,1L231,27L159,26Z" fill="rgb(246, 246, 246)" fill-opacity="0.62"/><path d="M163,57L171,54L165,28Z" fill="rgb(249, 249, 249)" fill-opacity="0.52"/><path d="M26,4L54,8L1,54Z" fill="rgb(210, 210, 210)" fill-opacity="0.49"/><path d="M90,136L50,117L74,115Z" fill="rgb(248, 248, 248)" fill-opacity="0.58"/><path d="M224,85L222,79L188,59Z" fill="rgb(209, 209, 209)" fill-opacity="0.63"/><path d="M79,146L98,126L106,136Z" fill="rgb(248, 248, 248)" fill-opacity="0.47"/><path d="M212,42L241,13L245,28Z" fill="rgb(210, 210, 210)" fill-opacity="0.42"/><path d="M128,119L158,134L168,117Z" fill="rgb(210, 210, 210)" fill-opacity="0.52"/><path d="M128,137L124,163L147,125Z" fill="rgb(245, 245, 245)" fill-opacity="0.67"/><path d="M183,128L196,119L163,107Z" fill="rgb(209, 209, 209)" fill-opacity="0.52"/><path d="M162,21L149,32L149,24Z" fill="rgb(249, 249, 249)" fill-opacity="0.50"/><path d="M138,19L136,-7L131,16Z" fill="rgb(245, 245, 245)" fill-opacity="0.62"/><path d="M9,88L1,101L19,88Z" fill="rgb(243, 243, 243)" fill-opacity="0.63"/><path d="M192,27L192,6L178,49Z" fill="rgb(246, 246, 246)" fill-opacity="0.53"/><path d="M198,55L202,43L215,42Z" fill="rgb(205, 205, 205)" fill-opacity="0.51"/><path d="M-4,76L-33,28L6,51Z" fill="rgb(248, 248, 248)" fill-opacity="0.56"/><path d="M48,43L10,30L6,39Z" fill="rgb(210, 210, 210)" fill-opacity="0.62"/><path d="M139,116L165,132L164,134Z" fill="rgb(212, 212, 212)" fill-opacity="0.50"/><path d="M225,60L222,71L205,74Z" fill="rgb(217, 217, 217)" fill-opacity="0.63"/><path d="M26,95L35,102L25,102Z" fill="rgb(206, 206, 206)" fill-opacity="0.66"/><path d="M212,170L216,92L266,131Z" fill="rgb(246, 246, 246)" fill-opacity="0.68"/><path d="M85,131L77,82L111,126Z" fill="rgb(211, 211, 211)" fill-opacity="0.66"/><path d="M139,125L112,151L99,120Z" fill="rgb(211, 211, 211)" fill-opacity="0.67"/><path d="M70,113L86,125L55,127Z" fill="rgb(246, 246, 246)" fill-opacity="0.56"/><path d="M187,120L212,148L213,142Z" fill="rgb(208, 208, 208)" fill-opacity="0.50"/><path d="M9,35L27,103L4,58Z" fill="rgb(210, 210, 210)" fill-opacity="0.65"/><path d="M119,17L213,97L192,126Z" fill="rgb(211, 211, 211)" fill-opacity="0.73"/><path d="M190,28L188,58L185,53Z" fill="rgb(248, 248, 248)" fill-opacity="0.57"/><path d="M211,34L227,27L242,26Z" fill="rgb(207, 207, 207)" fill-opacity="0.57"/><path d="M-13,-7L25,7L25,-2Z" fill="rgb(247, 247, 247)" fill-opacity="0.50"/><path d="M194,129L130,136L220,241Z" fill="rgb(246, 246, 246)" fill-opacity="0.93"/><path d="M143,169L93,150L125,152Z" fill="rgb(245, 245, 245)" fill-opacity="0.84"/><path d="M204,122L164,125L120,27Z" fill="rgb(211, 211, 211)" fill-opacity="0.76"/><path d="M214,63L223,63L218,72Z" fill="rgb(226, 226, 226)" fill-opacity="0.49"/><path d="M152,70L157,17L162,29Z" fill="rgb(210, 210, 210)" fill-opacity="0.36"/><path d="M186,156L161,223L216,149Z" fill="rgb(245, 245, 245)" fill-opacity="0.89"/><path d="M35,116L7,114L37,101Z" fill="rgb(245, 245, 245)" fill-opacity="0.61"/><path d="M164,41L174,27L167,45Z" fill="rgb(252, 252, 252)" fill-opacity="0.35"/><path d="M65,12L110,16L24,-13Z" fill="rgb(245, 245, 245)" fill-opacity="0.72"/><path d="M167,35L183,31L172,31Z" fill="rgb(249, 249, 249)" fill-opacity="0.63"/><path d="M219,62L230,77L244,76Z" fill="rgb(245, 245, 245)" fill-opacity="0.53"/><path d="M-8,110L80,141L48,111Z" fill="rgb(246, 246, 246)" fill-opacity="0.61"/><path d="M180,19L187,52L227,21Z" fill="rgb(247, 247, 247)" fill-opacity="0.60"/><path d="M227,65L230,59L225,50Z" fill="rgb(247, 247, 247)" fill-opacity="0.47"/><path d="M52,116L76,83L102,99Z" fill="rgb(211, 211, 211)" fill-opacity="0.78"/><path d="M36,100L54,106L24,101Z" fill="rgb(210, 210, 210)" fill-opacity="0.63"/><path d="M165,49L169,61L164,55Z" fill="rgb(246, 246, 246)" fill-opacity="0.51"/><path d="M152,41L172,30L153,28Z" fill="rgb(208, 208, 208)" fill-opacity="0.58"/><path d="M213,98L209,104L215,99Z" fill="rgb(248, 248, 248)" fill-opacity="0.52"/><path d="M174,117L208,133L194,105Z" fill="rgb(211, 211, 211)" fill-opacity="0.56"/><path d="M152,131L152,163L135,130Z" fill="rgb(247, 247, 247)" fill-opacity="0.49"/><path d="M214,49L223,38L222,77Z" fill="rgb(210, 210, 210)" fill-opacity="0.58"/><path d="M114,40L180,30L161,27Z" fill="rgb(211, 211, 211)" fill-opacity="0.46"/><path d="M72,121L78,114L63,118Z" fill="rgb(245, 245, 245)" fill-opacity="0.57"/><path d="M222,65L258,141L260,35Z" fill="rgb(246, 246, 246)" fill-opacity="0.59"/><path d="M213,142L199,115L200,143Z" fill="rgb(209, 209, 209)" fill-opacity="0.52"/><path d="M9,79L33,54L7,65Z" fill="rgb(212, 212, 212)" fill-opacity="0.51"/><path d="M81,128L110,142L112,155Z" fill="rgb(246, 246, 246)" fill-opacity="0.66"/><path d="M206,42L208,31L213,40Z" fill="rgb(249, 249, 249)" fill-opacity="0.48"/></svg>