<svg xmlns="http://www.w3.org/2000/svg" viewBox="0 0 256 249.40772532188842" clip-path="url(#clip)"><defs><clipPath id="clip" clipPathUnits="objectBoundingBox"><rect x="0" y="0" width="256" height="249.40772532188842"/></clipPath></defs><rect x="0" y="0" width="256" height="249.40772532188842" fill="rgb(31, 24, 18)"/><path d="M47,106L159,-221L208,176Z" fill="rgb(168, 128, 107)" fill-opacity="0.98"/><path d="M195,202L54,45L178,345Z" fill="rgb(146, 117, 100)" fill-opacity="1.00"/><path d="M314,-31L255,59L120,-9Z" fill="rgb(3, 0, 0)" fill-opacity="0.87"/><path d="M203,329L113,168L177,190Z" fill="rgb(220, 226, 225)" fill-opacity="0.57"/><path d="M359,-126L187,167L253,243Z" fill="rgb(8, 2, 1)" fill-opacity="0.80"/><path d="M136,0L5,31L-79,-52Z" fill="rgb(0, 0, 0)" fill-opacity="0.82"/><path d="M89,5L186,16L104,110Z" fill="rgb(255, 255, 241)" fill-opacity="0.39"/><path d="M192,33L154,192L223,105Z" fill="rgb(167, 104, 74)" fill-opacity="0.82"/><path d="M-49,220L154,371L130,186Z" fill="rgb(80, 59, 37)" fill-opacity="0.94"/><path d="M84,139L45,206L124,174Z" fill="rgb(247, 211, 153)" fill-opacity="0.37"/><path d="M52,62L37,137L206,197Z" fill="rgb(101, 62, 42)" fill-opacity="0.66"/><path d="M109,163L190,172L111,83Z" fill="rgb(197, 92, 46)" fill-opacity="0.48"/><path d="M71,19L52,69L174,3Z" fill="rgb(202, 225, 224)" fill-opacity="0.27"/><path d="M170,13L154,116L201,112Z" fill="rgb(255, 170, 137)" fill-opacity="0.37"/><path d="M202,202L195,245L177,184Z" fill="rgb(82, 64, 42)" fill-opacity="0.91"/><path d="M64,121L95,106L107,157Z" fill="rgb(29, 0, 0)" fill-opacity="0.52"/><path d="M188,66L181,80L204,64Z" fill="rgb(59, 24, 11)" fill-opacity="0.53"/><path d="M189,79L205,79L193,90Z" fill="rgb(0, 4, 10)" fill-opacity="0.53"/><path d="M101,167L80,225L129,195Z" fill="rgb(44, 26, 15)" fill-opacity="0.62"/><path d="M131,269L185,274L143,215Z" fill="rgb(165, 160, 154)" fill-opacity="0.99"/><path d="M-72,280L62,-197L36,203Z" fill="rgb(1, 0, 0)" fill-opacity="0.85"/><path d="M91,154L59,197L83,138Z" fill="rgb(134, 117, 90)" fill-opacity="1.00"/><path d="M102,166L145,207L172,187Z" fill="rgb(210, 196, 185)" fill-opacity="0.84"/><path d="M105,29L58,171L34,105Z" fill="rgb(88, 155, 153)" fill-opacity="0.21"/><path d="M162,78L160,92L141,84Z" fill="rgb(56, 17, 4)" fill-opacity="0.51"/><path d="M220,115L175,135L181,180Z" fill="rgb(137, 61, 27)" fill-opacity="0.48"/><path d="M100,6L-41,89L190,-149Z" fill="rgb(0, 0, 0)" fill-opacity="0.58"/><path d="M105,172L91,150L114,162Z" fill="rgb(189, 178, 168)" fill-opacity="0.54"/><path d="M343,91L111,-43L248,88Z" fill="rgb(7, 2, 2)" fill-opacity="0.82"/><path d="M201,62L185,25L86,74Z" fill="rgb(221, 172, 146)" fill-opacity="0.66"/><path d="M186,88L155,118L83,90Z" fill="rgb(214, 154, 127)" fill-opacity="0.58"/><path d="M193,126L174,116L194,116Z" fill="rgb(90, 19, 6)" fill-opacity="0.56"/><path d="M42,198L112,174L-140,382Z" fill="rgb(98, 77, 48)" fill-opacity="0.75"/><path d="M93,101L71,170L78,88Z" fill="rgb(0, 4, 8)" fill-opacity="0.40"/><path d="M68,22L52,65L79,116Z" fill="rgb(96, 91, 76)" fill-opacity="0.57"/><path d="M187,220L207,166L193,170Z" fill="rgb(93, 73, 46)" fill-opacity="0.61"/><path d="M169,234L195,256L193,230Z" fill="rgb(112, 107, 96)" fill-opacity="0.45"/><path d="M104,4L164,10L147,67Z" fill="rgb(243, 211, 191)" fill-opacity="0.37"/><path d="M107,115L140,65L87,102Z" fill="rgb(175, 147, 125)" fill-opacity="0.54"/><path d="M197,110L204,77L220,84Z" fill="rgb(208, 209, 184)" fill-opacity="0.28"/><path d="M187,241L189,224L176,198Z" fill="rgb(173, 168, 161)" fill-opacity="0.89"/><path d="M225,114L219,77L203,146Z" fill="rgb(43, 37, 24)" fill-opacity="0.55"/><path d="M157,97L150,66L172,68Z" fill="rgb(127, 67, 37)" fill-opacity="0.41"/><path d="M107,113L103,6L67,30Z" fill="rgb(165, 163, 155)" fill-opacity="0.47"/><path d="M57,70L63,10L-78,117Z" fill="rgb(0, 0, 0)" fill-opacity="0.48"/><path d="M133,203L71,186L139,233Z" fill="rgb(57, 40, 24)" fill-opacity="0.54"/><path d="M177,175L120,172L209,193Z" fill="rgb(61, 36, 21)" fill-opacity="0.49"/><path d="M55,136L33,92L35,155Z" fill="rgb(43, 33, 24)" fill-opacity="0.60"/><path d="M196,194L207,219L303,53Z" fill="rgb(11, 5, 4)" fill-opacity="0.91"/><path d="M137,-23L154,9L83,-9Z" fill="rgb(61, 51, 34)" fill-opacity="0.62"/><path d="M161,164L136,141L183,139Z" fill="rgb(186, 125, 95)" fill-opacity="0.60"/><path d="M217,217L219,397L255,245Z" fill="rgb(99, 71, 47)" fill-opacity="0.41"/><path d="M60,187L73,163L73,190Z" fill="rgb(196, 182, 154)" fill-opacity="0.27"/><path d="M186,244L193,249L197,213Z" fill="rgb(84, 66, 45)" fill-opacity="0.81"/><path d="M84,121L110,164L199,102Z" fill="rgb(187, 37, 0)" fill-opacity="0.17"/><path d="M79,13L148,-8L71,25Z" fill="rgb(120, 114, 90)" fill-opacity="0.35"/><path d="M84,106L111,121L63,154Z" fill="rgb(11, 0, 3)" fill-opacity="0.26"/><path d="M65,124L81,96L54,88Z" fill="rgb(141, 149, 143)" fill-opacity="0.27"/><path d="M71,192L79,156L109,173Z" fill="rgb(110, 79, 34)" fill-opacity="0.48"/><path d="M143,7L102,8L175,28Z" fill="rgb(213, 197, 183)" fill-opacity="0.83"/><path d="M121,176L103,167L89,139Z" fill="rgb(191, 180, 170)" fill-opacity="0.39"/><path d="M177,73L187,90L152,107Z" fill="rgb(216, 160, 135)" fill-opacity="0.78"/><path d="M65,180L28,215L54,204Z" fill="rgb(124, 109, 81)" fill-opacity="0.67"/><path d="M45,263L88,215L98,253Z" fill="rgb(147, 109, 59)" fill-opacity="0.32"/><path d="M62,57L48,66L60,37Z" fill="rgb(56, 47, 35)" fill-opacity="0.58"/><path d="M140,3L193,1L106,-2Z" fill="rgb(21, 8, 7)" fill-opacity="0.64"/><path d="M158,181L180,209L181,185Z" fill="rgb(142, 137, 126)" fill-opacity="0.39"/><path d="M110,264L95,185L84,212Z" fill="rgb(9, 0, 6)" fill-opacity="0.28"/><path d="M192,128L158,137L125,99Z" fill="rgb(203, 128, 96)" fill-opacity="0.68"/><path d="M88,140L123,172L168,177Z" fill="rgb(138, 71, 41)" fill-opacity="0.70"/><path d="M73,164L52,195L-122,170Z" fill="rgb(8, 1, 1)" fill-opacity="0.53"/><path d="M24,258L57,208L70,373Z" fill="rgb(105, 79, 44)" fill-opacity="0.66"/><path d="M106,96L163,76L115,62Z" fill="rgb(213, 153, 123)" fill-opacity="0.40"/><path d="M153,233L125,173L139,222Z" fill="rgb(200, 191, 181)" fill-opacity="0.61"/><path d="M207,56L220,94L195,66Z" fill="rgb(87, 79, 59)" fill-opacity="0.48"/><path d="M197,134L180,132L160,139Z" fill="rgb(109, 31, 16)" fill-opacity="0.61"/><path d="M163,256L186,212L161,199Z" fill="rgb(200, 192, 188)" fill-opacity="0.52"/><path d="M189,156L184,211L179,205Z" fill="rgb(7, 0, 1)" fill-opacity="0.29"/><path d="M231,102L168,-18L420,217Z" fill="rgb(9, 3, 2)" fill-opacity="0.82"/><path d="M93,162L76,151L83,139Z" fill="rgb(213, 211, 199)" fill-opacity="0.19"/><path d="M76,187L64,183L25,213Z" fill="rgb(133, 118, 88)" fill-opacity="0.42"/><path d="M185,170L183,191L232,114Z" fill="rgb(20, 9, 9)" fill-opacity="0.80"/><path d="M37,102L64,84L40,66Z" fill="rgb(27, 29, 24)" fill-opacity="0.32"/><path d="M66,28L68,78L102,94Z" fill="rgb(138, 131, 118)" fill-opacity="0.59"/><path d="M176,102L152,116L97,83Z" fill="rgb(227, 167, 138)" fill-opacity="0.27"/><path d="M160,209L164,273L148,297Z" fill="rgb(41, 53, 62)" fill-opacity="0.17"/><path d="M164,164L140,123L191,153Z" fill="rgb(184, 118, 87)" fill-opacity="0.56"/><path d="M80,151L45,141L59,179Z" fill="rgb(78, 57, 42)" fill-opacity="0.41"/><path d="M78,114L81,109L66,109Z" fill="rgb(171, 162, 144)" fill-opacity="0.38"/><path d="M164,133L159,141L172,137Z" fill="rgb(143, 55, 26)" fill-opacity="0.48"/><path d="M-2,114L65,174L59,188Z" fill="rgb(16, 6, 4)" fill-opacity="0.46"/><path d="M134,65L88,8L79,33Z" fill="rgb(239, 210, 200)" fill-opacity="0.19"/><path d="M206,93L205,139L182,99Z" fill="rgb(199, 112, 73)" fill-opacity="0.52"/><path d="M88,142L67,134L85,121Z" fill="rgb(7, 3, 7)" fill-opacity="0.51"/><path d="M160,174L181,174L208,140Z" fill="rgb(131, 60, 34)" fill-opacity="0.41"/><path d="M91,105L110,101L112,116Z" fill="rgb(126, 117, 103)" fill-opacity="0.53"/><path d="M203,90L203,54L217,116Z" fill="rgb(154, 243, 232)" fill-opacity="0.13"/><path d="M184,84L179,73L193,81Z" fill="rgb(141, 93, 66)" fill-opacity="0.57"/><path d="M151,91L159,80L149,81Z" fill="rgb(9, 5, 8)" fill-opacity="0.42"/><path d="M59,106L49,157L73,116Z" fill="rgb(104, 90, 69)" fill-opacity="0.42"/></svg>