<svg xmlns="http://www.w3.org/2000/svg" viewBox="0 0 216.6153846153846 256" clip-path="url(#clip)"><defs><clipPath id="clip" clipPathUnits="objectBoundingBox"><rect x="0" y="0" width="216.6153846153846" height="256"/></clipPath></defs><rect x="0" y="0" width="216.6153846153846" height="256" fill="rgb(63, 58, 50)"/><path d="M-846,-170L210,15L116,164Z" fill="rgb(176, 156, 136)" fill-opacity="0.70"/><path d="M117,32L140,68L74,59Z" fill="rgb(250, 223, 191)" fill-opacity="0.77"/><path d="M133,144L112,146L93,186Z" fill="rgb(210, 214, 214)" fill-opacity="0.62"/><path d="M70,98L61,148L113,148Z" fill="rgb(80, 57, 41)" fill-opacity="0.71"/><path d="M229,144L-202,245L338,295Z" fill="rgb(0, 1, 0)" fill-opacity="0.78"/><path d="M88,73L101,110L152,82Z" fill="rgb(235, 184, 155)" fill-opacity="0.76"/><path d="M65,7L18,141L60,161Z" fill="rgb(234, 223, 175)" fill-opacity="0.33"/><path d="M65,41L69,106L83,25Z" fill="rgb(38, 27, 20)" fill-opacity="0.46"/><path d="M102,166L114,165L96,183Z" fill="rgb(253, 253, 252)" fill-opacity="0.59"/><path d="M119,159L123,142L99,156Z" fill="rgb(255, 252, 243)" fill-opacity="0.79"/><path d="M144,26L117,27L191,131Z" fill="rgb(84, 84, 84)" fill-opacity="0.96"/><path d="M142,158L377,-232L113,137Z" fill="rgb(101, 96, 86)" fill-opacity="0.71"/><path d="M74,147L100,172L-78,233Z" fill="rgb(23, 21, 17)" fill-opacity="0.79"/><path d="M187,61L240,-51L77,30Z" fill="rgb(94, 94, 87)" fill-opacity="0.61"/><path d="M140,145L82,112L84,88Z" fill="rgb(81, 43, 34)" fill-opacity="0.36"/><path d="M84,87L146,62L147,137Z" fill="rgb(219, 181, 163)" fill-opacity="0.36"/><path d="M105,36L96,82L79,41Z" fill="rgb(249, 207, 167)" fill-opacity="0.61"/><path d="M108,39L131,85L138,72Z" fill="rgb(255, 227, 193)" fill-opacity="0.57"/><path d="M154,76L131,51L143,108Z" fill="rgb(156, 135, 128)" fill-opacity="0.72"/><path d="M151,137L147,193L421,43Z" fill="rgb(23, 22, 23)" fill-opacity="0.59"/><path d="M52,164L2,81L-64,106Z" fill="rgb(104, 88, 74)" fill-opacity="0.59"/><path d="M133,73L84,37L131,43Z" fill="rgb(255, 238, 208)" fill-opacity="0.44"/><path d="M99,63L63,76L126,79Z" fill="rgb(79, 16, 0)" fill-opacity="0.23"/><path d="M129,137L83,122L96,157Z" fill="rgb(128, 84, 54)" fill-opacity="0.73"/><path d="M91,110L114,129L85,132Z" fill="rgb(224, 142, 105)" fill-opacity="0.40"/><path d="M110,27L62,49L99,18Z" fill="rgb(0, 12, 31)" fill-opacity="0.36"/><path d="M47,162L62,142L22,122Z" fill="rgb(153, 138, 113)" fill-opacity="0.68"/><path d="M79,154L148,164L182,186Z" fill="rgb(25, 26, 26)" fill-opacity="0.82"/><path d="M116,162L106,165L89,190Z" fill="rgb(222, 221, 219)" fill-opacity="0.50"/><path d="M16,89L69,126L58,1Z" fill="rgb(178, 166, 137)" fill-opacity="0.49"/><path d="M129,142L147,120L145,135Z" fill="rgb(152, 148, 144)" fill-opacity="0.57"/><path d="M95,68L87,93L111,91Z" fill="rgb(255, 226, 185)" fill-opacity="0.51"/><path d="M182,144L244,-3L148,126Z" fill="rgb(83, 73, 63)" fill-opacity="0.53"/><path d="M79,151L74,86L51,169Z" fill="rgb(64, 68, 66)" fill-opacity="0.38"/><path d="M68,89L94,69L73,63Z" fill="rgb(110, 79, 61)" fill-opacity="0.80"/><path d="M223,-41L178,18L265,59Z" fill="rgb(55, 47, 35)" fill-opacity="0.36"/><path d="M127,145L81,221L134,177Z" fill="rgb(29, 29, 29)" fill-opacity="0.69"/><path d="M112,160L77,151L93,173Z" fill="rgb(31, 32, 32)" fill-opacity="0.81"/><path d="M93,-25L198,-4L113,34Z" fill="rgb(130, 124, 112)" fill-opacity="0.50"/><path d="M7,8L85,-147L63,72Z" fill="rgb(146, 135, 120)" fill-opacity="0.66"/><path d="M-7,164L5,124L32,111Z" fill="rgb(84, 69, 60)" fill-opacity="0.61"/><path d="M92,77L74,114L71,80Z" fill="rgb(206, 104, 68)" fill-opacity="0.36"/><path d="M94,68L113,62L126,65Z" fill="rgb(42, 17, 0)" fill-opacity="0.23"/><path d="M99,157L80,143L78,150Z" fill="rgb(255, 255, 243)" fill-opacity="0.46"/><path d="M141,70L152,45L135,25Z" fill="rgb(53, 62, 78)" fill-opacity="0.64"/><path d="M135,6L164,77L187,38Z" fill="rgb(128, 121, 104)" fill-opacity="0.70"/><path d="M136,161L100,111L138,116Z" fill="rgb(60, 77, 87)" fill-opacity="0.23"/><path d="M111,123L109,133L134,134Z" fill="rgb(70, 57, 42)" fill-opacity="0.44"/><path d="M89,34L135,61L81,65Z" fill="rgb(255, 218, 179)" fill-opacity="0.37"/><path d="M68,76L29,130L64,128Z" fill="rgb(208, 206, 173)" fill-opacity="0.30"/><path d="M109,107L99,88L124,104Z" fill="rgb(207, 146, 119)" fill-opacity="0.82"/><path d="M89,98L105,113L110,104Z" fill="rgb(127, 156, 168)" fill-opacity="0.37"/><path d="M65,127L107,111L85,107Z" fill="rgb(68, 39, 36)" fill-opacity="0.30"/><path d="M110,29L137,54L116,21Z" fill="rgb(122, 124, 130)" fill-opacity="0.57"/><path d="M83,34L121,41L93,20Z" fill="rgb(26, 31, 46)" fill-opacity="0.27"/><path d="M151,118L300,271L113,266Z" fill="rgb(0, 3, 0)" fill-opacity="0.22"/><path d="M318,50L197,90L176,147Z" fill="rgb(49, 44, 39)" fill-opacity="0.62"/><path d="M64,57L73,61L78,28Z" fill="rgb(54, 54, 52)" fill-opacity="0.59"/><path d="M-15,158L37,172L16,220Z" fill="rgb(47, 36, 26)" fill-opacity="0.53"/><path d="M73,107L60,170L85,134Z" fill="rgb(58, 59, 55)" fill-opacity="0.53"/><path d="M33,-24L133,17L58,22Z" fill="rgb(147, 135, 120)" fill-opacity="0.62"/><path d="M109,150L89,149L81,123Z" fill="rgb(87, 48, 27)" fill-opacity="0.42"/><path d="M158,144L145,161L143,98Z" fill="rgb(79, 91, 110)" fill-opacity="0.29"/><path d="M265,165L164,130L216,170Z" fill="rgb(53, 47, 38)" fill-opacity="0.46"/><path d="M83,61L84,28L71,67Z" fill="rgb(158, 129, 104)" fill-opacity="0.52"/><path d="M35,180L16,181L44,138Z" fill="rgb(120, 87, 58)" fill-opacity="0.30"/><path d="M105,173L62,220L135,161Z" fill="rgb(36, 37, 36)" fill-opacity="0.62"/><path d="M147,73L173,53L127,64Z" fill="rgb(15, 65, 92)" fill-opacity="0.14"/><path d="M114,99L113,80L136,73Z" fill="rgb(245, 196, 159)" fill-opacity="0.62"/><path d="M67,115L39,57L23,87Z" fill="rgb(206, 191, 152)" fill-opacity="0.22"/><path d="M63,188L77,215L112,189Z" fill="rgb(27, 27, 25)" fill-opacity="0.81"/><path d="M92,95L84,103L85,88Z" fill="rgb(114, 44, 7)" fill-opacity="0.38"/><path d="M186,-22L197,33L140,6Z" fill="rgb(102, 93, 78)" fill-opacity="0.45"/><path d="M-76,641L34,174L79,163Z" fill="rgb(2, 5, 1)" fill-opacity="0.44"/><path d="M141,85L116,110L117,92Z" fill="rgb(208, 150, 129)" fill-opacity="0.75"/><path d="M157,70L143,49L151,72Z" fill="rgb(15, 32, 57)" fill-opacity="0.31"/><path d="M92,187L92,183L100,179Z" fill="rgb(251, 254, 252)" fill-opacity="0.30"/><path d="M105,134L82,121L109,120Z" fill="rgb(202, 147, 114)" fill-opacity="0.40"/><path d="M29,51L-9,119L-28,-1Z" fill="rgb(124, 116, 106)" fill-opacity="0.63"/><path d="M125,125L129,166L142,168Z" fill="rgb(72, 74, 76)" fill-opacity="0.41"/><path d="M164,124L148,75L298,-39Z" fill="rgb(117, 102, 81)" fill-opacity="0.24"/><path d="M68,76L68,108L83,115Z" fill="rgb(122, 85, 69)" fill-opacity="0.51"/><path d="M95,93L97,68L87,88Z" fill="rgb(255, 217, 186)" fill-opacity="0.60"/><path d="M109,72L132,72L112,66Z" fill="rgb(206, 160, 123)" fill-opacity="0.44"/><path d="M107,40L106,62L135,53Z" fill="rgb(255, 239, 211)" fill-opacity="0.41"/><path d="M105,93L93,94L84,108Z" fill="rgb(148, 116, 100)" fill-opacity="0.74"/><path d="M48,146L42,166L35,155Z" fill="rgb(125, 106, 69)" fill-opacity="0.48"/><path d="M85,36L79,62L104,66Z" fill="rgb(221, 183, 149)" fill-opacity="0.42"/><path d="M110,164L112,158L100,164Z" fill="rgb(20, 20, 17)" fill-opacity="0.72"/><path d="M75,33L88,35L65,44Z" fill="rgb(67, 67, 62)" fill-opacity="0.76"/><path d="M114,124L145,59L139,121Z" fill="rgb(151, 151, 148)" fill-opacity="0.32"/><path d="M103,76L122,77L114,71Z" fill="rgb(69, 50, 41)" fill-opacity="0.40"/><path d="M159,55L130,23L122,38Z" fill="rgb(57, 63, 79)" fill-opacity="0.37"/><path d="M98,109L96,97L106,101Z" fill="rgb(183, 198, 206)" fill-opacity="0.30"/><path d="M149,160L137,144L135,161Z" fill="rgb(52, 56, 63)" fill-opacity="0.49"/><path d="M164,80L154,82L167,19Z" fill="rgb(130, 123, 103)" fill-opacity="0.52"/><path d="M152,70L135,99L148,98Z" fill="rgb(251, 139, 112)" fill-opacity="0.21"/><path d="M149,122L142,136L128,138Z" fill="rgb(165, 153, 142)" fill-opacity="0.39"/><path d="M42,95L8,115L16,122Z" fill="rgb(146, 132, 110)" fill-opacity="0.62"/><path d="M19,220L13,174L-72,226Z" fill="rgb(27, 22, 18)" fill-opacity="0.49"/></svg>