<svg xmlns="http://www.w3.org/2000/svg" viewBox="0 0 192 256" clip-path="url(#clip)"><defs><clipPath id="clip" clipPathUnits="objectBoundingBox"><rect x="0" y="0" width="192" height="256"/></clipPath></defs><rect x="0" y="0" width="192" height="256" fill="rgb(140, 137, 135)"/><path d="M106,147L87,314L-86,212Z" fill="rgb(15, 6, 7)" fill-opacity="0.71"/><path d="M155,138L343,275L80,270Z" fill="rgb(36, 32, 38)" fill-opacity="0.98"/><path d="M-177,237L53,164L25,-63Z" fill="rgb(254, 251, 245)" fill-opacity="0.77"/><path d="M163,50L119,-7L343,15Z" fill="rgb(232, 232, 228)" fill-opacity="0.97"/><path d="M93,0L148,22L43,27Z" fill="rgb(56, 17, 1)" fill-opacity="0.63"/><path d="M154,161L69,183L70,227Z" fill="rgb(255, 255, 255)" fill-opacity="0.36"/><path d="M85,164L487,92L64,26Z" fill="rgb(255, 192, 146)" fill-opacity="0.54"/><path d="M37,34L-35,3L90,-7Z" fill="rgb(217, 217, 212)" fill-opacity="1.00"/><path d="M116,126L21,32L66,172Z" fill="rgb(146, 45, 0)" fill-opacity="0.47"/><path d="M109,178L148,143L95,244Z" fill="rgb(246, 243, 242)" fill-opacity="0.87"/><path d="M64,370L106,187L85,186Z" fill="rgb(73, 67, 70)" fill-opacity="0.83"/><path d="M36,88L62,103L50,20Z" fill="rgb(92, 42, 16)" fill-opacity="0.73"/><path d="M120,74L118,92L33,84Z" fill="rgb(93, 29, 0)" fill-opacity="0.52"/><path d="M74,194L72,219L87,199Z" fill="rgb(251, 248, 253)" fill-opacity="0.60"/><path d="M146,159L142,57L119,117Z" fill="rgb(255, 249, 232)" fill-opacity="0.74"/><path d="M154,171L168,150L147,129Z" fill="rgb(65, 57, 61)" fill-opacity="0.87"/><path d="M67,119L88,126L70,144Z" fill="rgb(88, 24, 0)" fill-opacity="0.68"/><path d="M104,132L88,83L58,112Z" fill="rgb(254, 193, 153)" fill-opacity="0.52"/><path d="M35,79L61,162L-325,272Z" fill="rgb(248, 248, 247)" fill-opacity="0.93"/><path d="M-79,74L46,29L32,81Z" fill="rgb(201, 193, 180)" fill-opacity="1.00"/><path d="M122,226L137,230L133,224Z" fill="rgb(223, 209, 200)" fill-opacity="0.56"/><path d="M131,92L84,32L139,54Z" fill="rgb(252, 213, 179)" fill-opacity="0.68"/><path d="M139,156L73,157L97,182Z" fill="rgb(163, 63, 13)" fill-opacity="0.48"/><path d="M96,84L50,76L54,22Z" fill="rgb(235, 133, 66)" fill-opacity="0.47"/><path d="M69,3L141,5L53,-97Z" fill="rgb(222, 220, 216)" fill-opacity="0.97"/><path d="M82,219L73,222L84,203Z" fill="rgb(9, 5, 3)" fill-opacity="0.66"/><path d="M134,32L106,17L80,92Z" fill="rgb(255, 188, 146)" fill-opacity="0.49"/><path d="M116,29L62,46L108,78Z" fill="rgb(248, 195, 165)" fill-opacity="0.51"/><path d="M82,90L77,124L111,107Z" fill="rgb(255, 204, 174)" fill-opacity="0.53"/><path d="M132,158L124,118L71,159Z" fill="rgb(207, 142, 100)" fill-opacity="0.84"/><path d="M56,14L37,51L139,8Z" fill="rgb(87, 34, 7)" fill-opacity="0.34"/><path d="M145,9L152,46L323,30Z" fill="rgb(240, 241, 239)" fill-opacity="0.84"/><path d="M109,80L104,105L83,77Z" fill="rgb(117, 36, 0)" fill-opacity="0.36"/><path d="M131,57L118,72L159,131Z" fill="rgb(250, 254, 243)" fill-opacity="0.41"/><path d="M76,169L49,110L55,145Z" fill="rgb(98, 45, 17)" fill-opacity="0.69"/><path d="M68,162L-106,214L69,327Z" fill="rgb(11, 12, 17)" fill-opacity="0.68"/><path d="M35,128L67,160L37,171Z" fill="rgb(245, 244, 242)" fill-opacity="0.78"/><path d="M170,42L319,251L148,130Z" fill="rgb(175, 162, 150)" fill-opacity="0.98"/><path d="M116,4L142,70L144,19Z" fill="rgb(77, 31, 0)" fill-opacity="0.29"/><path d="M44,100L85,85L35,74Z" fill="rgb(75, 31, 15)" fill-opacity="0.70"/><path d="M97,120L66,136L91,119Z" fill="rgb(90, 37, 11)" fill-opacity="0.66"/><path d="M79,-14L1,40L35,45Z" fill="rgb(227, 228, 223)" fill-opacity="0.88"/><path d="M143,160L149,135L101,204Z" fill="rgb(242, 241, 240)" fill-opacity="0.85"/><path d="M87,327L233,180L179,155Z" fill="rgb(30, 28, 34)" fill-opacity="0.80"/><path d="M90,3L46,33L60,14Z" fill="rgb(47, 33, 28)" fill-opacity="0.68"/><path d="M156,65L242,50L152,45Z" fill="rgb(159, 148, 134)" fill-opacity="0.84"/><path d="M43,99L49,113L54,154Z" fill="rgb(248, 239, 228)" fill-opacity="0.71"/><path d="M162,22L168,39L137,18Z" fill="rgb(232, 232, 230)" fill-opacity="0.75"/><path d="M100,162L53,124L72,160Z" fill="rgb(200, 105, 56)" fill-opacity="0.41"/><path d="M130,162L120,169L97,111Z" fill="rgb(183, 124, 84)" fill-opacity="0.93"/><path d="M96,2L50,21L136,12Z" fill="rgb(32, 23, 24)" fill-opacity="0.51"/><path d="M150,30L144,55L127,8Z" fill="rgb(94, 63, 29)" fill-opacity="0.27"/><path d="M75,88L81,87L68,139Z" fill="rgb(111, 43, 8)" fill-opacity="0.54"/><path d="M26,171L-35,208L50,169Z" fill="rgb(41, 34, 33)" fill-opacity="0.65"/><path d="M134,90L151,148L127,122Z" fill="rgb(248, 250, 243)" fill-opacity="0.54"/><path d="M96,182L88,185L73,168Z" fill="rgb(254, 224, 210)" fill-opacity="0.37"/><path d="M94,32L88,108L55,31Z" fill="rgb(233, 167, 130)" fill-opacity="0.39"/><path d="M178,154L140,162L114,209Z" fill="rgb(47, 41, 47)" fill-opacity="0.79"/><path d="M39,73L36,85L56,123Z" fill="rgb(92, 28, 1)" fill-opacity="0.39"/><path d="M53,23L42,68L41,43Z" fill="rgb(69, 42, 30)" fill-opacity="0.63"/><path d="M154,67L153,48L133,80Z" fill="rgb(225, 214, 200)" fill-opacity="0.79"/><path d="M67,193L84,201L73,221Z" fill="rgb(249, 247, 251)" fill-opacity="0.28"/><path d="M98,34L48,28L124,14Z" fill="rgb(154, 95, 61)" fill-opacity="0.46"/><path d="M135,117L149,120L162,76Z" fill="rgb(245, 219, 193)" fill-opacity="0.66"/><path d="M139,152L138,123L126,145Z" fill="rgb(244, 207, 173)" fill-opacity="0.73"/><path d="M221,2L94,-5L139,14Z" fill="rgb(219, 219, 213)" fill-opacity="0.94"/><path d="M98,85L121,78L127,88Z" fill="rgb(176, 126, 93)" fill-opacity="1.00"/><path d="M85,91L120,127L129,116Z" fill="rgb(253, 200, 157)" fill-opacity="0.58"/><path d="M37,41L29,82L43,71Z" fill="rgb(198, 187, 170)" fill-opacity="0.75"/><path d="M71,90L69,129L47,104Z" fill="rgb(255, 144, 66)" fill-opacity="0.27"/><path d="M89,206L71,176L78,166Z" fill="rgb(106, 88, 79)" fill-opacity="0.63"/><path d="M109,198L92,164L93,200Z" fill="rgb(63, 50, 51)" fill-opacity="0.45"/><path d="M344,206L139,116L169,151Z" fill="rgb(180, 166, 155)" fill-opacity="0.88"/><path d="M92,108L116,119L118,134Z" fill="rgb(152, 59, 0)" fill-opacity="0.31"/><path d="M-8,41L41,47L-56,85Z" fill="rgb(175, 165, 146)" fill-opacity="0.42"/><path d="M94,52L56,73L99,79Z" fill="rgb(227, 167, 131)" fill-opacity="0.56"/><path d="M138,168L124,180L86,182Z" fill="rgb(255, 253, 253)" fill-opacity="0.42"/><path d="M63,153L115,172L97,181Z" fill="rgb(87, 27, 13)" fill-opacity="0.41"/><path d="M132,89L111,96L119,131Z" fill="rgb(244, 192, 145)" fill-opacity="0.65"/><path d="M82,253L64,266L104,230Z" fill="rgb(154, 151, 158)" fill-opacity="0.54"/><path d="M104,163L71,150L125,133Z" fill="rgb(255, 179, 146)" fill-opacity="0.28"/><path d="M150,136L96,239L96,229Z" fill="rgb(248, 248, 249)" fill-opacity="0.71"/><path d="M106,200L85,213L108,194Z" fill="rgb(195, 196, 196)" fill-opacity="0.34"/><path d="M98,117L113,129L89,130Z" fill="rgb(225, 177, 143)" fill-opacity="0.54"/><path d="M72,158L32,180L71,188Z" fill="rgb(11, 10, 4)" fill-opacity="0.69"/><path d="M52,271L-8,179L72,213Z" fill="rgb(29, 26, 33)" fill-opacity="0.73"/><path d="M49,67L67,65L51,29Z" fill="rgb(170, 102, 54)" fill-opacity="0.56"/><path d="M131,36L118,76L87,73Z" fill="rgb(235, 186, 147)" fill-opacity="0.89"/><path d="M64,139L93,139L98,145Z" fill="rgb(146, 64, 29)" fill-opacity="0.62"/><path d="M111,202L100,178L129,179Z" fill="rgb(245, 245, 245)" fill-opacity="0.83"/><path d="M112,38L105,64L72,44Z" fill="rgb(246, 215, 197)" fill-opacity="0.34"/><path d="M93,188L126,149L101,163Z" fill="rgb(121, 71, 43)" fill-opacity="0.67"/><path d="M3,183L-80,94L32,79Z" fill="rgb(248, 248, 248)" fill-opacity="0.76"/><path d="M132,97L147,156L147,133Z" fill="rgb(248, 248, 246)" fill-opacity="0.56"/><path d="M83,135L65,157L69,110Z" fill="rgb(104, 28, 3)" fill-opacity="0.29"/><path d="M151,106L133,67L126,76Z" fill="rgb(253, 254, 246)" fill-opacity="0.41"/><path d="M161,69L146,95L142,82Z" fill="rgb(211, 92, 16)" fill-opacity="0.27"/><path d="M85,135L111,135L107,130Z" fill="rgb(107, 32, 7)" fill-opacity="0.36"/><path d="M115,26L151,37L112,16Z" fill="rgb(166, 119, 87)" fill-opacity="0.61"/><path d="M106,107L126,87L102,92Z" fill="rgb(213, 143, 98)" fill-opacity="0.47"/></svg>