<svg xmlns="http://www.w3.org/2000/svg" viewBox="0 0 201.14285714285714 256" clip-path="url(#clip)"><defs><clipPath id="clip" clipPathUnits="objectBoundingBox"><rect x="0" y="0" width="201.14285714285714" height="256"/></clipPath></defs><rect x="0" y="0" width="201.14285714285714" height="256" fill="rgb(56, 45, 44)"/><path d="M62,133L110,3L306,368Z" fill="rgb(215, 171, 147)" fill-opacity="0.49"/><path d="M87,109L105,181L150,175Z" fill="rgb(253, 217, 203)" fill-opacity="0.45"/><path d="M143,98L62,54L138,31Z" fill="rgb(255, 205, 176)" fill-opacity="0.50"/><path d="M175,224L189,314L134,171Z" fill="rgb(31, 26, 31)" fill-opacity="0.83"/><path d="M26,51L-152,-4L230,-4Z" fill="rgb(45, 30, 29)" fill-opacity="0.88"/><path d="M71,41L124,355L-199,99Z" fill="rgb(36, 27, 31)" fill-opacity="0.54"/><path d="M122,205L117,88L138,106Z" fill="rgb(254, 188, 166)" fill-opacity="0.40"/><path d="M152,61L121,95L76,42Z" fill="rgb(255, 202, 173)" fill-opacity="0.44"/><path d="M51,91L92,29L134,160Z" fill="rgb(185, 114, 91)" fill-opacity="0.38"/><path d="M112,154L156,223L90,158Z" fill="rgb(206, 193, 186)" fill-opacity="0.78"/><path d="M133,165L145,79L366,186Z" fill="rgb(84, 71, 61)" fill-opacity="0.95"/><path d="M69,51L99,29L84,113Z" fill="rgb(128, 102, 93)" fill-opacity="0.63"/><path d="M125,172L147,180L155,217Z" fill="rgb(33, 29, 33)" fill-opacity="0.71"/><path d="M135,127L146,133L124,147Z" fill="rgb(179, 159, 156)" fill-opacity="0.82"/><path d="M76,126L121,149L103,157Z" fill="rgb(148, 109, 94)" fill-opacity="0.95"/><path d="M189,84L176,112L107,91Z" fill="rgb(46, 19, 8)" fill-opacity="0.31"/><path d="M114,99L96,138L89,95Z" fill="rgb(225, 153, 129)" fill-opacity="0.62"/><path d="M95,81L141,88L121,48Z" fill="rgb(246, 198, 171)" fill-opacity="0.51"/><path d="M117,123L103,112L125,118Z" fill="rgb(53, 7, 0)" fill-opacity="0.46"/><path d="M133,25L90,35L144,59Z" fill="rgb(128, 107, 99)" fill-opacity="0.62"/><path d="M82,146L270,376L-126,199Z" fill="rgb(36, 31, 38)" fill-opacity="0.80"/><path d="M156,137L137,164L121,146Z" fill="rgb(85, 73, 62)" fill-opacity="0.67"/><path d="M96,166L119,151L158,178Z" fill="rgb(245, 255, 254)" fill-opacity="0.32"/><path d="M149,67L144,91L123,30Z" fill="rgb(182, 145, 126)" fill-opacity="0.51"/><path d="M119,87L96,96L88,82Z" fill="rgb(90, 56, 50)" fill-opacity="0.45"/><path d="M97,173L132,177L119,169Z" fill="rgb(102, 86, 82)" fill-opacity="0.51"/><path d="M87,88L43,99L82,143Z" fill="rgb(92, 59, 46)" fill-opacity="0.54"/><path d="M176,237L145,156L321,70Z" fill="rgb(103, 91, 80)" fill-opacity="0.74"/><path d="M17,184L65,48L80,54Z" fill="rgb(67, 47, 39)" fill-opacity="0.54"/><path d="M134,218L195,282L178,237Z" fill="rgb(32, 26, 29)" fill-opacity="0.63"/><path d="M327,-109L164,94L131,35Z" fill="rgb(47, 28, 20)" fill-opacity="0.40"/><path d="M142,141L237,71L148,75Z" fill="rgb(65, 52, 41)" fill-opacity="0.68"/><path d="M121,119L115,75L126,79Z" fill="rgb(224, 159, 130)" fill-opacity="0.58"/><path d="M79,143L64,113L63,124Z" fill="rgb(141, 137, 129)" fill-opacity="0.42"/><path d="M166,105L166,85L132,92Z" fill="rgb(51, 35, 35)" fill-opacity="0.35"/><path d="M133,125L97,141L124,150Z" fill="rgb(203, 142, 120)" fill-opacity="0.77"/><path d="M190,89L178,147L284,76Z" fill="rgb(92, 77, 66)" fill-opacity="0.51"/><path d="M115,73L110,53L139,67Z" fill="rgb(255, 230, 211)" fill-opacity="0.41"/><path d="M110,85L75,46L97,42Z" fill="rgb(225, 180, 156)" fill-opacity="0.26"/><path d="M78,44L86,70L73,84Z" fill="rgb(133, 116, 110)" fill-opacity="0.67"/><path d="M117,172L108,179L148,217Z" fill="rgb(255, 237, 225)" fill-opacity="0.27"/><path d="M84,127L79,97L104,146Z" fill="rgb(174, 103, 76)" fill-opacity="0.44"/><path d="M143,98L88,101L134,121Z" fill="rgb(234, 152, 124)" fill-opacity="0.34"/><path d="M106,90L103,125L112,97Z" fill="rgb(202, 146, 126)" fill-opacity="0.65"/><path d="M153,190L143,167L153,171Z" fill="rgb(193, 173, 173)" fill-opacity="0.59"/><path d="M35,182L87,155L58,120Z" fill="rgb(32, 26, 31)" fill-opacity="1.00"/><path d="M49,146L74,78L-11,182Z" fill="rgb(68, 47, 37)" fill-opacity="0.65"/><path d="M105,170L132,155L92,157Z" fill="rgb(251, 241, 231)" fill-opacity="0.37"/><path d="M89,89L105,94L104,89Z" fill="rgb(15, 10, 11)" fill-opacity="0.32"/><path d="M125,173L139,176L121,146Z" fill="rgb(205, 194, 185)" fill-opacity="0.66"/><path d="M117,151L100,151L101,144Z" fill="rgb(114, 65, 49)" fill-opacity="0.56"/><path d="M57,105L81,126L66,50Z" fill="rgb(83, 53, 44)" fill-opacity="0.87"/><path d="M150,176L150,194L154,180Z" fill="rgb(203, 186, 186)" fill-opacity="0.43"/><path d="M100,160L101,175L78,190Z" fill="rgb(56, 49, 53)" fill-opacity="0.29"/><path d="M109,123L83,88L105,102Z" fill="rgb(247, 186, 162)" fill-opacity="0.22"/><path d="M121,121L109,119L107,110Z" fill="rgb(42, 7, 4)" fill-opacity="0.30"/><path d="M151,217L154,190L183,250Z" fill="rgb(37, 31, 38)" fill-opacity="0.49"/><path d="M114,87L107,84L117,102Z" fill="rgb(80, 27, 19)" fill-opacity="0.40"/><path d="M104,154L130,137L111,157Z" fill="rgb(156, 102, 82)" fill-opacity="0.41"/><path d="M93,42L89,60L123,42Z" fill="rgb(191, 137, 116)" fill-opacity="0.44"/><path d="M119,21L145,41L103,28Z" fill="rgb(105, 89, 82)" fill-opacity="0.55"/><path d="M119,178L134,201L109,176Z" fill="rgb(241, 222, 208)" fill-opacity="0.51"/><path d="M27,170L112,244L85,265Z" fill="rgb(48, 42, 48)" fill-opacity="0.65"/><path d="M196,201L310,285L175,292Z" fill="rgb(120, 104, 89)" fill-opacity="0.85"/><path d="M142,138L106,147L83,119Z" fill="rgb(226, 156, 131)" fill-opacity="0.23"/><path d="M113,129L99,123L125,128Z" fill="rgb(131, 55, 42)" fill-opacity="0.61"/><path d="M86,128L83,148L94,162Z" fill="rgb(108, 102, 96)" fill-opacity="0.46"/><path d="M134,98L122,97L131,94Z" fill="rgb(17, 1, 8)" fill-opacity="0.32"/><path d="M166,157L145,100L134,123Z" fill="rgb(81, 64, 54)" fill-opacity="0.57"/><path d="M90,123L73,117L89,43Z" fill="rgb(137, 78, 57)" fill-opacity="0.27"/><path d="M77,134L91,154L99,156Z" fill="rgb(70, 63, 60)" fill-opacity="0.57"/><path d="M16,130L24,75L-34,89Z" fill="rgb(60, 41, 35)" fill-opacity="0.63"/><path d="M150,69L112,105L137,66Z" fill="rgb(215, 151, 125)" fill-opacity="0.34"/><path d="M100,156L102,170L113,158Z" fill="rgb(241, 231, 223)" fill-opacity="0.67"/><path d="M153,93L139,19L222,47Z" fill="rgb(53, 39, 34)" fill-opacity="0.74"/><path d="M77,123L99,161L102,148Z" fill="rgb(139, 124, 120)" fill-opacity="0.56"/><path d="M131,154L153,166L133,168Z" fill="rgb(121, 102, 90)" fill-opacity="0.36"/><path d="M149,186L148,207L130,175Z" fill="rgb(33, 26, 28)" fill-opacity="0.78"/><path d="M86,200L13,168L44,151Z" fill="rgb(30, 25, 30)" fill-opacity="0.93"/><path d="M97,46L139,63L130,47Z" fill="rgb(218, 160, 132)" fill-opacity="0.38"/><path d="M120,165L113,173L134,183Z" fill="rgb(132, 118, 116)" fill-opacity="0.30"/><path d="M47,62L116,19L124,-78Z" fill="rgb(41, 26, 23)" fill-opacity="0.64"/><path d="M143,97L149,80L124,93Z" fill="rgb(148, 89, 75)" fill-opacity="0.31"/><path d="M159,-65L245,41L128,27Z" fill="rgb(47, 32, 30)" fill-opacity="0.62"/><path d="M113,63L126,62L130,75Z" fill="rgb(255, 241, 226)" fill-opacity="0.30"/><path d="M48,145L60,114L29,156Z" fill="rgb(72, 50, 41)" fill-opacity="0.68"/><path d="M101,28L75,87L68,70Z" fill="rgb(136, 129, 128)" fill-opacity="0.20"/><path d="M136,174L113,170L150,170Z" fill="rgb(252, 230, 214)" fill-opacity="0.26"/><path d="M103,87L86,56L85,95Z" fill="rgb(147, 105, 88)" fill-opacity="0.48"/><path d="M89,33L124,28L120,20Z" fill="rgb(84, 67, 59)" fill-opacity="0.46"/><path d="M116,162L152,212L156,226Z" fill="rgb(139, 131, 131)" fill-opacity="0.45"/><path d="M33,376L10,219L39,205Z" fill="rgb(46, 42, 50)" fill-opacity="0.46"/><path d="M122,109L137,119L128,139Z" fill="rgb(204, 122, 96)" fill-opacity="0.39"/><path d="M148,63L153,70L147,78Z" fill="rgb(85, 70, 60)" fill-opacity="0.58"/><path d="M194,279L166,208L279,186Z" fill="rgb(122, 105, 91)" fill-opacity="0.55"/><path d="M68,53L131,26L141,33Z" fill="rgb(128, 105, 97)" fill-opacity="0.40"/><path d="M157,224L155,226L144,211Z" fill="rgb(120, 112, 111)" fill-opacity="0.42"/><path d="M118,32L100,37L98,32Z" fill="rgb(151, 131, 124)" fill-opacity="0.58"/><path d="M131,165L122,151L99,161Z" fill="rgb(230, 218, 209)" fill-opacity="0.57"/><path d="M134,106L136,97L126,101Z" fill="rgb(166, 125, 108)" fill-opacity="0.89"/></svg>