<svg xmlns="http://www.w3.org/2000/svg" viewBox="0 0 192.28444444444443 256" clip-path="url(#clip)"><defs><clipPath id="clip" clipPathUnits="objectBoundingBox"><rect x="0" y="0" width="192.28444444444443" height="256"/></clipPath></defs><rect x="0" y="0" width="192.28444444444443" height="256" fill="rgb(36, 35, 61)"/><path d="M97,163L159,129L92,248Z" fill="rgb(227, 228, 244)" fill-opacity="0.81"/><path d="M76,187L94,164L78,153Z" fill="rgb(253, 241, 230)" fill-opacity="0.72"/><path d="M26,95L96,180L138,-186Z" fill="rgb(195, 147, 100)" fill-opacity="0.63"/><path d="M156,139L149,95L119,187Z" fill="rgb(118, 115, 157)" fill-opacity="0.60"/><path d="M154,83L48,73L44,163Z" fill="rgb(255, 187, 125)" fill-opacity="0.25"/><path d="M171,-43L149,140L178,161Z" fill="rgb(47, 47, 91)" fill-opacity="0.99"/><path d="M41,68L90,65L69,30Z" fill="rgb(201, 162, 129)" fill-opacity="0.95"/><path d="M85,62L39,22L37,61Z" fill="rgb(255, 212, 145)" fill-opacity="0.21"/><path d="M93,172L163,115L67,142Z" fill="rgb(92, 64, 45)" fill-opacity="0.80"/><path d="M26,7L123,56L171,-22Z" fill="rgb(76, 67, 70)" fill-opacity="0.66"/><path d="M89,128L70,77L91,78Z" fill="rgb(239, 202, 171)" fill-opacity="0.56"/><path d="M55,98L68,68L74,106Z" fill="rgb(91, 44, 18)" fill-opacity="0.52"/><path d="M141,165L90,167L111,211Z" fill="rgb(245, 252, 255)" fill-opacity="0.48"/><path d="M75,196L68,210L84,151Z" fill="rgb(239, 243, 255)" fill-opacity="0.50"/><path d="M29,-41L54,176L-74,153Z" fill="rgb(44, 45, 87)" fill-opacity="0.90"/><path d="M145,125L151,142L123,152Z" fill="rgb(163, 158, 179)" fill-opacity="0.74"/><path d="M48,178L39,107L66,155Z" fill="rgb(56, 60, 122)" fill-opacity="0.80"/><path d="M106,223L91,201L129,142Z" fill="rgb(230, 234, 252)" fill-opacity="0.60"/><path d="M75,186L79,154L94,162Z" fill="rgb(254, 255, 255)" fill-opacity="0.40"/><path d="M101,163L162,80L97,49Z" fill="rgb(86, 52, 13)" fill-opacity="0.53"/><path d="M52,128L84,134L60,144Z" fill="rgb(248, 209, 170)" fill-opacity="0.45"/><path d="M119,194L112,154L87,260Z" fill="rgb(225, 227, 243)" fill-opacity="0.73"/><path d="M152,145L77,276L289,242Z" fill="rgb(24, 22, 23)" fill-opacity="0.92"/><path d="M113,13L30,49L54,11Z" fill="rgb(80, 63, 47)" fill-opacity="0.79"/><path d="M99,194L97,181L75,199Z" fill="rgb(47, 38, 35)" fill-opacity="0.82"/><path d="M-34,235L58,172L107,320Z" fill="rgb(22, 14, 0)" fill-opacity="0.50"/><path d="M97,208L85,277L58,212Z" fill="rgb(68, 44, 35)" fill-opacity="0.72"/><path d="M115,62L102,47L117,44Z" fill="rgb(170, 152, 119)" fill-opacity="0.43"/><path d="M56,149L95,157L115,129Z" fill="rgb(48, 37, 37)" fill-opacity="0.59"/><path d="M85,99L78,113L41,113Z" fill="rgb(255, 217, 194)" fill-opacity="0.32"/><path d="M162,110L101,22L142,30Z" fill="rgb(46, 38, 24)" fill-opacity="0.68"/><path d="M148,-34L153,50L130,13Z" fill="rgb(62, 71, 162)" fill-opacity="0.47"/><path d="M97,21L42,49L92,53Z" fill="rgb(230, 175, 116)" fill-opacity="0.34"/><path d="M151,146L112,187L138,169Z" fill="rgb(145, 143, 180)" fill-opacity="0.68"/><path d="M61,232L100,189L83,174Z" fill="rgb(59, 41, 33)" fill-opacity="0.68"/><path d="M76,144L94,113L55,140Z" fill="rgb(242, 202, 156)" fill-opacity="0.26"/><path d="M55,79L39,81L55,70Z" fill="rgb(71, 56, 54)" fill-opacity="0.69"/><path d="M51,102L66,104L63,96Z" fill="rgb(49, 23, 8)" fill-opacity="0.48"/><path d="M87,174L120,152L142,109Z" fill="rgb(117, 76, 47)" fill-opacity="0.59"/><path d="M64,72L44,116L61,58Z" fill="rgb(190, 149, 121)" fill-opacity="0.75"/><path d="M59,80L45,82L47,118Z" fill="rgb(198, 159, 135)" fill-opacity="0.51"/><path d="M73,-1L33,-12L38,31Z" fill="rgb(48, 52, 105)" fill-opacity="0.74"/><path d="M76,159L101,100L148,88Z" fill="rgb(105, 66, 37)" fill-opacity="0.49"/><path d="M71,71L118,92L116,70Z" fill="rgb(120, 84, 58)" fill-opacity="0.66"/><path d="M102,79L83,91L93,98Z" fill="rgb(243, 201, 177)" fill-opacity="0.37"/><path d="M122,150L106,211L94,171Z" fill="rgb(236, 242, 250)" fill-opacity="0.78"/><path d="M155,78L139,122L152,136Z" fill="rgb(51, 57, 123)" fill-opacity="0.64"/><path d="M85,110L48,122L88,117Z" fill="rgb(98, 43, 22)" fill-opacity="0.43"/><path d="M103,3L69,1L150,28Z" fill="rgb(255, 238, 174)" fill-opacity="0.16"/><path d="M69,198L54,282L-48,263Z" fill="rgb(22, 19, 25)" fill-opacity="0.86"/><path d="M187,160L233,293L191,15Z" fill="rgb(55, 57, 115)" fill-opacity="0.65"/><path d="M74,191L81,139L23,251Z" fill="rgb(31, 29, 35)" fill-opacity="0.57"/><path d="M80,65L107,79L130,50Z" fill="rgb(90, 60, 32)" fill-opacity="0.42"/><path d="M172,15L162,-14L165,189Z" fill="rgb(119, 133, 255)" fill-opacity="0.13"/><path d="M132,76L142,75L146,88Z" fill="rgb(142, 87, 53)" fill-opacity="0.51"/><path d="M54,44L31,34L118,15Z" fill="rgb(121, 84, 47)" fill-opacity="0.36"/><path d="M150,160L161,165L160,-17Z" fill="rgb(27, 25, 38)" fill-opacity="0.58"/><path d="M72,77L77,113L88,76Z" fill="rgb(254, 226, 209)" fill-opacity="0.21"/><path d="M118,57L123,10L78,26Z" fill="rgb(126, 94, 40)" fill-opacity="0.26"/><path d="M42,58L61,38L90,73Z" fill="rgb(219, 184, 166)" fill-opacity="0.27"/><path d="M153,73L132,113L147,106Z" fill="rgb(16, 19, 22)" fill-opacity="0.58"/><path d="M129,54L153,77L113,72Z" fill="rgb(31, 28, 23)" fill-opacity="0.72"/><path d="M34,142L66,146L58,179Z" fill="rgb(57, 61, 124)" fill-opacity="0.40"/><path d="M93,174L95,162L76,150Z" fill="rgb(150, 113, 89)" fill-opacity="0.79"/><path d="M65,70L46,38L42,69Z" fill="rgb(184, 141, 105)" fill-opacity="0.52"/><path d="M145,125L140,120L147,142Z" fill="rgb(187, 184, 195)" fill-opacity="0.44"/><path d="M104,5L81,0L74,8Z" fill="rgb(255, 245, 227)" fill-opacity="0.20"/><path d="M114,182L134,175L135,138Z" fill="rgb(173, 173, 212)" fill-opacity="0.59"/><path d="M112,44L83,4L113,11Z" fill="rgb(88, 71, 52)" fill-opacity="0.54"/><path d="M90,169L79,159L76,183Z" fill="rgb(235, 241, 252)" fill-opacity="0.81"/><path d="M88,105L98,140L103,75Z" fill="rgb(173, 118, 76)" fill-opacity="0.36"/><path d="M134,12L69,-5L135,-12Z" fill="rgb(13, 27, 114)" fill-opacity="0.40"/><path d="M93,129L58,158L96,145Z" fill="rgb(48, 39, 40)" fill-opacity="0.42"/><path d="M79,70L106,51L91,28Z" fill="rgb(155, 108, 65)" fill-opacity="0.50"/><path d="M94,163L144,131L117,154Z" fill="rgb(129, 93, 69)" fill-opacity="0.61"/><path d="M91,16L141,27L127,12Z" fill="rgb(100, 84, 67)" fill-opacity="0.55"/><path d="M146,34L156,108L150,-49Z" fill="rgb(48, 47, 92)" fill-opacity="0.70"/><path d="M95,178L93,170L63,221Z" fill="rgb(66, 45, 44)" fill-opacity="1.00"/><path d="M98,196L101,187L90,201Z" fill="rgb(147, 149, 179)" fill-opacity="0.65"/><path d="M45,50L83,47L78,30Z" fill="rgb(207, 170, 137)" fill-opacity="0.47"/><path d="M85,109L90,115L65,114Z" fill="rgb(167, 123, 92)" fill-opacity="0.87"/><path d="M-1,259L19,183L6,115Z" fill="rgb(41, 39, 80)" fill-opacity="0.50"/><path d="M46,92L49,124L62,145Z" fill="rgb(182, 145, 111)" fill-opacity="0.65"/><path d="M93,48L86,63L69,46Z" fill="rgb(174, 129, 87)" fill-opacity="0.52"/><path d="M28,185L13,202L71,171Z" fill="rgb(29, 26, 35)" fill-opacity="0.97"/><path d="M83,8L99,16L51,37Z" fill="rgb(56, 40, 24)" fill-opacity="0.39"/><path d="M135,81L103,54L128,99Z" fill="rgb(61, 47, 34)" fill-opacity="0.73"/><path d="M61,67L40,72L56,76Z" fill="rgb(118, 68, 29)" fill-opacity="0.39"/><path d="M45,102L82,109L58,115Z" fill="rgb(201, 161, 134)" fill-opacity="0.65"/><path d="M31,142L47,127L44,77Z" fill="rgb(49, 49, 95)" fill-opacity="0.84"/><path d="M28,-103L36,44L20,276Z" fill="rgb(28, 26, 43)" fill-opacity="0.31"/><path d="M68,54L60,62L80,56Z" fill="rgb(244, 221, 203)" fill-opacity="0.39"/><path d="M141,94L142,83L145,86Z" fill="rgb(209, 134, 90)" fill-opacity="0.38"/><path d="M95,226L79,181L87,173Z" fill="rgb(48, 37, 33)" fill-opacity="0.70"/><path d="M112,151L129,113L141,121Z" fill="rgb(88, 57, 33)" fill-opacity="0.85"/><path d="M137,137L113,155L141,128Z" fill="rgb(90, 62, 40)" fill-opacity="0.71"/><path d="M63,49L97,41L70,53Z" fill="rgb(189, 148, 107)" fill-opacity="0.49"/><path d="M102,34L149,49L125,16Z" fill="rgb(47, 30, 1)" fill-opacity="0.19"/><path d="M58,279L64,219L101,274Z" fill="rgb(54, 37, 32)" fill-opacity="0.82"/><path d="M72,102L50,100L77,97Z" fill="rgb(72, 39, 24)" fill-opacity="0.43"/></svg>