<svg xmlns="http://www.w3.org/2000/svg" viewBox="0 0 214.22594142259413 256" clip-path="url(#clip)"><defs><clipPath id="clip" clipPathUnits="objectBoundingBox"><rect x="0" y="0" width="214.22594142259413" height="256"/></clipPath></defs><rect x="0" y="0" width="214.22594142259413" height="256" fill="#d2d1d3"/><path d="M211,-78L-164,41L237,579Z" fill="rgb(90, 40, 17)" fill-opacity="0.99"/><path d="M83,209L92,239L120,211Z" fill="rgb(245, 234, 228)" fill-opacity="0.90"/><path d="M137,35L141,155L47,70Z" fill="rgb(216, 139, 76)" fill-opacity="0.76"/><path d="M122,198L97,26L30,173Z" fill="rgb(253, 162, 86)" fill-opacity="0.40"/><path d="M77,182L89,188L78,192Z" fill="rgb(222, 200, 183)" fill-opacity="0.76"/><path d="M154,-87L51,94L-464,263Z" fill="rgb(62, 10, 0)" fill-opacity="0.87"/><path d="M276,236L136,162L72,323Z" fill="rgb(14, 0, 0)" fill-opacity="0.86"/><path d="M92,237L98,205L120,214Z" fill="rgb(250, 239, 233)" fill-opacity="0.63"/><path d="M124,281L-172,279L56,181Z" fill="rgb(19, 1, 0)" fill-opacity="0.85"/><path d="M107,124L71,161L62,86Z" fill="rgb(220, 139, 73)" fill-opacity="0.67"/><path d="M119,116L83,156L137,151Z" fill="rgb(106, 39, 10)" fill-opacity="0.77"/><path d="M87,43L134,92L61,66Z" fill="rgb(236, 173, 116)" fill-opacity="0.58"/><path d="M50,186L73,169L85,224Z" fill="rgb(34, 9, 2)" fill-opacity="0.91"/><path d="M69,-8L318,-30L213,107Z" fill="rgb(60, 10, 0)" fill-opacity="0.93"/><path d="M82,185L103,148L142,163Z" fill="rgb(214, 121, 54)" fill-opacity="0.54"/><path d="M99,141L143,41L154,79Z" fill="rgb(164, 86, 33)" fill-opacity="0.75"/><path d="M138,90L117,46L61,90Z" fill="rgb(234, 172, 115)" fill-opacity="0.44"/><path d="M74,108L97,91L103,104Z" fill="rgb(99, 22, 0)" fill-opacity="0.56"/><path d="M403,284L163,116L167,179Z" fill="rgb(177, 90, 38)" fill-opacity="0.44"/><path d="M120,214L187,260L74,255Z" fill="rgb(20, 3, 1)" fill-opacity="0.95"/><path d="M164,142L88,197L123,218Z" fill="rgb(77, 22, 5)" fill-opacity="0.52"/><path d="M52,183L-81,235L65,101Z" fill="rgb(130, 63, 26)" fill-opacity="0.91"/><path d="M153,150L143,225L183,205Z" fill="rgb(11, 1, 0)" fill-opacity="0.93"/><path d="M157,172L116,184L97,177Z" fill="rgb(64, 0, 0)" fill-opacity="0.61"/><path d="M156,62L175,77L153,158Z" fill="rgb(48, 6, 0)" fill-opacity="0.88"/><path d="M144,168L154,114L129,86Z" fill="rgb(147, 67, 21)" fill-opacity="0.75"/><path d="M66,109L103,111L86,134Z" fill="rgb(216, 146, 87)" fill-opacity="0.78"/><path d="M117,207L151,193L23,203Z" fill="rgb(41, 15, 5)" fill-opacity="1.00"/><path d="M105,199L71,170L137,191Z" fill="rgb(250, 164, 72)" fill-opacity="0.21"/><path d="M184,-80L58,55L234,-6Z" fill="rgb(55, 9, 0)" fill-opacity="0.75"/><path d="M64,41L-68,135L63,113Z" fill="rgb(83, 23, 1)" fill-opacity="0.74"/><path d="M103,94L102,106L70,91Z" fill="rgb(145, 69, 24)" fill-opacity="0.65"/><path d="M83,46L142,59L69,58Z" fill="rgb(219, 146, 80)" fill-opacity="0.61"/><path d="M93,237L117,215L81,211Z" fill="rgb(255, 249, 248)" fill-opacity="0.45"/><path d="M67,153L103,174L134,161Z" fill="rgb(226, 148, 77)" fill-opacity="0.33"/><path d="M127,89L107,103L328,110Z" fill="rgb(76, 14, 0)" fill-opacity="0.46"/><path d="M82,209L89,214L105,205Z" fill="rgb(159, 120, 82)" fill-opacity="0.73"/><path d="M126,127L92,129L117,135Z" fill="rgb(64, 0, 0)" fill-opacity="0.60"/><path d="M89,223L112,209L102,207Z" fill="rgb(244, 230, 221)" fill-opacity="0.62"/><path d="M95,34L123,95L157,64Z" fill="rgb(219, 135, 51)" fill-opacity="0.23"/><path d="M111,147L152,99L143,123Z" fill="rgb(214, 139, 63)" fill-opacity="0.41"/><path d="M103,131L108,47L112,128Z" fill="rgb(236, 163, 109)" fill-opacity="0.37"/><path d="M118,102L149,115L118,125Z" fill="rgb(202, 124, 62)" fill-opacity="0.50"/><path d="M62,69L69,114L90,41Z" fill="rgb(207, 131, 66)" fill-opacity="0.53"/><path d="M166,101L156,118L163,62Z" fill="rgb(5, 0, 1)" fill-opacity="0.57"/><path d="M84,101L86,161L77,156Z" fill="rgb(208, 136, 77)" fill-opacity="0.80"/><path d="M34,151L114,177L98,178Z" fill="rgb(140, 65, 22)" fill-opacity="0.78"/><path d="M414,247L169,44L163,134Z" fill="rgb(104, 27, 0)" fill-opacity="0.35"/><path d="M145,161L151,150L93,153Z" fill="rgb(140, 57, 13)" fill-opacity="0.57"/><path d="M130,48L95,98L77,56Z" fill="rgb(226, 180, 142)" fill-opacity="0.21"/><path d="M108,168L114,161L92,159Z" fill="rgb(229, 165, 121)" fill-opacity="0.40"/><path d="M170,181L163,130L156,152Z" fill="rgb(152, 83, 39)" fill-opacity="0.60"/><path d="M79,213L70,189L112,198Z" fill="rgb(40, 15, 5)" fill-opacity="0.69"/><path d="M89,146L117,144L85,160Z" fill="rgb(83, 20, 0)" fill-opacity="0.51"/><path d="M59,74L64,118L53,93Z" fill="rgb(47, 4, 1)" fill-opacity="0.70"/><path d="M154,104L158,115L143,125Z" fill="rgb(81, 12, 0)" fill-opacity="0.64"/><path d="M104,33L78,49L151,46Z" fill="rgb(133, 57, 2)" fill-opacity="0.36"/><path d="M114,182L158,150L153,172Z" fill="rgb(52, 3, 0)" fill-opacity="0.74"/><path d="M30,32L72,53L64,68Z" fill="rgb(74, 17, 0)" fill-opacity="0.75"/><path d="M154,59L84,46L138,43Z" fill="rgb(181, 108, 42)" fill-opacity="0.42"/><path d="M-128,139L5,169L66,108Z" fill="rgb(114, 41, 9)" fill-opacity="0.53"/><path d="M142,122L138,142L105,142Z" fill="rgb(182, 106, 41)" fill-opacity="0.35"/><path d="M210,79L118,36L296,54Z" fill="rgb(68, 14, 0)" fill-opacity="0.71"/><path d="M67,119L58,112L65,137Z" fill="rgb(234, 144, 75)" fill-opacity="0.39"/><path d="M93,151L122,177L134,158Z" fill="rgb(194, 107, 46)" fill-opacity="0.38"/><path d="M68,175L65,133L-1,204Z" fill="rgb(139, 74, 34)" fill-opacity="0.89"/><path d="M-22,54L-64,-3L155,-11Z" fill="rgb(52, 8, 0)" fill-opacity="0.66"/><path d="M73,93L95,94L71,102Z" fill="rgb(148, 82, 29)" fill-opacity="0.63"/><path d="M156,61L151,111L143,90Z" fill="rgb(110, 39, 5)" fill-opacity="0.62"/><path d="M142,188L138,147L127,143Z" fill="rgb(80, 16, 1)" fill-opacity="0.37"/><path d="M125,113L118,109L133,93Z" fill="rgb(252, 208, 174)" fill-opacity="0.15"/><path d="M101,97L101,104L73,105Z" fill="rgb(114, 32, 7)" fill-opacity="0.59"/><path d="M126,192L148,172L108,192Z" fill="rgb(101, 27, 2)" fill-opacity="0.50"/><path d="M172,94L244,138L155,41Z" fill="rgb(76, 20, 0)" fill-opacity="0.67"/><path d="M87,175L99,137L88,139Z" fill="rgb(113, 49, 1)" fill-opacity="0.34"/><path d="M75,181L109,199L95,174Z" fill="rgb(188, 127, 71)" fill-opacity="0.37"/><path d="M64,78L74,65L101,97Z" fill="rgb(214, 145, 85)" fill-opacity="0.56"/><path d="M137,95L124,96L136,100Z" fill="rgb(198, 132, 64)" fill-opacity="0.46"/><path d="M193,191L243,222L155,132Z" fill="rgb(135, 69, 31)" fill-opacity="0.84"/><path d="M93,236L77,201L7,364Z" fill="rgb(48, 18, 0)" fill-opacity="0.36"/><path d="M96,79L120,95L110,53Z" fill="rgb(222, 159, 110)" fill-opacity="0.48"/><path d="M69,84L65,110L60,83Z" fill="rgb(177, 97, 34)" fill-opacity="0.40"/><path d="M82,168L66,149L64,98Z" fill="rgb(192, 109, 45)" fill-opacity="0.60"/><path d="M110,50L126,70L135,41Z" fill="rgb(207, 135, 70)" fill-opacity="0.38"/><path d="M96,122L86,129L70,112Z" fill="rgb(231, 171, 115)" fill-opacity="0.40"/><path d="M82,212L114,217L95,235Z" fill="rgb(254, 250, 249)" fill-opacity="0.48"/><path d="M15,200L71,230L73,172Z" fill="rgb(26, 5, 0)" fill-opacity="0.64"/><path d="M118,152L136,148L117,143Z" fill="rgb(58, 5, 2)" fill-opacity="0.52"/><path d="M164,113L263,243L217,132Z" fill="rgb(123, 53, 19)" fill-opacity="0.49"/><path d="M112,91L114,131L119,118Z" fill="rgb(138, 38, 4)" fill-opacity="0.56"/><path d="M69,171L65,145L94,193Z" fill="rgb(152, 78, 23)" fill-opacity="0.35"/><path d="M118,124L108,134L125,132Z" fill="rgb(43, 0, 0)" fill-opacity="0.60"/><path d="M160,242L160,238L138,216Z" fill="rgb(98, 56, 31)" fill-opacity="0.50"/><path d="M110,71L92,73L96,62Z" fill="rgb(234, 185, 149)" fill-opacity="0.53"/><path d="M107,95L135,89L121,80Z" fill="rgb(203, 132, 72)" fill-opacity="0.80"/><path d="M152,55L149,83L131,39Z" fill="rgb(148, 76, 26)" fill-opacity="0.44"/><path d="M290,212L177,183L155,154Z" fill="rgb(140, 72, 34)" fill-opacity="0.69"/><path d="M96,153L92,166L121,166Z" fill="rgb(220, 157, 96)" fill-opacity="0.25"/><path d="M92,174L115,190L74,180Z" fill="rgb(213, 143, 70)" fill-opacity="0.25"/><path d="M148,180L116,202L120,208Z" fill="rgb(69, 33, 15)" fill-opacity="0.69"/></svg>