<svg xmlns="http://www.w3.org/2000/svg" viewBox="0 0 168.559670781893 256" clip-path="url(#clip)"><defs><clipPath id="clip" clipPathUnits="objectBoundingBox"><rect x="0" y="0" width="168.559670781893" height="256"/></clipPath></defs><rect x="0" y="0" width="168.559670781893" height="256" fill="rgb(23, 20, 30)"/><path d="M137,45L98,370L-10,-149Z" fill="rgb(194, 135, 114)" fill-opacity="0.83"/><path d="M245,17L104,132L115,223Z" fill="rgb(7, 8, 12)" fill-opacity="0.83"/><path d="M-13,69L99,-3L32,-23Z" fill="rgb(0, 7, 15)" fill-opacity="0.80"/><path d="M206,4L52,-11L111,18Z" fill="rgb(34, 33, 47)" fill-opacity="0.95"/><path d="M74,163L142,63L54,9Z" fill="rgb(255, 179, 136)" fill-opacity="0.47"/><path d="M40,127L34,50L95,281Z" fill="rgb(193, 141, 130)" fill-opacity="0.69"/><path d="M92,135L118,234L114,297Z" fill="rgb(228, 232, 228)" fill-opacity="0.55"/><path d="M129,26L138,108L72,4Z" fill="rgb(209, 227, 200)" fill-opacity="0.40"/><path d="M82,198L118,120L42,107Z" fill="rgb(178, 90, 63)" fill-opacity="0.55"/><path d="M82,194L75,242L69,183Z" fill="rgb(214, 195, 191)" fill-opacity="1.00"/><path d="M91,172L108,152L105,186Z" fill="rgb(227, 241, 250)" fill-opacity="0.61"/><path d="M21,102L-243,24L46,15Z" fill="rgb(5, 6, 16)" fill-opacity="0.94"/><path d="M131,349L76,243L88,164Z" fill="rgb(206, 79, 76)" fill-opacity="0.99"/><path d="M66,177L104,150L57,161Z" fill="rgb(0, 14, 37)" fill-opacity="0.44"/><path d="M36,106L138,73L132,110Z" fill="rgb(211, 138, 106)" fill-opacity="0.80"/><path d="M83,265L-19,355L61,185Z" fill="rgb(28, 25, 35)" fill-opacity="0.97"/><path d="M95,194L105,159L119,267Z" fill="rgb(203, 193, 187)" fill-opacity="0.82"/><path d="M67,204L73,191L46,144Z" fill="rgb(206, 239, 247)" fill-opacity="0.41"/><path d="M156,10L356,269L120,156Z" fill="rgb(1, 2, 4)" fill-opacity="0.94"/><path d="M-73,-8L103,2L58,19Z" fill="rgb(36, 33, 41)" fill-opacity="0.94"/><path d="M72,13L132,59L42,31Z" fill="rgb(174, 159, 141)" fill-opacity="0.61"/><path d="M74,161L45,134L103,132Z" fill="rgb(255, 164, 129)" fill-opacity="0.44"/><path d="M48,79L46,33L128,72Z" fill="rgb(255, 162, 126)" fill-opacity="0.49"/><path d="M29,307L47,138L35,114Z" fill="rgb(26, 23, 35)" fill-opacity="0.96"/><path d="M107,164L186,180L122,274Z" fill="rgb(31, 29, 41)" fill-opacity="1.00"/><path d="M88,195L67,182L74,173Z" fill="rgb(124, 17, 36)" fill-opacity="0.57"/><path d="M110,149L101,131L86,173Z" fill="rgb(132, 84, 61)" fill-opacity="0.90"/><path d="M105,234L93,365L111,271Z" fill="rgb(69, 2, 7)" fill-opacity="0.61"/><path d="M66,252L73,198L52,216Z" fill="rgb(31, 29, 37)" fill-opacity="0.81"/><path d="M62,115L56,129L79,114Z" fill="rgb(91, 39, 34)" fill-opacity="0.51"/><path d="M84,77L92,102L72,86Z" fill="rgb(160, 64, 53)" fill-opacity="0.52"/><path d="M35,144L-36,118L-35,171Z" fill="rgb(57, 60, 105)" fill-opacity="0.40"/><path d="M86,171L104,178L107,161Z" fill="rgb(216, 215, 218)" fill-opacity="0.62"/><path d="M128,17L140,82L334,30Z" fill="rgb(2, 3, 6)" fill-opacity="0.89"/><path d="M33,78L70,14L37,44Z" fill="rgb(163, 145, 136)" fill-opacity="0.76"/><path d="M67,135L51,122L91,128Z" fill="rgb(92, 41, 29)" fill-opacity="0.46"/><path d="M89,171L68,171L52,152Z" fill="rgb(37, 31, 54)" fill-opacity="0.53"/><path d="M113,25L57,23L91,6Z" fill="rgb(207, 207, 184)" fill-opacity="0.41"/><path d="M45,134L83,94L39,87Z" fill="rgb(255, 144, 100)" fill-opacity="0.38"/><path d="M137,73L122,21L118,86Z" fill="rgb(197, 196, 179)" fill-opacity="0.52"/><path d="M55,113L63,130L76,130Z" fill="rgb(177, 117, 93)" fill-opacity="0.84"/><path d="M107,195L98,178L91,175Z" fill="rgb(144, 93, 97)" fill-opacity="0.76"/><path d="M64,176L77,175L46,141Z" fill="rgb(69, 99, 150)" fill-opacity="0.33"/><path d="M90,194L74,178L97,176Z" fill="rgb(232, 90, 91)" fill-opacity="0.69"/><path d="M111,295L106,237L97,200Z" fill="rgb(108, 10, 22)" fill-opacity="0.44"/><path d="M113,115L137,83L115,80Z" fill="rgb(109, 75, 44)" fill-opacity="0.25"/><path d="M158,91L106,175L115,122Z" fill="rgb(0, 2, 6)" fill-opacity="0.57"/><path d="M69,123L112,135L111,81Z" fill="rgb(255, 164, 99)" fill-opacity="0.29"/><path d="M153,174L127,228L108,150Z" fill="rgb(33, 31, 45)" fill-opacity="0.92"/><path d="M114,236L105,232L95,187Z" fill="rgb(231, 212, 204)" fill-opacity="0.52"/><path d="M84,202L65,200L66,183Z" fill="rgb(231, 217, 209)" fill-opacity="0.69"/><path d="M98,52L93,65L55,48Z" fill="rgb(253, 166, 134)" fill-opacity="0.64"/><path d="M87,125L83,132L65,133Z" fill="rgb(62, 1, 1)" fill-opacity="0.44"/><path d="M68,94L110,107L61,113Z" fill="rgb(254, 163, 129)" fill-opacity="0.51"/><path d="M125,116L121,93L134,104Z" fill="rgb(254, 180, 137)" fill-opacity="0.40"/><path d="M119,13L126,29L186,94Z" fill="rgb(4, 5, 7)" fill-opacity="0.84"/><path d="M73,87L102,89L93,93Z" fill="rgb(64, 8, 7)" fill-opacity="0.32"/><path d="M33,64L38,92L72,86Z" fill="rgb(160, 95, 82)" fill-opacity="0.65"/><path d="M93,150L59,157L53,140Z" fill="rgb(253, 164, 129)" fill-opacity="0.39"/><path d="M57,154L42,130L37,85Z" fill="rgb(173, 101, 75)" fill-opacity="0.74"/><path d="M51,33L72,27L63,46Z" fill="rgb(146, 98, 86)" fill-opacity="0.37"/><path d="M107,144L108,148L102,181Z" fill="rgb(194, 188, 187)" fill-opacity="0.93"/><path d="M102,243L90,181L76,334Z" fill="rgb(231, 93, 87)" fill-opacity="0.68"/><path d="M68,91L44,87L66,82Z" fill="rgb(151, 77, 60)" fill-opacity="0.59"/><path d="M47,96L72,110L43,108Z" fill="rgb(240, 152, 123)" fill-opacity="0.69"/><path d="M15,177L63,186L46,231Z" fill="rgb(36, 32, 46)" fill-opacity="0.70"/><path d="M95,195L114,207L96,182Z" fill="rgb(252, 246, 244)" fill-opacity="0.29"/><path d="M61,109L37,117L66,127Z" fill="rgb(139, 73, 49)" fill-opacity="0.33"/><path d="M-36,20L63,10L24,50Z" fill="rgb(4, 5, 3)" fill-opacity="0.50"/><path d="M80,107L113,130L94,143Z" fill="rgb(190, 113, 67)" fill-opacity="0.53"/><path d="M57,43L125,91L39,83Z" fill="rgb(255, 134, 102)" fill-opacity="0.22"/><path d="M118,249L115,278L85,274Z" fill="rgb(155, 139, 131)" fill-opacity="0.76"/><path d="M56,64L41,75L49,43Z" fill="rgb(186, 114, 86)" fill-opacity="0.61"/><path d="M78,215L68,191L83,203Z" fill="rgb(233, 214, 210)" fill-opacity="0.54"/><path d="M115,217L109,187L117,294Z" fill="rgb(161, 151, 143)" fill-opacity="0.72"/><path d="M135,90L133,105L119,118Z" fill="rgb(230, 153, 116)" fill-opacity="0.64"/><path d="M72,227L74,184L78,246Z" fill="rgb(219, 202, 199)" fill-opacity="0.79"/><path d="M46,134L64,133L44,118Z" fill="rgb(225, 142, 104)" fill-opacity="0.52"/><path d="M90,125L80,115L63,125Z" fill="rgb(237, 169, 135)" fill-opacity="0.47"/><path d="M40,99L7,144L26,36Z" fill="rgb(2, 5, 24)" fill-opacity="0.51"/><path d="M126,27L133,45L106,14Z" fill="rgb(233, 245, 223)" fill-opacity="0.29"/><path d="M6,97L-55,15L8,147Z" fill="rgb(24, 26, 56)" fill-opacity="0.62"/><path d="M114,18L125,12L147,40Z" fill="rgb(10, 11, 16)" fill-opacity="0.64"/><path d="M105,70L133,44L136,83Z" fill="rgb(194, 189, 172)" fill-opacity="0.44"/><path d="M95,181L100,181L100,185Z" fill="rgb(24, 4, 8)" fill-opacity="0.46"/><path d="M120,85L119,21L131,36Z" fill="rgb(203, 184, 160)" fill-opacity="0.53"/><path d="M56,88L60,102L107,95Z" fill="rgb(225, 141, 120)" fill-opacity="0.55"/><path d="M83,158L99,122L60,152Z" fill="rgb(232, 157, 122)" fill-opacity="0.42"/><path d="M6,128L39,132L36,82Z" fill="rgb(8, 9, 25)" fill-opacity="1.00"/><path d="M83,164L103,135L109,145Z" fill="rgb(99, 57, 32)" fill-opacity="0.45"/><path d="M42,8L58,29L-3,10Z" fill="rgb(22, 22, 27)" fill-opacity="0.45"/><path d="M109,47L90,46L112,63Z" fill="rgb(169, 110, 79)" fill-opacity="0.31"/><path d="M87,206L88,193L72,177Z" fill="rgb(117, 1, 20)" fill-opacity="0.30"/><path d="M122,104L98,137L117,124Z" fill="rgb(151, 96, 59)" fill-opacity="0.54"/><path d="M75,99L82,113L66,116Z" fill="rgb(209, 115, 94)" fill-opacity="0.40"/><path d="M34,52L40,68L57,24Z" fill="rgb(183, 164, 153)" fill-opacity="0.35"/><path d="M78,222L71,184L79,190Z" fill="rgb(238, 226, 221)" fill-opacity="0.38"/><path d="M136,85L137,64L143,81Z" fill="rgb(29, 33, 31)" fill-opacity="0.62"/><path d="M79,108L83,98L104,113Z" fill="rgb(255, 169, 129)" fill-opacity="0.60"/><path d="M36,85L32,58L42,73Z" fill="rgb(100, 100, 112)" fill-opacity="0.42"/></svg>