<svg xmlns="http://www.w3.org/2000/svg" viewBox="0 0 190.91525423728814 256" clip-path="url(#clip)"><defs><clipPath id="clip" clipPathUnits="objectBoundingBox"><rect x="0" y="0" width="190.91525423728814" height="256"/></clipPath></defs><rect x="0" y="0" width="190.91525423728814" height="256" fill="rgb(78, 71, 63)"/><path d="M119,212L60,32L159,30Z" fill="rgb(229, 203, 168)" fill-opacity="0.70"/><path d="M48,141L108,179L105,242Z" fill="rgb(241, 219, 188)" fill-opacity="0.83"/><path d="M-9,1L-5,194L59,99Z" fill="rgb(195, 162, 126)" fill-opacity="0.48"/><path d="M137,33L68,36L149,90Z" fill="rgb(255, 239, 204)" fill-opacity="0.84"/><path d="M267,-137L105,-13L188,125Z" fill="rgb(58, 55, 50)" fill-opacity="0.84"/><path d="M127,130L143,139L146,85Z" fill="rgb(233, 208, 173)" fill-opacity="0.84"/><path d="M8,222L58,295L-63,204Z" fill="rgb(4, 17, 29)" fill-opacity="0.56"/><path d="M234,65L100,197L134,239Z" fill="rgb(49, 49, 45)" fill-opacity="0.44"/><path d="M124,94L2,89L109,76Z" fill="rgb(126, 107, 87)" fill-opacity="1.00"/><path d="M79,165L120,98L131,122Z" fill="rgb(118, 100, 81)" fill-opacity="0.72"/><path d="M150,67L117,11L86,43Z" fill="rgb(255, 255, 217)" fill-opacity="0.38"/><path d="M150,99L132,82L126,93Z" fill="rgb(34, 18, 15)" fill-opacity="0.37"/><path d="M79,38L122,-41L37,44Z" fill="rgb(35, 34, 32)" fill-opacity="0.35"/><path d="M27,132L126,163L104,172Z" fill="rgb(101, 88, 73)" fill-opacity="0.85"/><path d="M63,126L107,160L64,23Z" fill="rgb(141, 118, 94)" fill-opacity="0.67"/><path d="M93,71L63,43L5,185Z" fill="rgb(112, 95, 76)" fill-opacity="0.60"/><path d="M-169,286L87,214L50,148Z" fill="rgb(45, 47, 46)" fill-opacity="0.83"/><path d="M111,99L109,130L69,91Z" fill="rgb(253, 212, 174)" fill-opacity="0.36"/><path d="M121,196L124,167L114,178Z" fill="rgb(233, 229, 211)" fill-opacity="0.82"/><path d="M113,174L79,189L93,218Z" fill="rgb(248, 232, 203)" fill-opacity="0.89"/><path d="M60,271L85,265L19,196Z" fill="rgb(29, 36, 41)" fill-opacity="0.70"/><path d="M112,115L136,118L119,127Z" fill="rgb(52, 46, 41)" fill-opacity="0.51"/><path d="M92,68L144,47L131,83Z" fill="rgb(255, 241, 204)" fill-opacity="0.63"/><path d="M7,175L-74,149L48,17Z" fill="rgb(177, 149, 119)" fill-opacity="0.36"/><path d="M100,205L106,189L134,204Z" fill="rgb(57, 54, 49)" fill-opacity="0.59"/><path d="M110,217L104,223L105,204Z" fill="rgb(226, 216, 192)" fill-opacity="0.98"/><path d="M126,100L138,151L145,92Z" fill="rgb(252, 226, 189)" fill-opacity="0.55"/><path d="M110,151L141,137L130,160Z" fill="rgb(230, 203, 168)" fill-opacity="0.72"/><path d="M116,179L109,187L99,173Z" fill="rgb(232, 215, 184)" fill-opacity="0.82"/><path d="M429,195L123,173L163,93Z" fill="rgb(63, 58, 52)" fill-opacity="0.84"/><path d="M56,162L53,139L101,194Z" fill="rgb(226, 200, 167)" fill-opacity="0.68"/><path d="M146,105L143,129L119,89Z" fill="rgb(255, 233, 198)" fill-opacity="0.59"/><path d="M59,49L41,38L35,97Z" fill="rgb(16, 18, 17)" fill-opacity="0.34"/><path d="M139,236L102,237L142,313Z" fill="rgb(42, 46, 47)" fill-opacity="0.69"/><path d="M98,30L68,36L111,82Z" fill="rgb(229, 187, 153)" fill-opacity="0.52"/><path d="M137,36L147,80L146,59Z" fill="rgb(254, 236, 200)" fill-opacity="0.65"/><path d="M103,11L126,15L88,34Z" fill="rgb(122, 102, 83)" fill-opacity="0.68"/><path d="M40,44L60,18L75,32Z" fill="rgb(49, 49, 48)" fill-opacity="0.63"/><path d="M116,97L120,81L82,83Z" fill="rgb(67, 57, 49)" fill-opacity="0.35"/><path d="M186,69L146,54L153,112Z" fill="rgb(68, 61, 53)" fill-opacity="0.79"/><path d="M36,68L50,3L-23,17Z" fill="rgb(108, 91, 72)" fill-opacity="0.46"/><path d="M131,224L98,218L132,242Z" fill="rgb(146, 126, 101)" fill-opacity="0.41"/><path d="M54,108L52,87L43,102Z" fill="rgb(44, 39, 36)" fill-opacity="0.39"/><path d="M125,161L121,204L130,163Z" fill="rgb(52, 48, 43)" fill-opacity="0.60"/><path d="M101,89L139,128L122,100Z" fill="rgb(171, 145, 118)" fill-opacity="0.70"/><path d="M94,136L113,130L132,134Z" fill="rgb(100, 88, 73)" fill-opacity="0.83"/><path d="M42,156L20,93L8,176Z" fill="rgb(123, 107, 87)" fill-opacity="0.48"/><path d="M135,115L110,42L124,95Z" fill="rgb(255, 236, 201)" fill-opacity="0.60"/><path d="M97,0L131,27L196,-97Z" fill="rgb(63, 60, 54)" fill-opacity="0.89"/><path d="M-12,221L8,197L45,239Z" fill="rgb(78, 71, 58)" fill-opacity="0.51"/><path d="M123,164L121,200L117,178Z" fill="rgb(255, 255, 246)" fill-opacity="0.55"/><path d="M129,219L132,247L106,361Z" fill="rgb(139, 117, 95)" fill-opacity="0.32"/><path d="M104,115L112,103L85,100Z" fill="rgb(252, 218, 183)" fill-opacity="0.44"/><path d="M90,216L100,234L98,216Z" fill="rgb(255, 247, 223)" fill-opacity="0.50"/><path d="M69,179L70,198L-30,174Z" fill="rgb(37, 41, 42)" fill-opacity="0.80"/><path d="M149,82L151,104L118,84Z" fill="rgb(62, 27, 19)" fill-opacity="0.16"/><path d="M40,86L21,135L54,151Z" fill="rgb(99, 85, 70)" fill-opacity="0.50"/><path d="M76,29L64,87L94,143Z" fill="rgb(161, 137, 110)" fill-opacity="0.34"/><path d="M24,159L-103,62L9,178Z" fill="rgb(151, 135, 112)" fill-opacity="0.45"/><path d="M164,224L158,270L169,303Z" fill="rgb(129, 111, 90)" fill-opacity="0.65"/><path d="M54,233L41,197L29,202Z" fill="rgb(88, 79, 65)" fill-opacity="0.63"/><path d="M99,34L86,77L135,85Z" fill="rgb(255, 212, 174)" fill-opacity="0.23"/><path d="M106,232L109,211L104,204Z" fill="rgb(255, 255, 224)" fill-opacity="0.31"/><path d="M107,134L129,146L94,144Z" fill="rgb(160, 137, 112)" fill-opacity="0.90"/><path d="M62,169L51,148L95,211Z" fill="rgb(216, 192, 163)" fill-opacity="0.64"/><path d="M136,39L143,79L91,39Z" fill="rgb(255, 255, 223)" fill-opacity="0.49"/><path d="M97,211L99,218L103,199Z" fill="rgb(152, 131, 104)" fill-opacity="0.63"/><path d="M69,155L50,62L99,175Z" fill="rgb(92, 79, 65)" fill-opacity="0.47"/><path d="M136,36L117,16L97,37Z" fill="rgb(250, 176, 133)" fill-opacity="0.24"/><path d="M94,139L19,119L118,183Z" fill="rgb(98, 86, 71)" fill-opacity="0.36"/><path d="M174,198L166,173L181,197Z" fill="rgb(119, 103, 84)" fill-opacity="0.60"/><path d="M151,151L144,95L165,41Z" fill="rgb(72, 64, 55)" fill-opacity="0.55"/><path d="M70,35L78,69L56,40Z" fill="rgb(164, 137, 109)" fill-opacity="0.38"/><path d="M69,80L36,80L61,52Z" fill="rgb(82, 67, 55)" fill-opacity="0.44"/><path d="M79,195L91,216L43,225Z" fill="rgb(83, 73, 59)" fill-opacity="0.48"/><path d="M30,98L38,72L-59,106Z" fill="rgb(162, 136, 110)" fill-opacity="0.76"/><path d="M97,85L83,47L59,95Z" fill="rgb(138, 115, 92)" fill-opacity="0.34"/><path d="M58,188L51,140L25,176Z" fill="rgb(33, 39, 44)" fill-opacity="0.92"/><path d="M125,88L113,77L144,80Z" fill="rgb(212, 176, 143)" fill-opacity="0.54"/><path d="M123,220L122,206L116,209Z" fill="rgb(138, 121, 100)" fill-opacity="0.59"/><path d="M134,155L119,144L126,162Z" fill="rgb(252, 227, 191)" fill-opacity="0.40"/><path d="M138,244L123,207L123,171Z" fill="rgb(34, 40, 43)" fill-opacity="0.64"/><path d="M94,131L112,107L111,130Z" fill="rgb(173, 149, 120)" fill-opacity="0.65"/><path d="M60,145L72,148L58,125Z" fill="rgb(107, 93, 75)" fill-opacity="0.61"/><path d="M110,195L122,208L116,179Z" fill="rgb(99, 87, 73)" fill-opacity="0.99"/><path d="M83,203L117,166L94,216Z" fill="rgb(255, 255, 227)" fill-opacity="0.31"/><path d="M134,138L122,134L136,134Z" fill="rgb(51, 42, 32)" fill-opacity="0.42"/><path d="M167,304L75,251L17,176Z" fill="rgb(58, 55, 46)" fill-opacity="0.48"/><path d="M1,-8L-27,-13L21,52Z" fill="rgb(101, 87, 72)" fill-opacity="0.57"/><path d="M0,60L37,72L38,42Z" fill="rgb(139, 118, 93)" fill-opacity="0.63"/><path d="M117,270L125,235L107,228Z" fill="rgb(33, 40, 44)" fill-opacity="0.61"/><path d="M112,162L123,163L104,140Z" fill="rgb(201, 173, 142)" fill-opacity="0.40"/><path d="M130,34L152,57L127,22Z" fill="rgb(131, 108, 85)" fill-opacity="0.44"/><path d="M6,95L38,121L44,98Z" fill="rgb(139, 120, 94)" fill-opacity="0.40"/><path d="M109,77L74,33L94,81Z" fill="rgb(198, 166, 135)" fill-opacity="0.35"/><path d="M51,85L30,80L41,79Z" fill="rgb(151, 130, 103)" fill-opacity="0.80"/><path d="M66,175L51,151L12,177Z" fill="rgb(34, 40, 45)" fill-opacity="0.59"/><path d="M139,245L160,195L130,192Z" fill="rgb(80, 72, 61)" fill-opacity="0.77"/><path d="M177,180L170,174L164,183Z" fill="rgb(128, 110, 87)" fill-opacity="0.41"/><path d="M166,229L210,247L143,151Z" fill="rgb(53, 51, 43)" fill-opacity="0.32"/></svg>