<svg xmlns="http://www.w3.org/2000/svg" viewBox="0 0 177.66561514195584 256" clip-path="url(#clip)"><defs><clipPath id="clip" clipPathUnits="objectBoundingBox"><rect x="0" y="0" width="177.66561514195584" height="256"/></clipPath></defs><rect x="0" y="0" width="177.66561514195584" height="256" fill="rgb(46, 43, 36)"/><path d="M70,248L144,43L52,38Z" fill="rgb(199, 163, 149)" fill-opacity="0.66"/><path d="M110,287L80,157L49,128Z" fill="rgb(228, 249, 255)" fill-opacity="0.86"/><path d="M134,80L79,61L117,31Z" fill="rgb(255, 211, 187)" fill-opacity="0.60"/><path d="M145,89L105,-1L184,-94Z" fill="rgb(43, 42, 31)" fill-opacity="0.97"/><path d="M88,199L99,168L86,161Z" fill="rgb(10, 27, 44)" fill-opacity="0.70"/><path d="M41,161L113,26L52,39Z" fill="rgb(111, 83, 68)" fill-opacity="0.58"/><path d="M148,167L161,273L86,139Z" fill="rgb(80, 100, 141)" fill-opacity="0.66"/><path d="M97,160L65,173L98,148Z" fill="rgb(242, 250, 255)" fill-opacity="0.61"/><path d="M34,96L93,242L21,405Z" fill="rgb(53, 55, 55)" fill-opacity="0.92"/><path d="M86,160L53,130L114,137Z" fill="rgb(75, 57, 48)" fill-opacity="0.61"/><path d="M102,33L109,103L101,99Z" fill="rgb(236, 171, 137)" fill-opacity="0.69"/><path d="M73,72L76,135L109,134Z" fill="rgb(231, 146, 112)" fill-opacity="0.53"/><path d="M110,95L107,73L128,81Z" fill="rgb(78, 43, 23)" fill-opacity="0.47"/><path d="M46,116L89,181L50,135Z" fill="rgb(179, 217, 252)" fill-opacity="0.63"/><path d="M-257,43L111,-23L0,147Z" fill="rgb(44, 38, 26)" fill-opacity="0.74"/><path d="M112,29L72,56L114,77Z" fill="rgb(236, 166, 123)" fill-opacity="0.42"/><path d="M129,86L115,60L131,52Z" fill="rgb(233, 247, 255)" fill-opacity="0.71"/><path d="M95,170L92,146L98,145Z" fill="rgb(232, 246, 255)" fill-opacity="0.61"/><path d="M118,93L122,104L128,83Z" fill="rgb(208, 204, 221)" fill-opacity="0.63"/><path d="M70,147L74,160L85,156Z" fill="rgb(4, 72, 158)" fill-opacity="0.30"/><path d="M99,231L68,149L101,267Z" fill="rgb(241, 253, 255)" fill-opacity="0.67"/><path d="M73,66L102,114L100,67Z" fill="rgb(118, 29, 0)" fill-opacity="0.24"/><path d="M127,104L175,81L133,58Z" fill="rgb(44, 41, 31)" fill-opacity="0.94"/><path d="M162,84L96,145L151,169Z" fill="rgb(43, 43, 30)" fill-opacity="0.85"/><path d="M53,128L51,53L90,164Z" fill="rgb(102, 73, 55)" fill-opacity="0.64"/><path d="M68,132L109,81L71,80Z" fill="rgb(203, 130, 96)" fill-opacity="0.42"/><path d="M79,26L116,31L136,59Z" fill="rgb(72, 98, 129)" fill-opacity="0.38"/><path d="M97,152L162,280L100,253Z" fill="rgb(46, 56, 72)" fill-opacity="0.57"/><path d="M60,159L81,209L85,157Z" fill="rgb(251, 254, 255)" fill-opacity="0.66"/><path d="M121,106L86,109L114,129Z" fill="rgb(191, 135, 111)" fill-opacity="0.64"/><path d="M121,77L120,46L132,72Z" fill="rgb(251, 254, 255)" fill-opacity="0.67"/><path d="M132,160L177,221L185,267Z" fill="rgb(71, 96, 130)" fill-opacity="0.34"/><path d="M140,244L155,228L171,272Z" fill="rgb(58, 64, 79)" fill-opacity="0.89"/><path d="M121,101L110,83L107,114Z" fill="rgb(212, 107, 68)" fill-opacity="0.40"/><path d="M96,66L24,83L100,78Z" fill="rgb(96, 74, 59)" fill-opacity="0.62"/><path d="M97,147L123,158L136,236Z" fill="rgb(81, 97, 135)" fill-opacity="0.56"/><path d="M127,89L122,50L131,66Z" fill="rgb(235, 251, 255)" fill-opacity="0.52"/><path d="M85,172L125,258L87,152Z" fill="rgb(38, 46, 62)" fill-opacity="0.62"/><path d="M118,41L120,74L78,63Z" fill="rgb(234, 173, 139)" fill-opacity="0.46"/><path d="M117,53L73,43L110,39Z" fill="rgb(182, 129, 96)" fill-opacity="0.50"/><path d="M61,43L77,39L58,78Z" fill="rgb(95, 115, 133)" fill-opacity="0.40"/><path d="M187,258L149,195L152,227Z" fill="rgb(47, 53, 53)" fill-opacity="0.75"/><path d="M73,190L90,179L53,142Z" fill="rgb(252, 255, 255)" fill-opacity="0.40"/><path d="M87,158L97,154L97,168Z" fill="rgb(239, 248, 255)" fill-opacity="0.63"/><path d="M171,65L-8,-126L85,17Z" fill="rgb(44, 41, 29)" fill-opacity="0.91"/><path d="M52,128L72,88L44,69Z" fill="rgb(102, 73, 56)" fill-opacity="0.90"/><path d="M94,152L96,137L73,156Z" fill="rgb(72, 63, 59)" fill-opacity="0.37"/><path d="M89,112L80,114L116,119Z" fill="rgb(111, 65, 46)" fill-opacity="0.53"/><path d="M105,76L108,83L207,133Z" fill="rgb(45, 43, 33)" fill-opacity="0.41"/><path d="M82,132L83,123L113,131Z" fill="rgb(255, 187, 172)" fill-opacity="0.41"/><path d="M91,160L94,218L86,188Z" fill="rgb(46, 54, 61)" fill-opacity="0.64"/><path d="M86,120L97,118L121,135Z" fill="rgb(119, 67, 45)" fill-opacity="0.38"/><path d="M105,121L88,117L105,118Z" fill="rgb(253, 208, 190)" fill-opacity="0.52"/><path d="M-33,148L59,155L110,270Z" fill="rgb(82, 102, 139)" fill-opacity="0.10"/><path d="M100,108L111,112L96,114Z" fill="rgb(244, 194, 176)" fill-opacity="0.41"/><path d="M111,105L106,100L95,107Z" fill="rgb(52, 17, 1)" fill-opacity="0.45"/><path d="M85,45L78,41L62,86Z" fill="rgb(142, 103, 82)" fill-opacity="0.92"/><path d="M74,26L106,26L55,51Z" fill="rgb(61, 63, 57)" fill-opacity="0.53"/><path d="M96,88L81,92L82,104Z" fill="rgb(232, 153, 122)" fill-opacity="0.64"/><path d="M129,288L110,197L152,279Z" fill="rgb(39, 39, 30)" fill-opacity="0.57"/><path d="M145,168L154,186L94,145Z" fill="rgb(83, 98, 141)" fill-opacity="0.49"/><path d="M53,106L23,157L29,50Z" fill="rgb(55, 49, 31)" fill-opacity="0.73"/><path d="M82,173L88,160L94,164Z" fill="rgb(34, 47, 66)" fill-opacity="0.50"/><path d="M93,75L77,75L98,80Z" fill="rgb(74, 54, 44)" fill-opacity="0.62"/><path d="M94,46L105,78L123,64Z" fill="rgb(247, 190, 150)" fill-opacity="0.39"/><path d="M92,116L74,130L73,116Z" fill="rgb(198, 147, 115)" fill-opacity="0.59"/><path d="M61,62L35,89L58,0Z" fill="rgb(52, 49, 36)" fill-opacity="0.45"/><path d="M104,185L106,190L102,190Z" fill="rgb(99, 117, 154)" fill-opacity="0.62"/><path d="M105,128L94,126L103,135Z" fill="rgb(255, 226, 225)" fill-opacity="0.49"/><path d="M106,102L85,98L100,110Z" fill="rgb(66, 18, 6)" fill-opacity="0.25"/><path d="M102,113L108,119L99,116Z" fill="rgb(76, 46, 29)" fill-opacity="0.46"/><path d="M110,94L105,87L103,100Z" fill="rgb(255, 219, 213)" fill-opacity="0.46"/><path d="M75,152L67,160L46,123Z" fill="rgb(166, 212, 251)" fill-opacity="0.57"/><path d="M101,30L134,62L114,32Z" fill="rgb(125, 141, 172)" fill-opacity="0.42"/><path d="M143,185L127,186L126,172Z" fill="rgb(57, 61, 75)" fill-opacity="0.47"/><path d="M123,76L104,85L112,74Z" fill="rgb(89, 64, 44)" fill-opacity="0.52"/><path d="M-137,179L19,211L20,273Z" fill="rgb(37, 20, 16)" fill-opacity="0.40"/><path d="M122,100L125,93L116,90Z" fill="rgb(252, 231, 237)" fill-opacity="0.58"/><path d="M97,163L103,151L96,226Z" fill="rgb(46, 52, 64)" fill-opacity="0.64"/><path d="M79,135L94,139L110,134Z" fill="rgb(193, 105, 86)" fill-opacity="0.41"/><path d="M63,108L77,153L53,129Z" fill="rgb(105, 79, 66)" fill-opacity="0.89"/><path d="M55,86L44,82L55,107Z" fill="rgb(140, 106, 95)" fill-opacity="0.37"/><path d="M94,139L89,146L113,139Z" fill="rgb(39, 35, 23)" fill-opacity="0.45"/><path d="M100,268L79,192L79,228Z" fill="rgb(72, 112, 148)" fill-opacity="0.20"/><path d="M8,296L90,289L30,189Z" fill="rgb(45, 44, 38)" fill-opacity="0.71"/><path d="M98,160L97,144L92,156Z" fill="rgb(245, 253, 255)" fill-opacity="0.43"/><path d="M94,259L69,193L16,214Z" fill="rgb(52, 54, 53)" fill-opacity="0.54"/><path d="M-77,178L51,133L41,184Z" fill="rgb(51, 50, 46)" fill-opacity="0.67"/><path d="M79,102L71,71L67,127Z" fill="rgb(158, 116, 93)" fill-opacity="0.49"/><path d="M88,36L110,45L71,71Z" fill="rgb(210, 141, 104)" fill-opacity="0.23"/><path d="M107,114L104,108L101,108Z" fill="rgb(232, 196, 191)" fill-opacity="0.58"/><path d="M127,57L112,43L113,37Z" fill="rgb(197, 189, 191)" fill-opacity="0.42"/><path d="M117,44L119,63L109,61Z" fill="rgb(209, 161, 138)" fill-opacity="0.70"/><path d="M174,64L132,74L130,49Z" fill="rgb(43, 41, 32)" fill-opacity="0.76"/><path d="M90,66L81,69L103,75Z" fill="rgb(65, 54, 37)" fill-opacity="0.49"/><path d="M63,42L64,73L75,45Z" fill="rgb(192, 205, 203)" fill-opacity="0.10"/><path d="M106,100L114,121L114,111Z" fill="rgb(158, 101, 75)" fill-opacity="0.77"/><path d="M84,207L87,176L72,159Z" fill="rgb(253, 254, 253)" fill-opacity="0.69"/><path d="M53,228L52,173L34,193Z" fill="rgb(62, 65, 78)" fill-opacity="0.53"/><path d="M259,-4L122,46L122,5Z" fill="rgb(44, 45, 35)" fill-opacity="0.53"/></svg>