<svg xmlns="http://www.w3.org/2000/svg" viewBox="0 0 204.4179104477612 256" clip-path="url(#clip)"><defs><clipPath id="clip" clipPathUnits="objectBoundingBox"><rect x="0" y="0" width="204.4179104477612" height="256"/></clipPath></defs><rect x="0" y="0" width="204.4179104477612" height="256" fill="rgb(36, 44, 53)"/><path d="M98,-28L250,360L-2,205Z" fill="rgb(114, 104, 115)" fill-opacity="0.90"/><path d="M127,17L93,213L57,35Z" fill="rgb(248, 189, 167)" fill-opacity="0.55"/><path d="M-47,106L104,158L571,86Z" fill="rgb(17, 0, 0)" fill-opacity="0.29"/><path d="M116,165L129,200L129,139Z" fill="rgb(241, 232, 246)" fill-opacity="0.81"/><path d="M115,220L70,122L65,134Z" fill="rgb(252, 246, 252)" fill-opacity="0.64"/><path d="M104,172L119,321L154,230Z" fill="rgb(11, 37, 96)" fill-opacity="0.62"/><path d="M95,183L65,135L106,169Z" fill="rgb(252, 251, 255)" fill-opacity="0.80"/><path d="M130,0L40,-137L-30,75Z" fill="rgb(0, 0, 0)" fill-opacity="0.75"/><path d="M-37,-173L66,128L18,164Z" fill="rgb(0, 11, 24)" fill-opacity="0.59"/><path d="M106,82L142,34L61,36Z" fill="rgb(255, 217, 209)" fill-opacity="0.31"/><path d="M49,150L-10,172L-22,215Z" fill="rgb(113, 115, 132)" fill-opacity="0.94"/><path d="M103,180L158,77L109,70Z" fill="rgb(143, 85, 54)" fill-opacity="0.65"/><path d="M93,184L107,187L101,204Z" fill="rgb(229, 225, 247)" fill-opacity="0.66"/><path d="M13,184L19,304L-64,261Z" fill="rgb(67, 77, 90)" fill-opacity="0.93"/><path d="M215,-55L105,-6L206,127Z" fill="rgb(5, 11, 19)" fill-opacity="0.94"/><path d="M118,147L69,133L99,162Z" fill="rgb(66, 33, 4)" fill-opacity="0.49"/><path d="M53,94L94,144L111,76Z" fill="rgb(255, 177, 155)" fill-opacity="0.37"/><path d="M130,207L284,223L129,128Z" fill="rgb(65, 77, 95)" fill-opacity="0.87"/><path d="M129,110L133,84L109,81Z" fill="rgb(174, 131, 119)" fill-opacity="0.76"/><path d="M5,286L127,263L80,158Z" fill="rgb(69, 83, 106)" fill-opacity="0.71"/><path d="M139,118L115,12L148,40Z" fill="rgb(125, 87, 63)" fill-opacity="0.60"/><path d="M128,201L132,189L116,182Z" fill="rgb(190, 188, 212)" fill-opacity="0.81"/><path d="M371,22L139,102L127,176Z" fill="rgb(9, 24, 43)" fill-opacity="0.56"/><path d="M107,9L69,20L75,98Z" fill="rgb(241, 208, 208)" fill-opacity="0.27"/><path d="M138,203L132,208L147,272Z" fill="rgb(9, 12, 15)" fill-opacity="0.75"/><path d="M66,88L121,139L65,132Z" fill="rgb(176, 123, 103)" fill-opacity="0.80"/><path d="M109,69L71,78L93,83Z" fill="rgb(91, 46, 25)" fill-opacity="0.52"/><path d="M109,14L133,79L55,59Z" fill="rgb(223, 187, 184)" fill-opacity="0.32"/><path d="M60,42L54,94L72,98Z" fill="rgb(166, 125, 108)" fill-opacity="0.69"/><path d="M115,160L129,162L113,169Z" fill="rgb(234, 220, 238)" fill-opacity="0.63"/><path d="M227,207L134,191L150,264Z" fill="rgb(91, 105, 127)" fill-opacity="0.71"/><path d="M89,10L-265,-157L389,66Z" fill="rgb(3, 7, 11)" fill-opacity="0.80"/><path d="M50,201L2,203L47,254Z" fill="rgb(59, 72, 90)" fill-opacity="0.73"/><path d="M90,179L106,192L106,202Z" fill="rgb(235, 226, 242)" fill-opacity="0.74"/><path d="M-103,154L52,75L73,-4Z" fill="rgb(5, 12, 19)" fill-opacity="0.83"/><path d="M201,170L133,168L131,148Z" fill="rgb(99, 104, 122)" fill-opacity="0.57"/><path d="M97,180L71,145L107,166Z" fill="rgb(255, 253, 255)" fill-opacity="0.60"/><path d="M103,212L110,209L115,236Z" fill="rgb(0, 5, 11)" fill-opacity="0.56"/><path d="M108,82L74,93L86,100Z" fill="rgb(238, 200, 212)" fill-opacity="0.65"/><path d="M109,162L97,184L123,181Z" fill="rgb(41, 50, 80)" fill-opacity="0.86"/><path d="M156,103L144,33L248,85Z" fill="rgb(8, 15, 27)" fill-opacity="0.83"/><path d="M19,243L33,266L22,218Z" fill="rgb(4, 7, 10)" fill-opacity="0.52"/><path d="M59,72L-45,108L56,44Z" fill="rgb(11, 19, 28)" fill-opacity="0.93"/><path d="M263,241L103,307L186,232Z" fill="rgb(37, 69, 96)" fill-opacity="0.54"/><path d="M193,168L201,232L198,177Z" fill="rgb(0, 6, 13)" fill-opacity="0.55"/><path d="M106,30L130,21L124,78Z" fill="rgb(162, 134, 119)" fill-opacity="0.47"/><path d="M115,73L141,83L110,81Z" fill="rgb(20, 10, 2)" fill-opacity="0.38"/><path d="M79,117L96,120L158,118Z" fill="rgb(89, 47, 32)" fill-opacity="0.93"/><path d="M83,15L93,10L129,22Z" fill="rgb(110, 115, 119)" fill-opacity="0.67"/><path d="M85,114L120,116L90,102Z" fill="rgb(252, 197, 195)" fill-opacity="0.35"/><path d="M88,97L124,111L88,102Z" fill="rgb(122, 57, 35)" fill-opacity="0.52"/><path d="M91,69L108,75L75,81Z" fill="rgb(88, 38, 11)" fill-opacity="0.30"/><path d="M82,390L57,230L70,224Z" fill="rgb(54, 64, 80)" fill-opacity="0.76"/><path d="M128,145L156,80L240,182Z" fill="rgb(16, 30, 48)" fill-opacity="0.66"/><path d="M68,125L37,155L-169,31Z" fill="rgb(25, 43, 61)" fill-opacity="0.62"/><path d="M171,242L169,200L200,213Z" fill="rgb(160, 166, 191)" fill-opacity="0.26"/><path d="M112,17L57,56L67,28Z" fill="rgb(177, 148, 139)" fill-opacity="0.50"/><path d="M116,196L107,204L106,163Z" fill="rgb(62, 79, 142)" fill-opacity="0.68"/><path d="M93,38L115,63L71,69Z" fill="rgb(249, 211, 224)" fill-opacity="0.32"/><path d="M131,189L128,161L138,170Z" fill="rgb(7, 6, 0)" fill-opacity="0.45"/><path d="M118,170L108,167L115,189Z" fill="rgb(11, 21, 61)" fill-opacity="0.61"/><path d="M62,80L51,74L64,74Z" fill="rgb(188, 149, 139)" fill-opacity="0.73"/><path d="M191,166L137,152L195,184Z" fill="rgb(92, 100, 122)" fill-opacity="0.64"/><path d="M134,66L91,69L103,76Z" fill="rgb(186, 138, 120)" fill-opacity="0.58"/><path d="M65,125L67,136L89,172Z" fill="rgb(246, 236, 244)" fill-opacity="0.81"/><path d="M-39,102L68,119L45,75Z" fill="rgb(18, 28, 40)" fill-opacity="0.72"/><path d="M132,134L161,229L158,279Z" fill="rgb(66, 77, 94)" fill-opacity="0.54"/><path d="M21,231L-12,165L6,206Z" fill="rgb(14, 18, 20)" fill-opacity="0.69"/><path d="M9,166L57,141L-143,143Z" fill="rgb(36, 53, 71)" fill-opacity="0.71"/><path d="M53,47L96,-6L-118,8Z" fill="rgb(3, 6, 10)" fill-opacity="0.83"/><path d="M131,202L116,187L130,185Z" fill="rgb(202, 198, 220)" fill-opacity="0.55"/><path d="M113,144L77,138L106,154Z" fill="rgb(60, 35, 19)" fill-opacity="0.51"/><path d="M61,124L149,312L69,219Z" fill="rgb(90, 98, 119)" fill-opacity="0.67"/><path d="M149,98L126,50L148,54Z" fill="rgb(115, 82, 64)" fill-opacity="0.60"/><path d="M118,180L116,181L133,206Z" fill="rgb(192, 190, 214)" fill-opacity="0.83"/><path d="M89,80L71,93L114,80Z" fill="rgb(204, 169, 174)" fill-opacity="0.53"/><path d="M127,149L129,183L113,166Z" fill="rgb(238, 228, 243)" fill-opacity="0.56"/><path d="M109,81L111,95L131,63Z" fill="rgb(111, 69, 43)" fill-opacity="0.36"/><path d="M97,189L11,211L38,148Z" fill="rgb(88, 98, 124)" fill-opacity="0.54"/><path d="M200,244L171,227L194,186Z" fill="rgb(119, 130, 157)" fill-opacity="0.25"/><path d="M133,207L128,200L122,169Z" fill="rgb(204, 198, 216)" fill-opacity="0.70"/><path d="M121,157L157,73L110,146Z" fill="rgb(115, 74, 53)" fill-opacity="0.77"/><path d="M50,88L69,92L51,74Z" fill="rgb(145, 87, 58)" fill-opacity="0.54"/><path d="M124,247L153,317L106,215Z" fill="rgb(0, 6, 31)" fill-opacity="0.56"/><path d="M72,126L108,141L124,128Z" fill="rgb(217, 150, 131)" fill-opacity="0.32"/><path d="M97,160L127,147L110,168Z" fill="rgb(121, 89, 73)" fill-opacity="0.68"/><path d="M198,222L222,186L203,281Z" fill="rgb(45, 59, 77)" fill-opacity="0.86"/><path d="M87,82L79,78L90,75Z" fill="rgb(0, 8, 21)" fill-opacity="0.44"/><path d="M68,141L96,162L101,185Z" fill="rgb(255, 252, 253)" fill-opacity="0.49"/><path d="M64,113L72,139L91,158Z" fill="rgb(145, 110, 91)" fill-opacity="0.56"/><path d="M129,152L133,186L129,183Z" fill="rgb(5, 7, 1)" fill-opacity="0.61"/><path d="M139,136L136,129L117,142Z" fill="rgb(46, 40, 39)" fill-opacity="0.41"/><path d="M118,186L109,169L117,191Z" fill="rgb(29, 40, 84)" fill-opacity="1.00"/><path d="M20,195L25,156L3,196Z" fill="rgb(108, 115, 136)" fill-opacity="0.57"/><path d="M132,104L118,98L121,78Z" fill="rgb(187, 146, 134)" fill-opacity="0.53"/><path d="M103,210L127,195L139,230Z" fill="rgb(37, 57, 136)" fill-opacity="0.37"/><path d="M106,132L125,117L98,126Z" fill="rgb(146, 81, 54)" fill-opacity="0.52"/><path d="M142,230L135,252L136,200Z" fill="rgb(0, 1, 13)" fill-opacity="0.48"/><path d="M82,130L114,121L79,120Z" fill="rgb(191, 139, 124)" fill-opacity="0.62"/><path d="M111,200L125,195L134,210Z" fill="rgb(47, 62, 117)" fill-opacity="0.98"/></svg>