<svg xmlns="http://www.w3.org/2000/svg" viewBox="0 0 201.6969696969697 256" clip-path="url(#clip)"><defs><clipPath id="clip" clipPathUnits="objectBoundingBox"><rect x="0" y="0" width="201.6969696969697" height="256"/></clipPath></defs><rect x="0" y="0" width="201.6969696969697" height="256" fill="rgb(25, 47, 69)"/><path d="M43,220L127,267L167,191Z" fill="rgb(185, 172, 166)" fill-opacity="0.69"/><path d="M192,111L37,294L38,-169Z" fill="rgb(142, 115, 94)" fill-opacity="0.99"/><path d="M131,154L164,25L33,37Z" fill="rgb(254, 191, 131)" fill-opacity="0.33"/><path d="M40,-169L-18,65L107,0Z" fill="rgb(0, 26, 59)" fill-opacity="0.91"/><path d="M24,80L38,167L40,30Z" fill="rgb(125, 101, 76)" fill-opacity="0.81"/><path d="M80,226L63,248L60,206Z" fill="rgb(208, 235, 253)" fill-opacity="0.62"/><path d="M90,224L68,240L116,286Z" fill="rgb(41, 41, 54)" fill-opacity="1.00"/><path d="M32,130L76,280L-72,243Z" fill="rgb(32, 75, 105)" fill-opacity="0.78"/><path d="M236,-41L204,46L82,0Z" fill="rgb(3, 34, 63)" fill-opacity="0.90"/><path d="M143,104L119,93L114,102Z" fill="rgb(14, 11, 29)" fill-opacity="0.47"/><path d="M75,212L125,221L378,-21Z" fill="rgb(86, 75, 71)" fill-opacity="0.84"/><path d="M164,199L-76,501L160,179Z" fill="rgb(162, 169, 178)" fill-opacity="0.95"/><path d="M174,200L327,354L173,42Z" fill="rgb(35, 69, 91)" fill-opacity="0.95"/><path d="M127,218L135,317L92,230Z" fill="rgb(192, 198, 203)" fill-opacity="0.87"/><path d="M143,68L97,10L146,21Z" fill="rgb(237, 243, 181)" fill-opacity="0.28"/><path d="M125,65L30,136L87,207Z" fill="rgb(171, 127, 100)" fill-opacity="1.00"/><path d="M180,29L111,218L150,205Z" fill="rgb(89, 48, 20)" fill-opacity="0.41"/><path d="M60,237L-11,263L52,313Z" fill="rgb(23, 39, 61)" fill-opacity="0.75"/><path d="M79,2L131,8L59,16Z" fill="rgb(7, 51, 90)" fill-opacity="0.68"/><path d="M120,82L177,116L168,156Z" fill="rgb(151, 109, 78)" fill-opacity="0.76"/><path d="M94,147L93,93L114,86Z" fill="rgb(106, 73, 74)" fill-opacity="0.49"/><path d="M142,61L176,60L147,24Z" fill="rgb(178, 164, 102)" fill-opacity="0.47"/><path d="M173,64L163,143L158,41Z" fill="rgb(112, 84, 49)" fill-opacity="0.98"/><path d="M38,104L78,116L58,151Z" fill="rgb(244, 184, 131)" fill-opacity="0.34"/><path d="M245,265L166,206L117,276Z" fill="rgb(0, 17, 38)" fill-opacity="0.82"/><path d="M63,201L51,250L29,156Z" fill="rgb(47, 85, 107)" fill-opacity="0.83"/><path d="M97,220L51,197L145,201Z" fill="rgb(87, 56, 44)" fill-opacity="0.53"/><path d="M145,159L174,146L177,206Z" fill="rgb(86, 121, 140)" fill-opacity="0.35"/><path d="M63,214L72,228L58,280Z" fill="rgb(199, 205, 206)" fill-opacity="0.62"/><path d="M86,39L119,85L45,87Z" fill="rgb(217, 168, 124)" fill-opacity="0.52"/><path d="M129,182L68,224L156,77Z" fill="rgb(193, 123, 85)" fill-opacity="0.35"/><path d="M105,139L69,135L115,126Z" fill="rgb(85, 38, 59)" fill-opacity="0.39"/><path d="M-5,72L30,23L97,-5Z" fill="rgb(8, 40, 73)" fill-opacity="0.83"/><path d="M73,102L50,105L68,97Z" fill="rgb(38, 24, 38)" fill-opacity="0.53"/><path d="M161,196L169,187L150,313Z" fill="rgb(2, 17, 31)" fill-opacity="0.55"/><path d="M21,248L64,218L-47,269Z" fill="rgb(79, 95, 112)" fill-opacity="0.69"/><path d="M138,34L149,57L107,21Z" fill="rgb(211, 195, 168)" fill-opacity="0.56"/><path d="M86,11L125,20L28,78Z" fill="rgb(169, 131, 80)" fill-opacity="0.63"/><path d="M259,84L206,90L124,0Z" fill="rgb(9, 49, 77)" fill-opacity="0.80"/><path d="M89,228L74,232L111,273Z" fill="rgb(10, 16, 36)" fill-opacity="0.56"/><path d="M156,106L118,140L106,114Z" fill="rgb(198, 155, 124)" fill-opacity="0.52"/><path d="M144,239L114,223L137,209Z" fill="rgb(151, 163, 176)" fill-opacity="0.56"/><path d="M161,178L152,189L156,127Z" fill="rgb(147, 108, 83)" fill-opacity="0.58"/><path d="M48,28L75,68L81,12Z" fill="rgb(186, 168, 122)" fill-opacity="0.31"/><path d="M134,133L151,155L158,116Z" fill="rgb(68, 38, 16)" fill-opacity="0.30"/><path d="M165,41L98,9L168,55Z" fill="rgb(160, 139, 88)" fill-opacity="0.53"/><path d="M64,160L119,153L121,160Z" fill="rgb(122, 65, 53)" fill-opacity="0.52"/><path d="M96,251L68,241L66,260Z" fill="rgb(68, 51, 53)" fill-opacity="0.85"/><path d="M37,109L24,71L29,116Z" fill="rgb(40, 35, 16)" fill-opacity="0.40"/><path d="M178,123L138,79L163,46Z" fill="rgb(115, 74, 30)" fill-opacity="0.34"/><path d="M164,193L152,225L115,223Z" fill="rgb(134, 149, 162)" fill-opacity="0.47"/><path d="M71,97L60,89L48,101Z" fill="rgb(198, 156, 123)" fill-opacity="0.68"/><path d="M156,165L95,208L145,201Z" fill="rgb(64, 37, 27)" fill-opacity="0.48"/><path d="M37,158L81,203L32,121Z" fill="rgb(170, 126, 102)" fill-opacity="0.73"/><path d="M113,222L61,210L86,230Z" fill="rgb(167, 130, 109)" fill-opacity="0.69"/><path d="M106,157L47,155L126,129Z" fill="rgb(206, 151, 112)" fill-opacity="0.38"/><path d="M101,190L82,193L88,176Z" fill="rgb(213, 159, 119)" fill-opacity="0.44"/><path d="M103,13L123,10L149,28Z" fill="rgb(158, 255, 253)" fill-opacity="0.15"/><path d="M151,131L150,90L142,100Z" fill="rgb(185, 157, 122)" fill-opacity="0.60"/><path d="M5,229L33,114L-17,28Z" fill="rgb(3, 52, 92)" fill-opacity="0.51"/><path d="M133,87L138,107L120,107Z" fill="rgb(102, 72, 64)" fill-opacity="0.49"/><path d="M283,157L163,35L185,110Z" fill="rgb(20, 61, 86)" fill-opacity="0.77"/><path d="M177,125L174,104L162,118Z" fill="rgb(195, 111, 77)" fill-opacity="0.50"/><path d="M170,99L172,49L187,122Z" fill="rgb(31, 74, 98)" fill-opacity="0.61"/><path d="M29,54L60,22L43,66Z" fill="rgb(155, 145, 106)" fill-opacity="0.49"/><path d="M114,95L114,101L135,99Z" fill="rgb(2, 16, 28)" fill-opacity="0.38"/><path d="M154,201L158,176L164,191Z" fill="rgb(247, 246, 234)" fill-opacity="0.27"/><path d="M102,251L93,231L78,251Z" fill="rgb(37, 12, 22)" fill-opacity="0.39"/><path d="M108,94L122,95L120,89Z" fill="rgb(192, 156, 131)" fill-opacity="0.71"/><path d="M135,76L127,73L153,108Z" fill="rgb(216, 200, 168)" fill-opacity="0.38"/><path d="M37,27L-25,77L16,102Z" fill="rgb(5, 35, 69)" fill-opacity="0.91"/><path d="M96,111L103,91L95,94Z" fill="rgb(95, 64, 62)" fill-opacity="0.61"/><path d="M106,208L54,193L92,221Z" fill="rgb(104, 81, 70)" fill-opacity="0.73"/><path d="M126,265L159,198L101,255Z" fill="rgb(174, 183, 192)" fill-opacity="0.40"/><path d="M118,225L105,257L93,228Z" fill="rgb(246, 247, 247)" fill-opacity="0.26"/><path d="M65,36L25,76L52,107Z" fill="rgb(159, 113, 77)" fill-opacity="0.45"/><path d="M108,13L164,45L147,27Z" fill="rgb(175, 157, 112)" fill-opacity="0.82"/><path d="M160,180L190,222L183,102Z" fill="rgb(44, 78, 99)" fill-opacity="0.61"/><path d="M74,26L45,44L76,31Z" fill="rgb(200, 185, 152)" fill-opacity="0.62"/><path d="M123,81L157,48L156,33Z" fill="rgb(188, 165, 129)" fill-opacity="0.53"/><path d="M66,248L87,236L80,227Z" fill="rgb(0, 56, 91)" fill-opacity="0.53"/><path d="M104,76L89,102L69,75Z" fill="rgb(213, 186, 148)" fill-opacity="0.34"/><path d="M21,71L5,243L36,154Z" fill="rgb(21, 66, 97)" fill-opacity="0.69"/><path d="M85,36L121,18L70,19Z" fill="rgb(145, 114, 58)" fill-opacity="0.55"/><path d="M146,234L152,221L109,216Z" fill="rgb(156, 162, 170)" fill-opacity="0.31"/><path d="M167,48L170,89L173,72Z" fill="rgb(121, 125, 107)" fill-opacity="0.47"/><path d="M55,193L112,159L44,163Z" fill="rgb(191, 139, 102)" fill-opacity="0.45"/><path d="M62,202L32,174L24,244Z" fill="rgb(50, 93, 114)" fill-opacity="0.51"/><path d="M75,18L86,13L120,13Z" fill="rgb(187, 195, 149)" fill-opacity="0.43"/><path d="M162,134L168,149L174,134Z" fill="rgb(191, 137, 91)" fill-opacity="0.50"/><path d="M70,3L-11,34L-7,-78Z" fill="rgb(1, 16, 44)" fill-opacity="0.66"/><path d="M106,226L101,218L127,213Z" fill="rgb(146, 99, 78)" fill-opacity="0.53"/><path d="M91,117L52,131L100,128Z" fill="rgb(252, 180, 144)" fill-opacity="0.16"/><path d="M127,184L132,161L108,86Z" fill="rgb(193, 156, 129)" fill-opacity="0.29"/><path d="M164,35L132,10L114,8Z" fill="rgb(13, 61, 96)" fill-opacity="0.56"/><path d="M53,68L27,56L38,88Z" fill="rgb(132, 100, 63)" fill-opacity="0.47"/><path d="M123,25L156,53L99,23Z" fill="rgb(219, 204, 171)" fill-opacity="0.33"/><path d="M94,21L128,50L78,51Z" fill="rgb(188, 130, 82)" fill-opacity="0.44"/><path d="M64,106L77,98L59,99Z" fill="rgb(6, 2, 23)" fill-opacity="0.25"/><path d="M114,52L134,48L158,75Z" fill="rgb(183, 128, 88)" fill-opacity="0.39"/></svg>