<svg xmlns="http://www.w3.org/2000/svg" viewBox="0 0 207.6151202749141 256" clip-path="url(#clip)"><defs><clipPath id="clip" clipPathUnits="objectBoundingBox"><rect x="0" y="0" width="207.6151202749141" height="256"/></clipPath></defs><rect x="0" y="0" width="207.6151202749141" height="256" fill="rgb(55, 41, 41)"/><path d="M87,175L104,162L56,129Z" fill="rgb(255, 248, 230)" fill-opacity="0.73"/><path d="M276,20L63,58L183,192Z" fill="rgb(224, 197, 158)" fill-opacity="0.48"/><path d="M138,245L137,180L97,185Z" fill="rgb(240, 235, 226)" fill-opacity="0.87"/><path d="M134,239L106,180L124,179Z" fill="rgb(242, 236, 226)" fill-opacity="0.88"/><path d="M87,47L98,135L125,57Z" fill="rgb(255, 228, 187)" fill-opacity="0.50"/><path d="M141,107L146,153L117,117Z" fill="rgb(44, 22, 27)" fill-opacity="0.81"/><path d="M239,197L188,309L121,163Z" fill="rgb(2, 0, 12)" fill-opacity="0.65"/><path d="M203,80L10,112L-22,185Z" fill="rgb(171, 137, 105)" fill-opacity="0.45"/><path d="M65,124L106,-15L-57,4Z" fill="rgb(19, 6, 20)" fill-opacity="0.73"/><path d="M62,141L-100,242L192,316Z" fill="rgb(2, 0, 13)" fill-opacity="0.76"/><path d="M112,171L145,135L132,186Z" fill="rgb(33, 19, 29)" fill-opacity="0.91"/><path d="M76,117L100,160L69,140Z" fill="rgb(178, 135, 94)" fill-opacity="0.80"/><path d="M184,183L170,59L142,162Z" fill="rgb(161, 144, 116)" fill-opacity="0.79"/><path d="M238,90L219,-49L110,51Z" fill="rgb(89, 71, 63)" fill-opacity="0.62"/><path d="M301,145L152,316L135,234Z" fill="rgb(13, 8, 18)" fill-opacity="0.86"/><path d="M64,108L94,86L82,60Z" fill="rgb(70, 50, 54)" fill-opacity="0.82"/><path d="M66,134L56,192L59,132Z" fill="rgb(28, 17, 25)" fill-opacity="0.75"/><path d="M82,167L65,146L127,163Z" fill="rgb(255, 255, 254)" fill-opacity="0.26"/><path d="M95,161L95,195L115,171Z" fill="rgb(20, 11, 27)" fill-opacity="0.68"/><path d="M67,91L89,106L76,126Z" fill="rgb(178, 127, 101)" fill-opacity="0.67"/><path d="M94,161L94,183L66,136Z" fill="rgb(251, 246, 233)" fill-opacity="0.69"/><path d="M115,80L120,96L134,81Z" fill="rgb(47, 10, 8)" fill-opacity="0.54"/><path d="M202,210L232,96L170,174Z" fill="rgb(107, 78, 51)" fill-opacity="0.44"/><path d="M200,149L141,129L168,72Z" fill="rgb(161, 144, 120)" fill-opacity="0.74"/><path d="M6,133L26,154L-36,129Z" fill="rgb(197, 190, 148)" fill-opacity="0.36"/><path d="M67,129L8,59L76,115Z" fill="rgb(46, 28, 32)" fill-opacity="0.93"/><path d="M138,191L99,190L137,237Z" fill="rgb(241, 236, 227)" fill-opacity="0.73"/><path d="M116,79L101,94L120,93Z" fill="rgb(135, 103, 84)" fill-opacity="0.90"/><path d="M123,103L132,85L143,107Z" fill="rgb(248, 214, 182)" fill-opacity="0.53"/><path d="M108,46L81,60L114,87Z" fill="rgb(255, 235, 196)" fill-opacity="0.37"/><path d="M146,112L94,156L111,166Z" fill="rgb(35, 7, 15)" fill-opacity="0.43"/><path d="M143,106L144,188L124,108Z" fill="rgb(41, 19, 25)" fill-opacity="0.44"/><path d="M113,129L89,89L86,146Z" fill="rgb(102, 77, 68)" fill-opacity="0.72"/><path d="M145,33L137,95L122,36Z" fill="rgb(101, 79, 63)" fill-opacity="0.75"/><path d="M135,246L146,164L406,358Z" fill="rgb(15, 9, 20)" fill-opacity="0.75"/><path d="M66,97L74,117L90,105Z" fill="rgb(176, 131, 108)" fill-opacity="0.48"/><path d="M84,74L88,102L66,87Z" fill="rgb(36, 20, 30)" fill-opacity="0.74"/><path d="M135,69L100,56L91,98Z" fill="rgb(236, 208, 170)" fill-opacity="0.41"/><path d="M-22,104L60,-292L115,39Z" fill="rgb(25, 12, 24)" fill-opacity="0.55"/><path d="M90,93L117,93L115,124Z" fill="rgb(232, 171, 141)" fill-opacity="0.34"/><path d="M139,53L199,115L249,73Z" fill="rgb(120, 107, 95)" fill-opacity="0.69"/><path d="M21,136L-32,126L-8,71Z" fill="rgb(78, 62, 55)" fill-opacity="0.77"/><path d="M83,100L77,110L71,91Z" fill="rgb(124, 73, 58)" fill-opacity="0.67"/><path d="M77,161L109,165L66,143Z" fill="rgb(232, 226, 214)" fill-opacity="0.84"/><path d="M88,175L95,178L93,156Z" fill="rgb(253, 251, 241)" fill-opacity="0.61"/><path d="M95,215L63,188L102,176Z" fill="rgb(22, 11, 25)" fill-opacity="0.88"/><path d="M16,117L51,151L67,128Z" fill="rgb(116, 98, 77)" fill-opacity="0.71"/><path d="M84,138L110,160L95,157Z" fill="rgb(127, 87, 58)" fill-opacity="0.70"/><path d="M227,-169L116,51L62,34Z" fill="rgb(47, 26, 32)" fill-opacity="0.50"/><path d="M150,83L142,112L175,173Z" fill="rgb(171, 154, 125)" fill-opacity="0.65"/><path d="M55,117L2,112L47,86Z" fill="rgb(81, 63, 56)" fill-opacity="0.50"/><path d="M144,129L155,171L206,139Z" fill="rgb(170, 153, 116)" fill-opacity="0.41"/><path d="M101,46L78,54L125,58Z" fill="rgb(176, 140, 114)" fill-opacity="0.36"/><path d="M127,105L135,117L103,132Z" fill="rgb(110, 77, 67)" fill-opacity="0.62"/><path d="M121,55L136,79L119,79Z" fill="rgb(194, 153, 113)" fill-opacity="0.65"/><path d="M85,85L37,55L52,105Z" fill="rgb(31, 17, 26)" fill-opacity="0.95"/><path d="M110,256L41,276L-17,254Z" fill="rgb(89, 62, 54)" fill-opacity="0.56"/><path d="M167,198L110,173L140,156Z" fill="rgb(22, 10, 23)" fill-opacity="0.67"/><path d="M-43,132L15,168L-14,188Z" fill="rgb(116, 98, 69)" fill-opacity="0.80"/><path d="M128,123L112,149L131,172Z" fill="rgb(33, 16, 25)" fill-opacity="0.64"/><path d="M243,117L194,100L216,72Z" fill="rgb(76, 57, 49)" fill-opacity="0.36"/><path d="M139,212L138,194L136,226Z" fill="rgb(239, 231, 238)" fill-opacity="0.47"/><path d="M90,74L85,63L131,79Z" fill="rgb(212, 192, 162)" fill-opacity="0.52"/><path d="M124,63L241,-63L108,40Z" fill="rgb(78, 50, 37)" fill-opacity="0.33"/><path d="M139,203L123,179L136,187Z" fill="rgb(195, 177, 162)" fill-opacity="0.41"/><path d="M83,150L68,132L82,120Z" fill="rgb(185, 138, 96)" fill-opacity="0.52"/><path d="M89,176L81,166L68,206Z" fill="rgb(23, 14, 26)" fill-opacity="0.98"/><path d="M58,116L46,100L47,155Z" fill="rgb(117, 98, 80)" fill-opacity="0.45"/><path d="M125,140L132,132L134,142Z" fill="rgb(159, 135, 118)" fill-opacity="0.18"/><path d="M94,165L98,182L149,165Z" fill="rgb(23, 12, 25)" fill-opacity="0.78"/><path d="M195,125L136,107L179,75Z" fill="rgb(158, 141, 123)" fill-opacity="0.38"/><path d="M116,178L125,226L103,182Z" fill="rgb(251, 249, 238)" fill-opacity="0.43"/><path d="M163,173L200,174L196,193Z" fill="rgb(97, 69, 51)" fill-opacity="0.45"/><path d="M-23,121L19,142L21,161Z" fill="rgb(144, 128, 101)" fill-opacity="0.63"/><path d="M137,87L140,80L106,85Z" fill="rgb(46, 8, 1)" fill-opacity="0.32"/><path d="M119,42L212,23L202,56Z" fill="rgb(91, 73, 67)" fill-opacity="0.66"/><path d="M87,46L85,71L63,84Z" fill="rgb(79, 67, 76)" fill-opacity="0.36"/><path d="M115,177L108,179L98,191Z" fill="rgb(149, 140, 133)" fill-opacity="0.78"/><path d="M188,124L187,168L313,136Z" fill="rgb(119, 102, 74)" fill-opacity="0.36"/><path d="M68,126L48,96L68,87Z" fill="rgb(24, 9, 22)" fill-opacity="0.80"/><path d="M112,163L95,144L136,147Z" fill="rgb(38, 20, 28)" fill-opacity="0.80"/><path d="M124,90L130,109L135,88Z" fill="rgb(213, 183, 153)" fill-opacity="0.55"/><path d="M93,75L94,108L88,77Z" fill="rgb(121, 106, 99)" fill-opacity="0.50"/><path d="M101,143L95,120L87,124Z" fill="rgb(119, 105, 104)" fill-opacity="0.43"/><path d="M92,52L104,89L101,48Z" fill="rgb(239, 223, 187)" fill-opacity="0.26"/><path d="M79,78L28,99L-37,77Z" fill="rgb(42, 27, 33)" fill-opacity="0.59"/><path d="M138,214L123,222L135,241Z" fill="rgb(208, 198, 194)" fill-opacity="0.58"/><path d="M192,50L157,94L125,66Z" fill="rgb(126, 108, 93)" fill-opacity="0.50"/><path d="M200,177L189,206L295,224Z" fill="rgb(46, 26, 31)" fill-opacity="0.59"/><path d="M156,212L128,184L123,154Z" fill="rgb(54, 35, 44)" fill-opacity="0.27"/><path d="M125,90L127,85L111,93Z" fill="rgb(57, 28, 23)" fill-opacity="0.61"/><path d="M139,220L126,180L99,189Z" fill="rgb(249, 244, 231)" fill-opacity="0.49"/><path d="M164,174L188,128L151,168Z" fill="rgb(185, 169, 133)" fill-opacity="0.28"/><path d="M188,155L136,156L181,179Z" fill="rgb(157, 138, 100)" fill-opacity="0.31"/><path d="M48,139L59,125L31,129Z" fill="rgb(130, 113, 89)" fill-opacity="0.56"/><path d="M76,115L69,118L88,123Z" fill="rgb(108, 68, 47)" fill-opacity="0.75"/><path d="M101,48L128,77L96,82Z" fill="rgb(231, 209, 171)" fill-opacity="0.23"/><path d="M106,155L108,165L116,159Z" fill="rgb(57, 28, 27)" fill-opacity="0.61"/><path d="M71,93L68,100L75,93Z" fill="rgb(230, 199, 183)" fill-opacity="0.40"/><path d="M139,109L152,121L161,109Z" fill="rgb(175, 156, 126)" fill-opacity="0.56"/></svg>