<svg xmlns="http://www.w3.org/2000/svg" viewBox="0 0 214.189111747851 256" clip-path="url(#clip)"><defs><clipPath id="clip" clipPathUnits="objectBoundingBox"><rect x="0" y="0" width="214.189111747851" height="256"/></clipPath></defs><rect x="0" y="0" width="214.189111747851" height="256" fill="rgb(145, 152, 158)"/><path d="M170,33L136,54L49,-34Z" fill="rgb(71, 32, 3)" fill-opacity="0.64"/><path d="M-91,267L95,125L143,292Z" fill="rgb(31, 32, 38)" fill-opacity="0.83"/><path d="M594,673L174,169L127,208Z" fill="rgb(5, 10, 22)" fill-opacity="0.72"/><path d="M58,116L49,42L126,-19Z" fill="rgb(80, 56, 40)" fill-opacity="1.00"/><path d="M172,85L165,34L179,66Z" fill="rgb(57, 39, 27)" fill-opacity="0.93"/><path d="M32,-59L-153,257L64,157Z" fill="rgb(208, 213, 213)" fill-opacity="0.77"/><path d="M179,330L147,216L120,220Z" fill="rgb(243, 244, 244)" fill-opacity="0.99"/><path d="M128,199L112,209L93,179Z" fill="rgb(253, 251, 247)" fill-opacity="0.83"/><path d="M39,79L113,193L174,184Z" fill="rgb(113, 50, 4)" fill-opacity="0.58"/><path d="M145,172L157,253L182,278Z" fill="rgb(21, 24, 34)" fill-opacity="0.93"/><path d="M80,48L76,91L415,46Z" fill="rgb(255, 251, 217)" fill-opacity="0.55"/><path d="M12,192L-11,230L37,220Z" fill="rgb(178, 168, 128)" fill-opacity="0.70"/><path d="M-33,-192L185,60L399,142Z" fill="rgb(197, 204, 207)" fill-opacity="0.94"/><path d="M406,285L84,133L149,48Z" fill="rgb(255, 216, 179)" fill-opacity="0.43"/><path d="M112,8L128,33L49,65Z" fill="rgb(56, 29, 13)" fill-opacity="0.73"/><path d="M164,104L34,87L166,89Z" fill="rgb(144, 87, 56)" fill-opacity="0.76"/><path d="M40,25L43,-61L125,0Z" fill="rgb(195, 202, 203)" fill-opacity="0.96"/><path d="M152,189L167,139L117,121Z" fill="rgb(114, 74, 42)" fill-opacity="0.69"/><path d="M179,68L170,43L169,92Z" fill="rgb(22, 4, 0)" fill-opacity="0.72"/><path d="M19,227L33,210L6,228Z" fill="rgb(255, 237, 166)" fill-opacity="0.55"/><path d="M40,121L80,69L158,93Z" fill="rgb(210, 99, 29)" fill-opacity="0.30"/><path d="M67,178L133,188L63,122Z" fill="rgb(23, 3, 0)" fill-opacity="0.60"/><path d="M175,50L93,35L140,12Z" fill="rgb(71, 36, 12)" fill-opacity="0.49"/><path d="M58,31L85,47L49,98Z" fill="rgb(1, 0, 0)" fill-opacity="0.57"/><path d="M161,163L169,114L153,170Z" fill="rgb(44, 21, 0)" fill-opacity="0.48"/><path d="M91,156L137,124L145,142Z" fill="rgb(120, 78, 47)" fill-opacity="0.72"/><path d="M101,84L170,70L110,37Z" fill="rgb(255, 240, 222)" fill-opacity="0.76"/><path d="M48,111L46,78L67,92Z" fill="rgb(212, 130, 94)" fill-opacity="0.52"/><path d="M158,172L268,198L193,27Z" fill="rgb(200, 207, 210)" fill-opacity="0.92"/><path d="M206,215L309,291L210,193Z" fill="rgb(17, 14, 8)" fill-opacity="0.76"/><path d="M128,97L170,104L154,148Z" fill="rgb(254, 213, 176)" fill-opacity="0.55"/><path d="M125,84L133,97L105,88Z" fill="rgb(77, 27, 6)" fill-opacity="0.60"/><path d="M60,71L70,36L77,146Z" fill="rgb(17, 0, 0)" fill-opacity="0.66"/><path d="M22,239L-31,216L-6,211Z" fill="rgb(20, 18, 19)" fill-opacity="0.81"/><path d="M9,217L3,211L17,204Z" fill="rgb(4, 4, 7)" fill-opacity="0.66"/><path d="M2,191L89,200L71,151Z" fill="rgb(6, 11, 21)" fill-opacity="0.74"/><path d="M135,97L106,40L172,76Z" fill="rgb(255, 246, 227)" fill-opacity="0.42"/><path d="M116,205L168,195L114,221Z" fill="rgb(57, 53, 48)" fill-opacity="0.81"/><path d="M30,30L48,45L84,3Z" fill="rgb(198, 204, 205)" fill-opacity="0.97"/><path d="M41,79L60,130L73,129Z" fill="rgb(198, 138, 108)" fill-opacity="0.88"/><path d="M145,193L151,169L243,228Z" fill="rgb(23, 27, 35)" fill-opacity="0.82"/><path d="M128,134L105,140L73,79Z" fill="rgb(254, 214, 179)" fill-opacity="0.63"/><path d="M87,131L81,176L68,105Z" fill="rgb(43, 19, 5)" fill-opacity="0.66"/><path d="M41,24L27,128L52,82Z" fill="rgb(200, 206, 209)" fill-opacity="0.86"/><path d="M81,67L83,49L169,53Z" fill="rgb(255, 241, 223)" fill-opacity="0.62"/><path d="M142,114L69,94L85,121Z" fill="rgb(255, 214, 167)" fill-opacity="0.42"/><path d="M130,203L140,191L137,188Z" fill="rgb(57, 32, 18)" fill-opacity="0.80"/><path d="M114,212L114,190L88,176Z" fill="rgb(219, 222, 220)" fill-opacity="0.53"/><path d="M4,188L168,323L129,236Z" fill="rgb(40, 50, 69)" fill-opacity="0.94"/><path d="M193,199L188,169L215,206Z" fill="rgb(246, 223, 140)" fill-opacity="0.44"/><path d="M23,204L34,219L-10,180Z" fill="rgb(244, 233, 181)" fill-opacity="0.69"/><path d="M135,200L145,201L146,181Z" fill="rgb(254, 253, 245)" fill-opacity="0.50"/><path d="M21,223L36,244L27,299Z" fill="rgb(1, 5, 14)" fill-opacity="0.74"/><path d="M178,60L174,85L164,42Z" fill="rgb(33, 12, 2)" fill-opacity="0.56"/><path d="M146,178L107,151L148,145Z" fill="rgb(194, 158, 115)" fill-opacity="0.53"/><path d="M154,90L152,104L138,96Z" fill="rgb(18, 1, 10)" fill-opacity="0.51"/><path d="M139,51L132,110L165,44Z" fill="rgb(252, 235, 217)" fill-opacity="0.50"/><path d="M122,128L131,124L142,139Z" fill="rgb(57, 11, 0)" fill-opacity="0.65"/><path d="M153,22L129,-5L92,-13Z" fill="rgb(232, 233, 231)" fill-opacity="0.58"/><path d="M70,152L75,135L70,127Z" fill="rgb(210, 111, 61)" fill-opacity="0.51"/><path d="M113,20L117,34L104,28Z" fill="rgb(173, 131, 94)" fill-opacity="0.58"/><path d="M94,52L70,36L103,37Z" fill="rgb(124, 80, 51)" fill-opacity="0.60"/><path d="M111,87L174,94L172,99Z" fill="rgb(101, 44, 6)" fill-opacity="0.37"/><path d="M105,4L76,17L55,35Z" fill="rgb(114, 88, 63)" fill-opacity="0.74"/><path d="M14,229L17,225L-11,199Z" fill="rgb(243, 231, 180)" fill-opacity="0.69"/><path d="M113,98L95,100L96,90Z" fill="rgb(110, 67, 48)" fill-opacity="1.00"/><path d="M46,246L76,228L85,285Z" fill="rgb(11, 16, 28)" fill-opacity="0.81"/><path d="M121,215L148,216L141,196Z" fill="rgb(74, 69, 60)" fill-opacity="1.00"/><path d="M113,132L125,104L93,106Z" fill="rgb(248, 225, 203)" fill-opacity="0.70"/><path d="M31,173L-51,149L-2,193Z" fill="rgb(201, 206, 209)" fill-opacity="1.00"/><path d="M116,81L135,103L134,132Z" fill="rgb(161, 45, 0)" fill-opacity="0.24"/><path d="M120,194L61,157L143,180Z" fill="rgb(21, 2, 0)" fill-opacity="0.41"/><path d="M150,184L139,214L159,211Z" fill="rgb(15, 16, 21)" fill-opacity="0.87"/><path d="M53,87L46,92L64,98Z" fill="rgb(105, 27, 2)" fill-opacity="0.67"/><path d="M14,177L63,157L62,124Z" fill="rgb(208, 212, 215)" fill-opacity="0.85"/><path d="M128,215L114,221L133,219Z" fill="rgb(255, 255, 249)" fill-opacity="0.45"/><path d="M77,89L62,29L48,52Z" fill="rgb(16, 8, 2)" fill-opacity="0.49"/><path d="M167,91L149,92L172,67Z" fill="rgb(237, 202, 160)" fill-opacity="0.55"/><path d="M92,207L84,197L84,209Z" fill="rgb(255, 211, 85)" fill-opacity="0.53"/><path d="M137,187L120,184L128,209Z" fill="rgb(243, 137, 71)" fill-opacity="0.40"/><path d="M162,166L241,208L167,137Z" fill="rgb(208, 212, 213)" fill-opacity="0.97"/><path d="M163,236L181,287L268,207Z" fill="rgb(47, 63, 95)" fill-opacity="0.45"/><path d="M141,15L158,44L161,30Z" fill="rgb(7, 0, 0)" fill-opacity="0.49"/><path d="M187,181L154,173L189,219Z" fill="rgb(6, 8, 14)" fill-opacity="0.59"/><path d="M98,118L114,176L68,96Z" fill="rgb(181, 119, 72)" fill-opacity="0.48"/><path d="M9,232L41,213L19,247Z" fill="rgb(24, 27, 33)" fill-opacity="0.80"/><path d="M127,103L131,87L112,85Z" fill="rgb(99, 46, 25)" fill-opacity="0.52"/><path d="M152,236L145,187L168,271Z" fill="rgb(3, 1, 1)" fill-opacity="0.52"/><path d="M-13,179L25,215L22,217Z" fill="rgb(62, 54, 37)" fill-opacity="0.69"/><path d="M146,212L165,276L127,231Z" fill="rgb(251, 250, 250)" fill-opacity="0.58"/><path d="M119,134L164,143L103,144Z" fill="rgb(155, 123, 85)" fill-opacity="0.68"/><path d="M117,81L74,103L77,54Z" fill="rgb(225, 176, 124)" fill-opacity="0.40"/><path d="M119,38L115,20L142,47Z" fill="rgb(16, 3, 0)" fill-opacity="0.57"/><path d="M25,214L9,218L15,221Z" fill="rgb(18, 17, 20)" fill-opacity="0.69"/><path d="M187,172L166,164L146,174Z" fill="rgb(228, 232, 225)" fill-opacity="0.37"/><path d="M122,39L113,35L88,50Z" fill="rgb(163, 106, 59)" fill-opacity="0.47"/><path d="M-11,156L-23,168L5,206Z" fill="rgb(132, 128, 116)" fill-opacity="1.00"/><path d="M127,144L108,147L166,146Z" fill="rgb(76, 17, 4)" fill-opacity="0.50"/><path d="M149,20L110,17L123,7Z" fill="rgb(35, 17, 8)" fill-opacity="0.56"/><path d="M17,217L21,210L9,213Z" fill="rgb(247, 253, 255)" fill-opacity="0.50"/></svg>