<svg xmlns="http://www.w3.org/2000/svg" viewBox="0 0 223.7381342062193 256" clip-path="url(#clip)"><defs><clipPath id="clip" clipPathUnits="objectBoundingBox"><rect x="0" y="0" width="223.7381342062193" height="256"/></clipPath></defs><rect x="0" y="0" width="223.7381342062193" height="256" fill="rgb(150, 148, 155)"/><path d="M84,159L-64,242L109,294Z" fill="rgb(0, 7, 36)" fill-opacity="0.84"/><path d="M246,145L158,139L208,354Z" fill="rgb(33, 43, 74)" fill-opacity="0.98"/><path d="M225,-89L-29,11L248,165Z" fill="rgb(255, 236, 216)" fill-opacity="0.54"/><path d="M-16,-74L79,161L-5,208Z" fill="rgb(222, 219, 211)" fill-opacity="0.96"/><path d="M123,153L172,254L122,274Z" fill="rgb(102, 11, 22)" fill-opacity="0.77"/><path d="M56,22L51,124L146,79Z" fill="rgb(107, 29, 0)" fill-opacity="0.35"/><path d="M190,296L138,167L157,137Z" fill="rgb(197, 221, 252)" fill-opacity="0.84"/><path d="M84,167L130,375L118,174Z" fill="rgb(164, 195, 240)" fill-opacity="0.78"/><path d="M156,190L129,172L112,197Z" fill="rgb(55, 25, 51)" fill-opacity="0.63"/><path d="M103,64L140,185L80,150Z" fill="rgb(141, 93, 79)" fill-opacity="0.77"/><path d="M-54,-58L76,3L29,85Z" fill="rgb(220, 218, 211)" fill-opacity="0.95"/><path d="M70,73L109,171L49,97Z" fill="rgb(126, 84, 66)" fill-opacity="0.70"/><path d="M147,159L64,14L170,77Z" fill="rgb(200, 154, 139)" fill-opacity="0.67"/><path d="M78,161L-14,35L85,145Z" fill="rgb(219, 216, 209)" fill-opacity="0.98"/><path d="M197,-61L287,150L154,136Z" fill="rgb(224, 223, 217)" fill-opacity="0.83"/><path d="M137,128L97,134L128,124Z" fill="rgb(67, 27, 21)" fill-opacity="0.73"/><path d="M138,193L176,199L179,249Z" fill="rgb(194, 215, 250)" fill-opacity="0.61"/><path d="M117,215L127,202L124,191Z" fill="rgb(103, 141, 197)" fill-opacity="0.77"/><path d="M166,111L157,40L126,18Z" fill="rgb(134, 113, 104)" fill-opacity="0.43"/><path d="M204,180L162,150L153,128Z" fill="rgb(50, 58, 87)" fill-opacity="1.00"/><path d="M153,43L124,17L85,12Z" fill="rgb(83, 71, 67)" fill-opacity="0.27"/><path d="M67,129L43,57L75,15Z" fill="rgb(83, 87, 83)" fill-opacity="0.39"/><path d="M141,82L129,69L77,93Z" fill="rgb(38, 16, 0)" fill-opacity="0.24"/><path d="M132,173L120,172L148,153Z" fill="rgb(46, 14, 15)" fill-opacity="0.51"/><path d="M117,84L72,98L101,144Z" fill="rgb(172, 123, 112)" fill-opacity="0.75"/><path d="M327,185L188,293L179,231Z" fill="rgb(26, 36, 65)" fill-opacity="1.00"/><path d="M94,9L119,41L56,30Z" fill="rgb(151, 154, 154)" fill-opacity="0.41"/><path d="M146,208L145,231L120,182Z" fill="rgb(59, 1, 3)" fill-opacity="0.55"/><path d="M152,211L164,232L200,388Z" fill="rgb(133, 43, 57)" fill-opacity="0.91"/><path d="M110,169L134,173L78,140Z" fill="rgb(81, 50, 44)" fill-opacity="0.53"/><path d="M136,164L169,98L109,150Z" fill="rgb(218, 161, 139)" fill-opacity="0.40"/><path d="M156,140L133,175L165,194Z" fill="rgb(214, 232, 251)" fill-opacity="0.72"/><path d="M165,170L167,199L175,200Z" fill="rgb(132, 168, 226)" fill-opacity="0.63"/><path d="M137,126L95,18L115,101Z" fill="rgb(211, 169, 161)" fill-opacity="0.64"/><path d="M159,160L163,143L165,174Z" fill="rgb(0, 23, 82)" fill-opacity="0.39"/><path d="M96,220L116,198L113,290Z" fill="rgb(203, 224, 252)" fill-opacity="0.48"/><path d="M226,74L310,-21L74,-12Z" fill="rgb(221, 220, 215)" fill-opacity="0.92"/><path d="M114,193L83,160L128,174Z" fill="rgb(141, 164, 201)" fill-opacity="0.90"/><path d="M193,159L191,300L255,124Z" fill="rgb(32, 41, 71)" fill-opacity="0.75"/><path d="M-110,-427L65,12L190,11Z" fill="rgb(220, 219, 214)" fill-opacity="1.00"/><path d="M134,127L106,133L116,126Z" fill="rgb(33, 4, 1)" fill-opacity="0.56"/><path d="M86,147L77,163L56,328Z" fill="rgb(19, 24, 47)" fill-opacity="1.00"/><path d="M170,199L91,156L144,182Z" fill="rgb(44, 30, 59)" fill-opacity="0.48"/><path d="M154,134L197,169L184,143Z" fill="rgb(63, 71, 100)" fill-opacity="0.59"/><path d="M79,132L72,168L16,106Z" fill="rgb(222, 219, 214)" fill-opacity="0.75"/><path d="M126,193L97,214L120,188Z" fill="rgb(29, 93, 176)" fill-opacity="0.30"/><path d="M74,73L69,106L104,74Z" fill="rgb(153, 111, 94)" fill-opacity="0.98"/><path d="M137,36L88,51L150,78Z" fill="rgb(228, 187, 173)" fill-opacity="0.57"/><path d="M124,77L139,79L129,84Z" fill="rgb(61, 46, 37)" fill-opacity="0.57"/><path d="M128,172L149,186L127,216Z" fill="rgb(90, 25, 36)" fill-opacity="0.59"/><path d="M158,101L168,91L158,85Z" fill="rgb(164, 28, 3)" fill-opacity="0.27"/><path d="M114,289L-20,278L81,181Z" fill="rgb(16, 23, 48)" fill-opacity="0.98"/><path d="M106,178L87,183L85,149Z" fill="rgb(137, 160, 197)" fill-opacity="0.95"/><path d="M360,19L151,14L173,101Z" fill="rgb(222, 220, 214)" fill-opacity="0.90"/><path d="M39,70L81,163L-188,377Z" fill="rgb(230, 234, 222)" fill-opacity="0.10"/><path d="M130,84L161,102L152,148Z" fill="rgb(208, 169, 155)" fill-opacity="0.78"/><path d="M127,22L139,17L158,40Z" fill="rgb(180, 179, 172)" fill-opacity="0.56"/><path d="M172,260L167,240L222,298Z" fill="rgb(172, 189, 223)" fill-opacity="1.00"/><path d="M47,43L98,-6L16,-5Z" fill="rgb(220, 218, 212)" fill-opacity="0.76"/><path d="M114,80L87,87L96,91Z" fill="rgb(35, 18, 0)" fill-opacity="0.30"/><path d="M116,150L105,169L143,163Z" fill="rgb(78, 45, 34)" fill-opacity="0.18"/><path d="M71,100L70,85L58,96Z" fill="rgb(53, 41, 32)" fill-opacity="0.52"/><path d="M91,40L76,14L69,53Z" fill="rgb(158, 156, 154)" fill-opacity="0.46"/><path d="M50,79L62,123L81,134Z" fill="rgb(147, 83, 65)" fill-opacity="0.44"/><path d="M107,93L74,94L99,116Z" fill="rgb(213, 169, 162)" fill-opacity="0.26"/><path d="M121,124L132,101L104,123Z" fill="rgb(169, 127, 116)" fill-opacity="0.78"/><path d="M63,102L61,113L67,107Z" fill="rgb(71, 7, 0)" fill-opacity="0.44"/><path d="M219,144L275,174L183,140Z" fill="rgb(61, 66, 93)" fill-opacity="0.83"/><path d="M95,160L119,171L81,141Z" fill="rgb(91, 49, 39)" fill-opacity="0.49"/><path d="M142,200L150,188L174,239Z" fill="rgb(179, 195, 233)" fill-opacity="0.61"/><path d="M142,184L129,227L136,178Z" fill="rgb(152, 48, 53)" fill-opacity="0.48"/><path d="M43,100L-231,37L45,53Z" fill="rgb(221, 218, 211)" fill-opacity="0.82"/><path d="M174,200L145,193L180,244Z" fill="rgb(203, 225, 251)" fill-opacity="0.53"/><path d="M155,75L165,63L142,53Z" fill="rgb(183, 181, 176)" fill-opacity="0.64"/><path d="M76,92L69,43L92,67Z" fill="rgb(174, 128, 111)" fill-opacity="0.72"/><path d="M107,71L144,75L136,67Z" fill="rgb(134, 107, 82)" fill-opacity="0.34"/><path d="M136,194L136,208L146,218Z" fill="rgb(35, 1, 0)" fill-opacity="0.61"/><path d="M142,181L152,187L143,195Z" fill="rgb(0, 54, 130)" fill-opacity="0.39"/><path d="M83,152L80,136L42,108Z" fill="rgb(220, 217, 211)" fill-opacity="0.87"/><path d="M211,144L235,100L191,139Z" fill="rgb(219, 217, 210)" fill-opacity="0.58"/><path d="M63,84L60,65L67,58Z" fill="rgb(142, 136, 132)" fill-opacity="0.73"/><path d="M171,183L190,281L183,215Z" fill="rgb(15, 26, 57)" fill-opacity="0.87"/><path d="M167,77L158,76L165,102Z" fill="rgb(202, 153, 137)" fill-opacity="0.99"/><path d="M156,134L142,178L158,191Z" fill="rgb(217, 233, 248)" fill-opacity="0.65"/><path d="M-34,103L47,90L62,121Z" fill="rgb(219, 216, 208)" fill-opacity="0.99"/><path d="M67,98L85,150L97,115Z" fill="rgb(143, 101, 83)" fill-opacity="0.82"/><path d="M141,135L131,125L143,129Z" fill="rgb(136, 92, 76)" fill-opacity="0.51"/><path d="M155,97L152,76L114,101Z" fill="rgb(222, 178, 167)" fill-opacity="0.55"/><path d="M157,117L232,141L169,139Z" fill="rgb(221, 218, 212)" fill-opacity="0.86"/><path d="M184,290L155,214L101,284Z" fill="rgb(127, 31, 41)" fill-opacity="0.52"/><path d="M46,83L67,22L78,34Z" fill="rgb(110, 109, 109)" fill-opacity="0.46"/><path d="M139,189L171,198L151,187Z" fill="rgb(84, 120, 193)" fill-opacity="0.37"/><path d="M121,148L97,128L131,138Z" fill="rgb(145, 100, 85)" fill-opacity="0.64"/><path d="M89,76L75,90L103,76Z" fill="rgb(110, 78, 59)" fill-opacity="0.42"/><path d="M122,80L108,29L85,62Z" fill="rgb(202, 164, 154)" fill-opacity="0.52"/><path d="M122,238L177,262L122,209Z" fill="rgb(121, 37, 47)" fill-opacity="0.97"/><path d="M128,174L95,216L89,190Z" fill="rgb(191, 217, 254)" fill-opacity="0.31"/><path d="M34,288L29,261L-10,209Z" fill="rgb(1, 6, 23)" fill-opacity="0.48"/><path d="M102,46L149,74L131,28Z" fill="rgb(229, 192, 179)" fill-opacity="0.55"/><path d="M88,183L82,153L67,191Z" fill="rgb(12, 18, 35)" fill-opacity="0.47"/></svg>