<svg xmlns="http://www.w3.org/2000/svg" viewBox="0 0 256 244.27480916030535" clip-path="url(#clip)"><defs><clipPath id="clip" clipPathUnits="objectBoundingBox"><rect x="0" y="0" width="256" height="244.27480916030535"/></clipPath></defs><rect x="0" y="0" width="256" height="244.27480916030535" fill="rgb(48, 34, 19)"/><path d="M202,68L103,367L76,-68Z" fill="rgb(215, 168, 96)" fill-opacity="0.98"/><path d="M168,185L97,264L355,219Z" fill="rgb(37, 25, 23)" fill-opacity="0.96"/><path d="M112,246L116,190L196,146Z" fill="rgb(252, 255, 198)" fill-opacity="0.78"/><path d="M36,31L-63,-119L152,0Z" fill="rgb(40, 19, 4)" fill-opacity="0.80"/><path d="M58,77L197,69L80,17Z" fill="rgb(255, 209, 105)" fill-opacity="0.48"/><path d="M177,-2L411,8L193,102Z" fill="rgb(40, 23, 12)" fill-opacity="0.79"/><path d="M59,130L79,14L112,235Z" fill="rgb(155, 85, 16)" fill-opacity="0.77"/><path d="M63,45L148,4L101,5Z" fill="rgb(171, 123, 33)" fill-opacity="0.64"/><path d="M104,77L133,88L135,67Z" fill="rgb(146, 81, 3)" fill-opacity="0.66"/><path d="M101,239L177,175L181,138Z" fill="rgb(255, 254, 192)" fill-opacity="0.67"/><path d="M204,109L469,177L169,186Z" fill="rgb(58, 49, 26)" fill-opacity="0.91"/><path d="M97,183L71,246L119,227Z" fill="rgb(114, 109, 73)" fill-opacity="0.83"/><path d="M76,134L89,77L97,85Z" fill="rgb(124, 41, 0)" fill-opacity="0.75"/><path d="M111,249L127,188L91,230Z" fill="rgb(239, 255, 255)" fill-opacity="0.23"/><path d="M89,172L174,27L181,163Z" fill="rgb(255, 197, 114)" fill-opacity="0.65"/><path d="M91,173L90,205L140,179Z" fill="rgb(149, 107, 5)" fill-opacity="0.52"/><path d="M103,214L106,190L74,254Z" fill="rgb(47, 38, 29)" fill-opacity="0.74"/><path d="M72,78L100,15L187,40Z" fill="rgb(255, 207, 119)" fill-opacity="0.54"/><path d="M108,4L155,10L189,50Z" fill="rgb(181, 145, 54)" fill-opacity="0.66"/><path d="M115,-3L-100,-8L22,84Z" fill="rgb(44, 17, 0)" fill-opacity="0.44"/><path d="M79,90L51,73L70,33Z" fill="rgb(112, 66, 8)" fill-opacity="0.76"/><path d="M187,86L193,66L74,47Z" fill="rgb(249, 211, 130)" fill-opacity="0.70"/><path d="M91,182L-17,260L45,318Z" fill="rgb(15, 2, 5)" fill-opacity="0.91"/><path d="M104,250L102,211L82,287Z" fill="rgb(87, 106, 104)" fill-opacity="0.61"/><path d="M97,69L91,121L132,116Z" fill="rgb(255, 196, 118)" fill-opacity="0.76"/><path d="M70,129L71,177L128,142Z" fill="rgb(211, 84, 4)" fill-opacity="0.31"/><path d="M151,115L189,76L192,120Z" fill="rgb(255, 152, 60)" fill-opacity="0.38"/><path d="M199,112L203,180L170,130Z" fill="rgb(77, 58, 6)" fill-opacity="0.34"/><path d="M120,226L107,200L182,149Z" fill="rgb(255, 255, 198)" fill-opacity="0.72"/><path d="M108,73L142,71L117,101Z" fill="rgb(181, 90, 0)" fill-opacity="0.36"/><path d="M71,30L121,2L73,77Z" fill="rgb(219, 141, 38)" fill-opacity="0.38"/><path d="M116,-1L192,26L150,-54Z" fill="rgb(35, 14, 0)" fill-opacity="0.71"/><path d="M100,144L83,95L82,148Z" fill="rgb(120, 37, 0)" fill-opacity="0.54"/><path d="M140,12L103,12L122,3Z" fill="rgb(238, 243, 187)" fill-opacity="0.22"/><path d="M151,65L193,102L169,151Z" fill="rgb(250, 176, 82)" fill-opacity="0.47"/><path d="M210,87L175,52L209,-26Z" fill="rgb(37, 20, 0)" fill-opacity="0.30"/><path d="M86,92L74,87L73,120Z" fill="rgb(209, 116, 18)" fill-opacity="0.50"/><path d="M119,67L114,79L139,75Z" fill="rgb(61, 51, 3)" fill-opacity="0.25"/><path d="M91,178L80,167L86,217Z" fill="rgb(32, 14, 1)" fill-opacity="0.55"/><path d="M83,163L117,186L101,189Z" fill="rgb(144, 78, 4)" fill-opacity="0.73"/><path d="M117,102L150,89L139,70Z" fill="rgb(238, 155, 65)" fill-opacity="0.50"/><path d="M110,14L150,90L195,71Z" fill="rgb(255, 224, 139)" fill-opacity="0.38"/><path d="M94,178L-50,21L13,234Z" fill="rgb(79, 56, 0)" fill-opacity="0.39"/><path d="M109,249L104,230L137,216Z" fill="rgb(227, 205, 140)" fill-opacity="0.83"/><path d="M16,90L70,187L64,79Z" fill="rgb(63, 41, 6)" fill-opacity="0.72"/><path d="M78,41L81,78L128,67Z" fill="rgb(244, 173, 96)" fill-opacity="0.49"/><path d="M178,171L89,271L152,206Z" fill="rgb(123, 112, 71)" fill-opacity="0.60"/><path d="M178,136L123,82L139,161Z" fill="rgb(255, 204, 136)" fill-opacity="0.36"/><path d="M187,162L242,205L168,181Z" fill="rgb(23, 8, 19)" fill-opacity="0.44"/><path d="M184,47L174,34L107,16Z" fill="rgb(234, 186, 89)" fill-opacity="0.55"/><path d="M79,82L81,103L87,81Z" fill="rgb(205, 130, 48)" fill-opacity="0.37"/><path d="M189,122L183,168L177,127Z" fill="rgb(86, 63, 15)" fill-opacity="0.64"/><path d="M93,218L83,233L89,267Z" fill="rgb(58, 50, 35)" fill-opacity="1.00"/><path d="M161,163L132,185L92,172Z" fill="rgb(255, 171, 65)" fill-opacity="0.48"/><path d="M129,140L113,112L94,138Z" fill="rgb(255, 184, 114)" fill-opacity="0.62"/><path d="M122,177L117,186L87,170Z" fill="rgb(195, 104, 10)" fill-opacity="0.46"/><path d="M77,163L105,167L123,148Z" fill="rgb(238, 154, 67)" fill-opacity="0.46"/><path d="M96,210L109,208L101,186Z" fill="rgb(61, 53, 32)" fill-opacity="0.60"/><path d="M207,50L202,108L188,81Z" fill="rgb(51, 25, 9)" fill-opacity="0.72"/><path d="M58,290L87,224L78,231Z" fill="rgb(220, 194, 123)" fill-opacity="0.53"/><path d="M161,157L168,182L182,150Z" fill="rgb(255, 255, 181)" fill-opacity="0.54"/><path d="M184,47L168,39L194,78Z" fill="rgb(175, 140, 36)" fill-opacity="0.40"/><path d="M64,123L76,77L63,73Z" fill="rgb(97, 48, 8)" fill-opacity="0.79"/><path d="M169,128L181,119L177,143Z" fill="rgb(243, 155, 56)" fill-opacity="0.59"/><path d="M75,116L73,166L85,161Z" fill="rgb(190, 121, 24)" fill-opacity="0.36"/><path d="M204,60L173,32L133,-81Z" fill="rgb(37, 18, 3)" fill-opacity="0.71"/><path d="M56,-62L14,82L53,86Z" fill="rgb(41, 22, 8)" fill-opacity="0.87"/><path d="M129,19L174,57L110,69Z" fill="rgb(252, 215, 130)" fill-opacity="0.53"/><path d="M90,183L101,187L91,228Z" fill="rgb(167, 175, 102)" fill-opacity="0.33"/><path d="M233,127L298,105L250,167Z" fill="rgb(84, 72, 36)" fill-opacity="0.48"/><path d="M171,63L186,71L175,79Z" fill="rgb(253, 253, 194)" fill-opacity="0.46"/><path d="M132,136L117,121L118,113Z" fill="rgb(225, 115, 52)" fill-opacity="0.51"/><path d="M123,144L134,153L94,147Z" fill="rgb(255, 186, 117)" fill-opacity="0.56"/><path d="M98,225L94,234L91,228Z" fill="rgb(255, 231, 164)" fill-opacity="0.47"/><path d="M112,85L147,86L106,73Z" fill="rgb(176, 103, 18)" fill-opacity="0.50"/><path d="M118,16L88,32L145,23Z" fill="rgb(244, 177, 69)" fill-opacity="0.51"/><path d="M182,77L157,82L181,100Z" fill="rgb(242, 186, 108)" fill-opacity="0.75"/><path d="M80,14L140,-4L-8,-51Z" fill="rgb(28, 12, 3)" fill-opacity="0.58"/><path d="M72,69L78,15L57,82Z" fill="rgb(131, 73, 2)" fill-opacity="0.50"/><path d="M98,195L97,228L106,202Z" fill="rgb(40, 32, 32)" fill-opacity="0.44"/><path d="M183,107L171,99L184,97Z" fill="rgb(224, 83, 7)" fill-opacity="0.38"/><path d="M119,124L133,142L98,127Z" fill="rgb(247, 193, 122)" fill-opacity="0.84"/><path d="M79,20L100,9L83,41Z" fill="rgb(152, 107, 11)" fill-opacity="0.37"/><path d="M168,185L122,224L111,196Z" fill="rgb(255, 255, 243)" fill-opacity="0.24"/><path d="M73,24L60,50L97,9Z" fill="rgb(94, 68, 15)" fill-opacity="0.38"/><path d="M143,24L121,2L154,9Z" fill="rgb(156, 120, 35)" fill-opacity="0.38"/><path d="M100,193L139,180L106,201Z" fill="rgb(205, 200, 83)" fill-opacity="0.33"/><path d="M98,212L119,229L118,221Z" fill="rgb(106, 86, 3)" fill-opacity="0.28"/><path d="M94,76L87,137L85,88Z" fill="rgb(119, 42, 0)" fill-opacity="0.57"/><path d="M143,63L162,58L166,103Z" fill="rgb(242, 176, 80)" fill-opacity="0.32"/><path d="M155,15L141,12L163,32Z" fill="rgb(227, 189, 97)" fill-opacity="0.39"/><path d="M111,123L108,119L92,127Z" fill="rgb(213, 96, 32)" fill-opacity="0.54"/><path d="M89,102L101,63L93,126Z" fill="rgb(233, 121, 5)" fill-opacity="0.25"/><path d="M116,27L149,68L120,66Z" fill="rgb(250, 222, 143)" fill-opacity="0.46"/><path d="M85,84L68,66L80,61Z" fill="rgb(161, 109, 29)" fill-opacity="0.40"/><path d="M95,228L110,218L110,210Z" fill="rgb(126, 162, 211)" fill-opacity="0.29"/><path d="M79,116L96,127L84,134Z" fill="rgb(108, 37, 1)" fill-opacity="0.74"/><path d="M130,110L110,87L139,86Z" fill="rgb(255, 160, 74)" fill-opacity="0.37"/><path d="M166,20L145,6L186,45Z" fill="rgb(126, 90, 10)" fill-opacity="0.53"/><path d="M77,156L103,194L109,188Z" fill="rgb(121, 76, 9)" fill-opacity="0.46"/></svg>