<svg xmlns="http://www.w3.org/2000/svg" viewBox="0 0 197 250" clip-path="url(#clip)"><defs><clipPath id="clip" clipPathUnits="objectBoundingBox"><rect x="0" y="0" width="197" height="250"/></clipPath></defs><rect x="0" y="0" width="197" height="250" fill="rgb(160, 114, 71)"/><path d="M87,252L125,48L225,253Z" fill="rgb(13, 3, 0)" fill-opacity="0.86"/><path d="M86,81L171,105L150,8Z" fill="rgb(77, 39, 17)" fill-opacity="1.00"/><path d="M213,-38L149,141L193,174Z" fill="rgb(212, 150, 94)" fill-opacity="0.88"/><path d="M117,194L59,192L67,247Z" fill="rgb(223, 174, 120)" fill-opacity="0.91"/><path d="M521,122L-25,328L146,174Z" fill="rgb(0, 0, 0)" fill-opacity="0.91"/><path d="M89,28L8,263L-215,-112Z" fill="rgb(248, 171, 105)" fill-opacity="0.78"/><path d="M54,223L-54,331L63,181Z" fill="rgb(32, 14, 3)" fill-opacity="0.81"/><path d="M75,65L83,145L30,149Z" fill="rgb(154, 47, 0)" fill-opacity="0.47"/><path d="M117,197L139,100L74,190Z" fill="rgb(88, 42, 17)" fill-opacity="0.66"/><path d="M-4,77L88,15L103,59Z" fill="rgb(250, 165, 90)" fill-opacity="0.81"/><path d="M66,83L37,95L35,57Z" fill="rgb(123, 43, 1)" fill-opacity="0.51"/><path d="M98,2L106,175L140,16Z" fill="rgb(119, 56, 15)" fill-opacity="0.79"/><path d="M179,57L214,11L116,-8Z" fill="rgb(191, 135, 81)" fill-opacity="0.98"/><path d="M16,50L-58,308L49,199Z" fill="rgb(243, 179, 120)" fill-opacity="0.90"/><path d="M110,4L38,33L52,11Z" fill="rgb(139, 77, 25)" fill-opacity="0.85"/><path d="M115,93L83,134L74,85Z" fill="rgb(254, 136, 57)" fill-opacity="0.65"/><path d="M139,15L166,52L134,275Z" fill="rgb(14, 1, 2)" fill-opacity="0.72"/><path d="M74,192L25,325L13,283Z" fill="rgb(255, 200, 134)" fill-opacity="0.77"/><path d="M144,145L115,87L167,96Z" fill="rgb(43, 10, 7)" fill-opacity="0.69"/><path d="M76,85L104,11L109,71Z" fill="rgb(219, 111, 41)" fill-opacity="0.43"/><path d="M30,126L55,126L74,59Z" fill="rgb(230, 136, 70)" fill-opacity="0.92"/><path d="M28,144L108,149L44,184Z" fill="rgb(198, 128, 75)" fill-opacity="1.00"/><path d="M148,57L123,64L125,22Z" fill="rgb(197, 142, 59)" fill-opacity="0.27"/><path d="M98,2L87,16L146,19Z" fill="rgb(40, 14, 0)" fill-opacity="0.54"/><path d="M89,132L78,111L50,118Z" fill="rgb(57, 4, 0)" fill-opacity="0.36"/><path d="M107,59L109,21L60,13Z" fill="rgb(240, 131, 46)" fill-opacity="0.38"/><path d="M100,207L61,240L93,205Z" fill="rgb(110, 58, 19)" fill-opacity="0.64"/><path d="M145,65L71,69L112,57Z" fill="rgb(103, 47, 13)" fill-opacity="0.72"/><path d="M129,152L79,191L203,170Z" fill="rgb(4, 0, 0)" fill-opacity="0.56"/><path d="M45,19L60,10L40,39Z" fill="rgb(85, 40, 8)" fill-opacity="0.55"/><path d="M99,234L150,135L175,170Z" fill="rgb(0, 0, 0)" fill-opacity="0.75"/><path d="M35,85L60,87L48,80Z" fill="rgb(42, 4, 0)" fill-opacity="0.50"/><path d="M-51,46L135,-123L93,-3Z" fill="rgb(210, 149, 90)" fill-opacity="0.95"/><path d="M94,99L123,16L104,94Z" fill="rgb(103, 39, 10)" fill-opacity="0.51"/><path d="M65,78L76,91L80,63Z" fill="rgb(124, 50, 7)" fill-opacity="0.59"/><path d="M51,197L55,184L-63,218Z" fill="rgb(254, 184, 128)" fill-opacity="0.45"/><path d="M92,210L73,229L92,215Z" fill="rgb(93, 51, 19)" fill-opacity="0.70"/><path d="M451,47L159,38L193,171Z" fill="rgb(219, 158, 101)" fill-opacity="0.50"/><path d="M85,191L57,211L111,201Z" fill="rgb(254, 201, 145)" fill-opacity="0.66"/><path d="M50,186L77,192L111,152Z" fill="rgb(152, 87, 37)" fill-opacity="0.67"/><path d="M114,84L105,78L109,113Z" fill="rgb(196, 111, 46)" fill-opacity="0.55"/><path d="M104,126L108,159L53,122Z" fill="rgb(166, 93, 41)" fill-opacity="0.73"/><path d="M163,62L129,28L136,14Z" fill="rgb(4, 2, 2)" fill-opacity="0.45"/><path d="M92,142L33,149L36,123Z" fill="rgb(143, 71, 18)" fill-opacity="0.47"/><path d="M77,209L59,199L55,238Z" fill="rgb(255, 207, 142)" fill-opacity="0.56"/><path d="M163,156L181,166L152,117Z" fill="rgb(219, 151, 92)" fill-opacity="0.45"/><path d="M223,30L151,127L173,162Z" fill="rgb(225, 161, 104)" fill-opacity="0.39"/><path d="M101,168L82,148L95,177Z" fill="rgb(230, 155, 95)" fill-opacity="0.33"/><path d="M-5,222L38,98L22,18Z" fill="rgb(250, 191, 131)" fill-opacity="0.56"/><path d="M50,231L17,236L63,188Z" fill="rgb(42, 23, 9)" fill-opacity="0.59"/><path d="M116,196L118,187L95,195Z" fill="rgb(186, 125, 72)" fill-opacity="0.53"/><path d="M69,94L94,133L109,104Z" fill="rgb(255, 139, 58)" fill-opacity="0.44"/><path d="M124,120L86,132L131,151Z" fill="rgb(121, 61, 23)" fill-opacity="0.54"/><path d="M58,123L65,110L80,120Z" fill="rgb(52, 3, 0)" fill-opacity="0.45"/><path d="M93,67L101,77L78,75Z" fill="rgb(255, 151, 83)" fill-opacity="0.45"/><path d="M108,114L96,142L95,79Z" fill="rgb(195, 93, 27)" fill-opacity="0.48"/><path d="M150,18L93,0L105,-74Z" fill="rgb(199, 140, 82)" fill-opacity="0.99"/><path d="M59,72L53,103L50,66Z" fill="rgb(164, 82, 32)" fill-opacity="0.48"/><path d="M97,208L104,210L62,246Z" fill="rgb(255, 255, 207)" fill-opacity="0.47"/><path d="M30,247L63,306L44,234Z" fill="rgb(222, 164, 105)" fill-opacity="0.93"/><path d="M58,204L65,187L72,196Z" fill="rgb(255, 216, 162)" fill-opacity="0.67"/><path d="M89,102L102,132L78,122Z" fill="rgb(255, 155, 81)" fill-opacity="0.38"/><path d="M44,71L62,74L34,76Z" fill="rgb(78, 35, 0)" fill-opacity="0.47"/><path d="M97,22L93,63L0,76Z" fill="rgb(252, 171, 99)" fill-opacity="0.45"/><path d="M88,77L89,128L73,101Z" fill="rgb(245, 149, 79)" fill-opacity="0.63"/><path d="M130,32L56,9L73,2Z" fill="rgb(154, 75, 6)" fill-opacity="0.33"/><path d="M135,100L115,84L107,152Z" fill="rgb(84, 28, 15)" fill-opacity="0.48"/><path d="M47,247L56,225L50,273Z" fill="rgb(255, 209, 149)" fill-opacity="0.63"/><path d="M41,36L97,21L64,17Z" fill="rgb(234, 135, 58)" fill-opacity="0.58"/><path d="M46,53L65,19L77,73Z" fill="rgb(255, 188, 112)" fill-opacity="0.36"/><path d="M71,218L5,333L76,221Z" fill="rgb(191, 122, 62)" fill-opacity="0.83"/><path d="M49,188L95,140L82,172Z" fill="rgb(186, 116, 64)" fill-opacity="0.62"/><path d="M151,76L159,72L150,83Z" fill="rgb(136, 54, 25)" fill-opacity="0.46"/><path d="M204,189L153,145L116,248Z" fill="rgb(0, 0, 0)" fill-opacity="0.86"/><path d="M180,23L129,-42L220,22Z" fill="rgb(176, 122, 70)" fill-opacity="0.79"/><path d="M33,243L37,239L38,308Z" fill="rgb(254, 201, 134)" fill-opacity="0.56"/><path d="M67,90L32,91L59,121Z" fill="rgb(244, 141, 70)" fill-opacity="0.50"/><path d="M108,146L94,166L88,133Z" fill="rgb(183, 120, 70)" fill-opacity="0.58"/><path d="M76,143L49,145L39,184Z" fill="rgb(244, 152, 89)" fill-opacity="0.30"/><path d="M125,170L132,178L110,202Z" fill="rgb(77, 38, 20)" fill-opacity="0.39"/><path d="M119,15L116,7L77,13Z" fill="rgb(17, 0, 1)" fill-opacity="0.32"/><path d="M63,201L52,211L76,197Z" fill="rgb(176, 101, 54)" fill-opacity="0.46"/><path d="M37,224L27,265L14,263Z" fill="rgb(10, 1, 1)" fill-opacity="0.49"/><path d="M115,105L166,77L161,110Z" fill="rgb(33, 5, 6)" fill-opacity="0.57"/><path d="M101,191L87,191L81,153Z" fill="rgb(71, 19, 0)" fill-opacity="0.32"/><path d="M50,88L54,79L43,86Z" fill="rgb(40, 19, 10)" fill-opacity="0.48"/><path d="M133,-7L156,38L149,-10Z" fill="rgb(192, 137, 82)" fill-opacity="0.66"/><path d="M57,124L36,127L32,167Z" fill="rgb(176, 108, 54)" fill-opacity="0.73"/><path d="M34,73L41,18L44,60Z" fill="rgb(219, 132, 68)" fill-opacity="0.62"/><path d="M2,265L26,222L28,228Z" fill="rgb(96, 58, 28)" fill-opacity="0.78"/><path d="M40,132L37,112L36,140Z" fill="rgb(131, 64, 13)" fill-opacity="0.48"/><path d="M10,267L58,212L55,201Z" fill="rgb(22, 9, 5)" fill-opacity="0.62"/><path d="M66,139L77,133L84,148Z" fill="rgb(120, 55, 13)" fill-opacity="0.65"/><path d="M106,48L97,65L86,3Z" fill="rgb(212, 119, 52)" fill-opacity="0.33"/><path d="M161,66L131,98L158,38Z" fill="rgb(11, 4, 2)" fill-opacity="0.81"/><path d="M76,88L77,68L85,84Z" fill="rgb(190, 94, 37)" fill-opacity="0.66"/><path d="M129,82L154,115L121,86Z" fill="rgb(35, 10, 7)" fill-opacity="0.57"/><path d="M20,81L-28,107L24,2Z" fill="rgb(223, 166, 105)" fill-opacity="0.62"/><path d="M92,13L102,3L79,4Z" fill="rgb(142, 82, 25)" fill-opacity="0.61"/><path d="M106,101L132,148L98,115Z" fill="rgb(131, 57, 12)" fill-opacity="0.36"/></svg>