<svg xmlns="http://www.w3.org/2000/svg" viewBox="0 0 203 250" clip-path="url(#clip)"><defs><clipPath id="clip" clipPathUnits="objectBoundingBox"><rect x="0" y="0" width="203" height="250"/></clipPath></defs><rect x="0" y="0" width="203" height="250" fill="rgb(8, 6, 3)"/><path d="M127,228L43,13L160,28Z" fill="rgb(243, 173, 118)" fill-opacity="0.72"/><path d="M-5,207L157,74L151,175Z" fill="rgb(187, 125, 73)" fill-opacity="0.51"/><path d="M61,224L28,277L86,219Z" fill="rgb(220, 190, 169)" fill-opacity="0.65"/><path d="M224,420L190,138L99,202Z" fill="rgb(4, 1, 0)" fill-opacity="0.97"/><path d="M198,-118L210,116L130,22Z" fill="rgb(0, 0, 0)" fill-opacity="0.82"/><path d="M159,43L148,98L134,74Z" fill="rgb(73, 42, 10)" fill-opacity="0.75"/><path d="M94,-13L49,77L146,57Z" fill="rgb(255, 228, 176)" fill-opacity="0.49"/><path d="M125,186L143,139L157,150Z" fill="rgb(255, 220, 195)" fill-opacity="0.69"/><path d="M-25,-1L-19,74L84,19Z" fill="rgb(1, 0, 0)" fill-opacity="0.86"/><path d="M51,91L153,82L60,152Z" fill="rgb(255, 178, 86)" fill-opacity="0.24"/><path d="M60,169L106,201L151,126Z" fill="rgb(209, 144, 91)" fill-opacity="0.38"/><path d="M72,111L80,72L39,73Z" fill="rgb(52, 21, 2)" fill-opacity="0.78"/><path d="M124,78L82,67L94,86Z" fill="rgb(50, 16, 0)" fill-opacity="0.71"/><path d="M71,97L120,145L94,155Z" fill="rgb(129, 74, 32)" fill-opacity="0.71"/><path d="M51,38L45,57L93,87Z" fill="rgb(235, 135, 67)" fill-opacity="0.36"/><path d="M48,41L131,-8L108,-27Z" fill="rgb(84, 54, 23)" fill-opacity="0.78"/><path d="M75,108L79,80L136,98Z" fill="rgb(254, 177, 124)" fill-opacity="0.69"/><path d="M88,70L118,71L99,91Z" fill="rgb(58, 25, 0)" fill-opacity="0.58"/><path d="M160,169L140,107L278,141Z" fill="rgb(4, 0, 0)" fill-opacity="0.60"/><path d="M116,178L142,169L155,143Z" fill="rgb(255, 254, 239)" fill-opacity="0.40"/><path d="M130,113L88,127L140,41Z" fill="rgb(255, 171, 114)" fill-opacity="0.51"/><path d="M64,190L77,106L-198,365Z" fill="rgb(50, 37, 17)" fill-opacity="0.81"/><path d="M125,19L122,74L56,38Z" fill="rgb(255, 207, 168)" fill-opacity="0.63"/><path d="M117,5L152,40L65,11Z" fill="rgb(205, 119, 47)" fill-opacity="0.28"/><path d="M-102,353L69,187L48,188Z" fill="rgb(3, 0, 0)" fill-opacity="0.79"/><path d="M41,57L54,79L77,72Z" fill="rgb(139, 69, 12)" fill-opacity="0.37"/><path d="M50,257L81,214L49,243Z" fill="rgb(255, 224, 202)" fill-opacity="0.30"/><path d="M84,141L150,144L110,193Z" fill="rgb(188, 130, 87)" fill-opacity="0.43"/><path d="M77,1L108,-32L192,55Z" fill="rgb(7, 1, 0)" fill-opacity="0.34"/><path d="M65,219L78,232L82,218Z" fill="rgb(192, 159, 135)" fill-opacity="0.30"/><path d="M137,79L154,105L131,118Z" fill="rgb(160, 96, 49)" fill-opacity="0.91"/><path d="M44,247L56,227L75,216Z" fill="rgb(64, 51, 31)" fill-opacity="0.62"/><path d="M79,15L92,78L56,40Z" fill="rgb(255, 178, 131)" fill-opacity="0.34"/><path d="M91,17L117,19L98,70Z" fill="rgb(255, 215, 176)" fill-opacity="0.49"/><path d="M148,85L159,84L147,112Z" fill="rgb(183, 105, 49)" fill-opacity="0.41"/><path d="M58,176L131,188L71,199Z" fill="rgb(96, 61, 27)" fill-opacity="0.50"/><path d="M46,123L114,131L116,146Z" fill="rgb(79, 36, 1)" fill-opacity="0.40"/><path d="M70,131L46,178L97,130Z" fill="rgb(54, 27, 0)" fill-opacity="0.62"/><path d="M137,72L126,99L97,100Z" fill="rgb(254, 198, 147)" fill-opacity="0.55"/><path d="M87,80L115,70L121,82Z" fill="rgb(47, 17, 0)" fill-opacity="0.50"/><path d="M159,54L133,74L136,21Z" fill="rgb(129, 93, 51)" fill-opacity="0.34"/><path d="M64,29L127,10L89,4Z" fill="rgb(137, 93, 46)" fill-opacity="0.44"/><path d="M81,197L82,153L57,164Z" fill="rgb(235, 139, 63)" fill-opacity="0.17"/><path d="M126,25L149,52L59,30Z" fill="rgb(255, 201, 161)" fill-opacity="0.32"/><path d="M157,154L93,216L45,449Z" fill="rgb(0, 0, 0)" fill-opacity="0.66"/><path d="M91,105L97,109L-119,242Z" fill="rgb(39, 19, 0)" fill-opacity="0.54"/><path d="M136,85L157,50L159,81Z" fill="rgb(61, 37, 11)" fill-opacity="0.63"/><path d="M44,80L45,39L59,69Z" fill="rgb(51, 28, 1)" fill-opacity="0.61"/><path d="M138,162L149,125L103,119Z" fill="rgb(212, 151, 104)" fill-opacity="0.47"/><path d="M135,40L131,67L81,70Z" fill="rgb(255, 175, 121)" fill-opacity="0.45"/><path d="M122,190L85,197L101,203Z" fill="rgb(36, 20, 8)" fill-opacity="0.76"/><path d="M156,52L146,32L113,13Z" fill="rgb(101, 70, 32)" fill-opacity="0.58"/><path d="M84,172L80,135L96,156Z" fill="rgb(115, 69, 27)" fill-opacity="0.74"/><path d="M136,178L109,196L114,171Z" fill="rgb(128, 133, 133)" fill-opacity="0.29"/><path d="M92,221L58,247L69,233Z" fill="rgb(37, 30, 21)" fill-opacity="0.62"/><path d="M160,173L147,121L159,89Z" fill="rgb(17, 6, 1)" fill-opacity="0.81"/><path d="M131,135L139,113L93,102Z" fill="rgb(200, 119, 68)" fill-opacity="0.55"/><path d="M85,115L54,132L48,103Z" fill="rgb(46, 16, 0)" fill-opacity="0.68"/><path d="M84,73L101,67L92,85Z" fill="rgb(82, 39, 0)" fill-opacity="0.45"/><path d="M76,119L94,126L59,136Z" fill="rgb(113, 71, 32)" fill-opacity="0.55"/><path d="M89,83L111,82L106,94Z" fill="rgb(171, 100, 51)" fill-opacity="0.52"/><path d="M88,233L108,199L68,194Z" fill="rgb(8, 0, 0)" fill-opacity="0.55"/><path d="M83,147L9,230L-81,223Z" fill="rgb(68, 59, 34)" fill-opacity="0.44"/><path d="M88,19L120,65L61,70Z" fill="rgb(255, 208, 171)" fill-opacity="0.37"/><path d="M71,55L52,41L56,61Z" fill="rgb(180, 115, 66)" fill-opacity="0.46"/><path d="M2,89L72,18L-24,-141Z" fill="rgb(0, 0, 0)" fill-opacity="0.67"/><path d="M102,180L92,164L149,138Z" fill="rgb(201, 143, 96)" fill-opacity="0.42"/><path d="M83,75L97,68L80,61Z" fill="rgb(207, 120, 63)" fill-opacity="0.44"/><path d="M46,105L45,77L80,76Z" fill="rgb(29, 10, 1)" fill-opacity="0.80"/><path d="M145,149L121,185L152,158Z" fill="rgb(255, 232, 214)" fill-opacity="0.33"/><path d="M57,234L57,242L41,262Z" fill="rgb(250, 221, 210)" fill-opacity="0.37"/><path d="M117,35L83,31L103,64Z" fill="rgb(249, 222, 192)" fill-opacity="0.42"/><path d="M152,68L134,67L155,44Z" fill="rgb(118, 90, 55)" fill-opacity="0.44"/><path d="M135,109L141,64L150,68Z" fill="rgb(69, 29, 0)" fill-opacity="0.27"/><path d="M47,97L66,122L80,90Z" fill="rgb(102, 53, 9)" fill-opacity="0.34"/><path d="M136,156L145,135L151,146Z" fill="rgb(182, 122, 73)" fill-opacity="0.61"/><path d="M117,69L125,75L110,77Z" fill="rgb(176, 104, 48)" fill-opacity="0.50"/><path d="M264,227L149,141L192,192Z" fill="rgb(26, 22, 6)" fill-opacity="0.61"/><path d="M77,74L53,87L75,88Z" fill="rgb(19, 2, 0)" fill-opacity="0.65"/><path d="M52,31L64,37L44,54Z" fill="rgb(83, 47, 6)" fill-opacity="0.34"/><path d="M106,126L124,143L85,175Z" fill="rgb(163, 95, 43)" fill-opacity="0.36"/><path d="M85,42L95,62L59,76Z" fill="rgb(251, 172, 122)" fill-opacity="0.38"/><path d="M58,114L57,144L-170,276Z" fill="rgb(23, 18, 5)" fill-opacity="0.79"/><path d="M71,162L79,187L81,155Z" fill="rgb(177, 118, 72)" fill-opacity="0.46"/><path d="M74,108L80,94L74,98Z" fill="rgb(200, 115, 66)" fill-opacity="0.64"/><path d="M-124,299L89,193L61,228Z" fill="rgb(0, 0, 0)" fill-opacity="0.51"/><path d="M134,72L121,70L127,92Z" fill="rgb(255, 190, 136)" fill-opacity="0.53"/><path d="M73,218L79,226L62,239Z" fill="rgb(196, 170, 160)" fill-opacity="0.39"/><path d="M451,401L185,106L93,-76Z" fill="rgb(0, 0, 0)" fill-opacity="0.89"/><path d="M114,71L138,79L120,34Z" fill="rgb(241, 159, 98)" fill-opacity="0.37"/><path d="M120,22L127,13L98,10Z" fill="rgb(95, 62, 24)" fill-opacity="0.67"/><path d="M97,110L103,130L84,121Z" fill="rgb(207, 143, 89)" fill-opacity="0.56"/><path d="M158,103L154,86L156,39Z" fill="rgb(50, 29, 9)" fill-opacity="0.63"/><path d="M52,237L34,292L45,247Z" fill="rgb(96, 85, 65)" fill-opacity="0.68"/><path d="M12,143L-56,278L15,200Z" fill="rgb(35, 33, 16)" fill-opacity="0.55"/><path d="M120,191L91,188L110,182Z" fill="rgb(111, 80, 51)" fill-opacity="0.55"/><path d="M128,30L137,60L145,43Z" fill="rgb(206, 146, 98)" fill-opacity="0.62"/><path d="M103,14L69,27L133,25Z" fill="rgb(255, 150, 87)" fill-opacity="0.28"/><path d="M93,87L119,103L93,97Z" fill="rgb(251, 193, 142)" fill-opacity="0.59"/><path d="M67,38L101,29L76,54Z" fill="rgb(248, 205, 170)" fill-opacity="0.64"/></svg>