<svg xmlns="http://www.w3.org/2000/svg" viewBox="0 0 237.03703703703704 256" clip-path="url(#clip)"><defs><clipPath id="clip" clipPathUnits="objectBoundingBox"><rect x="0" y="0" width="237.03703703703704" height="256"/></clipPath></defs><rect x="0" y="0" width="237.03703703703704" height="256" fill="rgb(46, 31, 31)"/><path d="M102,327L169,173L75,216Z" fill="rgb(178, 178, 180)" fill-opacity="0.97"/><path d="M138,258L-39,1L209,30Z" fill="rgb(255, 213, 191)" fill-opacity="0.40"/><path d="M112,215L97,230L166,466Z" fill="rgb(24, 11, 10)" fill-opacity="0.90"/><path d="M101,120L171,47L70,41Z" fill="rgb(243, 232, 221)" fill-opacity="0.53"/><path d="M-694,588L84,229L61,158Z" fill="rgb(2, 0, 0)" fill-opacity="0.76"/><path d="M78,213L75,181L143,192Z" fill="rgb(98, 68, 63)" fill-opacity="1.00"/><path d="M15,50L33,168L59,161Z" fill="rgb(125, 105, 89)" fill-opacity="1.00"/><path d="M468,69L181,95L140,-28Z" fill="rgb(52, 34, 39)" fill-opacity="0.96"/><path d="M70,186L62,-370L41,111Z" fill="rgb(67, 39, 33)" fill-opacity="0.81"/><path d="M127,-16L188,114L59,90Z" fill="rgb(211, 195, 188)" fill-opacity="0.32"/><path d="M132,175L152,183L106,210Z" fill="rgb(100, 63, 55)" fill-opacity="0.89"/><path d="M16,84L-79,130L24,-73Z" fill="rgb(59, 39, 32)" fill-opacity="0.90"/><path d="M26,-18L42,-32L39,169Z" fill="rgb(147, 130, 105)" fill-opacity="0.93"/><path d="M107,211L166,176L131,257Z" fill="rgb(227, 241, 247)" fill-opacity="0.77"/><path d="M78,195L106,210L85,275Z" fill="rgb(244, 254, 255)" fill-opacity="0.47"/><path d="M12,160L20,176L63,137Z" fill="rgb(154, 130, 109)" fill-opacity="0.54"/><path d="M84,153L83,163L128,154Z" fill="rgb(79, 31, 21)" fill-opacity="0.70"/><path d="M108,18L44,-86L42,69Z" fill="rgb(55, 38, 39)" fill-opacity="0.62"/><path d="M121,90L90,134L170,178Z" fill="rgb(156, 115, 102)" fill-opacity="1.00"/><path d="M81,-2L235,43L391,1Z" fill="rgb(53, 36, 41)" fill-opacity="1.00"/><path d="M79,138L98,145L119,135Z" fill="rgb(48, 8, 2)" fill-opacity="0.54"/><path d="M125,10L86,16L164,25Z" fill="rgb(146, 134, 136)" fill-opacity="0.53"/><path d="M163,107L136,147L109,112Z" fill="rgb(182, 138, 122)" fill-opacity="0.79"/><path d="M186,111L174,149L171,110Z" fill="rgb(239, 192, 171)" fill-opacity="0.48"/><path d="M120,8L131,95L72,34Z" fill="rgb(215, 252, 255)" fill-opacity="0.12"/><path d="M94,189L147,167L110,157Z" fill="rgb(205, 144, 122)" fill-opacity="0.55"/><path d="M150,101L112,96L146,92Z" fill="rgb(43, 20, 16)" fill-opacity="0.49"/><path d="M95,267L121,242L116,226Z" fill="rgb(31, 18, 18)" fill-opacity="0.88"/><path d="M380,29L58,539L141,232Z" fill="rgb(19, 6, 5)" fill-opacity="0.83"/><path d="M56,66L140,148L73,38Z" fill="rgb(174, 135, 120)" fill-opacity="0.38"/><path d="M94,164L53,97L81,222Z" fill="rgb(121, 68, 56)" fill-opacity="0.48"/><path d="M85,236L123,279L81,279Z" fill="rgb(234, 244, 248)" fill-opacity="0.63"/><path d="M99,230L103,215L124,259Z" fill="rgb(34, 21, 21)" fill-opacity="0.73"/><path d="M151,94L167,57L98,82Z" fill="rgb(192, 167, 154)" fill-opacity="0.73"/><path d="M161,196L117,223L168,165Z" fill="rgb(221, 228, 231)" fill-opacity="0.93"/><path d="M156,133L126,158L318,142Z" fill="rgb(107, 74, 74)" fill-opacity="0.51"/><path d="M171,105L170,161L158,106Z" fill="rgb(105, 21, 0)" fill-opacity="0.27"/><path d="M144,44L154,19L177,67Z" fill="rgb(97, 87, 90)" fill-opacity="0.53"/><path d="M170,144L187,108L181,86Z" fill="rgb(200, 158, 141)" fill-opacity="0.49"/><path d="M-57,256L75,189L83,256Z" fill="rgb(13, 8, 7)" fill-opacity="0.98"/><path d="M83,222L-39,193L57,162Z" fill="rgb(10, 6, 5)" fill-opacity="0.65"/><path d="M35,168L108,208L116,197Z" fill="rgb(26, 4, 0)" fill-opacity="0.51"/><path d="M174,148L224,164L154,223Z" fill="rgb(16, 3, 2)" fill-opacity="0.65"/><path d="M-41,193L28,100L33,151Z" fill="rgb(60, 33, 23)" fill-opacity="0.47"/><path d="M121,202L84,189L136,194Z" fill="rgb(87, 50, 42)" fill-opacity="0.76"/><path d="M99,99L90,145L82,136Z" fill="rgb(70, 11, 0)" fill-opacity="0.40"/><path d="M85,29L52,59L93,42Z" fill="rgb(116, 95, 90)" fill-opacity="0.46"/><path d="M57,38L82,111L64,107Z" fill="rgb(106, 69, 60)" fill-opacity="0.51"/><path d="M90,278L102,250L88,205Z" fill="rgb(216, 222, 226)" fill-opacity="0.96"/><path d="M82,137L91,102L74,115Z" fill="rgb(191, 140, 123)" fill-opacity="0.57"/><path d="M131,254L160,197L105,207Z" fill="rgb(220, 229, 232)" fill-opacity="0.60"/><path d="M15,87L22,113L34,27Z" fill="rgb(124, 107, 80)" fill-opacity="0.54"/><path d="M80,152L130,151L122,136Z" fill="rgb(197, 146, 127)" fill-opacity="0.44"/><path d="M125,22L160,-34L126,43Z" fill="rgb(52, 42, 49)" fill-opacity="0.28"/><path d="M121,240L117,251L140,262Z" fill="rgb(238, 246, 249)" fill-opacity="0.55"/><path d="M88,101L46,96L82,95Z" fill="rgb(50, 27, 23)" fill-opacity="0.65"/><path d="M170,92L182,89L165,38Z" fill="rgb(87, 67, 63)" fill-opacity="0.47"/><path d="M43,137L57,145L62,-136Z" fill="rgb(53, 31, 27)" fill-opacity="0.51"/><path d="M132,36L136,19L170,53Z" fill="rgb(164, 175, 185)" fill-opacity="0.28"/><path d="M92,109L54,116L71,182Z" fill="rgb(202, 122, 102)" fill-opacity="0.18"/><path d="M161,142L242,132L243,170Z" fill="rgb(72, 61, 70)" fill-opacity="0.60"/><path d="M121,104L131,111L137,103Z" fill="rgb(49, 32, 29)" fill-opacity="0.68"/><path d="M159,199L144,229L253,332Z" fill="rgb(21, 11, 9)" fill-opacity="0.79"/><path d="M91,12L93,46L114,9Z" fill="rgb(98, 80, 83)" fill-opacity="0.42"/><path d="M119,37L105,35L114,23Z" fill="rgb(188, 191, 198)" fill-opacity="0.52"/><path d="M169,162L110,193L161,108Z" fill="rgb(152, 92, 76)" fill-opacity="0.55"/><path d="M19,100L43,78L46,122Z" fill="rgb(132, 116, 95)" fill-opacity="0.43"/><path d="M96,103L95,112L82,96Z" fill="rgb(96, 53, 44)" fill-opacity="0.58"/><path d="M141,192L171,150L149,171Z" fill="rgb(76, 43, 38)" fill-opacity="0.48"/><path d="M85,223L86,207L148,208Z" fill="rgb(224, 232, 235)" fill-opacity="0.78"/><path d="M86,20L32,-125L50,34Z" fill="rgb(49, 29, 29)" fill-opacity="0.88"/><path d="M10,50L29,7L34,-48Z" fill="rgb(84, 63, 51)" fill-opacity="0.79"/><path d="M91,206L106,204L56,159Z" fill="rgb(41, 12, 7)" fill-opacity="0.35"/><path d="M125,105L127,112L121,110Z" fill="rgb(202, 203, 199)" fill-opacity="0.50"/><path d="M162,22L165,40L148,27Z" fill="rgb(76, 57, 57)" fill-opacity="0.90"/><path d="M115,118L133,141L131,127Z" fill="rgb(218, 199, 187)" fill-opacity="0.37"/><path d="M58,161L39,123L12,176Z" fill="rgb(178, 161, 144)" fill-opacity="0.19"/><path d="M152,102L143,90L134,115Z" fill="rgb(97, 28, 9)" fill-opacity="0.23"/><path d="M75,111L73,103L86,105Z" fill="rgb(32, 15, 12)" fill-opacity="0.52"/><path d="M136,157L126,136L114,124Z" fill="rgb(90, 50, 42)" fill-opacity="0.53"/><path d="M80,231L85,232L83,204Z" fill="rgb(171, 166, 169)" fill-opacity="0.73"/><path d="M180,58L464,20L192,137Z" fill="rgb(44, 26, 29)" fill-opacity="0.73"/><path d="M46,95L54,79L77,124Z" fill="rgb(60, 25, 17)" fill-opacity="0.34"/><path d="M108,127L96,110L64,109Z" fill="rgb(255, 228, 208)" fill-opacity="0.14"/><path d="M119,94L95,93L98,141Z" fill="rgb(177, 139, 124)" fill-opacity="0.63"/><path d="M145,138L155,140L154,65Z" fill="rgb(190, 142, 124)" fill-opacity="0.43"/><path d="M144,162L102,195L89,171Z" fill="rgb(222, 162, 141)" fill-opacity="0.21"/><path d="M173,147L167,110L160,175Z" fill="rgb(101, 63, 54)" fill-opacity="0.46"/><path d="M123,99L115,105L142,99Z" fill="rgb(223, 221, 211)" fill-opacity="0.39"/><path d="M103,182L116,192L81,188Z" fill="rgb(138, 83, 69)" fill-opacity="0.43"/><path d="M161,50L152,68L172,79Z" fill="rgb(191, 191, 191)" fill-opacity="0.29"/><path d="M66,100L67,104L84,100Z" fill="rgb(230, 216, 205)" fill-opacity="0.43"/><path d="M103,138L102,105L93,139Z" fill="rgb(200, 176, 163)" fill-opacity="0.34"/><path d="M16,29L15,71L73,-55Z" fill="rgb(159, 150, 94)" fill-opacity="0.24"/><path d="M68,45L63,74L77,96Z" fill="rgb(141, 100, 89)" fill-opacity="0.63"/><path d="M66,113L89,125L60,124Z" fill="rgb(136, 89, 77)" fill-opacity="0.65"/><path d="M185,95L183,125L170,130Z" fill="rgb(198, 167, 152)" fill-opacity="0.41"/><path d="M69,172L51,140L66,129Z" fill="rgb(94, 53, 46)" fill-opacity="0.62"/><path d="M34,171L35,149L16,154Z" fill="rgb(102, 81, 68)" fill-opacity="0.54"/><path d="M90,185L125,156L124,184Z" fill="rgb(182, 141, 127)" fill-opacity="0.45"/></svg>