<svg xmlns="http://www.w3.org/2000/svg" viewBox="0 0 256 213.33333333333334" clip-path="url(#clip)"><defs><clipPath id="clip" clipPathUnits="objectBoundingBox"><rect x="0" y="0" width="256" height="213.33333333333334"/></clipPath></defs><rect x="0" y="0" width="256" height="213.33333333333334" fill="rgb(32, 33, 29)"/><path d="M138,322L164,150L133,185Z" fill="rgb(229, 213, 213)" fill-opacity="0.75"/><path d="M176,26L126,451L85,35Z" fill="rgb(255, 155, 113)" fill-opacity="0.47"/><path d="M159,84L93,64L145,14Z" fill="rgb(255, 178, 137)" fill-opacity="0.42"/><path d="M185,106L149,17L126,172Z" fill="rgb(187, 105, 62)" fill-opacity="0.46"/><path d="M115,94L83,94L92,142Z" fill="rgb(196, 99, 58)" fill-opacity="0.48"/><path d="M86,27L80,98L113,91Z" fill="rgb(71, 36, 19)" fill-opacity="0.59"/><path d="M119,204L109,166L158,159Z" fill="rgb(1, 0, 5)" fill-opacity="0.44"/><path d="M84,125L116,170L-577,469Z" fill="rgb(0, 3, 7)" fill-opacity="0.41"/><path d="M146,3L179,80L233,-16Z" fill="rgb(22, 29, 24)" fill-opacity="0.85"/><path d="M473,156L224,-20L222,133Z" fill="rgb(79, 69, 45)" fill-opacity="0.66"/><path d="M100,139L129,121L98,116Z" fill="rgb(55, 12, 1)" fill-opacity="0.60"/><path d="M161,88L139,75L132,93Z" fill="rgb(72, 36, 18)" fill-opacity="0.60"/><path d="M185,84L171,128L178,81Z" fill="rgb(182, 91, 43)" fill-opacity="0.45"/><path d="M118,183L95,157L112,258Z" fill="rgb(120, 138, 143)" fill-opacity="0.67"/><path d="M114,193L137,190L126,230Z" fill="rgb(28, 17, 19)" fill-opacity="0.66"/><path d="M91,134L77,113L-160,138Z" fill="rgb(83, 92, 54)" fill-opacity="0.42"/><path d="M124,187L101,163L139,169Z" fill="rgb(26, 15, 10)" fill-opacity="0.68"/><path d="M98,92L152,120L164,92Z" fill="rgb(202, 127, 92)" fill-opacity="0.58"/><path d="M134,184L145,248L164,159Z" fill="rgb(176, 189, 201)" fill-opacity="0.62"/><path d="M107,80L97,99L78,82Z" fill="rgb(36, 24, 18)" fill-opacity="0.44"/><path d="M158,78L124,20L92,79Z" fill="rgb(213, 152, 122)" fill-opacity="0.35"/><path d="M75,47L222,-9L-224,10Z" fill="rgb(21, 28, 24)" fill-opacity="0.69"/><path d="M107,135L136,137L142,130Z" fill="rgb(155, 163, 167)" fill-opacity="0.80"/><path d="M107,139L131,139L103,134Z" fill="rgb(34, 18, 17)" fill-opacity="0.66"/><path d="M224,17L229,145L242,-68Z" fill="rgb(108, 105, 85)" fill-opacity="0.48"/><path d="M81,137L117,253L17,214Z" fill="rgb(14, 17, 18)" fill-opacity="0.85"/><path d="M134,114L119,121L118,61Z" fill="rgb(194, 117, 83)" fill-opacity="0.70"/><path d="M111,100L100,120L86,100Z" fill="rgb(232, 162, 127)" fill-opacity="0.26"/><path d="M182,74L163,150L134,184Z" fill="rgb(116, 58, 29)" fill-opacity="0.59"/><path d="M157,197L224,89L195,42Z" fill="rgb(22, 24, 19)" fill-opacity="0.94"/><path d="M154,213L130,184L153,177Z" fill="rgb(200, 190, 191)" fill-opacity="0.65"/><path d="M178,91L165,84L173,53Z" fill="rgb(74, 54, 40)" fill-opacity="0.77"/><path d="M141,200L129,181L109,204Z" fill="rgb(60, 36, 31)" fill-opacity="0.39"/><path d="M122,184L106,178L103,215Z" fill="rgb(143, 142, 141)" fill-opacity="0.73"/><path d="M130,169L111,142L163,134Z" fill="rgb(250, 136, 92)" fill-opacity="0.23"/><path d="M114,80L119,94L105,148Z" fill="rgb(73, 20, 0)" fill-opacity="0.45"/><path d="M204,134L200,105L235,135Z" fill="rgb(139, 154, 62)" fill-opacity="0.14"/><path d="M125,10L157,28L88,65Z" fill="rgb(203, 104, 51)" fill-opacity="0.20"/><path d="M291,693L160,139L278,133Z" fill="rgb(10, 13, 15)" fill-opacity="0.61"/><path d="M100,227L109,202L115,218Z" fill="rgb(197, 192, 198)" fill-opacity="0.53"/><path d="M75,91L82,131L103,128Z" fill="rgb(97, 39, 17)" fill-opacity="0.41"/><path d="M104,76L136,43L142,77Z" fill="rgb(202, 153, 135)" fill-opacity="0.48"/><path d="M118,172L132,145L77,127Z" fill="rgb(194, 55, 5)" fill-opacity="0.18"/><path d="M173,70L106,87L151,93Z" fill="rgb(79, 28, 0)" fill-opacity="0.19"/><path d="M88,47L107,84L113,34Z" fill="rgb(172, 97, 58)" fill-opacity="0.47"/><path d="M248,-69L237,30L236,142Z" fill="rgb(8, 15, 13)" fill-opacity="0.52"/><path d="M148,116L159,100L129,98Z" fill="rgb(220, 163, 140)" fill-opacity="0.30"/><path d="M94,154L120,184L77,112Z" fill="rgb(46, 32, 23)" fill-opacity="0.88"/><path d="M146,150L141,131L129,165Z" fill="rgb(183, 134, 107)" fill-opacity="0.43"/><path d="M148,117L136,130L152,135Z" fill="rgb(94, 36, 15)" fill-opacity="0.53"/><path d="M-224,159L75,133L96,171Z" fill="rgb(16, 17, 16)" fill-opacity="0.84"/><path d="M121,138L145,133L105,133Z" fill="rgb(240, 193, 162)" fill-opacity="0.37"/><path d="M-112,-9L91,72L14,103Z" fill="rgb(0, 12, 14)" fill-opacity="0.38"/><path d="M159,69L165,40L185,85Z" fill="rgb(110, 73, 51)" fill-opacity="0.29"/><path d="M89,39L103,34L96,82Z" fill="rgb(131, 68, 35)" fill-opacity="0.40"/><path d="M125,132L149,112L126,122Z" fill="rgb(195, 108, 75)" fill-opacity="0.50"/><path d="M109,79L130,84L133,73Z" fill="rgb(223, 139, 98)" fill-opacity="0.33"/><path d="M131,200L102,214L138,199Z" fill="rgb(123, 119, 120)" fill-opacity="0.75"/><path d="M120,89L107,80L100,93Z" fill="rgb(68, 33, 18)" fill-opacity="0.52"/><path d="M170,83L173,94L192,58Z" fill="rgb(27, 23, 18)" fill-opacity="0.49"/><path d="M146,74L181,103L172,124Z" fill="rgb(159, 88, 47)" fill-opacity="0.43"/><path d="M102,137L108,110L123,124Z" fill="rgb(67, 30, 19)" fill-opacity="0.61"/><path d="M107,7L79,62L74,30Z" fill="rgb(10, 1, 4)" fill-opacity="0.33"/><path d="M127,204L118,210L93,284Z" fill="rgb(25, 19, 18)" fill-opacity="0.83"/><path d="M113,197L161,149L142,160Z" fill="rgb(62, 30, 20)" fill-opacity="0.61"/><path d="M133,209L133,199L226,303Z" fill="rgb(190, 184, 187)" fill-opacity="0.83"/><path d="M171,101L146,87L168,80Z" fill="rgb(154, 91, 53)" fill-opacity="0.61"/><path d="M256,-8L298,156L232,132Z" fill="rgb(52, 40, 20)" fill-opacity="0.56"/><path d="M145,128L135,130L144,132Z" fill="rgb(12, 7, 10)" fill-opacity="0.45"/><path d="M104,184L103,209L91,140Z" fill="rgb(64, 68, 68)" fill-opacity="0.55"/><path d="M176,116L149,117L147,159Z" fill="rgb(156, 80, 37)" fill-opacity="0.36"/><path d="M152,23L105,58L103,40Z" fill="rgb(185, 124, 89)" fill-opacity="0.58"/><path d="M234,133L224,134L225,35Z" fill="rgb(82, 76, 57)" fill-opacity="0.78"/><path d="M142,49L152,59L107,59Z" fill="rgb(200, 174, 159)" fill-opacity="0.28"/><path d="M155,27L139,24L159,82Z" fill="rgb(176, 114, 79)" fill-opacity="0.68"/><path d="M96,92L83,102L119,96Z" fill="rgb(144, 94, 62)" fill-opacity="0.46"/><path d="M70,139L74,84L49,75Z" fill="rgb(13, 28, 21)" fill-opacity="0.48"/><path d="M110,237L136,217L131,201Z" fill="rgb(82, 26, 18)" fill-opacity="0.51"/><path d="M116,115L127,107L122,121Z" fill="rgb(203, 126, 100)" fill-opacity="0.52"/><path d="M100,131L125,133L102,127Z" fill="rgb(49, 23, 15)" fill-opacity="0.71"/><path d="M159,154L171,115L150,162Z" fill="rgb(100, 53, 32)" fill-opacity="1.00"/><path d="M185,33L159,32L115,-11Z" fill="rgb(24, 25, 21)" fill-opacity="0.71"/><path d="M113,160L116,152L142,164Z" fill="rgb(185, 108, 75)" fill-opacity="0.57"/><path d="M94,125L125,151L107,148Z" fill="rgb(125, 56, 30)" fill-opacity="0.43"/><path d="M136,23L123,33L85,42Z" fill="rgb(116, 65, 39)" fill-opacity="0.61"/><path d="M146,175L163,148L162,171Z" fill="rgb(168, 163, 163)" fill-opacity="0.74"/><path d="M120,122L125,123L139,112Z" fill="rgb(114, 40, 15)" fill-opacity="0.51"/><path d="M143,123L141,112L151,129Z" fill="rgb(122, 49, 21)" fill-opacity="0.57"/><path d="M97,141L89,90L92,136Z" fill="rgb(180, 94, 54)" fill-opacity="0.33"/><path d="M220,50L223,110L170,59Z" fill="rgb(19, 23, 18)" fill-opacity="0.69"/><path d="M76,71L78,47L74,65Z" fill="rgb(78, 69, 61)" fill-opacity="0.37"/><path d="M71,43L101,15L156,15Z" fill="rgb(14, 9, 11)" fill-opacity="0.31"/><path d="M179,50L176,43L234,47Z" fill="rgb(51, 77, 55)" fill-opacity="0.32"/><path d="M120,99L90,127L104,123Z" fill="rgb(124, 57, 30)" fill-opacity="0.69"/><path d="M153,91L140,91L129,84Z" fill="rgb(43, 20, 13)" fill-opacity="0.49"/><path d="M124,192L111,208L113,198Z" fill="rgb(4, 11, 8)" fill-opacity="0.45"/><path d="M69,47L-33,44L69,39Z" fill="rgb(31, 48, 39)" fill-opacity="0.59"/><path d="M84,89L116,89L117,93Z" fill="rgb(23, 16, 13)" fill-opacity="0.37"/><path d="M171,94L172,111L165,126Z" fill="rgb(98, 47, 24)" fill-opacity="0.55"/><path d="M129,139L128,167L100,156Z" fill="rgb(215, 108, 72)" fill-opacity="0.15"/></svg>