<svg xmlns="http://www.w3.org/2000/svg" viewBox="0 0 210.93632958801498 256" clip-path="url(#clip)"><defs><clipPath id="clip" clipPathUnits="objectBoundingBox"><rect x="0" y="0" width="210.93632958801498" height="256"/></clipPath></defs><rect x="0" y="0" width="210.93632958801498" height="256" fill="rgb(18, 5, 1)"/><path d="M116,20L45,82L131,152Z" fill="rgb(241, 226, 198)" fill-opacity="0.60"/><path d="M41,95L120,24L80,32Z" fill="rgb(101, 94, 85)" fill-opacity="1.00"/><path d="M141,56L87,161L80,52Z" fill="rgb(255, 246, 215)" fill-opacity="0.36"/><path d="M546,671L154,125L-78,191Z" fill="rgb(8, 3, 2)" fill-opacity="0.93"/><path d="M104,76L111,83L46,117Z" fill="rgb(100, 81, 65)" fill-opacity="0.66"/><path d="M105,146L41,77L74,78Z" fill="rgb(97, 81, 65)" fill-opacity="0.87"/><path d="M367,-36L178,167L98,25Z" fill="rgb(59, 22, 7)" fill-opacity="0.41"/><path d="M80,126L92,143L126,135Z" fill="rgb(201, 176, 143)" fill-opacity="0.52"/><path d="M86,43L104,32L77,37Z" fill="rgb(195, 207, 216)" fill-opacity="0.59"/><path d="M96,144L133,103L130,78Z" fill="rgb(183, 140, 110)" fill-opacity="0.60"/><path d="M97,164L89,161L82,182Z" fill="rgb(207, 203, 184)" fill-opacity="0.32"/><path d="M73,147L-146,260L47,6Z" fill="rgb(34, 11, 2)" fill-opacity="0.95"/><path d="M74,83L63,96L69,106Z" fill="rgb(211, 240, 255)" fill-opacity="0.44"/><path d="M76,85L58,85L62,51Z" fill="rgb(216, 247, 255)" fill-opacity="0.27"/><path d="M88,81L86,46L124,73Z" fill="rgb(255, 252, 231)" fill-opacity="0.59"/><path d="M127,34L132,66L137,51Z" fill="rgb(135, 143, 139)" fill-opacity="0.56"/><path d="M127,135L135,105L81,126Z" fill="rgb(164, 114, 80)" fill-opacity="0.41"/><path d="M115,136L119,94L78,89Z" fill="rgb(240, 211, 185)" fill-opacity="0.44"/><path d="M116,106L165,86L124,139Z" fill="rgb(70, 29, 9)" fill-opacity="0.47"/><path d="M149,88L117,74L115,89Z" fill="rgb(57, 26, 13)" fill-opacity="0.52"/><path d="M59,69L73,82L76,54Z" fill="rgb(212, 237, 255)" fill-opacity="0.25"/><path d="M79,69L117,81L90,55Z" fill="rgb(255, 253, 228)" fill-opacity="0.47"/><path d="M97,55L91,30L126,33Z" fill="rgb(107, 108, 100)" fill-opacity="0.65"/><path d="M57,74L74,87L56,64Z" fill="rgb(71, 53, 34)" fill-opacity="0.41"/><path d="M110,80L106,88L98,80Z" fill="rgb(61, 21, 0)" fill-opacity="0.51"/><path d="M84,49L129,76L116,52Z" fill="rgb(184, 173, 160)" fill-opacity="0.58"/><path d="M84,30L205,24L309,-71Z" fill="rgb(24, 7, 1)" fill-opacity="0.90"/><path d="M138,86L114,47L122,27Z" fill="rgb(41, 30, 18)" fill-opacity="0.81"/><path d="M152,132L195,150L141,65Z" fill="rgb(100, 29, 3)" fill-opacity="0.33"/><path d="M128,94L128,121L117,83Z" fill="rgb(196, 170, 148)" fill-opacity="0.57"/><path d="M87,25L68,65L49,42Z" fill="rgb(69, 38, 21)" fill-opacity="0.35"/><path d="M75,105L78,118L83,109Z" fill="rgb(218, 192, 171)" fill-opacity="0.45"/><path d="M111,79L117,90L108,100Z" fill="rgb(243, 235, 200)" fill-opacity="0.55"/><path d="M98,154L76,122L-79,339Z" fill="rgb(6, 2, 1)" fill-opacity="0.98"/><path d="M110,43L64,44L79,58Z" fill="rgb(73, 74, 59)" fill-opacity="0.36"/><path d="M113,103L109,106L123,111Z" fill="rgb(80, 38, 14)" fill-opacity="0.48"/><path d="M71,92L77,59L80,67Z" fill="rgb(66, 65, 47)" fill-opacity="0.53"/><path d="M86,117L23,180L33,109Z" fill="rgb(46, 16, 4)" fill-opacity="0.77"/><path d="M55,140L5,13L65,89Z" fill="rgb(37, 11, 3)" fill-opacity="0.87"/><path d="M90,219L140,183L194,206Z" fill="rgb(52, 53, 42)" fill-opacity="0.21"/><path d="M69,117L80,93L65,108Z" fill="rgb(66, 47, 29)" fill-opacity="1.00"/><path d="M101,113L106,105L125,114Z" fill="rgb(225, 231, 213)" fill-opacity="0.40"/><path d="M87,33L81,40L103,45Z" fill="rgb(213, 233, 255)" fill-opacity="0.45"/><path d="M93,41L78,43L89,33Z" fill="rgb(211, 226, 240)" fill-opacity="0.48"/><path d="M81,101L123,99L81,90Z" fill="rgb(243, 235, 215)" fill-opacity="0.32"/><path d="M87,179L84,172L95,158Z" fill="rgb(148, 147, 136)" fill-opacity="0.30"/><path d="M59,61L67,69L65,74Z" fill="rgb(230, 241, 254)" fill-opacity="0.47"/><path d="M134,221L144,107L123,125Z" fill="rgb(2, 1, 0)" fill-opacity="0.45"/><path d="M90,82L73,93L93,86Z" fill="rgb(33, 38, 28)" fill-opacity="0.29"/><path d="M111,48L110,34L116,40Z" fill="rgb(212, 237, 251)" fill-opacity="0.44"/><path d="M100,90L79,62L79,77Z" fill="rgb(201, 194, 175)" fill-opacity="0.54"/><path d="M114,142L131,133L97,136Z" fill="rgb(109, 68, 32)" fill-opacity="0.48"/><path d="M129,59L130,34L139,70Z" fill="rgb(122, 133, 130)" fill-opacity="0.40"/><path d="M92,142L81,132L108,140Z" fill="rgb(188, 203, 202)" fill-opacity="0.38"/><path d="M84,124L86,122L87,142Z" fill="rgb(197, 230, 253)" fill-opacity="0.42"/><path d="M106,117L119,115L104,121Z" fill="rgb(144, 64, 43)" fill-opacity="0.65"/><path d="M90,126L79,84L117,139Z" fill="rgb(185, 154, 118)" fill-opacity="0.39"/><path d="M81,50L95,91L93,44Z" fill="rgb(234, 255, 255)" fill-opacity="0.19"/><path d="M82,108L76,58L75,102Z" fill="rgb(49, 46, 23)" fill-opacity="0.34"/><path d="M67,107L75,96L66,91Z" fill="rgb(185, 202, 213)" fill-opacity="0.50"/><path d="M73,106L83,117L73,113Z" fill="rgb(255, 177, 131)" fill-opacity="0.38"/><path d="M129,136L120,99L119,107Z" fill="rgb(81, 47, 22)" fill-opacity="0.49"/><path d="M132,106L148,73L128,63Z" fill="rgb(28, 17, 9)" fill-opacity="0.62"/><path d="M96,203L186,189L172,217Z" fill="rgb(27, 23, 18)" fill-opacity="0.38"/><path d="M103,33L104,51L114,53Z" fill="rgb(36, 28, 2)" fill-opacity="0.26"/><path d="M169,151L137,97L183,115Z" fill="rgb(70, 23, 4)" fill-opacity="0.59"/><path d="M63,51L70,76L75,68Z" fill="rgb(115, 117, 102)" fill-opacity="0.52"/><path d="M114,98L116,68L109,71Z" fill="rgb(226, 214, 191)" fill-opacity="1.00"/><path d="M95,42L70,53L85,42Z" fill="rgb(27, 11, 0)" fill-opacity="0.45"/><path d="M165,141L97,141L56,151Z" fill="rgb(5, 2, 2)" fill-opacity="1.00"/><path d="M77,117L84,120L84,143Z" fill="rgb(8, 4, 4)" fill-opacity="0.85"/><path d="M97,39L91,33L112,41Z" fill="rgb(51, 30, 3)" fill-opacity="0.48"/><path d="M104,35L95,26L96,35Z" fill="rgb(147, 137, 115)" fill-opacity="0.46"/><path d="M91,98L119,91L98,106Z" fill="rgb(241, 227, 205)" fill-opacity="0.37"/><path d="M92,130L94,124L102,139Z" fill="rgb(107, 77, 38)" fill-opacity="0.53"/><path d="M116,87L116,80L123,76Z" fill="rgb(68, 26, 2)" fill-opacity="0.63"/><path d="M190,87L208,73L121,42Z" fill="rgb(17, 4, 0)" fill-opacity="0.32"/><path d="M39,210L12,-9L-95,220Z" fill="rgb(24, 8, 3)" fill-opacity="0.52"/><path d="M125,112L115,88L133,90Z" fill="rgb(175, 143, 114)" fill-opacity="0.41"/><path d="M115,27L124,35L91,36Z" fill="rgb(129, 129, 108)" fill-opacity="0.37"/><path d="M87,32L71,43L80,40Z" fill="rgb(122, 119, 107)" fill-opacity="0.60"/><path d="M111,82L92,50L126,69Z" fill="rgb(226, 206, 186)" fill-opacity="0.39"/><path d="M192,-14L165,58L250,87Z" fill="rgb(24, 7, 1)" fill-opacity="0.84"/><path d="M116,92L121,80L127,113Z" fill="rgb(176, 149, 125)" fill-opacity="1.00"/><path d="M131,45L131,60L139,55Z" fill="rgb(131, 126, 119)" fill-opacity="0.42"/><path d="M106,92L99,98L105,84Z" fill="rgb(181, 153, 128)" fill-opacity="0.81"/><path d="M141,108L184,172L88,207Z" fill="rgb(4, 1, 1)" fill-opacity="0.81"/><path d="M125,116L115,114L106,118Z" fill="rgb(141, 23, 5)" fill-opacity="0.41"/><path d="M58,74L20,61L82,-27Z" fill="rgb(38, 10, 2)" fill-opacity="0.51"/><path d="M83,44L90,41L103,50Z" fill="rgb(18, 15, 2)" fill-opacity="0.21"/><path d="M120,126L118,135L103,136Z" fill="rgb(197, 153, 130)" fill-opacity="0.53"/><path d="M86,63L98,59L95,79Z" fill="rgb(255, 254, 237)" fill-opacity="0.63"/><path d="M83,100L89,132L82,114Z" fill="rgb(63, 37, 3)" fill-opacity="0.33"/><path d="M80,82L97,121L91,95Z" fill="rgb(211, 190, 167)" fill-opacity="0.64"/><path d="M156,114L161,76L127,108Z" fill="rgb(62, 19, 3)" fill-opacity="0.69"/><path d="M130,159L101,163L63,173Z" fill="rgb(4, 4, 3)" fill-opacity="0.53"/><path d="M124,118L109,118L106,124Z" fill="rgb(255, 246, 241)" fill-opacity="0.32"/><path d="M138,109L131,111L150,166Z" fill="rgb(6, 2, 2)" fill-opacity="0.79"/><path d="M105,77L98,79L86,94Z" fill="rgb(114, 101, 84)" fill-opacity="0.60"/><path d="M103,103L112,98L99,112Z" fill="rgb(205, 147, 99)" fill-opacity="0.50"/></svg>