<svg xmlns="http://www.w3.org/2000/svg" viewBox="0 0 170 227" clip-path="url(#clip)"><defs><clipPath id="clip" clipPathUnits="objectBoundingBox"><rect x="0" y="0" width="170" height="227"/></clipPath></defs><rect x="0" y="0" width="170" height="227" fill="rgb(33, 26, 18)"/><path d="M50,170L157,111L36,-240Z" fill="rgb(179, 132, 77)" fill-opacity="0.86"/><path d="M104,185L76,219L80,186Z" fill="rgb(237, 231, 194)" fill-opacity="0.73"/><path d="M78,96L46,45L117,14Z" fill="rgb(239, 203, 143)" fill-opacity="0.78"/><path d="M31,39L20,-27L130,0Z" fill="rgb(40, 36, 25)" fill-opacity="0.91"/><path d="M74,12L19,86L38,-183Z" fill="rgb(41, 35, 23)" fill-opacity="0.82"/><path d="M62,186L100,183L69,226Z" fill="rgb(255, 200, 120)" fill-opacity="0.32"/><path d="M-77,311L54,137L64,227Z" fill="rgb(14, 14, 12)" fill-opacity="0.94"/><path d="M72,158L57,162L54,143Z" fill="rgb(237, 249, 227)" fill-opacity="0.65"/><path d="M99,87L191,-87L169,177Z" fill="rgb(94, 51, 14)" fill-opacity="0.56"/><path d="M87,7L112,75L39,75Z" fill="rgb(255, 222, 159)" fill-opacity="0.40"/><path d="M60,8L160,21L258,-17Z" fill="rgb(47, 43, 31)" fill-opacity="0.90"/><path d="M42,87L83,98L43,136Z" fill="rgb(246, 180, 105)" fill-opacity="0.44"/><path d="M139,145L40,104L79,164Z" fill="rgb(231, 150, 73)" fill-opacity="0.40"/><path d="M83,73L93,118L77,123Z" fill="rgb(133, 52, 5)" fill-opacity="0.59"/><path d="M67,184L73,202L89,184Z" fill="rgb(125, 90, 42)" fill-opacity="0.82"/><path d="M185,171L87,160L155,303Z" fill="rgb(7, 7, 7)" fill-opacity="0.86"/><path d="M108,72L117,16L88,13Z" fill="rgb(198, 156, 96)" fill-opacity="0.82"/><path d="M340,144L155,166L143,126Z" fill="rgb(250, 76, 9)" fill-opacity="0.29"/><path d="M72,77L53,91L76,89Z" fill="rgb(141, 80, 35)" fill-opacity="0.86"/><path d="M79,215L102,188L82,189Z" fill="rgb(225, 247, 239)" fill-opacity="0.39"/><path d="M100,71L111,171L137,135Z" fill="rgb(151, 86, 27)" fill-opacity="0.51"/><path d="M150,62L130,15L106,81Z" fill="rgb(132, 86, 32)" fill-opacity="0.82"/><path d="M120,95L99,130L87,98Z" fill="rgb(222, 160, 90)" fill-opacity="0.53"/><path d="M72,114L44,134L108,159Z" fill="rgb(204, 162, 106)" fill-opacity="0.38"/><path d="M238,142L139,-92L151,120Z" fill="rgb(33, 33, 24)" fill-opacity="0.73"/><path d="M118,42L64,26L44,89Z" fill="rgb(234, 197, 141)" fill-opacity="0.43"/><path d="M58,164L68,159L55,147Z" fill="rgb(231, 234, 212)" fill-opacity="0.76"/><path d="M100,184L11,170L90,160Z" fill="rgb(13, 12, 11)" fill-opacity="0.94"/><path d="M109,94L79,86L99,71Z" fill="rgb(105, 36, 3)" fill-opacity="0.40"/><path d="M71,19L80,79L104,73Z" fill="rgb(233, 202, 146)" fill-opacity="0.50"/><path d="M163,103L146,109L110,200Z" fill="rgb(13, 12, 10)" fill-opacity="0.52"/><path d="M92,127L67,115L61,127Z" fill="rgb(215, 210, 158)" fill-opacity="0.33"/><path d="M12,198L56,145L27,103Z" fill="rgb(34, 27, 19)" fill-opacity="0.79"/><path d="M142,33L116,62L106,9Z" fill="rgb(152, 113, 53)" fill-opacity="0.41"/><path d="M55,105L49,38L45,108Z" fill="rgb(197, 158, 93)" fill-opacity="0.58"/><path d="M154,107L82,79L148,63Z" fill="rgb(128, 67, 16)" fill-opacity="0.54"/><path d="M75,115L51,105L82,87Z" fill="rgb(211, 151, 93)" fill-opacity="0.80"/><path d="M120,41L49,42L78,17Z" fill="rgb(213, 172, 113)" fill-opacity="0.56"/><path d="M96,125L72,128L116,166Z" fill="rgb(164, 97, 39)" fill-opacity="0.40"/><path d="M57,84L79,82L52,72Z" fill="rgb(173, 102, 38)" fill-opacity="0.48"/><path d="M82,161L138,116L127,155Z" fill="rgb(111, 65, 23)" fill-opacity="0.74"/><path d="M84,11L112,10L77,17Z" fill="rgb(81, 65, 33)" fill-opacity="1.00"/><path d="M149,150L83,176L189,229Z" fill="rgb(10, 9, 8)" fill-opacity="0.89"/><path d="M76,172L41,156L57,203Z" fill="rgb(12, 11, 10)" fill-opacity="0.94"/><path d="M85,124L94,114L67,113Z" fill="rgb(103, 37, 0)" fill-opacity="0.46"/><path d="M42,135L48,29L33,72Z" fill="rgb(58, 47, 24)" fill-opacity="0.75"/><path d="M94,90L99,84L98,93Z" fill="rgb(45, 41, 20)" fill-opacity="0.57"/><path d="M174,-58L95,-20L152,49Z" fill="rgb(46, 43, 31)" fill-opacity="0.77"/><path d="M142,132L197,298L118,165Z" fill="rgb(10, 10, 8)" fill-opacity="0.90"/><path d="M122,15L99,12L139,32Z" fill="rgb(122, 102, 55)" fill-opacity="0.76"/><path d="M171,285L110,184L60,234Z" fill="rgb(13, 13, 11)" fill-opacity="0.88"/><path d="M71,22L52,79L44,58Z" fill="rgb(217, 181, 114)" fill-opacity="0.44"/><path d="M96,157L111,147L111,123Z" fill="rgb(141, 76, 24)" fill-opacity="0.90"/><path d="M87,91L105,148L105,104Z" fill="rgb(206, 154, 91)" fill-opacity="0.46"/><path d="M88,154L51,140L89,129Z" fill="rgb(199, 152, 96)" fill-opacity="0.55"/><path d="M117,92L111,114L108,85Z" fill="rgb(214, 199, 126)" fill-opacity="0.18"/><path d="M71,159L74,151L93,161Z" fill="rgb(130, 68, 27)" fill-opacity="0.75"/><path d="M60,94L59,86L67,87Z" fill="rgb(2, 9, 7)" fill-opacity="0.44"/><path d="M83,80L95,77L86,94Z" fill="rgb(127, 60, 18)" fill-opacity="0.87"/><path d="M78,156L47,135L42,94Z" fill="rgb(170, 136, 74)" fill-opacity="0.43"/><path d="M89,87L96,82L104,85Z" fill="rgb(203, 139, 86)" fill-opacity="0.53"/><path d="M152,159L184,120L142,131Z" fill="rgb(139, 57, 16)" fill-opacity="0.44"/><path d="M55,75L66,46L106,54Z" fill="rgb(242, 219, 167)" fill-opacity="0.38"/><path d="M138,127L156,95L134,109Z" fill="rgb(115, 49, 8)" fill-opacity="0.51"/><path d="M100,48L54,37L103,12Z" fill="rgb(225, 181, 125)" fill-opacity="0.37"/><path d="M98,131L62,136L70,130Z" fill="rgb(221, 156, 107)" fill-opacity="0.67"/><path d="M104,134L120,90L153,90Z" fill="rgb(151, 76, 20)" fill-opacity="0.49"/><path d="M109,70L89,76L111,77Z" fill="rgb(166, 144, 88)" fill-opacity="0.42"/><path d="M111,70L127,31L95,67Z" fill="rgb(186, 136, 61)" fill-opacity="0.38"/><path d="M62,193L70,225L80,215Z" fill="rgb(113, 78, 37)" fill-opacity="0.73"/><path d="M48,130L39,118L44,87Z" fill="rgb(110, 95, 41)" fill-opacity="0.48"/><path d="M110,81L98,101L109,100Z" fill="rgb(151, 81, 35)" fill-opacity="0.48"/><path d="M124,135L110,133L143,88Z" fill="rgb(134, 116, 66)" fill-opacity="0.34"/><path d="M136,133L185,113L181,53Z" fill="rgb(42, 32, 19)" fill-opacity="0.99"/><path d="M89,123L80,122L77,101Z" fill="rgb(116, 46, 13)" fill-opacity="0.43"/><path d="M80,325L57,192L76,240Z" fill="rgb(8, 8, 8)" fill-opacity="0.72"/><path d="M149,91L134,25L146,44Z" fill="rgb(94, 90, 36)" fill-opacity="0.48"/><path d="M105,127L85,125L95,113Z" fill="rgb(184, 138, 78)" fill-opacity="0.80"/><path d="M76,130L87,127L97,130Z" fill="rgb(118, 19, 0)" fill-opacity="0.48"/><path d="M100,65L106,40L88,65Z" fill="rgb(228, 184, 118)" fill-opacity="0.54"/><path d="M81,154L51,141L107,144Z" fill="rgb(194, 145, 90)" fill-opacity="0.50"/><path d="M78,212L99,183L90,185Z" fill="rgb(211, 215, 191)" fill-opacity="0.50"/><path d="M54,76L74,78L72,91Z" fill="rgb(165, 98, 43)" fill-opacity="0.79"/><path d="M107,-1L32,37L40,45Z" fill="rgb(58, 46, 25)" fill-opacity="0.44"/><path d="M125,19L88,5L198,-31Z" fill="rgb(52, 47, 34)" fill-opacity="0.60"/><path d="M119,25L114,56L103,39Z" fill="rgb(188, 147, 85)" fill-opacity="0.50"/><path d="M49,87L68,85L45,75Z" fill="rgb(204, 136, 82)" fill-opacity="0.44"/><path d="M141,97L114,166L127,154Z" fill="rgb(96, 64, 27)" fill-opacity="0.89"/><path d="M46,137L55,136L55,147Z" fill="rgb(76, 40, 7)" fill-opacity="0.48"/><path d="M60,75L75,79L54,63Z" fill="rgb(239, 206, 142)" fill-opacity="0.41"/><path d="M67,160L29,181L116,163Z" fill="rgb(14, 13, 11)" fill-opacity="1.00"/><path d="M94,86L94,92L104,87Z" fill="rgb(46, 29, 14)" fill-opacity="0.47"/><path d="M134,77L131,36L103,89Z" fill="rgb(126, 51, 15)" fill-opacity="0.29"/><path d="M151,85L138,88L149,48Z" fill="rgb(66, 59, 23)" fill-opacity="0.38"/><path d="M108,155L79,160L120,134Z" fill="rgb(133, 66, 18)" fill-opacity="0.61"/><path d="M20,108L47,89L40,7Z" fill="rgb(44, 35, 21)" fill-opacity="0.50"/><path d="M44,58L60,28L48,43Z" fill="rgb(106, 85, 28)" fill-opacity="0.50"/><path d="M73,102L51,143L65,112Z" fill="rgb(172, 99, 43)" fill-opacity="0.66"/><path d="M81,87L78,104L92,102Z" fill="rgb(166, 102, 41)" fill-opacity="0.63"/><path d="M52,42L38,-28L-44,99Z" fill="rgb(37, 34, 24)" fill-opacity="0.38"/></svg>