<svg xmlns="http://www.w3.org/2000/svg" viewBox="0 0 256 250.02666666666667" clip-path="url(#clip)"><defs><clipPath id="clip" clipPathUnits="objectBoundingBox"><rect x="0" y="0" width="256" height="250.02666666666667"/></clipPath></defs><rect x="0" y="0" width="256" height="250.02666666666667" fill="rgb(20, 11, 5)"/><path d="M100,178L215,99L80,-190Z" fill="rgb(171, 121, 91)" fill-opacity="0.95"/><path d="M179,149L112,17L126,208Z" fill="rgb(221, 154, 120)" fill-opacity="0.62"/><path d="M60,212L172,6L-163,182Z" fill="rgb(255, 170, 90)" fill-opacity="0.25"/><path d="M34,38L-83,0L191,-2Z" fill="rgb(10, 7, 5)" fill-opacity="0.85"/><path d="M103,132L105,113L128,110Z" fill="rgb(94, 41, 25)" fill-opacity="0.88"/><path d="M187,30L350,266L181,166Z" fill="rgb(87, 57, 27)" fill-opacity="0.66"/><path d="M179,151L128,197L157,152Z" fill="rgb(239, 237, 214)" fill-opacity="0.54"/><path d="M192,71L185,13L79,69Z" fill="rgb(255, 235, 193)" fill-opacity="0.35"/><path d="M96,148L112,256L137,164Z" fill="rgb(62, 41, 28)" fill-opacity="0.96"/><path d="M331,2L220,38L143,-1Z" fill="rgb(7, 5, 4)" fill-opacity="0.66"/><path d="M125,160L106,159L118,118Z" fill="rgb(251, 135, 105)" fill-opacity="0.42"/><path d="M122,3L92,-98L89,42Z" fill="rgb(10, 7, 3)" fill-opacity="0.60"/><path d="M191,40L199,92L133,88Z" fill="rgb(147, 112, 83)" fill-opacity="0.61"/><path d="M95,93L-140,23L125,77Z" fill="rgb(56, 27, 11)" fill-opacity="0.58"/><path d="M78,110L79,70L57,109Z" fill="rgb(178, 125, 69)" fill-opacity="0.33"/><path d="M157,152L211,121L187,110Z" fill="rgb(34, 12, 6)" fill-opacity="0.57"/><path d="M83,44L92,81L103,23Z" fill="rgb(160, 112, 79)" fill-opacity="0.61"/><path d="M146,91L157,73L124,72Z" fill="rgb(81, 29, 10)" fill-opacity="0.55"/><path d="M158,150L140,171L83,173Z" fill="rgb(46, 10, 0)" fill-opacity="0.67"/><path d="M170,9L113,8L175,101Z" fill="rgb(209, 176, 142)" fill-opacity="0.43"/><path d="M158,153L97,215L123,235Z" fill="rgb(169, 173, 146)" fill-opacity="0.25"/><path d="M147,470L92,180L-7,241Z" fill="rgb(1, 1, 1)" fill-opacity="0.95"/><path d="M120,42L124,85L90,53Z" fill="rgb(255, 185, 144)" fill-opacity="0.55"/><path d="M84,94L115,97L97,130Z" fill="rgb(182, 100, 75)" fill-opacity="0.75"/><path d="M134,4L181,12L201,47Z" fill="rgb(109, 114, 90)" fill-opacity="0.33"/><path d="M69,204L102,138L120,206Z" fill="rgb(3, 0, 0)" fill-opacity="0.47"/><path d="M169,141L233,132L236,199Z" fill="rgb(166, 108, 48)" fill-opacity="0.21"/><path d="M96,53L142,73L169,49Z" fill="rgb(255, 191, 148)" fill-opacity="0.73"/><path d="M-421,459L31,217L34,61Z" fill="rgb(65, 36, 11)" fill-opacity="0.77"/><path d="M179,139L162,169L127,182Z" fill="rgb(227, 211, 188)" fill-opacity="0.52"/><path d="M173,145L111,188L191,68Z" fill="rgb(112, 46, 18)" fill-opacity="0.32"/><path d="M126,84L168,93L135,123Z" fill="rgb(246, 158, 123)" fill-opacity="0.50"/><path d="M423,833L190,155L142,185Z" fill="rgb(0, 0, 1)" fill-opacity="0.78"/><path d="M385,122L189,56L239,143Z" fill="rgb(41, 18, 7)" fill-opacity="0.60"/><path d="M129,127L112,121L142,112Z" fill="rgb(254, 179, 138)" fill-opacity="0.53"/><path d="M90,67L68,31L-159,199Z" fill="rgb(46, 25, 8)" fill-opacity="0.56"/><path d="M177,38L114,47L113,15Z" fill="rgb(178, 148, 117)" fill-opacity="0.82"/><path d="M219,-95L122,11L41,54Z" fill="rgb(16, 8, 6)" fill-opacity="0.79"/><path d="M166,142L176,127L124,128Z" fill="rgb(165, 98, 69)" fill-opacity="0.72"/><path d="M97,150L30,219L52,102Z" fill="rgb(163, 84, 27)" fill-opacity="0.25"/><path d="M90,135L84,86L74,120Z" fill="rgb(21, 0, 0)" fill-opacity="0.61"/><path d="M187,136L171,157L191,164Z" fill="rgb(59, 64, 62)" fill-opacity="0.60"/><path d="M105,146L106,108L117,115Z" fill="rgb(90, 38, 22)" fill-opacity="0.63"/><path d="M181,22L197,48L187,92Z" fill="rgb(122, 118, 98)" fill-opacity="0.38"/><path d="M107,119L107,103L119,72Z" fill="rgb(77, 28, 8)" fill-opacity="0.49"/><path d="M108,194L147,164L103,160Z" fill="rgb(50, 25, 10)" fill-opacity="0.68"/><path d="M125,75L126,83L159,68Z" fill="rgb(106, 44, 16)" fill-opacity="0.39"/><path d="M129,11L121,38L177,20Z" fill="rgb(196, 188, 169)" fill-opacity="0.38"/><path d="M124,163L110,160L171,145Z" fill="rgb(134, 66, 40)" fill-opacity="0.50"/><path d="M110,86L104,119L85,105Z" fill="rgb(255, 159, 134)" fill-opacity="0.29"/><path d="M124,6L153,7L78,44Z" fill="rgb(98, 102, 81)" fill-opacity="0.30"/><path d="M131,213L143,189L121,179Z" fill="rgb(120, 101, 82)" fill-opacity="0.58"/><path d="M89,135L78,194L9,178Z" fill="rgb(110, 65, 29)" fill-opacity="0.47"/><path d="M144,161L160,32L176,78Z" fill="rgb(236, 127, 81)" fill-opacity="0.28"/><path d="M170,160L152,177L132,182Z" fill="rgb(194, 177, 155)" fill-opacity="0.78"/><path d="M85,72L134,74L104,37Z" fill="rgb(255, 177, 135)" fill-opacity="0.32"/><path d="M183,82L175,111L196,99Z" fill="rgb(57, 46, 34)" fill-opacity="0.33"/><path d="M148,3L272,-14L199,32Z" fill="rgb(19, 13, 7)" fill-opacity="0.24"/><path d="M68,114L79,101L67,94Z" fill="rgb(148, 111, 71)" fill-opacity="0.45"/><path d="M90,31L106,27L73,60Z" fill="rgb(71, 52, 32)" fill-opacity="0.42"/><path d="M200,140L177,134L192,107Z" fill="rgb(4, 0, 2)" fill-opacity="0.57"/><path d="M132,111L105,114L131,115Z" fill="rgb(91, 26, 18)" fill-opacity="0.64"/><path d="M166,54L106,45L143,35Z" fill="rgb(255, 108, 24)" fill-opacity="0.13"/><path d="M149,144L142,102L122,76Z" fill="rgb(248, 174, 143)" fill-opacity="0.34"/><path d="M104,89L72,79L108,83Z" fill="rgb(61, 29, 16)" fill-opacity="0.76"/><path d="M85,94L100,128L98,156Z" fill="rgb(121, 60, 41)" fill-opacity="0.54"/><path d="M29,219L13,131L82,60Z" fill="rgb(91, 54, 20)" fill-opacity="0.54"/><path d="M146,81L134,85L154,87Z" fill="rgb(25, 3, 8)" fill-opacity="0.39"/><path d="M140,144L138,132L108,133Z" fill="rgb(254, 167, 136)" fill-opacity="0.52"/><path d="M98,89L114,87L105,102Z" fill="rgb(224, 164, 135)" fill-opacity="0.40"/><path d="M356,260L98,249L177,172Z" fill="rgb(0, 0, 1)" fill-opacity="0.69"/><path d="M127,114L102,127L131,127Z" fill="rgb(255, 203, 161)" fill-opacity="0.22"/><path d="M127,196L131,174L145,185Z" fill="rgb(164, 144, 112)" fill-opacity="0.46"/><path d="M118,111L129,47L111,114Z" fill="rgb(245, 170, 138)" fill-opacity="0.58"/><path d="M74,127L90,129L114,166Z" fill="rgb(75, 30, 13)" fill-opacity="0.62"/><path d="M153,39L130,24L145,44Z" fill="rgb(159, 128, 92)" fill-opacity="0.54"/><path d="M98,81L111,83L101,78Z" fill="rgb(200, 144, 119)" fill-opacity="0.67"/><path d="M88,84L109,75L83,76Z" fill="rgb(81, 35, 18)" fill-opacity="0.98"/><path d="M129,155L139,133L108,156Z" fill="rgb(255, 163, 131)" fill-opacity="0.42"/><path d="M200,79L188,68L195,41Z" fill="rgb(68, 59, 40)" fill-opacity="0.44"/><path d="M166,61L207,110L202,81Z" fill="rgb(137, 127, 102)" fill-opacity="0.32"/><path d="M134,88L137,98L177,89Z" fill="rgb(196, 131, 98)" fill-opacity="0.94"/><path d="M107,159L99,140L117,126Z" fill="rgb(163, 79, 57)" fill-opacity="0.47"/><path d="M193,21L454,46L199,70Z" fill="rgb(2, 0, 0)" fill-opacity="0.44"/><path d="M175,90L151,109L167,135Z" fill="rgb(147, 66, 47)" fill-opacity="0.30"/><path d="M171,43L162,75L125,47Z" fill="rgb(241, 176, 130)" fill-opacity="0.45"/><path d="M184,118L176,109L186,109Z" fill="rgb(209, 138, 108)" fill-opacity="0.51"/><path d="M208,71L225,195L196,179Z" fill="rgb(101, 67, 28)" fill-opacity="0.35"/><path d="M138,128L145,132L74,129Z" fill="rgb(89, 18, 4)" fill-opacity="0.31"/><path d="M12,225L63,199L-6,200Z" fill="rgb(65, 38, 14)" fill-opacity="0.62"/><path d="M169,117L168,105L178,102Z" fill="rgb(114, 61, 36)" fill-opacity="0.56"/><path d="M118,14L110,32L144,9Z" fill="rgb(175, 168, 147)" fill-opacity="0.28"/><path d="M164,70L85,73L156,84Z" fill="rgb(138, 76, 45)" fill-opacity="0.27"/><path d="M127,216L96,221L132,194Z" fill="rgb(82, 68, 54)" fill-opacity="0.68"/><path d="M138,172L173,144L175,153Z" fill="rgb(228, 205, 180)" fill-opacity="0.51"/><path d="M124,73L160,66L104,45Z" fill="rgb(255, 204, 162)" fill-opacity="0.43"/><path d="M43,232L110,202L99,163Z" fill="rgb(1, 1, 1)" fill-opacity="0.82"/><path d="M188,141L182,148L184,133Z" fill="rgb(133, 130, 127)" fill-opacity="0.48"/><path d="M161,93L129,102L139,114Z" fill="rgb(255, 175, 143)" fill-opacity="0.38"/><path d="M130,221L119,260L94,243Z" fill="rgb(33, 22, 12)" fill-opacity="0.64"/></svg>