<svg xmlns="http://www.w3.org/2000/svg" viewBox="0 0 215 203" clip-path="url(#clip)"><defs><clipPath id="clip" clipPathUnits="objectBoundingBox"><rect x="0" y="0" width="215" height="203"/></clipPath></defs><rect x="0" y="0" width="215" height="203" fill="rgb(63, 71, 73)"/><path d="M-88,26L140,31L110,221Z" fill="rgb(132, 120, 104)" fill-opacity="0.90"/><path d="M83,225L85,170L116,175Z" fill="rgb(230, 228, 226)" fill-opacity="0.87"/><path d="M-33,473L25,163L101,137Z" fill="rgb(46, 40, 36)" fill-opacity="0.84"/><path d="M76,42L120,27L98,151Z" fill="rgb(219, 171, 124)" fill-opacity="0.71"/><path d="M143,136L397,271L66,159Z" fill="rgb(38, 28, 24)" fill-opacity="0.60"/><path d="M104,150L143,130L56,69Z" fill="rgb(179, 141, 102)" fill-opacity="1.00"/><path d="M102,89L54,68L88,69Z" fill="rgb(82, 45, 10)" fill-opacity="0.64"/><path d="M14,194L98,-5L-167,-109Z" fill="rgb(91, 109, 115)" fill-opacity="0.77"/><path d="M132,36L103,64L82,39Z" fill="rgb(252, 222, 190)" fill-opacity="0.47"/><path d="M149,148L166,55L108,79Z" fill="rgb(65, 46, 35)" fill-opacity="0.75"/><path d="M112,164L122,162L113,180Z" fill="rgb(196, 192, 189)" fill-opacity="1.00"/><path d="M119,144L141,126L116,132Z" fill="rgb(217, 228, 237)" fill-opacity="0.58"/><path d="M153,147L202,135L175,6Z" fill="rgb(117, 134, 135)" fill-opacity="0.43"/><path d="M127,101L34,78L138,126Z" fill="rgb(242, 173, 107)" fill-opacity="0.31"/><path d="M136,65L153,62L136,50Z" fill="rgb(155, 125, 105)" fill-opacity="0.68"/><path d="M50,38L67,148L4,172Z" fill="rgb(110, 126, 126)" fill-opacity="0.77"/><path d="M89,-22L194,35L211,106Z" fill="rgb(78, 92, 97)" fill-opacity="0.89"/><path d="M120,146L83,149L53,85Z" fill="rgb(155, 97, 40)" fill-opacity="0.61"/><path d="M89,218L199,206L126,159Z" fill="rgb(52, 48, 45)" fill-opacity="0.94"/><path d="M91,35L65,49L71,80Z" fill="rgb(205, 140, 74)" fill-opacity="0.53"/><path d="M79,95L66,103L60,96Z" fill="rgb(80, 41, 2)" fill-opacity="0.62"/><path d="M67,49L72,30L108,20Z" fill="rgb(85, 65, 52)" fill-opacity="0.80"/><path d="M122,142L84,153L108,178Z" fill="rgb(30, 32, 33)" fill-opacity="0.43"/><path d="M132,106L110,100L112,55Z" fill="rgb(66, 33, 8)" fill-opacity="0.34"/><path d="M61,-19L60,21L155,24Z" fill="rgb(87, 101, 108)" fill-opacity="0.97"/><path d="M162,111L143,112L129,153Z" fill="rgb(49, 42, 37)" fill-opacity="0.98"/><path d="M42,174L75,139L106,167Z" fill="rgb(47, 43, 41)" fill-opacity="0.95"/><path d="M0,0L43,-1L-4,112Z" fill="rgb(16, 39, 55)" fill-opacity="0.20"/><path d="M184,108L146,130L155,143Z" fill="rgb(100, 111, 111)" fill-opacity="0.95"/><path d="M75,134L63,104L62,130Z" fill="rgb(140, 74, 13)" fill-opacity="0.54"/><path d="M107,23L166,70L143,27Z" fill="rgb(63, 21, 1)" fill-opacity="0.34"/><path d="M83,201L102,169L83,171Z" fill="rgb(219, 217, 211)" fill-opacity="0.51"/><path d="M144,40L125,44L133,56Z" fill="rgb(96, 75, 60)" fill-opacity="0.74"/><path d="M109,33L141,34L105,26Z" fill="rgb(124, 105, 94)" fill-opacity="0.84"/><path d="M163,90L140,86L116,57Z" fill="rgb(66, 52, 44)" fill-opacity="0.70"/><path d="M114,92L58,95L64,81Z" fill="rgb(209, 169, 128)" fill-opacity="0.69"/><path d="M65,127L75,89L113,132Z" fill="rgb(176, 124, 72)" fill-opacity="0.65"/><path d="M161,114L164,65L128,128Z" fill="rgb(58, 43, 33)" fill-opacity="0.60"/><path d="M111,78L98,107L99,66Z" fill="rgb(239, 207, 176)" fill-opacity="0.37"/><path d="M75,81L102,79L73,67Z" fill="rgb(74, 41, 9)" fill-opacity="0.44"/><path d="M112,149L119,131L111,139Z" fill="rgb(108, 74, 40)" fill-opacity="0.81"/><path d="M95,33L100,56L123,36Z" fill="rgb(239, 215, 189)" fill-opacity="0.43"/><path d="M92,148L92,131L66,130Z" fill="rgb(74, 35, 1)" fill-opacity="0.45"/><path d="M121,112L133,124L132,104Z" fill="rgb(131, 88, 44)" fill-opacity="0.92"/><path d="M22,174L68,146L-9,238Z" fill="rgb(44, 41, 38)" fill-opacity="0.76"/><path d="M130,38L96,37L143,43Z" fill="rgb(206, 169, 129)" fill-opacity="0.69"/><path d="M133,136L115,144L118,133Z" fill="rgb(219, 216, 213)" fill-opacity="0.71"/><path d="M84,31L67,51L63,75Z" fill="rgb(161, 113, 64)" fill-opacity="0.59"/><path d="M103,88L98,77L74,83Z" fill="rgb(159, 103, 46)" fill-opacity="0.47"/><path d="M177,47L145,20L186,113Z" fill="rgb(89, 104, 107)" fill-opacity="0.87"/><path d="M42,228L84,205L80,144Z" fill="rgb(52, 48, 45)" fill-opacity="0.94"/><path d="M89,143L133,113L104,148Z" fill="rgb(207, 157, 102)" fill-opacity="0.33"/><path d="M100,201L122,163L89,191Z" fill="rgb(255, 255, 255)" fill-opacity="0.34"/><path d="M62,65L72,73L65,80Z" fill="rgb(64, 42, 22)" fill-opacity="0.60"/><path d="M105,67L138,95L132,69Z" fill="rgb(102, 84, 73)" fill-opacity="0.59"/><path d="M63,10L116,14L32,46Z" fill="rgb(96, 111, 118)" fill-opacity="0.71"/><path d="M193,164L229,117L211,243Z" fill="rgb(29, 30, 30)" fill-opacity="0.28"/><path d="M110,-39L215,90L210,36Z" fill="rgb(65, 79, 86)" fill-opacity="0.67"/><path d="M71,57L111,74L64,66Z" fill="rgb(224, 173, 121)" fill-opacity="0.41"/><path d="M133,111L138,124L120,107Z" fill="rgb(100, 62, 23)" fill-opacity="0.57"/><path d="M97,21L78,44L102,30Z" fill="rgb(122, 94, 76)" fill-opacity="0.48"/><path d="M148,24L157,44L136,23Z" fill="rgb(99, 114, 118)" fill-opacity="0.59"/><path d="M143,28L166,65L129,37Z" fill="rgb(29, 9, 0)" fill-opacity="0.21"/><path d="M-13,110L46,144L16,178Z" fill="rgb(104, 118, 118)" fill-opacity="0.48"/><path d="M81,153L89,164L80,161Z" fill="rgb(94, 90, 85)" fill-opacity="0.43"/><path d="M110,30L127,35L103,25Z" fill="rgb(168, 150, 139)" fill-opacity="0.46"/><path d="M155,141L177,154L199,138Z" fill="rgb(91, 104, 103)" fill-opacity="0.49"/><path d="M170,70L154,141L183,102Z" fill="rgb(106, 119, 117)" fill-opacity="0.53"/><path d="M72,128L68,119L81,126Z" fill="rgb(211, 165, 123)" fill-opacity="0.49"/><path d="M102,84L122,115L88,95Z" fill="rgb(220, 180, 142)" fill-opacity="0.45"/><path d="M95,33L85,67L109,88Z" fill="rgb(219, 187, 152)" fill-opacity="0.39"/><path d="M78,109L59,106L81,114Z" fill="rgb(84, 32, 2)" fill-opacity="0.49"/><path d="M109,178L71,167L101,170Z" fill="rgb(182, 175, 166)" fill-opacity="0.38"/><path d="M97,56L70,45L116,31Z" fill="rgb(232, 213, 191)" fill-opacity="0.18"/><path d="M114,85L111,107L108,85Z" fill="rgb(198, 115, 27)" fill-opacity="0.33"/><path d="M126,141L138,124L119,133Z" fill="rgb(218, 215, 210)" fill-opacity="0.62"/><path d="M132,136L152,191L159,143Z" fill="rgb(56, 53, 50)" fill-opacity="0.98"/><path d="M141,94L148,94L142,83Z" fill="rgb(105, 88, 78)" fill-opacity="0.54"/><path d="M41,161L78,138L13,102Z" fill="rgb(114, 128, 128)" fill-opacity="0.67"/><path d="M32,61L71,20L56,100Z" fill="rgb(105, 119, 121)" fill-opacity="1.00"/><path d="M89,112L78,92L134,108Z" fill="rgb(197, 154, 112)" fill-opacity="0.57"/><path d="M112,146L134,135L139,122Z" fill="rgb(206, 208, 206)" fill-opacity="0.54"/><path d="M112,186L139,137L86,255Z" fill="rgb(77, 73, 70)" fill-opacity="0.69"/><path d="M128,72L117,58L105,65Z" fill="rgb(135, 112, 100)" fill-opacity="0.54"/><path d="M128,63L139,77L159,62Z" fill="rgb(91, 73, 61)" fill-opacity="0.52"/><path d="M114,97L153,104L123,88Z" fill="rgb(47, 36, 31)" fill-opacity="0.70"/><path d="M180,157L207,131L206,35Z" fill="rgb(71, 83, 86)" fill-opacity="0.76"/><path d="M77,91L75,93L83,110Z" fill="rgb(106, 61, 8)" fill-opacity="0.37"/><path d="M76,98L64,106L81,107Z" fill="rgb(215, 161, 104)" fill-opacity="0.37"/><path d="M147,227L159,146L195,163Z" fill="rgb(13, 2, 4)" fill-opacity="0.18"/><path d="M58,92L72,73L66,95Z" fill="rgb(218, 179, 141)" fill-opacity="0.52"/><path d="M120,134L131,115L104,117Z" fill="rgb(194, 147, 99)" fill-opacity="0.54"/><path d="M90,143L102,132L79,135Z" fill="rgb(133, 87, 39)" fill-opacity="0.80"/><path d="M99,203L101,170L86,179Z" fill="rgb(231, 230, 228)" fill-opacity="0.66"/><path d="M69,51L150,54L144,66Z" fill="rgb(180, 139, 111)" fill-opacity="0.21"/><path d="M86,166L71,218L74,178Z" fill="rgb(38, 33, 30)" fill-opacity="0.54"/><path d="M30,57L10,145L67,78Z" fill="rgb(105, 120, 120)" fill-opacity="0.66"/><path d="M73,117L61,115L72,120Z" fill="rgb(110, 68, 24)" fill-opacity="0.53"/><path d="M93,171L90,176L88,168Z" fill="rgb(184, 178, 169)" fill-opacity="1.00"/><path d="M163,57L155,67L138,27Z" fill="rgb(48, 39, 32)" fill-opacity="0.57"/></svg>