<svg xmlns="http://www.w3.org/2000/svg" viewBox="0 0 188.21183800623052 256" clip-path="url(#clip)"><defs><clipPath id="clip" clipPathUnits="objectBoundingBox"><rect x="0" y="0" width="188.21183800623052" height="256"/></clipPath></defs><rect x="0" y="0" width="188.21183800623052" height="256" fill="rgb(111, 107, 106)"/><path d="M100,396L65,150L-71,182Z" fill="rgb(1, 1, 1)" fill-opacity="1.00"/><path d="M91,328L133,137L327,193Z" fill="rgb(0, 0, 0)" fill-opacity="0.99"/><path d="M138,-37L137,139L686,267Z" fill="rgb(254, 244, 241)" fill-opacity="0.66"/><path d="M394,54L50,51L75,149Z" fill="rgb(216, 191, 185)" fill-opacity="0.73"/><path d="M100,177L129,152L110,231Z" fill="rgb(245, 248, 244)" fill-opacity="0.78"/><path d="M-100,203L34,-85L47,150Z" fill="rgb(242, 227, 224)" fill-opacity="0.57"/><path d="M29,33L205,1L-21,-59Z" fill="rgb(201, 191, 189)" fill-opacity="0.82"/><path d="M64,55L149,39L46,31Z" fill="rgb(4, 2, 0)" fill-opacity="0.71"/><path d="M67,159L92,201L80,248Z" fill="rgb(236, 242, 239)" fill-opacity="0.71"/><path d="M98,175L113,274L76,273Z" fill="rgb(21, 23, 22)" fill-opacity="0.91"/><path d="M58,140L112,152L84,177Z" fill="rgb(13, 6, 6)" fill-opacity="0.84"/><path d="M137,93L139,33L104,8Z" fill="rgb(5, 9, 10)" fill-opacity="0.59"/><path d="M60,90L63,82L86,82Z" fill="rgb(67, 48, 45)" fill-opacity="0.67"/><path d="M106,156L131,149L108,233Z" fill="rgb(253, 239, 235)" fill-opacity="0.34"/><path d="M103,182L84,193L88,179Z" fill="rgb(0, 3, 2)" fill-opacity="0.71"/><path d="M384,77L108,-26L146,59Z" fill="rgb(209, 201, 199)" fill-opacity="0.88"/><path d="M38,52L48,97L54,54Z" fill="rgb(1, 1, 1)" fill-opacity="0.67"/><path d="M64,146L47,150L45,112Z" fill="rgb(255, 247, 243)" fill-opacity="0.42"/><path d="M128,23L75,40L96,9Z" fill="rgb(91, 84, 83)" fill-opacity="0.78"/><path d="M109,86L93,78L120,83Z" fill="rgb(41, 22, 23)" fill-opacity="0.53"/><path d="M75,125L111,122L73,120Z" fill="rgb(60, 17, 15)" fill-opacity="0.61"/><path d="M28,162L71,136L98,164Z" fill="rgb(3, 0, 0)" fill-opacity="0.46"/><path d="M72,136L39,109L66,51Z" fill="rgb(228, 172, 163)" fill-opacity="0.43"/><path d="M75,40L134,30L140,57Z" fill="rgb(19, 20, 20)" fill-opacity="0.73"/><path d="M71,191L112,247L95,216Z" fill="rgb(210, 221, 216)" fill-opacity="0.48"/><path d="M116,149L77,170L132,127Z" fill="rgb(14, 7, 6)" fill-opacity="0.76"/><path d="M91,110L77,105L102,104Z" fill="rgb(47, 20, 18)" fill-opacity="0.65"/><path d="M53,96L147,82L116,108Z" fill="rgb(215, 187, 183)" fill-opacity="1.00"/><path d="M140,61L133,92L124,33Z" fill="rgb(21, 27, 27)" fill-opacity="0.55"/><path d="M90,179L70,166L83,186Z" fill="rgb(237, 236, 235)" fill-opacity="0.66"/><path d="M75,181L13,303L43,150Z" fill="rgb(0, 0, 0)" fill-opacity="0.45"/><path d="M125,86L51,56L127,50Z" fill="rgb(231, 207, 194)" fill-opacity="0.67"/><path d="M55,75L41,94L44,47Z" fill="rgb(3, 0, 0)" fill-opacity="0.44"/><path d="M124,122L123,86L86,118Z" fill="rgb(245, 218, 210)" fill-opacity="0.53"/><path d="M87,249L101,270L74,216Z" fill="rgb(182, 185, 183)" fill-opacity="0.60"/><path d="M104,148L123,114L76,147Z" fill="rgb(237, 196, 193)" fill-opacity="0.57"/><path d="M100,86L105,75L94,77Z" fill="rgb(143, 113, 107)" fill-opacity="0.98"/><path d="M-2,-101L78,0L14,73Z" fill="rgb(194, 183, 182)" fill-opacity="0.94"/><path d="M142,36L290,112L132,135Z" fill="rgb(206, 199, 197)" fill-opacity="0.80"/><path d="M121,215L91,164L57,130Z" fill="rgb(5, 3, 1)" fill-opacity="0.39"/><path d="M61,148L88,293L12,162Z" fill="rgb(0, 0, 0)" fill-opacity="0.88"/><path d="M140,67L133,83L122,61Z" fill="rgb(11, 7, 10)" fill-opacity="0.28"/><path d="M131,203L129,132L154,145Z" fill="rgb(3, 2, 2)" fill-opacity="0.82"/><path d="M41,102L58,106L43,82Z" fill="rgb(124, 88, 88)" fill-opacity="0.62"/><path d="M68,53L45,36L81,30Z" fill="rgb(6, 6, 4)" fill-opacity="0.57"/><path d="M87,181L107,213L107,239Z" fill="rgb(0, 1, 0)" fill-opacity="0.86"/><path d="M100,197L102,186L114,216Z" fill="rgb(207, 214, 210)" fill-opacity="0.90"/><path d="M62,146L32,155L-4,1Z" fill="rgb(190, 178, 176)" fill-opacity="0.82"/><path d="M108,104L88,67L86,100Z" fill="rgb(226, 197, 193)" fill-opacity="0.99"/><path d="M126,139L111,154L131,151Z" fill="rgb(196, 148, 150)" fill-opacity="0.51"/><path d="M86,79L63,90L57,86Z" fill="rgb(4, 0, 0)" fill-opacity="0.31"/><path d="M84,36L99,9L73,16Z" fill="rgb(149, 134, 132)" fill-opacity="0.70"/><path d="M93,117L64,124L51,81Z" fill="rgb(241, 204, 192)" fill-opacity="0.37"/><path d="M100,6L-12,-103L196,61Z" fill="rgb(205, 197, 195)" fill-opacity="0.92"/><path d="M42,41L-3,42L36,132Z" fill="rgb(195, 182, 183)" fill-opacity="0.53"/><path d="M113,41L120,39L97,9Z" fill="rgb(73, 75, 73)" fill-opacity="0.89"/><path d="M105,106L87,102L79,110Z" fill="rgb(46, 20, 20)" fill-opacity="0.39"/><path d="M129,163L104,210L129,144Z" fill="rgb(241, 253, 249)" fill-opacity="0.41"/><path d="M84,238L129,301L88,212Z" fill="rgb(0, 0, 0)" fill-opacity="0.73"/><path d="M70,136L66,159L58,132Z" fill="rgb(39, 29, 27)" fill-opacity="0.76"/><path d="M50,40L54,25L64,23Z" fill="rgb(12, 6, 6)" fill-opacity="0.33"/><path d="M109,194L112,229L107,257Z" fill="rgb(219, 227, 224)" fill-opacity="0.61"/><path d="M64,22L31,-9L129,6Z" fill="rgb(223, 216, 215)" fill-opacity="0.24"/><path d="M135,105L104,147L132,128Z" fill="rgb(166, 136, 133)" fill-opacity="0.78"/><path d="M116,166L93,182L118,145Z" fill="rgb(172, 120, 121)" fill-opacity="0.52"/><path d="M92,194L71,193L81,250Z" fill="rgb(233, 236, 232)" fill-opacity="0.51"/><path d="M138,84L144,81L141,88Z" fill="rgb(116, 72, 72)" fill-opacity="0.58"/><path d="M78,130L97,129L92,135Z" fill="rgb(152, 108, 106)" fill-opacity="0.79"/><path d="M91,150L75,133L113,139Z" fill="rgb(251, 206, 205)" fill-opacity="0.30"/><path d="M61,23L94,27L59,30Z" fill="rgb(158, 141, 138)" fill-opacity="0.72"/><path d="M75,76L86,87L84,77Z" fill="rgb(137, 105, 100)" fill-opacity="0.99"/><path d="M95,185L92,189L106,186Z" fill="rgb(140, 146, 144)" fill-opacity="0.65"/><path d="M91,178L68,164L124,138Z" fill="rgb(19, 3, 3)" fill-opacity="0.34"/><path d="M63,53L61,76L122,73Z" fill="rgb(224, 200, 186)" fill-opacity="0.61"/><path d="M82,51L106,10L92,50Z" fill="rgb(64, 58, 56)" fill-opacity="0.71"/><path d="M112,50L131,85L78,52Z" fill="rgb(222, 201, 189)" fill-opacity="0.81"/><path d="M65,161L86,178L84,218Z" fill="rgb(196, 199, 198)" fill-opacity="0.62"/><path d="M134,120L128,97L132,83Z" fill="rgb(169, 133, 132)" fill-opacity="0.68"/><path d="M70,122L110,124L107,121Z" fill="rgb(42, 0, 0)" fill-opacity="0.39"/><path d="M125,36L117,24L126,26Z" fill="rgb(129, 119, 123)" fill-opacity="0.38"/><path d="M99,109L91,101L102,106Z" fill="rgb(42, 11, 15)" fill-opacity="0.32"/><path d="M48,108L57,104L56,138Z" fill="rgb(106, 68, 70)" fill-opacity="0.36"/><path d="M46,44L55,60L64,52Z" fill="rgb(159, 135, 138)" fill-opacity="0.67"/><path d="M135,52L97,49L100,32Z" fill="rgb(14, 12, 12)" fill-opacity="0.53"/><path d="M169,376L123,176L115,214Z" fill="rgb(2, 2, 2)" fill-opacity="0.86"/><path d="M69,172L80,194L68,183Z" fill="rgb(0, 36, 39)" fill-opacity="0.17"/><path d="M92,120L117,106L77,113Z" fill="rgb(237, 212, 207)" fill-opacity="0.52"/><path d="M129,127L131,134L108,145Z" fill="rgb(97, 78, 74)" fill-opacity="0.48"/><path d="M76,170L60,146L97,179Z" fill="rgb(53, 42, 41)" fill-opacity="0.95"/><path d="M83,191L84,228L92,196Z" fill="rgb(250, 255, 250)" fill-opacity="0.37"/><path d="M47,54L45,91L57,67Z" fill="rgb(0, 0, 0)" fill-opacity="0.39"/><path d="M45,102L48,84L52,96Z" fill="rgb(57, 41, 38)" fill-opacity="0.36"/><path d="M0,50L11,163L-21,179Z" fill="rgb(159, 160, 158)" fill-opacity="0.50"/><path d="M58,59L50,58L64,96Z" fill="rgb(160, 132, 131)" fill-opacity="0.58"/><path d="M99,187L91,201L98,223Z" fill="rgb(0, 0, 0)" fill-opacity="0.79"/><path d="M78,107L86,110L89,103Z" fill="rgb(36, 6, 2)" fill-opacity="0.31"/><path d="M100,22L80,37L89,9Z" fill="rgb(134, 120, 119)" fill-opacity="0.62"/><path d="M145,86L117,142L120,99Z" fill="rgb(209, 162, 159)" fill-opacity="0.40"/><path d="M121,162L97,179L117,185Z" fill="rgb(251, 255, 251)" fill-opacity="0.43"/><path d="M115,204L116,165L101,179Z" fill="rgb(239, 242, 238)" fill-opacity="0.84"/></svg>