<svg xmlns="http://www.w3.org/2000/svg" viewBox="0 0 193.82857142857142 256" clip-path="url(#clip)"><defs><clipPath id="clip" clipPathUnits="objectBoundingBox"><rect x="0" y="0" width="193.82857142857142" height="256"/></clipPath></defs><rect x="0" y="0" width="193.82857142857142" height="256" fill="rgb(142, 142, 142)"/><path d="M54,147L-56,205L86,341Z" fill="rgb(3, 3, 3)" fill-opacity="0.84"/><path d="M327,246L124,139L50,268Z" fill="rgb(15, 15, 15)" fill-opacity="0.92"/><path d="M99,242L135,35L83,6Z" fill="rgb(40, 40, 40)" fill-opacity="0.52"/><path d="M64,12L126,29L44,41Z" fill="rgb(16, 16, 16)" fill-opacity="0.75"/><path d="M58,179L108,164L69,235Z" fill="rgb(247, 247, 247)" fill-opacity="0.60"/><path d="M219,181L187,-56L109,138Z" fill="rgb(255, 255, 255)" fill-opacity="0.53"/><path d="M-295,91L111,33L110,64Z" fill="rgb(185, 185, 185)" fill-opacity="1.00"/><path d="M120,112L79,175L58,114Z" fill="rgb(25, 25, 25)" fill-opacity="0.66"/><path d="M95,83L15,172L-190,40Z" fill="rgb(255, 255, 255)" fill-opacity="0.44"/><path d="M-7,74L90,-7L-81,1Z" fill="rgb(212, 212, 212)" fill-opacity="0.89"/><path d="M115,128L135,157L104,169Z" fill="rgb(31, 31, 31)" fill-opacity="0.93"/><path d="M146,70L60,67L58,79Z" fill="rgb(6, 6, 6)" fill-opacity="0.51"/><path d="M126,29L101,75L133,89Z" fill="rgb(4, 4, 4)" fill-opacity="0.50"/><path d="M127,45L101,12L74,14Z" fill="rgb(27, 27, 27)" fill-opacity="0.78"/><path d="M71,149L115,130L109,144Z" fill="rgb(248, 248, 248)" fill-opacity="0.64"/><path d="M72,111L59,122L48,79Z" fill="rgb(10, 10, 10)" fill-opacity="0.50"/><path d="M129,158L51,147L68,174Z" fill="rgb(55, 55, 55)" fill-opacity="0.78"/><path d="M39,62L52,20L53,86Z" fill="rgb(15, 15, 15)" fill-opacity="0.58"/><path d="M59,174L67,159L60,157Z" fill="rgb(255, 255, 255)" fill-opacity="0.55"/><path d="M103,98L116,84L79,71Z" fill="rgb(145, 145, 145)" fill-opacity="0.85"/><path d="M97,46L82,36L78,117Z" fill="rgb(224, 224, 224)" fill-opacity="0.44"/><path d="M116,-12L231,23L138,89Z" fill="rgb(175, 175, 175)" fill-opacity="0.73"/><path d="M31,12L122,-31L120,11Z" fill="rgb(192, 192, 192)" fill-opacity="0.79"/><path d="M94,105L72,95L97,96Z" fill="rgb(0, 0, 0)" fill-opacity="0.47"/><path d="M64,134L13,2L26,164Z" fill="rgb(200, 200, 200)" fill-opacity="0.96"/><path d="M104,136L69,143L135,64Z" fill="rgb(24, 24, 24)" fill-opacity="0.76"/><path d="M49,21L38,74L20,22Z" fill="rgb(195, 195, 195)" fill-opacity="0.97"/><path d="M85,145L76,116L59,125Z" fill="rgb(1, 1, 1)" fill-opacity="0.44"/><path d="M4,171L38,158L-41,360Z" fill="rgb(17, 17, 17)" fill-opacity="0.70"/><path d="M51,75L106,39L62,36Z" fill="rgb(226, 226, 226)" fill-opacity="0.51"/><path d="M-9,4L-12,72L46,-39Z" fill="rgb(229, 229, 229)" fill-opacity="0.64"/><path d="M117,47L100,28L112,67Z" fill="rgb(170, 170, 170)" fill-opacity="0.59"/><path d="M95,143L123,152L79,153Z" fill="rgb(35, 35, 35)" fill-opacity="0.78"/><path d="M42,34L-300,299L41,154Z" fill="rgb(201, 201, 201)" fill-opacity="1.00"/><path d="M90,148L63,139L58,149Z" fill="rgb(245, 245, 245)" fill-opacity="0.63"/><path d="M39,255L147,256L-24,256Z" fill="rgb(189, 189, 189)" fill-opacity="0.50"/><path d="M134,76L82,73L128,53Z" fill="rgb(18, 18, 18)" fill-opacity="0.42"/><path d="M101,21L133,34L122,52Z" fill="rgb(31, 31, 31)" fill-opacity="0.72"/><path d="M43,45L43,66L70,15Z" fill="rgb(31, 31, 31)" fill-opacity="0.65"/><path d="M116,102L185,171L201,68Z" fill="rgb(228, 228, 228)" fill-opacity="0.58"/><path d="M105,133L115,127L106,151Z" fill="rgb(255, 255, 255)" fill-opacity="0.39"/><path d="M99,138L94,67L88,70Z" fill="rgb(43, 43, 43)" fill-opacity="0.56"/><path d="M41,77L46,59L52,71Z" fill="rgb(36, 36, 36)" fill-opacity="0.69"/><path d="M57,89L89,123L68,114Z" fill="rgb(144, 144, 144)" fill-opacity="0.67"/><path d="M89,107L67,108L77,98Z" fill="rgb(234, 234, 234)" fill-opacity="0.53"/><path d="M149,155L311,70L116,130Z" fill="rgb(228, 228, 228)" fill-opacity="0.63"/><path d="M58,178L59,137L25,187Z" fill="rgb(30, 30, 30)" fill-opacity="1.00"/><path d="M60,181L59,161L75,201Z" fill="rgb(210, 210, 210)" fill-opacity="0.93"/><path d="M53,33L92,38L109,17Z" fill="rgb(20, 20, 20)" fill-opacity="0.54"/><path d="M58,77L71,65L83,74Z" fill="rgb(2, 2, 2)" fill-opacity="0.50"/><path d="M54,89L54,101L65,107Z" fill="rgb(20, 20, 20)" fill-opacity="0.51"/><path d="M38,152L61,129L49,153Z" fill="rgb(253, 253, 253)" fill-opacity="0.27"/><path d="M96,93L110,93L119,73Z" fill="rgb(244, 244, 244)" fill-opacity="0.19"/><path d="M53,88L56,40L59,73Z" fill="rgb(215, 215, 215)" fill-opacity="0.58"/><path d="M62,130L70,146L60,153Z" fill="rgb(221, 221, 221)" fill-opacity="0.84"/><path d="M189,-6L112,28L105,7Z" fill="rgb(177, 177, 177)" fill-opacity="0.65"/><path d="M122,98L145,152L117,132Z" fill="rgb(229, 229, 229)" fill-opacity="0.57"/><path d="M95,143L113,128L109,146Z" fill="rgb(232, 232, 232)" fill-opacity="0.62"/><path d="M105,125L116,130L124,66Z" fill="rgb(23, 23, 23)" fill-opacity="0.60"/><path d="M59,176L95,188L106,167Z" fill="rgb(221, 221, 221)" fill-opacity="0.63"/><path d="M122,256L138,148L113,138Z" fill="rgb(21, 21, 21)" fill-opacity="0.84"/><path d="M173,74L142,-39L127,55Z" fill="rgb(166, 166, 166)" fill-opacity="0.65"/><path d="M186,168L213,196L157,197Z" fill="rgb(25, 25, 25)" fill-opacity="0.85"/><path d="M98,107L116,111L75,109Z" fill="rgb(46, 46, 46)" fill-opacity="0.73"/><path d="M64,151L65,130L62,131Z" fill="rgb(237, 237, 237)" fill-opacity="0.55"/><path d="M111,32L128,96L134,69Z" fill="rgb(28, 28, 28)" fill-opacity="0.38"/><path d="M82,74L88,52L84,94Z" fill="rgb(209, 209, 209)" fill-opacity="0.64"/><path d="M62,172L91,159L97,167Z" fill="rgb(17, 17, 17)" fill-opacity="0.54"/><path d="M73,95L65,111L78,95Z" fill="rgb(136, 136, 136)" fill-opacity="1.00"/><path d="M103,-54L154,20L237,12Z" fill="rgb(214, 214, 214)" fill-opacity="0.29"/><path d="M91,154L107,155L99,160Z" fill="rgb(142, 142, 142)" fill-opacity="0.47"/><path d="M77,20L41,57L52,23Z" fill="rgb(38, 38, 38)" fill-opacity="0.73"/><path d="M68,76L52,84L71,99Z" fill="rgb(216, 216, 216)" fill-opacity="0.50"/><path d="M72,147L56,155L67,160Z" fill="rgb(6, 6, 6)" fill-opacity="0.51"/><path d="M46,58L24,108L8,44Z" fill="rgb(187, 187, 187)" fill-opacity="0.38"/><path d="M45,55L68,34L85,45Z" fill="rgb(239, 239, 239)" fill-opacity="0.26"/><path d="M58,194L75,250L50,208Z" fill="rgb(34, 34, 34)" fill-opacity="0.63"/><path d="M98,50L118,54L111,69Z" fill="rgb(132, 132, 132)" fill-opacity="0.43"/><path d="M152,173L106,149L117,133Z" fill="rgb(23, 23, 23)" fill-opacity="0.76"/><path d="M104,96L105,107L87,108Z" fill="rgb(99, 99, 99)" fill-opacity="0.64"/><path d="M111,34L92,68L98,30Z" fill="rgb(205, 205, 205)" fill-opacity="0.40"/><path d="M130,90L136,63L182,96Z" fill="rgb(198, 198, 198)" fill-opacity="0.70"/><path d="M106,158L71,174L60,170Z" fill="rgb(35, 35, 35)" fill-opacity="0.60"/><path d="M107,113L79,118L79,122Z" fill="rgb(253, 253, 253)" fill-opacity="0.15"/><path d="M86,96L81,59L92,91Z" fill="rgb(219, 219, 219)" fill-opacity="0.42"/><path d="M104,166L71,233L60,176Z" fill="rgb(212, 212, 212)" fill-opacity="0.46"/><path d="M78,14L99,4L41,5Z" fill="rgb(199, 199, 199)" fill-opacity="0.61"/><path d="M87,144L64,136L121,114Z" fill="rgb(21, 21, 21)" fill-opacity="0.64"/><path d="M52,169L59,136L62,134Z" fill="rgb(30, 30, 30)" fill-opacity="0.74"/><path d="M43,83L51,151L57,103Z" fill="rgb(207, 207, 207)" fill-opacity="0.62"/><path d="M121,155L99,148L81,158Z" fill="rgb(83, 83, 83)" fill-opacity="0.50"/><path d="M73,80L83,70L74,66Z" fill="rgb(25, 25, 25)" fill-opacity="0.51"/><path d="M97,255L-4,255L-68,311Z" fill="rgb(127, 127, 127)" fill-opacity="0.76"/><path d="M8,95L0,-57L-1,187Z" fill="rgb(226, 226, 226)" fill-opacity="0.45"/><path d="M53,107L71,143L107,135Z" fill="rgb(31, 31, 31)" fill-opacity="0.36"/><path d="M50,58L77,67L106,31Z" fill="rgb(206, 206, 206)" fill-opacity="0.79"/><path d="M158,83L133,67L126,41Z" fill="rgb(181, 181, 181)" fill-opacity="0.66"/><path d="M99,163L116,154L104,167Z" fill="rgb(105, 105, 105)" fill-opacity="0.73"/><path d="M92,79L112,65L92,67Z" fill="rgb(17, 17, 17)" fill-opacity="0.59"/><path d="M117,119L125,142L185,167Z" fill="rgb(224, 224, 224)" fill-opacity="0.76"/></svg>