<svg xmlns="http://www.w3.org/2000/svg" viewBox="0 0 256 256" clip-path="url(#clip)"><defs><clipPath id="clip" clipPathUnits="objectBoundingBox"><rect x="0" y="0" width="256" height="256"/></clipPath></defs><rect x="0" y="0" width="256" height="256" fill="rgb(26, 8, 5)"/><path d="M166,-40L186,284L45,86Z" fill="rgb(189, 159, 130)" fill-opacity="0.84"/><path d="M89,9L208,-158L195,23Z" fill="rgb(16, 2, 2)" fill-opacity="0.96"/><path d="M186,121L72,25L183,26Z" fill="rgb(255, 220, 165)" fill-opacity="0.36"/><path d="M189,203L130,218L110,164Z" fill="rgb(249, 255, 244)" fill-opacity="0.68"/><path d="M19,52L82,63L63,111Z" fill="rgb(4, 0, 5)" fill-opacity="0.56"/><path d="M146,176L159,98L209,195Z" fill="rgb(28, 1, 0)" fill-opacity="0.54"/><path d="M156,106L204,71L154,80Z" fill="rgb(63, 26, 11)" fill-opacity="0.63"/><path d="M118,-7L439,9L193,43Z" fill="rgb(18, 2, 2)" fill-opacity="0.94"/><path d="M67,55L106,18L164,21Z" fill="rgb(243, 234, 217)" fill-opacity="0.44"/><path d="M141,93L137,73L93,88Z" fill="rgb(66, 25, 1)" fill-opacity="0.55"/><path d="M174,180L189,242L149,234Z" fill="rgb(239, 255, 251)" fill-opacity="0.50"/><path d="M101,165L86,139L160,210Z" fill="rgb(249, 248, 233)" fill-opacity="0.73"/><path d="M218,188L177,202L178,221Z" fill="rgb(8, 0, 2)" fill-opacity="0.50"/><path d="M-53,260L209,277L86,181Z" fill="rgb(7, 0, 1)" fill-opacity="0.91"/><path d="M22,218L99,162L126,188Z" fill="rgb(12, 2, 4)" fill-opacity="0.88"/><path d="M0,40L-13,236L36,205Z" fill="rgb(169, 67, 38)" fill-opacity="0.41"/><path d="M156,97L98,96L122,151Z" fill="rgb(245, 194, 147)" fill-opacity="0.71"/><path d="M173,256L329,286L207,212Z" fill="rgb(7, 0, 0)" fill-opacity="0.82"/><path d="M177,232L173,187L106,169Z" fill="rgb(245, 242, 226)" fill-opacity="0.54"/><path d="M128,174L71,68L49,109Z" fill="rgb(115, 89, 67)" fill-opacity="0.60"/><path d="M185,118L169,154L158,78Z" fill="rgb(154, 104, 70)" fill-opacity="0.61"/><path d="M190,131L219,227L158,170Z" fill="rgb(8, 0, 0)" fill-opacity="0.62"/><path d="M130,104L104,76L147,78Z" fill="rgb(71, 30, 7)" fill-opacity="0.32"/><path d="M133,221L177,183L182,207Z" fill="rgb(235, 233, 218)" fill-opacity="0.56"/><path d="M88,134L39,171L69,116Z" fill="rgb(26, 5, 6)" fill-opacity="0.83"/><path d="M171,209L259,267L227,205Z" fill="rgb(10, 0, 0)" fill-opacity="0.55"/><path d="M160,155L156,168L121,159Z" fill="rgb(223, 170, 128)" fill-opacity="0.67"/><path d="M180,74L109,73L130,13Z" fill="rgb(255, 211, 164)" fill-opacity="0.50"/><path d="M24,79L115,11L23,-79Z" fill="rgb(12, 0, 0)" fill-opacity="0.97"/><path d="M11,53L45,122L77,40Z" fill="rgb(16, 1, 1)" fill-opacity="0.94"/><path d="M106,38L80,35L92,87Z" fill="rgb(185, 166, 144)" fill-opacity="0.59"/><path d="M51,123L92,71L79,34Z" fill="rgb(107, 106, 100)" fill-opacity="0.55"/><path d="M177,254L141,219L174,240Z" fill="rgb(248, 252, 243)" fill-opacity="0.54"/><path d="M158,124L132,92L151,81Z" fill="rgb(227, 175, 129)" fill-opacity="0.60"/><path d="M167,81L162,20L191,47Z" fill="rgb(161, 127, 96)" fill-opacity="0.44"/><path d="M120,196L122,188L136,216Z" fill="rgb(227, 227, 223)" fill-opacity="0.86"/><path d="M111,134L115,94L149,138Z" fill="rgb(236, 191, 149)" fill-opacity="0.71"/><path d="M136,80L148,13L116,17Z" fill="rgb(242, 218, 185)" fill-opacity="0.40"/><path d="M190,131L189,45L168,88Z" fill="rgb(83, 46, 28)" fill-opacity="0.48"/><path d="M63,95L118,81L69,110Z" fill="rgb(181, 171, 151)" fill-opacity="0.27"/><path d="M185,130L167,165L126,142Z" fill="rgb(118, 68, 35)" fill-opacity="0.47"/><path d="M276,-135L129,13L79,30Z" fill="rgb(15, 3, 3)" fill-opacity="0.85"/><path d="M140,180L107,161L177,176Z" fill="rgb(69, 37, 15)" fill-opacity="0.42"/><path d="M139,174L76,125L97,90Z" fill="rgb(199, 126, 72)" fill-opacity="0.38"/><path d="M192,199L176,202L216,211Z" fill="rgb(15, 3, 3)" fill-opacity="0.58"/><path d="M140,109L101,100L129,124Z" fill="rgb(241, 206, 164)" fill-opacity="0.81"/><path d="M141,115L133,122L175,135Z" fill="rgb(86, 19, 0)" fill-opacity="0.36"/><path d="M123,94L106,81L123,72Z" fill="rgb(31, 6, 0)" fill-opacity="0.26"/><path d="M83,142L87,137L101,165Z" fill="rgb(225, 229, 230)" fill-opacity="0.33"/><path d="M159,92L178,93L170,139Z" fill="rgb(168, 124, 94)" fill-opacity="0.65"/><path d="M170,174L119,199L159,190Z" fill="rgb(176, 168, 153)" fill-opacity="0.43"/><path d="M155,86L127,74L179,35Z" fill="rgb(209, 162, 120)" fill-opacity="0.37"/><path d="M47,196L-47,130L-5,229Z" fill="rgb(165, 69, 34)" fill-opacity="0.22"/><path d="M21,79L5,150L49,204Z" fill="rgb(49, 13, 10)" fill-opacity="0.71"/><path d="M85,84L68,58L93,26Z" fill="rgb(129, 121, 111)" fill-opacity="0.46"/><path d="M130,140L135,120L165,137Z" fill="rgb(247, 173, 117)" fill-opacity="0.27"/><path d="M119,180L86,145L102,153Z" fill="rgb(255, 254, 237)" fill-opacity="0.50"/><path d="M184,197L173,221L106,164Z" fill="rgb(255, 255, 244)" fill-opacity="0.23"/><path d="M85,115L74,111L58,139Z" fill="rgb(43, 5, 0)" fill-opacity="0.29"/><path d="M129,152L159,145L115,141Z" fill="rgb(205, 146, 106)" fill-opacity="0.49"/><path d="M103,34L128,29L88,134Z" fill="rgb(207, 140, 83)" fill-opacity="0.30"/><path d="M5,24L-16,-3L17,121Z" fill="rgb(65, 20, 14)" fill-opacity="0.57"/><path d="M159,121L156,100L130,121Z" fill="rgb(203, 148, 108)" fill-opacity="0.58"/><path d="M189,92L153,89L166,76Z" fill="rgb(43, 11, 0)" fill-opacity="0.34"/><path d="M118,279L134,212L127,214Z" fill="rgb(13, 3, 3)" fill-opacity="0.50"/><path d="M140,99L128,87L116,97Z" fill="rgb(156, 114, 85)" fill-opacity="0.58"/><path d="M173,165L172,119L205,94Z" fill="rgb(51, 19, 14)" fill-opacity="0.33"/><path d="M222,207L269,205L251,181Z" fill="rgb(47, 31, 30)" fill-opacity="0.48"/><path d="M181,74L171,26L169,78Z" fill="rgb(170, 132, 97)" fill-opacity="0.53"/><path d="M146,223L186,223L184,244Z" fill="rgb(204, 203, 192)" fill-opacity="0.57"/><path d="M123,252L173,256L140,219Z" fill="rgb(12, 2, 4)" fill-opacity="0.60"/><path d="M110,20L124,73L165,44Z" fill="rgb(245, 201, 156)" fill-opacity="0.42"/><path d="M138,170L139,178L180,177Z" fill="rgb(59, 34, 24)" fill-opacity="0.53"/><path d="M51,119L81,120L50,96Z" fill="rgb(75, 73, 71)" fill-opacity="0.50"/><path d="M172,242L160,206L173,227Z" fill="rgb(173, 166, 151)" fill-opacity="0.55"/><path d="M184,124L174,75L177,140Z" fill="rgb(182, 133, 83)" fill-opacity="0.19"/><path d="M88,96L105,20L91,48Z" fill="rgb(250, 226, 195)" fill-opacity="0.28"/><path d="M105,91L128,100L94,95Z" fill="rgb(203, 160, 120)" fill-opacity="0.97"/><path d="M263,1L143,15L187,-82Z" fill="rgb(13, 2, 2)" fill-opacity="0.84"/><path d="M166,223L135,220L154,217Z" fill="rgb(81, 77, 64)" fill-opacity="0.37"/><path d="M146,228L13,216L107,192Z" fill="rgb(12, 1, 2)" fill-opacity="0.65"/><path d="M169,60L152,16L127,13Z" fill="rgb(188, 174, 155)" fill-opacity="0.48"/><path d="M166,122L166,134L140,122Z" fill="rgb(58, 17, 0)" fill-opacity="0.44"/><path d="M181,63L180,41L197,64Z" fill="rgb(70, 48, 33)" fill-opacity="0.58"/><path d="M97,279L122,186L16,79Z" fill="rgb(12, 0, 2)" fill-opacity="0.57"/><path d="M151,145L155,156L139,155Z" fill="rgb(112, 69, 36)" fill-opacity="0.57"/><path d="M96,30L124,16L138,28Z" fill="rgb(250, 246, 231)" fill-opacity="0.38"/><path d="M168,171L394,176L247,0Z" fill="rgb(25, 0, 3)" fill-opacity="0.66"/><path d="M163,140L167,123L180,133Z" fill="rgb(130, 94, 68)" fill-opacity="0.40"/><path d="M180,249L179,254L143,223Z" fill="rgb(236, 239, 235)" fill-opacity="0.38"/><path d="M159,90L168,117L184,107Z" fill="rgb(181, 135, 101)" fill-opacity="0.52"/><path d="M27,216L46,200L-12,97Z" fill="rgb(76, 30, 18)" fill-opacity="0.41"/><path d="M131,215L142,221L120,192Z" fill="rgb(249, 254, 255)" fill-opacity="0.27"/><path d="M155,223L173,246L149,229Z" fill="rgb(253, 248, 228)" fill-opacity="0.62"/><path d="M20,281L78,127L89,151Z" fill="rgb(8, 0, 1)" fill-opacity="0.61"/><path d="M35,136L44,182L90,129Z" fill="rgb(29, 4, 6)" fill-opacity="0.61"/><path d="M85,97L91,116L81,108Z" fill="rgb(101, 84, 65)" fill-opacity="0.53"/><path d="M187,233L168,205L185,220Z" fill="rgb(163, 163, 158)" fill-opacity="0.68"/><path d="M153,88L157,115L160,85Z" fill="rgb(124, 74, 36)" fill-opacity="0.49"/><path d="M154,110L128,107L152,86Z" fill="rgb(229, 184, 142)" fill-opacity="0.73"/></svg>