<svg xmlns="http://www.w3.org/2000/svg" viewBox="0 0 212.68882175226585 256" clip-path="url(#clip)"><defs><clipPath id="clip" clipPathUnits="objectBoundingBox"><rect x="0" y="0" width="212.68882175226585" height="256"/></clipPath></defs><rect x="0" y="0" width="212.68882175226585" height="256" fill="rgb(9, 2, 0)"/><path d="M159,42L81,221L52,40Z" fill="rgb(248, 177, 115)" fill-opacity="0.69"/><path d="M147,242L113,206L144,211Z" fill="rgb(250, 223, 186)" fill-opacity="0.77"/><path d="M-48,525L116,192L16,143Z" fill="rgb(2, 0, 0)" fill-opacity="0.97"/><path d="M158,89L117,194L37,146Z" fill="rgb(248, 156, 108)" fill-opacity="0.39"/><path d="M46,82L68,171L129,104Z" fill="rgb(237, 165, 103)" fill-opacity="0.54"/><path d="M107,23L144,77L62,76Z" fill="rgb(255, 215, 145)" fill-opacity="0.54"/><path d="M55,85L88,23L-129,126Z" fill="rgb(14, 2, 0)" fill-opacity="0.86"/><path d="M375,66L129,108L127,84Z" fill="rgb(36, 6, 1)" fill-opacity="0.75"/><path d="M109,160L100,143L138,154Z" fill="rgb(232, 154, 91)" fill-opacity="0.69"/><path d="M111,99L83,83L126,80Z" fill="rgb(66, 11, 0)" fill-opacity="0.77"/><path d="M58,145L82,177L120,182Z" fill="rgb(239, 243, 230)" fill-opacity="0.63"/><path d="M143,235L118,207L138,205Z" fill="rgb(255, 252, 223)" fill-opacity="0.46"/><path d="M115,186L97,183L105,169Z" fill="rgb(178, 143, 111)" fill-opacity="0.99"/><path d="M148,30L315,244L118,176Z" fill="rgb(61, 15, 3)" fill-opacity="0.57"/><path d="M106,133L71,155L153,128Z" fill="rgb(154, 74, 36)" fill-opacity="0.54"/><path d="M-39,98L175,186L124,179Z" fill="rgb(40, 5, 0)" fill-opacity="0.40"/><path d="M57,176L62,122L-160,137Z" fill="rgb(18, 3, 1)" fill-opacity="0.87"/><path d="M69,49L88,26L135,24Z" fill="rgb(85, 35, 10)" fill-opacity="0.68"/><path d="M113,110L70,77L91,131Z" fill="rgb(254, 195, 132)" fill-opacity="0.50"/><path d="M120,93L148,137L146,104Z" fill="rgb(255, 131, 69)" fill-opacity="0.25"/><path d="M78,46L105,80L139,44Z" fill="rgb(255, 209, 147)" fill-opacity="0.56"/><path d="M58,150L71,168L105,170Z" fill="rgb(253, 254, 242)" fill-opacity="0.53"/><path d="M158,115L145,32L385,109Z" fill="rgb(22, 5, 1)" fill-opacity="0.84"/><path d="M78,158L45,100L70,47Z" fill="rgb(177, 100, 44)" fill-opacity="0.36"/><path d="M150,85L139,35L111,82Z" fill="rgb(201, 115, 56)" fill-opacity="0.37"/><path d="M111,150L129,132L112,110Z" fill="rgb(188, 108, 59)" fill-opacity="0.57"/><path d="M92,150L139,149L130,161Z" fill="rgb(255, 174, 104)" fill-opacity="0.30"/><path d="M129,188L89,185L110,222Z" fill="rgb(3, 2, 1)" fill-opacity="0.77"/><path d="M122,93L83,92L101,78Z" fill="rgb(49, 0, 0)" fill-opacity="0.45"/><path d="M138,203L149,217L117,206Z" fill="rgb(137, 75, 28)" fill-opacity="0.42"/><path d="M178,123L175,180L114,118Z" fill="rgb(64, 15, 4)" fill-opacity="0.54"/><path d="M58,151L72,126L106,156Z" fill="rgb(192, 126, 70)" fill-opacity="0.58"/><path d="M103,194L43,158L83,173Z" fill="rgb(27, 9, 3)" fill-opacity="0.37"/><path d="M113,179L120,155L135,192Z" fill="rgb(42, 6, 0)" fill-opacity="0.60"/><path d="M82,44L127,37L145,63Z" fill="rgb(253, 185, 114)" fill-opacity="0.30"/><path d="M101,120L116,115L98,136Z" fill="rgb(183, 101, 52)" fill-opacity="0.66"/><path d="M78,27L143,39L151,49Z" fill="rgb(116, 49, 11)" fill-opacity="0.40"/><path d="M62,105L52,115L65,122Z" fill="rgb(229, 134, 70)" fill-opacity="0.42"/><path d="M100,157L126,181L86,158Z" fill="rgb(91, 32, 12)" fill-opacity="0.75"/><path d="M-53,161L50,73L54,97Z" fill="rgb(29, 4, 3)" fill-opacity="0.34"/><path d="M126,94L129,118L87,114Z" fill="rgb(245, 184, 126)" fill-opacity="0.59"/><path d="M148,246L147,218L138,203Z" fill="rgb(130, 83, 45)" fill-opacity="0.47"/><path d="M124,127L112,136L108,122Z" fill="rgb(246, 188, 126)" fill-opacity="0.53"/><path d="M106,38L71,67L114,80Z" fill="rgb(245, 203, 145)" fill-opacity="0.53"/><path d="M49,125L59,152L67,121Z" fill="rgb(59, 11, 1)" fill-opacity="0.43"/><path d="M49,87L90,-7L-71,6Z" fill="rgb(6, 1, 1)" fill-opacity="0.89"/><path d="M102,168L124,188L90,165Z" fill="rgb(183, 145, 112)" fill-opacity="0.60"/><path d="M98,52L84,91L54,100Z" fill="rgb(225, 170, 110)" fill-opacity="0.62"/><path d="M96,137L115,135L139,139Z" fill="rgb(83, 2, 5)" fill-opacity="0.50"/><path d="M104,26L202,29L156,-318Z" fill="rgb(3, 0, 0)" fill-opacity="0.66"/><path d="M62,159L109,186L78,156Z" fill="rgb(253, 252, 240)" fill-opacity="0.40"/><path d="M108,26L121,74L76,83Z" fill="rgb(255, 201, 136)" fill-opacity="0.19"/><path d="M152,42L142,64L151,86Z" fill="rgb(91, 26, 9)" fill-opacity="0.52"/><path d="M130,105L153,81L126,88Z" fill="rgb(52, 5, 0)" fill-opacity="0.57"/><path d="M141,87L83,80L149,79Z" fill="rgb(135, 66, 22)" fill-opacity="0.37"/><path d="M89,81L114,103L81,91Z" fill="rgb(149, 59, 7)" fill-opacity="0.31"/><path d="M119,60L73,72L76,50Z" fill="rgb(233, 193, 138)" fill-opacity="0.46"/><path d="M140,177L145,179L130,184Z" fill="rgb(158, 118, 75)" fill-opacity="0.58"/><path d="M65,103L53,108L64,96Z" fill="rgb(73, 1, 0)" fill-opacity="0.37"/><path d="M137,164L127,137L160,101Z" fill="rgb(82, 18, 9)" fill-opacity="0.54"/><path d="M53,95L71,44L81,43Z" fill="rgb(128, 82, 34)" fill-opacity="0.57"/><path d="M140,215L125,206L139,233Z" fill="rgb(255, 255, 244)" fill-opacity="0.49"/><path d="M99,94L106,103L121,94Z" fill="rgb(168, 92, 41)" fill-opacity="0.60"/><path d="M131,224L126,244L113,197Z" fill="rgb(70, 40, 13)" fill-opacity="0.25"/><path d="M147,107L135,107L140,135Z" fill="rgb(243, 166, 83)" fill-opacity="0.21"/><path d="M74,50L109,22L123,32Z" fill="rgb(140, 75, 18)" fill-opacity="0.27"/><path d="M129,181L122,185L103,169Z" fill="rgb(48, 6, 0)" fill-opacity="0.35"/><path d="M147,240L144,241L115,208Z" fill="rgb(129, 92, 57)" fill-opacity="0.76"/><path d="M95,17L87,40L58,52Z" fill="rgb(37, 7, 1)" fill-opacity="0.59"/><path d="M152,102L126,89L191,84Z" fill="rgb(18, 4, 3)" fill-opacity="0.63"/><path d="M253,246L153,176L109,198Z" fill="rgb(0, 0, 0)" fill-opacity="0.60"/><path d="M187,236L179,235L185,228Z" fill="rgb(91, 20, 16)" fill-opacity="0.57"/><path d="M131,153L87,140L109,162Z" fill="rgb(243, 178, 112)" fill-opacity="0.23"/><path d="M138,63L116,60L140,45Z" fill="rgb(218, 159, 105)" fill-opacity="0.75"/><path d="M92,196L77,174L-3,96Z" fill="rgb(21, 7, 2)" fill-opacity="0.86"/><path d="M90,103L126,105L70,130Z" fill="rgb(249, 195, 139)" fill-opacity="0.24"/><path d="M125,85L88,78L95,94Z" fill="rgb(38, 0, 0)" fill-opacity="0.26"/><path d="M135,87L142,43L148,53Z" fill="rgb(164, 100, 48)" fill-opacity="0.59"/><path d="M116,102L131,51L127,91Z" fill="rgb(200, 126, 72)" fill-opacity="0.47"/><path d="M125,88L125,121L121,91Z" fill="rgb(254, 197, 133)" fill-opacity="0.47"/><path d="M86,71L52,102L64,70Z" fill="rgb(179, 135, 82)" fill-opacity="0.43"/><path d="M126,104L139,94L133,120Z" fill="rgb(111, 27, 15)" fill-opacity="0.36"/><path d="M69,101L67,104L46,79Z" fill="rgb(144, 81, 45)" fill-opacity="0.55"/><path d="M101,45L92,63L111,53Z" fill="rgb(243, 226, 173)" fill-opacity="0.40"/><path d="M55,115L48,170L11,88Z" fill="rgb(26, 6, 3)" fill-opacity="0.62"/><path d="M134,128L106,120L111,114Z" fill="rgb(100, 6, 0)" fill-opacity="0.28"/><path d="M34,122L43,100L61,126Z" fill="rgb(39, 10, 5)" fill-opacity="0.44"/><path d="M126,156L122,153L106,165Z" fill="rgb(152, 69, 27)" fill-opacity="0.49"/><path d="M98,166L84,176L58,155Z" fill="rgb(255, 249, 233)" fill-opacity="0.26"/><path d="M143,238L145,226L122,209Z" fill="rgb(255, 244, 222)" fill-opacity="0.35"/><path d="M65,147L60,126L87,162Z" fill="rgb(167, 102, 45)" fill-opacity="0.54"/><path d="M166,128L137,148L111,146Z" fill="rgb(65, 13, 5)" fill-opacity="0.67"/><path d="M143,45L138,20L150,42Z" fill="rgb(37, 9, 3)" fill-opacity="0.55"/><path d="M168,68L227,64L207,16Z" fill="rgb(26, 5, 2)" fill-opacity="0.59"/><path d="M67,84L99,140L81,153Z" fill="rgb(215, 149, 96)" fill-opacity="0.55"/><path d="M130,142L86,138L126,138Z" fill="rgb(174, 74, 38)" fill-opacity="0.52"/><path d="M51,111L55,88L48,91Z" fill="rgb(114, 50, 26)" fill-opacity="1.00"/><path d="M138,40L111,38L156,32Z" fill="rgb(34, 5, 1)" fill-opacity="0.50"/><path d="M139,223L141,216L149,228Z" fill="rgb(183, 139, 98)" fill-opacity="0.45"/><path d="M135,40L152,50L96,37Z" fill="rgb(178, 100, 38)" fill-opacity="0.34"/></svg>