<svg xmlns="http://www.w3.org/2000/svg" viewBox="0 0 195.1219512195122 256" clip-path="url(#clip)"><defs><clipPath id="clip" clipPathUnits="objectBoundingBox"><rect x="0" y="0" width="195.1219512195122" height="256"/></clipPath></defs><rect x="0" y="0" width="195.1219512195122" height="256" fill="rgb(49, 32, 26)"/><path d="M70,235L85,148L142,121Z" fill="rgb(241, 226, 219)" fill-opacity="0.87"/><path d="M89,35L33,172L147,105Z" fill="rgb(245, 180, 156)" fill-opacity="0.67"/><path d="M130,152L112,47L58,67Z" fill="rgb(255, 211, 190)" fill-opacity="0.56"/><path d="M92,168L-94,255L52,73Z" fill="rgb(101, 71, 54)" fill-opacity="0.88"/><path d="M159,80L126,101L113,9Z" fill="rgb(35, 12, 7)" fill-opacity="0.75"/><path d="M139,84L119,135L145,96Z" fill="rgb(184, 105, 85)" fill-opacity="0.80"/><path d="M134,255L-140,331L36,194Z" fill="rgb(8, 0, 1)" fill-opacity="0.83"/><path d="M69,205L77,229L114,168Z" fill="rgb(220, 199, 195)" fill-opacity="0.63"/><path d="M78,171L89,209L72,192Z" fill="rgb(207, 193, 191)" fill-opacity="0.87"/><path d="M161,36L-517,-202L76,56Z" fill="rgb(34, 14, 8)" fill-opacity="0.75"/><path d="M121,78L105,144L64,94Z" fill="rgb(252, 190, 172)" fill-opacity="0.47"/><path d="M76,137L59,197L84,166Z" fill="rgb(15, 2, 4)" fill-opacity="0.78"/><path d="M134,126L172,182L414,-153Z" fill="rgb(83, 59, 43)" fill-opacity="1.00"/><path d="M69,98L73,80L94,110Z" fill="rgb(251, 208, 192)" fill-opacity="0.64"/><path d="M71,58L117,49L109,86Z" fill="rgb(255, 237, 214)" fill-opacity="0.53"/><path d="M93,188L136,127L94,143Z" fill="rgb(255, 251, 243)" fill-opacity="0.76"/><path d="M112,179L95,155L68,214Z" fill="rgb(231, 208, 199)" fill-opacity="0.63"/><path d="M319,151L102,186L-68,489Z" fill="rgb(14, 4, 5)" fill-opacity="0.97"/><path d="M146,94L95,107L109,139Z" fill="rgb(189, 103, 85)" fill-opacity="0.47"/><path d="M139,123L150,181L108,188Z" fill="rgb(11, 1, 3)" fill-opacity="0.82"/><path d="M61,112L-69,161L71,41Z" fill="rgb(75, 49, 35)" fill-opacity="0.68"/><path d="M124,109L75,153L136,125Z" fill="rgb(169, 97, 77)" fill-opacity="0.53"/><path d="M85,94L72,68L97,81Z" fill="rgb(140, 86, 70)" fill-opacity="0.68"/><path d="M61,128L58,98L79,131Z" fill="rgb(94, 6, 2)" fill-opacity="0.54"/><path d="M193,61L152,57L169,134Z" fill="rgb(85, 59, 41)" fill-opacity="0.68"/><path d="M74,175L68,237L22,202Z" fill="rgb(14, 4, 5)" fill-opacity="0.92"/><path d="M161,99L131,147L149,78Z" fill="rgb(25, 4, 3)" fill-opacity="0.74"/><path d="M81,181L85,199L71,174Z" fill="rgb(162, 142, 143)" fill-opacity="0.63"/><path d="M9,211L42,87L69,175Z" fill="rgb(188, 159, 121)" fill-opacity="0.18"/><path d="M325,113L160,173L141,150Z" fill="rgb(92, 68, 52)" fill-opacity="0.86"/><path d="M71,140L88,145L68,103Z" fill="rgb(174, 89, 71)" fill-opacity="0.59"/><path d="M59,63L117,47L128,58Z" fill="rgb(255, 170, 137)" fill-opacity="0.28"/><path d="M94,45L67,62L72,89Z" fill="rgb(210, 139, 119)" fill-opacity="0.50"/><path d="M122,47L132,94L111,62Z" fill="rgb(98, 64, 45)" fill-opacity="0.57"/><path d="M123,99L109,51L81,58Z" fill="rgb(255, 233, 213)" fill-opacity="0.50"/><path d="M56,118L83,108L64,108Z" fill="rgb(79, 3, 0)" fill-opacity="0.44"/><path d="M76,190L92,202L71,215Z" fill="rgb(248, 245, 242)" fill-opacity="0.56"/><path d="M111,134L82,194L132,142Z" fill="rgb(255, 255, 246)" fill-opacity="0.43"/><path d="M101,26L82,45L136,46Z" fill="rgb(12, 0, 1)" fill-opacity="0.70"/><path d="M89,139L82,150L65,141Z" fill="rgb(87, 26, 17)" fill-opacity="0.69"/><path d="M104,205L118,153L171,176Z" fill="rgb(13, 3, 5)" fill-opacity="0.68"/><path d="M76,220L93,197L86,216Z" fill="rgb(174, 146, 144)" fill-opacity="0.76"/><path d="M-84,3L74,82L66,98Z" fill="rgb(57, 26, 16)" fill-opacity="0.53"/><path d="M84,184L95,173L75,175Z" fill="rgb(246, 239, 232)" fill-opacity="0.72"/><path d="M114,172L87,161L107,184Z" fill="rgb(210, 161, 146)" fill-opacity="0.51"/><path d="M88,173L95,169L83,143Z" fill="rgb(139, 108, 109)" fill-opacity="0.46"/><path d="M112,58L93,104L117,96Z" fill="rgb(250, 212, 193)" fill-opacity="0.68"/><path d="M193,159L167,176L243,192Z" fill="rgb(59, 39, 29)" fill-opacity="0.56"/><path d="M55,124L72,149L61,180Z" fill="rgb(143, 108, 82)" fill-opacity="0.63"/><path d="M90,199L69,209L77,219Z" fill="rgb(255, 254, 245)" fill-opacity="0.52"/><path d="M67,109L70,147L59,120Z" fill="rgb(79, 18, 13)" fill-opacity="0.73"/><path d="M75,156L88,162L56,199Z" fill="rgb(13, 5, 7)" fill-opacity="0.48"/><path d="M91,253L74,216L-19,258Z" fill="rgb(14, 3, 6)" fill-opacity="0.54"/><path d="M80,151L124,125L90,134Z" fill="rgb(134, 71, 51)" fill-opacity="0.50"/><path d="M128,113L126,101L142,105Z" fill="rgb(226, 160, 143)" fill-opacity="0.53"/><path d="M77,80L99,87L80,88Z" fill="rgb(50, 13, 5)" fill-opacity="0.26"/><path d="M137,98L128,102L120,82Z" fill="rgb(61, 14, 0)" fill-opacity="0.38"/><path d="M105,174L139,132L113,168Z" fill="rgb(103, 64, 62)" fill-opacity="0.37"/><path d="M141,40L116,64L159,106Z" fill="rgb(12, 0, 0)" fill-opacity="0.43"/><path d="M125,111L158,120L133,124Z" fill="rgb(31, 0, 0)" fill-opacity="0.37"/><path d="M41,194L70,152L13,156Z" fill="rgb(118, 88, 66)" fill-opacity="0.79"/><path d="M62,73L-37,38L104,-13Z" fill="rgb(42, 20, 12)" fill-opacity="0.54"/><path d="M127,128L53,99L131,102Z" fill="rgb(248, 167, 152)" fill-opacity="0.16"/><path d="M61,77L87,54L91,71Z" fill="rgb(255, 183, 164)" fill-opacity="0.31"/><path d="M94,193L91,199L70,186Z" fill="rgb(185, 162, 160)" fill-opacity="0.72"/><path d="M66,131L77,129L60,116Z" fill="rgb(87, 25, 17)" fill-opacity="0.59"/><path d="M66,107L76,81L85,99Z" fill="rgb(255, 223, 205)" fill-opacity="0.34"/><path d="M87,146L105,171L134,137Z" fill="rgb(255, 255, 249)" fill-opacity="0.42"/><path d="M169,124L151,142L137,123Z" fill="rgb(112, 81, 57)" fill-opacity="0.38"/><path d="M80,141L71,131L120,117Z" fill="rgb(204, 136, 117)" fill-opacity="0.73"/><path d="M80,74L88,99L91,72Z" fill="rgb(51, 13, 5)" fill-opacity="0.19"/><path d="M142,106L147,94L131,85Z" fill="rgb(200, 107, 80)" fill-opacity="0.29"/><path d="M158,95L138,130L134,111Z" fill="rgb(13, 0, 0)" fill-opacity="0.41"/><path d="M69,97L47,122L70,48Z" fill="rgb(164, 52, 29)" fill-opacity="0.17"/><path d="M114,163L101,174L111,177Z" fill="rgb(198, 154, 139)" fill-opacity="0.76"/><path d="M80,83L108,86L110,80Z" fill="rgb(220, 169, 153)" fill-opacity="0.61"/><path d="M62,121L37,74L-22,165Z" fill="rgb(80, 62, 50)" fill-opacity="0.48"/><path d="M101,180L106,159L80,198Z" fill="rgb(255, 249, 232)" fill-opacity="0.43"/><path d="M106,55L105,74L83,70Z" fill="rgb(255, 251, 228)" fill-opacity="0.40"/><path d="M132,102L125,88L139,91Z" fill="rgb(57, 1, 0)" fill-opacity="0.37"/><path d="M59,23L78,59L27,69Z" fill="rgb(69, 45, 28)" fill-opacity="0.32"/><path d="M112,-14L303,12L155,79Z" fill="rgb(63, 41, 23)" fill-opacity="0.50"/><path d="M94,52L65,63L84,47Z" fill="rgb(121, 84, 64)" fill-opacity="0.44"/><path d="M81,119L60,121L87,121Z" fill="rgb(118, 2, 0)" fill-opacity="0.29"/><path d="M121,68L127,66L125,123Z" fill="rgb(131, 91, 70)" fill-opacity="0.45"/><path d="M95,155L97,153L70,153Z" fill="rgb(51, 4, 2)" fill-opacity="0.24"/><path d="M79,186L75,173L72,190Z" fill="rgb(173, 156, 165)" fill-opacity="0.38"/><path d="M78,153L89,144L71,148Z" fill="rgb(67, 33, 26)" fill-opacity="0.72"/><path d="M63,107L62,94L69,110Z" fill="rgb(169, 93, 73)" fill-opacity="0.62"/><path d="M87,177L87,169L70,180Z" fill="rgb(220, 204, 203)" fill-opacity="0.46"/><path d="M115,46L124,56L100,50Z" fill="rgb(157, 97, 70)" fill-opacity="0.40"/><path d="M185,56L188,98L288,62Z" fill="rgb(65, 46, 34)" fill-opacity="0.68"/><path d="M99,186L69,203L81,202Z" fill="rgb(152, 128, 135)" fill-opacity="0.30"/><path d="M71,111L85,140L83,111Z" fill="rgb(255, 171, 148)" fill-opacity="0.25"/><path d="M97,178L106,178L81,194Z" fill="rgb(254, 243, 231)" fill-opacity="0.54"/><path d="M54,185L75,198L69,175Z" fill="rgb(18, 7, 9)" fill-opacity="0.75"/><path d="M36,106L14,206L5,171Z" fill="rgb(101, 77, 59)" fill-opacity="0.61"/><path d="M136,123L135,134L125,152Z" fill="rgb(155, 119, 115)" fill-opacity="0.48"/><path d="M71,85L73,73L97,72Z" fill="rgb(178, 127, 109)" fill-opacity="0.53"/><path d="M90,86L85,82L87,89Z" fill="rgb(19, 0, 0)" fill-opacity="0.43"/></svg>