<svg xmlns="http://www.w3.org/2000/svg" viewBox="0 0 205.36888888888888 256" clip-path="url(#clip)"><defs><clipPath id="clip" clipPathUnits="objectBoundingBox"><rect x="0" y="0" width="205.36888888888888" height="256"/></clipPath></defs><rect x="0" y="0" width="205.36888888888888" height="256" fill="rgb(67, 57, 60)"/><path d="M109,193L66,17L150,72Z" fill="rgb(235, 196, 177)" fill-opacity="0.72"/><path d="M88,164L84,128L69,214Z" fill="rgb(199, 208, 219)" fill-opacity="0.86"/><path d="M103,143L140,118L103,192Z" fill="rgb(249, 255, 255)" fill-opacity="0.78"/><path d="M144,37L65,73L66,35Z" fill="rgb(255, 213, 185)" fill-opacity="0.55"/><path d="M70,64L116,24L130,65Z" fill="rgb(246, 212, 188)" fill-opacity="0.65"/><path d="M88,64L61,91L106,161Z" fill="rgb(143, 96, 83)" fill-opacity="1.00"/><path d="M-100,0L282,0L52,42Z" fill="rgb(93, 76, 77)" fill-opacity="1.00"/><path d="M93,143L81,134L82,161Z" fill="rgb(210, 214, 219)" fill-opacity="1.00"/><path d="M258,202L136,95L133,354Z" fill="rgb(32, 36, 48)" fill-opacity="0.79"/><path d="M127,58L146,56L136,80Z" fill="rgb(54, 39, 35)" fill-opacity="0.90"/><path d="M71,118L-258,62L72,291Z" fill="rgb(31, 26, 28)" fill-opacity="0.69"/><path d="M142,37L115,16L140,72Z" fill="rgb(50, 42, 39)" fill-opacity="0.90"/><path d="M83,163L108,157L96,136Z" fill="rgb(51, 51, 58)" fill-opacity="0.94"/><path d="M98,76L129,69L109,64Z" fill="rgb(56, 28, 24)" fill-opacity="0.54"/><path d="M171,270L71,257L133,133Z" fill="rgb(39, 42, 57)" fill-opacity="1.00"/><path d="M121,130L97,146L79,129Z" fill="rgb(54, 33, 29)" fill-opacity="0.56"/><path d="M89,72L116,104L135,78Z" fill="rgb(255, 206, 176)" fill-opacity="0.51"/><path d="M125,0L12,0L60,27Z" fill="rgb(126, 105, 108)" fill-opacity="0.49"/><path d="M123,25L98,9L55,38Z" fill="rgb(24, 20, 14)" fill-opacity="0.57"/><path d="M91,78L18,70L89,69Z" fill="rgb(74, 52, 46)" fill-opacity="0.90"/><path d="M126,147L134,113L138,122Z" fill="rgb(250, 248, 246)" fill-opacity="0.59"/><path d="M65,77L136,83L74,102Z" fill="rgb(255, 192, 156)" fill-opacity="0.31"/><path d="M81,95L106,97L98,103Z" fill="rgb(61, 9, 3)" fill-opacity="0.39"/><path d="M115,105L118,109L75,110Z" fill="rgb(119, 41, 32)" fill-opacity="0.45"/><path d="M86,37L62,50L75,30Z" fill="rgb(195, 136, 120)" fill-opacity="0.55"/><path d="M12,166L83,127L71,196Z" fill="rgb(30, 29, 34)" fill-opacity="1.00"/><path d="M94,83L117,26L77,45Z" fill="rgb(253, 228, 210)" fill-opacity="0.34"/><path d="M123,34L138,103L109,27Z" fill="rgb(209, 162, 140)" fill-opacity="0.64"/><path d="M99,135L65,317L69,219Z" fill="rgb(31, 34, 42)" fill-opacity="0.87"/><path d="M66,108L64,42L85,139Z" fill="rgb(155, 87, 68)" fill-opacity="0.51"/><path d="M123,74L97,71L104,66Z" fill="rgb(74, 45, 38)" fill-opacity="0.62"/><path d="M100,133L91,111L134,107Z" fill="rgb(255, 193, 175)" fill-opacity="0.36"/><path d="M125,127L91,146L148,102Z" fill="rgb(122, 86, 80)" fill-opacity="0.66"/><path d="M141,124L155,13L504,256Z" fill="rgb(81, 58, 52)" fill-opacity="0.78"/><path d="M76,102L102,133L73,115Z" fill="rgb(200, 131, 113)" fill-opacity="0.44"/><path d="M125,46L111,66L74,69Z" fill="rgb(239, 210, 188)" fill-opacity="0.56"/><path d="M0,199L-13,56L80,69Z" fill="rgb(74, 41, 31)" fill-opacity="0.44"/><path d="M71,218L89,138L73,184Z" fill="rgb(232, 244, 254)" fill-opacity="0.49"/><path d="M83,231L101,193L95,152Z" fill="rgb(47, 71, 108)" fill-opacity="0.52"/><path d="M60,31L56,59L65,83Z" fill="rgb(22, 16, 10)" fill-opacity="0.51"/><path d="M104,83L134,88L123,102Z" fill="rgb(253, 221, 193)" fill-opacity="0.39"/><path d="M51,272L53,205L94,223Z" fill="rgb(37, 44, 57)" fill-opacity="0.67"/><path d="M33,147L89,129L-106,4Z" fill="rgb(64, 41, 37)" fill-opacity="0.72"/><path d="M201,-5L120,16L-21,1Z" fill="rgb(113, 94, 96)" fill-opacity="0.56"/><path d="M148,65L106,-45L227,30Z" fill="rgb(97, 79, 77)" fill-opacity="0.56"/><path d="M99,97L90,96L97,63Z" fill="rgb(244, 210, 189)" fill-opacity="0.60"/><path d="M70,85L85,74L77,110Z" fill="rgb(255, 178, 154)" fill-opacity="0.27"/><path d="M63,45L65,72L84,63Z" fill="rgb(180, 114, 93)" fill-opacity="0.48"/><path d="M123,111L117,126L93,126Z" fill="rgb(247, 208, 187)" fill-opacity="0.39"/><path d="M137,113L106,152L115,168Z" fill="rgb(251, 253, 255)" fill-opacity="0.75"/><path d="M134,77L142,81L129,125Z" fill="rgb(180, 120, 99)" fill-opacity="0.53"/><path d="M136,115L104,183L136,128Z" fill="rgb(245, 251, 253)" fill-opacity="0.63"/><path d="M47,82L-46,0L60,35Z" fill="rgb(87, 66, 67)" fill-opacity="0.64"/><path d="M119,149L105,190L101,161Z" fill="rgb(232, 243, 250)" fill-opacity="0.67"/><path d="M95,144L80,129L106,133Z" fill="rgb(60, 40, 33)" fill-opacity="0.89"/><path d="M81,102L91,84L89,68Z" fill="rgb(121, 64, 46)" fill-opacity="0.59"/><path d="M136,123L100,144L116,165Z" fill="rgb(249, 251, 252)" fill-opacity="0.78"/><path d="M115,63L125,69L109,77Z" fill="rgb(97, 73, 73)" fill-opacity="0.63"/><path d="M141,126L131,106L156,76Z" fill="rgb(81, 46, 35)" fill-opacity="0.45"/><path d="M87,148L86,140L95,144Z" fill="rgb(228, 233, 235)" fill-opacity="0.63"/><path d="M138,119L192,155L117,192Z" fill="rgb(33, 35, 45)" fill-opacity="0.89"/><path d="M98,100L82,91L89,101Z" fill="rgb(28, 11, 3)" fill-opacity="0.27"/><path d="M106,116L102,125L55,93Z" fill="rgb(76, 7, 9)" fill-opacity="0.14"/><path d="M72,63L60,51L65,69Z" fill="rgb(108, 65, 50)" fill-opacity="0.36"/><path d="M95,39L70,19L114,14Z" fill="rgb(14, 10, 1)" fill-opacity="0.20"/><path d="M97,108L83,110L89,113Z" fill="rgb(74, 35, 28)" fill-opacity="0.59"/><path d="M99,98L116,91L89,100Z" fill="rgb(122, 70, 54)" fill-opacity="0.44"/><path d="M107,89L112,91L127,110Z" fill="rgb(182, 119, 100)" fill-opacity="0.66"/><path d="M42,58L8,-28L68,27Z" fill="rgb(98, 79, 83)" fill-opacity="0.50"/><path d="M12,245L22,136L71,207Z" fill="rgb(27, 30, 36)" fill-opacity="0.56"/><path d="M140,72L124,56L148,59Z" fill="rgb(37, 26, 22)" fill-opacity="0.38"/><path d="M122,124L91,141L127,125Z" fill="rgb(92, 65, 60)" fill-opacity="0.48"/><path d="M193,146L236,181L202,42Z" fill="rgb(14, 11, 4)" fill-opacity="0.17"/><path d="M101,107L116,97L88,106Z" fill="rgb(212, 162, 148)" fill-opacity="0.68"/><path d="M82,155L81,132L93,144Z" fill="rgb(237, 245, 249)" fill-opacity="0.35"/><path d="M94,154L73,194L75,173Z" fill="rgb(206, 219, 234)" fill-opacity="0.39"/><path d="M75,39L121,38L110,65Z" fill="rgb(242, 222, 202)" fill-opacity="0.37"/><path d="M86,155L103,177L97,140Z" fill="rgb(10, 15, 23)" fill-opacity="0.37"/><path d="M118,30L102,13L133,26Z" fill="rgb(47, 41, 37)" fill-opacity="0.67"/><path d="M69,82L76,128L60,84Z" fill="rgb(136, 77, 65)" fill-opacity="0.64"/><path d="M105,87L93,98L88,93Z" fill="rgb(237, 195, 173)" fill-opacity="0.43"/><path d="M108,81L126,81L101,76Z" fill="rgb(186, 125, 107)" fill-opacity="0.44"/><path d="M144,84L137,77L139,69Z" fill="rgb(234, 175, 158)" fill-opacity="0.46"/><path d="M113,75L132,71L131,100Z" fill="rgb(220, 181, 160)" fill-opacity="0.77"/><path d="M77,168L92,157L76,175Z" fill="rgb(163, 172, 184)" fill-opacity="0.94"/><path d="M112,172L103,159L103,194Z" fill="rgb(231, 239, 246)" fill-opacity="0.60"/><path d="M48,280L69,270L66,222Z" fill="rgb(51, 58, 80)" fill-opacity="0.60"/><path d="M17,273L-21,280L11,167Z" fill="rgb(62, 44, 41)" fill-opacity="0.70"/><path d="M162,244L186,184L178,303Z" fill="rgb(26, 30, 27)" fill-opacity="0.49"/><path d="M220,13L142,73L186,79Z" fill="rgb(82, 64, 58)" fill-opacity="0.45"/><path d="M150,90L145,52L236,56Z" fill="rgb(76, 59, 56)" fill-opacity="0.55"/><path d="M119,217L97,287L165,263Z" fill="rgb(47, 54, 75)" fill-opacity="0.54"/><path d="M111,69L119,69L130,74Z" fill="rgb(174, 143, 135)" fill-opacity="1.00"/><path d="M169,195L185,149L202,174Z" fill="rgb(43, 49, 70)" fill-opacity="0.44"/><path d="M72,34L63,51L85,71Z" fill="rgb(208, 148, 127)" fill-opacity="0.44"/><path d="M128,28L211,-2L189,46Z" fill="rgb(90, 73, 71)" fill-opacity="0.89"/><path d="M116,166L88,231L145,118Z" fill="rgb(14, 15, 10)" fill-opacity="0.33"/><path d="M120,65L98,69L101,72Z" fill="rgb(69, 41, 32)" fill-opacity="0.64"/><path d="M88,112L114,108L114,116Z" fill="rgb(253, 205, 201)" fill-opacity="0.29"/><path d="M70,86L58,79L95,84Z" fill="rgb(155, 100, 84)" fill-opacity="0.50"/></svg>