<svg xmlns="http://www.w3.org/2000/svg" viewBox="0 0 209.20430107526883 256" clip-path="url(#clip)"><defs><clipPath id="clip" clipPathUnits="objectBoundingBox"><rect x="0" y="0" width="209.20430107526883" height="256"/></clipPath></defs><rect x="0" y="0" width="209.20430107526883" height="256" fill="rgb(127, 137, 149)"/><path d="M-211,316L94,132L390,230Z" fill="rgb(47, 57, 78)" fill-opacity="0.99"/><path d="M114,38L344,-205L199,178Z" fill="rgb(255, 255, 248)" fill-opacity="0.45"/><path d="M161,72L69,254L58,-203Z" fill="rgb(140, 121, 104)" fill-opacity="0.67"/><path d="M66,-118L-272,311L47,161Z" fill="rgb(224, 234, 237)" fill-opacity="0.52"/><path d="M61,233L80,121L54,224Z" fill="rgb(103, 127, 176)" fill-opacity="0.78"/><path d="M142,117L90,210L94,160Z" fill="rgb(102, 137, 216)" fill-opacity="0.85"/><path d="M77,140L48,161L34,56Z" fill="rgb(181, 191, 199)" fill-opacity="0.89"/><path d="M137,127L37,328L271,252Z" fill="rgb(35, 43, 61)" fill-opacity="0.91"/><path d="M112,186L217,178L192,164Z" fill="rgb(28, 35, 51)" fill-opacity="0.87"/><path d="M99,179L31,356L77,149Z" fill="rgb(60, 76, 102)" fill-opacity="0.86"/><path d="M188,165L317,-142L130,121Z" fill="rgb(193, 203, 212)" fill-opacity="0.89"/><path d="M93,0L37,-14L44,33Z" fill="rgb(180, 191, 197)" fill-opacity="1.00"/><path d="M80,161L72,140L68,176Z" fill="rgb(117, 149, 219)" fill-opacity="0.80"/><path d="M139,75L116,55L25,66Z" fill="rgb(66, 35, 0)" fill-opacity="0.39"/><path d="M68,31L110,155L40,79Z" fill="rgb(132, 100, 65)" fill-opacity="0.57"/><path d="M151,28L62,19L108,0Z" fill="rgb(2, 17, 18)" fill-opacity="0.29"/><path d="M104,109L118,115L63,112Z" fill="rgb(50, 30, 21)" fill-opacity="0.57"/><path d="M141,60L110,16L59,55Z" fill="rgb(252, 197, 129)" fill-opacity="0.39"/><path d="M76,-11L182,31L314,7Z" fill="rgb(189, 201, 209)" fill-opacity="0.91"/><path d="M92,54L66,61L89,78Z" fill="rgb(1, 2, 1)" fill-opacity="0.35"/><path d="M69,134L115,142L83,162Z" fill="rgb(56, 40, 19)" fill-opacity="0.44"/><path d="M257,139L150,67L148,-56Z" fill="rgb(192, 202, 211)" fill-opacity="0.98"/><path d="M148,112L91,88L98,59Z" fill="rgb(220, 176, 131)" fill-opacity="0.54"/><path d="M83,19L67,33L144,68Z" fill="rgb(192, 162, 127)" fill-opacity="0.72"/><path d="M127,196L117,201L130,203Z" fill="rgb(209, 177, 163)" fill-opacity="0.72"/><path d="M166,79L59,73L73,95Z" fill="rgb(190, 155, 122)" fill-opacity="0.56"/><path d="M134,28L151,56L147,26Z" fill="rgb(67, 73, 73)" fill-opacity="0.57"/><path d="M87,165L98,177L81,185Z" fill="rgb(0, 3, 24)" fill-opacity="0.50"/><path d="M-32,243L8,279L11,175Z" fill="rgb(14, 21, 32)" fill-opacity="0.52"/><path d="M93,100L115,95L80,92Z" fill="rgb(71, 41, 15)" fill-opacity="0.54"/><path d="M141,-71L231,182L200,168Z" fill="rgb(191, 202, 211)" fill-opacity="0.93"/><path d="M47,163L11,178L-56,253Z" fill="rgb(47, 56, 74)" fill-opacity="1.00"/><path d="M173,155L196,72L145,139Z" fill="rgb(193, 203, 212)" fill-opacity="0.56"/><path d="M156,146L146,193L194,167Z" fill="rgb(26, 32, 46)" fill-opacity="0.79"/><path d="M121,58L103,63L133,66Z" fill="rgb(18, 22, 21)" fill-opacity="0.44"/><path d="M114,166L77,155L102,178Z" fill="rgb(116, 157, 255)" fill-opacity="0.45"/><path d="M59,28L82,6L53,51Z" fill="rgb(103, 105, 103)" fill-opacity="0.76"/><path d="M145,104L111,78L157,67Z" fill="rgb(169, 142, 112)" fill-opacity="0.98"/><path d="M-1,104L40,44L53,115Z" fill="rgb(181, 191, 200)" fill-opacity="1.00"/><path d="M68,147L51,223L71,153Z" fill="rgb(13, 26, 48)" fill-opacity="0.74"/><path d="M-1,196L-27,85L18,148Z" fill="rgb(175, 188, 196)" fill-opacity="0.97"/><path d="M76,151L65,102L111,125Z" fill="rgb(122, 98, 69)" fill-opacity="0.70"/><path d="M138,127L104,102L140,63Z" fill="rgb(182, 155, 120)" fill-opacity="0.55"/><path d="M64,100L44,74L48,59Z" fill="rgb(99, 41, 5)" fill-opacity="0.34"/><path d="M108,140L73,131L122,127Z" fill="rgb(157, 131, 101)" fill-opacity="0.82"/><path d="M94,211L97,179L86,185Z" fill="rgb(93, 126, 208)" fill-opacity="0.55"/><path d="M129,24L142,74L89,24Z" fill="rgb(196, 163, 121)" fill-opacity="0.60"/><path d="M159,153L147,136L109,172Z" fill="rgb(41, 51, 69)" fill-opacity="0.83"/><path d="M88,159L121,136L97,161Z" fill="rgb(46, 78, 154)" fill-opacity="0.52"/><path d="M149,99L131,42L158,78Z" fill="rgb(146, 117, 91)" fill-opacity="0.49"/><path d="M16,125L61,97L63,112Z" fill="rgb(181, 192, 200)" fill-opacity="1.00"/><path d="M103,184L102,161L148,104Z" fill="rgb(131, 163, 238)" fill-opacity="0.50"/><path d="M94,60L93,68L72,58Z" fill="rgb(38, 31, 22)" fill-opacity="0.60"/><path d="M74,179L65,187L55,225Z" fill="rgb(144, 178, 253)" fill-opacity="0.44"/><path d="M104,126L120,99L124,135Z" fill="rgb(138, 106, 65)" fill-opacity="0.58"/><path d="M138,123L155,185L133,120Z" fill="rgb(41, 51, 70)" fill-opacity="0.80"/><path d="M64,206L51,242L81,268Z" fill="rgb(68, 80, 99)" fill-opacity="0.92"/><path d="M107,62L126,70L115,74Z" fill="rgb(51, 41, 32)" fill-opacity="0.56"/><path d="M74,258L64,201L92,209Z" fill="rgb(67, 79, 97)" fill-opacity="0.93"/><path d="M45,6L55,64L25,47Z" fill="rgb(181, 191, 200)" fill-opacity="0.86"/><path d="M105,26L128,5L91,3Z" fill="rgb(0, 20, 32)" fill-opacity="0.20"/><path d="M59,80L60,37L82,36Z" fill="rgb(154, 136, 110)" fill-opacity="0.70"/><path d="M165,275L134,280L171,225Z" fill="rgb(11, 15, 26)" fill-opacity="0.58"/><path d="M55,89L54,47L62,49Z" fill="rgb(86, 72, 56)" fill-opacity="0.40"/><path d="M86,4L139,18L124,7Z" fill="rgb(64, 73, 77)" fill-opacity="0.61"/><path d="M74,-93L35,72L69,12Z" fill="rgb(181, 192, 199)" fill-opacity="0.96"/><path d="M123,1L320,-68L150,31Z" fill="rgb(188, 199, 207)" fill-opacity="0.85"/><path d="M158,88L668,252L151,12Z" fill="rgb(193, 203, 212)" fill-opacity="0.94"/><path d="M94,141L110,145L83,162Z" fill="rgb(41, 32, 29)" fill-opacity="0.51"/><path d="M187,197L236,277L208,172Z" fill="rgb(57, 68, 89)" fill-opacity="0.43"/><path d="M118,199L134,197L126,204Z" fill="rgb(246, 206, 183)" fill-opacity="0.29"/><path d="M68,44L96,19L106,67Z" fill="rgb(180, 148, 111)" fill-opacity="0.46"/><path d="M53,234L52,251L73,157Z" fill="rgb(130, 163, 240)" fill-opacity="0.39"/><path d="M71,60L72,23L86,27Z" fill="rgb(192, 181, 166)" fill-opacity="0.31"/><path d="M56,37L104,1L76,9Z" fill="rgb(89, 93, 92)" fill-opacity="0.61"/><path d="M84,116L114,123L116,115Z" fill="rgb(153, 125, 105)" fill-opacity="0.73"/><path d="M77,3L14,-5L127,1Z" fill="rgb(182, 193, 199)" fill-opacity="0.95"/><path d="M122,62L127,29L93,38Z" fill="rgb(211, 183, 165)" fill-opacity="0.28"/><path d="M131,101L98,64L100,80Z" fill="rgb(199, 167, 135)" fill-opacity="0.66"/><path d="M150,39L141,19L147,62Z" fill="rgb(0, 21, 36)" fill-opacity="0.19"/><path d="M66,68L86,78L84,66Z" fill="rgb(8, 3, 9)" fill-opacity="0.24"/><path d="M65,88L112,110L79,105Z" fill="rgb(172, 141, 114)" fill-opacity="0.45"/><path d="M112,86L155,67L118,98Z" fill="rgb(211, 185, 156)" fill-opacity="0.26"/><path d="M199,113L137,124L135,103Z" fill="rgb(191, 201, 210)" fill-opacity="0.81"/><path d="M121,113L76,114L90,108Z" fill="rgb(64, 48, 43)" fill-opacity="0.63"/><path d="M72,135L72,142L81,157Z" fill="rgb(0, 11, 42)" fill-opacity="0.46"/><path d="M139,58L125,17L142,34Z" fill="rgb(152, 125, 76)" fill-opacity="0.33"/><path d="M76,166L82,199L69,178Z" fill="rgb(39, 50, 67)" fill-opacity="0.50"/><path d="M147,94L142,60L142,80Z" fill="rgb(70, 51, 38)" fill-opacity="0.26"/><path d="M75,87L54,100L46,77Z" fill="rgb(137, 108, 77)" fill-opacity="0.59"/><path d="M148,68L203,69L151,48Z" fill="rgb(192, 203, 212)" fill-opacity="0.84"/><path d="M135,122L138,126L135,135Z" fill="rgb(33, 45, 69)" fill-opacity="0.79"/><path d="M105,199L133,205L83,274Z" fill="rgb(54, 61, 82)" fill-opacity="0.30"/><path d="M48,282L29,254L55,213Z" fill="rgb(26, 34, 51)" fill-opacity="0.43"/><path d="M28,42L74,143L60,154Z" fill="rgb(183, 195, 205)" fill-opacity="0.53"/><path d="M78,162L73,143L65,183Z" fill="rgb(117, 145, 207)" fill-opacity="0.84"/><path d="M98,156L96,175L85,160Z" fill="rgb(104, 138, 217)" fill-opacity="0.54"/><path d="M103,131L101,118L75,124Z" fill="rgb(76, 55, 30)" fill-opacity="0.32"/><path d="M92,146L74,138L82,157Z" fill="rgb(137, 119, 86)" fill-opacity="0.60"/><path d="M130,121L119,138L104,146Z" fill="rgb(89, 71, 48)" fill-opacity="0.59"/></svg>