<svg xmlns="http://www.w3.org/2000/svg" viewBox="0 0 214.61333333333334 256" clip-path="url(#clip)"><defs><clipPath id="clip" clipPathUnits="objectBoundingBox"><rect x="0" y="0" width="214.61333333333334" height="256"/></clipPath></defs><rect x="0" y="0" width="214.61333333333334" height="256" fill="rgb(119, 121, 113)"/><path d="M461,172L56,108L-90,363Z" fill="rgb(6, 7, 8)" fill-opacity="0.83"/><path d="M418,141L161,-40L92,171Z" fill="rgb(73, 75, 55)" fill-opacity="0.73"/><path d="M96,142L116,173L123,140Z" fill="rgb(243, 255, 255)" fill-opacity="0.80"/><path d="M103,160L115,180L107,179Z" fill="rgb(250, 255, 255)" fill-opacity="0.54"/><path d="M71,91L123,32L112,116Z" fill="rgb(240, 183, 156)" fill-opacity="0.74"/><path d="M99,206L108,205L107,242Z" fill="rgb(204, 224, 220)" fill-opacity="0.64"/><path d="M69,488L194,175L128,112Z" fill="rgb(4, 3, 4)" fill-opacity="0.86"/><path d="M68,27L122,30L58,94Z" fill="rgb(60, 31, 15)" fill-opacity="0.56"/><path d="M75,115L49,55L37,137Z" fill="rgb(110, 123, 113)" fill-opacity="0.88"/><path d="M0,186L2,227L0,268Z" fill="rgb(251, 255, 255)" fill-opacity="0.69"/><path d="M213,250L170,134L217,-73Z" fill="rgb(70, 78, 60)" fill-opacity="0.77"/><path d="M116,43L88,58L127,69Z" fill="rgb(255, 252, 226)" fill-opacity="0.59"/><path d="M86,86L68,97L54,51Z" fill="rgb(35, 0, 4)" fill-opacity="0.28"/><path d="M69,87L110,119L84,113Z" fill="rgb(252, 181, 148)" fill-opacity="0.42"/><path d="M90,67L125,48L115,69Z" fill="rgb(251, 237, 215)" fill-opacity="0.73"/><path d="M100,122L149,-46L128,112Z" fill="rgb(163, 51, 0)" fill-opacity="0.21"/><path d="M1,169L1,240L44,126Z" fill="rgb(40, 57, 63)" fill-opacity="0.50"/><path d="M2,90L0,-34L0,269Z" fill="rgb(232, 241, 242)" fill-opacity="0.73"/><path d="M129,78L125,93L76,77Z" fill="rgb(255, 208, 178)" fill-opacity="0.43"/><path d="M196,67L118,93L192,170Z" fill="rgb(93, 104, 85)" fill-opacity="0.61"/><path d="M116,190L-123,460L83,136Z" fill="rgb(0, 0, 5)" fill-opacity="0.61"/><path d="M125,141L87,143L127,104Z" fill="rgb(6, 0, 0)" fill-opacity="0.60"/><path d="M95,142L123,144L118,169Z" fill="rgb(228, 255, 249)" fill-opacity="0.56"/><path d="M109,69L104,79L90,70Z" fill="rgb(59, 27, 0)" fill-opacity="0.39"/><path d="M174,150L210,253L169,287Z" fill="rgb(4, 4, 4)" fill-opacity="1.00"/><path d="M1,2L43,45L215,-1Z" fill="rgb(121, 107, 75)" fill-opacity="0.55"/><path d="M1,35L51,107L1,151Z" fill="rgb(113, 134, 131)" fill-opacity="0.93"/><path d="M99,119L99,113L64,97Z" fill="rgb(227, 252, 233)" fill-opacity="0.40"/><path d="M120,50L103,47L95,71Z" fill="rgb(255, 255, 248)" fill-opacity="0.62"/><path d="M84,43L122,34L125,45Z" fill="rgb(86, 66, 48)" fill-opacity="0.90"/><path d="M121,44L127,65L109,70Z" fill="rgb(250, 212, 166)" fill-opacity="0.43"/><path d="M34,134L76,178L17,175Z" fill="rgb(25, 29, 37)" fill-opacity="0.72"/><path d="M117,117L115,98L68,101Z" fill="rgb(175, 122, 101)" fill-opacity="0.62"/><path d="M116,140L118,153L127,137Z" fill="rgb(158, 156, 114)" fill-opacity="0.33"/><path d="M109,237L176,152L151,132Z" fill="rgb(9, 8, 9)" fill-opacity="0.91"/><path d="M113,28L170,104L183,-54Z" fill="rgb(110, 106, 80)" fill-opacity="0.65"/><path d="M82,87L75,117L56,127Z" fill="rgb(94, 95, 77)" fill-opacity="0.49"/><path d="M-12,268L130,278L94,219Z" fill="rgb(4, 4, 6)" fill-opacity="1.00"/><path d="M114,75L83,79L104,97Z" fill="rgb(255, 201, 174)" fill-opacity="0.58"/><path d="M208,90L190,1L293,1Z" fill="rgb(51, 44, 23)" fill-opacity="0.33"/><path d="M144,76L130,87L126,46Z" fill="rgb(55, 37, 23)" fill-opacity="0.56"/><path d="M119,180L97,192L115,223Z" fill="rgb(6, 6, 6)" fill-opacity="0.98"/><path d="M89,50L91,79L102,49Z" fill="rgb(176, 120, 87)" fill-opacity="0.57"/><path d="M81,71L100,65L82,79Z" fill="rgb(249, 203, 174)" fill-opacity="0.58"/><path d="M127,139L52,135L80,108Z" fill="rgb(19, 17, 18)" fill-opacity="0.69"/><path d="M76,39L83,-30L1,66Z" fill="rgb(118, 121, 105)" fill-opacity="0.54"/><path d="M0,209L5,211L28,95Z" fill="rgb(104, 123, 120)" fill-opacity="0.45"/><path d="M142,85L126,66L111,72Z" fill="rgb(81, 50, 35)" fill-opacity="0.53"/><path d="M68,85L112,90L79,102Z" fill="rgb(216, 114, 94)" fill-opacity="0.30"/><path d="M109,180L112,172L112,184Z" fill="rgb(179, 193, 183)" fill-opacity="0.72"/><path d="M138,207L111,232L105,203Z" fill="rgb(12, 12, 12)" fill-opacity="0.96"/><path d="M105,203L101,217L109,231Z" fill="rgb(224, 248, 255)" fill-opacity="0.47"/><path d="M100,160L111,181L102,157Z" fill="rgb(230, 249, 250)" fill-opacity="0.43"/><path d="M1,29L18,3L1,-3Z" fill="rgb(10, 22, 0)" fill-opacity="0.16"/><path d="M130,115L115,107L118,84Z" fill="rgb(100, 55, 38)" fill-opacity="0.59"/><path d="M99,206L106,206L109,237Z" fill="rgb(214, 236, 239)" fill-opacity="0.33"/><path d="M93,23L57,72L89,69Z" fill="rgb(74, 56, 46)" fill-opacity="0.60"/><path d="M62,86L82,74L71,97Z" fill="rgb(84, 4, 4)" fill-opacity="0.21"/><path d="M205,240L204,181L330,395Z" fill="rgb(46, 47, 30)" fill-opacity="0.70"/><path d="M2,1L32,1L1,6Z" fill="rgb(88, 83, 70)" fill-opacity="0.88"/><path d="M5,203L87,168L4,253Z" fill="rgb(12, 15, 23)" fill-opacity="0.73"/><path d="M103,230L108,231L106,244Z" fill="rgb(80, 78, 64)" fill-opacity="0.71"/><path d="M116,175L116,143L96,141Z" fill="rgb(231, 255, 249)" fill-opacity="0.39"/><path d="M111,186L101,160L112,173Z" fill="rgb(236, 255, 245)" fill-opacity="0.25"/><path d="M8,140L30,87L1,105Z" fill="rgb(130, 150, 149)" fill-opacity="0.53"/><path d="M168,142L140,130L189,179Z" fill="rgb(13, 11, 11)" fill-opacity="0.56"/><path d="M76,42L82,53L88,42Z" fill="rgb(115, 92, 70)" fill-opacity="0.63"/><path d="M1,265L1,235L21,268Z" fill="rgb(47, 51, 51)" fill-opacity="0.79"/><path d="M113,115L21,159L39,134Z" fill="rgb(26, 27, 32)" fill-opacity="0.57"/><path d="M118,86L82,74L96,97Z" fill="rgb(255, 202, 182)" fill-opacity="0.31"/><path d="M110,44L94,67L106,69Z" fill="rgb(255, 255, 251)" fill-opacity="0.49"/><path d="M204,85L172,148L195,188Z" fill="rgb(78, 85, 70)" fill-opacity="0.63"/><path d="M1,133L1,193L37,134Z" fill="rgb(93, 115, 108)" fill-opacity="0.57"/><path d="M80,86L62,48L59,80Z" fill="rgb(58, 60, 62)" fill-opacity="0.43"/><path d="M162,-102L153,38L207,32Z" fill="rgb(103, 88, 61)" fill-opacity="0.37"/><path d="M213,85L124,111L162,140Z" fill="rgb(88, 101, 82)" fill-opacity="0.60"/><path d="M53,1L228,1L18,-161Z" fill="rgb(216, 214, 210)" fill-opacity="0.40"/><path d="M102,116L108,142L151,131Z" fill="rgb(13, 9, 9)" fill-opacity="0.58"/><path d="M60,127L107,178L86,122Z" fill="rgb(22, 20, 20)" fill-opacity="0.94"/><path d="M23,161L1,197L11,192Z" fill="rgb(81, 90, 87)" fill-opacity="0.76"/><path d="M111,110L119,101L113,89Z" fill="rgb(149, 87, 71)" fill-opacity="0.70"/><path d="M200,159L209,100L239,164Z" fill="rgb(44, 53, 39)" fill-opacity="0.41"/><path d="M121,63L109,78L118,42Z" fill="rgb(243, 215, 182)" fill-opacity="0.48"/><path d="M94,27L98,65L102,34Z" fill="rgb(95, 72, 48)" fill-opacity="0.76"/><path d="M159,22L135,51L84,3Z" fill="rgb(125, 115, 89)" fill-opacity="0.53"/><path d="M110,91L126,107L130,90Z" fill="rgb(112, 54, 36)" fill-opacity="0.42"/><path d="M103,49L90,50L116,42Z" fill="rgb(144, 83, 41)" fill-opacity="0.47"/><path d="M1,261L1,48L-168,71Z" fill="rgb(252, 255, 254)" fill-opacity="0.98"/><path d="M120,91L120,95L106,91Z" fill="rgb(68, 11, 0)" fill-opacity="0.26"/><path d="M1,70L36,64L9,14Z" fill="rgb(104, 123, 117)" fill-opacity="0.88"/><path d="M92,109L82,111L77,104Z" fill="rgb(250, 255, 247)" fill-opacity="0.49"/><path d="M5,145L74,95L67,122Z" fill="rgb(103, 117, 108)" fill-opacity="0.72"/><path d="M116,181L109,163L86,129Z" fill="rgb(26, 24, 13)" fill-opacity="0.72"/><path d="M148,145L84,126L128,113Z" fill="rgb(16, 13, 12)" fill-opacity="0.81"/><path d="M115,78L114,70L120,69Z" fill="rgb(94, 51, 29)" fill-opacity="0.57"/><path d="M0,57L2,-43L-41,3Z" fill="rgb(254, 255, 252)" fill-opacity="0.93"/><path d="M102,109L118,110L104,115Z" fill="rgb(235, 171, 152)" fill-opacity="0.42"/><path d="M104,169L114,178L98,153Z" fill="rgb(199, 209, 208)" fill-opacity="0.35"/><path d="M-8,1L52,1L122,-93Z" fill="rgb(255, 237, 217)" fill-opacity="0.29"/><path d="M142,152L183,167L195,207Z" fill="rgb(6, 6, 6)" fill-opacity="0.97"/></svg>