<svg xmlns="http://www.w3.org/2000/svg" viewBox="0 0 234.4 256" clip-path="url(#clip)"><defs><clipPath id="clip" clipPathUnits="objectBoundingBox"><rect x="0" y="0" width="234.4" height="256"/></clipPath></defs><rect x="0" y="0" width="234.4" height="256" fill="rgb(101, 95, 63)"/><path d="M167,235L95,228L203,437Z" fill="rgb(226, 229, 245)" fill-opacity="0.81"/><path d="M25,124L146,203L192,-294Z" fill="rgb(184, 163, 138)" fill-opacity="0.88"/><path d="M103,-5L163,-52L164,34Z" fill="rgb(82, 86, 68)" fill-opacity="0.98"/><path d="M21,216L380,273L-212,67Z" fill="rgb(0, 0, 20)" fill-opacity="0.56"/><path d="M696,-279L174,18L178,202Z" fill="rgb(227, 207, 40)" fill-opacity="0.70"/><path d="M-65,2L83,1L-5,135Z" fill="rgb(0, 5, 14)" fill-opacity="0.65"/><path d="M167,239L108,252L160,221Z" fill="rgb(211, 214, 219)" fill-opacity="0.89"/><path d="M158,392L90,215L-118,216Z" fill="rgb(28, 29, 31)" fill-opacity="0.99"/><path d="M88,171L63,137L150,172Z" fill="rgb(241, 240, 255)" fill-opacity="0.68"/><path d="M70,13L79,-16L116,3Z" fill="rgb(30, 36, 41)" fill-opacity="0.80"/><path d="M42,58L65,18L140,154Z" fill="rgb(195, 182, 159)" fill-opacity="0.78"/><path d="M107,83L143,76L128,103Z" fill="rgb(34, 25, 20)" fill-opacity="0.73"/><path d="M152,90L65,19L182,51Z" fill="rgb(255, 216, 148)" fill-opacity="0.42"/><path d="M-46,310L51,149L17,65Z" fill="rgb(58, 53, 42)" fill-opacity="1.00"/><path d="M65,129L101,37L146,179Z" fill="rgb(253, 184, 108)" fill-opacity="0.35"/><path d="M58,168L72,126L41,164Z" fill="rgb(113, 112, 104)" fill-opacity="1.00"/><path d="M178,201L160,179L177,150Z" fill="rgb(192, 175, 97)" fill-opacity="0.73"/><path d="M331,34L159,18L209,100Z" fill="rgb(211, 201, 50)" fill-opacity="0.66"/><path d="M128,236L123,176L183,196Z" fill="rgb(0, 0, 4)" fill-opacity="0.42"/><path d="M119,77L150,83L107,98Z" fill="rgb(45, 38, 31)" fill-opacity="0.61"/><path d="M74,51L124,23L122,81Z" fill="rgb(225, 202, 161)" fill-opacity="0.73"/><path d="M155,320L129,235L92,224Z" fill="rgb(215, 216, 224)" fill-opacity="0.95"/><path d="M76,88L69,141L92,124Z" fill="rgb(147, 62, 1)" fill-opacity="0.33"/><path d="M84,36L163,-18L61,35Z" fill="rgb(57, 99, 132)" fill-opacity="0.36"/><path d="M161,300L276,239L185,207Z" fill="rgb(1, 6, 11)" fill-opacity="0.70"/><path d="M42,84L44,53L67,92Z" fill="rgb(126, 129, 123)" fill-opacity="1.00"/><path d="M51,33L24,141L-233,-149Z" fill="rgb(28, 29, 25)" fill-opacity="0.77"/><path d="M63,133L53,170L36,99Z" fill="rgb(134, 135, 126)" fill-opacity="0.90"/><path d="M-12,339L65,152L96,174Z" fill="rgb(26, 26, 27)" fill-opacity="0.92"/><path d="M158,105L150,85L184,79Z" fill="rgb(10, 0, 10)" fill-opacity="0.54"/><path d="M65,153L121,186L125,159Z" fill="rgb(219, 227, 243)" fill-opacity="0.67"/><path d="M69,154L108,155L67,138Z" fill="rgb(232, 229, 233)" fill-opacity="0.96"/><path d="M20,164L52,190L-77,273Z" fill="rgb(95, 75, 53)" fill-opacity="0.82"/><path d="M160,183L124,196L235,265Z" fill="rgb(15, 17, 17)" fill-opacity="0.90"/><path d="M224,223L158,187L257,90Z" fill="rgb(160, 114, 40)" fill-opacity="0.46"/><path d="M148,83L112,121L159,124Z" fill="rgb(243, 194, 153)" fill-opacity="0.56"/><path d="M172,137L180,112L173,187Z" fill="rgb(224, 207, 105)" fill-opacity="0.44"/><path d="M144,192L131,142L166,148Z" fill="rgb(166, 73, 45)" fill-opacity="0.34"/><path d="M159,84L168,71L147,30Z" fill="rgb(217, 183, 138)" fill-opacity="0.75"/><path d="M57,168L71,169L64,130Z" fill="rgb(31, 35, 38)" fill-opacity="0.54"/><path d="M146,15L88,18L169,40Z" fill="rgb(54, 109, 156)" fill-opacity="0.29"/><path d="M101,25L135,75L103,83Z" fill="rgb(225, 201, 161)" fill-opacity="0.90"/><path d="M181,206L159,176L214,213Z" fill="rgb(171, 153, 57)" fill-opacity="0.61"/><path d="M172,149L131,127L177,116Z" fill="rgb(114, 8, 0)" fill-opacity="0.29"/><path d="M116,25L100,16L110,16Z" fill="rgb(57, 66, 56)" fill-opacity="0.83"/><path d="M177,58L178,127L164,37Z" fill="rgb(101, 65, 38)" fill-opacity="0.72"/><path d="M169,240L156,214L130,258Z" fill="rgb(202, 208, 212)" fill-opacity="0.49"/><path d="M111,186L151,184L167,167Z" fill="rgb(111, 62, 49)" fill-opacity="0.65"/><path d="M83,90L73,106L71,96Z" fill="rgb(37, 60, 57)" fill-opacity="0.51"/><path d="M41,96L61,136L66,81Z" fill="rgb(215, 88, 0)" fill-opacity="0.22"/><path d="M189,18L145,2L224,-23Z" fill="rgb(131, 119, 60)" fill-opacity="0.83"/><path d="M137,124L158,136L156,128Z" fill="rgb(71, 29, 6)" fill-opacity="0.44"/><path d="M50,89L65,87L55,80Z" fill="rgb(21, 39, 21)" fill-opacity="0.46"/><path d="M112,-3L30,117L52,35Z" fill="rgb(147, 165, 180)" fill-opacity="0.42"/><path d="M69,108L-45,192L62,103Z" fill="rgb(58, 22, 0)" fill-opacity="0.19"/><path d="M116,12L78,9L104,7Z" fill="rgb(50, 66, 76)" fill-opacity="0.43"/><path d="M163,176L171,161L179,163Z" fill="rgb(210, 228, 255)" fill-opacity="0.60"/><path d="M122,158L156,165L127,182Z" fill="rgb(201, 162, 127)" fill-opacity="0.93"/><path d="M237,133L209,159L258,168Z" fill="rgb(179, 155, 49)" fill-opacity="0.95"/><path d="M131,95L143,111L158,77Z" fill="rgb(212, 179, 145)" fill-opacity="0.77"/><path d="M77,145L146,127L147,144Z" fill="rgb(217, 185, 148)" fill-opacity="0.65"/><path d="M346,-53L203,40L214,72Z" fill="rgb(207, 199, 92)" fill-opacity="0.66"/><path d="M131,157L168,168L172,147Z" fill="rgb(75, 23, 19)" fill-opacity="0.31"/><path d="M43,194L45,120L-95,4Z" fill="rgb(46, 48, 42)" fill-opacity="0.49"/><path d="M149,200L173,248L207,252Z" fill="rgb(18, 22, 26)" fill-opacity="0.72"/><path d="M150,31L107,16L122,3Z" fill="rgb(168, 179, 184)" fill-opacity="0.50"/><path d="M82,92L47,72L81,58Z" fill="rgb(176, 191, 201)" fill-opacity="0.45"/><path d="M151,175L153,161L127,168Z" fill="rgb(253, 207, 164)" fill-opacity="0.31"/><path d="M119,95L135,98L117,112Z" fill="rgb(143, 92, 56)" fill-opacity="0.56"/><path d="M133,126L145,124L136,133Z" fill="rgb(104, 50, 23)" fill-opacity="0.55"/><path d="M146,88L140,80L152,82Z" fill="rgb(146, 115, 70)" fill-opacity="0.72"/><path d="M161,148L118,146L161,145Z" fill="rgb(102, 59, 34)" fill-opacity="0.69"/><path d="M159,44L84,30L110,24Z" fill="rgb(207, 184, 135)" fill-opacity="0.74"/><path d="M53,164L45,127L56,126Z" fill="rgb(182, 192, 193)" fill-opacity="0.37"/><path d="M149,10L171,34L150,29Z" fill="rgb(0, 19, 15)" fill-opacity="0.40"/><path d="M111,11L74,12L60,28Z" fill="rgb(167, 178, 188)" fill-opacity="0.50"/><path d="M213,37L230,8L164,29Z" fill="rgb(195, 182, 2)" fill-opacity="0.43"/><path d="M78,99L109,120L86,128Z" fill="rgb(212, 155, 96)" fill-opacity="0.69"/><path d="M72,35L88,34L77,30Z" fill="rgb(58, 58, 34)" fill-opacity="0.51"/><path d="M39,107L54,120L66,99Z" fill="rgb(241, 181, 125)" fill-opacity="0.35"/><path d="M33,109L39,127L54,34Z" fill="rgb(182, 192, 182)" fill-opacity="0.33"/><path d="M151,128L156,100L158,124Z" fill="rgb(212, 152, 125)" fill-opacity="0.62"/><path d="M168,78L151,94L182,84Z" fill="rgb(20, 20, 16)" fill-opacity="0.64"/><path d="M115,-15L146,29L132,-10Z" fill="rgb(67, 74, 73)" fill-opacity="0.86"/><path d="M95,147L69,154L103,177Z" fill="rgb(233, 233, 240)" fill-opacity="0.61"/><path d="M145,232L120,235L56,139Z" fill="rgb(37, 46, 63)" fill-opacity="0.37"/><path d="M152,186L140,188L117,184Z" fill="rgb(186, 199, 218)" fill-opacity="0.52"/><path d="M48,75L49,88L68,86Z" fill="rgb(55, 70, 57)" fill-opacity="0.35"/><path d="M176,102L177,72L180,88Z" fill="rgb(82, 59, 33)" fill-opacity="0.71"/><path d="M61,132L54,108L73,133Z" fill="rgb(234, 187, 131)" fill-opacity="0.54"/><path d="M114,86L124,92L100,89Z" fill="rgb(85, 84, 76)" fill-opacity="0.53"/><path d="M59,134L78,141L76,132Z" fill="rgb(94, 55, 37)" fill-opacity="0.54"/><path d="M123,77L112,84L144,80Z" fill="rgb(19, 34, 24)" fill-opacity="0.51"/><path d="M116,134L134,125L128,119Z" fill="rgb(174, 114, 73)" fill-opacity="0.68"/><path d="M171,1L302,-128L231,5Z" fill="rgb(207, 193, 96)" fill-opacity="0.36"/><path d="M126,229L132,189L109,179Z" fill="rgb(37, 43, 50)" fill-opacity="0.92"/><path d="M186,267L193,325L163,230Z" fill="rgb(91, 116, 131)" fill-opacity="0.57"/><path d="M70,142L45,111L46,118Z" fill="rgb(57, 33, 12)" fill-opacity="0.34"/><path d="M117,5L164,-4L6,2Z" fill="rgb(61, 64, 67)" fill-opacity="0.63"/><path d="M89,48L48,58L47,73Z" fill="rgb(138, 143, 133)" fill-opacity="0.54"/></svg>