<svg xmlns="http://www.w3.org/2000/svg" viewBox="0 0 256 256" clip-path="url(#clip)"><defs><clipPath id="clip" clipPathUnits="objectBoundingBox"><rect x="0" y="0" width="256" height="256"/></clipPath></defs><rect x="0" y="0" width="256" height="256" fill="rgb(30, 30, 25)"/><path d="M99,347L245,74L83,25Z" fill="rgb(177, 130, 112)" fill-opacity="0.73"/><path d="M137,208L162,175L149,331Z" fill="rgb(222, 225, 221)" fill-opacity="0.96"/><path d="M-354,134L123,299L56,96Z" fill="rgb(0, 5, 8)" fill-opacity="0.90"/><path d="M81,164L113,269L122,243Z" fill="rgb(229, 254, 255)" fill-opacity="0.71"/><path d="M108,36L99,126L176,57Z" fill="rgb(244, 167, 142)" fill-opacity="0.71"/><path d="M145,221L118,207L123,275Z" fill="rgb(24, 28, 39)" fill-opacity="0.85"/><path d="M163,154L156,289L388,244Z" fill="rgb(0, 6, 11)" fill-opacity="0.89"/><path d="M493,235L152,-86L189,171Z" fill="rgb(92, 77, 51)" fill-opacity="0.86"/><path d="M-206,72L134,-53L77,93Z" fill="rgb(0, 6, 7)" fill-opacity="0.75"/><path d="M68,155L153,180L113,206Z" fill="rgb(44, 26, 21)" fill-opacity="0.81"/><path d="M103,231L87,193L120,208Z" fill="rgb(250, 254, 251)" fill-opacity="0.73"/><path d="M188,122L172,149L184,109Z" fill="rgb(253, 165, 141)" fill-opacity="0.52"/><path d="M114,69L55,88L133,90Z" fill="rgb(90, 59, 51)" fill-opacity="0.67"/><path d="M122,83L139,178L178,106Z" fill="rgb(218, 127, 107)" fill-opacity="0.72"/><path d="M141,229L147,263L135,237Z" fill="rgb(245, 250, 239)" fill-opacity="0.71"/><path d="M164,11L187,117L192,56Z" fill="rgb(28, 26, 23)" fill-opacity="0.95"/><path d="M104,43L136,87L167,50Z" fill="rgb(255, 191, 162)" fill-opacity="0.68"/><path d="M173,157L78,133L118,176Z" fill="rgb(234, 136, 109)" fill-opacity="0.47"/><path d="M103,190L197,145L117,213Z" fill="rgb(59, 33, 24)" fill-opacity="0.52"/><path d="M131,240L120,214L102,228Z" fill="rgb(0, 9, 17)" fill-opacity="0.65"/><path d="M83,135L134,136L81,72Z" fill="rgb(237, 127, 103)" fill-opacity="0.42"/><path d="M148,137L91,137L144,146Z" fill="rgb(64, 12, 8)" fill-opacity="0.58"/><path d="M144,69L177,61L172,82Z" fill="rgb(255, 185, 146)" fill-opacity="0.48"/><path d="M124,231L150,229L142,219Z" fill="rgb(33, 35, 44)" fill-opacity="0.80"/><path d="M155,-42L172,28L87,46Z" fill="rgb(78, 91, 90)" fill-opacity="0.50"/><path d="M108,224L142,264L131,216Z" fill="rgb(17, 22, 31)" fill-opacity="0.75"/><path d="M62,90L108,129L67,135Z" fill="rgb(106, 63, 46)" fill-opacity="0.54"/><path d="M143,117L112,115L134,127Z" fill="rgb(35, 2, 1)" fill-opacity="0.53"/><path d="M93,26L110,21L108,47Z" fill="rgb(121, 127, 136)" fill-opacity="0.41"/><path d="M188,136L169,149L191,173Z" fill="rgb(56, 50, 28)" fill-opacity="0.59"/><path d="M147,75L169,78L175,92Z" fill="rgb(48, 13, 0)" fill-opacity="0.37"/><path d="M111,261L99,217L121,244Z" fill="rgb(255, 255, 245)" fill-opacity="0.72"/><path d="M127,92L177,99L156,123Z" fill="rgb(255, 166, 147)" fill-opacity="0.47"/><path d="M157,235L132,211L162,189Z" fill="rgb(255, 255, 255)" fill-opacity="0.64"/><path d="M158,311L131,221L115,261Z" fill="rgb(29, 31, 40)" fill-opacity="1.00"/><path d="M196,-25L190,164L231,177Z" fill="rgb(131, 115, 80)" fill-opacity="0.51"/><path d="M89,195L81,166L106,201Z" fill="rgb(95, 155, 173)" fill-opacity="0.60"/><path d="M97,165L96,124L78,156Z" fill="rgb(117, 65, 43)" fill-opacity="0.43"/><path d="M172,127L187,108L190,60Z" fill="rgb(11, 0, 0)" fill-opacity="0.50"/><path d="M104,160L151,159L136,173Z" fill="rgb(230, 152, 131)" fill-opacity="0.63"/><path d="M95,66L103,43L142,80Z" fill="rgb(242, 172, 138)" fill-opacity="0.44"/><path d="M99,224L102,197L119,214Z" fill="rgb(254, 255, 254)" fill-opacity="0.76"/><path d="M129,98L175,109L130,117Z" fill="rgb(242, 158, 138)" fill-opacity="0.54"/><path d="M146,116L172,128L158,168Z" fill="rgb(183, 106, 84)" fill-opacity="1.00"/><path d="M354,227L159,178L187,163Z" fill="rgb(11, 14, 20)" fill-opacity="0.80"/><path d="M153,235L127,218L149,228Z" fill="rgb(37, 42, 53)" fill-opacity="0.64"/><path d="M110,203L121,218L154,179Z" fill="rgb(128, 74, 61)" fill-opacity="0.63"/><path d="M168,17L158,15L151,-101Z" fill="rgb(92, 93, 63)" fill-opacity="0.90"/><path d="M108,170L136,176L108,153Z" fill="rgb(223, 138, 110)" fill-opacity="0.29"/><path d="M160,170L120,195L104,182Z" fill="rgb(33, 21, 18)" fill-opacity="0.72"/><path d="M151,75L170,102L136,87Z" fill="rgb(132, 68, 59)" fill-opacity="0.51"/><path d="M189,46L118,31L178,15Z" fill="rgb(0, 8, 27)" fill-opacity="0.28"/><path d="M148,22L112,26L149,14Z" fill="rgb(94, 103, 121)" fill-opacity="0.50"/><path d="M200,67L211,171L192,163Z" fill="rgb(140, 117, 80)" fill-opacity="0.52"/><path d="M100,128L148,123L155,140Z" fill="rgb(219, 146, 133)" fill-opacity="0.56"/><path d="M82,62L68,140L102,33Z" fill="rgb(76, 61, 49)" fill-opacity="0.54"/><path d="M93,46L25,50L87,-69Z" fill="rgb(0, 4, 4)" fill-opacity="0.64"/><path d="M165,159L176,161L171,115Z" fill="rgb(132, 90, 65)" fill-opacity="0.85"/><path d="M152,156L154,172L169,151Z" fill="rgb(143, 88, 67)" fill-opacity="0.80"/><path d="M149,265L142,285L136,243Z" fill="rgb(49, 51, 61)" fill-opacity="0.86"/><path d="M157,208L160,182L130,215Z" fill="rgb(255, 255, 249)" fill-opacity="0.57"/><path d="M154,142L98,132L116,144Z" fill="rgb(58, 15, 10)" fill-opacity="0.36"/><path d="M76,94L82,78L36,103Z" fill="rgb(33, 29, 24)" fill-opacity="0.94"/><path d="M160,46L183,76L176,51Z" fill="rgb(85, 66, 62)" fill-opacity="0.55"/><path d="M118,18L141,46L171,49Z" fill="rgb(70, 54, 59)" fill-opacity="0.49"/><path d="M138,85L86,73L115,71Z" fill="rgb(49, 19, 0)" fill-opacity="0.23"/><path d="M144,114L84,110L85,89Z" fill="rgb(255, 165, 143)" fill-opacity="0.33"/><path d="M146,113L127,125L147,119Z" fill="rgb(51, 2, 0)" fill-opacity="0.38"/><path d="M112,78L132,79L124,115Z" fill="rgb(172, 103, 88)" fill-opacity="0.62"/><path d="M167,89L144,85L160,82Z" fill="rgb(239, 159, 149)" fill-opacity="0.50"/><path d="M22,155L42,168L-28,205Z" fill="rgb(18, 24, 32)" fill-opacity="0.69"/><path d="M122,89L97,87L111,82Z" fill="rgb(61, 28, 26)" fill-opacity="0.61"/><path d="M172,95L149,89L153,95Z" fill="rgb(2, 0, 8)" fill-opacity="0.38"/><path d="M365,-8L234,89L235,-13Z" fill="rgb(68, 51, 31)" fill-opacity="0.75"/><path d="M124,87L102,79L116,79Z" fill="rgb(205, 150, 137)" fill-opacity="0.67"/><path d="M83,151L135,186L80,170Z" fill="rgb(53, 35, 27)" fill-opacity="0.57"/><path d="M228,178L202,74L229,20Z" fill="rgb(103, 89, 61)" fill-opacity="0.95"/><path d="M118,112L97,155L96,115Z" fill="rgb(199, 107, 86)" fill-opacity="0.50"/><path d="M146,112L156,118L161,104Z" fill="rgb(255, 191, 175)" fill-opacity="0.54"/><path d="M72,127L66,131L66,118Z" fill="rgb(174, 140, 129)" fill-opacity="0.37"/><path d="M154,86L137,94L141,122Z" fill="rgb(85, 0, 0)" fill-opacity="0.12"/><path d="M86,122L108,148L87,151Z" fill="rgb(201, 142, 113)" fill-opacity="0.31"/><path d="M170,55L119,42L148,77Z" fill="rgb(255, 202, 171)" fill-opacity="0.41"/><path d="M81,109L78,91L97,66Z" fill="rgb(106, 76, 60)" fill-opacity="0.67"/><path d="M190,103L181,139L170,145Z" fill="rgb(234, 159, 134)" fill-opacity="0.41"/><path d="M85,134L26,127L76,233Z" fill="rgb(1, 3, 1)" fill-opacity="0.38"/><path d="M114,-27L117,17L73,23Z" fill="rgb(2, 8, 9)" fill-opacity="0.66"/><path d="M162,174L132,207L134,213Z" fill="rgb(198, 142, 129)" fill-opacity="0.58"/><path d="M138,161L168,146L127,142Z" fill="rgb(192, 120, 99)" fill-opacity="0.71"/><path d="M162,46L184,48L165,26Z" fill="rgb(4, 6, 5)" fill-opacity="0.55"/><path d="M44,64L76,25L106,41Z" fill="rgb(11, 17, 21)" fill-opacity="0.32"/><path d="M189,102L193,64L178,93Z" fill="rgb(2, 5, 0)" fill-opacity="0.43"/><path d="M140,74L168,66L169,76Z" fill="rgb(245, 182, 148)" fill-opacity="0.53"/><path d="M190,65L199,-53L208,22Z" fill="rgb(88, 90, 63)" fill-opacity="0.70"/><path d="M139,230L150,266L135,240Z" fill="rgb(249, 255, 241)" fill-opacity="0.38"/><path d="M167,248L127,205L161,246Z" fill="rgb(29, 41, 52)" fill-opacity="0.25"/><path d="M-16,99L23,80L68,106Z" fill="rgb(11, 27, 25)" fill-opacity="0.50"/><path d="M170,70L180,79L178,62Z" fill="rgb(130, 98, 91)" fill-opacity="0.47"/><path d="M266,196L260,152L219,169Z" fill="rgb(100, 73, 49)" fill-opacity="0.72"/><path d="M174,53L110,35L92,22Z" fill="rgb(90, 75, 76)" fill-opacity="0.53"/></svg>