<svg version="1.1" id="Capa_1" xmlns="http://www.w3.org/2000/svg" xmlns:xlink="http://www.w3.org/1999/xlink" x="0px" y="0px"
	 width="612px" height="792px" viewBox="0 0 612 792" enable-background="new 0 0 612 792" xml:space="preserve">
<g>
	<g id="c185_triangle">
		<path d="M107.486,689.454v-48.236l298.461-235.364c2.91-2.429,4.689-6.035,4.689-9.859s-1.779-7.479-4.689-9.859L107.486,150.724
			v-48.213c0-4.785,2.765-9.21,7.142-11.278c4.28-2.067,9.498-1.538,13.201,1.467l372.043,293.412
			c2.934,2.404,4.665,6.035,4.665,9.859s-1.731,7.455-4.665,9.859L127.829,699.266c-3.703,3.029-8.921,3.559-13.201,1.467
			C110.275,698.641,107.486,694.24,107.486,689.454z"/>
	</g>
	<g id="Capa_1_58_">
	</g>
</g>
</svg>
