<svg xmlns="http://www.w3.org/2000/svg" viewBox="0 0 188.56782334384857 256" clip-path="url(#clip)"><defs><clipPath id="clip" clipPathUnits="objectBoundingBox"><rect x="0" y="0" width="188.56782334384857" height="256"/></clipPath></defs><rect x="0" y="0" width="188.56782334384857" height="256" fill="rgb(56, 49, 44)"/><path d="M69,136L140,-67L149,176Z" fill="rgb(217, 189, 183)" fill-opacity="0.65"/><path d="M25,150L97,183L30,136Z" fill="rgb(223, 225, 233)" fill-opacity="0.73"/><path d="M151,97L71,41L143,30Z" fill="rgb(255, 247, 242)" fill-opacity="0.57"/><path d="M136,233L161,248L105,170Z" fill="rgb(181, 170, 160)" fill-opacity="0.92"/><path d="M137,146L103,152L120,212Z" fill="rgb(246, 216, 208)" fill-opacity="0.49"/><path d="M135,154L114,15L152,137Z" fill="rgb(236, 230, 226)" fill-opacity="0.60"/><path d="M168,61L92,-1L140,-119Z" fill="rgb(42, 37, 26)" fill-opacity="0.82"/><path d="M116,76L106,129L132,122Z" fill="rgb(71, 3, 0)" fill-opacity="0.58"/><path d="M25,123L85,25L116,200Z" fill="rgb(129, 61, 60)" fill-opacity="0.61"/><path d="M118,186L123,169L132,185Z" fill="rgb(234, 232, 231)" fill-opacity="0.79"/><path d="M230,334L126,200L144,140Z" fill="rgb(39, 32, 26)" fill-opacity="0.89"/><path d="M53,79L165,-70L-63,46Z" fill="rgb(6, 2, 0)" fill-opacity="0.50"/><path d="M117,253L-48,263L14,133Z" fill="rgb(4, 0, 2)" fill-opacity="0.54"/><path d="M103,126L112,89L80,104Z" fill="rgb(255, 255, 247)" fill-opacity="0.41"/><path d="M154,138L126,122L138,148Z" fill="rgb(215, 220, 220)" fill-opacity="0.61"/><path d="M35,156L44,251L100,186Z" fill="rgb(22, 15, 13)" fill-opacity="0.99"/><path d="M134,18L153,85L72,65Z" fill="rgb(255, 241, 234)" fill-opacity="0.28"/><path d="M63,149L120,137L114,149Z" fill="rgb(83, 39, 37)" fill-opacity="0.77"/><path d="M91,95L59,48L111,28Z" fill="rgb(157, 93, 82)" fill-opacity="0.38"/><path d="M120,185L176,209L122,195Z" fill="rgb(34, 31, 25)" fill-opacity="0.96"/><path d="M169,286L160,248L135,222Z" fill="rgb(232, 203, 184)" fill-opacity="0.37"/><path d="M123,13L136,25L139,43Z" fill="rgb(165, 150, 139)" fill-opacity="0.99"/><path d="M117,28L101,106L97,35Z" fill="rgb(205, 191, 186)" fill-opacity="0.58"/><path d="M31,91L33,77L164,90Z" fill="rgb(109, 56, 56)" fill-opacity="0.61"/><path d="M31,51L66,-4L117,28Z" fill="rgb(9, 4, 2)" fill-opacity="0.54"/><path d="M148,141L176,288L128,172Z" fill="rgb(37, 33, 26)" fill-opacity="0.95"/><path d="M121,87L145,128L127,82Z" fill="rgb(230, 218, 212)" fill-opacity="0.82"/><path d="M162,48L199,-20L190,210Z" fill="rgb(168, 84, 66)" fill-opacity="0.22"/><path d="M125,96L147,129L144,90Z" fill="rgb(225, 213, 207)" fill-opacity="0.98"/><path d="M97,137L108,125L111,140Z" fill="rgb(194, 217, 226)" fill-opacity="0.49"/><path d="M137,120L108,113L102,128Z" fill="rgb(56, 14, 9)" fill-opacity="0.46"/><path d="M98,130L100,83L115,102Z" fill="rgb(228, 211, 204)" fill-opacity="0.41"/><path d="M52,146L65,171L24,148Z" fill="rgb(244, 248, 255)" fill-opacity="0.34"/><path d="M117,165L116,189L19,131Z" fill="rgb(84, 39, 39)" fill-opacity="0.59"/><path d="M132,122L144,132L99,137Z" fill="rgb(228, 244, 252)" fill-opacity="0.40"/><path d="M144,88L129,86L132,93Z" fill="rgb(68, 35, 30)" fill-opacity="0.58"/><path d="M92,139L82,131L89,142Z" fill="rgb(210, 238, 240)" fill-opacity="0.55"/><path d="M142,151L114,168L92,150Z" fill="rgb(235, 227, 212)" fill-opacity="0.27"/><path d="M99,135L65,161L87,176Z" fill="rgb(59, 22, 21)" fill-opacity="0.37"/><path d="M114,26L81,8L110,12Z" fill="rgb(90, 54, 48)" fill-opacity="0.65"/><path d="M107,38L146,52L149,93Z" fill="rgb(232, 226, 222)" fill-opacity="0.81"/><path d="M124,165L105,172L122,172Z" fill="rgb(104, 42, 37)" fill-opacity="0.60"/><path d="M107,191L116,188L158,242Z" fill="rgb(213, 218, 204)" fill-opacity="0.51"/><path d="M178,282L89,235L104,189Z" fill="rgb(84, 44, 41)" fill-opacity="0.83"/><path d="M82,150L90,52L35,89Z" fill="rgb(117, 55, 53)" fill-opacity="0.56"/><path d="M111,200L127,199L135,224Z" fill="rgb(224, 208, 178)" fill-opacity="0.28"/><path d="M162,105L142,91L179,84Z" fill="rgb(62, 50, 41)" fill-opacity="0.76"/><path d="M61,59L74,32L94,44Z" fill="rgb(136, 77, 73)" fill-opacity="0.38"/><path d="M126,176L112,192L131,182Z" fill="rgb(243, 255, 255)" fill-opacity="0.45"/><path d="M113,189L152,233L150,248Z" fill="rgb(199, 196, 184)" fill-opacity="0.79"/><path d="M143,39L148,52L134,32Z" fill="rgb(133, 103, 89)" fill-opacity="0.90"/><path d="M97,228L52,199L108,186Z" fill="rgb(61, 29, 26)" fill-opacity="0.61"/><path d="M85,7L149,20L77,-173Z" fill="rgb(25, 31, 20)" fill-opacity="0.82"/><path d="M150,203L220,296L194,280Z" fill="rgb(125, 61, 63)" fill-opacity="0.42"/><path d="M151,64L189,178L146,132Z" fill="rgb(72, 53, 41)" fill-opacity="0.54"/><path d="M110,2L133,31L123,26Z" fill="rgb(65, 31, 24)" fill-opacity="0.52"/><path d="M121,115L121,132L114,119Z" fill="rgb(70, 36, 32)" fill-opacity="0.81"/><path d="M50,148L73,170L24,139Z" fill="rgb(241, 250, 252)" fill-opacity="0.36"/><path d="M177,249L150,248L159,224Z" fill="rgb(17, 0, 0)" fill-opacity="0.30"/><path d="M35,63L-6,297L-62,-147Z" fill="rgb(38, 37, 36)" fill-opacity="0.68"/><path d="M80,-2L50,82L24,76Z" fill="rgb(13, 5, 6)" fill-opacity="0.48"/><path d="M85,116L84,94L98,122Z" fill="rgb(159, 128, 117)" fill-opacity="0.63"/><path d="M134,140L158,169L119,131Z" fill="rgb(94, 71, 61)" fill-opacity="0.28"/><path d="M31,101L35,126L12,169Z" fill="rgb(42, 40, 41)" fill-opacity="0.76"/><path d="M122,136L127,136L127,149Z" fill="rgb(91, 36, 20)" fill-opacity="0.38"/><path d="M129,208L169,236L136,188Z" fill="rgb(19, 12, 11)" fill-opacity="0.46"/><path d="M125,180L114,177L131,164Z" fill="rgb(217, 199, 190)" fill-opacity="0.53"/><path d="M116,87L95,80L109,78Z" fill="rgb(252, 246, 240)" fill-opacity="0.42"/><path d="M92,47L136,34L120,26Z" fill="rgb(215, 199, 194)" fill-opacity="0.58"/><path d="M130,79L146,78L128,88Z" fill="rgb(139, 123, 115)" fill-opacity="0.34"/><path d="M32,140L94,127L89,114Z" fill="rgb(110, 59, 57)" fill-opacity="0.76"/><path d="M100,88L104,96L109,90Z" fill="rgb(223, 214, 212)" fill-opacity="0.69"/><path d="M98,83L119,88L82,87Z" fill="rgb(29, 6, 2)" fill-opacity="0.41"/><path d="M141,88L128,109L147,127Z" fill="rgb(232, 221, 216)" fill-opacity="0.62"/><path d="M104,188L123,179L83,176Z" fill="rgb(149, 115, 113)" fill-opacity="0.41"/><path d="M239,133L184,26L175,161Z" fill="rgb(90, 65, 56)" fill-opacity="0.70"/><path d="M27,136L26,149L62,158Z" fill="rgb(228, 238, 241)" fill-opacity="0.29"/><path d="M34,12L60,-22L25,-11Z" fill="rgb(83, 67, 60)" fill-opacity="0.44"/><path d="M130,142L95,145L118,146Z" fill="rgb(91, 37, 31)" fill-opacity="0.51"/><path d="M46,80L70,68L71,30Z" fill="rgb(59, 18, 20)" fill-opacity="0.34"/><path d="M87,97L42,79L100,74Z" fill="rgb(103, 49, 46)" fill-opacity="0.44"/><path d="M1,236L16,228L42,301Z" fill="rgb(1, 10, 9)" fill-opacity="0.51"/><path d="M150,129L151,134L122,177Z" fill="rgb(200, 189, 182)" fill-opacity="0.92"/><path d="M130,86L148,88L151,75Z" fill="rgb(223, 215, 208)" fill-opacity="0.58"/><path d="M143,130L124,105L127,115Z" fill="rgb(159, 124, 113)" fill-opacity="0.63"/><path d="M190,253L126,175L164,137Z" fill="rgb(44, 40, 31)" fill-opacity="0.68"/><path d="M120,80L127,127L111,75Z" fill="rgb(116, 62, 57)" fill-opacity="0.73"/><path d="M86,44L67,52L98,60Z" fill="rgb(157, 119, 103)" fill-opacity="0.42"/><path d="M52,269L135,290L99,243Z" fill="rgb(65, 39, 36)" fill-opacity="0.67"/><path d="M111,110L101,85L92,111Z" fill="rgb(207, 193, 190)" fill-opacity="0.65"/><path d="M128,13L152,9L143,37Z" fill="rgb(41, 35, 26)" fill-opacity="0.67"/><path d="M125,138L117,166L127,139Z" fill="rgb(204, 184, 171)" fill-opacity="0.43"/><path d="M109,16L47,19L111,27Z" fill="rgb(7, 0, 0)" fill-opacity="0.43"/><path d="M83,205L90,236L120,202Z" fill="rgb(73, 39, 36)" fill-opacity="0.73"/><path d="M123,215L131,221L129,217Z" fill="rgb(51, 34, 25)" fill-opacity="0.54"/><path d="M140,35L150,81L105,72Z" fill="rgb(237, 232, 229)" fill-opacity="0.37"/><path d="M114,203L110,203L124,192Z" fill="rgb(161, 156, 138)" fill-opacity="0.53"/><path d="M94,130L86,142L93,125Z" fill="rgb(167, 167, 168)" fill-opacity="0.59"/><path d="M106,143L108,154L117,151Z" fill="rgb(156, 113, 104)" fill-opacity="0.40"/><path d="M92,10L132,17L106,17Z" fill="rgb(250, 185, 175)" fill-opacity="0.21"/></svg>