<svg xmlns="http://www.w3.org/2000/svg" viewBox="0 0 211.9298245614035 256" clip-path="url(#clip)"><defs><clipPath id="clip" clipPathUnits="objectBoundingBox"><rect x="0" y="0" width="211.9298245614035" height="256"/></clipPath></defs><rect x="0" y="0" width="211.9298245614035" height="256" fill="rgb(105, 91, 68)"/><path d="M97,157L135,288L-55,243Z" fill="rgb(17, 10, 5)" fill-opacity="0.60"/><path d="M178,68L125,195L78,53Z" fill="rgb(213, 160, 121)" fill-opacity="0.69"/><path d="M58,188L239,288L156,183Z" fill="rgb(24, 11, 5)" fill-opacity="0.58"/><path d="M85,99L167,-148L150,104Z" fill="rgb(255, 255, 210)" fill-opacity="0.18"/><path d="M153,242L182,338L116,238Z" fill="rgb(252, 235, 218)" fill-opacity="0.58"/><path d="M173,-180L261,292L145,155Z" fill="rgb(137, 117, 86)" fill-opacity="0.71"/><path d="M126,191L82,119L119,98Z" fill="rgb(163, 113, 80)" fill-opacity="1.00"/><path d="M87,188L75,170L176,68Z" fill="rgb(161, 113, 79)" fill-opacity="0.57"/><path d="M156,111L145,190L115,150Z" fill="rgb(187, 134, 100)" fill-opacity="0.82"/><path d="M124,237L136,233L103,209Z" fill="rgb(34, 17, 10)" fill-opacity="0.57"/><path d="M89,-56L22,226L-93,123Z" fill="rgb(136, 114, 82)" fill-opacity="0.43"/><path d="M166,287L196,283L160,224Z" fill="rgb(48, 38, 25)" fill-opacity="0.94"/><path d="M205,225L194,262L232,253Z" fill="rgb(53, 50, 37)" fill-opacity="0.81"/><path d="M175,138L165,207L235,239Z" fill="rgb(128, 109, 78)" fill-opacity="0.96"/><path d="M86,162L46,238L65,128Z" fill="rgb(39, 20, 9)" fill-opacity="0.55"/><path d="M147,204L161,246L138,214Z" fill="rgb(168, 147, 116)" fill-opacity="0.42"/><path d="M157,103L121,63L97,93Z" fill="rgb(255, 212, 174)" fill-opacity="0.47"/><path d="M85,39L78,69L110,49Z" fill="rgb(83, 67, 43)" fill-opacity="0.51"/><path d="M155,121L119,111L131,155Z" fill="rgb(201, 149, 112)" fill-opacity="0.97"/><path d="M73,116L52,130L47,83Z" fill="rgb(49, 21, 4)" fill-opacity="0.41"/><path d="M160,150L129,190L89,157Z" fill="rgb(161, 109, 75)" fill-opacity="0.66"/><path d="M124,116L165,111L134,102Z" fill="rgb(125, 82, 56)" fill-opacity="0.59"/><path d="M152,162L168,191L137,212Z" fill="rgb(36, 22, 13)" fill-opacity="0.67"/><path d="M87,45L43,115L64,57Z" fill="rgb(79, 66, 45)" fill-opacity="0.64"/><path d="M107,150L88,120L114,113Z" fill="rgb(229, 171, 129)" fill-opacity="0.49"/><path d="M17,224L17,202L31,218Z" fill="rgb(149, 116, 57)" fill-opacity="0.55"/><path d="M104,218L126,238L125,253Z" fill="rgb(120, 102, 77)" fill-opacity="0.71"/><path d="M81,231L73,235L74,243Z" fill="rgb(241, 191, 110)" fill-opacity="0.41"/><path d="M142,189L100,187L67,158Z" fill="rgb(96, 61, 36)" fill-opacity="0.75"/><path d="M97,98L92,117L120,106Z" fill="rgb(97, 60, 33)" fill-opacity="0.54"/><path d="M137,46L150,82L154,55Z" fill="rgb(73, 45, 31)" fill-opacity="0.27"/><path d="M126,117L97,76L145,68Z" fill="rgb(236, 196, 159)" fill-opacity="0.44"/><path d="M98,172L73,163L78,67Z" fill="rgb(112, 63, 30)" fill-opacity="0.49"/><path d="M129,147L115,128L110,142Z" fill="rgb(112, 61, 36)" fill-opacity="0.49"/><path d="M160,257L134,238L155,237Z" fill="rgb(172, 152, 130)" fill-opacity="0.58"/><path d="M96,115L88,63L72,64Z" fill="rgb(142, 105, 71)" fill-opacity="0.64"/><path d="M37,-10L123,67L192,-16Z" fill="rgb(128, 110, 83)" fill-opacity="0.73"/><path d="M139,188L32,191L136,243Z" fill="rgb(32, 9, 5)" fill-opacity="0.31"/><path d="M126,241L195,426L147,245Z" fill="rgb(251, 240, 229)" fill-opacity="0.41"/><path d="M75,95L64,94L74,65Z" fill="rgb(137, 129, 111)" fill-opacity="0.56"/><path d="M-197,164L50,187L66,145Z" fill="rgb(121, 104, 75)" fill-opacity="0.81"/><path d="M90,186L74,163L84,185Z" fill="rgb(223, 245, 222)" fill-opacity="0.30"/><path d="M139,250L115,235L123,234Z" fill="rgb(243, 224, 200)" fill-opacity="0.23"/><path d="M134,187L161,185L159,227Z" fill="rgb(37, 21, 12)" fill-opacity="0.67"/><path d="M76,169L41,212L65,154Z" fill="rgb(43, 28, 17)" fill-opacity="0.75"/><path d="M88,52L90,40L117,38Z" fill="rgb(74, 62, 43)" fill-opacity="0.55"/><path d="M148,43L126,56L122,26Z" fill="rgb(161, 151, 132)" fill-opacity="0.50"/><path d="M146,185L137,182L150,164Z" fill="rgb(220, 251, 238)" fill-opacity="0.34"/><path d="M171,176L255,38L145,142Z" fill="rgb(135, 115, 87)" fill-opacity="0.55"/><path d="M134,142L134,137L112,145Z" fill="rgb(125, 70, 46)" fill-opacity="0.46"/><path d="M76,245L17,203L36,190Z" fill="rgb(43, 36, 25)" fill-opacity="0.91"/><path d="M17,216L4,201L21,212Z" fill="rgb(3, 3, 0)" fill-opacity="0.41"/><path d="M109,168L116,182L142,168Z" fill="rgb(245, 196, 149)" fill-opacity="0.25"/><path d="M105,162L131,170L108,146Z" fill="rgb(124, 79, 50)" fill-opacity="0.56"/><path d="M122,114L122,138L104,98Z" fill="rgb(99, 46, 22)" fill-opacity="0.25"/><path d="M129,220L100,217L137,244Z" fill="rgb(65, 50, 35)" fill-opacity="0.71"/><path d="M155,113L153,81L142,98Z" fill="rgb(194, 148, 110)" fill-opacity="0.70"/><path d="M128,221L133,236L149,244Z" fill="rgb(125, 109, 85)" fill-opacity="0.61"/><path d="M149,163L139,187L148,178Z" fill="rgb(200, 195, 173)" fill-opacity="0.38"/><path d="M74,166L58,75L59,142Z" fill="rgb(80, 53, 33)" fill-opacity="0.61"/><path d="M205,225L195,236L179,208Z" fill="rgb(138, 104, 55)" fill-opacity="0.62"/><path d="M173,119L172,78L142,57Z" fill="rgb(137, 123, 103)" fill-opacity="0.74"/><path d="M128,70L141,61L122,44Z" fill="rgb(150, 129, 104)" fill-opacity="0.64"/><path d="M130,145L150,115L146,166Z" fill="rgb(214, 153, 114)" fill-opacity="0.35"/><path d="M150,57L143,47L132,56Z" fill="rgb(80, 50, 26)" fill-opacity="0.32"/><path d="M155,80L156,120L169,129Z" fill="rgb(112, 92, 68)" fill-opacity="0.73"/><path d="M59,60L204,-33L68,20Z" fill="rgb(129, 111, 82)" fill-opacity="0.69"/><path d="M94,157L97,143L107,170Z" fill="rgb(195, 138, 97)" fill-opacity="0.49"/><path d="M135,212L152,224L146,209Z" fill="rgb(166, 152, 133)" fill-opacity="0.33"/><path d="M75,235L77,240L82,234Z" fill="rgb(185, 150, 95)" fill-opacity="0.53"/><path d="M62,135L32,194L18,85Z" fill="rgb(122, 104, 76)" fill-opacity="0.77"/><path d="M147,76L100,66L148,98Z" fill="rgb(234, 203, 172)" fill-opacity="0.34"/><path d="M138,171L130,162L137,159Z" fill="rgb(217, 164, 120)" fill-opacity="0.45"/><path d="M147,58L181,40L218,143Z" fill="rgb(129, 113, 85)" fill-opacity="0.87"/><path d="M59,91L41,108L58,122Z" fill="rgb(12, 7, 1)" fill-opacity="0.19"/><path d="M71,113L67,130L82,140Z" fill="rgb(142, 119, 93)" fill-opacity="0.41"/><path d="M100,51L83,85L118,107Z" fill="rgb(200, 149, 101)" fill-opacity="0.33"/><path d="M93,88L107,93L87,109Z" fill="rgb(197, 139, 95)" fill-opacity="0.47"/><path d="M31,193L154,192L88,227Z" fill="rgb(36, 21, 14)" fill-opacity="0.58"/><path d="M97,125L108,110L112,150Z" fill="rgb(207, 161, 120)" fill-opacity="0.49"/><path d="M110,53L124,49L125,65Z" fill="rgb(98, 83, 61)" fill-opacity="0.46"/><path d="M99,147L92,124L82,162Z" fill="rgb(141, 81, 46)" fill-opacity="0.49"/><path d="M141,43L153,39L166,72Z" fill="rgb(142, 125, 105)" fill-opacity="0.56"/><path d="M77,173L71,154L95,184Z" fill="rgb(102, 99, 74)" fill-opacity="0.54"/><path d="M158,82L164,81L150,65Z" fill="rgb(176, 167, 148)" fill-opacity="0.45"/><path d="M107,214L109,229L130,251Z" fill="rgb(120, 102, 75)" fill-opacity="0.46"/><path d="M62,133L73,138L60,80Z" fill="rgb(104, 69, 48)" fill-opacity="0.53"/><path d="M112,44L109,34L123,44Z" fill="rgb(88, 79, 60)" fill-opacity="0.65"/><path d="M102,117L107,110L43,90Z" fill="rgb(98, 68, 42)" fill-opacity="0.46"/><path d="M126,167L131,162L107,159Z" fill="rgb(121, 81, 50)" fill-opacity="0.85"/><path d="M128,69L109,54L88,59Z" fill="rgb(195, 145, 105)" fill-opacity="0.37"/><path d="M62,147L79,139L58,137Z" fill="rgb(24, 14, 0)" fill-opacity="0.26"/><path d="M85,117L92,113L77,65Z" fill="rgb(122, 84, 52)" fill-opacity="0.69"/><path d="M145,136L147,160L167,121Z" fill="rgb(164, 108, 81)" fill-opacity="0.49"/><path d="M144,244L137,237L124,291Z" fill="rgb(219, 205, 189)" fill-opacity="0.47"/><path d="M146,171L129,189L120,186Z" fill="rgb(133, 94, 64)" fill-opacity="0.90"/><path d="M18,224L23,220L-4,199Z" fill="rgb(152, 112, 59)" fill-opacity="0.53"/><path d="M156,128L120,135L149,116Z" fill="rgb(225, 182, 143)" fill-opacity="0.26"/><path d="M87,122L81,116L123,112Z" fill="rgb(173, 128, 96)" fill-opacity="0.44"/><path d="M212,239L209,375L164,224Z" fill="rgb(52, 48, 36)" fill-opacity="1.00"/></svg>