<svg xmlns="http://www.w3.org/2000/svg" viewBox="0 0 204.47284345047925 256" clip-path="url(#clip)"><defs><clipPath id="clip" clipPathUnits="objectBoundingBox"><rect x="0" y="0" width="204.47284345047925" height="256"/></clipPath></defs><rect x="0" y="0" width="204.47284345047925" height="256" fill="rgb(35, 28, 35)"/><path d="M96,258L177,59L34,27Z" fill="rgb(206, 161, 136)" fill-opacity="0.65"/><path d="M124,185L156,127L102,180Z" fill="rgb(235, 245, 251)" fill-opacity="0.68"/><path d="M75,191L99,180L74,151Z" fill="rgb(233, 246, 254)" fill-opacity="0.73"/><path d="M123,17L141,76L22,97Z" fill="rgb(255, 208, 163)" fill-opacity="0.32"/><path d="M153,216L139,34L192,65Z" fill="rgb(56, 40, 41)" fill-opacity="0.86"/><path d="M13,273L16,37L57,15Z" fill="rgb(55, 42, 43)" fill-opacity="1.00"/><path d="M60,358L153,206L79,190Z" fill="rgb(49, 39, 50)" fill-opacity="0.70"/><path d="M93,88L117,159L138,93Z" fill="rgb(235, 191, 156)" fill-opacity="0.41"/><path d="M78,155L107,138L87,131Z" fill="rgb(111, 45, 22)" fill-opacity="0.55"/><path d="M87,192L89,219L95,194Z" fill="rgb(154, 165, 167)" fill-opacity="0.71"/><path d="M96,180L116,182L90,246Z" fill="rgb(102, 32, 50)" fill-opacity="0.88"/><path d="M40,89L92,103L69,137Z" fill="rgb(249, 204, 161)" fill-opacity="0.31"/><path d="M143,53L44,28L122,16Z" fill="rgb(118, 73, 58)" fill-opacity="0.65"/><path d="M63,248L25,231L78,108Z" fill="rgb(78, 76, 74)" fill-opacity="0.63"/><path d="M121,184L112,205L110,194Z" fill="rgb(222, 232, 248)" fill-opacity="0.55"/><path d="M55,106L70,55L56,48Z" fill="rgb(201, 183, 166)" fill-opacity="0.94"/><path d="M118,166L99,177L72,135Z" fill="rgb(111, 58, 41)" fill-opacity="0.70"/><path d="M73,56L100,41L50,30Z" fill="rgb(94, 60, 50)" fill-opacity="0.70"/><path d="M57,200L76,141L-49,234Z" fill="rgb(93, 100, 95)" fill-opacity="0.34"/><path d="M29,46L68,140L36,135Z" fill="rgb(72, 54, 50)" fill-opacity="0.95"/><path d="M73,176L120,176L81,184Z" fill="rgb(220, 224, 228)" fill-opacity="0.82"/><path d="M105,34L139,84L78,61Z" fill="rgb(203, 172, 145)" fill-opacity="0.75"/><path d="M29,76L38,54L57,93Z" fill="rgb(85, 63, 57)" fill-opacity="0.65"/><path d="M58,117L72,142L66,100Z" fill="rgb(206, 185, 165)" fill-opacity="0.55"/><path d="M149,143L114,200L197,236Z" fill="rgb(51, 51, 56)" fill-opacity="0.86"/><path d="M144,153L148,127L114,184Z" fill="rgb(232, 237, 239)" fill-opacity="0.65"/><path d="M73,4L48,51L-137,-50Z" fill="rgb(30, 22, 28)" fill-opacity="0.75"/><path d="M74,144L91,178L73,176Z" fill="rgb(214, 216, 220)" fill-opacity="0.80"/><path d="M80,18L102,77L95,17Z" fill="rgb(152, 110, 89)" fill-opacity="0.38"/><path d="M216,148L140,78L138,125Z" fill="rgb(113, 72, 53)" fill-opacity="0.39"/><path d="M61,28L48,53L80,20Z" fill="rgb(221, 186, 157)" fill-opacity="0.28"/><path d="M75,85L95,87L95,102Z" fill="rgb(90, 33, 15)" fill-opacity="0.42"/><path d="M102,139L125,149L98,159Z" fill="rgb(219, 175, 142)" fill-opacity="0.46"/><path d="M105,310L130,195L88,239Z" fill="rgb(30, 31, 37)" fill-opacity="0.67"/><path d="M153,74L154,127L131,103Z" fill="rgb(147, 86, 57)" fill-opacity="0.37"/><path d="M79,143L3,209L77,130Z" fill="rgb(86, 67, 59)" fill-opacity="0.65"/><path d="M112,83L97,35L121,47Z" fill="rgb(214, 191, 168)" fill-opacity="0.46"/><path d="M107,163L148,124L124,161Z" fill="rgb(149, 94, 64)" fill-opacity="0.67"/><path d="M27,214L56,170L22,200Z" fill="rgb(16, 16, 26)" fill-opacity="0.52"/><path d="M83,-13L67,79L81,103Z" fill="rgb(78, 7, 0)" fill-opacity="0.14"/><path d="M91,123L113,114L83,115Z" fill="rgb(88, 22, 2)" fill-opacity="0.34"/><path d="M93,160L127,155L91,174Z" fill="rgb(70, 15, 6)" fill-opacity="0.31"/><path d="M138,-36L168,111L262,187Z" fill="rgb(44, 28, 32)" fill-opacity="0.90"/><path d="M51,42L48,81L64,48Z" fill="rgb(211, 195, 175)" fill-opacity="0.33"/><path d="M29,341L77,212L-19,214Z" fill="rgb(43, 47, 51)" fill-opacity="0.52"/><path d="M123,-33L90,20L126,32Z" fill="rgb(24, 7, 16)" fill-opacity="0.35"/><path d="M90,132L116,132L109,126Z" fill="rgb(124, 84, 68)" fill-opacity="0.81"/><path d="M87,186L78,206L88,234Z" fill="rgb(72, 73, 74)" fill-opacity="0.95"/><path d="M52,162L32,145L-47,222Z" fill="rgb(31, 21, 28)" fill-opacity="0.79"/><path d="M129,120L95,91L129,98Z" fill="rgb(217, 193, 167)" fill-opacity="0.42"/><path d="M77,134L101,127L87,120Z" fill="rgb(187, 167, 152)" fill-opacity="0.51"/><path d="M58,113L56,91L48,92Z" fill="rgb(163, 128, 109)" fill-opacity="1.00"/><path d="M157,143L123,219L124,262Z" fill="rgb(63, 68, 68)" fill-opacity="0.44"/><path d="M109,89L126,89L104,80Z" fill="rgb(87, 39, 23)" fill-opacity="0.49"/><path d="M91,105L83,119L61,116Z" fill="rgb(201, 159, 129)" fill-opacity="0.57"/><path d="M25,118L-71,121L7,64Z" fill="rgb(62, 43, 41)" fill-opacity="0.66"/><path d="M138,45L120,152L137,141Z" fill="rgb(183, 130, 101)" fill-opacity="0.54"/><path d="M90,183L108,180L107,225Z" fill="rgb(91, 36, 52)" fill-opacity="0.82"/><path d="M102,119L109,105L95,107Z" fill="rgb(222, 181, 152)" fill-opacity="0.42"/><path d="M100,26L127,54L179,20Z" fill="rgb(80, 41, 35)" fill-opacity="0.35"/><path d="M113,189L110,204L120,188Z" fill="rgb(244, 248, 255)" fill-opacity="0.49"/><path d="M97,81L85,105L91,79Z" fill="rgb(103, 57, 40)" fill-opacity="0.42"/><path d="M83,160L88,169L100,177Z" fill="rgb(113, 73, 62)" fill-opacity="0.82"/><path d="M88,213L94,208L91,175Z" fill="rgb(174, 199, 208)" fill-opacity="0.32"/><path d="M97,113L94,49L105,106Z" fill="rgb(191, 152, 127)" fill-opacity="0.76"/><path d="M259,219L146,120L181,238Z" fill="rgb(35, 36, 44)" fill-opacity="0.81"/><path d="M111,140L102,143L116,157Z" fill="rgb(237, 207, 175)" fill-opacity="0.23"/><path d="M74,150L60,122L23,147Z" fill="rgb(53, 35, 36)" fill-opacity="0.64"/><path d="M140,158L115,167L121,185Z" fill="rgb(221, 225, 228)" fill-opacity="0.75"/><path d="M89,91L64,100L62,93Z" fill="rgb(100, 59, 44)" fill-opacity="0.48"/><path d="M162,-104L302,213L192,101Z" fill="rgb(26, 18, 26)" fill-opacity="0.57"/><path d="M104,177L115,183L134,153Z" fill="rgb(227, 230, 234)" fill-opacity="0.58"/><path d="M71,138L76,112L81,157Z" fill="rgb(137, 84, 60)" fill-opacity="0.77"/><path d="M141,130L162,119L146,106Z" fill="rgb(96, 74, 64)" fill-opacity="0.67"/><path d="M55,55L55,107L69,74Z" fill="rgb(221, 205, 188)" fill-opacity="0.32"/><path d="M76,190L99,177L80,191Z" fill="rgb(218, 223, 226)" fill-opacity="0.72"/><path d="M165,135L188,137L143,117Z" fill="rgb(89, 75, 70)" fill-opacity="0.44"/><path d="M129,147L119,131L92,134Z" fill="rgb(168, 122, 96)" fill-opacity="0.81"/><path d="M61,125L73,126L73,143Z" fill="rgb(204, 171, 142)" fill-opacity="0.46"/><path d="M101,224L112,207L109,179Z" fill="rgb(117, 41, 64)" fill-opacity="0.85"/><path d="M141,75L171,31L144,10Z" fill="rgb(62, 41, 40)" fill-opacity="0.64"/><path d="M128,192L92,244L151,138Z" fill="rgb(61, 59, 61)" fill-opacity="1.00"/><path d="M153,257L170,145L184,205Z" fill="rgb(53, 53, 57)" fill-opacity="0.50"/><path d="M147,124L146,147L129,171Z" fill="rgb(228, 230, 231)" fill-opacity="0.54"/><path d="M124,91L142,53L143,93Z" fill="rgb(171, 112, 77)" fill-opacity="0.42"/><path d="M64,185L73,148L69,255Z" fill="rgb(31, 30, 37)" fill-opacity="0.78"/><path d="M81,237L80,196L66,176Z" fill="rgb(33, 33, 39)" fill-opacity="0.66"/><path d="M98,79L116,97L120,87Z" fill="rgb(96, 50, 33)" fill-opacity="0.25"/><path d="M90,158L94,169L79,152Z" fill="rgb(198, 147, 117)" fill-opacity="0.49"/><path d="M52,214L40,234L49,357Z" fill="rgb(27, 26, 34)" fill-opacity="0.52"/><path d="M114,182L114,187L143,196Z" fill="rgb(62, 51, 58)" fill-opacity="0.60"/><path d="M39,215L28,199L24,226Z" fill="rgb(29, 27, 34)" fill-opacity="0.78"/><path d="M55,100L66,57L75,52Z" fill="rgb(189, 153, 123)" fill-opacity="0.49"/><path d="M74,133L29,230L34,254Z" fill="rgb(85, 85, 85)" fill-opacity="0.42"/><path d="M4,214L15,216L10,194Z" fill="rgb(36, 33, 38)" fill-opacity="0.65"/><path d="M72,37L51,55L65,26Z" fill="rgb(138, 104, 88)" fill-opacity="0.81"/><path d="M68,192L86,190L65,214Z" fill="rgb(32, 31, 39)" fill-opacity="0.77"/><path d="M74,40L108,23L60,55Z" fill="rgb(81, 48, 41)" fill-opacity="0.53"/><path d="M66,118L75,133L89,119Z" fill="rgb(180, 105, 62)" fill-opacity="0.34"/><path d="M55,161L9,190L13,206Z" fill="rgb(78, 82, 81)" fill-opacity="0.61"/></svg>