<svg xmlns="http://www.w3.org/2000/svg" viewBox="0 0 290 247.96412556053812" clip-path="url(#clip)"><defs><clipPath id="clip" clipPathUnits="objectBoundingBox"><rect x="0" y="0" width="256" height="247.96412556053812"/></clipPath></defs><rect x="0" y="0" width="256" height="247.96412556053812" fill="rgb(104, 86, 73)"/><path d="M206,-183L129,236L63,97Z" fill="rgb(207, 171, 144)" fill-opacity="0.94"/><path d="M88,143L261,231L257,26Z" fill="rgb(203, 168, 144)" fill-opacity="0.68"/><path d="M177,274L159,188L143,187Z" fill="rgb(255, 249, 220)" fill-opacity="0.62"/><path d="M183,71L74,64L90,17Z" fill="rgb(254, 218, 182)" fill-opacity="0.48"/><path d="M171,66L85,-119L345,54Z" fill="rgb(137, 111, 96)" fill-opacity="0.83"/><path d="M141,86L59,79L131,65Z" fill="rgb(82, 45, 32)" fill-opacity="0.48"/><path d="M94,158L170,160L152,186Z" fill="rgb(99, 55, 40)" fill-opacity="0.62"/><path d="M174,269L166,195L309,241Z" fill="rgb(17, 4, 0)" fill-opacity="0.49"/><path d="M149,85L157,74L169,227Z" fill="rgb(97, 53, 40)" fill-opacity="0.56"/><path d="M182,11L196,101L173,163Z" fill="rgb(55, 14, 3)" fill-opacity="0.39"/><path d="M71,113L-85,29L91,-65Z" fill="rgb(72, 47, 37)" fill-opacity="0.42"/><path d="M87,155L140,190L129,227Z" fill="rgb(254, 246, 213)" fill-opacity="0.80"/><path d="M182,146L137,194L186,123Z" fill="rgb(102, 71, 56)" fill-opacity="0.88"/><path d="M-27,128L13,349L154,233Z" fill="rgb(0, 16, 21)" fill-opacity="0.27"/><path d="M91,29L175,9L88,17Z" fill="rgb(139, 122, 107)" fill-opacity="0.79"/><path d="M84,92L119,158L153,80Z" fill="rgb(255, 206, 173)" fill-opacity="0.49"/><path d="M155,89L169,150L186,94Z" fill="rgb(242, 177, 143)" fill-opacity="0.47"/><path d="M66,101L114,75L97,59Z" fill="rgb(255, 205, 172)" fill-opacity="0.27"/><path d="M194,103L430,305L170,188Z" fill="rgb(247, 248, 217)" fill-opacity="0.22"/><path d="M163,115L164,134L133,112Z" fill="rgb(121, 78, 62)" fill-opacity="0.69"/><path d="M172,65L164,21L101,25Z" fill="rgb(249, 206, 168)" fill-opacity="0.39"/><path d="M9,45L-33,231L95,135Z" fill="rgb(103, 80, 70)" fill-opacity="0.56"/><path d="M148,84L85,108L150,112Z" fill="rgb(241, 204, 170)" fill-opacity="0.65"/><path d="M122,217L84,150L-16,240Z" fill="rgb(71, 65, 58)" fill-opacity="0.90"/><path d="M149,-1L-105,-16L15,26Z" fill="rgb(79, 60, 49)" fill-opacity="0.77"/><path d="M141,17L170,23L165,8Z" fill="rgb(36, 24, 13)" fill-opacity="0.39"/><path d="M103,82L138,72L113,88Z" fill="rgb(59, 26, 16)" fill-opacity="0.51"/><path d="M164,182L159,213L235,221Z" fill="rgb(62, 46, 37)" fill-opacity="0.61"/><path d="M191,96L191,68L148,79Z" fill="rgb(96, 60, 46)" fill-opacity="0.66"/><path d="M150,4L103,9L126,25Z" fill="rgb(235, 255, 235)" fill-opacity="0.25"/><path d="M177,131L121,162L150,161Z" fill="rgb(219, 166, 141)" fill-opacity="0.61"/><path d="M172,252L166,210L150,216Z" fill="rgb(203, 195, 170)" fill-opacity="0.52"/><path d="M188,27L170,34L193,118Z" fill="rgb(89, 62, 50)" fill-opacity="0.59"/><path d="M112,173L95,148L134,163Z" fill="rgb(146, 100, 84)" fill-opacity="0.65"/><path d="M70,75L132,83L72,69Z" fill="rgb(77, 50, 44)" fill-opacity="0.36"/><path d="M119,209L142,178L128,228Z" fill="rgb(252, 239, 206)" fill-opacity="0.61"/><path d="M140,253L138,214L91,277Z" fill="rgb(70, 57, 51)" fill-opacity="1.00"/><path d="M174,154L131,166L152,183Z" fill="rgb(97, 63, 47)" fill-opacity="0.77"/><path d="M130,17L150,78L80,38Z" fill="rgb(255, 224, 184)" fill-opacity="0.32"/><path d="M180,134L119,132L119,128Z" fill="rgb(115, 40, 30)" fill-opacity="0.33"/><path d="M159,216L151,183L143,192Z" fill="rgb(255, 255, 228)" fill-opacity="0.39"/><path d="M79,35L76,69L111,77Z" fill="rgb(185, 161, 140)" fill-opacity="0.51"/><path d="M145,4L157,12L113,5Z" fill="rgb(212, 222, 203)" fill-opacity="0.42"/><path d="M174,72L154,71L148,17Z" fill="rgb(203, 153, 128)" fill-opacity="0.57"/><path d="M80,149L140,189L146,179Z" fill="rgb(182, 131, 108)" fill-opacity="0.62"/><path d="M166,205L159,235L159,214Z" fill="rgb(133, 113, 99)" fill-opacity="0.73"/><path d="M96,77L68,83L128,121Z" fill="rgb(234, 198, 167)" fill-opacity="0.55"/><path d="M87,156L103,163L78,57Z" fill="rgb(194, 150, 130)" fill-opacity="0.86"/><path d="M141,222L146,194L152,220Z" fill="rgb(58, 46, 46)" fill-opacity="0.53"/><path d="M171,251L154,225L154,260Z" fill="rgb(62, 50, 51)" fill-opacity="0.59"/><path d="M90,36L118,16L100,23Z" fill="rgb(24, 10, 12)" fill-opacity="0.26"/><path d="M117,65L138,69L108,97Z" fill="rgb(53, 11, 5)" fill-opacity="0.19"/><path d="M80,126L82,78L68,97Z" fill="rgb(249, 187, 160)" fill-opacity="0.47"/><path d="M272,-23L256,111L188,66Z" fill="rgb(153, 128, 109)" fill-opacity="0.53"/><path d="M159,123L155,110L144,121Z" fill="rgb(87, 55, 40)" fill-opacity="0.75"/><path d="M140,263L164,265L139,213Z" fill="rgb(96, 84, 79)" fill-opacity="1.00"/><path d="M314,91L209,104L177,11Z" fill="rgb(159, 135, 116)" fill-opacity="0.34"/><path d="M152,82L150,98L174,80Z" fill="rgb(90, 56, 42)" fill-opacity="0.72"/><path d="M167,142L160,157L130,136Z" fill="rgb(178, 133, 112)" fill-opacity="0.67"/><path d="M116,136L124,160L156,153Z" fill="rgb(240, 190, 163)" fill-opacity="0.61"/><path d="M74,116L57,58L-50,90Z" fill="rgb(98, 77, 66)" fill-opacity="0.89"/><path d="M170,237L162,218L163,239Z" fill="rgb(255, 253, 220)" fill-opacity="0.50"/><path d="M72,172L16,214L-28,206Z" fill="rgb(68, 62, 52)" fill-opacity="0.96"/><path d="M77,84L78,71L28,48Z" fill="rgb(97, 72, 61)" fill-opacity="0.69"/><path d="M241,211L274,255L295,201Z" fill="rgb(186, 161, 138)" fill-opacity="0.82"/><path d="M286,255L243,219L219,213Z" fill="rgb(72, 59, 51)" fill-opacity="0.76"/><path d="M169,10L118,-3L183,-21Z" fill="rgb(109, 96, 84)" fill-opacity="0.81"/><path d="M144,255L26,249L122,218Z" fill="rgb(70, 61, 54)" fill-opacity="0.87"/><path d="M146,78L111,65L129,81Z" fill="rgb(100, 58, 37)" fill-opacity="0.28"/><path d="M94,28L101,26L82,68Z" fill="rgb(167, 145, 129)" fill-opacity="0.55"/><path d="M197,98L190,94L164,166Z" fill="rgb(87, 51, 34)" fill-opacity="0.36"/><path d="M159,112L188,97L155,97Z" fill="rgb(237, 195, 163)" fill-opacity="0.42"/><path d="M141,131L132,129L149,92Z" fill="rgb(238, 189, 162)" fill-opacity="0.45"/><path d="M164,170L153,183L162,201Z" fill="rgb(143, 119, 107)" fill-opacity="0.65"/><path d="M160,79L171,33L129,74Z" fill="rgb(224, 163, 132)" fill-opacity="0.34"/><path d="M118,71L126,79L102,75Z" fill="rgb(250, 197, 163)" fill-opacity="0.16"/><path d="M242,85L184,129L271,161Z" fill="rgb(173, 151, 129)" fill-opacity="0.66"/><path d="M-2,20L79,40L99,7Z" fill="rgb(86, 64, 53)" fill-opacity="0.74"/><path d="M281,106L181,77L192,94Z" fill="rgb(162, 138, 119)" fill-opacity="0.40"/><path d="M170,61L175,98L192,85Z" fill="rgb(111, 66, 51)" fill-opacity="0.39"/><path d="M159,170L199,275L166,178Z" fill="rgb(57, 40, 30)" fill-opacity="0.60"/><path d="M87,152L109,196L145,199Z" fill="rgb(255, 248, 215)" fill-opacity="0.36"/><path d="M136,9L128,14L208,39Z" fill="rgb(118, 98, 85)" fill-opacity="0.35"/><path d="M175,189L163,173L202,112Z" fill="rgb(183, 161, 140)" fill-opacity="0.83"/><path d="M179,29L189,75L192,55Z" fill="rgb(73, 53, 44)" fill-opacity="0.82"/><path d="M76,49L95,15L116,4Z" fill="rgb(163, 152, 138)" fill-opacity="0.47"/><path d="M142,102L132,128L113,137Z" fill="rgb(71, 11, 27)" fill-opacity="0.10"/><path d="M120,16L114,9L138,2Z" fill="rgb(239, 240, 213)" fill-opacity="0.42"/><path d="M179,120L175,133L137,125Z" fill="rgb(180, 130, 108)" fill-opacity="0.52"/><path d="M153,146L170,129L147,141Z" fill="rgb(157, 100, 81)" fill-opacity="0.62"/><path d="M129,225L129,278L137,204Z" fill="rgb(62, 44, 36)" fill-opacity="0.39"/><path d="M174,96L177,84L191,95Z" fill="rgb(129, 86, 68)" fill-opacity="0.64"/><path d="M87,69L148,32L104,74Z" fill="rgb(247, 207, 168)" fill-opacity="0.45"/><path d="M17,193L30,142L69,168Z" fill="rgb(107, 90, 78)" fill-opacity="0.62"/><path d="M138,191L144,189L137,213Z" fill="rgb(137, 127, 120)" fill-opacity="0.67"/><path d="M159,193L156,222L145,187Z" fill="rgb(253, 243, 214)" fill-opacity="0.40"/><path d="M58,176L72,115L89,130Z" fill="rgb(123, 90, 82)" fill-opacity="0.44"/><path d="M111,67L106,74L131,67Z" fill="rgb(19, 10, 0)" fill-opacity="0.22"/><path d="M174,101L157,89L174,87Z" fill="rgb(192, 147, 123)" fill-opacity="0.69"/><path d="M84,104L123,124L104,155Z" fill="rgb(226, 174, 151)" fill-opacity="0.51"/></svg>