<?xml version="1.0" encoding="utf-8"?>
<!-- Generator: Adobe Illustrator 17.0.0, SVG Export Plug-In . SVG Version: 6.00 Build 0)  -->
<!DOCTYPE svg PUBLIC "-//W3C//DTD SVG 1.1//EN" "http://www.w3.org/Graphics/SVG/1.1/DTD/svg11.dtd">
<svg version="1.1" id="Layer_1" xmlns="http://www.w3.org/2000/svg" xmlns:xlink="http://www.w3.org/1999/xlink" x="0px" y="0px"
	 width="17.037px" height="13.849px" viewBox="0 0 17.037 13.849" enable-background="new 0 0 17.037 13.849" xml:space="preserve">
<g>
	<defs>
		<rect id="SVGID_1_" y="0" width="17.037" height="13.849"/>
	</defs>
	<clipPath id="SVGID_2_">
		<use xlink:href="#SVGID_1_"  overflow="visible"/>
	</clipPath>
	<path clip-path="url(#SVGID_2_)" fill="#fff" d="M17.037,1.64c-0.626,0.278-1.301,0.466-2.007,0.551
		c0.722-0.433,1.276-1.118,1.536-1.934c-0.675,0.401-1.422,0.691-2.22,0.847C13.71,0.425,12.801,0,11.795,0
		C9.866,0,8.301,1.567,8.301,3.496c0,0.275,0.03,0.54,0.09,0.796c-2.905-0.146-5.48-1.536-7.205-3.653
		c-0.301,0.519-0.473,1.119-0.473,1.76c0,1.211,0.617,2.282,1.555,2.909C1.695,5.29,1.156,5.132,0.684,4.871v0.043
		c0,1.695,1.205,3.108,2.805,3.428C3.195,8.424,2.887,8.465,2.567,8.465c-0.225,0-0.444-0.02-0.657-0.061
		c0.444,1.387,1.735,2.399,3.265,2.426c-1.196,0.938-2.704,1.496-4.341,1.496c-0.282,0-0.561-0.015-0.834-0.047
		c1.547,0.991,3.384,1.57,5.358,1.57c6.43,0,9.945-5.326,9.945-9.947c0-0.152-0.003-0.303-0.01-0.452
		C15.976,2.956,16.57,2.341,17.037,1.64"/>
</g>
</svg>
