<svg xmlns="http://www.w3.org/2000/svg" viewBox="0 0 182.26537216828478 256" clip-path="url(#clip)"><defs><clipPath id="clip" clipPathUnits="objectBoundingBox"><rect x="0" y="0" width="182.26537216828478" height="256"/></clipPath></defs><rect x="0" y="0" width="182.26537216828478" height="256" fill="rgb(114, 107, 107)"/><path d="M134,257L89,125L303,289Z" fill="rgb(8, 4, 3)" fill-opacity="0.89"/><path d="M-110,242L71,270L68,138Z" fill="rgb(10, 7, 7)" fill-opacity="0.99"/><path d="M181,191L192,-50L50,58Z" fill="rgb(227, 196, 190)" fill-opacity="0.57"/><path d="M119,192L123,318L60,190Z" fill="rgb(255, 233, 217)" fill-opacity="0.73"/><path d="M145,187L47,189L32,41Z" fill="rgb(44, 16, 0)" fill-opacity="0.69"/><path d="M-107,189L25,7L39,160Z" fill="rgb(253, 217, 189)" fill-opacity="0.70"/><path d="M161,165L140,204L33,158Z" fill="rgb(11, 10, 11)" fill-opacity="0.80"/><path d="M40,35L98,16L115,28Z" fill="rgb(104, 75, 41)" fill-opacity="0.70"/><path d="M81,244L65,192L83,204Z" fill="rgb(234, 215, 209)" fill-opacity="0.89"/><path d="M33,102L142,49L131,151Z" fill="rgb(229, 102, 25)" fill-opacity="0.41"/><path d="M-37,33L134,-48L27,55Z" fill="rgb(180, 158, 142)" fill-opacity="0.89"/><path d="M138,64L96,25L88,65Z" fill="rgb(255, 213, 180)" fill-opacity="0.90"/><path d="M111,246L90,222L-11,310Z" fill="rgb(29, 0, 0)" fill-opacity="0.23"/><path d="M40,28L26,97L127,77Z" fill="rgb(134, 59, 0)" fill-opacity="0.24"/><path d="M103,156L66,127L68,146Z" fill="rgb(225, 190, 140)" fill-opacity="0.44"/><path d="M122,285L114,196L90,187Z" fill="rgb(255, 244, 238)" fill-opacity="0.74"/><path d="M114,182L149,391L187,186Z" fill="rgb(13, 10, 11)" fill-opacity="0.83"/><path d="M84,34L96,118L168,196Z" fill="rgb(255, 195, 170)" fill-opacity="0.27"/><path d="M123,235L91,238L121,206Z" fill="rgb(255, 247, 233)" fill-opacity="0.43"/><path d="M262,2L44,-25L187,88Z" fill="rgb(149, 157, 178)" fill-opacity="0.85"/><path d="M123,140L150,194L-15,174Z" fill="rgb(10, 7, 6)" fill-opacity="0.63"/><path d="M103,218L93,299L95,230Z" fill="rgb(254, 241, 237)" fill-opacity="0.71"/><path d="M94,202L32,112L31,61Z" fill="rgb(12, 2, 0)" fill-opacity="0.34"/><path d="M-6,53L3,116L59,3Z" fill="rgb(203, 179, 163)" fill-opacity="0.66"/><path d="M137,119L125,76L113,122Z" fill="rgb(127, 50, 4)" fill-opacity="0.35"/><path d="M168,185L268,151L146,176Z" fill="rgb(157, 171, 192)" fill-opacity="0.71"/><path d="M96,279L-209,192L36,166Z" fill="rgb(4, 2, 3)" fill-opacity="0.78"/><path d="M21,88L-15,158L42,152Z" fill="rgb(239, 210, 191)" fill-opacity="0.71"/><path d="M125,85L88,82L104,128Z" fill="rgb(246, 159, 125)" fill-opacity="0.75"/><path d="M74,130L79,153L105,155Z" fill="rgb(255, 188, 122)" fill-opacity="0.24"/><path d="M105,185L112,203L115,190Z" fill="rgb(255, 227, 195)" fill-opacity="0.47"/><path d="M42,-128L67,17L135,16Z" fill="rgb(148, 154, 174)" fill-opacity="1.00"/><path d="M133,165L143,52L276,159Z" fill="rgb(158, 181, 209)" fill-opacity="0.60"/><path d="M134,84L129,37L144,62Z" fill="rgb(39, 28, 1)" fill-opacity="0.26"/><path d="M76,232L71,191L85,244Z" fill="rgb(250, 233, 222)" fill-opacity="0.64"/><path d="M134,158L138,112L129,149Z" fill="rgb(184, 196, 211)" fill-opacity="0.55"/><path d="M101,26L56,46L134,50Z" fill="rgb(255, 187, 143)" fill-opacity="0.49"/><path d="M49,80L83,142L95,96Z" fill="rgb(120, 66, 29)" fill-opacity="0.69"/><path d="M29,64L33,140L43,120Z" fill="rgb(163, 120, 72)" fill-opacity="0.43"/><path d="M95,71L94,37L127,47Z" fill="rgb(255, 248, 220)" fill-opacity="0.46"/><path d="M76,196L73,182L58,186Z" fill="rgb(96, 71, 43)" fill-opacity="0.67"/><path d="M93,189L96,225L88,282Z" fill="rgb(88, 45, 5)" fill-opacity="0.33"/><path d="M104,18L116,31L57,22Z" fill="rgb(84, 56, 22)" fill-opacity="0.41"/><path d="M91,185L82,192L95,205Z" fill="rgb(155, 128, 105)" fill-opacity="0.61"/><path d="M66,20L35,114L36,41Z" fill="rgb(54, 38, 8)" fill-opacity="0.37"/><path d="M125,78L100,26L133,53Z" fill="rgb(255, 193, 161)" fill-opacity="0.66"/><path d="M98,74L88,60L84,79Z" fill="rgb(113, 63, 23)" fill-opacity="0.43"/><path d="M78,91L48,49L98,21Z" fill="rgb(227, 156, 108)" fill-opacity="0.36"/><path d="M26,169L58,137L142,194Z" fill="rgb(7, 6, 6)" fill-opacity="0.80"/><path d="M51,3L-1,38L-29,-26Z" fill="rgb(161, 135, 99)" fill-opacity="0.76"/><path d="M68,20L31,52L71,45Z" fill="rgb(109, 78, 25)" fill-opacity="0.35"/><path d="M95,230L119,245L121,226Z" fill="rgb(255, 255, 255)" fill-opacity="0.51"/><path d="M53,53L60,44L62,66Z" fill="rgb(200, 192, 177)" fill-opacity="0.37"/><path d="M111,190L158,161L164,166Z" fill="rgb(30, 21, 19)" fill-opacity="0.59"/><path d="M93,33L77,49L98,64Z" fill="rgb(255, 194, 163)" fill-opacity="0.68"/><path d="M106,119L127,111L83,85Z" fill="rgb(229, 142, 106)" fill-opacity="0.82"/><path d="M92,123L137,123L123,145Z" fill="rgb(222, 147, 99)" fill-opacity="0.43"/><path d="M54,169L80,241L56,204Z" fill="rgb(39, 29, 25)" fill-opacity="0.73"/><path d="M120,149L101,125L55,130Z" fill="rgb(110, 64, 29)" fill-opacity="0.41"/><path d="M29,68L45,36L62,108Z" fill="rgb(61, 41, 29)" fill-opacity="0.56"/><path d="M299,203L129,224L106,291Z" fill="rgb(6, 3, 3)" fill-opacity="0.51"/><path d="M140,104L127,111L116,101Z" fill="rgb(73, 26, 4)" fill-opacity="0.52"/><path d="M126,82L95,79L120,72Z" fill="rgb(116, 60, 22)" fill-opacity="0.46"/><path d="M97,156L65,133L65,143Z" fill="rgb(168, 177, 162)" fill-opacity="0.28"/><path d="M131,65L126,72L139,70Z" fill="rgb(80, 38, 2)" fill-opacity="0.50"/><path d="M32,128L44,137L43,158Z" fill="rgb(173, 125, 76)" fill-opacity="0.43"/><path d="M57,8L73,17L14,43Z" fill="rgb(193, 173, 173)" fill-opacity="0.61"/><path d="M141,63L118,33L140,50Z" fill="rgb(134, 114, 96)" fill-opacity="0.70"/><path d="M-28,180L22,62L36,101Z" fill="rgb(241, 216, 195)" fill-opacity="0.29"/><path d="M93,256L97,277L79,238Z" fill="rgb(39, 19, 7)" fill-opacity="0.72"/><path d="M126,217L117,175L114,199Z" fill="rgb(70, 43, 28)" fill-opacity="0.45"/><path d="M187,208L111,189L113,143Z" fill="rgb(17, 14, 17)" fill-opacity="0.50"/><path d="M37,139L39,124L46,134Z" fill="rgb(78, 51, 19)" fill-opacity="0.65"/><path d="M140,80L134,80L139,65Z" fill="rgb(81, 46, 25)" fill-opacity="0.39"/><path d="M64,96L58,119L98,118Z" fill="rgb(162, 93, 44)" fill-opacity="0.41"/><path d="M-23,169L42,155L29,165Z" fill="rgb(193, 146, 100)" fill-opacity="0.47"/><path d="M99,245L105,235L109,247Z" fill="rgb(130, 81, 19)" fill-opacity="0.54"/><path d="M169,156L154,179L236,195Z" fill="rgb(161, 169, 186)" fill-opacity="0.94"/><path d="M114,79L130,94L89,93Z" fill="rgb(254, 185, 151)" fill-opacity="0.47"/><path d="M72,93L31,114L52,60Z" fill="rgb(81, 53, 32)" fill-opacity="0.44"/><path d="M108,121L136,119L114,116Z" fill="rgb(141, 69, 28)" fill-opacity="0.62"/><path d="M118,44L106,67L86,40Z" fill="rgb(251, 255, 233)" fill-opacity="0.30"/><path d="M46,146L-60,164L34,160Z" fill="rgb(245, 190, 161)" fill-opacity="0.40"/><path d="M101,140L95,135L90,87Z" fill="rgb(176, 110, 65)" fill-opacity="0.52"/><path d="M66,21L83,16L64,50Z" fill="rgb(124, 93, 56)" fill-opacity="0.44"/><path d="M62,128L42,175L53,121Z" fill="rgb(14, 10, 10)" fill-opacity="0.57"/><path d="M94,157L126,152L129,141Z" fill="rgb(37, 19, 16)" fill-opacity="0.58"/><path d="M151,176L159,172L108,155Z" fill="rgb(26, 19, 17)" fill-opacity="0.85"/><path d="M114,65L99,69L120,72Z" fill="rgb(109, 60, 29)" fill-opacity="0.62"/><path d="M86,251L82,203L87,215Z" fill="rgb(148, 125, 114)" fill-opacity="0.67"/><path d="M81,248L73,233L85,227Z" fill="rgb(255, 243, 175)" fill-opacity="0.27"/><path d="M133,139L140,132L134,130Z" fill="rgb(255, 234, 225)" fill-opacity="0.64"/><path d="M119,32L90,24L44,47Z" fill="rgb(185, 124, 92)" fill-opacity="0.27"/><path d="M73,88L92,101L74,105Z" fill="rgb(111, 51, 21)" fill-opacity="0.72"/><path d="M96,221L114,197L98,189Z" fill="rgb(254, 247, 238)" fill-opacity="0.65"/><path d="M61,109L51,100L54,108Z" fill="rgb(227, 152, 90)" fill-opacity="0.37"/><path d="M136,60L133,69L116,32Z" fill="rgb(253, 159, 125)" fill-opacity="0.45"/><path d="M123,100L132,76L142,103Z" fill="rgb(251, 157, 121)" fill-opacity="0.48"/><path d="M102,254L109,238L100,238Z" fill="rgb(127, 80, 17)" fill-opacity="0.40"/><path d="M84,258L71,236L65,215Z" fill="rgb(77, 58, 31)" fill-opacity="0.67"/></svg>