<svg xmlns="http://www.w3.org/2000/svg" viewBox="0 0 219.90735146022155 256" clip-path="url(#clip)"><defs><clipPath id="clip" clipPathUnits="objectBoundingBox"><rect x="0" y="0" width="219.90735146022155" height="256"/></clipPath></defs><rect x="0" y="0" width="219.90735146022155" height="256" fill="rgb(16, 15, 13)"/><path d="M73,118L130,144L88,230Z" fill="rgb(218, 219, 216)" fill-opacity="0.97"/><path d="M33,97L113,-31L163,140Z" fill="rgb(211, 165, 144)" fill-opacity="0.69"/><path d="M-2,201L-16,50L75,91Z" fill="rgb(24, 23, 17)" fill-opacity="0.76"/><path d="M119,69L47,44L135,21Z" fill="rgb(255, 243, 225)" fill-opacity="0.66"/><path d="M79,141L77,111L-195,599Z" fill="rgb(1, 6, 6)" fill-opacity="0.83"/><path d="M139,135L119,171L53,85Z" fill="rgb(191, 157, 137)" fill-opacity="0.49"/><path d="M137,-134L129,15L66,20Z" fill="rgb(14, 10, 8)" fill-opacity="0.90"/><path d="M375,187L105,139L141,24Z" fill="rgb(87, 65, 50)" fill-opacity="0.67"/><path d="M113,106L74,28L39,62Z" fill="rgb(196, 166, 151)" fill-opacity="0.50"/><path d="M68,120L119,107L122,127Z" fill="rgb(255, 175, 147)" fill-opacity="0.39"/><path d="M144,92L79,94L113,66Z" fill="rgb(251, 167, 139)" fill-opacity="0.46"/><path d="M36,65L57,33L79,128Z" fill="rgb(79, 81, 69)" fill-opacity="0.58"/><path d="M122,128L181,68L129,14Z" fill="rgb(171, 116, 95)" fill-opacity="0.38"/><path d="M156,109L131,125L342,750Z" fill="rgb(0, 0, 2)" fill-opacity="0.66"/><path d="M102,12L73,64L143,59Z" fill="rgb(255, 244, 224)" fill-opacity="0.44"/><path d="M153,75L149,58L81,73Z" fill="rgb(36, 10, 0)" fill-opacity="0.29"/><path d="M75,169L93,226L128,137Z" fill="rgb(253, 255, 255)" fill-opacity="0.53"/><path d="M78,122L86,157L123,151Z" fill="rgb(246, 253, 253)" fill-opacity="0.84"/><path d="M101,-12L155,-10L129,34Z" fill="rgb(21, 5, 0)" fill-opacity="0.39"/><path d="M147,110L138,101L160,97Z" fill="rgb(255, 232, 206)" fill-opacity="0.23"/><path d="M116,20L117,81L78,28Z" fill="rgb(255, 234, 216)" fill-opacity="0.44"/><path d="M93,132L42,54L119,145Z" fill="rgb(129, 96, 79)" fill-opacity="0.63"/><path d="M144,40L85,24L112,12Z" fill="rgb(226, 143, 116)" fill-opacity="0.40"/><path d="M112,98L123,83L138,139Z" fill="rgb(104, 60, 45)" fill-opacity="0.74"/><path d="M299,179L111,158L159,328Z" fill="rgb(0, 0, 1)" fill-opacity="0.43"/><path d="M-92,160L130,369L87,209Z" fill="rgb(0, 0, 2)" fill-opacity="0.52"/><path d="M209,167L157,126L359,199Z" fill="rgb(64, 52, 40)" fill-opacity="1.00"/><path d="M77,160L122,167L75,150Z" fill="rgb(154, 154, 149)" fill-opacity="0.54"/><path d="M137,12L163,102L138,95Z" fill="rgb(89, 55, 40)" fill-opacity="0.51"/><path d="M122,-5L-150,7L74,31Z" fill="rgb(11, 9, 7)" fill-opacity="0.67"/><path d="M125,103L142,84L124,70Z" fill="rgb(253, 152, 127)" fill-opacity="0.29"/><path d="M119,167L84,219L78,160Z" fill="rgb(255, 255, 255)" fill-opacity="0.35"/><path d="M128,73L148,79L136,64Z" fill="rgb(50, 23, 17)" fill-opacity="0.25"/><path d="M135,145L126,134L125,164Z" fill="rgb(132, 131, 120)" fill-opacity="0.61"/><path d="M110,19L137,31L138,67Z" fill="rgb(240, 166, 141)" fill-opacity="0.32"/><path d="M79,78L90,99L119,76Z" fill="rgb(215, 163, 141)" fill-opacity="0.85"/><path d="M124,96L129,110L104,93Z" fill="rgb(71, 33, 22)" fill-opacity="0.51"/><path d="M83,211L79,151L75,170Z" fill="rgb(85, 87, 76)" fill-opacity="0.64"/><path d="M46,42L69,38L42,58Z" fill="rgb(58, 55, 45)" fill-opacity="0.67"/><path d="M103,83L119,94L113,60Z" fill="rgb(242, 196, 169)" fill-opacity="0.49"/><path d="M137,112L88,117L106,129Z" fill="rgb(250, 172, 148)" fill-opacity="0.27"/><path d="M74,150L94,131L81,156Z" fill="rgb(240, 247, 247)" fill-opacity="0.53"/><path d="M84,121L84,153L78,113Z" fill="rgb(228, 237, 235)" fill-opacity="0.65"/><path d="M76,83L109,91L93,111Z" fill="rgb(198, 130, 111)" fill-opacity="0.61"/><path d="M98,21L122,15L92,15Z" fill="rgb(139, 92, 73)" fill-opacity="0.55"/><path d="M94,35L119,32L95,61Z" fill="rgb(255, 254, 244)" fill-opacity="0.79"/><path d="M97,16L55,52L81,86Z" fill="rgb(208, 170, 159)" fill-opacity="0.46"/><path d="M62,45L59,85L75,44Z" fill="rgb(140, 216, 240)" fill-opacity="0.19"/><path d="M202,140L152,17L258,48Z" fill="rgb(41, 33, 26)" fill-opacity="0.63"/><path d="M81,66L111,61L103,78Z" fill="rgb(74, 18, 0)" fill-opacity="0.27"/><path d="M175,60L158,86L145,28Z" fill="rgb(129, 156, 148)" fill-opacity="0.24"/><path d="M116,64L125,136L121,63Z" fill="rgb(89, 43, 30)" fill-opacity="0.53"/><path d="M57,105L16,17L-77,156Z" fill="rgb(15, 13, 11)" fill-opacity="0.75"/><path d="M102,138L139,132L137,116Z" fill="rgb(82, 59, 46)" fill-opacity="1.00"/><path d="M85,162L125,159L121,143Z" fill="rgb(234, 239, 237)" fill-opacity="0.48"/><path d="M287,0L189,48L108,13Z" fill="rgb(29, 18, 15)" fill-opacity="0.55"/><path d="M143,115L163,145L249,49Z" fill="rgb(48, 41, 31)" fill-opacity="0.79"/><path d="M74,84L63,100L84,97Z" fill="rgb(118, 78, 59)" fill-opacity="0.65"/><path d="M130,90L132,121L144,72Z" fill="rgb(190, 104, 80)" fill-opacity="0.47"/><path d="M194,156L132,135L286,450Z" fill="rgb(0, 5, 7)" fill-opacity="0.74"/><path d="M47,58L79,24L40,87Z" fill="rgb(115, 121, 113)" fill-opacity="0.35"/><path d="M71,102L91,102L78,113Z" fill="rgb(158, 134, 119)" fill-opacity="0.90"/><path d="M440,197L44,285L143,161Z" fill="rgb(1, 5, 6)" fill-opacity="0.89"/><path d="M109,157L106,164L118,167Z" fill="rgb(170, 163, 156)" fill-opacity="0.85"/><path d="M134,140L109,145L141,119Z" fill="rgb(98, 103, 87)" fill-opacity="0.42"/><path d="M88,128L121,144L78,109Z" fill="rgb(126, 85, 67)" fill-opacity="0.45"/><path d="M8,177L94,385L74,135Z" fill="rgb(0, 5, 6)" fill-opacity="0.73"/><path d="M111,102L94,103L104,93Z" fill="rgb(250, 195, 166)" fill-opacity="0.39"/><path d="M87,77L98,61L86,68Z" fill="rgb(125, 79, 62)" fill-opacity="0.61"/><path d="M166,160L145,117L133,145Z" fill="rgb(1, 6, 7)" fill-opacity="0.84"/><path d="M-122,239L56,147L84,111Z" fill="rgb(39, 39, 30)" fill-opacity="0.54"/><path d="M143,39L110,13L128,20Z" fill="rgb(127, 85, 63)" fill-opacity="0.56"/><path d="M80,189L88,231L93,226Z" fill="rgb(109, 112, 110)" fill-opacity="0.52"/><path d="M44,85L43,71L69,100Z" fill="rgb(67, 64, 49)" fill-opacity="0.67"/><path d="M117,153L131,135L129,160Z" fill="rgb(175, 164, 148)" fill-opacity="0.42"/><path d="M110,114L141,118L111,100Z" fill="rgb(138, 81, 60)" fill-opacity="0.53"/><path d="M25,163L79,122L66,104Z" fill="rgb(32, 31, 24)" fill-opacity="0.58"/><path d="M237,-45L63,20L114,13Z" fill="rgb(16, 13, 11)" fill-opacity="0.81"/><path d="M108,138L141,111L126,136Z" fill="rgb(61, 22, 12)" fill-opacity="0.35"/><path d="M81,143L74,155L79,133Z" fill="rgb(131, 137, 134)" fill-opacity="0.57"/><path d="M1,204L-134,229L13,169Z" fill="rgb(46, 44, 32)" fill-opacity="0.73"/><path d="M122,85L131,56L127,90Z" fill="rgb(228, 186, 168)" fill-opacity="0.29"/><path d="M89,220L113,173L81,159Z" fill="rgb(251, 255, 255)" fill-opacity="0.78"/><path d="M141,148L151,202L116,167Z" fill="rgb(0, 5, 7)" fill-opacity="0.44"/><path d="M148,85L181,73L152,116Z" fill="rgb(112, 77, 58)" fill-opacity="0.29"/><path d="M106,23L87,61L110,55Z" fill="rgb(255, 255, 248)" fill-opacity="0.38"/><path d="M67,95L78,45L61,61Z" fill="rgb(153, 149, 143)" fill-opacity="0.33"/><path d="M133,46L86,25L118,27Z" fill="rgb(255, 214, 189)" fill-opacity="0.48"/><path d="M139,38L131,65L142,66Z" fill="rgb(154, 98, 76)" fill-opacity="0.36"/><path d="M74,146L97,161L128,144Z" fill="rgb(253, 255, 255)" fill-opacity="0.44"/><path d="M107,188L93,227L126,150Z" fill="rgb(98, 103, 97)" fill-opacity="0.50"/><path d="M166,81L174,51L182,72Z" fill="rgb(65, 48, 36)" fill-opacity="0.63"/><path d="M72,30L41,51L85,0Z" fill="rgb(18, 17, 14)" fill-opacity="0.57"/><path d="M54,67L44,65L53,80Z" fill="rgb(118, 118, 106)" fill-opacity="0.56"/><path d="M106,86L106,91L79,116Z" fill="rgb(155, 93, 79)" fill-opacity="0.64"/><path d="M151,86L169,79L163,51Z" fill="rgb(123, 121, 107)" fill-opacity="0.31"/><path d="M106,57L117,62L115,97Z" fill="rgb(226, 175, 150)" fill-opacity="0.49"/><path d="M46,42L10,-40L38,137Z" fill="rgb(16, 14, 11)" fill-opacity="0.40"/><path d="M97,108L121,119L104,124Z" fill="rgb(210, 162, 140)" fill-opacity="0.62"/><path d="M153,53L136,19L148,58Z" fill="rgb(3, 31, 28)" fill-opacity="0.27"/></svg>