<svg xmlns="http://www.w3.org/2000/svg" viewBox="0 0 205.90215264187867 256" clip-path="url(#clip)"><defs><clipPath id="clip" clipPathUnits="objectBoundingBox"><rect x="0" y="0" width="205.90215264187867" height="256"/></clipPath></defs><rect x="0" y="0" width="205.90215264187867" height="256" fill="rgb(38, 31, 16)"/><path d="M93,232L190,-91L30,68Z" fill="rgb(224, 198, 139)" fill-opacity="0.63"/><path d="M183,85L40,63L93,9Z" fill="rgb(255, 255, 209)" fill-opacity="0.39"/><path d="M214,45L88,10L233,-159Z" fill="rgb(44, 31, 16)" fill-opacity="1.00"/><path d="M116,174L181,30L74,162Z" fill="rgb(109, 78, 40)" fill-opacity="0.95"/><path d="M84,279L50,244L94,152Z" fill="rgb(210, 251, 205)" fill-opacity="0.32"/><path d="M118,180L70,161L94,202Z" fill="rgb(227, 241, 216)" fill-opacity="0.59"/><path d="M170,97L55,81L163,37Z" fill="rgb(152, 134, 69)" fill-opacity="0.61"/><path d="M183,34L155,134L308,352Z" fill="rgb(92, 63, 25)" fill-opacity="0.97"/><path d="M115,85L98,146L80,83Z" fill="rgb(255, 215, 140)" fill-opacity="0.38"/><path d="M113,165L-58,196L8,120Z" fill="rgb(68, 62, 41)" fill-opacity="0.52"/><path d="M30,119L45,49L29,69Z" fill="rgb(60, 56, 27)" fill-opacity="0.92"/><path d="M132,19L138,47L96,11Z" fill="rgb(225, 255, 213)" fill-opacity="0.31"/><path d="M69,90L55,35L121,16Z" fill="rgb(255, 253, 227)" fill-opacity="0.41"/><path d="M129,18L230,51L213,96Z" fill="rgb(63, 42, 16)" fill-opacity="0.73"/><path d="M88,223L353,447L148,126Z" fill="rgb(0, 0, 3)" fill-opacity="0.76"/><path d="M77,78L30,94L60,150Z" fill="rgb(254, 210, 114)" fill-opacity="0.28"/><path d="M80,192L70,161L40,204Z" fill="rgb(5, 9, 10)" fill-opacity="0.89"/><path d="M38,69L30,102L100,67Z" fill="rgb(136, 100, 22)" fill-opacity="0.30"/><path d="M94,190L79,261L103,229Z" fill="rgb(73, 87, 64)" fill-opacity="0.69"/><path d="M57,263L-43,295L51,202Z" fill="rgb(6, 13, 12)" fill-opacity="0.89"/><path d="M56,212L85,183L92,231Z" fill="rgb(137, 148, 120)" fill-opacity="0.40"/><path d="M146,96L118,84L86,151Z" fill="rgb(164, 113, 43)" fill-opacity="0.64"/><path d="M119,169L84,166L167,83Z" fill="rgb(71, 42, 29)" fill-opacity="0.66"/><path d="M117,188L83,196L70,155Z" fill="rgb(220, 223, 191)" fill-opacity="0.49"/><path d="M29,106L47,92L57,174Z" fill="rgb(82, 65, 37)" fill-opacity="0.55"/><path d="M151,191L386,234L45,272Z" fill="rgb(0, 3, 3)" fill-opacity="0.48"/><path d="M75,86L48,46L79,18Z" fill="rgb(221, 216, 177)" fill-opacity="0.42"/><path d="M-42,222L59,230L78,201Z" fill="rgb(39, 52, 34)" fill-opacity="0.42"/><path d="M89,64L115,85L73,79Z" fill="rgb(148, 55, 20)" fill-opacity="0.27"/><path d="M89,16L56,55L112,71Z" fill="rgb(236, 230, 200)" fill-opacity="0.41"/><path d="M74,19L34,-58L108,12Z" fill="rgb(35, 27, 10)" fill-opacity="0.86"/><path d="M61,109L75,118L89,107Z" fill="rgb(148, 73, 3)" fill-opacity="0.58"/><path d="M164,89L260,28L150,127Z" fill="rgb(60, 39, 21)" fill-opacity="0.77"/><path d="M40,39L65,84L48,81Z" fill="rgb(97, 61, 0)" fill-opacity="0.35"/><path d="M74,152L86,168L144,122Z" fill="rgb(108, 52, 26)" fill-opacity="0.72"/><path d="M-18,171L3,248L77,149Z" fill="rgb(58, 59, 34)" fill-opacity="0.48"/><path d="M51,105L68,151L111,133Z" fill="rgb(204, 170, 99)" fill-opacity="0.44"/><path d="M70,238L92,321L92,246Z" fill="rgb(58, 65, 39)" fill-opacity="0.91"/><path d="M101,196L167,146L146,437Z" fill="rgb(4, 6, 6)" fill-opacity="0.98"/><path d="M54,138L72,153L47,113Z" fill="rgb(164, 134, 75)" fill-opacity="0.77"/><path d="M146,26L124,124L171,61Z" fill="rgb(123, 123, 65)" fill-opacity="0.56"/><path d="M83,248L82,223L75,232Z" fill="rgb(156, 161, 112)" fill-opacity="0.55"/><path d="M104,143L124,129L125,81Z" fill="rgb(135, 61, 13)" fill-opacity="0.62"/><path d="M172,158L228,145L153,114Z" fill="rgb(137, 100, 42)" fill-opacity="0.43"/><path d="M54,269L70,230L69,212Z" fill="rgb(165, 176, 132)" fill-opacity="0.52"/><path d="M39,61L38,83L70,125Z" fill="rgb(206, 234, 186)" fill-opacity="0.19"/><path d="M85,73L84,102L95,72Z" fill="rgb(203, 185, 142)" fill-opacity="0.45"/><path d="M190,144L178,176L200,202Z" fill="rgb(106, 74, 17)" fill-opacity="0.51"/><path d="M168,102L143,101L140,137Z" fill="rgb(23, 21, 26)" fill-opacity="0.68"/><path d="M75,95L69,113L62,82Z" fill="rgb(254, 238, 187)" fill-opacity="0.30"/><path d="M129,102L146,86L103,12Z" fill="rgb(171, 161, 112)" fill-opacity="0.35"/><path d="M41,209L76,170L46,242Z" fill="rgb(5, 9, 8)" fill-opacity="0.79"/><path d="M139,23L113,13L168,52Z" fill="rgb(121, 118, 45)" fill-opacity="0.44"/><path d="M124,18L105,52L83,16Z" fill="rgb(200, 199, 164)" fill-opacity="0.55"/><path d="M54,172L75,171L44,194Z" fill="rgb(4, 8, 11)" fill-opacity="0.74"/><path d="M127,83L102,112L127,98Z" fill="rgb(172, 82, 0)" fill-opacity="0.35"/><path d="M115,177L109,168L86,207Z" fill="rgb(205, 207, 177)" fill-opacity="0.54"/><path d="M113,128L79,121L48,125Z" fill="rgb(172, 131, 67)" fill-opacity="1.00"/><path d="M89,87L86,123L108,92Z" fill="rgb(221, 204, 155)" fill-opacity="0.40"/><path d="M80,183L80,191L69,193Z" fill="rgb(0, 5, 3)" fill-opacity="0.39"/><path d="M119,154L82,163L96,170Z" fill="rgb(9, 25, 34)" fill-opacity="0.38"/><path d="M26,97L-45,104L46,43Z" fill="rgb(25, 27, 12)" fill-opacity="0.81"/><path d="M55,249L59,225L56,214Z" fill="rgb(137, 158, 128)" fill-opacity="0.37"/><path d="M91,75L120,60L133,95Z" fill="rgb(180, 140, 69)" fill-opacity="0.40"/><path d="M58,46L35,96L41,59Z" fill="rgb(155, 158, 78)" fill-opacity="0.51"/><path d="M107,110L104,67L119,90Z" fill="rgb(197, 163, 100)" fill-opacity="0.39"/><path d="M129,66L177,73L152,106Z" fill="rgb(128, 123, 52)" fill-opacity="0.33"/><path d="M97,194L104,236L90,224Z" fill="rgb(82, 93, 75)" fill-opacity="0.50"/><path d="M187,9L183,90L164,52Z" fill="rgb(52, 33, 12)" fill-opacity="0.61"/><path d="M68,74L67,79L52,67Z" fill="rgb(128, 59, 7)" fill-opacity="0.64"/><path d="M70,227L73,238L79,222Z" fill="rgb(21, 22, 4)" fill-opacity="0.52"/><path d="M83,17L130,29L66,36Z" fill="rgb(204, 206, 178)" fill-opacity="0.55"/><path d="M119,16L146,64L121,68Z" fill="rgb(171, 173, 139)" fill-opacity="0.48"/><path d="M181,112L151,117L168,132Z" fill="rgb(153, 108, 40)" fill-opacity="0.33"/><path d="M-53,81L60,36L73,-122Z" fill="rgb(23, 24, 9)" fill-opacity="0.62"/><path d="M115,225L148,133L113,172Z" fill="rgb(4, 5, 7)" fill-opacity="0.79"/><path d="M148,31L190,44L9,-75Z" fill="rgb(25, 16, 0)" fill-opacity="0.46"/><path d="M94,78L104,80L91,84Z" fill="rgb(3, 6, 13)" fill-opacity="0.49"/><path d="M52,78L67,80L59,83Z" fill="rgb(14, 3, 14)" fill-opacity="0.44"/><path d="M55,121L53,112L107,120Z" fill="rgb(193, 177, 125)" fill-opacity="0.55"/><path d="M89,215L82,216L84,224Z" fill="rgb(170, 178, 154)" fill-opacity="0.61"/><path d="M37,106L35,78L54,112Z" fill="rgb(132, 115, 42)" fill-opacity="0.50"/><path d="M89,110L74,77L75,118Z" fill="rgb(175, 90, 0)" fill-opacity="0.32"/><path d="M71,176L116,166L110,194Z" fill="rgb(244, 254, 221)" fill-opacity="0.16"/><path d="M55,80L53,116L82,105Z" fill="rgb(255, 231, 172)" fill-opacity="0.15"/><path d="M86,150L96,119L119,109Z" fill="rgb(173, 150, 84)" fill-opacity="0.51"/><path d="M76,160L60,148L86,148Z" fill="rgb(124, 59, 15)" fill-opacity="0.41"/><path d="M94,193L65,233L81,185Z" fill="rgb(149, 156, 121)" fill-opacity="0.53"/><path d="M57,73L54,78L65,78Z" fill="rgb(196, 161, 105)" fill-opacity="0.59"/><path d="M27,216L48,186L39,222Z" fill="rgb(59, 62, 31)" fill-opacity="0.51"/><path d="M141,128L129,132L122,163Z" fill="rgb(94, 69, 37)" fill-opacity="0.67"/><path d="M84,249L97,239L97,216Z" fill="rgb(35, 45, 33)" fill-opacity="0.66"/><path d="M106,82L89,77L100,88Z" fill="rgb(38, 0, 0)" fill-opacity="0.27"/><path d="M53,176L47,131L71,155Z" fill="rgb(74, 66, 45)" fill-opacity="0.70"/><path d="M205,169L155,116L181,171Z" fill="rgb(119, 94, 33)" fill-opacity="0.43"/><path d="M98,141L120,103L106,142Z" fill="rgb(150, 105, 28)" fill-opacity="0.58"/><path d="M122,161L111,175L100,170Z" fill="rgb(113, 105, 71)" fill-opacity="0.51"/><path d="M87,168L84,198L71,162Z" fill="rgb(196, 204, 172)" fill-opacity="0.41"/><path d="M49,118L47,96L40,116Z" fill="rgb(111, 74, 28)" fill-opacity="0.59"/><path d="M146,118L160,143L158,120Z" fill="rgb(57, 43, 53)" fill-opacity="0.42"/></svg>