<svg xmlns="http://www.w3.org/2000/svg" viewBox="0 0 216.02191780821917 256" clip-path="url(#clip)"><defs><clipPath id="clip" clipPathUnits="objectBoundingBox"><rect x="0" y="0" width="216.02191780821917" height="256"/></clipPath></defs><rect x="0" y="0" width="216.02191780821917" height="256" fill="rgb(58, 65, 59)"/><path d="M65,44L75,200L180,56Z" fill="rgb(242, 177, 135)" fill-opacity="0.59"/><path d="M82,216L131,220L44,443Z" fill="rgb(208, 205, 199)" fill-opacity="1.00"/><path d="M157,156L137,161L140,182Z" fill="rgb(232, 211, 196)" fill-opacity="0.52"/><path d="M64,143L103,172L77,183Z" fill="rgb(245, 253, 255)" fill-opacity="0.66"/><path d="M81,102L34,106L108,176Z" fill="rgb(159, 109, 70)" fill-opacity="0.90"/><path d="M109,15L547,-9L181,177Z" fill="rgb(85, 91, 78)" fill-opacity="1.00"/><path d="M179,167L439,355L38,187Z" fill="rgb(10, 0, 0)" fill-opacity="0.56"/><path d="M122,41L63,93L139,66Z" fill="rgb(255, 205, 167)" fill-opacity="0.53"/><path d="M141,164L60,147L129,117Z" fill="rgb(174, 119, 80)" fill-opacity="0.85"/><path d="M80,45L66,73L112,81Z" fill="rgb(237, 208, 188)" fill-opacity="0.89"/><path d="M136,148L113,157L106,140Z" fill="rgb(245, 201, 167)" fill-opacity="0.64"/><path d="M125,98L136,36L166,94Z" fill="rgb(89, 48, 25)" fill-opacity="0.71"/><path d="M127,227L130,214L94,223Z" fill="rgb(192, 186, 178)" fill-opacity="0.80"/><path d="M94,82L163,80L88,97Z" fill="rgb(56, 25, 4)" fill-opacity="0.49"/><path d="M124,82L132,119L84,121Z" fill="rgb(245, 192, 153)" fill-opacity="0.60"/><path d="M148,-5L86,55L104,60Z" fill="rgb(56, 48, 44)" fill-opacity="0.47"/><path d="M-17,226L22,315L118,166Z" fill="rgb(22, 14, 12)" fill-opacity="0.63"/><path d="M70,91L111,101L88,113Z" fill="rgb(226, 181, 146)" fill-opacity="0.80"/><path d="M-2,89L89,44L65,13Z" fill="rgb(74, 77, 68)" fill-opacity="0.78"/><path d="M110,172L139,162L82,143Z" fill="rgb(129, 70, 32)" fill-opacity="0.71"/><path d="M132,174L130,95L162,126Z" fill="rgb(125, 59, 22)" fill-opacity="0.61"/><path d="M93,342L130,220L232,267Z" fill="rgb(37, 32, 29)" fill-opacity="0.95"/><path d="M112,98L146,66L129,41Z" fill="rgb(209, 131, 73)" fill-opacity="0.36"/><path d="M76,180L67,157L106,170Z" fill="rgb(246, 246, 246)" fill-opacity="0.42"/><path d="M75,100L57,119L53,37Z" fill="rgb(53, 33, 25)" fill-opacity="0.64"/><path d="M75,33L143,47L113,21Z" fill="rgb(49, 38, 33)" fill-opacity="0.80"/><path d="M42,226L66,153L84,204Z" fill="rgb(31, 27, 24)" fill-opacity="0.92"/><path d="M122,85L103,96L96,80Z" fill="rgb(16, 3, 0)" fill-opacity="0.33"/><path d="M79,231L58,174L52,328Z" fill="rgb(26, 20, 17)" fill-opacity="0.74"/><path d="M72,99L111,70L72,50Z" fill="rgb(252, 219, 195)" fill-opacity="0.42"/><path d="M209,225L155,173L158,132Z" fill="rgb(27, 23, 20)" fill-opacity="0.99"/><path d="M126,85L162,101L154,71Z" fill="rgb(66, 42, 28)" fill-opacity="0.93"/><path d="M65,106L61,131L85,133Z" fill="rgb(199, 146, 102)" fill-opacity="0.74"/><path d="M153,95L132,91L143,117Z" fill="rgb(193, 120, 72)" fill-opacity="0.54"/><path d="M141,42L110,45L108,58Z" fill="rgb(214, 135, 81)" fill-opacity="0.33"/><path d="M72,141L5,71L45,198Z" fill="rgb(84, 93, 77)" fill-opacity="0.70"/><path d="M136,171L158,145L143,183Z" fill="rgb(188, 178, 166)" fill-opacity="0.46"/><path d="M166,39L153,129L234,206Z" fill="rgb(112, 129, 111)" fill-opacity="0.32"/><path d="M130,216L84,243L102,296Z" fill="rgb(251, 250, 248)" fill-opacity="0.42"/><path d="M130,138L138,134L104,135Z" fill="rgb(82, 24, 0)" fill-opacity="0.60"/><path d="M50,111L74,71L42,68Z" fill="rgb(45, 12, 6)" fill-opacity="0.34"/><path d="M79,233L96,221L81,209Z" fill="rgb(164, 154, 143)" fill-opacity="0.69"/><path d="M138,154L138,202L94,175Z" fill="rgb(25, 9, 3)" fill-opacity="0.37"/><path d="M132,134L85,121L98,106Z" fill="rgb(202, 152, 117)" fill-opacity="1.00"/><path d="M74,125L66,133L45,117Z" fill="rgb(195, 145, 103)" fill-opacity="0.76"/><path d="M46,122L16,84L42,46Z" fill="rgb(75, 85, 72)" fill-opacity="0.96"/><path d="M67,62L94,75L90,42Z" fill="rgb(255, 232, 223)" fill-opacity="0.26"/><path d="M165,143L138,240L125,230Z" fill="rgb(11, 5, 2)" fill-opacity="0.40"/><path d="M84,217L74,250L74,269Z" fill="rgb(160, 150, 139)" fill-opacity="0.71"/><path d="M156,138L109,118L153,125Z" fill="rgb(100, 51, 20)" fill-opacity="0.54"/><path d="M157,143L135,167L126,155Z" fill="rgb(103, 61, 36)" fill-opacity="0.82"/><path d="M77,184L70,141L95,172Z" fill="rgb(233, 236, 234)" fill-opacity="0.47"/><path d="M139,150L141,144L100,149Z" fill="rgb(247, 198, 161)" fill-opacity="0.32"/><path d="M136,118L128,122L111,63Z" fill="rgb(255, 218, 187)" fill-opacity="0.30"/><path d="M88,57L128,74L109,81Z" fill="rgb(222, 182, 152)" fill-opacity="0.69"/><path d="M64,80L62,24L69,69Z" fill="rgb(92, 80, 72)" fill-opacity="0.76"/><path d="M159,184L134,178L129,251Z" fill="rgb(22, 18, 15)" fill-opacity="0.81"/><path d="M71,132L97,148L65,136Z" fill="rgb(86, 45, 9)" fill-opacity="0.30"/><path d="M117,134L98,146L116,128Z" fill="rgb(104, 44, 0)" fill-opacity="0.27"/><path d="M134,214L106,222L90,218Z" fill="rgb(106, 91, 79)" fill-opacity="0.37"/><path d="M126,81L129,100L145,130Z" fill="rgb(91, 48, 20)" fill-opacity="0.72"/><path d="M189,179L225,189L173,257Z" fill="rgb(22, 18, 15)" fill-opacity="0.82"/><path d="M141,181L154,166L157,148Z" fill="rgb(121, 114, 104)" fill-opacity="0.94"/><path d="M155,89L132,144L153,146Z" fill="rgb(101, 55, 28)" fill-opacity="0.90"/><path d="M135,33L147,77L126,79Z" fill="rgb(138, 89, 54)" fill-opacity="0.45"/><path d="M-8,247L41,198L-83,152Z" fill="rgb(45, 56, 50)" fill-opacity="0.82"/><path d="M141,36L164,40L163,86Z" fill="rgb(118, 136, 119)" fill-opacity="0.26"/><path d="M130,157L110,136L106,157Z" fill="rgb(255, 227, 191)" fill-opacity="0.23"/><path d="M95,116L45,104L49,100Z" fill="rgb(156, 100, 59)" fill-opacity="0.74"/><path d="M59,104L67,124L55,116Z" fill="rgb(115, 56, 18)" fill-opacity="0.52"/><path d="M54,184L47,292L38,203Z" fill="rgb(40, 36, 33)" fill-opacity="1.00"/><path d="M118,108L96,88L103,126Z" fill="rgb(238, 206, 180)" fill-opacity="0.26"/><path d="M79,108L101,109L69,67Z" fill="rgb(225, 180, 144)" fill-opacity="0.48"/><path d="M223,61L283,-37L78,15Z" fill="rgb(68, 84, 76)" fill-opacity="0.61"/><path d="M122,104L106,132L99,136Z" fill="rgb(125, 69, 21)" fill-opacity="0.39"/><path d="M71,140L79,159L66,152Z" fill="rgb(174, 168, 159)" fill-opacity="0.54"/><path d="M95,149L111,161L90,165Z" fill="rgb(83, 39, 13)" fill-opacity="0.34"/><path d="M67,94L62,70L73,80Z" fill="rgb(79, 67, 60)" fill-opacity="0.62"/><path d="M121,76L120,88L138,76Z" fill="rgb(191, 140, 96)" fill-opacity="0.47"/><path d="M58,311L126,233L123,245Z" fill="rgb(236, 232, 229)" fill-opacity="0.43"/><path d="M95,174L137,178L138,166Z" fill="rgb(24, 19, 16)" fill-opacity="0.67"/><path d="M96,47L105,33L79,48Z" fill="rgb(133, 98, 83)" fill-opacity="0.48"/><path d="M55,110L44,110L57,131Z" fill="rgb(250, 166, 103)" fill-opacity="0.21"/><path d="M89,26L68,53L116,26Z" fill="rgb(39, 19, 16)" fill-opacity="0.42"/><path d="M153,131L194,146L157,99Z" fill="rgb(119, 123, 101)" fill-opacity="0.47"/><path d="M149,56L111,33L130,33Z" fill="rgb(52, 44, 43)" fill-opacity="0.55"/><path d="M3,89L23,210L70,150Z" fill="rgb(76, 88, 74)" fill-opacity="0.39"/><path d="M42,97L69,88L74,106Z" fill="rgb(37, 29, 27)" fill-opacity="0.54"/><path d="M108,130L127,125L114,121Z" fill="rgb(242, 205, 169)" fill-opacity="0.39"/><path d="M41,77L57,69L66,102Z" fill="rgb(13, 10, 11)" fill-opacity="0.35"/><path d="M172,162L198,182L281,61Z" fill="rgb(79, 92, 82)" fill-opacity="0.67"/><path d="M99,154L62,110L106,107Z" fill="rgb(203, 138, 91)" fill-opacity="0.28"/><path d="M141,48L163,100L155,102Z" fill="rgb(34, 29, 29)" fill-opacity="0.49"/><path d="M7,62L48,24L60,54Z" fill="rgb(67, 83, 73)" fill-opacity="0.46"/><path d="M120,41L135,47L113,46Z" fill="rgb(159, 95, 52)" fill-opacity="0.53"/><path d="M88,128L81,144L72,97Z" fill="rgb(153, 101, 61)" fill-opacity="0.53"/><path d="M189,209L175,220L169,172Z" fill="rgb(44, 39, 36)" fill-opacity="0.55"/><path d="M149,152L137,173L141,180Z" fill="rgb(221, 215, 204)" fill-opacity="0.36"/><path d="M82,143L90,157L76,148Z" fill="rgb(204, 154, 108)" fill-opacity="0.46"/><path d="M126,87L92,125L104,128Z" fill="rgb(252, 219, 193)" fill-opacity="0.20"/></svg>