<svg xmlns="http://www.w3.org/2000/svg" viewBox="0 0 208.11004126547456 256" clip-path="url(#clip)"><defs><clipPath id="clip" clipPathUnits="objectBoundingBox"><rect x="0" y="0" width="208.11004126547456" height="256"/></clipPath></defs><rect x="0" y="0" width="208.11004126547456" height="256" fill="rgb(36, 31, 31)"/><path d="M164,-33L105,333L29,41Z" fill="rgb(245, 203, 175)" fill-opacity="0.57"/><path d="M166,150L95,207L103,242Z" fill="rgb(229, 233, 235)" fill-opacity="0.68"/><path d="M77,185L50,278L90,196Z" fill="rgb(207, 205, 201)" fill-opacity="1.00"/><path d="M247,-5L196,181L90,91Z" fill="rgb(107, 82, 69)" fill-opacity="1.00"/><path d="M92,128L40,43L100,4Z" fill="rgb(232, 209, 190)" fill-opacity="0.74"/><path d="M44,284L90,279L91,205Z" fill="rgb(42, 47, 61)" fill-opacity="1.00"/><path d="M48,-3L41,89L-211,11Z" fill="rgb(16, 15, 17)" fill-opacity="0.87"/><path d="M70,-20L164,59L249,-1Z" fill="rgb(65, 52, 46)" fill-opacity="0.99"/><path d="M57,81L90,81L82,109Z" fill="rgb(130, 108, 94)" fill-opacity="1.00"/><path d="M402,190L141,187L61,305Z" fill="rgb(16, 13, 15)" fill-opacity="0.83"/><path d="M151,90L170,95L162,33Z" fill="rgb(0, 12, 23)" fill-opacity="0.52"/><path d="M159,16L119,31L90,23Z" fill="rgb(24, 26, 24)" fill-opacity="0.47"/><path d="M70,13L76,198L39,53Z" fill="rgb(255, 235, 209)" fill-opacity="0.43"/><path d="M46,43L121,31L107,81Z" fill="rgb(255, 214, 177)" fill-opacity="0.50"/><path d="M67,91L87,94L55,99Z" fill="rgb(41, 40, 42)" fill-opacity="0.69"/><path d="M122,8L85,-123L36,7Z" fill="rgb(10, 11, 12)" fill-opacity="0.69"/><path d="M94,199L137,178L96,72Z" fill="rgb(91, 18, 0)" fill-opacity="0.35"/><path d="M199,123L146,170L183,78Z" fill="rgb(176, 146, 125)" fill-opacity="0.62"/><path d="M94,253L88,229L118,221Z" fill="rgb(242, 252, 255)" fill-opacity="0.61"/><path d="M138,193L124,183L161,162Z" fill="rgb(201, 192, 187)" fill-opacity="0.52"/><path d="M143,99L142,174L94,114Z" fill="rgb(164, 107, 80)" fill-opacity="0.62"/><path d="M81,206L70,245L102,222Z" fill="rgb(41, 46, 62)" fill-opacity="0.93"/><path d="M108,121L100,140L83,128Z" fill="rgb(58, 32, 22)" fill-opacity="0.55"/><path d="M99,195L71,197L112,224Z" fill="rgb(238, 239, 239)" fill-opacity="0.73"/><path d="M46,134L87,148L86,100Z" fill="rgb(241, 190, 158)" fill-opacity="0.58"/><path d="M74,179L-178,-53L68,221Z" fill="rgb(26, 24, 27)" fill-opacity="0.85"/><path d="M215,213L157,145L165,228Z" fill="rgb(21, 18, 19)" fill-opacity="0.79"/><path d="M74,183L88,193L65,242Z" fill="rgb(233, 230, 221)" fill-opacity="0.88"/><path d="M48,120L106,178L73,183Z" fill="rgb(208, 158, 126)" fill-opacity="0.76"/><path d="M117,75L154,96L93,98Z" fill="rgb(18, 24, 33)" fill-opacity="0.46"/><path d="M60,246L49,278L73,280Z" fill="rgb(214, 220, 221)" fill-opacity="0.93"/><path d="M160,63L144,24L113,79Z" fill="rgb(131, 105, 82)" fill-opacity="0.88"/><path d="M45,38L45,118L83,8Z" fill="rgb(235, 217, 204)" fill-opacity="0.50"/><path d="M142,103L115,149L109,116Z" fill="rgb(203, 141, 106)" fill-opacity="0.59"/><path d="M44,87L28,-121L-57,558Z" fill="rgb(21, 20, 23)" fill-opacity="0.74"/><path d="M40,51L-67,6L75,-7Z" fill="rgb(15, 14, 14)" fill-opacity="0.72"/><path d="M65,80L80,84L56,87Z" fill="rgb(39, 21, 15)" fill-opacity="0.51"/><path d="M117,80L94,113L99,81Z" fill="rgb(45, 42, 41)" fill-opacity="0.56"/><path d="M166,51L155,21L149,43Z" fill="rgb(0, 11, 22)" fill-opacity="0.50"/><path d="M109,5L64,17L121,17Z" fill="rgb(204, 239, 247)" fill-opacity="0.27"/><path d="M106,82L133,63L118,26Z" fill="rgb(211, 147, 81)" fill-opacity="0.44"/><path d="M162,149L138,114L116,192Z" fill="rgb(94, 67, 60)" fill-opacity="0.62"/><path d="M97,217L79,252L89,207Z" fill="rgb(27, 34, 46)" fill-opacity="0.65"/><path d="M191,108L153,162L160,110Z" fill="rgb(220, 183, 152)" fill-opacity="0.25"/><path d="M154,72L151,47L145,51Z" fill="rgb(149, 197, 219)" fill-opacity="0.31"/><path d="M123,77L129,105L139,89Z" fill="rgb(29, 26, 30)" fill-opacity="0.56"/><path d="M113,211L161,191L139,185Z" fill="rgb(61, 52, 38)" fill-opacity="0.29"/><path d="M96,120L50,96L48,122Z" fill="rgb(255, 214, 182)" fill-opacity="0.37"/><path d="M157,103L162,89L180,67Z" fill="rgb(121, 88, 67)" fill-opacity="1.00"/><path d="M77,118L75,125L91,132Z" fill="rgb(141, 95, 63)" fill-opacity="0.67"/><path d="M108,194L134,177L78,187Z" fill="rgb(45, 28, 25)" fill-opacity="0.36"/><path d="M77,245L72,241L75,250Z" fill="rgb(226, 225, 215)" fill-opacity="0.51"/><path d="M220,117L265,21L161,34Z" fill="rgb(87, 67, 56)" fill-opacity="0.82"/><path d="M54,139L51,108L43,99Z" fill="rgb(253, 205, 157)" fill-opacity="0.43"/><path d="M71,108L87,94L58,98Z" fill="rgb(133, 107, 91)" fill-opacity="0.69"/><path d="M126,90L119,83L105,90Z" fill="rgb(172, 118, 93)" fill-opacity="0.55"/><path d="M73,148L115,147L71,154Z" fill="rgb(118, 71, 59)" fill-opacity="0.74"/><path d="M116,98L111,93L108,96Z" fill="rgb(156, 157, 171)" fill-opacity="0.65"/><path d="M95,204L104,238L121,215Z" fill="rgb(234, 233, 231)" fill-opacity="0.92"/><path d="M149,31L143,37L142,27Z" fill="rgb(212, 233, 246)" fill-opacity="0.40"/><path d="M117,15L131,10L147,29Z" fill="rgb(0, 0, 7)" fill-opacity="0.57"/><path d="M-40,124L62,183L45,109Z" fill="rgb(24, 23, 27)" fill-opacity="0.90"/><path d="M217,199L174,166L230,109Z" fill="rgb(73, 55, 53)" fill-opacity="0.74"/><path d="M87,94L67,81L83,87Z" fill="rgb(32, 22, 19)" fill-opacity="0.49"/><path d="M96,178L66,173L57,145Z" fill="rgb(213, 170, 140)" fill-opacity="0.87"/><path d="M205,109L182,153L162,152Z" fill="rgb(134, 102, 86)" fill-opacity="0.77"/><path d="M69,16L108,33L46,38Z" fill="rgb(217, 203, 195)" fill-opacity="0.53"/><path d="M44,50L51,59L43,84Z" fill="rgb(250, 244, 240)" fill-opacity="0.55"/><path d="M120,192L87,196L122,212Z" fill="rgb(179, 176, 179)" fill-opacity="0.67"/><path d="M105,152L80,152L75,159Z" fill="rgb(230, 179, 154)" fill-opacity="0.65"/><path d="M-14,16L77,13L103,4Z" fill="rgb(18, 17, 17)" fill-opacity="0.78"/><path d="M166,96L147,85L165,109Z" fill="rgb(57, 42, 38)" fill-opacity="0.50"/><path d="M197,88L167,67L198,129Z" fill="rgb(137, 104, 82)" fill-opacity="0.69"/><path d="M127,150L93,143L137,121Z" fill="rgb(161, 105, 81)" fill-opacity="0.89"/><path d="M101,151L78,162L104,172Z" fill="rgb(169, 109, 81)" fill-opacity="0.59"/><path d="M158,150L122,199L158,166Z" fill="rgb(197, 198, 205)" fill-opacity="0.47"/><path d="M126,130L138,102L112,118Z" fill="rgb(210, 156, 119)" fill-opacity="0.42"/><path d="M137,85L114,12L144,39Z" fill="rgb(128, 82, 44)" fill-opacity="0.39"/><path d="M92,21L113,34L114,13Z" fill="rgb(90, 91, 83)" fill-opacity="0.36"/><path d="M55,242L61,242L72,201Z" fill="rgb(86, 75, 64)" fill-opacity="0.66"/><path d="M117,64L95,27L86,91Z" fill="rgb(223, 181, 148)" fill-opacity="0.63"/><path d="M59,97L43,110L58,46Z" fill="rgb(214, 158, 111)" fill-opacity="0.37"/><path d="M13,66L54,104L26,94Z" fill="rgb(51, 42, 34)" fill-opacity="0.29"/><path d="M58,81L95,74L82,10Z" fill="rgb(238, 214, 194)" fill-opacity="0.56"/><path d="M149,136L98,199L83,188Z" fill="rgb(148, 93, 70)" fill-opacity="0.44"/><path d="M93,170L77,168L81,196Z" fill="rgb(226, 176, 151)" fill-opacity="0.46"/><path d="M92,255L45,267L90,239Z" fill="rgb(21, 26, 36)" fill-opacity="0.69"/><path d="M104,198L146,169L134,192Z" fill="rgb(216, 213, 210)" fill-opacity="0.51"/><path d="M86,20L114,7L95,36Z" fill="rgb(164, 159, 152)" fill-opacity="0.43"/><path d="M66,152L65,136L79,117Z" fill="rgb(176, 122, 81)" fill-opacity="0.56"/><path d="M84,126L92,129L97,102Z" fill="rgb(217, 147, 99)" fill-opacity="0.44"/><path d="M60,89L74,84L66,92Z" fill="rgb(252, 231, 234)" fill-opacity="0.44"/><path d="M82,116L79,149L68,144Z" fill="rgb(255, 212, 190)" fill-opacity="0.26"/><path d="M98,251L90,259L113,205Z" fill="rgb(227, 232, 233)" fill-opacity="0.68"/><path d="M14,211L73,188L69,216Z" fill="rgb(51, 42, 38)" fill-opacity="0.67"/><path d="M65,92L75,95L68,99Z" fill="rgb(14, 14, 19)" fill-opacity="0.48"/><path d="M93,146L69,141L94,136Z" fill="rgb(239, 184, 155)" fill-opacity="0.50"/><path d="M127,79L100,82L133,87Z" fill="rgb(13, 16, 24)" fill-opacity="0.49"/><path d="M62,117L62,133L91,101Z" fill="rgb(230, 202, 185)" fill-opacity="0.94"/><path d="M148,44L162,70L145,14Z" fill="rgb(77, 80, 84)" fill-opacity="0.73"/></svg>